G75*
%MOIN*%
%OFA0B0*%
%FSLAX24Y24*%
%IPPOS*%
%LPD*%
%AMOC8*
5,1,8,0,0,1.08239X$1,22.5*
%
%ADD10C,0.0000*%
%ADD11R,0.0520X0.0220*%
%ADD12R,0.0315X0.0472*%
%ADD13C,0.0079*%
%ADD14R,0.0355X0.0512*%
%ADD15R,0.0450X0.0400*%
%ADD16R,0.0236X0.0866*%
%ADD17C,0.0560*%
%ADD18R,0.0500X0.0250*%
%ADD19R,0.0460X0.0140*%
%ADD20R,0.0472X0.0315*%
%ADD21R,0.0512X0.0355*%
%ADD22OC8,0.0660*%
%ADD23C,0.0740*%
%ADD24R,0.0472X0.0276*%
%ADD25R,0.0276X0.0669*%
%ADD26R,0.0210X0.0500*%
%ADD27R,0.0500X0.0210*%
%ADD28OC8,0.0600*%
%ADD29OC8,0.0640*%
%ADD30OC8,0.0760*%
%ADD31C,0.0160*%
%ADD32C,0.0200*%
%ADD33C,0.0240*%
%ADD34R,0.0354X0.0354*%
%ADD35R,0.0250X0.0250*%
%ADD36C,0.0120*%
%ADD37C,0.0180*%
%ADD38C,0.0100*%
%ADD39C,0.0320*%
%ADD40C,0.0320*%
%ADD41C,0.0210*%
%ADD42C,0.0250*%
%ADD43C,0.0140*%
%ADD44C,0.0260*%
%ADD45C,0.0250*%
%ADD46C,0.0150*%
D10*
X005610Y001350D02*
X005610Y019820D01*
X005612Y019864D01*
X005618Y019907D01*
X005627Y019949D01*
X005640Y019991D01*
X005657Y020031D01*
X005677Y020070D01*
X005700Y020107D01*
X005727Y020141D01*
X005756Y020174D01*
X005789Y020203D01*
X005823Y020230D01*
X005860Y020253D01*
X005899Y020273D01*
X005939Y020290D01*
X005981Y020303D01*
X006023Y020312D01*
X006066Y020318D01*
X006110Y020320D01*
X024716Y020320D01*
X024760Y020318D01*
X024803Y020312D01*
X024845Y020303D01*
X024887Y020290D01*
X024927Y020273D01*
X024966Y020253D01*
X025003Y020230D01*
X025037Y020203D01*
X025070Y020174D01*
X025099Y020141D01*
X025126Y020107D01*
X025149Y020070D01*
X025169Y020031D01*
X025186Y019991D01*
X025199Y019949D01*
X025208Y019907D01*
X025214Y019864D01*
X025216Y019820D01*
X025216Y001350D01*
X025214Y001306D01*
X025208Y001263D01*
X025199Y001221D01*
X025186Y001179D01*
X025169Y001139D01*
X025149Y001100D01*
X025126Y001063D01*
X025099Y001029D01*
X025070Y000996D01*
X025037Y000967D01*
X025003Y000940D01*
X024966Y000917D01*
X024927Y000897D01*
X024887Y000880D01*
X024845Y000867D01*
X024803Y000858D01*
X024760Y000852D01*
X024716Y000850D01*
X006110Y000850D01*
X006066Y000852D01*
X006023Y000858D01*
X005981Y000867D01*
X005939Y000880D01*
X005899Y000897D01*
X005860Y000917D01*
X005823Y000940D01*
X005789Y000967D01*
X005756Y000996D01*
X005727Y001029D01*
X005700Y001063D01*
X005677Y001100D01*
X005657Y001139D01*
X005640Y001179D01*
X005627Y001221D01*
X005618Y001263D01*
X005612Y001306D01*
X005610Y001350D01*
X006075Y001698D02*
X006077Y001739D01*
X006083Y001780D01*
X006093Y001820D01*
X006106Y001859D01*
X006123Y001896D01*
X006144Y001932D01*
X006168Y001966D01*
X006195Y001997D01*
X006224Y002025D01*
X006257Y002051D01*
X006291Y002073D01*
X006328Y002092D01*
X006366Y002107D01*
X006406Y002119D01*
X006446Y002127D01*
X006487Y002131D01*
X006529Y002131D01*
X006570Y002127D01*
X006610Y002119D01*
X006650Y002107D01*
X006688Y002092D01*
X006724Y002073D01*
X006759Y002051D01*
X006792Y002025D01*
X006821Y001997D01*
X006848Y001966D01*
X006872Y001932D01*
X006893Y001896D01*
X006910Y001859D01*
X006923Y001820D01*
X006933Y001780D01*
X006939Y001739D01*
X006941Y001698D01*
X006939Y001657D01*
X006933Y001616D01*
X006923Y001576D01*
X006910Y001537D01*
X006893Y001500D01*
X006872Y001464D01*
X006848Y001430D01*
X006821Y001399D01*
X006792Y001371D01*
X006759Y001345D01*
X006725Y001323D01*
X006688Y001304D01*
X006650Y001289D01*
X006610Y001277D01*
X006570Y001269D01*
X006529Y001265D01*
X006487Y001265D01*
X006446Y001269D01*
X006406Y001277D01*
X006366Y001289D01*
X006328Y001304D01*
X006292Y001323D01*
X006257Y001345D01*
X006224Y001371D01*
X006195Y001399D01*
X006168Y001430D01*
X006144Y001464D01*
X006123Y001500D01*
X006106Y001537D01*
X006093Y001576D01*
X006083Y001616D01*
X006077Y001657D01*
X006075Y001698D01*
X006075Y009372D02*
X006077Y009413D01*
X006083Y009454D01*
X006093Y009494D01*
X006106Y009533D01*
X006123Y009570D01*
X006144Y009606D01*
X006168Y009640D01*
X006195Y009671D01*
X006224Y009699D01*
X006257Y009725D01*
X006291Y009747D01*
X006328Y009766D01*
X006366Y009781D01*
X006406Y009793D01*
X006446Y009801D01*
X006487Y009805D01*
X006529Y009805D01*
X006570Y009801D01*
X006610Y009793D01*
X006650Y009781D01*
X006688Y009766D01*
X006724Y009747D01*
X006759Y009725D01*
X006792Y009699D01*
X006821Y009671D01*
X006848Y009640D01*
X006872Y009606D01*
X006893Y009570D01*
X006910Y009533D01*
X006923Y009494D01*
X006933Y009454D01*
X006939Y009413D01*
X006941Y009372D01*
X006939Y009331D01*
X006933Y009290D01*
X006923Y009250D01*
X006910Y009211D01*
X006893Y009174D01*
X006872Y009138D01*
X006848Y009104D01*
X006821Y009073D01*
X006792Y009045D01*
X006759Y009019D01*
X006725Y008997D01*
X006688Y008978D01*
X006650Y008963D01*
X006610Y008951D01*
X006570Y008943D01*
X006529Y008939D01*
X006487Y008939D01*
X006446Y008943D01*
X006406Y008951D01*
X006366Y008963D01*
X006328Y008978D01*
X006292Y008997D01*
X006257Y009019D01*
X006224Y009045D01*
X006195Y009073D01*
X006168Y009104D01*
X006144Y009138D01*
X006123Y009174D01*
X006106Y009211D01*
X006093Y009250D01*
X006083Y009290D01*
X006077Y009331D01*
X006075Y009372D01*
X006075Y011798D02*
X006077Y011839D01*
X006083Y011880D01*
X006093Y011920D01*
X006106Y011959D01*
X006123Y011996D01*
X006144Y012032D01*
X006168Y012066D01*
X006195Y012097D01*
X006224Y012125D01*
X006257Y012151D01*
X006291Y012173D01*
X006328Y012192D01*
X006366Y012207D01*
X006406Y012219D01*
X006446Y012227D01*
X006487Y012231D01*
X006529Y012231D01*
X006570Y012227D01*
X006610Y012219D01*
X006650Y012207D01*
X006688Y012192D01*
X006724Y012173D01*
X006759Y012151D01*
X006792Y012125D01*
X006821Y012097D01*
X006848Y012066D01*
X006872Y012032D01*
X006893Y011996D01*
X006910Y011959D01*
X006923Y011920D01*
X006933Y011880D01*
X006939Y011839D01*
X006941Y011798D01*
X006939Y011757D01*
X006933Y011716D01*
X006923Y011676D01*
X006910Y011637D01*
X006893Y011600D01*
X006872Y011564D01*
X006848Y011530D01*
X006821Y011499D01*
X006792Y011471D01*
X006759Y011445D01*
X006725Y011423D01*
X006688Y011404D01*
X006650Y011389D01*
X006610Y011377D01*
X006570Y011369D01*
X006529Y011365D01*
X006487Y011365D01*
X006446Y011369D01*
X006406Y011377D01*
X006366Y011389D01*
X006328Y011404D01*
X006292Y011423D01*
X006257Y011445D01*
X006224Y011471D01*
X006195Y011499D01*
X006168Y011530D01*
X006144Y011564D01*
X006123Y011600D01*
X006106Y011637D01*
X006093Y011676D01*
X006083Y011716D01*
X006077Y011757D01*
X006075Y011798D01*
X006075Y019472D02*
X006077Y019513D01*
X006083Y019554D01*
X006093Y019594D01*
X006106Y019633D01*
X006123Y019670D01*
X006144Y019706D01*
X006168Y019740D01*
X006195Y019771D01*
X006224Y019799D01*
X006257Y019825D01*
X006291Y019847D01*
X006328Y019866D01*
X006366Y019881D01*
X006406Y019893D01*
X006446Y019901D01*
X006487Y019905D01*
X006529Y019905D01*
X006570Y019901D01*
X006610Y019893D01*
X006650Y019881D01*
X006688Y019866D01*
X006724Y019847D01*
X006759Y019825D01*
X006792Y019799D01*
X006821Y019771D01*
X006848Y019740D01*
X006872Y019706D01*
X006893Y019670D01*
X006910Y019633D01*
X006923Y019594D01*
X006933Y019554D01*
X006939Y019513D01*
X006941Y019472D01*
X006939Y019431D01*
X006933Y019390D01*
X006923Y019350D01*
X006910Y019311D01*
X006893Y019274D01*
X006872Y019238D01*
X006848Y019204D01*
X006821Y019173D01*
X006792Y019145D01*
X006759Y019119D01*
X006725Y019097D01*
X006688Y019078D01*
X006650Y019063D01*
X006610Y019051D01*
X006570Y019043D01*
X006529Y019039D01*
X006487Y019039D01*
X006446Y019043D01*
X006406Y019051D01*
X006366Y019063D01*
X006328Y019078D01*
X006292Y019097D01*
X006257Y019119D01*
X006224Y019145D01*
X006195Y019173D01*
X006168Y019204D01*
X006144Y019238D01*
X006123Y019274D01*
X006106Y019311D01*
X006093Y019350D01*
X006083Y019390D01*
X006077Y019431D01*
X006075Y019472D01*
X023885Y019472D02*
X023887Y019513D01*
X023893Y019554D01*
X023903Y019594D01*
X023916Y019633D01*
X023933Y019670D01*
X023954Y019706D01*
X023978Y019740D01*
X024005Y019771D01*
X024034Y019799D01*
X024067Y019825D01*
X024101Y019847D01*
X024138Y019866D01*
X024176Y019881D01*
X024216Y019893D01*
X024256Y019901D01*
X024297Y019905D01*
X024339Y019905D01*
X024380Y019901D01*
X024420Y019893D01*
X024460Y019881D01*
X024498Y019866D01*
X024534Y019847D01*
X024569Y019825D01*
X024602Y019799D01*
X024631Y019771D01*
X024658Y019740D01*
X024682Y019706D01*
X024703Y019670D01*
X024720Y019633D01*
X024733Y019594D01*
X024743Y019554D01*
X024749Y019513D01*
X024751Y019472D01*
X024749Y019431D01*
X024743Y019390D01*
X024733Y019350D01*
X024720Y019311D01*
X024703Y019274D01*
X024682Y019238D01*
X024658Y019204D01*
X024631Y019173D01*
X024602Y019145D01*
X024569Y019119D01*
X024535Y019097D01*
X024498Y019078D01*
X024460Y019063D01*
X024420Y019051D01*
X024380Y019043D01*
X024339Y019039D01*
X024297Y019039D01*
X024256Y019043D01*
X024216Y019051D01*
X024176Y019063D01*
X024138Y019078D01*
X024102Y019097D01*
X024067Y019119D01*
X024034Y019145D01*
X024005Y019173D01*
X023978Y019204D01*
X023954Y019238D01*
X023933Y019274D01*
X023916Y019311D01*
X023903Y019350D01*
X023893Y019390D01*
X023887Y019431D01*
X023885Y019472D01*
X023885Y011798D02*
X023887Y011839D01*
X023893Y011880D01*
X023903Y011920D01*
X023916Y011959D01*
X023933Y011996D01*
X023954Y012032D01*
X023978Y012066D01*
X024005Y012097D01*
X024034Y012125D01*
X024067Y012151D01*
X024101Y012173D01*
X024138Y012192D01*
X024176Y012207D01*
X024216Y012219D01*
X024256Y012227D01*
X024297Y012231D01*
X024339Y012231D01*
X024380Y012227D01*
X024420Y012219D01*
X024460Y012207D01*
X024498Y012192D01*
X024534Y012173D01*
X024569Y012151D01*
X024602Y012125D01*
X024631Y012097D01*
X024658Y012066D01*
X024682Y012032D01*
X024703Y011996D01*
X024720Y011959D01*
X024733Y011920D01*
X024743Y011880D01*
X024749Y011839D01*
X024751Y011798D01*
X024749Y011757D01*
X024743Y011716D01*
X024733Y011676D01*
X024720Y011637D01*
X024703Y011600D01*
X024682Y011564D01*
X024658Y011530D01*
X024631Y011499D01*
X024602Y011471D01*
X024569Y011445D01*
X024535Y011423D01*
X024498Y011404D01*
X024460Y011389D01*
X024420Y011377D01*
X024380Y011369D01*
X024339Y011365D01*
X024297Y011365D01*
X024256Y011369D01*
X024216Y011377D01*
X024176Y011389D01*
X024138Y011404D01*
X024102Y011423D01*
X024067Y011445D01*
X024034Y011471D01*
X024005Y011499D01*
X023978Y011530D01*
X023954Y011564D01*
X023933Y011600D01*
X023916Y011637D01*
X023903Y011676D01*
X023893Y011716D01*
X023887Y011757D01*
X023885Y011798D01*
X023885Y009372D02*
X023887Y009413D01*
X023893Y009454D01*
X023903Y009494D01*
X023916Y009533D01*
X023933Y009570D01*
X023954Y009606D01*
X023978Y009640D01*
X024005Y009671D01*
X024034Y009699D01*
X024067Y009725D01*
X024101Y009747D01*
X024138Y009766D01*
X024176Y009781D01*
X024216Y009793D01*
X024256Y009801D01*
X024297Y009805D01*
X024339Y009805D01*
X024380Y009801D01*
X024420Y009793D01*
X024460Y009781D01*
X024498Y009766D01*
X024534Y009747D01*
X024569Y009725D01*
X024602Y009699D01*
X024631Y009671D01*
X024658Y009640D01*
X024682Y009606D01*
X024703Y009570D01*
X024720Y009533D01*
X024733Y009494D01*
X024743Y009454D01*
X024749Y009413D01*
X024751Y009372D01*
X024749Y009331D01*
X024743Y009290D01*
X024733Y009250D01*
X024720Y009211D01*
X024703Y009174D01*
X024682Y009138D01*
X024658Y009104D01*
X024631Y009073D01*
X024602Y009045D01*
X024569Y009019D01*
X024535Y008997D01*
X024498Y008978D01*
X024460Y008963D01*
X024420Y008951D01*
X024380Y008943D01*
X024339Y008939D01*
X024297Y008939D01*
X024256Y008943D01*
X024216Y008951D01*
X024176Y008963D01*
X024138Y008978D01*
X024102Y008997D01*
X024067Y009019D01*
X024034Y009045D01*
X024005Y009073D01*
X023978Y009104D01*
X023954Y009138D01*
X023933Y009174D01*
X023916Y009211D01*
X023903Y009250D01*
X023893Y009290D01*
X023887Y009331D01*
X023885Y009372D01*
X023885Y001698D02*
X023887Y001739D01*
X023893Y001780D01*
X023903Y001820D01*
X023916Y001859D01*
X023933Y001896D01*
X023954Y001932D01*
X023978Y001966D01*
X024005Y001997D01*
X024034Y002025D01*
X024067Y002051D01*
X024101Y002073D01*
X024138Y002092D01*
X024176Y002107D01*
X024216Y002119D01*
X024256Y002127D01*
X024297Y002131D01*
X024339Y002131D01*
X024380Y002127D01*
X024420Y002119D01*
X024460Y002107D01*
X024498Y002092D01*
X024534Y002073D01*
X024569Y002051D01*
X024602Y002025D01*
X024631Y001997D01*
X024658Y001966D01*
X024682Y001932D01*
X024703Y001896D01*
X024720Y001859D01*
X024733Y001820D01*
X024743Y001780D01*
X024749Y001739D01*
X024751Y001698D01*
X024749Y001657D01*
X024743Y001616D01*
X024733Y001576D01*
X024720Y001537D01*
X024703Y001500D01*
X024682Y001464D01*
X024658Y001430D01*
X024631Y001399D01*
X024602Y001371D01*
X024569Y001345D01*
X024535Y001323D01*
X024498Y001304D01*
X024460Y001289D01*
X024420Y001277D01*
X024380Y001269D01*
X024339Y001265D01*
X024297Y001265D01*
X024256Y001269D01*
X024216Y001277D01*
X024176Y001289D01*
X024138Y001304D01*
X024102Y001323D01*
X024067Y001345D01*
X024034Y001371D01*
X024005Y001399D01*
X023978Y001430D01*
X023954Y001464D01*
X023933Y001500D01*
X023916Y001537D01*
X023903Y001576D01*
X023893Y001616D01*
X023887Y001657D01*
X023885Y001698D01*
D11*
X010690Y006650D03*
X009830Y006280D03*
X009830Y007020D03*
X008630Y008430D03*
X008630Y009170D03*
X009490Y008800D03*
X008070Y006420D03*
X008070Y006050D03*
X008070Y005680D03*
X007050Y005680D03*
X007050Y006050D03*
X007050Y006420D03*
X007050Y015780D03*
X007050Y016150D03*
X007050Y016520D03*
X008070Y016520D03*
X008070Y016150D03*
X008070Y015780D03*
X009830Y016380D03*
X009830Y017120D03*
X010690Y016750D03*
X008630Y018530D03*
X008630Y019270D03*
X009490Y018900D03*
D12*
X007864Y014450D03*
X007156Y014450D03*
X007156Y004350D03*
X007864Y004350D03*
D13*
X005843Y005988D02*
X005843Y006224D01*
X006277Y006224D01*
X006277Y005988D01*
X005843Y005988D01*
X005843Y006066D02*
X006277Y006066D01*
X006277Y006144D02*
X005843Y006144D01*
X005843Y006222D02*
X006277Y006222D01*
X005843Y006776D02*
X005843Y007012D01*
X006277Y007012D01*
X006277Y006776D01*
X005843Y006776D01*
X005843Y006854D02*
X006277Y006854D01*
X006277Y006932D02*
X005843Y006932D01*
X005843Y007010D02*
X006277Y007010D01*
X006184Y007233D02*
X005948Y007233D01*
X005948Y007667D01*
X006184Y007667D01*
X006184Y007233D01*
X006184Y007311D02*
X005948Y007311D01*
X005948Y007389D02*
X006184Y007389D01*
X006184Y007467D02*
X005948Y007467D01*
X005948Y007545D02*
X006184Y007545D01*
X006184Y007623D02*
X005948Y007623D01*
X006736Y007233D02*
X006972Y007233D01*
X006736Y007233D02*
X006736Y007667D01*
X006972Y007667D01*
X006972Y007233D01*
X006972Y007311D02*
X006736Y007311D01*
X006736Y007389D02*
X006972Y007389D01*
X006972Y007467D02*
X006736Y007467D01*
X006736Y007545D02*
X006972Y007545D01*
X006972Y007623D02*
X006736Y007623D01*
X007593Y008288D02*
X007593Y008524D01*
X008027Y008524D01*
X008027Y008288D01*
X007593Y008288D01*
X007593Y008366D02*
X008027Y008366D01*
X008027Y008444D02*
X007593Y008444D01*
X007593Y008522D02*
X008027Y008522D01*
X007593Y009076D02*
X007593Y009312D01*
X008027Y009312D01*
X008027Y009076D01*
X007593Y009076D01*
X007593Y009154D02*
X008027Y009154D01*
X008027Y009232D02*
X007593Y009232D01*
X007593Y009310D02*
X008027Y009310D01*
X008148Y009967D02*
X008384Y009967D01*
X008384Y009533D01*
X008148Y009533D01*
X008148Y009967D01*
X008148Y009611D02*
X008384Y009611D01*
X008384Y009689D02*
X008148Y009689D01*
X008148Y009767D02*
X008384Y009767D01*
X008384Y009845D02*
X008148Y009845D01*
X008148Y009923D02*
X008384Y009923D01*
X008936Y009967D02*
X009172Y009967D01*
X009172Y009533D01*
X008936Y009533D01*
X008936Y009967D01*
X008936Y009611D02*
X009172Y009611D01*
X009172Y009689D02*
X008936Y009689D01*
X008936Y009767D02*
X009172Y009767D01*
X009172Y009845D02*
X008936Y009845D01*
X008936Y009923D02*
X009172Y009923D01*
X010698Y008017D02*
X010934Y008017D01*
X010934Y007583D01*
X010698Y007583D01*
X010698Y008017D01*
X010698Y007661D02*
X010934Y007661D01*
X010934Y007739D02*
X010698Y007739D01*
X010698Y007817D02*
X010934Y007817D01*
X010934Y007895D02*
X010698Y007895D01*
X010698Y007973D02*
X010934Y007973D01*
X011486Y008017D02*
X011722Y008017D01*
X011722Y007583D01*
X011486Y007583D01*
X011486Y008017D01*
X011486Y007661D02*
X011722Y007661D01*
X011722Y007739D02*
X011486Y007739D01*
X011486Y007817D02*
X011722Y007817D01*
X011722Y007895D02*
X011486Y007895D01*
X011486Y007973D02*
X011722Y007973D01*
X010372Y007817D02*
X010136Y007817D01*
X010372Y007817D02*
X010372Y007383D01*
X010136Y007383D01*
X010136Y007817D01*
X010136Y007461D02*
X010372Y007461D01*
X010372Y007539D02*
X010136Y007539D01*
X010136Y007617D02*
X010372Y007617D01*
X010372Y007695D02*
X010136Y007695D01*
X010136Y007773D02*
X010372Y007773D01*
X009584Y007817D02*
X009348Y007817D01*
X009584Y007817D02*
X009584Y007383D01*
X009348Y007383D01*
X009348Y007817D01*
X009348Y007461D02*
X009584Y007461D01*
X009584Y007539D02*
X009348Y007539D01*
X009348Y007617D02*
X009584Y007617D01*
X009584Y007695D02*
X009348Y007695D01*
X009348Y007773D02*
X009584Y007773D01*
X014288Y008673D02*
X014524Y008673D01*
X014288Y008673D02*
X014288Y009107D01*
X014524Y009107D01*
X014524Y008673D01*
X014524Y008751D02*
X014288Y008751D01*
X014288Y008829D02*
X014524Y008829D01*
X014524Y008907D02*
X014288Y008907D01*
X014288Y008985D02*
X014524Y008985D01*
X014524Y009063D02*
X014288Y009063D01*
X015076Y008673D02*
X015312Y008673D01*
X015076Y008673D02*
X015076Y009107D01*
X015312Y009107D01*
X015312Y008673D01*
X015312Y008751D02*
X015076Y008751D01*
X015076Y008829D02*
X015312Y008829D01*
X015312Y008907D02*
X015076Y008907D01*
X015076Y008985D02*
X015312Y008985D01*
X015312Y009063D02*
X015076Y009063D01*
X015433Y008182D02*
X015433Y007946D01*
X015433Y008182D02*
X015867Y008182D01*
X015867Y007946D01*
X015433Y007946D01*
X015433Y008024D02*
X015867Y008024D01*
X015867Y008102D02*
X015433Y008102D01*
X015433Y008180D02*
X015867Y008180D01*
X015433Y007394D02*
X015433Y007158D01*
X015433Y007394D02*
X015867Y007394D01*
X015867Y007158D01*
X015433Y007158D01*
X015433Y007236D02*
X015867Y007236D01*
X015867Y007314D02*
X015433Y007314D01*
X015433Y007392D02*
X015867Y007392D01*
X015857Y006852D02*
X015857Y006616D01*
X015423Y006616D01*
X015423Y006852D01*
X015857Y006852D01*
X015857Y006694D02*
X015423Y006694D01*
X015423Y006772D02*
X015857Y006772D01*
X015857Y006850D02*
X015423Y006850D01*
X015857Y006064D02*
X015857Y005828D01*
X015423Y005828D01*
X015423Y006064D01*
X015857Y006064D01*
X015857Y005906D02*
X015423Y005906D01*
X015423Y005984D02*
X015857Y005984D01*
X015857Y006062D02*
X015423Y006062D01*
X018138Y003233D02*
X018374Y003233D01*
X018138Y003233D02*
X018138Y003667D01*
X018374Y003667D01*
X018374Y003233D01*
X018374Y003311D02*
X018138Y003311D01*
X018138Y003389D02*
X018374Y003389D01*
X018374Y003467D02*
X018138Y003467D01*
X018138Y003545D02*
X018374Y003545D01*
X018374Y003623D02*
X018138Y003623D01*
X018926Y003233D02*
X019162Y003233D01*
X018926Y003233D02*
X018926Y003667D01*
X019162Y003667D01*
X019162Y003233D01*
X019162Y003311D02*
X018926Y003311D01*
X018926Y003389D02*
X019162Y003389D01*
X019162Y003467D02*
X018926Y003467D01*
X018926Y003545D02*
X019162Y003545D01*
X019162Y003623D02*
X018926Y003623D01*
X020777Y007738D02*
X020777Y007974D01*
X020777Y007738D02*
X020343Y007738D01*
X020343Y007974D01*
X020777Y007974D01*
X020777Y007816D02*
X020343Y007816D01*
X020343Y007894D02*
X020777Y007894D01*
X020777Y007972D02*
X020343Y007972D01*
X020777Y008526D02*
X020777Y008762D01*
X020777Y008526D02*
X020343Y008526D01*
X020343Y008762D01*
X020777Y008762D01*
X020777Y008604D02*
X020343Y008604D01*
X020343Y008682D02*
X020777Y008682D01*
X020777Y008760D02*
X020343Y008760D01*
X021548Y008317D02*
X021784Y008317D01*
X021784Y007883D01*
X021548Y007883D01*
X021548Y008317D01*
X021548Y007961D02*
X021784Y007961D01*
X021784Y008039D02*
X021548Y008039D01*
X021548Y008117D02*
X021784Y008117D01*
X021784Y008195D02*
X021548Y008195D01*
X021548Y008273D02*
X021784Y008273D01*
X022336Y008317D02*
X022572Y008317D01*
X022572Y007883D01*
X022336Y007883D01*
X022336Y008317D01*
X022336Y007961D02*
X022572Y007961D01*
X022572Y008039D02*
X022336Y008039D01*
X022336Y008117D02*
X022572Y008117D01*
X022572Y008195D02*
X022336Y008195D01*
X022336Y008273D02*
X022572Y008273D01*
X022828Y008657D02*
X023064Y008657D01*
X023064Y008223D01*
X022828Y008223D01*
X022828Y008657D01*
X022828Y008301D02*
X023064Y008301D01*
X023064Y008379D02*
X022828Y008379D01*
X022828Y008457D02*
X023064Y008457D01*
X023064Y008535D02*
X022828Y008535D01*
X022828Y008613D02*
X023064Y008613D01*
X022992Y009337D02*
X022756Y009337D01*
X022992Y009337D02*
X022992Y008903D01*
X022756Y008903D01*
X022756Y009337D01*
X022756Y008981D02*
X022992Y008981D01*
X022992Y009059D02*
X022756Y009059D01*
X022756Y009137D02*
X022992Y009137D01*
X022992Y009215D02*
X022756Y009215D01*
X022756Y009293D02*
X022992Y009293D01*
X022204Y009337D02*
X021968Y009337D01*
X022204Y009337D02*
X022204Y008903D01*
X021968Y008903D01*
X021968Y009337D01*
X021968Y008981D02*
X022204Y008981D01*
X022204Y009059D02*
X021968Y009059D01*
X021968Y009137D02*
X022204Y009137D01*
X022204Y009215D02*
X021968Y009215D01*
X021968Y009293D02*
X022204Y009293D01*
X023616Y008657D02*
X023852Y008657D01*
X023852Y008223D01*
X023616Y008223D01*
X023616Y008657D01*
X023616Y008301D02*
X023852Y008301D01*
X023852Y008379D02*
X023616Y008379D01*
X023616Y008457D02*
X023852Y008457D01*
X023852Y008535D02*
X023616Y008535D01*
X023616Y008613D02*
X023852Y008613D01*
X018777Y008678D02*
X018777Y008914D01*
X018777Y008678D02*
X018343Y008678D01*
X018343Y008914D01*
X018777Y008914D01*
X018777Y008756D02*
X018343Y008756D01*
X018343Y008834D02*
X018777Y008834D01*
X018777Y008912D02*
X018343Y008912D01*
X018777Y009466D02*
X018777Y009702D01*
X018777Y009466D02*
X018343Y009466D01*
X018343Y009702D01*
X018777Y009702D01*
X018777Y009544D02*
X018343Y009544D01*
X018343Y009622D02*
X018777Y009622D01*
X018777Y009700D02*
X018343Y009700D01*
X018374Y013333D02*
X018138Y013333D01*
X018138Y013767D01*
X018374Y013767D01*
X018374Y013333D01*
X018374Y013411D02*
X018138Y013411D01*
X018138Y013489D02*
X018374Y013489D01*
X018374Y013567D02*
X018138Y013567D01*
X018138Y013645D02*
X018374Y013645D01*
X018374Y013723D02*
X018138Y013723D01*
X018926Y013333D02*
X019162Y013333D01*
X018926Y013333D02*
X018926Y013767D01*
X019162Y013767D01*
X019162Y013333D01*
X019162Y013411D02*
X018926Y013411D01*
X018926Y013489D02*
X019162Y013489D01*
X019162Y013567D02*
X018926Y013567D01*
X018926Y013645D02*
X019162Y013645D01*
X019162Y013723D02*
X018926Y013723D01*
X015857Y015928D02*
X015857Y016164D01*
X015857Y015928D02*
X015423Y015928D01*
X015423Y016164D01*
X015857Y016164D01*
X015857Y016006D02*
X015423Y016006D01*
X015423Y016084D02*
X015857Y016084D01*
X015857Y016162D02*
X015423Y016162D01*
X015857Y016716D02*
X015857Y016952D01*
X015857Y016716D02*
X015423Y016716D01*
X015423Y016952D01*
X015857Y016952D01*
X015857Y016794D02*
X015423Y016794D01*
X015423Y016872D02*
X015857Y016872D01*
X015857Y016950D02*
X015423Y016950D01*
X015433Y017258D02*
X015433Y017494D01*
X015867Y017494D01*
X015867Y017258D01*
X015433Y017258D01*
X015433Y017336D02*
X015867Y017336D01*
X015867Y017414D02*
X015433Y017414D01*
X015433Y017492D02*
X015867Y017492D01*
X015433Y018046D02*
X015433Y018282D01*
X015867Y018282D01*
X015867Y018046D01*
X015433Y018046D01*
X015433Y018124D02*
X015867Y018124D01*
X015867Y018202D02*
X015433Y018202D01*
X015433Y018280D02*
X015867Y018280D01*
X015312Y018773D02*
X015076Y018773D01*
X015076Y019207D01*
X015312Y019207D01*
X015312Y018773D01*
X015312Y018851D02*
X015076Y018851D01*
X015076Y018929D02*
X015312Y018929D01*
X015312Y019007D02*
X015076Y019007D01*
X015076Y019085D02*
X015312Y019085D01*
X015312Y019163D02*
X015076Y019163D01*
X014524Y018773D02*
X014288Y018773D01*
X014288Y019207D01*
X014524Y019207D01*
X014524Y018773D01*
X014524Y018851D02*
X014288Y018851D01*
X014288Y018929D02*
X014524Y018929D01*
X014524Y019007D02*
X014288Y019007D01*
X014288Y019085D02*
X014524Y019085D01*
X014524Y019163D02*
X014288Y019163D01*
X011722Y018117D02*
X011486Y018117D01*
X011722Y018117D02*
X011722Y017683D01*
X011486Y017683D01*
X011486Y018117D01*
X011486Y017761D02*
X011722Y017761D01*
X011722Y017839D02*
X011486Y017839D01*
X011486Y017917D02*
X011722Y017917D01*
X011722Y017995D02*
X011486Y017995D01*
X011486Y018073D02*
X011722Y018073D01*
X010934Y018117D02*
X010698Y018117D01*
X010934Y018117D02*
X010934Y017683D01*
X010698Y017683D01*
X010698Y018117D01*
X010698Y017761D02*
X010934Y017761D01*
X010934Y017839D02*
X010698Y017839D01*
X010698Y017917D02*
X010934Y017917D01*
X010934Y017995D02*
X010698Y017995D01*
X010698Y018073D02*
X010934Y018073D01*
X010372Y017917D02*
X010136Y017917D01*
X010372Y017917D02*
X010372Y017483D01*
X010136Y017483D01*
X010136Y017917D01*
X010136Y017561D02*
X010372Y017561D01*
X010372Y017639D02*
X010136Y017639D01*
X010136Y017717D02*
X010372Y017717D01*
X010372Y017795D02*
X010136Y017795D01*
X010136Y017873D02*
X010372Y017873D01*
X009584Y017917D02*
X009348Y017917D01*
X009584Y017917D02*
X009584Y017483D01*
X009348Y017483D01*
X009348Y017917D01*
X009348Y017561D02*
X009584Y017561D01*
X009584Y017639D02*
X009348Y017639D01*
X009348Y017717D02*
X009584Y017717D01*
X009584Y017795D02*
X009348Y017795D01*
X009348Y017873D02*
X009584Y017873D01*
X007593Y018388D02*
X007593Y018624D01*
X008027Y018624D01*
X008027Y018388D01*
X007593Y018388D01*
X007593Y018466D02*
X008027Y018466D01*
X008027Y018544D02*
X007593Y018544D01*
X007593Y018622D02*
X008027Y018622D01*
X007593Y019176D02*
X007593Y019412D01*
X008027Y019412D01*
X008027Y019176D01*
X007593Y019176D01*
X007593Y019254D02*
X008027Y019254D01*
X008027Y019332D02*
X007593Y019332D01*
X007593Y019410D02*
X008027Y019410D01*
X008148Y020067D02*
X008384Y020067D01*
X008384Y019633D01*
X008148Y019633D01*
X008148Y020067D01*
X008148Y019711D02*
X008384Y019711D01*
X008384Y019789D02*
X008148Y019789D01*
X008148Y019867D02*
X008384Y019867D01*
X008384Y019945D02*
X008148Y019945D01*
X008148Y020023D02*
X008384Y020023D01*
X008936Y020067D02*
X009172Y020067D01*
X009172Y019633D01*
X008936Y019633D01*
X008936Y020067D01*
X008936Y019711D02*
X009172Y019711D01*
X009172Y019789D02*
X008936Y019789D01*
X008936Y019867D02*
X009172Y019867D01*
X009172Y019945D02*
X008936Y019945D01*
X008936Y020023D02*
X009172Y020023D01*
X006972Y017333D02*
X006736Y017333D01*
X006736Y017767D01*
X006972Y017767D01*
X006972Y017333D01*
X006972Y017411D02*
X006736Y017411D01*
X006736Y017489D02*
X006972Y017489D01*
X006972Y017567D02*
X006736Y017567D01*
X006736Y017645D02*
X006972Y017645D01*
X006972Y017723D02*
X006736Y017723D01*
X006184Y017333D02*
X005948Y017333D01*
X005948Y017767D01*
X006184Y017767D01*
X006184Y017333D01*
X006184Y017411D02*
X005948Y017411D01*
X005948Y017489D02*
X006184Y017489D01*
X006184Y017567D02*
X005948Y017567D01*
X005948Y017645D02*
X006184Y017645D01*
X006184Y017723D02*
X005948Y017723D01*
X005843Y017112D02*
X005843Y016876D01*
X005843Y017112D02*
X006277Y017112D01*
X006277Y016876D01*
X005843Y016876D01*
X005843Y016954D02*
X006277Y016954D01*
X006277Y017032D02*
X005843Y017032D01*
X005843Y017110D02*
X006277Y017110D01*
X005843Y016324D02*
X005843Y016088D01*
X005843Y016324D02*
X006277Y016324D01*
X006277Y016088D01*
X005843Y016088D01*
X005843Y016166D02*
X006277Y016166D01*
X006277Y016244D02*
X005843Y016244D01*
X005843Y016322D02*
X006277Y016322D01*
X018777Y018778D02*
X018777Y019014D01*
X018777Y018778D02*
X018343Y018778D01*
X018343Y019014D01*
X018777Y019014D01*
X018777Y018856D02*
X018343Y018856D01*
X018343Y018934D02*
X018777Y018934D01*
X018777Y019012D02*
X018343Y019012D01*
X018777Y019566D02*
X018777Y019802D01*
X018777Y019566D02*
X018343Y019566D01*
X018343Y019802D01*
X018777Y019802D01*
X018777Y019644D02*
X018343Y019644D01*
X018343Y019722D02*
X018777Y019722D01*
X018777Y019800D02*
X018343Y019800D01*
X020777Y018862D02*
X020777Y018626D01*
X020343Y018626D01*
X020343Y018862D01*
X020777Y018862D01*
X020777Y018704D02*
X020343Y018704D01*
X020343Y018782D02*
X020777Y018782D01*
X020777Y018860D02*
X020343Y018860D01*
X020777Y018074D02*
X020777Y017838D01*
X020343Y017838D01*
X020343Y018074D01*
X020777Y018074D01*
X020777Y017916D02*
X020343Y017916D01*
X020343Y017994D02*
X020777Y017994D01*
X020777Y018072D02*
X020343Y018072D01*
X021548Y018417D02*
X021784Y018417D01*
X021784Y017983D01*
X021548Y017983D01*
X021548Y018417D01*
X021548Y018061D02*
X021784Y018061D01*
X021784Y018139D02*
X021548Y018139D01*
X021548Y018217D02*
X021784Y018217D01*
X021784Y018295D02*
X021548Y018295D01*
X021548Y018373D02*
X021784Y018373D01*
X022336Y018417D02*
X022572Y018417D01*
X022572Y017983D01*
X022336Y017983D01*
X022336Y018417D01*
X022336Y018061D02*
X022572Y018061D01*
X022572Y018139D02*
X022336Y018139D01*
X022336Y018217D02*
X022572Y018217D01*
X022572Y018295D02*
X022336Y018295D01*
X022336Y018373D02*
X022572Y018373D01*
X022828Y018757D02*
X023064Y018757D01*
X023064Y018323D01*
X022828Y018323D01*
X022828Y018757D01*
X022828Y018401D02*
X023064Y018401D01*
X023064Y018479D02*
X022828Y018479D01*
X022828Y018557D02*
X023064Y018557D01*
X023064Y018635D02*
X022828Y018635D01*
X022828Y018713D02*
X023064Y018713D01*
X022992Y019437D02*
X022756Y019437D01*
X022992Y019437D02*
X022992Y019003D01*
X022756Y019003D01*
X022756Y019437D01*
X022756Y019081D02*
X022992Y019081D01*
X022992Y019159D02*
X022756Y019159D01*
X022756Y019237D02*
X022992Y019237D01*
X022992Y019315D02*
X022756Y019315D01*
X022756Y019393D02*
X022992Y019393D01*
X022204Y019437D02*
X021968Y019437D01*
X022204Y019437D02*
X022204Y019003D01*
X021968Y019003D01*
X021968Y019437D01*
X021968Y019081D02*
X022204Y019081D01*
X022204Y019159D02*
X021968Y019159D01*
X021968Y019237D02*
X022204Y019237D01*
X022204Y019315D02*
X021968Y019315D01*
X021968Y019393D02*
X022204Y019393D01*
X023616Y018757D02*
X023852Y018757D01*
X023852Y018323D01*
X023616Y018323D01*
X023616Y018757D01*
X023616Y018401D02*
X023852Y018401D01*
X023852Y018479D02*
X023616Y018479D01*
X023616Y018557D02*
X023852Y018557D01*
X023852Y018635D02*
X023616Y018635D01*
X023616Y018713D02*
X023852Y018713D01*
D14*
X024054Y014050D03*
X023266Y014050D03*
X023504Y012550D03*
X022716Y012550D03*
X023266Y003950D03*
X024054Y003950D03*
X023504Y002450D03*
X022716Y002450D03*
X010454Y004050D03*
X009666Y004050D03*
X007704Y005000D03*
X006916Y005000D03*
X007316Y007100D03*
X007316Y007750D03*
X008104Y007750D03*
X008104Y007100D03*
X009666Y014150D03*
X010454Y014150D03*
X007704Y015100D03*
X006916Y015100D03*
X007316Y017200D03*
X007316Y017850D03*
X008104Y017850D03*
X008104Y017200D03*
D15*
X016360Y019100D03*
X017160Y018750D03*
X017160Y019450D03*
X017160Y009350D03*
X017160Y008650D03*
X016360Y009000D03*
D16*
X022510Y007024D03*
X023010Y007024D03*
X023510Y007024D03*
X024010Y007024D03*
X024010Y004976D03*
X023510Y004976D03*
X023010Y004976D03*
X022510Y004976D03*
X022510Y015076D03*
X023010Y015076D03*
X023510Y015076D03*
X024010Y015076D03*
X024010Y017124D03*
X023510Y017124D03*
X023010Y017124D03*
X022510Y017124D03*
D17*
X024520Y018290D03*
X024520Y008190D03*
D18*
X020660Y009200D03*
X020660Y009550D03*
X020660Y009900D03*
X010260Y009400D03*
X010260Y009050D03*
X010260Y008700D03*
X006360Y008477D03*
X006360Y008123D03*
X006310Y004150D03*
X006310Y003800D03*
X006310Y003450D03*
X008960Y003373D03*
X008960Y003727D03*
X008960Y013473D03*
X008960Y013827D03*
X006310Y013900D03*
X006310Y014250D03*
X006310Y013550D03*
X006360Y018223D03*
X006360Y018577D03*
X010260Y018800D03*
X010260Y019150D03*
X010260Y019500D03*
X020660Y019650D03*
X020660Y020000D03*
X020660Y019300D03*
D19*
X010470Y015210D03*
X010470Y014950D03*
X010470Y014690D03*
X009650Y014690D03*
X009650Y014950D03*
X009650Y015210D03*
X009650Y005110D03*
X009650Y004850D03*
X009650Y004590D03*
X010470Y004590D03*
X010470Y004850D03*
X010470Y005110D03*
D20*
X008960Y004954D03*
X008960Y004246D03*
X008960Y014346D03*
X008960Y015054D03*
D21*
X011110Y014814D03*
X011690Y014814D03*
X011690Y014026D03*
X011110Y014026D03*
X017860Y009894D03*
X017860Y009106D03*
X019260Y008776D03*
X019260Y009564D03*
X011690Y004714D03*
X011110Y004714D03*
X011110Y003926D03*
X011690Y003926D03*
X019260Y018876D03*
X019260Y019664D03*
X017860Y019994D03*
X017860Y019206D03*
D22*
X019860Y012650D03*
X019860Y011650D03*
X020860Y011650D03*
X021860Y011650D03*
X021860Y012650D03*
X020860Y012650D03*
X020860Y002550D03*
X021860Y002550D03*
X021860Y001550D03*
X020860Y001550D03*
X019860Y001550D03*
X019860Y002550D03*
D23*
X008560Y002550D03*
X008560Y001550D03*
X008560Y011650D03*
X008560Y012650D03*
D24*
X022882Y013350D03*
X024338Y013350D03*
X024338Y003250D03*
X022882Y003250D03*
D25*
G36*
X021257Y004356D02*
X021081Y004144D01*
X020569Y004570D01*
X020745Y004782D01*
X021257Y004356D01*
G37*
G36*
X020954Y003993D02*
X020778Y003781D01*
X020266Y004207D01*
X020442Y004419D01*
X020954Y003993D01*
G37*
G36*
X020652Y003630D02*
X020476Y003418D01*
X019964Y003844D01*
X020140Y004056D01*
X020652Y003630D01*
G37*
G36*
X020652Y013730D02*
X020476Y013518D01*
X019964Y013944D01*
X020140Y014156D01*
X020652Y013730D01*
G37*
G36*
X020954Y014093D02*
X020778Y013881D01*
X020266Y014307D01*
X020442Y014519D01*
X020954Y014093D01*
G37*
G36*
X021257Y014456D02*
X021081Y014244D01*
X020569Y014670D01*
X020745Y014882D01*
X021257Y014456D01*
G37*
D26*
X019712Y014660D03*
X019398Y014660D03*
X019083Y014660D03*
X018768Y014660D03*
X018453Y014660D03*
X018138Y014660D03*
X017823Y014660D03*
X017508Y014660D03*
X017508Y018040D03*
X017823Y018040D03*
X018138Y018040D03*
X018453Y018040D03*
X018768Y018040D03*
X019083Y018040D03*
X019398Y018040D03*
X019712Y018040D03*
X019712Y007940D03*
X019398Y007940D03*
X019083Y007940D03*
X018768Y007940D03*
X018453Y007940D03*
X018138Y007940D03*
X017823Y007940D03*
X017508Y007940D03*
X017508Y004560D03*
X017823Y004560D03*
X018138Y004560D03*
X018453Y004560D03*
X018768Y004560D03*
X019083Y004560D03*
X019398Y004560D03*
X019712Y004560D03*
D27*
X020300Y005148D03*
X020300Y005463D03*
X020300Y005778D03*
X020300Y006093D03*
X020300Y006407D03*
X020300Y006722D03*
X020300Y007037D03*
X020300Y007352D03*
X016920Y007352D03*
X016920Y007037D03*
X016920Y006722D03*
X016920Y006407D03*
X016920Y006093D03*
X016920Y005778D03*
X016920Y005463D03*
X016920Y005148D03*
X016920Y015248D03*
X016920Y015563D03*
X016920Y015878D03*
X016920Y016193D03*
X016920Y016507D03*
X016920Y016822D03*
X016920Y017137D03*
X016920Y017452D03*
X020300Y017452D03*
X020300Y017137D03*
X020300Y016822D03*
X020300Y016507D03*
X020300Y016193D03*
X020300Y015878D03*
X020300Y015563D03*
X020300Y015248D03*
D28*
X018810Y012650D03*
X017810Y012650D03*
X016810Y012650D03*
X015810Y012650D03*
X014810Y012650D03*
X013810Y012650D03*
X012810Y012650D03*
X011810Y012650D03*
X010810Y012650D03*
X009810Y012650D03*
X009810Y011650D03*
X010810Y011650D03*
X011810Y011650D03*
X012810Y011650D03*
X013810Y011650D03*
X014810Y011650D03*
X015810Y011650D03*
X016810Y011650D03*
X017810Y011650D03*
X018810Y011650D03*
X018810Y002550D03*
X017810Y002550D03*
X016810Y002550D03*
X015810Y002550D03*
X014810Y002550D03*
X013810Y002550D03*
X012810Y002550D03*
X011810Y002550D03*
X010810Y002550D03*
X009810Y002550D03*
X009810Y001550D03*
X010810Y001550D03*
X011810Y001550D03*
X012810Y001550D03*
X013810Y001550D03*
X014810Y001550D03*
X015810Y001550D03*
X016810Y001550D03*
X017810Y001550D03*
X018810Y001550D03*
D29*
X014510Y004050D03*
X013510Y004050D03*
X012510Y004050D03*
X012510Y005050D03*
X012520Y006050D03*
X012520Y007050D03*
X012520Y008050D03*
X013520Y008050D03*
X014520Y008050D03*
X014520Y007050D03*
X013520Y007050D03*
X013520Y006050D03*
X014520Y006050D03*
X014510Y005050D03*
X013510Y005050D03*
X013510Y014150D03*
X014510Y014150D03*
X014510Y015150D03*
X013510Y015150D03*
X012510Y015150D03*
X012510Y014150D03*
X012520Y016150D03*
X012520Y017150D03*
X012520Y018150D03*
X013520Y018150D03*
X014520Y018150D03*
X014520Y017150D03*
X013520Y017150D03*
X013520Y016150D03*
X014520Y016150D03*
D30*
X022960Y011650D03*
X022960Y001550D03*
D31*
X022882Y003250D02*
X023266Y003635D01*
X023266Y003950D01*
X024054Y003950D02*
X024054Y003535D01*
X024338Y003250D01*
X023510Y004976D02*
X023510Y005750D01*
X023010Y006250D01*
X023010Y007024D01*
X022510Y007024D01*
X022510Y008044D01*
X022454Y008100D01*
X021710Y008144D02*
X021710Y008250D01*
X021660Y008300D01*
X021660Y009400D01*
X021510Y009550D01*
X020660Y009550D01*
X022086Y009376D02*
X022086Y009120D01*
X022086Y009376D02*
X022360Y009650D01*
X019410Y007927D02*
X019410Y007450D01*
X018460Y006500D01*
X018460Y005700D01*
X018710Y005450D01*
X019060Y005450D01*
X019110Y005400D01*
X019110Y004588D01*
X019083Y004560D01*
X018768Y004560D02*
X018768Y004993D01*
X018710Y005050D01*
X018260Y005050D01*
X018160Y004950D01*
X018160Y004582D01*
X018453Y004560D02*
X018460Y004553D01*
X017508Y004560D02*
X017508Y004448D01*
X015640Y006734D02*
X015544Y006734D01*
X015640Y006734D02*
X015650Y006744D01*
X015650Y007276D01*
X014520Y007050D02*
X013520Y007050D01*
X012520Y007050D01*
X012520Y008050D02*
X013520Y008050D01*
X014520Y008050D01*
X015860Y008850D02*
X016160Y009000D01*
X016360Y009000D01*
X017160Y008650D02*
X017260Y008650D01*
X017360Y008750D01*
X018554Y008750D01*
X018560Y008796D01*
X018504Y009544D02*
X018560Y009584D01*
X018560Y009600D01*
X017860Y009894D02*
X017304Y009894D01*
X017260Y009850D01*
X017754Y009106D02*
X017860Y009106D01*
X018453Y007940D02*
X018453Y007507D01*
X018460Y007500D01*
X019398Y007940D02*
X019410Y007927D01*
X014570Y006100D02*
X014520Y006050D01*
X011110Y004714D02*
X010916Y004794D01*
X010860Y004850D01*
X010470Y004850D01*
X009830Y006280D02*
X009810Y006300D01*
X009610Y006300D02*
X009560Y006300D01*
X009830Y007020D02*
X010254Y007444D01*
X010254Y007600D01*
X009466Y007600D02*
X009466Y007506D01*
X009466Y007600D02*
X009466Y007744D01*
X008410Y006650D02*
X008180Y006420D01*
X008070Y006420D01*
X008070Y006050D02*
X007760Y006050D01*
X007560Y005850D01*
X007560Y005144D01*
X007704Y005000D01*
X007050Y006420D02*
X007020Y006450D01*
X007810Y009194D02*
X007810Y009450D01*
X008060Y009700D01*
X008216Y009700D01*
X008266Y009750D01*
X010916Y014894D02*
X011110Y014814D01*
X010916Y014894D02*
X010860Y014950D01*
X010470Y014950D01*
X009830Y016380D02*
X009810Y016400D01*
X009610Y016400D02*
X009560Y016400D01*
X009830Y017120D02*
X010254Y017544D01*
X010254Y017700D01*
X009466Y017700D02*
X009466Y017606D01*
X009466Y017700D02*
X009466Y017844D01*
X008410Y016750D02*
X008180Y016520D01*
X008070Y016520D01*
X008070Y016150D02*
X007760Y016150D01*
X007560Y015950D01*
X007560Y015244D01*
X007704Y015100D01*
X007050Y016520D02*
X007020Y016550D01*
X007810Y019294D02*
X007810Y019550D01*
X008060Y019800D01*
X008216Y019800D01*
X008266Y019850D01*
X012520Y018150D02*
X013520Y018150D01*
X014520Y018150D01*
X014520Y017150D02*
X013520Y017150D01*
X012520Y017150D01*
X014520Y016150D02*
X014570Y016200D01*
X015544Y016834D02*
X015640Y016834D01*
X015650Y016844D01*
X015650Y017376D01*
X015860Y018950D02*
X016160Y019100D01*
X016360Y019100D01*
X017160Y018750D02*
X017260Y018750D01*
X017360Y018850D01*
X018554Y018850D01*
X018560Y018896D01*
X018504Y019644D02*
X018560Y019684D01*
X018560Y019700D01*
X017860Y019994D02*
X017304Y019994D01*
X017260Y019950D01*
X017754Y019206D02*
X017860Y019206D01*
X018453Y018040D02*
X018453Y017607D01*
X018460Y017600D01*
X019398Y018040D02*
X019410Y018027D01*
X019410Y017550D01*
X018460Y016600D01*
X018460Y015800D01*
X018710Y015550D01*
X019060Y015550D01*
X019110Y015500D01*
X019110Y014688D01*
X019083Y014660D01*
X018768Y014660D02*
X018768Y015093D01*
X018710Y015150D01*
X018260Y015150D01*
X018160Y015050D01*
X018160Y014682D01*
X018453Y014660D02*
X018460Y014653D01*
X017508Y014660D02*
X017508Y014548D01*
X021710Y018244D02*
X021710Y018350D01*
X021660Y018400D01*
X021660Y019500D01*
X021510Y019650D01*
X020660Y019650D01*
X022086Y019476D02*
X022086Y019220D01*
X022086Y019476D02*
X022360Y019750D01*
X022454Y018200D02*
X022510Y018144D01*
X022510Y017124D01*
X023010Y017124D01*
X023010Y016350D01*
X023510Y015850D01*
X023510Y015076D01*
X023266Y014050D02*
X023266Y013735D01*
X022882Y013350D01*
X024054Y013635D02*
X024338Y013350D01*
X024054Y013635D02*
X024054Y014050D01*
D32*
X024010Y015076D02*
X024486Y015076D01*
X024610Y015200D01*
X020660Y018844D02*
X020560Y018744D01*
X020660Y018844D02*
X020660Y019300D01*
X021160Y019300D01*
X021260Y019200D01*
X020660Y020000D02*
X020460Y020000D01*
X020410Y020050D01*
X018710Y020050D01*
X018510Y019850D01*
X018510Y019694D01*
X018560Y019684D01*
X018516Y019600D01*
X018310Y019600D01*
X017916Y019206D01*
X017860Y019206D01*
X017616Y019450D01*
X017160Y019450D01*
X017010Y019600D01*
X012860Y019600D01*
X012060Y018800D01*
X010260Y018800D01*
X010210Y018800D01*
X009460Y018050D01*
X009460Y017706D01*
X009466Y017700D01*
X009466Y017606D02*
X009310Y017450D01*
X009310Y016650D01*
X009560Y016400D01*
X009610Y016400D02*
X009310Y016100D01*
X009310Y015550D01*
X009610Y016400D02*
X009810Y016400D01*
X010690Y016320D02*
X011360Y015650D01*
X011910Y015650D01*
X012520Y016150D01*
X013520Y016150D01*
X014520Y016150D01*
X014570Y016200D02*
X014910Y016200D01*
X015544Y016834D01*
X014040Y018800D02*
X014230Y018990D01*
X014406Y018990D01*
X011760Y019550D02*
X011310Y019550D01*
X010910Y019150D01*
X010260Y019150D01*
X010260Y019500D02*
X009660Y019500D01*
X009490Y019330D01*
X009490Y018900D01*
X009230Y018530D02*
X009460Y018300D01*
X009460Y018050D01*
X009230Y018530D02*
X008630Y018530D01*
X007867Y018530D01*
X007810Y018506D02*
X007634Y018530D01*
X007810Y018506D02*
X007054Y018506D01*
X007160Y018550D01*
X007810Y018506D02*
X007822Y018516D01*
X007836Y018524D01*
X007851Y018528D01*
X007867Y018530D01*
X008630Y019270D02*
X008266Y019634D01*
X008266Y019850D01*
X010254Y017700D02*
X010616Y017700D01*
X010816Y017900D01*
X010690Y016750D02*
X010690Y016320D01*
X011266Y014894D02*
X011610Y014894D01*
X011690Y014814D01*
X011846Y014814D01*
X012510Y014150D01*
X013510Y014150D01*
X014510Y014150D01*
X011266Y014894D02*
X011110Y014814D01*
X006310Y013550D02*
X006310Y013050D01*
X008266Y009750D02*
X008266Y009534D01*
X008630Y009170D01*
X008630Y008430D02*
X007867Y008430D01*
X007810Y008406D02*
X007634Y008430D01*
X007810Y008406D02*
X007054Y008406D01*
X007160Y008450D01*
X007810Y008406D02*
X007822Y008416D01*
X007836Y008424D01*
X007851Y008428D01*
X007867Y008430D01*
X008630Y008430D02*
X009230Y008430D01*
X009460Y008200D01*
X009460Y007950D01*
X010210Y008700D01*
X010260Y008700D01*
X012060Y008700D01*
X012860Y009500D01*
X017010Y009500D01*
X017160Y009350D01*
X017616Y009350D01*
X017860Y009106D01*
X017916Y009106D01*
X018310Y009500D01*
X018516Y009500D01*
X018560Y009584D01*
X018510Y009594D01*
X018510Y009750D01*
X018710Y009950D01*
X020410Y009950D01*
X020460Y009900D01*
X020660Y009900D01*
X020160Y009900D02*
X020010Y009750D01*
X020660Y009200D02*
X021160Y009200D01*
X021260Y009100D01*
X020660Y009200D02*
X020660Y008744D01*
X020560Y008644D01*
X018460Y008350D02*
X018453Y008343D01*
X018453Y007940D01*
X015544Y006734D02*
X014910Y006100D01*
X014570Y006100D01*
X014520Y006050D02*
X013520Y006050D01*
X012520Y006050D01*
X011910Y005550D01*
X011360Y005550D01*
X010690Y006220D01*
X010690Y006650D01*
X009810Y006300D02*
X009610Y006300D01*
X009310Y006000D01*
X009310Y005450D01*
X009560Y006300D02*
X009310Y006550D01*
X009310Y007350D01*
X009466Y007506D01*
X009466Y007600D02*
X009460Y007606D01*
X009460Y007950D01*
X010254Y007600D02*
X010616Y007600D01*
X010816Y007800D01*
X009490Y008800D02*
X009490Y009230D01*
X009660Y009400D01*
X010260Y009400D01*
X010260Y009050D02*
X010910Y009050D01*
X011310Y009450D01*
X011760Y009450D01*
X014040Y008700D02*
X014230Y008890D01*
X014406Y008890D01*
X011610Y004794D02*
X011266Y004794D01*
X011110Y004714D01*
X011610Y004794D02*
X011690Y004714D01*
X011846Y004714D01*
X012510Y004050D01*
X013510Y004050D01*
X014510Y004050D01*
X018010Y004000D02*
X018138Y004128D01*
X018138Y004560D01*
X018460Y004553D02*
X018460Y004100D01*
X018860Y003700D01*
X018904Y003700D01*
X019044Y003450D01*
X019083Y003579D01*
X019083Y004560D01*
X019044Y003450D02*
X019860Y002744D01*
X019860Y002550D01*
X024010Y004976D02*
X024486Y004976D01*
X024610Y005100D01*
X019860Y012650D02*
X019860Y012844D01*
X019044Y013550D01*
X018904Y013800D01*
X018860Y013800D01*
X018460Y014200D01*
X018460Y014653D01*
X018138Y014660D02*
X018138Y014228D01*
X018010Y014100D01*
X019083Y013679D02*
X019083Y014660D01*
X019083Y013679D02*
X019044Y013550D01*
X018453Y018040D02*
X018453Y018443D01*
X018460Y018450D01*
X020010Y019850D02*
X020160Y020000D01*
X006310Y003450D02*
X006310Y002950D01*
D33*
X007190Y003480D02*
X007297Y003373D01*
X008960Y003373D01*
X008560Y006050D02*
X008070Y006050D01*
X006460Y006100D02*
X006454Y006106D01*
X006060Y006106D01*
X006854Y007450D02*
X006960Y007556D01*
X006960Y007700D01*
X006537Y008123D01*
X006360Y008123D01*
X006360Y008477D02*
X006933Y008477D01*
X007160Y008450D01*
X007297Y013473D02*
X007190Y013580D01*
X007297Y013473D02*
X008960Y013473D01*
X008560Y016150D02*
X008070Y016150D01*
X006854Y017550D02*
X006960Y017656D01*
X006960Y017800D01*
X006537Y018223D01*
X006360Y018223D01*
X006360Y018577D02*
X006933Y018577D01*
X007160Y018550D01*
X006454Y016206D02*
X006060Y016206D01*
X006454Y016206D02*
X006460Y016200D01*
X019260Y019664D02*
X019616Y019644D01*
X019710Y019650D01*
X019260Y009564D02*
X019616Y009544D01*
X019710Y009550D01*
D34*
X011760Y009450D03*
X007160Y008450D03*
X006310Y013050D03*
X007160Y018550D03*
X011760Y019550D03*
X006310Y002950D03*
D35*
X009310Y005450D03*
X008560Y006050D03*
X006460Y006100D03*
X009310Y015550D03*
X008560Y016150D03*
X006460Y016200D03*
D36*
X009054Y019850D02*
X009204Y020000D01*
X016360Y020000D01*
X015194Y018990D02*
X015194Y018946D01*
X015560Y018580D01*
X015950Y018580D01*
X016830Y017700D01*
X016830Y017542D01*
X016920Y017452D01*
X016872Y017500D01*
X016920Y017137D02*
X017348Y017137D01*
X017410Y017200D01*
X017410Y017530D01*
X017110Y017830D01*
X017110Y018850D01*
X017160Y018750D01*
X017508Y018298D02*
X017760Y018550D01*
X017508Y018298D02*
X017508Y018040D01*
X017823Y018040D02*
X017823Y017513D01*
X017810Y017500D01*
X018138Y017228D02*
X018010Y017100D01*
X017760Y017100D01*
X018138Y017228D02*
X018138Y018040D01*
X018768Y018040D02*
X018768Y018364D01*
X019260Y018876D01*
X020060Y018200D02*
X020110Y018200D01*
X020260Y018350D01*
X021010Y018350D01*
X021260Y018550D01*
X021666Y018200D02*
X021710Y018244D01*
X021508Y017452D02*
X021910Y017050D01*
X021910Y016550D02*
X021323Y017137D01*
X020300Y017137D01*
X020300Y017452D02*
X021508Y017452D01*
X021038Y016822D02*
X021460Y016400D01*
X021460Y015550D01*
X021560Y015450D01*
X021910Y015450D01*
X021910Y014950D02*
X021560Y014950D01*
X021160Y015350D01*
X021160Y016300D01*
X020953Y016507D01*
X020300Y016507D01*
X020293Y016500D01*
X020308Y016200D02*
X020300Y016193D01*
X019168Y016193D01*
X018910Y016450D01*
X018860Y015950D02*
X018933Y015878D01*
X020300Y015878D01*
X020300Y015563D02*
X019823Y015563D01*
X019810Y015550D01*
X019762Y015248D02*
X019410Y015250D01*
X019762Y015248D02*
X020300Y015248D01*
X020575Y014900D02*
X020913Y014563D01*
X020575Y014900D02*
X019960Y014900D01*
X019720Y014660D01*
X019712Y014660D01*
X019410Y014647D02*
X019410Y014350D01*
X019923Y013837D01*
X020308Y013837D01*
X021660Y014500D02*
X022310Y014500D01*
X022510Y014700D01*
X022510Y015076D01*
X023010Y015076D02*
X023010Y014500D01*
X022660Y014150D01*
X023266Y014050D02*
X023266Y014256D01*
X023510Y014500D01*
X023510Y015076D01*
X024010Y015076D02*
X024010Y014194D01*
X024054Y014050D01*
X023504Y012550D02*
X023504Y012194D01*
X022960Y011650D01*
X022716Y012506D02*
X021860Y011650D01*
X021860Y011850D01*
X021560Y012150D01*
X018610Y012150D01*
X018310Y012450D01*
X018310Y013606D01*
X017616Y013606D01*
X017610Y013600D01*
X017320Y013940D02*
X017508Y014128D01*
X017508Y014548D01*
X017810Y014647D02*
X017823Y014660D01*
X017823Y015787D01*
X017810Y015800D01*
X017460Y016050D02*
X017460Y015450D01*
X017510Y015400D01*
X016920Y015248D02*
X016920Y015220D01*
X016730Y014880D01*
X016990Y014630D01*
X016990Y013680D01*
X016310Y013050D01*
X016320Y012370D01*
X016080Y012130D01*
X014540Y012130D01*
X014060Y011650D01*
X013810Y011650D01*
X014060Y012150D02*
X012310Y012150D01*
X011810Y011650D01*
X011860Y011650D01*
X011810Y012650D02*
X011810Y012900D01*
X012260Y013350D01*
X014560Y013350D01*
X016060Y014850D01*
X016060Y015300D01*
X016660Y015900D01*
X016898Y015900D01*
X016920Y015878D01*
X016920Y015563D02*
X016908Y015550D01*
X016660Y015550D01*
X016310Y015200D01*
X016310Y014700D01*
X014710Y013100D01*
X014460Y013100D01*
X014310Y012950D01*
X014310Y012400D01*
X014060Y012150D01*
X014810Y012650D02*
X014960Y012800D01*
X014960Y012900D01*
X016270Y014210D01*
X016670Y014210D01*
X018256Y013550D02*
X018310Y013606D01*
X020860Y015300D02*
X021660Y014500D01*
X020860Y015300D02*
X020860Y015950D01*
X020660Y016150D01*
X020343Y016150D01*
X020300Y016193D01*
X020300Y016822D02*
X021038Y016822D01*
X020160Y017850D02*
X020266Y017956D01*
X020560Y017956D01*
X020060Y018200D02*
X019900Y018040D01*
X019712Y018040D01*
X019083Y018040D02*
X019083Y017672D01*
X018060Y016650D01*
X017610Y016650D01*
X017360Y016150D02*
X016878Y016150D01*
X016920Y016193D01*
X016928Y016200D01*
X016920Y016193D02*
X016746Y016193D01*
X016913Y016500D02*
X016180Y016500D01*
X016140Y016460D01*
X015726Y016046D01*
X015640Y016046D01*
X016448Y016822D02*
X016300Y016970D01*
X016320Y016990D01*
X016320Y017640D01*
X015796Y018164D01*
X015650Y018164D01*
X015636Y018150D01*
X014520Y018150D01*
X015010Y017650D02*
X011854Y017650D01*
X011604Y017900D01*
X011660Y017700D01*
X016448Y016822D02*
X016920Y016822D01*
X016920Y016507D02*
X016913Y016500D01*
X017360Y016150D02*
X017460Y016050D01*
X020160Y020000D02*
X020660Y020000D01*
X022874Y019220D02*
X023054Y019220D01*
X023734Y018540D01*
X022946Y018540D02*
X022946Y018114D01*
X023110Y017950D01*
X023510Y017550D01*
X023510Y017124D01*
X024010Y017124D02*
X024010Y016150D01*
X023960Y016100D01*
X022716Y012550D02*
X022716Y012506D01*
X020660Y009900D02*
X020160Y009900D01*
X019260Y008776D02*
X018768Y008264D01*
X018768Y007940D01*
X019083Y007940D02*
X019083Y007572D01*
X018060Y006550D01*
X017610Y006550D01*
X017760Y007000D02*
X018010Y007000D01*
X018138Y007128D01*
X018138Y007940D01*
X017823Y007940D02*
X017823Y007413D01*
X017810Y007400D01*
X017410Y007430D02*
X017410Y007100D01*
X017348Y007037D01*
X016920Y007037D01*
X016920Y006722D02*
X016448Y006722D01*
X016300Y006870D01*
X016320Y006890D01*
X016320Y007540D01*
X015796Y008064D01*
X015650Y008064D01*
X015636Y008050D01*
X014520Y008050D01*
X015010Y007550D02*
X011854Y007550D01*
X011604Y007800D01*
X011660Y007600D01*
X009204Y009900D02*
X009054Y009750D01*
X009204Y009900D02*
X016360Y009900D01*
X017110Y008750D02*
X017160Y008650D01*
X017110Y008750D02*
X017110Y007730D01*
X017410Y007430D01*
X016920Y007352D02*
X016830Y007442D01*
X016830Y007600D01*
X015950Y008480D01*
X015560Y008480D01*
X015194Y008846D01*
X015194Y008890D01*
X016872Y007400D02*
X016920Y007352D01*
X017508Y007940D02*
X017508Y008198D01*
X017760Y008450D01*
X019712Y007940D02*
X019900Y007940D01*
X020060Y008100D01*
X020110Y008100D01*
X020260Y008250D01*
X021010Y008250D01*
X021260Y008450D01*
X021666Y008100D02*
X021710Y008144D01*
X021508Y007352D02*
X021910Y006950D01*
X021508Y007352D02*
X020300Y007352D01*
X020300Y007037D02*
X021323Y007037D01*
X021910Y006450D01*
X021460Y006300D02*
X021038Y006722D01*
X020300Y006722D01*
X020300Y006407D02*
X020953Y006407D01*
X021160Y006200D01*
X021160Y005250D01*
X021560Y004850D01*
X021910Y004850D01*
X021910Y005350D02*
X021560Y005350D01*
X021460Y005450D01*
X021460Y006300D01*
X020860Y005850D02*
X020860Y005200D01*
X021660Y004400D01*
X022310Y004400D01*
X022510Y004600D01*
X022510Y004976D01*
X023010Y004976D02*
X023010Y004400D01*
X022660Y004050D01*
X023266Y003950D02*
X023266Y004156D01*
X023510Y004400D01*
X023510Y004976D01*
X024010Y004976D02*
X024010Y004094D01*
X024054Y003950D01*
X023504Y002450D02*
X023504Y002094D01*
X022960Y001550D01*
X022716Y002406D02*
X021860Y001550D01*
X021860Y001750D01*
X021560Y002050D01*
X018610Y002050D01*
X018310Y002350D01*
X018310Y003506D01*
X017616Y003506D01*
X017610Y003500D01*
X017320Y003840D02*
X017508Y004028D01*
X017508Y004448D01*
X017810Y004547D02*
X017823Y004560D01*
X017823Y005687D01*
X017810Y005700D01*
X017460Y005950D02*
X017460Y005350D01*
X017510Y005300D01*
X016920Y005148D02*
X016920Y005120D01*
X016730Y004780D01*
X016990Y004530D01*
X016990Y003580D01*
X016310Y002950D01*
X016320Y002270D01*
X016080Y002030D01*
X014540Y002030D01*
X014060Y001550D01*
X013810Y001550D01*
X014060Y002050D02*
X012310Y002050D01*
X011810Y001550D01*
X011860Y001550D01*
X011810Y002550D02*
X011810Y002800D01*
X012260Y003250D01*
X014560Y003250D01*
X016060Y004750D01*
X016060Y005200D01*
X016660Y005800D01*
X016898Y005800D01*
X016920Y005778D01*
X016878Y006050D02*
X017360Y006050D01*
X017460Y005950D01*
X016928Y006100D02*
X016920Y006093D01*
X016878Y006050D01*
X016920Y006093D02*
X016746Y006093D01*
X016913Y006400D02*
X016180Y006400D01*
X016140Y006360D01*
X015726Y005946D01*
X015640Y005946D01*
X016310Y005100D02*
X016660Y005450D01*
X016908Y005450D01*
X016920Y005463D01*
X016310Y005100D02*
X016310Y004600D01*
X014710Y003000D01*
X014460Y003000D01*
X014310Y002850D01*
X014310Y002300D01*
X014060Y002050D01*
X014810Y002550D02*
X014960Y002700D01*
X014960Y002800D01*
X016270Y004110D01*
X016670Y004110D01*
X018256Y003450D02*
X018310Y003506D01*
X019410Y004250D02*
X019410Y004547D01*
X019410Y004250D02*
X019923Y003737D01*
X020308Y003737D01*
X020913Y004463D02*
X020575Y004800D01*
X019960Y004800D01*
X019720Y004560D01*
X019712Y004560D01*
X019762Y005148D02*
X019410Y005150D01*
X019762Y005148D02*
X020300Y005148D01*
X020300Y005463D02*
X019823Y005463D01*
X019810Y005450D01*
X020300Y005778D02*
X018933Y005778D01*
X018860Y005850D01*
X019168Y006093D02*
X018910Y006350D01*
X019168Y006093D02*
X020300Y006093D01*
X020308Y006100D01*
X020300Y006093D02*
X020343Y006050D01*
X020660Y006050D01*
X020860Y005850D01*
X020293Y006400D02*
X020300Y006407D01*
X020160Y007750D02*
X020266Y007856D01*
X020560Y007856D01*
X022946Y008014D02*
X023110Y007850D01*
X023510Y007450D01*
X023510Y007024D01*
X024010Y007024D02*
X024010Y006050D01*
X023960Y006000D01*
X022946Y008014D02*
X022946Y008440D01*
X022874Y009120D02*
X023054Y009120D01*
X023734Y008440D01*
X016920Y006407D02*
X016913Y006400D01*
X022716Y002450D02*
X022716Y002406D01*
D37*
X019398Y007940D02*
X019398Y008237D01*
X019530Y008380D01*
X019770Y008460D01*
X020000Y008660D01*
X020010Y009750D01*
X019398Y018040D02*
X019398Y018337D01*
X019530Y018480D01*
X019770Y018560D01*
X020000Y018760D01*
X020010Y019850D01*
D38*
X018453Y017703D02*
X018455Y017700D01*
X018455Y017640D01*
X018516Y017640D01*
X018576Y017580D01*
X018608Y017580D01*
X018408Y017379D01*
X018408Y017640D01*
X018450Y017640D01*
X018450Y017700D01*
X018453Y017703D01*
X018450Y017648D02*
X018455Y017648D01*
X018408Y017550D02*
X018578Y017550D01*
X018479Y017451D02*
X018408Y017451D01*
X018170Y016403D02*
X018170Y015742D01*
X018214Y015636D01*
X018464Y015386D01*
X018546Y015304D01*
X018652Y015260D01*
X018820Y015260D01*
X018820Y015060D01*
X018770Y015060D01*
X018770Y015000D01*
X018768Y014997D01*
X018765Y015000D01*
X018765Y015060D01*
X018705Y015060D01*
X018645Y015120D01*
X018261Y015120D01*
X018201Y015060D01*
X018140Y015060D01*
X018140Y015000D01*
X018138Y014997D01*
X018135Y015000D01*
X018135Y015060D01*
X018093Y015060D01*
X018093Y015609D01*
X018094Y015610D01*
X018145Y015733D01*
X018145Y015867D01*
X018094Y015990D01*
X018000Y016084D01*
X017877Y016135D01*
X017743Y016135D01*
X017721Y016126D01*
X017689Y016203D01*
X017613Y016279D01*
X017577Y016315D01*
X017677Y016315D01*
X017800Y016366D01*
X017814Y016380D01*
X018114Y016380D01*
X018170Y016403D01*
X018170Y016368D02*
X017801Y016368D01*
X017623Y016269D02*
X018170Y016269D01*
X018170Y016171D02*
X017702Y016171D01*
X018012Y016072D02*
X018170Y016072D01*
X018170Y015974D02*
X018101Y015974D01*
X018142Y015875D02*
X018170Y015875D01*
X018170Y015777D02*
X018145Y015777D01*
X018122Y015678D02*
X018197Y015678D01*
X018270Y015580D02*
X018093Y015580D01*
X018093Y015481D02*
X018369Y015481D01*
X018467Y015383D02*
X018093Y015383D01*
X018093Y015284D02*
X018594Y015284D01*
X018678Y015087D02*
X018820Y015087D01*
X018820Y015186D02*
X018093Y015186D01*
X018093Y015087D02*
X018228Y015087D01*
X018138Y014323D02*
X018140Y014320D01*
X018140Y014260D01*
X018150Y014260D01*
X018150Y014138D01*
X018197Y014024D01*
X018206Y014016D01*
X018089Y014016D01*
X017997Y013978D01*
X017927Y013908D01*
X017914Y013876D01*
X017766Y013876D01*
X017676Y013914D01*
X017737Y013975D01*
X017778Y014074D01*
X017778Y014200D01*
X018015Y014200D01*
X018075Y014260D01*
X018135Y014260D01*
X018135Y014320D01*
X018138Y014323D01*
X018135Y014299D02*
X018140Y014299D01*
X018150Y014201D02*
X018015Y014201D01*
X018165Y014102D02*
X017778Y014102D01*
X017749Y014004D02*
X018059Y014004D01*
X017926Y013905D02*
X017697Y013905D01*
X020027Y014352D02*
X020027Y014586D01*
X020072Y014630D01*
X020338Y014630D01*
X020250Y014525D01*
X020608Y014227D01*
X020583Y014198D01*
X020226Y014496D01*
X020137Y014389D01*
X020127Y014367D01*
X020033Y014358D01*
X020027Y014352D01*
X020027Y014398D02*
X020144Y014398D01*
X020027Y014496D02*
X020284Y014496D01*
X020308Y014595D02*
X020036Y014595D01*
X020344Y014398D02*
X020403Y014398D01*
X020462Y014299D02*
X020521Y014299D01*
X020580Y014201D02*
X020586Y014201D01*
X020613Y014173D02*
X020637Y014202D01*
X020995Y013904D01*
X021083Y014011D01*
X021094Y014033D01*
X021187Y014042D01*
X021437Y014341D01*
X021507Y014271D01*
X021606Y014230D01*
X022110Y014230D01*
X022110Y013350D01*
X020622Y013364D01*
X020870Y013661D01*
X020862Y013755D01*
X020882Y013769D01*
X020970Y013875D01*
X020613Y014173D01*
X020635Y014201D02*
X020639Y014201D01*
X020698Y014102D02*
X020757Y014102D01*
X020816Y014004D02*
X020875Y014004D01*
X020935Y013905D02*
X020994Y013905D01*
X020995Y013905D02*
X022110Y013905D01*
X022110Y013807D02*
X020913Y013807D01*
X020866Y013708D02*
X022110Y013708D01*
X022110Y013610D02*
X020827Y013610D01*
X020745Y013511D02*
X022110Y013511D01*
X022110Y013413D02*
X020663Y013413D01*
X021077Y014004D02*
X022110Y014004D01*
X022110Y014102D02*
X021237Y014102D01*
X021319Y014201D02*
X022110Y014201D01*
X021479Y014299D02*
X021402Y014299D01*
X016660Y018252D02*
X016103Y018809D01*
X016004Y018850D01*
X015672Y018850D01*
X015561Y018961D01*
X015561Y019256D01*
X015547Y019290D01*
X016660Y019290D01*
X016660Y018252D01*
X016660Y018338D02*
X016574Y018338D01*
X016660Y018436D02*
X016476Y018436D01*
X016377Y018535D02*
X016660Y018535D01*
X016660Y018633D02*
X016279Y018633D01*
X016180Y018732D02*
X016660Y018732D01*
X016660Y018830D02*
X016052Y018830D01*
X015593Y018929D02*
X016660Y018929D01*
X016660Y019027D02*
X015561Y019027D01*
X015561Y019126D02*
X016660Y019126D01*
X016660Y019224D02*
X015561Y019224D01*
X012001Y017380D02*
X011990Y017370D01*
X011990Y016930D01*
X012271Y016650D01*
X011990Y016370D01*
X011990Y016116D01*
X011799Y015960D01*
X011489Y015960D01*
X011019Y016430D01*
X011037Y016430D01*
X011160Y016553D01*
X011160Y016799D01*
X011176Y016760D01*
X011270Y016666D01*
X011393Y016615D01*
X011527Y016615D01*
X011650Y016666D01*
X011744Y016760D01*
X011795Y016883D01*
X011795Y017017D01*
X011744Y017140D01*
X011650Y017234D01*
X011527Y017285D01*
X011393Y017285D01*
X011336Y017261D01*
X011345Y017283D01*
X011345Y017417D01*
X011306Y017510D01*
X011344Y017472D01*
X011436Y017434D01*
X011610Y017434D01*
X011682Y017426D01*
X011693Y017429D01*
X011701Y017421D01*
X011800Y017380D01*
X012001Y017380D01*
X011990Y017353D02*
X011345Y017353D01*
X011331Y017451D02*
X011395Y017451D01*
X011602Y017254D02*
X011990Y017254D01*
X011990Y017156D02*
X011728Y017156D01*
X011778Y017057D02*
X011990Y017057D01*
X011990Y016959D02*
X011795Y016959D01*
X011785Y016860D02*
X012061Y016860D01*
X012159Y016762D02*
X011745Y016762D01*
X011643Y016663D02*
X012258Y016663D01*
X012185Y016565D02*
X011160Y016565D01*
X011160Y016663D02*
X011278Y016663D01*
X011176Y016762D02*
X011160Y016762D01*
X011073Y016466D02*
X012087Y016466D01*
X011990Y016368D02*
X011081Y016368D01*
X011179Y016269D02*
X011990Y016269D01*
X011990Y016171D02*
X011278Y016171D01*
X011376Y016072D02*
X011936Y016072D01*
X011816Y015974D02*
X011475Y015974D01*
X010992Y015580D02*
X010157Y015580D01*
X010160Y015678D02*
X010894Y015678D01*
X010872Y015700D02*
X011097Y015474D01*
X011184Y015387D01*
X011298Y015340D01*
X011895Y015340D01*
X011941Y015335D01*
X011956Y015340D01*
X011972Y015340D01*
X012015Y015358D01*
X012059Y015371D01*
X012071Y015381D01*
X012086Y015387D01*
X012118Y015420D01*
X012363Y015620D01*
X012740Y015620D01*
X012810Y015690D01*
X012786Y014623D01*
X012730Y014680D01*
X012419Y014680D01*
X012156Y014943D01*
X012156Y015078D01*
X012033Y015201D01*
X011678Y015201D01*
X011672Y015204D01*
X011315Y015204D01*
X011303Y015208D01*
X011254Y015204D01*
X011205Y015204D01*
X011199Y015201D01*
X011012Y015201D01*
X010918Y015240D01*
X010412Y015240D01*
X010388Y015230D01*
X010286Y015230D01*
X010153Y015363D01*
X010160Y015700D01*
X010872Y015700D01*
X011091Y015481D02*
X010155Y015481D01*
X010153Y015383D02*
X011196Y015383D01*
X012049Y015186D02*
X012799Y015186D01*
X012801Y015284D02*
X010232Y015284D01*
X009810Y014650D02*
X008710Y014650D01*
X008710Y013808D01*
X009297Y013808D01*
X009355Y013750D01*
X009810Y013750D01*
X009810Y014650D01*
X009810Y014595D02*
X008710Y014595D01*
X008710Y014496D02*
X009810Y014496D01*
X009810Y014398D02*
X008710Y014398D01*
X008710Y014299D02*
X009810Y014299D01*
X009810Y014201D02*
X008710Y014201D01*
X008710Y014102D02*
X009810Y014102D01*
X009810Y014004D02*
X008710Y014004D01*
X008710Y013905D02*
X009810Y013905D01*
X009810Y013807D02*
X009298Y013807D01*
X010118Y013807D02*
X012104Y013807D01*
X012006Y013905D02*
X010120Y013905D01*
X010122Y014004D02*
X011980Y014004D01*
X011980Y013930D02*
X012291Y013620D01*
X012730Y013620D01*
X012765Y013655D01*
X012764Y013620D01*
X012206Y013620D01*
X012107Y013579D01*
X012031Y013503D01*
X011978Y013450D01*
X010110Y013450D01*
X010131Y014410D01*
X010787Y014410D01*
X010803Y014426D01*
X011795Y014426D01*
X011980Y014242D01*
X011980Y013930D01*
X011980Y014102D02*
X010125Y014102D01*
X010127Y014201D02*
X011980Y014201D01*
X011923Y014299D02*
X010129Y014299D01*
X010131Y014398D02*
X011824Y014398D01*
X012307Y014792D02*
X012790Y014792D01*
X012792Y014890D02*
X012208Y014890D01*
X012156Y014989D02*
X012794Y014989D01*
X012796Y015087D02*
X012147Y015087D01*
X012074Y015383D02*
X012803Y015383D01*
X012805Y015481D02*
X012193Y015481D01*
X012313Y015580D02*
X012807Y015580D01*
X012798Y015678D02*
X012810Y015678D01*
X012788Y014693D02*
X012405Y014693D01*
X012203Y013708D02*
X010116Y013708D01*
X010114Y013610D02*
X012181Y013610D01*
X012039Y013511D02*
X010111Y013511D01*
X008310Y014250D02*
X008310Y015830D01*
X008006Y015830D01*
X007982Y015840D01*
X007860Y015840D01*
X007860Y015556D01*
X007964Y015556D01*
X008081Y015439D01*
X008081Y014761D01*
X007964Y014644D01*
X007860Y014644D01*
X007860Y014250D01*
X008310Y014250D01*
X008310Y014299D02*
X007860Y014299D01*
X007860Y014398D02*
X008310Y014398D01*
X008310Y014496D02*
X007860Y014496D01*
X007860Y014595D02*
X008310Y014595D01*
X008310Y014693D02*
X008013Y014693D01*
X008081Y014792D02*
X008310Y014792D01*
X008310Y014890D02*
X008081Y014890D01*
X008081Y014989D02*
X008310Y014989D01*
X008310Y015087D02*
X008081Y015087D01*
X008081Y015186D02*
X008310Y015186D01*
X008310Y015284D02*
X008081Y015284D01*
X008081Y015383D02*
X008310Y015383D01*
X008310Y015481D02*
X008039Y015481D01*
X007860Y015580D02*
X008310Y015580D01*
X008310Y015678D02*
X007860Y015678D01*
X007860Y015777D02*
X008310Y015777D01*
X008401Y016240D02*
X007960Y016240D01*
X007960Y016100D01*
X008910Y016100D01*
X008910Y018050D01*
X007960Y018050D01*
X007960Y016800D01*
X008107Y016800D01*
X008152Y016845D01*
X008177Y016906D01*
X008254Y016983D01*
X008355Y017025D01*
X008465Y017025D01*
X008566Y016983D01*
X008643Y016906D01*
X008685Y016805D01*
X008685Y016695D01*
X008643Y016594D01*
X008566Y016517D01*
X008506Y016492D01*
X008500Y016486D01*
X008500Y016340D01*
X008401Y016240D01*
X008430Y016269D02*
X008910Y016269D01*
X008910Y016171D02*
X007960Y016171D01*
X008500Y016368D02*
X008910Y016368D01*
X008910Y016466D02*
X008500Y016466D01*
X008614Y016565D02*
X008910Y016565D01*
X008910Y016663D02*
X008672Y016663D01*
X008685Y016762D02*
X008910Y016762D01*
X008910Y016860D02*
X008662Y016860D01*
X008590Y016959D02*
X008910Y016959D01*
X008910Y017057D02*
X007960Y017057D01*
X007960Y016959D02*
X008230Y016959D01*
X008158Y016860D02*
X007960Y016860D01*
X007610Y016950D02*
X007260Y016950D01*
X007173Y016958D01*
X007089Y016980D01*
X007010Y017017D01*
X006939Y017067D01*
X006877Y017129D01*
X006827Y017200D01*
X006790Y017279D01*
X006768Y017363D01*
X006760Y017450D01*
X006760Y017800D01*
X006765Y017849D01*
X006779Y017896D01*
X006802Y017939D01*
X006833Y017977D01*
X006871Y018008D01*
X006914Y018031D01*
X006961Y018045D01*
X007010Y018050D01*
X007610Y018050D01*
X007610Y016950D01*
X007610Y016959D02*
X007170Y016959D01*
X006953Y017057D02*
X007610Y017057D01*
X007610Y017156D02*
X006858Y017156D01*
X006802Y017254D02*
X007610Y017254D01*
X007610Y017353D02*
X006771Y017353D01*
X006760Y017451D02*
X007610Y017451D01*
X007610Y017550D02*
X006760Y017550D01*
X006760Y017648D02*
X007610Y017648D01*
X007610Y017747D02*
X006760Y017747D01*
X006765Y017845D02*
X007610Y017845D01*
X007610Y017944D02*
X006806Y017944D01*
X006951Y018042D02*
X007610Y018042D01*
X007960Y018042D02*
X008910Y018042D01*
X008910Y017944D02*
X007960Y017944D01*
X007960Y017845D02*
X008910Y017845D01*
X008910Y017747D02*
X007960Y017747D01*
X007960Y017648D02*
X008910Y017648D01*
X008910Y017550D02*
X007960Y017550D01*
X007960Y017451D02*
X008910Y017451D01*
X008910Y017353D02*
X007960Y017353D01*
X007960Y017254D02*
X008910Y017254D01*
X008910Y017156D02*
X007960Y017156D01*
X007210Y015830D02*
X006703Y015830D01*
X006683Y015850D01*
X006610Y015850D01*
X006523Y015842D01*
X006439Y015820D01*
X006360Y015783D01*
X006289Y015733D01*
X006227Y015671D01*
X006177Y015600D01*
X006140Y015521D01*
X006118Y015437D01*
X006110Y015350D01*
X006110Y014235D01*
X006937Y014235D01*
X007021Y014200D01*
X007210Y014200D01*
X007210Y015830D01*
X007210Y015777D02*
X006351Y015777D01*
X006234Y015678D02*
X007210Y015678D01*
X007210Y015580D02*
X006168Y015580D01*
X006130Y015481D02*
X007210Y015481D01*
X007210Y015383D02*
X006113Y015383D01*
X006110Y015284D02*
X007210Y015284D01*
X007210Y015186D02*
X006110Y015186D01*
X006110Y015087D02*
X007210Y015087D01*
X007210Y014989D02*
X006110Y014989D01*
X006110Y014890D02*
X007210Y014890D01*
X007210Y014792D02*
X006110Y014792D01*
X006110Y014693D02*
X007210Y014693D01*
X007210Y014595D02*
X006110Y014595D01*
X006110Y014496D02*
X007210Y014496D01*
X007210Y014398D02*
X006110Y014398D01*
X006110Y014299D02*
X007210Y014299D01*
X007210Y014201D02*
X007020Y014201D01*
X007010Y007950D02*
X007610Y007950D01*
X007610Y006850D01*
X007260Y006850D01*
X007173Y006858D01*
X007089Y006880D01*
X007010Y006917D01*
X006939Y006967D01*
X006877Y007029D01*
X006827Y007100D01*
X006790Y007179D01*
X006768Y007263D01*
X006760Y007350D01*
X006760Y007700D01*
X006765Y007749D01*
X006779Y007796D01*
X006802Y007839D01*
X006833Y007877D01*
X006871Y007908D01*
X006914Y007931D01*
X006961Y007945D01*
X007010Y007950D01*
X006857Y007896D02*
X007610Y007896D01*
X007610Y007798D02*
X006780Y007798D01*
X006760Y007699D02*
X007610Y007699D01*
X007610Y007601D02*
X006760Y007601D01*
X006760Y007502D02*
X007610Y007502D01*
X007610Y007404D02*
X006760Y007404D01*
X006764Y007305D02*
X007610Y007305D01*
X007610Y007207D02*
X006783Y007207D01*
X006823Y007108D02*
X007610Y007108D01*
X007610Y007010D02*
X006896Y007010D01*
X007022Y006911D02*
X007610Y006911D01*
X007960Y006911D02*
X008323Y006911D01*
X008355Y006925D02*
X008254Y006883D01*
X008177Y006806D01*
X008152Y006745D01*
X008107Y006700D01*
X007960Y006700D01*
X007960Y007950D01*
X008910Y007950D01*
X008910Y006000D01*
X007960Y006000D01*
X007960Y006140D01*
X008401Y006140D01*
X008500Y006240D01*
X008500Y006386D01*
X008506Y006392D01*
X008566Y006417D01*
X008643Y006494D01*
X008685Y006595D01*
X008685Y006705D01*
X008643Y006806D01*
X008566Y006883D01*
X008465Y006925D01*
X008355Y006925D01*
X008497Y006911D02*
X008910Y006911D01*
X008910Y006813D02*
X008636Y006813D01*
X008681Y006714D02*
X008910Y006714D01*
X008910Y006616D02*
X008685Y006616D01*
X008653Y006517D02*
X008910Y006517D01*
X008910Y006419D02*
X008568Y006419D01*
X008500Y006320D02*
X008910Y006320D01*
X008910Y006222D02*
X008483Y006222D01*
X008910Y006123D02*
X007960Y006123D01*
X007960Y006025D02*
X008910Y006025D01*
X008310Y005730D02*
X008310Y004150D01*
X007860Y004150D01*
X007860Y004544D01*
X007964Y004544D01*
X008081Y004661D01*
X008081Y005339D01*
X007964Y005456D01*
X007860Y005456D01*
X007860Y005740D01*
X007982Y005740D01*
X008006Y005730D01*
X008310Y005730D01*
X008310Y005729D02*
X007860Y005729D01*
X007860Y005631D02*
X008310Y005631D01*
X008310Y005532D02*
X007860Y005532D01*
X007986Y005434D02*
X008310Y005434D01*
X008310Y005335D02*
X008081Y005335D01*
X008081Y005237D02*
X008310Y005237D01*
X008310Y005138D02*
X008081Y005138D01*
X008081Y005040D02*
X008310Y005040D01*
X008310Y004941D02*
X008081Y004941D01*
X008081Y004843D02*
X008310Y004843D01*
X008310Y004744D02*
X008081Y004744D01*
X008066Y004646D02*
X008310Y004646D01*
X008310Y004547D02*
X007968Y004547D01*
X007860Y004449D02*
X008310Y004449D01*
X008310Y004350D02*
X007860Y004350D01*
X007860Y004252D02*
X008310Y004252D01*
X008310Y004153D02*
X007860Y004153D01*
X007210Y004153D02*
X006110Y004153D01*
X006110Y004135D02*
X006110Y005250D01*
X006118Y005337D01*
X006140Y005421D01*
X006177Y005500D01*
X006227Y005571D01*
X006289Y005633D01*
X006360Y005683D01*
X006439Y005720D01*
X006523Y005742D01*
X006610Y005750D01*
X006683Y005750D01*
X006703Y005730D01*
X007210Y005730D01*
X007210Y004100D01*
X007021Y004100D01*
X006937Y004135D01*
X006110Y004135D01*
X006110Y004252D02*
X007210Y004252D01*
X007210Y004350D02*
X006110Y004350D01*
X006110Y004449D02*
X007210Y004449D01*
X007210Y004547D02*
X006110Y004547D01*
X006110Y004646D02*
X007210Y004646D01*
X007210Y004744D02*
X006110Y004744D01*
X006110Y004843D02*
X007210Y004843D01*
X007210Y004941D02*
X006110Y004941D01*
X006110Y005040D02*
X007210Y005040D01*
X007210Y005138D02*
X006110Y005138D01*
X006110Y005237D02*
X007210Y005237D01*
X007210Y005335D02*
X006118Y005335D01*
X006146Y005434D02*
X007210Y005434D01*
X007210Y005532D02*
X006200Y005532D01*
X006287Y005631D02*
X007210Y005631D01*
X007210Y005729D02*
X006475Y005729D01*
X007960Y006714D02*
X008121Y006714D01*
X008184Y006813D02*
X007960Y006813D01*
X007960Y007010D02*
X008910Y007010D01*
X008910Y007108D02*
X007960Y007108D01*
X007960Y007207D02*
X008910Y007207D01*
X008910Y007305D02*
X007960Y007305D01*
X007960Y007404D02*
X008910Y007404D01*
X008910Y007502D02*
X007960Y007502D01*
X007960Y007601D02*
X008910Y007601D01*
X008910Y007699D02*
X007960Y007699D01*
X007960Y007798D02*
X008910Y007798D01*
X008910Y007896D02*
X007960Y007896D01*
X010160Y005600D02*
X010872Y005600D01*
X011097Y005374D01*
X011184Y005287D01*
X011298Y005240D01*
X011895Y005240D01*
X011941Y005235D01*
X011956Y005240D01*
X011972Y005240D01*
X012015Y005258D01*
X012059Y005271D01*
X012071Y005281D01*
X012086Y005287D01*
X012118Y005320D01*
X012363Y005520D01*
X012740Y005520D01*
X012810Y005590D01*
X012786Y004523D01*
X012730Y004580D01*
X012419Y004580D01*
X012156Y004843D01*
X012793Y004843D01*
X012795Y004941D02*
X012156Y004941D01*
X012156Y004978D02*
X012156Y004843D01*
X012156Y004978D02*
X012033Y005101D01*
X011678Y005101D01*
X011672Y005104D01*
X011315Y005104D01*
X011303Y005108D01*
X011254Y005104D01*
X011205Y005104D01*
X011199Y005101D01*
X011011Y005101D01*
X010918Y005140D01*
X010412Y005140D01*
X010388Y005130D01*
X010286Y005130D01*
X010153Y005263D01*
X010160Y005600D01*
X010159Y005532D02*
X010939Y005532D01*
X011038Y005434D02*
X010156Y005434D01*
X010154Y005335D02*
X011136Y005335D01*
X010921Y005138D02*
X012800Y005138D01*
X012798Y005040D02*
X012094Y005040D01*
X011946Y005237D02*
X012802Y005237D01*
X012804Y005335D02*
X012137Y005335D01*
X012258Y005434D02*
X012806Y005434D01*
X012809Y005532D02*
X012752Y005532D01*
X011990Y006016D02*
X011799Y005860D01*
X011489Y005860D01*
X011019Y006330D01*
X011037Y006330D01*
X011160Y006453D01*
X011160Y006699D01*
X011176Y006660D01*
X011270Y006566D01*
X011393Y006515D01*
X011527Y006515D01*
X011650Y006566D01*
X011744Y006660D01*
X011795Y006783D01*
X011795Y006917D01*
X011744Y007040D01*
X011650Y007134D01*
X011527Y007185D01*
X011393Y007185D01*
X011336Y007161D01*
X011345Y007183D01*
X011345Y007317D01*
X011306Y007410D01*
X011344Y007372D01*
X011436Y007334D01*
X011610Y007334D01*
X011682Y007326D01*
X011693Y007329D01*
X011701Y007321D01*
X011800Y007280D01*
X012001Y007280D01*
X011990Y007270D01*
X011990Y006830D01*
X012271Y006550D01*
X011990Y006270D01*
X011990Y006016D01*
X011990Y006025D02*
X011324Y006025D01*
X011422Y005926D02*
X011880Y005926D01*
X011990Y006123D02*
X011225Y006123D01*
X011127Y006222D02*
X011990Y006222D01*
X012041Y006320D02*
X011028Y006320D01*
X011126Y006419D02*
X012140Y006419D01*
X012238Y006517D02*
X011533Y006517D01*
X011387Y006517D02*
X011160Y006517D01*
X011160Y006616D02*
X011220Y006616D01*
X011700Y006616D02*
X012205Y006616D01*
X012106Y006714D02*
X011767Y006714D01*
X011795Y006813D02*
X012008Y006813D01*
X011990Y006911D02*
X011795Y006911D01*
X011756Y007010D02*
X011990Y007010D01*
X011990Y007108D02*
X011675Y007108D01*
X011739Y007305D02*
X011345Y007305D01*
X011345Y007207D02*
X011990Y007207D01*
X011313Y007404D02*
X011309Y007404D01*
X011925Y005237D02*
X010179Y005237D01*
X010278Y005138D02*
X010409Y005138D01*
X009810Y004550D02*
X008710Y004550D01*
X008710Y003708D01*
X009297Y003708D01*
X009355Y003650D01*
X009810Y003650D01*
X009810Y004550D01*
X009810Y004547D02*
X008710Y004547D01*
X008710Y004449D02*
X009810Y004449D01*
X009810Y004350D02*
X008710Y004350D01*
X008710Y004252D02*
X009810Y004252D01*
X009810Y004153D02*
X008710Y004153D01*
X008710Y004055D02*
X009810Y004055D01*
X009810Y003956D02*
X008710Y003956D01*
X008710Y003858D02*
X009810Y003858D01*
X009810Y003759D02*
X008710Y003759D01*
X009344Y003661D02*
X009810Y003661D01*
X010117Y003661D02*
X012150Y003661D01*
X012248Y003562D02*
X010115Y003562D01*
X010113Y003464D02*
X012092Y003464D01*
X012107Y003479D02*
X012031Y003403D01*
X011978Y003350D01*
X010110Y003350D01*
X010131Y004310D01*
X010787Y004310D01*
X010803Y004326D01*
X011795Y004326D01*
X011980Y004142D01*
X011980Y003830D01*
X012291Y003520D01*
X012730Y003520D01*
X012765Y003555D01*
X012764Y003520D01*
X012206Y003520D01*
X012107Y003479D01*
X011994Y003365D02*
X010110Y003365D01*
X010119Y003759D02*
X012051Y003759D01*
X011980Y003858D02*
X010121Y003858D01*
X010124Y003956D02*
X011980Y003956D01*
X011980Y004055D02*
X010126Y004055D01*
X010128Y004153D02*
X011968Y004153D01*
X011870Y004252D02*
X010130Y004252D01*
X012254Y004744D02*
X012791Y004744D01*
X012789Y004646D02*
X012353Y004646D01*
X012762Y004547D02*
X012787Y004547D01*
X016660Y008152D02*
X016103Y008709D01*
X016004Y008750D01*
X015672Y008750D01*
X015561Y008861D01*
X015561Y009156D01*
X015547Y009190D01*
X016660Y009190D01*
X016660Y008152D01*
X016660Y008192D02*
X016620Y008192D01*
X016660Y008290D02*
X016521Y008290D01*
X016423Y008389D02*
X016660Y008389D01*
X016660Y008487D02*
X016324Y008487D01*
X016226Y008586D02*
X016660Y008586D01*
X016660Y008684D02*
X016127Y008684D01*
X015639Y008783D02*
X016660Y008783D01*
X016660Y008881D02*
X015561Y008881D01*
X015561Y008980D02*
X016660Y008980D01*
X016660Y009078D02*
X015561Y009078D01*
X015553Y009177D02*
X016660Y009177D01*
X018450Y007600D02*
X018453Y007603D01*
X018455Y007600D01*
X018455Y007540D01*
X018516Y007540D01*
X018576Y007480D01*
X018608Y007480D01*
X018408Y007279D01*
X018408Y007540D01*
X018450Y007540D01*
X018450Y007600D01*
X018451Y007601D02*
X018455Y007601D01*
X018408Y007502D02*
X018553Y007502D01*
X018532Y007404D02*
X018408Y007404D01*
X018408Y007305D02*
X018434Y007305D01*
X018170Y006303D02*
X018170Y005642D01*
X018214Y005536D01*
X018464Y005286D01*
X018546Y005204D01*
X018652Y005160D01*
X018820Y005160D01*
X018820Y004960D01*
X018770Y004960D01*
X018770Y004900D01*
X018768Y004897D01*
X018765Y004900D01*
X018765Y004960D01*
X018705Y004960D01*
X018645Y005020D01*
X018261Y005020D01*
X018201Y004960D01*
X018140Y004960D01*
X018140Y004900D01*
X018138Y004897D01*
X018135Y004900D01*
X018135Y004960D01*
X018093Y004960D01*
X018093Y005509D01*
X018094Y005510D01*
X018145Y005633D01*
X018145Y005767D01*
X018094Y005890D01*
X018000Y005984D01*
X017877Y006035D01*
X017743Y006035D01*
X017721Y006026D01*
X017689Y006103D01*
X017613Y006179D01*
X017577Y006215D01*
X017677Y006215D01*
X017800Y006266D01*
X017814Y006280D01*
X018114Y006280D01*
X018170Y006303D01*
X018170Y006222D02*
X017694Y006222D01*
X017668Y006123D02*
X018170Y006123D01*
X018170Y006025D02*
X017901Y006025D01*
X018057Y005926D02*
X018170Y005926D01*
X018170Y005828D02*
X018120Y005828D01*
X018145Y005729D02*
X018170Y005729D01*
X018175Y005631D02*
X018144Y005631D01*
X018103Y005532D02*
X018217Y005532D01*
X018316Y005434D02*
X018093Y005434D01*
X018093Y005335D02*
X018414Y005335D01*
X018513Y005237D02*
X018093Y005237D01*
X018093Y005138D02*
X018820Y005138D01*
X018820Y005040D02*
X018093Y005040D01*
X018135Y004941D02*
X018140Y004941D01*
X018765Y004941D02*
X018770Y004941D01*
X018138Y004223D02*
X018140Y004220D01*
X018140Y004160D01*
X018150Y004160D01*
X018150Y004038D01*
X018197Y003924D01*
X018206Y003916D01*
X018089Y003916D01*
X017997Y003878D01*
X017927Y003808D01*
X017914Y003776D01*
X017766Y003776D01*
X017676Y003814D01*
X017737Y003875D01*
X017778Y003974D01*
X017778Y004100D01*
X018015Y004100D01*
X018075Y004160D01*
X018135Y004160D01*
X018135Y004220D01*
X018138Y004223D01*
X018150Y004153D02*
X018068Y004153D01*
X018150Y004055D02*
X017778Y004055D01*
X017771Y003956D02*
X018184Y003956D01*
X017977Y003858D02*
X017720Y003858D01*
X020027Y004252D02*
X020027Y004486D01*
X020072Y004530D01*
X020338Y004530D01*
X020250Y004425D01*
X020608Y004127D01*
X020583Y004098D01*
X020226Y004396D01*
X020137Y004289D01*
X020127Y004267D01*
X020033Y004258D01*
X020027Y004252D01*
X020028Y004252D01*
X020027Y004350D02*
X020188Y004350D01*
X020280Y004350D02*
X020339Y004350D01*
X020398Y004252D02*
X020457Y004252D01*
X020516Y004153D02*
X020575Y004153D01*
X020637Y004102D02*
X020995Y003804D01*
X021083Y003911D01*
X021094Y003933D01*
X021187Y003942D01*
X021437Y004241D01*
X021507Y004171D01*
X021606Y004130D01*
X022110Y004130D01*
X022110Y003250D01*
X020622Y003264D01*
X020870Y003561D01*
X020862Y003655D01*
X020882Y003669D01*
X020970Y003775D01*
X020613Y004073D01*
X020637Y004102D01*
X020635Y004055D02*
X020694Y004055D01*
X020753Y003956D02*
X020812Y003956D01*
X020871Y003858D02*
X020930Y003858D01*
X020957Y003759D02*
X022110Y003759D01*
X022110Y003661D02*
X020871Y003661D01*
X020870Y003562D02*
X022110Y003562D01*
X022110Y003464D02*
X020789Y003464D01*
X020707Y003365D02*
X022110Y003365D01*
X022110Y003267D02*
X020625Y003267D01*
X021039Y003858D02*
X022110Y003858D01*
X022110Y003956D02*
X021199Y003956D01*
X021282Y004055D02*
X022110Y004055D01*
X021550Y004153D02*
X021364Y004153D01*
X020270Y004449D02*
X020027Y004449D01*
D39*
X007020Y006450D02*
X006810Y006450D01*
X006416Y006844D01*
X006060Y006894D01*
X006060Y007444D01*
X006066Y007450D01*
X006810Y016550D02*
X007020Y016550D01*
X006810Y016550D02*
X006416Y016944D01*
X006060Y016994D01*
X006060Y017544D01*
X006066Y017550D01*
D40*
X021260Y019200D03*
X021260Y009100D03*
D41*
X017510Y005300D03*
X017610Y003500D03*
X008410Y006650D03*
X017610Y013600D03*
X017510Y015400D03*
X008410Y016750D03*
D42*
X011010Y017350D03*
X011460Y016950D03*
X011460Y016200D03*
X014040Y018800D03*
X015010Y017650D03*
X016300Y016970D03*
X016140Y016460D03*
X017610Y016650D03*
X017760Y017100D03*
X017810Y017500D03*
X017760Y018550D03*
X018460Y018450D03*
X019760Y017400D03*
X020160Y017850D03*
X020060Y018200D03*
X021260Y018550D03*
X022360Y019750D03*
X023110Y017950D03*
X021910Y017050D03*
X021910Y016550D03*
X021910Y016000D03*
X021910Y015450D03*
X021910Y014950D03*
X022660Y014150D03*
X021960Y013800D03*
X020160Y014550D03*
X019410Y015250D03*
X019810Y015550D03*
X018860Y015950D03*
X018910Y016450D03*
X018060Y016250D03*
X017810Y015800D03*
X016730Y014880D03*
X016670Y014210D03*
X017320Y013940D03*
X016110Y013500D03*
X016360Y009900D03*
X017260Y009850D03*
X017760Y008450D03*
X018460Y008350D03*
X017810Y007400D03*
X017760Y007000D03*
X017610Y006550D03*
X018060Y006150D03*
X017810Y005700D03*
X018860Y005850D03*
X018910Y006350D03*
X019810Y005450D03*
X019410Y005150D03*
X020160Y004450D03*
X021910Y004850D03*
X021910Y005350D03*
X021910Y005900D03*
X021910Y006450D03*
X021910Y006950D03*
X023110Y007850D03*
X021260Y008450D03*
X020060Y008100D03*
X020160Y007750D03*
X019760Y007300D03*
X019710Y009550D03*
X022360Y009650D03*
X024610Y006450D03*
X023960Y006000D03*
X024610Y005100D03*
X022660Y004050D03*
X021960Y003700D03*
X017320Y003840D03*
X016670Y004110D03*
X016730Y004780D03*
X016110Y003400D03*
X016140Y006360D03*
X016300Y006870D03*
X015010Y007550D03*
X014040Y008700D03*
X015860Y008850D03*
X011510Y009050D03*
X011010Y007250D03*
X011460Y006850D03*
X011460Y006100D03*
X010690Y003500D03*
X007310Y009750D03*
X010690Y013600D03*
X015860Y018950D03*
X016360Y020000D03*
X017260Y019950D03*
X019710Y019650D03*
X023960Y016100D03*
X024610Y016550D03*
X024610Y015200D03*
X011510Y019150D03*
X007310Y019850D03*
D43*
X009650Y015210D02*
X009910Y015210D01*
X010170Y014950D01*
X010470Y014950D01*
X010470Y014690D02*
X009650Y014690D01*
X009650Y014950D02*
X009064Y014950D01*
X008960Y015054D01*
X018138Y014660D02*
X018160Y014682D01*
X019398Y014660D02*
X019410Y014647D01*
X020797Y014563D02*
X020913Y014563D01*
X010470Y004850D02*
X010170Y004850D01*
X009910Y005110D01*
X009650Y005110D01*
X009650Y004850D02*
X009064Y004850D01*
X008960Y004954D01*
X009650Y004590D02*
X010470Y004590D01*
X018138Y004560D02*
X018160Y004582D01*
X019398Y004560D02*
X019410Y004547D01*
X020797Y004463D02*
X020913Y004463D01*
D44*
X009810Y001550D02*
X008560Y001550D01*
X007670Y002440D01*
X007670Y003000D01*
X008560Y011650D02*
X009810Y011650D01*
X008560Y011650D02*
X007670Y012540D01*
X007670Y013100D01*
D45*
X007190Y013580D01*
X006870Y013900D01*
X006310Y013900D01*
X006310Y003800D02*
X006870Y003800D01*
X007190Y003480D01*
X007670Y003000D01*
D46*
X007310Y006050D02*
X007050Y006050D01*
X007310Y006050D02*
X007560Y006300D01*
X007560Y006850D01*
X007316Y007094D01*
X007316Y007100D01*
X007310Y016150D02*
X007050Y016150D01*
X007310Y016150D02*
X007560Y016400D01*
X007560Y016950D01*
X007316Y017194D01*
X007316Y017200D01*
M02*
