G75*
%MOIN*%
%OFA0B0*%
%FSLAX24Y24*%
%IPPOS*%
%LPD*%
%AMOC8*
5,1,8,0,0,1.08239X$1,22.5*
%
%ADD10C,0.0000*%
%ADD11C,0.0946*%
%ADD12R,0.0592X0.0435*%
%ADD13R,0.0867X0.0580*%
%ADD14C,0.0640*%
%ADD15R,0.0330X0.0580*%
%ADD16OC8,0.0740*%
%ADD17C,0.0820*%
%ADD18R,0.0300X0.0600*%
%ADD19R,0.0600X0.0300*%
%ADD20R,0.0631X0.0434*%
%ADD21R,0.0474X0.0631*%
%ADD22R,0.0435X0.0592*%
%ADD23OC8,0.0680*%
%ADD24OC8,0.0720*%
%ADD25OC8,0.0840*%
%ADD26C,0.0099*%
D10*
X005610Y001350D02*
X005610Y019820D01*
X005612Y019864D01*
X005618Y019907D01*
X005627Y019949D01*
X005640Y019991D01*
X005657Y020031D01*
X005677Y020070D01*
X005700Y020107D01*
X005727Y020141D01*
X005756Y020174D01*
X005789Y020203D01*
X005823Y020230D01*
X005860Y020253D01*
X005899Y020273D01*
X005939Y020290D01*
X005981Y020303D01*
X006023Y020312D01*
X006066Y020318D01*
X006110Y020320D01*
X024716Y020320D01*
X024760Y020318D01*
X024803Y020312D01*
X024845Y020303D01*
X024887Y020290D01*
X024927Y020273D01*
X024966Y020253D01*
X025003Y020230D01*
X025037Y020203D01*
X025070Y020174D01*
X025099Y020141D01*
X025126Y020107D01*
X025149Y020070D01*
X025169Y020031D01*
X025186Y019991D01*
X025199Y019949D01*
X025208Y019907D01*
X025214Y019864D01*
X025216Y019820D01*
X025216Y001350D01*
X025214Y001306D01*
X025208Y001263D01*
X025199Y001221D01*
X025186Y001179D01*
X025169Y001139D01*
X025149Y001100D01*
X025126Y001063D01*
X025099Y001029D01*
X025070Y000996D01*
X025037Y000967D01*
X025003Y000940D01*
X024966Y000917D01*
X024927Y000897D01*
X024887Y000880D01*
X024845Y000867D01*
X024803Y000858D01*
X024760Y000852D01*
X024716Y000850D01*
X006110Y000850D01*
X006066Y000852D01*
X006023Y000858D01*
X005981Y000867D01*
X005939Y000880D01*
X005899Y000897D01*
X005860Y000917D01*
X005823Y000940D01*
X005789Y000967D01*
X005756Y000996D01*
X005727Y001029D01*
X005700Y001063D01*
X005677Y001100D01*
X005657Y001139D01*
X005640Y001179D01*
X005627Y001221D01*
X005618Y001263D01*
X005612Y001306D01*
X005610Y001350D01*
X006075Y001698D02*
X006077Y001739D01*
X006083Y001780D01*
X006093Y001820D01*
X006106Y001859D01*
X006123Y001896D01*
X006144Y001932D01*
X006168Y001966D01*
X006195Y001997D01*
X006224Y002025D01*
X006257Y002051D01*
X006291Y002073D01*
X006328Y002092D01*
X006366Y002107D01*
X006406Y002119D01*
X006446Y002127D01*
X006487Y002131D01*
X006529Y002131D01*
X006570Y002127D01*
X006610Y002119D01*
X006650Y002107D01*
X006688Y002092D01*
X006724Y002073D01*
X006759Y002051D01*
X006792Y002025D01*
X006821Y001997D01*
X006848Y001966D01*
X006872Y001932D01*
X006893Y001896D01*
X006910Y001859D01*
X006923Y001820D01*
X006933Y001780D01*
X006939Y001739D01*
X006941Y001698D01*
X006939Y001657D01*
X006933Y001616D01*
X006923Y001576D01*
X006910Y001537D01*
X006893Y001500D01*
X006872Y001464D01*
X006848Y001430D01*
X006821Y001399D01*
X006792Y001371D01*
X006759Y001345D01*
X006725Y001323D01*
X006688Y001304D01*
X006650Y001289D01*
X006610Y001277D01*
X006570Y001269D01*
X006529Y001265D01*
X006487Y001265D01*
X006446Y001269D01*
X006406Y001277D01*
X006366Y001289D01*
X006328Y001304D01*
X006292Y001323D01*
X006257Y001345D01*
X006224Y001371D01*
X006195Y001399D01*
X006168Y001430D01*
X006144Y001464D01*
X006123Y001500D01*
X006106Y001537D01*
X006093Y001576D01*
X006083Y001616D01*
X006077Y001657D01*
X006075Y001698D01*
X006075Y009372D02*
X006077Y009413D01*
X006083Y009454D01*
X006093Y009494D01*
X006106Y009533D01*
X006123Y009570D01*
X006144Y009606D01*
X006168Y009640D01*
X006195Y009671D01*
X006224Y009699D01*
X006257Y009725D01*
X006291Y009747D01*
X006328Y009766D01*
X006366Y009781D01*
X006406Y009793D01*
X006446Y009801D01*
X006487Y009805D01*
X006529Y009805D01*
X006570Y009801D01*
X006610Y009793D01*
X006650Y009781D01*
X006688Y009766D01*
X006724Y009747D01*
X006759Y009725D01*
X006792Y009699D01*
X006821Y009671D01*
X006848Y009640D01*
X006872Y009606D01*
X006893Y009570D01*
X006910Y009533D01*
X006923Y009494D01*
X006933Y009454D01*
X006939Y009413D01*
X006941Y009372D01*
X006939Y009331D01*
X006933Y009290D01*
X006923Y009250D01*
X006910Y009211D01*
X006893Y009174D01*
X006872Y009138D01*
X006848Y009104D01*
X006821Y009073D01*
X006792Y009045D01*
X006759Y009019D01*
X006725Y008997D01*
X006688Y008978D01*
X006650Y008963D01*
X006610Y008951D01*
X006570Y008943D01*
X006529Y008939D01*
X006487Y008939D01*
X006446Y008943D01*
X006406Y008951D01*
X006366Y008963D01*
X006328Y008978D01*
X006292Y008997D01*
X006257Y009019D01*
X006224Y009045D01*
X006195Y009073D01*
X006168Y009104D01*
X006144Y009138D01*
X006123Y009174D01*
X006106Y009211D01*
X006093Y009250D01*
X006083Y009290D01*
X006077Y009331D01*
X006075Y009372D01*
X006075Y011798D02*
X006077Y011839D01*
X006083Y011880D01*
X006093Y011920D01*
X006106Y011959D01*
X006123Y011996D01*
X006144Y012032D01*
X006168Y012066D01*
X006195Y012097D01*
X006224Y012125D01*
X006257Y012151D01*
X006291Y012173D01*
X006328Y012192D01*
X006366Y012207D01*
X006406Y012219D01*
X006446Y012227D01*
X006487Y012231D01*
X006529Y012231D01*
X006570Y012227D01*
X006610Y012219D01*
X006650Y012207D01*
X006688Y012192D01*
X006724Y012173D01*
X006759Y012151D01*
X006792Y012125D01*
X006821Y012097D01*
X006848Y012066D01*
X006872Y012032D01*
X006893Y011996D01*
X006910Y011959D01*
X006923Y011920D01*
X006933Y011880D01*
X006939Y011839D01*
X006941Y011798D01*
X006939Y011757D01*
X006933Y011716D01*
X006923Y011676D01*
X006910Y011637D01*
X006893Y011600D01*
X006872Y011564D01*
X006848Y011530D01*
X006821Y011499D01*
X006792Y011471D01*
X006759Y011445D01*
X006725Y011423D01*
X006688Y011404D01*
X006650Y011389D01*
X006610Y011377D01*
X006570Y011369D01*
X006529Y011365D01*
X006487Y011365D01*
X006446Y011369D01*
X006406Y011377D01*
X006366Y011389D01*
X006328Y011404D01*
X006292Y011423D01*
X006257Y011445D01*
X006224Y011471D01*
X006195Y011499D01*
X006168Y011530D01*
X006144Y011564D01*
X006123Y011600D01*
X006106Y011637D01*
X006093Y011676D01*
X006083Y011716D01*
X006077Y011757D01*
X006075Y011798D01*
X006075Y019472D02*
X006077Y019513D01*
X006083Y019554D01*
X006093Y019594D01*
X006106Y019633D01*
X006123Y019670D01*
X006144Y019706D01*
X006168Y019740D01*
X006195Y019771D01*
X006224Y019799D01*
X006257Y019825D01*
X006291Y019847D01*
X006328Y019866D01*
X006366Y019881D01*
X006406Y019893D01*
X006446Y019901D01*
X006487Y019905D01*
X006529Y019905D01*
X006570Y019901D01*
X006610Y019893D01*
X006650Y019881D01*
X006688Y019866D01*
X006724Y019847D01*
X006759Y019825D01*
X006792Y019799D01*
X006821Y019771D01*
X006848Y019740D01*
X006872Y019706D01*
X006893Y019670D01*
X006910Y019633D01*
X006923Y019594D01*
X006933Y019554D01*
X006939Y019513D01*
X006941Y019472D01*
X006939Y019431D01*
X006933Y019390D01*
X006923Y019350D01*
X006910Y019311D01*
X006893Y019274D01*
X006872Y019238D01*
X006848Y019204D01*
X006821Y019173D01*
X006792Y019145D01*
X006759Y019119D01*
X006725Y019097D01*
X006688Y019078D01*
X006650Y019063D01*
X006610Y019051D01*
X006570Y019043D01*
X006529Y019039D01*
X006487Y019039D01*
X006446Y019043D01*
X006406Y019051D01*
X006366Y019063D01*
X006328Y019078D01*
X006292Y019097D01*
X006257Y019119D01*
X006224Y019145D01*
X006195Y019173D01*
X006168Y019204D01*
X006144Y019238D01*
X006123Y019274D01*
X006106Y019311D01*
X006093Y019350D01*
X006083Y019390D01*
X006077Y019431D01*
X006075Y019472D01*
X023885Y019472D02*
X023887Y019513D01*
X023893Y019554D01*
X023903Y019594D01*
X023916Y019633D01*
X023933Y019670D01*
X023954Y019706D01*
X023978Y019740D01*
X024005Y019771D01*
X024034Y019799D01*
X024067Y019825D01*
X024101Y019847D01*
X024138Y019866D01*
X024176Y019881D01*
X024216Y019893D01*
X024256Y019901D01*
X024297Y019905D01*
X024339Y019905D01*
X024380Y019901D01*
X024420Y019893D01*
X024460Y019881D01*
X024498Y019866D01*
X024534Y019847D01*
X024569Y019825D01*
X024602Y019799D01*
X024631Y019771D01*
X024658Y019740D01*
X024682Y019706D01*
X024703Y019670D01*
X024720Y019633D01*
X024733Y019594D01*
X024743Y019554D01*
X024749Y019513D01*
X024751Y019472D01*
X024749Y019431D01*
X024743Y019390D01*
X024733Y019350D01*
X024720Y019311D01*
X024703Y019274D01*
X024682Y019238D01*
X024658Y019204D01*
X024631Y019173D01*
X024602Y019145D01*
X024569Y019119D01*
X024535Y019097D01*
X024498Y019078D01*
X024460Y019063D01*
X024420Y019051D01*
X024380Y019043D01*
X024339Y019039D01*
X024297Y019039D01*
X024256Y019043D01*
X024216Y019051D01*
X024176Y019063D01*
X024138Y019078D01*
X024102Y019097D01*
X024067Y019119D01*
X024034Y019145D01*
X024005Y019173D01*
X023978Y019204D01*
X023954Y019238D01*
X023933Y019274D01*
X023916Y019311D01*
X023903Y019350D01*
X023893Y019390D01*
X023887Y019431D01*
X023885Y019472D01*
X023885Y011798D02*
X023887Y011839D01*
X023893Y011880D01*
X023903Y011920D01*
X023916Y011959D01*
X023933Y011996D01*
X023954Y012032D01*
X023978Y012066D01*
X024005Y012097D01*
X024034Y012125D01*
X024067Y012151D01*
X024101Y012173D01*
X024138Y012192D01*
X024176Y012207D01*
X024216Y012219D01*
X024256Y012227D01*
X024297Y012231D01*
X024339Y012231D01*
X024380Y012227D01*
X024420Y012219D01*
X024460Y012207D01*
X024498Y012192D01*
X024534Y012173D01*
X024569Y012151D01*
X024602Y012125D01*
X024631Y012097D01*
X024658Y012066D01*
X024682Y012032D01*
X024703Y011996D01*
X024720Y011959D01*
X024733Y011920D01*
X024743Y011880D01*
X024749Y011839D01*
X024751Y011798D01*
X024749Y011757D01*
X024743Y011716D01*
X024733Y011676D01*
X024720Y011637D01*
X024703Y011600D01*
X024682Y011564D01*
X024658Y011530D01*
X024631Y011499D01*
X024602Y011471D01*
X024569Y011445D01*
X024535Y011423D01*
X024498Y011404D01*
X024460Y011389D01*
X024420Y011377D01*
X024380Y011369D01*
X024339Y011365D01*
X024297Y011365D01*
X024256Y011369D01*
X024216Y011377D01*
X024176Y011389D01*
X024138Y011404D01*
X024102Y011423D01*
X024067Y011445D01*
X024034Y011471D01*
X024005Y011499D01*
X023978Y011530D01*
X023954Y011564D01*
X023933Y011600D01*
X023916Y011637D01*
X023903Y011676D01*
X023893Y011716D01*
X023887Y011757D01*
X023885Y011798D01*
X023885Y009372D02*
X023887Y009413D01*
X023893Y009454D01*
X023903Y009494D01*
X023916Y009533D01*
X023933Y009570D01*
X023954Y009606D01*
X023978Y009640D01*
X024005Y009671D01*
X024034Y009699D01*
X024067Y009725D01*
X024101Y009747D01*
X024138Y009766D01*
X024176Y009781D01*
X024216Y009793D01*
X024256Y009801D01*
X024297Y009805D01*
X024339Y009805D01*
X024380Y009801D01*
X024420Y009793D01*
X024460Y009781D01*
X024498Y009766D01*
X024534Y009747D01*
X024569Y009725D01*
X024602Y009699D01*
X024631Y009671D01*
X024658Y009640D01*
X024682Y009606D01*
X024703Y009570D01*
X024720Y009533D01*
X024733Y009494D01*
X024743Y009454D01*
X024749Y009413D01*
X024751Y009372D01*
X024749Y009331D01*
X024743Y009290D01*
X024733Y009250D01*
X024720Y009211D01*
X024703Y009174D01*
X024682Y009138D01*
X024658Y009104D01*
X024631Y009073D01*
X024602Y009045D01*
X024569Y009019D01*
X024535Y008997D01*
X024498Y008978D01*
X024460Y008963D01*
X024420Y008951D01*
X024380Y008943D01*
X024339Y008939D01*
X024297Y008939D01*
X024256Y008943D01*
X024216Y008951D01*
X024176Y008963D01*
X024138Y008978D01*
X024102Y008997D01*
X024067Y009019D01*
X024034Y009045D01*
X024005Y009073D01*
X023978Y009104D01*
X023954Y009138D01*
X023933Y009174D01*
X023916Y009211D01*
X023903Y009250D01*
X023893Y009290D01*
X023887Y009331D01*
X023885Y009372D01*
X023885Y001698D02*
X023887Y001739D01*
X023893Y001780D01*
X023903Y001820D01*
X023916Y001859D01*
X023933Y001896D01*
X023954Y001932D01*
X023978Y001966D01*
X024005Y001997D01*
X024034Y002025D01*
X024067Y002051D01*
X024101Y002073D01*
X024138Y002092D01*
X024176Y002107D01*
X024216Y002119D01*
X024256Y002127D01*
X024297Y002131D01*
X024339Y002131D01*
X024380Y002127D01*
X024420Y002119D01*
X024460Y002107D01*
X024498Y002092D01*
X024534Y002073D01*
X024569Y002051D01*
X024602Y002025D01*
X024631Y001997D01*
X024658Y001966D01*
X024682Y001932D01*
X024703Y001896D01*
X024720Y001859D01*
X024733Y001820D01*
X024743Y001780D01*
X024749Y001739D01*
X024751Y001698D01*
X024749Y001657D01*
X024743Y001616D01*
X024733Y001576D01*
X024720Y001537D01*
X024703Y001500D01*
X024682Y001464D01*
X024658Y001430D01*
X024631Y001399D01*
X024602Y001371D01*
X024569Y001345D01*
X024535Y001323D01*
X024498Y001304D01*
X024460Y001289D01*
X024420Y001277D01*
X024380Y001269D01*
X024339Y001265D01*
X024297Y001265D01*
X024256Y001269D01*
X024216Y001277D01*
X024176Y001289D01*
X024138Y001304D01*
X024102Y001323D01*
X024067Y001345D01*
X024034Y001371D01*
X024005Y001399D01*
X023978Y001430D01*
X023954Y001464D01*
X023933Y001500D01*
X023916Y001537D01*
X023903Y001576D01*
X023893Y001616D01*
X023887Y001657D01*
X023885Y001698D01*
D11*
X024318Y001698D03*
X024318Y009372D03*
X024318Y011798D03*
X024318Y019472D03*
X006508Y019472D03*
X006508Y011798D03*
X006508Y009372D03*
X006508Y001698D03*
D12*
X011010Y006056D03*
X011010Y006844D03*
X008410Y008706D03*
X007760Y008706D03*
X007760Y009494D03*
X008410Y009494D03*
X013720Y009874D03*
X014430Y009874D03*
X014430Y009086D03*
X013720Y009086D03*
X019620Y004614D03*
X019620Y003826D03*
X020610Y003816D03*
X020610Y004604D03*
X020610Y013916D03*
X020610Y014704D03*
X019620Y014714D03*
X019620Y013926D03*
X014430Y019186D03*
X013720Y019186D03*
X013720Y019974D03*
X014430Y019974D03*
X011010Y016944D03*
X011010Y016156D03*
X008410Y018806D03*
X007760Y018806D03*
X007760Y019594D03*
X008410Y019594D03*
D13*
X015423Y019506D03*
X015423Y014781D03*
X015423Y009406D03*
X015423Y004681D03*
X023100Y004681D03*
X023100Y005469D03*
X023100Y006256D03*
X023100Y007044D03*
X023100Y008619D03*
X023100Y009406D03*
X023100Y014781D03*
X023100Y015569D03*
X023100Y016356D03*
X023100Y017144D03*
X023100Y018719D03*
X023100Y019506D03*
D14*
X024520Y018290D03*
X024520Y008190D03*
D15*
X011645Y008410D03*
X011295Y008410D03*
X010945Y008410D03*
X008840Y007350D03*
X008490Y007350D03*
X008140Y007350D03*
X008020Y004730D03*
X007670Y004730D03*
X007320Y004730D03*
X009833Y004950D03*
X010187Y004950D03*
X008020Y014830D03*
X007670Y014830D03*
X007320Y014830D03*
X009833Y015050D03*
X010187Y015050D03*
X008840Y017450D03*
X008490Y017450D03*
X008140Y017450D03*
X010945Y018510D03*
X011295Y018510D03*
X011645Y018510D03*
D16*
X019860Y012650D03*
X019860Y011650D03*
X020860Y011650D03*
X021860Y011650D03*
X021860Y012650D03*
X020860Y012650D03*
X020860Y002550D03*
X021860Y002550D03*
X021860Y001550D03*
X020860Y001550D03*
X019860Y001550D03*
X019860Y002550D03*
D17*
X008560Y002550D03*
X008560Y001550D03*
X008560Y011650D03*
X008560Y012650D03*
D18*
X009740Y015940D03*
X010110Y015940D03*
X010480Y015940D03*
X010480Y016860D03*
X009740Y016860D03*
X009740Y006760D03*
X010480Y006760D03*
X010480Y005840D03*
X010110Y005840D03*
X009740Y005840D03*
D19*
X010340Y007380D03*
X010340Y008120D03*
X009480Y007750D03*
X010340Y017480D03*
X010340Y018220D03*
X009480Y017850D03*
D20*
X021331Y017560D03*
X021331Y017060D03*
X021331Y016560D03*
X021331Y016060D03*
X021331Y015560D03*
X021331Y015060D03*
X021331Y014560D03*
X021331Y014060D03*
X021331Y007460D03*
X021331Y006960D03*
X021331Y006460D03*
X021331Y005960D03*
X021331Y005460D03*
X021331Y004960D03*
X021331Y004460D03*
X021331Y003960D03*
D21*
X007284Y007783D03*
X006536Y007783D03*
X006910Y006917D03*
X006910Y017017D03*
X006536Y017883D03*
X007284Y017883D03*
D22*
X007066Y015950D03*
X007854Y015950D03*
X007854Y005850D03*
X007066Y005850D03*
D23*
X009810Y002550D03*
X010810Y002550D03*
X010810Y001550D03*
X009810Y001550D03*
X011810Y001550D03*
X012810Y001550D03*
X012810Y002550D03*
X011810Y002550D03*
X013810Y002550D03*
X014810Y002550D03*
X014810Y001550D03*
X013810Y001550D03*
X015810Y001550D03*
X016810Y001550D03*
X016810Y002550D03*
X015810Y002550D03*
X017810Y002550D03*
X018810Y002550D03*
X018810Y001550D03*
X017810Y001550D03*
X017810Y011650D03*
X018810Y011650D03*
X018810Y012650D03*
X017810Y012650D03*
X016810Y012650D03*
X015810Y012650D03*
X014810Y012650D03*
X013810Y012650D03*
X012810Y012650D03*
X011810Y012650D03*
X010810Y012650D03*
X009810Y012650D03*
X009810Y011650D03*
X010810Y011650D03*
X011810Y011650D03*
X012810Y011650D03*
X013810Y011650D03*
X014810Y011650D03*
X015810Y011650D03*
X016810Y011650D03*
D24*
X014510Y014150D03*
X013510Y014150D03*
X012510Y014150D03*
X012510Y015150D03*
X012520Y016150D03*
X012520Y017150D03*
X012520Y018150D03*
X013520Y018150D03*
X014520Y018150D03*
X014520Y017150D03*
X013520Y017150D03*
X013520Y016150D03*
X014520Y016150D03*
X014510Y015150D03*
X013510Y015150D03*
X013520Y008050D03*
X014520Y008050D03*
X014520Y007050D03*
X013520Y007050D03*
X012520Y007050D03*
X012520Y006050D03*
X012510Y005050D03*
X012510Y004050D03*
X013510Y004050D03*
X014510Y004050D03*
X014510Y005050D03*
X013510Y005050D03*
X013520Y006050D03*
X014520Y006050D03*
X012520Y008050D03*
D25*
X022960Y011650D03*
X022960Y001550D03*
D26*
X010213Y008908D02*
X010213Y009204D01*
X010707Y009204D01*
X010707Y008908D01*
X010213Y008908D01*
X010213Y009006D02*
X010707Y009006D01*
X010707Y009104D02*
X010213Y009104D01*
X010213Y009202D02*
X010707Y009202D01*
X010213Y009696D02*
X010213Y009992D01*
X010707Y009992D01*
X010707Y009696D01*
X010213Y009696D01*
X010213Y009794D02*
X010707Y009794D01*
X010707Y009892D02*
X010213Y009892D01*
X010213Y009990D02*
X010707Y009990D01*
X009363Y009992D02*
X009363Y009696D01*
X009363Y009992D02*
X009857Y009992D01*
X009857Y009696D01*
X009363Y009696D01*
X009363Y009794D02*
X009857Y009794D01*
X009857Y009892D02*
X009363Y009892D01*
X009363Y009990D02*
X009857Y009990D01*
X009363Y009204D02*
X009363Y008908D01*
X009363Y009204D02*
X009857Y009204D01*
X009857Y008908D01*
X009363Y008908D01*
X009363Y009006D02*
X009857Y009006D01*
X009857Y009104D02*
X009363Y009104D01*
X009363Y009202D02*
X009857Y009202D01*
X009363Y019008D02*
X009363Y019304D01*
X009857Y019304D01*
X009857Y019008D01*
X009363Y019008D01*
X009363Y019106D02*
X009857Y019106D01*
X009857Y019204D02*
X009363Y019204D01*
X009363Y019302D02*
X009857Y019302D01*
X010213Y019304D02*
X010213Y019008D01*
X010213Y019304D02*
X010707Y019304D01*
X010707Y019008D01*
X010213Y019008D01*
X010213Y019106D02*
X010707Y019106D01*
X010707Y019204D02*
X010213Y019204D01*
X010213Y019302D02*
X010707Y019302D01*
X010213Y019796D02*
X010213Y020092D01*
X010707Y020092D01*
X010707Y019796D01*
X010213Y019796D01*
X010213Y019894D02*
X010707Y019894D01*
X010707Y019992D02*
X010213Y019992D01*
X010213Y020090D02*
X010707Y020090D01*
X009363Y020092D02*
X009363Y019796D01*
X009363Y020092D02*
X009857Y020092D01*
X009857Y019796D01*
X009363Y019796D01*
X009363Y019894D02*
X009857Y019894D01*
X009857Y019992D02*
X009363Y019992D01*
X009363Y020090D02*
X009857Y020090D01*
M02*
