G75*
%MOIN*%
%OFA0B0*%
%FSLAX24Y24*%
%IPPOS*%
%LPD*%
%AMOC8*
5,1,8,0,0,1.08239X$1,22.5*
%
%ADD10C,0.0000*%
%ADD11R,0.0512X0.0355*%
%ADD12R,0.0787X0.0500*%
%ADD13C,0.0560*%
%ADD14R,0.0250X0.0500*%
%ADD15OC8,0.0660*%
%ADD16C,0.0740*%
%ADD17R,0.0220X0.0520*%
%ADD18R,0.0520X0.0220*%
%ADD19R,0.0551X0.0354*%
%ADD20R,0.0394X0.0551*%
%ADD21R,0.0355X0.0512*%
%ADD22OC8,0.0600*%
%ADD23OC8,0.0640*%
%ADD24OC8,0.0760*%
%ADD25C,0.0079*%
%ADD26C,0.0240*%
%ADD27R,0.0354X0.0354*%
%ADD28C,0.0160*%
%ADD29C,0.0200*%
%ADD30R,0.0250X0.0250*%
%ADD31C,0.0320*%
%ADD32C,0.0210*%
%ADD33C,0.0140*%
%ADD34C,0.0250*%
%ADD35C,0.0100*%
%ADD36C,0.0120*%
%ADD37C,0.0250*%
D10*
X005610Y001350D02*
X005610Y019820D01*
X005612Y019864D01*
X005618Y019907D01*
X005627Y019949D01*
X005640Y019991D01*
X005657Y020031D01*
X005677Y020070D01*
X005700Y020107D01*
X005727Y020141D01*
X005756Y020174D01*
X005789Y020203D01*
X005823Y020230D01*
X005860Y020253D01*
X005899Y020273D01*
X005939Y020290D01*
X005981Y020303D01*
X006023Y020312D01*
X006066Y020318D01*
X006110Y020320D01*
X024716Y020320D01*
X024760Y020318D01*
X024803Y020312D01*
X024845Y020303D01*
X024887Y020290D01*
X024927Y020273D01*
X024966Y020253D01*
X025003Y020230D01*
X025037Y020203D01*
X025070Y020174D01*
X025099Y020141D01*
X025126Y020107D01*
X025149Y020070D01*
X025169Y020031D01*
X025186Y019991D01*
X025199Y019949D01*
X025208Y019907D01*
X025214Y019864D01*
X025216Y019820D01*
X025216Y001350D01*
X025214Y001306D01*
X025208Y001263D01*
X025199Y001221D01*
X025186Y001179D01*
X025169Y001139D01*
X025149Y001100D01*
X025126Y001063D01*
X025099Y001029D01*
X025070Y000996D01*
X025037Y000967D01*
X025003Y000940D01*
X024966Y000917D01*
X024927Y000897D01*
X024887Y000880D01*
X024845Y000867D01*
X024803Y000858D01*
X024760Y000852D01*
X024716Y000850D01*
X006110Y000850D01*
X006066Y000852D01*
X006023Y000858D01*
X005981Y000867D01*
X005939Y000880D01*
X005899Y000897D01*
X005860Y000917D01*
X005823Y000940D01*
X005789Y000967D01*
X005756Y000996D01*
X005727Y001029D01*
X005700Y001063D01*
X005677Y001100D01*
X005657Y001139D01*
X005640Y001179D01*
X005627Y001221D01*
X005618Y001263D01*
X005612Y001306D01*
X005610Y001350D01*
X006075Y001698D02*
X006077Y001739D01*
X006083Y001780D01*
X006093Y001820D01*
X006106Y001859D01*
X006123Y001896D01*
X006144Y001932D01*
X006168Y001966D01*
X006195Y001997D01*
X006224Y002025D01*
X006257Y002051D01*
X006291Y002073D01*
X006328Y002092D01*
X006366Y002107D01*
X006406Y002119D01*
X006446Y002127D01*
X006487Y002131D01*
X006529Y002131D01*
X006570Y002127D01*
X006610Y002119D01*
X006650Y002107D01*
X006688Y002092D01*
X006724Y002073D01*
X006759Y002051D01*
X006792Y002025D01*
X006821Y001997D01*
X006848Y001966D01*
X006872Y001932D01*
X006893Y001896D01*
X006910Y001859D01*
X006923Y001820D01*
X006933Y001780D01*
X006939Y001739D01*
X006941Y001698D01*
X006939Y001657D01*
X006933Y001616D01*
X006923Y001576D01*
X006910Y001537D01*
X006893Y001500D01*
X006872Y001464D01*
X006848Y001430D01*
X006821Y001399D01*
X006792Y001371D01*
X006759Y001345D01*
X006725Y001323D01*
X006688Y001304D01*
X006650Y001289D01*
X006610Y001277D01*
X006570Y001269D01*
X006529Y001265D01*
X006487Y001265D01*
X006446Y001269D01*
X006406Y001277D01*
X006366Y001289D01*
X006328Y001304D01*
X006292Y001323D01*
X006257Y001345D01*
X006224Y001371D01*
X006195Y001399D01*
X006168Y001430D01*
X006144Y001464D01*
X006123Y001500D01*
X006106Y001537D01*
X006093Y001576D01*
X006083Y001616D01*
X006077Y001657D01*
X006075Y001698D01*
X006075Y009372D02*
X006077Y009413D01*
X006083Y009454D01*
X006093Y009494D01*
X006106Y009533D01*
X006123Y009570D01*
X006144Y009606D01*
X006168Y009640D01*
X006195Y009671D01*
X006224Y009699D01*
X006257Y009725D01*
X006291Y009747D01*
X006328Y009766D01*
X006366Y009781D01*
X006406Y009793D01*
X006446Y009801D01*
X006487Y009805D01*
X006529Y009805D01*
X006570Y009801D01*
X006610Y009793D01*
X006650Y009781D01*
X006688Y009766D01*
X006724Y009747D01*
X006759Y009725D01*
X006792Y009699D01*
X006821Y009671D01*
X006848Y009640D01*
X006872Y009606D01*
X006893Y009570D01*
X006910Y009533D01*
X006923Y009494D01*
X006933Y009454D01*
X006939Y009413D01*
X006941Y009372D01*
X006939Y009331D01*
X006933Y009290D01*
X006923Y009250D01*
X006910Y009211D01*
X006893Y009174D01*
X006872Y009138D01*
X006848Y009104D01*
X006821Y009073D01*
X006792Y009045D01*
X006759Y009019D01*
X006725Y008997D01*
X006688Y008978D01*
X006650Y008963D01*
X006610Y008951D01*
X006570Y008943D01*
X006529Y008939D01*
X006487Y008939D01*
X006446Y008943D01*
X006406Y008951D01*
X006366Y008963D01*
X006328Y008978D01*
X006292Y008997D01*
X006257Y009019D01*
X006224Y009045D01*
X006195Y009073D01*
X006168Y009104D01*
X006144Y009138D01*
X006123Y009174D01*
X006106Y009211D01*
X006093Y009250D01*
X006083Y009290D01*
X006077Y009331D01*
X006075Y009372D01*
X006075Y011798D02*
X006077Y011839D01*
X006083Y011880D01*
X006093Y011920D01*
X006106Y011959D01*
X006123Y011996D01*
X006144Y012032D01*
X006168Y012066D01*
X006195Y012097D01*
X006224Y012125D01*
X006257Y012151D01*
X006291Y012173D01*
X006328Y012192D01*
X006366Y012207D01*
X006406Y012219D01*
X006446Y012227D01*
X006487Y012231D01*
X006529Y012231D01*
X006570Y012227D01*
X006610Y012219D01*
X006650Y012207D01*
X006688Y012192D01*
X006724Y012173D01*
X006759Y012151D01*
X006792Y012125D01*
X006821Y012097D01*
X006848Y012066D01*
X006872Y012032D01*
X006893Y011996D01*
X006910Y011959D01*
X006923Y011920D01*
X006933Y011880D01*
X006939Y011839D01*
X006941Y011798D01*
X006939Y011757D01*
X006933Y011716D01*
X006923Y011676D01*
X006910Y011637D01*
X006893Y011600D01*
X006872Y011564D01*
X006848Y011530D01*
X006821Y011499D01*
X006792Y011471D01*
X006759Y011445D01*
X006725Y011423D01*
X006688Y011404D01*
X006650Y011389D01*
X006610Y011377D01*
X006570Y011369D01*
X006529Y011365D01*
X006487Y011365D01*
X006446Y011369D01*
X006406Y011377D01*
X006366Y011389D01*
X006328Y011404D01*
X006292Y011423D01*
X006257Y011445D01*
X006224Y011471D01*
X006195Y011499D01*
X006168Y011530D01*
X006144Y011564D01*
X006123Y011600D01*
X006106Y011637D01*
X006093Y011676D01*
X006083Y011716D01*
X006077Y011757D01*
X006075Y011798D01*
X006075Y019472D02*
X006077Y019513D01*
X006083Y019554D01*
X006093Y019594D01*
X006106Y019633D01*
X006123Y019670D01*
X006144Y019706D01*
X006168Y019740D01*
X006195Y019771D01*
X006224Y019799D01*
X006257Y019825D01*
X006291Y019847D01*
X006328Y019866D01*
X006366Y019881D01*
X006406Y019893D01*
X006446Y019901D01*
X006487Y019905D01*
X006529Y019905D01*
X006570Y019901D01*
X006610Y019893D01*
X006650Y019881D01*
X006688Y019866D01*
X006724Y019847D01*
X006759Y019825D01*
X006792Y019799D01*
X006821Y019771D01*
X006848Y019740D01*
X006872Y019706D01*
X006893Y019670D01*
X006910Y019633D01*
X006923Y019594D01*
X006933Y019554D01*
X006939Y019513D01*
X006941Y019472D01*
X006939Y019431D01*
X006933Y019390D01*
X006923Y019350D01*
X006910Y019311D01*
X006893Y019274D01*
X006872Y019238D01*
X006848Y019204D01*
X006821Y019173D01*
X006792Y019145D01*
X006759Y019119D01*
X006725Y019097D01*
X006688Y019078D01*
X006650Y019063D01*
X006610Y019051D01*
X006570Y019043D01*
X006529Y019039D01*
X006487Y019039D01*
X006446Y019043D01*
X006406Y019051D01*
X006366Y019063D01*
X006328Y019078D01*
X006292Y019097D01*
X006257Y019119D01*
X006224Y019145D01*
X006195Y019173D01*
X006168Y019204D01*
X006144Y019238D01*
X006123Y019274D01*
X006106Y019311D01*
X006093Y019350D01*
X006083Y019390D01*
X006077Y019431D01*
X006075Y019472D01*
X023885Y019472D02*
X023887Y019513D01*
X023893Y019554D01*
X023903Y019594D01*
X023916Y019633D01*
X023933Y019670D01*
X023954Y019706D01*
X023978Y019740D01*
X024005Y019771D01*
X024034Y019799D01*
X024067Y019825D01*
X024101Y019847D01*
X024138Y019866D01*
X024176Y019881D01*
X024216Y019893D01*
X024256Y019901D01*
X024297Y019905D01*
X024339Y019905D01*
X024380Y019901D01*
X024420Y019893D01*
X024460Y019881D01*
X024498Y019866D01*
X024534Y019847D01*
X024569Y019825D01*
X024602Y019799D01*
X024631Y019771D01*
X024658Y019740D01*
X024682Y019706D01*
X024703Y019670D01*
X024720Y019633D01*
X024733Y019594D01*
X024743Y019554D01*
X024749Y019513D01*
X024751Y019472D01*
X024749Y019431D01*
X024743Y019390D01*
X024733Y019350D01*
X024720Y019311D01*
X024703Y019274D01*
X024682Y019238D01*
X024658Y019204D01*
X024631Y019173D01*
X024602Y019145D01*
X024569Y019119D01*
X024535Y019097D01*
X024498Y019078D01*
X024460Y019063D01*
X024420Y019051D01*
X024380Y019043D01*
X024339Y019039D01*
X024297Y019039D01*
X024256Y019043D01*
X024216Y019051D01*
X024176Y019063D01*
X024138Y019078D01*
X024102Y019097D01*
X024067Y019119D01*
X024034Y019145D01*
X024005Y019173D01*
X023978Y019204D01*
X023954Y019238D01*
X023933Y019274D01*
X023916Y019311D01*
X023903Y019350D01*
X023893Y019390D01*
X023887Y019431D01*
X023885Y019472D01*
X023885Y011798D02*
X023887Y011839D01*
X023893Y011880D01*
X023903Y011920D01*
X023916Y011959D01*
X023933Y011996D01*
X023954Y012032D01*
X023978Y012066D01*
X024005Y012097D01*
X024034Y012125D01*
X024067Y012151D01*
X024101Y012173D01*
X024138Y012192D01*
X024176Y012207D01*
X024216Y012219D01*
X024256Y012227D01*
X024297Y012231D01*
X024339Y012231D01*
X024380Y012227D01*
X024420Y012219D01*
X024460Y012207D01*
X024498Y012192D01*
X024534Y012173D01*
X024569Y012151D01*
X024602Y012125D01*
X024631Y012097D01*
X024658Y012066D01*
X024682Y012032D01*
X024703Y011996D01*
X024720Y011959D01*
X024733Y011920D01*
X024743Y011880D01*
X024749Y011839D01*
X024751Y011798D01*
X024749Y011757D01*
X024743Y011716D01*
X024733Y011676D01*
X024720Y011637D01*
X024703Y011600D01*
X024682Y011564D01*
X024658Y011530D01*
X024631Y011499D01*
X024602Y011471D01*
X024569Y011445D01*
X024535Y011423D01*
X024498Y011404D01*
X024460Y011389D01*
X024420Y011377D01*
X024380Y011369D01*
X024339Y011365D01*
X024297Y011365D01*
X024256Y011369D01*
X024216Y011377D01*
X024176Y011389D01*
X024138Y011404D01*
X024102Y011423D01*
X024067Y011445D01*
X024034Y011471D01*
X024005Y011499D01*
X023978Y011530D01*
X023954Y011564D01*
X023933Y011600D01*
X023916Y011637D01*
X023903Y011676D01*
X023893Y011716D01*
X023887Y011757D01*
X023885Y011798D01*
X023885Y009372D02*
X023887Y009413D01*
X023893Y009454D01*
X023903Y009494D01*
X023916Y009533D01*
X023933Y009570D01*
X023954Y009606D01*
X023978Y009640D01*
X024005Y009671D01*
X024034Y009699D01*
X024067Y009725D01*
X024101Y009747D01*
X024138Y009766D01*
X024176Y009781D01*
X024216Y009793D01*
X024256Y009801D01*
X024297Y009805D01*
X024339Y009805D01*
X024380Y009801D01*
X024420Y009793D01*
X024460Y009781D01*
X024498Y009766D01*
X024534Y009747D01*
X024569Y009725D01*
X024602Y009699D01*
X024631Y009671D01*
X024658Y009640D01*
X024682Y009606D01*
X024703Y009570D01*
X024720Y009533D01*
X024733Y009494D01*
X024743Y009454D01*
X024749Y009413D01*
X024751Y009372D01*
X024749Y009331D01*
X024743Y009290D01*
X024733Y009250D01*
X024720Y009211D01*
X024703Y009174D01*
X024682Y009138D01*
X024658Y009104D01*
X024631Y009073D01*
X024602Y009045D01*
X024569Y009019D01*
X024535Y008997D01*
X024498Y008978D01*
X024460Y008963D01*
X024420Y008951D01*
X024380Y008943D01*
X024339Y008939D01*
X024297Y008939D01*
X024256Y008943D01*
X024216Y008951D01*
X024176Y008963D01*
X024138Y008978D01*
X024102Y008997D01*
X024067Y009019D01*
X024034Y009045D01*
X024005Y009073D01*
X023978Y009104D01*
X023954Y009138D01*
X023933Y009174D01*
X023916Y009211D01*
X023903Y009250D01*
X023893Y009290D01*
X023887Y009331D01*
X023885Y009372D01*
X023885Y001698D02*
X023887Y001739D01*
X023893Y001780D01*
X023903Y001820D01*
X023916Y001859D01*
X023933Y001896D01*
X023954Y001932D01*
X023978Y001966D01*
X024005Y001997D01*
X024034Y002025D01*
X024067Y002051D01*
X024101Y002073D01*
X024138Y002092D01*
X024176Y002107D01*
X024216Y002119D01*
X024256Y002127D01*
X024297Y002131D01*
X024339Y002131D01*
X024380Y002127D01*
X024420Y002119D01*
X024460Y002107D01*
X024498Y002092D01*
X024534Y002073D01*
X024569Y002051D01*
X024602Y002025D01*
X024631Y001997D01*
X024658Y001966D01*
X024682Y001932D01*
X024703Y001896D01*
X024720Y001859D01*
X024733Y001820D01*
X024743Y001780D01*
X024749Y001739D01*
X024751Y001698D01*
X024749Y001657D01*
X024743Y001616D01*
X024733Y001576D01*
X024720Y001537D01*
X024703Y001500D01*
X024682Y001464D01*
X024658Y001430D01*
X024631Y001399D01*
X024602Y001371D01*
X024569Y001345D01*
X024535Y001323D01*
X024498Y001304D01*
X024460Y001289D01*
X024420Y001277D01*
X024380Y001269D01*
X024339Y001265D01*
X024297Y001265D01*
X024256Y001269D01*
X024216Y001277D01*
X024176Y001289D01*
X024138Y001304D01*
X024102Y001323D01*
X024067Y001345D01*
X024034Y001371D01*
X024005Y001399D01*
X023978Y001430D01*
X023954Y001464D01*
X023933Y001500D01*
X023916Y001537D01*
X023903Y001576D01*
X023893Y001616D01*
X023887Y001657D01*
X023885Y001698D01*
D11*
X020610Y003816D03*
X020610Y004604D03*
X019620Y004614D03*
X019620Y003826D03*
X014430Y009086D03*
X013720Y009086D03*
X013720Y009874D03*
X014430Y009874D03*
X011010Y006844D03*
X011010Y006056D03*
X008410Y008706D03*
X007760Y008706D03*
X007760Y009494D03*
X008410Y009494D03*
X011010Y016156D03*
X011010Y016944D03*
X008410Y018806D03*
X007760Y018806D03*
X007760Y019594D03*
X008410Y019594D03*
X013720Y019974D03*
X014430Y019974D03*
X014430Y019186D03*
X013720Y019186D03*
X019620Y014714D03*
X019620Y013926D03*
X020610Y013916D03*
X020610Y014704D03*
D12*
X023100Y014781D03*
X023100Y015569D03*
X023100Y016356D03*
X023100Y017144D03*
X023100Y018719D03*
X023100Y019506D03*
X015423Y019506D03*
X015423Y014781D03*
X015423Y009406D03*
X015423Y004681D03*
X023100Y004681D03*
X023100Y005469D03*
X023100Y006256D03*
X023100Y007044D03*
X023100Y008619D03*
X023100Y009406D03*
D13*
X024520Y008190D03*
X024520Y018290D03*
D14*
X011645Y018510D03*
X011295Y018510D03*
X010945Y018510D03*
X008840Y017450D03*
X008490Y017450D03*
X008140Y017450D03*
X009833Y015050D03*
X010187Y015050D03*
X008020Y014830D03*
X007670Y014830D03*
X007320Y014830D03*
X010945Y008410D03*
X011295Y008410D03*
X011645Y008410D03*
X008840Y007350D03*
X008490Y007350D03*
X008140Y007350D03*
X008020Y004730D03*
X007670Y004730D03*
X007320Y004730D03*
X009833Y004950D03*
X010187Y004950D03*
D15*
X019860Y002550D03*
X019860Y001550D03*
X020860Y001550D03*
X021860Y001550D03*
X021860Y002550D03*
X020860Y002550D03*
X020860Y011650D03*
X021860Y011650D03*
X021860Y012650D03*
X020860Y012650D03*
X019860Y012650D03*
X019860Y011650D03*
D16*
X008560Y011650D03*
X008560Y012650D03*
X008560Y002550D03*
X008560Y001550D03*
D17*
X009740Y005840D03*
X010110Y005840D03*
X010480Y005840D03*
X010480Y006760D03*
X009740Y006760D03*
X009740Y015940D03*
X010110Y015940D03*
X010480Y015940D03*
X010480Y016860D03*
X009740Y016860D03*
D18*
X010340Y017480D03*
X010340Y018220D03*
X009480Y017850D03*
X010340Y008120D03*
X010340Y007380D03*
X009480Y007750D03*
D19*
X021331Y007460D03*
X021331Y006960D03*
X021331Y006460D03*
X021331Y005960D03*
X021331Y005460D03*
X021331Y004960D03*
X021331Y004460D03*
X021331Y003960D03*
X021331Y014060D03*
X021331Y014560D03*
X021331Y015060D03*
X021331Y015560D03*
X021331Y016060D03*
X021331Y016560D03*
X021331Y017060D03*
X021331Y017560D03*
D20*
X007284Y017883D03*
X006536Y017883D03*
X006910Y017017D03*
X006536Y007783D03*
X007284Y007783D03*
X006910Y006917D03*
D21*
X007066Y005850D03*
X007854Y005850D03*
X007854Y015950D03*
X007066Y015950D03*
D22*
X009810Y012650D03*
X010810Y012650D03*
X010810Y011650D03*
X009810Y011650D03*
X011810Y011650D03*
X012810Y011650D03*
X012810Y012650D03*
X011810Y012650D03*
X013810Y012650D03*
X014810Y012650D03*
X014810Y011650D03*
X013810Y011650D03*
X015810Y011650D03*
X016810Y011650D03*
X016810Y012650D03*
X015810Y012650D03*
X017810Y012650D03*
X018810Y012650D03*
X018810Y011650D03*
X017810Y011650D03*
X017810Y002550D03*
X018810Y002550D03*
X018810Y001550D03*
X017810Y001550D03*
X016810Y001550D03*
X015810Y001550D03*
X014810Y001550D03*
X013810Y001550D03*
X012810Y001550D03*
X011810Y001550D03*
X010810Y001550D03*
X009810Y001550D03*
X009810Y002550D03*
X010810Y002550D03*
X011810Y002550D03*
X012810Y002550D03*
X013810Y002550D03*
X014810Y002550D03*
X015810Y002550D03*
X016810Y002550D03*
D23*
X014510Y004050D03*
X013510Y004050D03*
X012510Y004050D03*
X012510Y005050D03*
X012520Y006050D03*
X012520Y007050D03*
X012520Y008050D03*
X013520Y008050D03*
X014520Y008050D03*
X014520Y007050D03*
X013520Y007050D03*
X013520Y006050D03*
X014520Y006050D03*
X014510Y005050D03*
X013510Y005050D03*
X013510Y014150D03*
X014510Y014150D03*
X014510Y015150D03*
X013510Y015150D03*
X012510Y015150D03*
X012510Y014150D03*
X012520Y016150D03*
X012520Y017150D03*
X012520Y018150D03*
X013520Y018150D03*
X014520Y018150D03*
X014520Y017150D03*
X013520Y017150D03*
X013520Y016150D03*
X014520Y016150D03*
D24*
X022960Y011650D03*
X022960Y001550D03*
D25*
X010243Y008938D02*
X010243Y009174D01*
X010677Y009174D01*
X010677Y008938D01*
X010243Y008938D01*
X010243Y009016D02*
X010677Y009016D01*
X010677Y009094D02*
X010243Y009094D01*
X010243Y009172D02*
X010677Y009172D01*
X010243Y009726D02*
X010243Y009962D01*
X010677Y009962D01*
X010677Y009726D01*
X010243Y009726D01*
X010243Y009804D02*
X010677Y009804D01*
X010677Y009882D02*
X010243Y009882D01*
X010243Y009960D02*
X010677Y009960D01*
X009393Y009962D02*
X009393Y009726D01*
X009393Y009962D02*
X009827Y009962D01*
X009827Y009726D01*
X009393Y009726D01*
X009393Y009804D02*
X009827Y009804D01*
X009827Y009882D02*
X009393Y009882D01*
X009393Y009960D02*
X009827Y009960D01*
X009393Y009174D02*
X009393Y008938D01*
X009393Y009174D02*
X009827Y009174D01*
X009827Y008938D01*
X009393Y008938D01*
X009393Y009016D02*
X009827Y009016D01*
X009827Y009094D02*
X009393Y009094D01*
X009393Y009172D02*
X009827Y009172D01*
X009393Y019038D02*
X009393Y019274D01*
X009827Y019274D01*
X009827Y019038D01*
X009393Y019038D01*
X009393Y019116D02*
X009827Y019116D01*
X009827Y019194D02*
X009393Y019194D01*
X009393Y019272D02*
X009827Y019272D01*
X010243Y019274D02*
X010243Y019038D01*
X010243Y019274D02*
X010677Y019274D01*
X010677Y019038D01*
X010243Y019038D01*
X010243Y019116D02*
X010677Y019116D01*
X010677Y019194D02*
X010243Y019194D01*
X010243Y019272D02*
X010677Y019272D01*
X010243Y019826D02*
X010243Y020062D01*
X010677Y020062D01*
X010677Y019826D01*
X010243Y019826D01*
X010243Y019904D02*
X010677Y019904D01*
X010677Y019982D02*
X010243Y019982D01*
X010243Y020060D02*
X010677Y020060D01*
X009393Y020062D02*
X009393Y019826D01*
X009393Y020062D02*
X009827Y020062D01*
X009827Y019826D01*
X009393Y019826D01*
X009393Y019904D02*
X009827Y019904D01*
X009827Y019982D02*
X009393Y019982D01*
X009393Y020060D02*
X009827Y020060D01*
D26*
X008410Y018806D02*
X007760Y018806D01*
X007416Y018806D01*
X007160Y018550D01*
X007760Y018806D02*
X007784Y018782D01*
X007284Y017883D01*
X007416Y008706D02*
X007160Y008450D01*
X007416Y008706D02*
X007760Y008706D01*
X007784Y008682D01*
X007284Y007783D01*
X007760Y008706D02*
X008410Y008706D01*
X019620Y004614D02*
X019996Y004614D01*
X020160Y004450D01*
X020170Y004460D01*
X020754Y004460D01*
X020754Y014560D02*
X020170Y014560D01*
X020160Y014550D01*
X019996Y014714D01*
X019620Y014714D01*
D27*
X011760Y019550D03*
X007160Y018550D03*
X006310Y013050D03*
X007160Y008450D03*
X011760Y009450D03*
X006310Y002950D03*
D28*
X009810Y004950D02*
X009833Y004950D01*
X009700Y005800D02*
X009740Y005840D01*
X010340Y007380D02*
X010880Y007380D01*
X011010Y007250D01*
X009833Y015050D02*
X009810Y015050D01*
X009700Y015900D02*
X009740Y015940D01*
X011010Y017350D02*
X010880Y017480D01*
X010340Y017480D01*
X023100Y018719D02*
X023101Y018720D01*
X023620Y018720D01*
X024050Y018290D01*
X024520Y018290D01*
X023620Y008620D02*
X023101Y008620D01*
X023100Y008619D01*
X023620Y008620D02*
X024050Y008190D01*
X024520Y008190D01*
D29*
X023100Y009406D02*
X022604Y009406D01*
X022360Y009650D01*
X019360Y007000D02*
X018410Y007950D01*
X017410Y007950D01*
X015954Y009406D01*
X015423Y009406D01*
X015038Y009750D01*
X014915Y009874D01*
X014430Y009874D01*
X013720Y009874D01*
X013656Y009810D01*
X012250Y009810D01*
X011860Y009420D01*
X011760Y009450D01*
X009610Y009056D02*
X009266Y009056D01*
X008860Y008650D01*
X008466Y008650D01*
X008410Y008706D01*
X006910Y006917D02*
X007066Y006573D01*
X007066Y005850D01*
X007070Y005846D01*
X007070Y005120D01*
X007320Y004870D01*
X007320Y004730D01*
X007670Y004730D02*
X007670Y003800D01*
X008020Y004110D02*
X009170Y002960D01*
X009170Y002390D01*
X009515Y002045D01*
X010315Y002045D01*
X010810Y001550D01*
X009810Y002550D02*
X009810Y003150D01*
X011110Y004450D01*
X011710Y004450D01*
X011910Y004650D01*
X011910Y005500D01*
X012520Y006050D01*
X011460Y006100D02*
X011054Y006100D01*
X011010Y006056D01*
X010110Y005840D02*
X010110Y005350D01*
X010187Y005273D01*
X010187Y004950D01*
X009833Y004950D02*
X009763Y004880D01*
X008110Y004880D01*
X008020Y004790D01*
X008020Y004730D01*
X008020Y004110D01*
X009310Y005450D02*
X009810Y004950D01*
X009740Y005840D02*
X009720Y005840D01*
X009510Y006050D01*
X009110Y006050D01*
X007066Y005850D02*
X007060Y005844D01*
X010810Y011650D02*
X010315Y012145D01*
X009515Y012145D01*
X009170Y012490D01*
X009170Y013060D01*
X008020Y014210D01*
X008020Y014830D01*
X008020Y014890D01*
X008110Y014980D01*
X009763Y014980D01*
X009833Y015050D01*
X009810Y015050D02*
X009310Y015550D01*
X009720Y015940D02*
X009510Y016150D01*
X009110Y016150D01*
X009720Y015940D02*
X009740Y015940D01*
X010110Y015940D02*
X010110Y015450D01*
X010187Y015373D01*
X010187Y015050D01*
X011110Y014550D02*
X011710Y014550D01*
X011910Y014750D01*
X011910Y015600D01*
X012520Y016150D01*
X011460Y016200D02*
X011054Y016200D01*
X011010Y016156D01*
X011110Y014550D02*
X009810Y013250D01*
X009810Y012650D01*
X007670Y013900D02*
X007670Y014830D01*
X007320Y014830D02*
X007320Y014970D01*
X007070Y015220D01*
X007070Y015946D01*
X007066Y015950D01*
X007060Y015944D01*
X007066Y015950D02*
X007066Y016673D01*
X006910Y017017D01*
X008466Y018750D02*
X008410Y018806D01*
X008466Y018750D02*
X008860Y018750D01*
X009266Y019156D01*
X009610Y019156D01*
X011760Y019550D02*
X011860Y019520D01*
X012250Y019910D01*
X013656Y019910D01*
X013720Y019974D01*
X014430Y019974D01*
X014915Y019974D01*
X015038Y019850D01*
X015423Y019506D01*
X015954Y019506D01*
X017410Y018050D01*
X018410Y018050D01*
X019360Y017100D01*
X019360Y015850D01*
X018960Y015450D01*
X018960Y014100D01*
X019110Y013950D01*
X019596Y013950D01*
X019620Y013926D01*
X020600Y013926D01*
X020610Y013916D01*
X021187Y013916D01*
X021331Y014060D01*
X021331Y014560D02*
X020754Y014560D01*
X020610Y014704D01*
X022604Y019506D02*
X022360Y019750D01*
X022604Y019506D02*
X023100Y019506D01*
X019360Y007000D02*
X019360Y005750D01*
X018960Y005350D01*
X018960Y004000D01*
X019110Y003850D01*
X019596Y003850D01*
X019620Y003826D01*
X020600Y003826D01*
X020610Y003816D01*
X021187Y003816D01*
X021331Y003960D01*
X021331Y004460D02*
X020754Y004460D01*
X020610Y004604D01*
D30*
X009310Y005450D03*
X008560Y006050D03*
X006460Y006100D03*
X009310Y015550D03*
X008560Y016150D03*
X006460Y016200D03*
D31*
X021260Y019200D03*
X021260Y009100D03*
D32*
X017510Y005300D03*
X017610Y003500D03*
X008410Y006650D03*
X017610Y013600D03*
X017510Y015400D03*
X008410Y016750D03*
D33*
X008410Y016800D01*
X008460Y016850D01*
X008460Y017420D01*
X008490Y017450D01*
X008160Y017470D02*
X008160Y017850D01*
X008260Y017950D01*
X009160Y017950D01*
X009260Y017850D01*
X009480Y017850D01*
X008840Y017450D02*
X010310Y017450D01*
X010340Y017480D01*
X010926Y016860D02*
X011010Y016944D01*
X010926Y016860D02*
X010480Y016860D01*
X008160Y017470D02*
X008140Y017450D01*
X008260Y007850D02*
X008160Y007750D01*
X008160Y007370D01*
X008140Y007350D01*
X008460Y007320D02*
X008490Y007350D01*
X008460Y007320D02*
X008460Y006750D01*
X008410Y006700D01*
X008410Y006650D01*
X008840Y007350D02*
X010310Y007350D01*
X010340Y007380D01*
X010480Y006760D02*
X010926Y006760D01*
X011010Y006844D01*
X009480Y007750D02*
X009260Y007750D01*
X009160Y007850D01*
X008260Y007850D01*
D34*
X007310Y009750D03*
X011010Y007250D03*
X011460Y006850D03*
X011460Y006100D03*
X010690Y003500D03*
X015010Y007550D03*
X016300Y006870D03*
X016140Y006360D03*
X017610Y006550D03*
X017760Y007000D03*
X017810Y007400D03*
X018460Y008350D03*
X017760Y008450D03*
X017260Y009850D03*
X016360Y009900D03*
X015860Y008850D03*
X014040Y008700D03*
X011510Y009050D03*
X010690Y013600D03*
X011460Y016200D03*
X011460Y016950D03*
X011010Y017350D03*
X011510Y019150D03*
X014040Y018800D03*
X015010Y017650D03*
X016300Y016970D03*
X016140Y016460D03*
X017610Y016650D03*
X017760Y017100D03*
X017810Y017500D03*
X017760Y018550D03*
X018460Y018450D03*
X019760Y017400D03*
X020160Y017850D03*
X020060Y018200D03*
X021260Y018550D03*
X022360Y019750D03*
X023110Y017950D03*
X021910Y017050D03*
X021910Y016550D03*
X021910Y016000D03*
X021910Y015450D03*
X021910Y014950D03*
X022660Y014150D03*
X021960Y013800D03*
X020160Y014550D03*
X019410Y015250D03*
X019810Y015550D03*
X018860Y015950D03*
X018910Y016450D03*
X018060Y016250D03*
X017810Y015800D03*
X016730Y014880D03*
X016670Y014210D03*
X017320Y013940D03*
X016110Y013500D03*
X019710Y009550D03*
X021260Y008450D03*
X020060Y008100D03*
X020160Y007750D03*
X019760Y007300D03*
X018910Y006350D03*
X018860Y005850D03*
X018060Y006150D03*
X017810Y005700D03*
X016730Y004780D03*
X016670Y004110D03*
X017320Y003840D03*
X016110Y003400D03*
X019410Y005150D03*
X019810Y005450D03*
X020160Y004450D03*
X021910Y004850D03*
X021910Y005350D03*
X021910Y005900D03*
X021910Y006450D03*
X021910Y006950D03*
X023110Y007850D03*
X024610Y006450D03*
X023960Y006000D03*
X024610Y005100D03*
X022660Y004050D03*
X021960Y003700D03*
X022360Y009650D03*
X024610Y015200D03*
X023960Y016100D03*
X024610Y016550D03*
X019710Y019650D03*
X017260Y019950D03*
X016360Y020000D03*
X015860Y018950D03*
X007310Y019850D03*
D35*
X007103Y019717D02*
X009169Y019717D01*
X009182Y019684D02*
X009252Y019614D01*
X009344Y019576D01*
X009876Y019576D01*
X009968Y019614D01*
X010027Y019674D01*
X010043Y019674D01*
X010102Y019614D01*
X010194Y019576D01*
X010602Y019576D01*
X011040Y019138D01*
X011040Y018970D01*
X010733Y018970D01*
X010610Y018847D01*
X010610Y018557D01*
X010593Y018540D01*
X009993Y018540D01*
X009870Y018417D01*
X009870Y018127D01*
X009827Y018170D01*
X009336Y018170D01*
X009319Y018187D01*
X009216Y018230D01*
X008204Y018230D01*
X008101Y018187D01*
X008001Y018087D01*
X007923Y018009D01*
X007880Y017906D01*
X007880Y017862D01*
X007805Y017787D01*
X007805Y017113D01*
X007928Y016990D01*
X008180Y016990D01*
X008180Y016966D01*
X008173Y016959D01*
X008172Y016958D01*
X008143Y016928D01*
X008095Y016813D01*
X008095Y016687D01*
X008143Y016572D01*
X008232Y016483D01*
X008347Y016435D01*
X008473Y016435D01*
X008589Y016483D01*
X008677Y016572D01*
X008725Y016687D01*
X008725Y016758D01*
X008740Y016794D01*
X008740Y016990D01*
X009052Y016990D01*
X009175Y017113D01*
X009175Y017170D01*
X009420Y017170D01*
X009420Y016513D01*
X009543Y016390D01*
X009893Y016390D01*
X009790Y016287D01*
X009790Y015593D01*
X009800Y015583D01*
X009800Y015510D01*
X009789Y015510D01*
X009645Y015653D01*
X009645Y015762D01*
X009522Y015885D01*
X009098Y015885D01*
X008975Y015762D01*
X008975Y015338D01*
X009023Y015290D01*
X007439Y015290D01*
X007380Y015348D01*
X007380Y015533D01*
X007454Y015607D01*
X007454Y016293D01*
X007376Y016370D01*
X007376Y016617D01*
X007378Y016622D01*
X007376Y016679D01*
X007376Y016735D01*
X007374Y016740D01*
X007374Y016745D01*
X007351Y016797D01*
X007329Y016849D01*
X007325Y016853D01*
X007317Y016871D01*
X007317Y017380D01*
X007299Y017397D01*
X007568Y017397D01*
X007691Y017520D01*
X007691Y017936D01*
X007960Y018419D01*
X008753Y018419D01*
X008774Y018440D01*
X008922Y018440D01*
X009036Y018487D01*
X009123Y018574D01*
X009339Y018791D01*
X009344Y018789D01*
X009876Y018789D01*
X009968Y018827D01*
X010038Y018897D01*
X010076Y018989D01*
X010076Y019324D01*
X010038Y019416D01*
X009968Y019486D01*
X009876Y019524D01*
X009344Y019524D01*
X009252Y019486D01*
X009233Y019466D01*
X009205Y019466D01*
X009091Y019419D01*
X008809Y019138D01*
X008753Y019194D01*
X007417Y019194D01*
X007360Y019136D01*
X007351Y019136D01*
X007229Y019086D01*
X007081Y018937D01*
X006896Y018937D01*
X006773Y018814D01*
X006773Y018286D01*
X006877Y018182D01*
X006877Y017520D01*
X006895Y017503D01*
X006626Y017503D01*
X006503Y017380D01*
X006503Y016654D01*
X006626Y016531D01*
X006756Y016531D01*
X006756Y016370D01*
X006679Y016293D01*
X006679Y015607D01*
X006760Y015526D01*
X006760Y015158D01*
X006807Y015044D01*
X006894Y014957D01*
X006985Y014867D01*
X006985Y014493D01*
X007108Y014370D01*
X007360Y014370D01*
X007360Y014064D01*
X006681Y013385D01*
X006626Y013385D01*
X006574Y013437D01*
X006046Y013437D01*
X005923Y013314D01*
X005820Y013314D01*
X005820Y013216D02*
X005923Y013216D01*
X005923Y013314D02*
X005923Y012786D01*
X006046Y012663D01*
X006574Y012663D01*
X006626Y012715D01*
X006887Y012715D01*
X007010Y012766D01*
X007954Y013710D01*
X007991Y013800D01*
X008860Y012932D01*
X008860Y012428D01*
X008907Y012314D01*
X009252Y011969D01*
X009330Y011891D01*
X009300Y011861D01*
X009300Y011439D01*
X009599Y011140D01*
X010021Y011140D01*
X010310Y011429D01*
X010599Y011140D01*
X011021Y011140D01*
X011310Y011429D01*
X011599Y011140D01*
X012021Y011140D01*
X012310Y011429D01*
X012599Y011140D01*
X013021Y011140D01*
X013310Y011429D01*
X013599Y011140D01*
X014021Y011140D01*
X014310Y011429D01*
X014599Y011140D01*
X015021Y011140D01*
X015310Y011429D01*
X015599Y011140D01*
X016021Y011140D01*
X016310Y011429D01*
X016599Y011140D01*
X017021Y011140D01*
X017310Y011429D01*
X017599Y011140D01*
X018021Y011140D01*
X018310Y011429D01*
X018599Y011140D01*
X019021Y011140D01*
X019320Y011439D01*
X019320Y011861D01*
X019312Y011870D01*
X019322Y011880D01*
X019326Y011880D01*
X019320Y011874D01*
X019320Y011426D01*
X019636Y011110D01*
X020084Y011110D01*
X020360Y011386D01*
X020636Y011110D01*
X021084Y011110D01*
X021360Y011386D01*
X021636Y011110D01*
X022084Y011110D01*
X022375Y011401D01*
X022666Y011110D01*
X008772Y011110D01*
X008889Y011158D01*
X009052Y011321D01*
X009140Y011535D01*
X009140Y011765D01*
X009052Y011979D01*
X008889Y012142D01*
X008675Y012230D01*
X008445Y012230D01*
X008232Y012142D01*
X008068Y011979D01*
X007980Y011765D01*
X007980Y011535D01*
X008068Y011321D01*
X008232Y011158D01*
X008348Y011110D01*
X006110Y011110D01*
X006036Y011102D01*
X005962Y011108D01*
X005889Y011126D01*
X005821Y011157D01*
X005820Y011158D01*
X005820Y019820D01*
X005826Y019877D01*
X005869Y019981D01*
X005949Y020061D01*
X006054Y020105D01*
X006110Y020110D01*
X006368Y020110D01*
X006144Y020017D01*
X005963Y019836D01*
X005865Y019600D01*
X005865Y019344D01*
X005963Y019108D01*
X006144Y018927D01*
X006380Y018829D01*
X006636Y018829D01*
X006872Y018927D01*
X007053Y019108D01*
X007151Y019344D01*
X007151Y019600D01*
X007053Y019836D01*
X006872Y020017D01*
X006648Y020110D01*
X009144Y020110D01*
X009144Y019776D01*
X009182Y019684D01*
X009248Y019618D02*
X007144Y019618D01*
X007151Y019520D02*
X009334Y019520D01*
X009095Y019421D02*
X007151Y019421D01*
X007142Y019323D02*
X008994Y019323D01*
X008896Y019224D02*
X007101Y019224D01*
X007061Y019126D02*
X007325Y019126D01*
X007170Y019027D02*
X006973Y019027D01*
X006887Y018929D02*
X006874Y018929D01*
X006789Y018830D02*
X006639Y018830D01*
X006773Y018732D02*
X005820Y018732D01*
X005820Y018830D02*
X006378Y018830D01*
X006142Y018929D02*
X005820Y018929D01*
X005820Y019027D02*
X006044Y019027D01*
X005956Y019126D02*
X005820Y019126D01*
X005820Y019224D02*
X005915Y019224D01*
X005874Y019323D02*
X005820Y019323D01*
X005820Y019421D02*
X005865Y019421D01*
X005865Y019520D02*
X005820Y019520D01*
X005820Y019618D02*
X005873Y019618D01*
X005913Y019717D02*
X005820Y019717D01*
X005820Y019815D02*
X005954Y019815D01*
X006040Y019914D02*
X005841Y019914D01*
X005869Y019981D02*
X005869Y019981D01*
X005900Y020012D02*
X006139Y020012D01*
X006878Y020012D02*
X009144Y020012D01*
X009144Y019914D02*
X006976Y019914D01*
X007062Y019815D02*
X009144Y019815D01*
X009887Y019520D02*
X010659Y019520D01*
X010757Y019421D02*
X010033Y019421D01*
X010076Y019323D02*
X010856Y019323D01*
X010954Y019224D02*
X010076Y019224D01*
X010076Y019126D02*
X011040Y019126D01*
X011040Y019027D02*
X010076Y019027D01*
X010051Y018929D02*
X010692Y018929D01*
X010610Y018830D02*
X009971Y018830D01*
X009988Y018535D02*
X009083Y018535D01*
X009182Y018633D02*
X010610Y018633D01*
X010610Y018732D02*
X009280Y018732D01*
X008770Y018436D02*
X009889Y018436D01*
X009870Y018338D02*
X007914Y018338D01*
X007860Y018239D02*
X009870Y018239D01*
X009857Y018141D02*
X009870Y018141D01*
X009420Y017156D02*
X009175Y017156D01*
X009119Y017057D02*
X009420Y017057D01*
X009420Y016959D02*
X008740Y016959D01*
X008740Y016860D02*
X009420Y016860D01*
X009420Y016762D02*
X008727Y016762D01*
X008715Y016663D02*
X009420Y016663D01*
X009420Y016565D02*
X008670Y016565D01*
X008548Y016466D02*
X009467Y016466D01*
X009790Y016269D02*
X007454Y016269D01*
X007454Y016171D02*
X009790Y016171D01*
X009790Y016072D02*
X007454Y016072D01*
X007454Y015974D02*
X009790Y015974D01*
X009790Y015875D02*
X009532Y015875D01*
X009631Y015777D02*
X009790Y015777D01*
X009790Y015678D02*
X009645Y015678D01*
X009719Y015580D02*
X009800Y015580D01*
X009088Y015875D02*
X007454Y015875D01*
X007454Y015777D02*
X008990Y015777D01*
X008975Y015678D02*
X007454Y015678D01*
X007426Y015580D02*
X008975Y015580D01*
X008975Y015481D02*
X007380Y015481D01*
X007380Y015383D02*
X008975Y015383D01*
X009871Y016368D02*
X007379Y016368D01*
X007376Y016466D02*
X008273Y016466D01*
X008150Y016565D02*
X007376Y016565D01*
X007377Y016663D02*
X008105Y016663D01*
X008095Y016762D02*
X007367Y016762D01*
X007322Y016860D02*
X008115Y016860D01*
X008173Y016959D02*
X007317Y016959D01*
X007317Y017057D02*
X007861Y017057D01*
X007805Y017156D02*
X007317Y017156D01*
X007317Y017254D02*
X007805Y017254D01*
X007805Y017353D02*
X007317Y017353D01*
X007621Y017451D02*
X007805Y017451D01*
X007805Y017550D02*
X007691Y017550D01*
X007691Y017648D02*
X007805Y017648D01*
X007805Y017747D02*
X007691Y017747D01*
X007691Y017845D02*
X007863Y017845D01*
X007896Y017944D02*
X007695Y017944D01*
X007750Y018042D02*
X007956Y018042D01*
X008055Y018141D02*
X007805Y018141D01*
X006877Y018141D02*
X005820Y018141D01*
X005820Y018239D02*
X006820Y018239D01*
X006773Y018338D02*
X005820Y018338D01*
X005820Y018436D02*
X006773Y018436D01*
X006773Y018535D02*
X005820Y018535D01*
X005820Y018633D02*
X006773Y018633D01*
X006877Y018042D02*
X005820Y018042D01*
X005820Y017944D02*
X006877Y017944D01*
X006877Y017845D02*
X005820Y017845D01*
X005820Y017747D02*
X006877Y017747D01*
X006877Y017648D02*
X005820Y017648D01*
X005820Y017550D02*
X006877Y017550D01*
X006575Y017451D02*
X005820Y017451D01*
X005820Y017353D02*
X006503Y017353D01*
X006503Y017254D02*
X005820Y017254D01*
X005820Y017156D02*
X006503Y017156D01*
X006503Y017057D02*
X005820Y017057D01*
X005820Y016959D02*
X006503Y016959D01*
X006503Y016860D02*
X005820Y016860D01*
X005820Y016762D02*
X006503Y016762D01*
X006503Y016663D02*
X005820Y016663D01*
X005820Y016565D02*
X006593Y016565D01*
X006756Y016466D02*
X005820Y016466D01*
X005820Y016368D02*
X006754Y016368D01*
X006679Y016269D02*
X005820Y016269D01*
X005820Y016171D02*
X006679Y016171D01*
X006679Y016072D02*
X005820Y016072D01*
X005820Y015974D02*
X006679Y015974D01*
X006679Y015875D02*
X005820Y015875D01*
X005820Y015777D02*
X006679Y015777D01*
X006679Y015678D02*
X005820Y015678D01*
X005820Y015580D02*
X006707Y015580D01*
X006760Y015481D02*
X005820Y015481D01*
X005820Y015383D02*
X006760Y015383D01*
X006760Y015284D02*
X005820Y015284D01*
X005820Y015186D02*
X006760Y015186D01*
X006790Y015087D02*
X005820Y015087D01*
X005820Y014989D02*
X006863Y014989D01*
X006962Y014890D02*
X005820Y014890D01*
X005820Y014792D02*
X006985Y014792D01*
X006985Y014693D02*
X005820Y014693D01*
X005820Y014595D02*
X006985Y014595D01*
X006985Y014496D02*
X005820Y014496D01*
X005820Y014398D02*
X007081Y014398D01*
X007360Y014299D02*
X005820Y014299D01*
X005820Y014201D02*
X007360Y014201D01*
X007360Y014102D02*
X005820Y014102D01*
X005820Y014004D02*
X007300Y014004D01*
X007201Y013905D02*
X005820Y013905D01*
X005820Y013807D02*
X007103Y013807D01*
X007004Y013708D02*
X005820Y013708D01*
X005820Y013610D02*
X006906Y013610D01*
X006807Y013511D02*
X005820Y013511D01*
X005820Y013413D02*
X006021Y013413D01*
X005923Y013117D02*
X005820Y013117D01*
X005820Y013019D02*
X005923Y013019D01*
X005923Y012920D02*
X005820Y012920D01*
X005820Y012822D02*
X005923Y012822D01*
X005986Y012723D02*
X005820Y012723D01*
X005820Y012625D02*
X008860Y012625D01*
X008860Y012723D02*
X006906Y012723D01*
X007065Y012822D02*
X008860Y012822D01*
X008860Y012920D02*
X007164Y012920D01*
X007262Y013019D02*
X008773Y013019D01*
X008675Y013117D02*
X007361Y013117D01*
X007459Y013216D02*
X008576Y013216D01*
X008478Y013314D02*
X007558Y013314D01*
X007656Y013413D02*
X008379Y013413D01*
X008281Y013511D02*
X007755Y013511D01*
X007853Y013610D02*
X008182Y013610D01*
X008084Y013708D02*
X007952Y013708D01*
X006709Y013413D02*
X006599Y013413D01*
X006636Y012441D02*
X006380Y012441D01*
X006144Y012343D01*
X005963Y012162D01*
X005865Y011926D01*
X005865Y011670D01*
X005963Y011434D01*
X006144Y011253D01*
X006380Y011155D01*
X006636Y011155D01*
X006872Y011253D01*
X007053Y011434D01*
X007151Y011670D01*
X007151Y011926D01*
X007053Y012162D01*
X006872Y012343D01*
X006636Y012441D01*
X006669Y012428D02*
X008860Y012428D01*
X008860Y012526D02*
X005820Y012526D01*
X005820Y012428D02*
X006347Y012428D01*
X006130Y012329D02*
X005820Y012329D01*
X005820Y012231D02*
X006031Y012231D01*
X005950Y012132D02*
X005820Y012132D01*
X005820Y012034D02*
X005910Y012034D01*
X005869Y011935D02*
X005820Y011935D01*
X005820Y011837D02*
X005865Y011837D01*
X005865Y011738D02*
X005820Y011738D01*
X005820Y011640D02*
X005878Y011640D01*
X005919Y011541D02*
X005820Y011541D01*
X005820Y011443D02*
X005959Y011443D01*
X006053Y011344D02*
X005820Y011344D01*
X005820Y011246D02*
X006162Y011246D01*
X005843Y011147D02*
X008259Y011147D01*
X008144Y011246D02*
X006855Y011246D01*
X006964Y011344D02*
X008059Y011344D01*
X008018Y011443D02*
X007057Y011443D01*
X007098Y011541D02*
X007980Y011541D01*
X007980Y011640D02*
X007139Y011640D01*
X007151Y011738D02*
X007980Y011738D01*
X008010Y011837D02*
X007151Y011837D01*
X007147Y011935D02*
X008050Y011935D01*
X008123Y012034D02*
X007107Y012034D01*
X007066Y012132D02*
X008222Y012132D01*
X008898Y012132D02*
X009090Y012132D01*
X008997Y012034D02*
X009188Y012034D01*
X009287Y011935D02*
X009070Y011935D01*
X009111Y011837D02*
X009300Y011837D01*
X009300Y011738D02*
X009140Y011738D01*
X009140Y011640D02*
X009300Y011640D01*
X009300Y011541D02*
X009140Y011541D01*
X009102Y011443D02*
X009300Y011443D01*
X009395Y011344D02*
X009061Y011344D01*
X008976Y011246D02*
X009493Y011246D01*
X009592Y011147D02*
X008861Y011147D01*
X009156Y010040D02*
X009144Y010011D01*
X009144Y009676D01*
X009182Y009584D01*
X009252Y009514D01*
X009344Y009476D01*
X009876Y009476D01*
X009968Y009514D01*
X010027Y009574D01*
X010043Y009574D01*
X010102Y009514D01*
X010194Y009476D01*
X010602Y009476D01*
X011040Y009038D01*
X011040Y008870D01*
X010733Y008870D01*
X010610Y008747D01*
X010610Y008457D01*
X010593Y008440D01*
X009993Y008440D01*
X009870Y008317D01*
X009870Y008027D01*
X009827Y008070D01*
X009336Y008070D01*
X009319Y008087D01*
X009216Y008130D01*
X008204Y008130D01*
X008101Y008087D01*
X008001Y007987D01*
X007923Y007909D01*
X007880Y007806D01*
X007880Y007762D01*
X007805Y007687D01*
X007805Y007013D01*
X007928Y006890D01*
X008180Y006890D01*
X008180Y006866D01*
X008173Y006859D01*
X008172Y006858D01*
X008143Y006828D01*
X008095Y006713D01*
X008095Y006587D01*
X008143Y006472D01*
X008232Y006383D01*
X008347Y006335D01*
X008473Y006335D01*
X008589Y006383D01*
X008677Y006472D01*
X008725Y006587D01*
X008725Y006658D01*
X008740Y006694D01*
X008740Y006890D01*
X009052Y006890D01*
X009175Y007013D01*
X009175Y007070D01*
X009420Y007070D01*
X009420Y006413D01*
X009543Y006290D01*
X009893Y006290D01*
X009790Y006187D01*
X009790Y005493D01*
X009800Y005483D01*
X009800Y005410D01*
X009789Y005410D01*
X009645Y005553D01*
X009645Y005662D01*
X009522Y005785D01*
X009098Y005785D01*
X008975Y005662D01*
X008975Y005238D01*
X009023Y005190D01*
X007439Y005190D01*
X007380Y005248D01*
X007380Y005433D01*
X007454Y005507D01*
X007454Y006193D01*
X007376Y006270D01*
X007376Y006517D01*
X007378Y006522D01*
X007376Y006579D01*
X007376Y006635D01*
X007374Y006640D01*
X007374Y006645D01*
X007351Y006697D01*
X007329Y006749D01*
X007325Y006753D01*
X007317Y006771D01*
X007317Y007280D01*
X007299Y007297D01*
X007568Y007297D01*
X007691Y007420D01*
X007691Y007836D01*
X007960Y008319D01*
X008753Y008319D01*
X008774Y008340D01*
X008922Y008340D01*
X009036Y008387D01*
X009123Y008474D01*
X009339Y008691D01*
X009344Y008689D01*
X009876Y008689D01*
X009968Y008727D01*
X010038Y008797D01*
X010076Y008889D01*
X010076Y009224D01*
X010038Y009316D01*
X009968Y009386D01*
X009876Y009424D01*
X009344Y009424D01*
X009252Y009386D01*
X009233Y009366D01*
X009205Y009366D01*
X009091Y009319D01*
X008809Y009038D01*
X008753Y009094D01*
X007417Y009094D01*
X007360Y009036D01*
X007351Y009036D01*
X007229Y008986D01*
X007081Y008837D01*
X006896Y008837D01*
X006773Y008714D01*
X006773Y008186D01*
X006877Y008082D01*
X006877Y007420D01*
X006895Y007403D01*
X006626Y007403D01*
X006503Y007280D01*
X006503Y006554D01*
X006626Y006431D01*
X006756Y006431D01*
X006756Y006270D01*
X006679Y006193D01*
X006679Y005507D01*
X006760Y005426D01*
X006760Y005058D01*
X006807Y004944D01*
X006894Y004857D01*
X006985Y004767D01*
X006985Y004393D01*
X007108Y004270D01*
X007360Y004270D01*
X007360Y003964D01*
X006681Y003285D01*
X006626Y003285D01*
X006574Y003337D01*
X006046Y003337D01*
X005923Y003214D01*
X005923Y002686D01*
X006046Y002563D01*
X006574Y002563D01*
X006626Y002615D01*
X006887Y002615D01*
X007010Y002666D01*
X007954Y003610D01*
X007991Y003700D01*
X008860Y002832D01*
X008860Y002328D01*
X008907Y002214D01*
X009330Y001791D01*
X009300Y001761D01*
X009300Y001339D01*
X009579Y001060D01*
X008890Y001060D01*
X009052Y001221D01*
X009140Y001435D01*
X009140Y001665D01*
X009052Y001879D01*
X008889Y002042D01*
X008675Y002130D01*
X008445Y002130D01*
X008232Y002042D01*
X008068Y001879D01*
X007980Y001665D01*
X007980Y001435D01*
X008068Y001221D01*
X008230Y001060D01*
X006648Y001060D01*
X006872Y001153D01*
X007053Y001334D01*
X007151Y001570D01*
X007151Y001826D01*
X007053Y002062D01*
X006872Y002243D01*
X006636Y002341D01*
X006380Y002341D01*
X006144Y002243D01*
X005963Y002062D01*
X005865Y001826D01*
X005865Y001570D01*
X005963Y001334D01*
X006144Y001153D01*
X006368Y001060D01*
X006110Y001060D01*
X006054Y001066D01*
X005949Y001109D01*
X005869Y001189D01*
X005826Y001293D01*
X005820Y001350D01*
X005820Y009945D01*
X005860Y009973D01*
X005939Y010010D01*
X006023Y010032D01*
X006110Y010040D01*
X009156Y010040D01*
X009144Y009965D02*
X006757Y009965D01*
X006872Y009917D02*
X006636Y010015D01*
X006380Y010015D01*
X006144Y009917D01*
X005963Y009736D01*
X005865Y009500D01*
X005865Y009244D01*
X005963Y009008D01*
X006144Y008827D01*
X006380Y008729D01*
X006636Y008729D01*
X006872Y008827D01*
X007053Y009008D01*
X007151Y009244D01*
X007151Y009500D01*
X007053Y009736D01*
X006872Y009917D01*
X006923Y009866D02*
X009144Y009866D01*
X009144Y009768D02*
X007022Y009768D01*
X007081Y009669D02*
X009147Y009669D01*
X009195Y009571D02*
X007122Y009571D01*
X007151Y009472D02*
X010606Y009472D01*
X010704Y009374D02*
X009980Y009374D01*
X010055Y009275D02*
X010803Y009275D01*
X010901Y009177D02*
X010076Y009177D01*
X010076Y009078D02*
X011000Y009078D01*
X011040Y008980D02*
X010076Y008980D01*
X010073Y008881D02*
X011040Y008881D01*
X010646Y008783D02*
X010024Y008783D01*
X009942Y008389D02*
X009037Y008389D01*
X009136Y008487D02*
X010610Y008487D01*
X010610Y008586D02*
X009234Y008586D01*
X009333Y008684D02*
X010610Y008684D01*
X009870Y008290D02*
X007944Y008290D01*
X007889Y008192D02*
X009870Y008192D01*
X009870Y008093D02*
X009304Y008093D01*
X008850Y009078D02*
X008768Y009078D01*
X008949Y009177D02*
X007123Y009177D01*
X007151Y009275D02*
X009047Y009275D01*
X009240Y009374D02*
X007151Y009374D01*
X007083Y009078D02*
X007402Y009078D01*
X007223Y008980D02*
X007026Y008980D01*
X006927Y008881D02*
X007125Y008881D01*
X006842Y008783D02*
X006766Y008783D01*
X006773Y008684D02*
X005820Y008684D01*
X005820Y008586D02*
X006773Y008586D01*
X006773Y008487D02*
X005820Y008487D01*
X005820Y008389D02*
X006773Y008389D01*
X006773Y008290D02*
X005820Y008290D01*
X005820Y008192D02*
X006773Y008192D01*
X006865Y008093D02*
X005820Y008093D01*
X005820Y007995D02*
X006877Y007995D01*
X006877Y007896D02*
X005820Y007896D01*
X005820Y007798D02*
X006877Y007798D01*
X006877Y007699D02*
X005820Y007699D01*
X005820Y007601D02*
X006877Y007601D01*
X006877Y007502D02*
X005820Y007502D01*
X005820Y007404D02*
X006894Y007404D01*
X007317Y007207D02*
X007805Y007207D01*
X007805Y007305D02*
X007576Y007305D01*
X007674Y007404D02*
X007805Y007404D01*
X007805Y007502D02*
X007691Y007502D01*
X007691Y007601D02*
X007805Y007601D01*
X007818Y007699D02*
X007691Y007699D01*
X007691Y007798D02*
X007880Y007798D01*
X007918Y007896D02*
X007725Y007896D01*
X007780Y007995D02*
X008009Y007995D01*
X008001Y007987D02*
X008001Y007987D01*
X008116Y008093D02*
X007834Y008093D01*
X007805Y007108D02*
X007317Y007108D01*
X007317Y007010D02*
X007808Y007010D01*
X007907Y006911D02*
X007317Y006911D01*
X007317Y006813D02*
X008137Y006813D01*
X008096Y006714D02*
X007343Y006714D01*
X007376Y006616D02*
X008095Y006616D01*
X008124Y006517D02*
X007377Y006517D01*
X007376Y006419D02*
X008196Y006419D01*
X008625Y006419D02*
X009420Y006419D01*
X009420Y006517D02*
X008696Y006517D01*
X008725Y006616D02*
X009420Y006616D01*
X009420Y006714D02*
X008740Y006714D01*
X008740Y006813D02*
X009420Y006813D01*
X009420Y006911D02*
X009074Y006911D01*
X009172Y007010D02*
X009420Y007010D01*
X009513Y006320D02*
X007376Y006320D01*
X007425Y006222D02*
X009825Y006222D01*
X009790Y006123D02*
X007454Y006123D01*
X007454Y006025D02*
X009790Y006025D01*
X009790Y005926D02*
X007454Y005926D01*
X007454Y005828D02*
X009790Y005828D01*
X009790Y005729D02*
X009578Y005729D01*
X009645Y005631D02*
X009790Y005631D01*
X009790Y005532D02*
X009666Y005532D01*
X009765Y005434D02*
X009800Y005434D01*
X009043Y005729D02*
X007454Y005729D01*
X007454Y005631D02*
X008975Y005631D01*
X008975Y005532D02*
X007454Y005532D01*
X007381Y005434D02*
X008975Y005434D01*
X008975Y005335D02*
X007380Y005335D01*
X007392Y005237D02*
X008976Y005237D01*
X007360Y004252D02*
X005820Y004252D01*
X005820Y004350D02*
X007028Y004350D01*
X006985Y004449D02*
X005820Y004449D01*
X005820Y004547D02*
X006985Y004547D01*
X006985Y004646D02*
X005820Y004646D01*
X005820Y004744D02*
X006985Y004744D01*
X006909Y004843D02*
X005820Y004843D01*
X005820Y004941D02*
X006810Y004941D01*
X006768Y005040D02*
X005820Y005040D01*
X005820Y005138D02*
X006760Y005138D01*
X006760Y005237D02*
X005820Y005237D01*
X005820Y005335D02*
X006760Y005335D01*
X006752Y005434D02*
X005820Y005434D01*
X005820Y005532D02*
X006679Y005532D01*
X006679Y005631D02*
X005820Y005631D01*
X005820Y005729D02*
X006679Y005729D01*
X006679Y005828D02*
X005820Y005828D01*
X005820Y005926D02*
X006679Y005926D01*
X006679Y006025D02*
X005820Y006025D01*
X005820Y006123D02*
X006679Y006123D01*
X006708Y006222D02*
X005820Y006222D01*
X005820Y006320D02*
X006756Y006320D01*
X006756Y006419D02*
X005820Y006419D01*
X005820Y006517D02*
X006540Y006517D01*
X006503Y006616D02*
X005820Y006616D01*
X005820Y006714D02*
X006503Y006714D01*
X006503Y006813D02*
X005820Y006813D01*
X005820Y006911D02*
X006503Y006911D01*
X006503Y007010D02*
X005820Y007010D01*
X005820Y007108D02*
X006503Y007108D01*
X006503Y007207D02*
X005820Y007207D01*
X005820Y007305D02*
X006529Y007305D01*
X006250Y008783D02*
X005820Y008783D01*
X005820Y008881D02*
X006089Y008881D01*
X005991Y008980D02*
X005820Y008980D01*
X005820Y009078D02*
X005934Y009078D01*
X005893Y009177D02*
X005820Y009177D01*
X005820Y009275D02*
X005865Y009275D01*
X005865Y009374D02*
X005820Y009374D01*
X005820Y009472D02*
X005865Y009472D01*
X005894Y009571D02*
X005820Y009571D01*
X005820Y009669D02*
X005935Y009669D01*
X005995Y009768D02*
X005820Y009768D01*
X005820Y009866D02*
X006093Y009866D01*
X006259Y009965D02*
X005849Y009965D01*
X006985Y012231D02*
X008991Y012231D01*
X008901Y012329D02*
X006887Y012329D01*
X010120Y013061D02*
X010120Y013122D01*
X011239Y014240D01*
X011772Y014240D01*
X011886Y014287D01*
X012086Y014487D01*
X012173Y014574D01*
X012220Y014688D01*
X012220Y015462D01*
X012395Y015620D01*
X012740Y015620D01*
X013020Y015900D01*
X013301Y015620D01*
X013740Y015620D01*
X013740Y015620D01*
X013740Y014670D01*
X013730Y014680D01*
X013291Y014680D01*
X013010Y014400D01*
X012730Y014680D01*
X012291Y014680D01*
X011980Y014370D01*
X011980Y013930D01*
X012291Y013620D01*
X012730Y013620D01*
X013010Y013900D01*
X013291Y013620D01*
X013730Y013620D01*
X013740Y013630D01*
X013740Y013160D01*
X013599Y013160D01*
X013310Y012871D01*
X013021Y013160D01*
X012599Y013160D01*
X012310Y012871D01*
X012021Y013160D01*
X011599Y013160D01*
X011300Y012861D01*
X011300Y012439D01*
X011589Y012150D01*
X011310Y011871D01*
X011021Y012160D01*
X010739Y012160D01*
X010491Y012408D01*
X010377Y012455D01*
X010320Y012455D01*
X010320Y012861D01*
X010120Y013061D01*
X010120Y013117D02*
X011556Y013117D01*
X011457Y013019D02*
X010163Y013019D01*
X010261Y012920D02*
X011359Y012920D01*
X011300Y012822D02*
X010320Y012822D01*
X010320Y012723D02*
X011300Y012723D01*
X011300Y012625D02*
X010320Y012625D01*
X010320Y012526D02*
X011300Y012526D01*
X011311Y012428D02*
X010443Y012428D01*
X010570Y012329D02*
X011410Y012329D01*
X011508Y012231D02*
X010668Y012231D01*
X011049Y012132D02*
X011571Y012132D01*
X011472Y012034D02*
X011148Y012034D01*
X011246Y011935D02*
X011374Y011935D01*
X011395Y011344D02*
X011225Y011344D01*
X011127Y011246D02*
X011493Y011246D01*
X011592Y011147D02*
X011028Y011147D01*
X010592Y011147D02*
X010028Y011147D01*
X010127Y011246D02*
X010493Y011246D01*
X010395Y011344D02*
X010225Y011344D01*
X010045Y009571D02*
X010025Y009571D01*
X011845Y009063D02*
X012024Y009063D01*
X012147Y009186D01*
X012147Y009269D01*
X012379Y009500D01*
X013363Y009500D01*
X013377Y009486D01*
X014063Y009486D01*
X014075Y009498D01*
X014087Y009486D01*
X014773Y009486D01*
X014818Y009531D01*
X014819Y009531D01*
X014819Y009069D01*
X014942Y008946D01*
X015903Y008946D01*
X015940Y008982D01*
X017147Y007774D01*
X017234Y007687D01*
X017348Y007640D01*
X017576Y007640D01*
X017526Y007590D01*
X017475Y007467D01*
X017475Y007333D01*
X017517Y007231D01*
X017476Y007190D01*
X017425Y007067D01*
X017425Y006933D01*
X017460Y006850D01*
X017420Y006834D01*
X017380Y006794D01*
X017380Y007254D01*
X017339Y007353D01*
X017263Y007429D01*
X016913Y007779D01*
X016814Y007820D01*
X015214Y007820D01*
X015200Y007834D01*
X015077Y007885D01*
X015050Y007885D01*
X015050Y008270D01*
X014740Y008580D01*
X014353Y008580D01*
X014375Y008633D01*
X014375Y008767D01*
X014324Y008890D01*
X014230Y008984D01*
X014107Y009035D01*
X013973Y009035D01*
X013850Y008984D01*
X013756Y008890D01*
X013705Y008767D01*
X013705Y008633D01*
X013727Y008580D01*
X013301Y008580D01*
X013020Y008300D01*
X012740Y008580D01*
X012301Y008580D01*
X011990Y008270D01*
X011990Y008102D01*
X011980Y008112D01*
X011980Y008747D01*
X011857Y008870D01*
X011798Y008870D01*
X011845Y008983D01*
X011845Y009063D01*
X011844Y008980D02*
X013846Y008980D01*
X013753Y008881D02*
X011803Y008881D01*
X011944Y008783D02*
X013712Y008783D01*
X013705Y008684D02*
X011980Y008684D01*
X011980Y008586D02*
X013725Y008586D01*
X013208Y008487D02*
X012832Y008487D01*
X012931Y008389D02*
X013110Y008389D01*
X012208Y008487D02*
X011980Y008487D01*
X011980Y008389D02*
X012110Y008389D01*
X012011Y008290D02*
X011980Y008290D01*
X011980Y008192D02*
X011990Y008192D01*
X012040Y009078D02*
X014819Y009078D01*
X014819Y009177D02*
X012138Y009177D01*
X012154Y009275D02*
X014819Y009275D01*
X014819Y009374D02*
X012253Y009374D01*
X012351Y009472D02*
X014819Y009472D01*
X014908Y008980D02*
X014234Y008980D01*
X014328Y008881D02*
X016040Y008881D01*
X016139Y008783D02*
X014368Y008783D01*
X014375Y008684D02*
X016237Y008684D01*
X016336Y008586D02*
X014355Y008586D01*
X014832Y008487D02*
X016434Y008487D01*
X016533Y008389D02*
X014931Y008389D01*
X015029Y008290D02*
X016631Y008290D01*
X016730Y008192D02*
X015050Y008192D01*
X015050Y008093D02*
X016828Y008093D01*
X016927Y007995D02*
X015050Y007995D01*
X015050Y007896D02*
X017025Y007896D01*
X017124Y007798D02*
X016867Y007798D01*
X016992Y007699D02*
X017222Y007699D01*
X017147Y007774D02*
X017147Y007774D01*
X017091Y007601D02*
X017537Y007601D01*
X017490Y007502D02*
X017189Y007502D01*
X017263Y007429D02*
X017263Y007429D01*
X017288Y007404D02*
X017475Y007404D01*
X017487Y007305D02*
X017359Y007305D01*
X017380Y007207D02*
X017493Y007207D01*
X017442Y007108D02*
X017380Y007108D01*
X017380Y007010D02*
X017425Y007010D01*
X017434Y006911D02*
X017380Y006911D01*
X017380Y006813D02*
X017399Y006813D01*
X016840Y006813D02*
X016635Y006813D01*
X016635Y006803D02*
X016635Y006937D01*
X016584Y007060D01*
X016490Y007154D01*
X016367Y007205D01*
X016233Y007205D01*
X016110Y007154D01*
X016016Y007060D01*
X015965Y006937D01*
X015965Y006917D01*
X015603Y007279D01*
X015600Y007280D01*
X016648Y007280D01*
X016840Y007088D01*
X016840Y006346D01*
X016881Y006247D01*
X016957Y006171D01*
X017475Y005653D01*
X017475Y005633D01*
X017483Y005615D01*
X017447Y005615D01*
X017332Y005567D01*
X017243Y005478D01*
X017195Y005363D01*
X017195Y005237D01*
X014280Y005237D01*
X014280Y005335D02*
X017195Y005335D01*
X017195Y005237D02*
X017240Y005129D01*
X017240Y004396D01*
X017281Y004297D01*
X017415Y004163D01*
X017387Y004175D01*
X017253Y004175D01*
X017130Y004124D01*
X017036Y004030D01*
X016985Y003907D01*
X016985Y003773D01*
X017036Y003650D01*
X017130Y003556D01*
X017253Y003505D01*
X017295Y003505D01*
X017295Y003437D01*
X017314Y003391D01*
X017237Y003359D01*
X016938Y003060D01*
X016599Y003060D01*
X016590Y003051D01*
X016590Y003244D01*
X016549Y003343D01*
X016445Y003447D01*
X016445Y003467D01*
X016394Y003590D01*
X016300Y003684D01*
X016177Y003735D01*
X016043Y003735D01*
X015920Y003684D01*
X015826Y003590D01*
X015775Y003467D01*
X015775Y003333D01*
X015826Y003210D01*
X015920Y003116D01*
X016043Y003065D01*
X016050Y003065D01*
X016050Y003031D01*
X016021Y003060D01*
X015599Y003060D01*
X015310Y002771D01*
X015021Y003060D01*
X014599Y003060D01*
X014310Y002771D01*
X014267Y002814D01*
X014280Y002846D01*
X014280Y003530D01*
X014291Y003520D01*
X014730Y003520D01*
X015040Y003830D01*
X015040Y004221D01*
X015903Y004221D01*
X016026Y004345D01*
X016026Y004510D01*
X016526Y004510D01*
X016540Y004496D01*
X016663Y004445D01*
X016797Y004445D01*
X016920Y004496D01*
X017014Y004590D01*
X017065Y004713D01*
X017065Y004847D01*
X017014Y004970D01*
X016920Y005064D01*
X016797Y005115D01*
X016663Y005115D01*
X016540Y005064D01*
X016526Y005050D01*
X015995Y005050D01*
X015903Y005141D01*
X014942Y005141D01*
X014819Y005018D01*
X014819Y004491D01*
X014730Y004580D01*
X014291Y004580D01*
X014280Y004570D01*
X014280Y005540D01*
X014301Y005520D01*
X014740Y005520D01*
X015050Y005830D01*
X015050Y006270D01*
X014770Y006550D01*
X015000Y006780D01*
X015338Y006780D01*
X015805Y006313D01*
X015805Y006293D01*
X015856Y006170D01*
X015950Y006076D01*
X016073Y006025D01*
X016207Y006025D01*
X016330Y006076D01*
X016424Y006170D01*
X016475Y006293D01*
X016475Y006427D01*
X016424Y006550D01*
X016418Y006556D01*
X016490Y006586D01*
X016584Y006680D01*
X016635Y006803D01*
X016598Y006714D02*
X016840Y006714D01*
X016840Y006616D02*
X016520Y006616D01*
X016437Y006517D02*
X016840Y006517D01*
X016840Y006419D02*
X016475Y006419D01*
X016475Y006320D02*
X016851Y006320D01*
X016906Y006222D02*
X016446Y006222D01*
X016377Y006123D02*
X017005Y006123D01*
X017103Y006025D02*
X015050Y006025D01*
X015050Y006123D02*
X015903Y006123D01*
X015835Y006222D02*
X015050Y006222D01*
X014999Y006320D02*
X015798Y006320D01*
X015699Y006419D02*
X014901Y006419D01*
X014802Y006517D02*
X015601Y006517D01*
X015502Y006616D02*
X014836Y006616D01*
X014934Y006714D02*
X015404Y006714D01*
X015773Y007108D02*
X016065Y007108D01*
X015995Y007010D02*
X015872Y007010D01*
X015675Y007207D02*
X016721Y007207D01*
X016820Y007108D02*
X016535Y007108D01*
X016605Y007010D02*
X016840Y007010D01*
X016840Y006911D02*
X016635Y006911D01*
X017677Y006215D02*
X017800Y006266D01*
X017894Y006360D01*
X017945Y006483D01*
X017945Y006617D01*
X017911Y006700D01*
X017950Y006716D01*
X018044Y006810D01*
X018095Y006933D01*
X018095Y007067D01*
X018053Y007169D01*
X018094Y007210D01*
X018145Y007333D01*
X018145Y007467D01*
X018094Y007590D01*
X018044Y007640D01*
X018282Y007640D01*
X019050Y006872D01*
X019050Y006655D01*
X018977Y006685D01*
X018843Y006685D01*
X018720Y006634D01*
X018671Y006585D01*
X018657Y006579D01*
X018581Y006503D01*
X018031Y005953D01*
X018000Y005984D01*
X017877Y006035D01*
X017857Y006035D01*
X017677Y006215D01*
X017694Y006222D02*
X018300Y006222D01*
X018202Y006123D02*
X017768Y006123D01*
X017901Y006025D02*
X018103Y006025D01*
X017854Y006320D02*
X018399Y006320D01*
X018497Y006419D02*
X017918Y006419D01*
X017945Y006517D02*
X018596Y006517D01*
X018702Y006616D02*
X017945Y006616D01*
X017946Y006714D02*
X019050Y006714D01*
X019050Y006813D02*
X018045Y006813D01*
X018086Y006911D02*
X019010Y006911D01*
X018912Y007010D02*
X018095Y007010D01*
X018078Y007108D02*
X018813Y007108D01*
X018715Y007207D02*
X018091Y007207D01*
X018134Y007305D02*
X018616Y007305D01*
X018518Y007404D02*
X018145Y007404D01*
X018130Y007502D02*
X018419Y007502D01*
X018321Y007601D02*
X018083Y007601D01*
X018673Y008126D02*
X018586Y008213D01*
X018472Y008260D01*
X018044Y008260D01*
X018044Y008260D01*
X018095Y008383D01*
X018095Y008517D01*
X018044Y008640D01*
X017950Y008734D01*
X017827Y008785D01*
X017807Y008785D01*
X016695Y009897D01*
X016695Y009967D01*
X016665Y010040D01*
X023110Y010040D01*
X023110Y009079D01*
X022619Y009079D01*
X022496Y008955D01*
X022496Y008282D01*
X022619Y008159D01*
X022980Y008159D01*
X022920Y008134D01*
X022906Y008120D01*
X021972Y008120D01*
X021595Y008497D01*
X021595Y008517D01*
X021544Y008640D01*
X021450Y008734D01*
X021397Y008756D01*
X021470Y008786D01*
X021574Y008890D01*
X021630Y009026D01*
X021630Y009174D01*
X021574Y009310D01*
X021470Y009414D01*
X021334Y009470D01*
X021187Y009470D01*
X021051Y009414D01*
X020946Y009310D01*
X020890Y009174D01*
X020890Y009026D01*
X020946Y008890D01*
X021051Y008786D01*
X021124Y008756D01*
X021070Y008734D01*
X020976Y008640D01*
X020925Y008517D01*
X020925Y008383D01*
X020976Y008260D01*
X021070Y008166D01*
X021193Y008115D01*
X021213Y008115D01*
X021481Y007847D01*
X020968Y007847D01*
X020851Y007730D01*
X020495Y007730D01*
X020495Y007817D01*
X020444Y007940D01*
X020382Y008002D01*
X020395Y008033D01*
X020395Y008167D01*
X020344Y008290D01*
X020250Y008384D01*
X020127Y008435D01*
X019993Y008435D01*
X019870Y008384D01*
X019776Y008290D01*
X019725Y008167D01*
X019725Y008033D01*
X019776Y007910D01*
X019838Y007848D01*
X019825Y007817D01*
X019825Y007713D01*
X019767Y007689D01*
X019713Y007635D01*
X019693Y007635D01*
X019570Y007584D01*
X019476Y007490D01*
X019427Y007371D01*
X018673Y008126D01*
X018705Y008093D02*
X019725Y008093D01*
X019741Y007995D02*
X018804Y007995D01*
X018902Y007896D02*
X019790Y007896D01*
X019825Y007798D02*
X019001Y007798D01*
X019099Y007699D02*
X019792Y007699D01*
X019611Y007601D02*
X019198Y007601D01*
X019296Y007502D02*
X019489Y007502D01*
X019441Y007404D02*
X019395Y007404D01*
X019670Y006975D02*
X019693Y006965D01*
X019827Y006965D01*
X019950Y007016D01*
X020044Y007110D01*
X020077Y007190D01*
X020845Y007190D01*
X020845Y004696D01*
X020968Y004573D01*
X021693Y004573D01*
X021703Y004583D01*
X021720Y004566D01*
X021843Y004515D01*
X021977Y004515D01*
X022100Y004566D01*
X022194Y004660D01*
X022201Y004677D01*
X022350Y004529D01*
X022350Y004529D01*
X022426Y004453D01*
X022496Y004423D01*
X022496Y004345D01*
X022470Y004334D01*
X022376Y004240D01*
X022325Y004117D01*
X022325Y003983D01*
X022376Y003860D01*
X022470Y003766D01*
X022593Y003715D01*
X022727Y003715D01*
X022850Y003766D01*
X022944Y003860D01*
X022995Y003983D01*
X022995Y004117D01*
X022952Y004221D01*
X023110Y004221D01*
X023110Y003562D01*
X022878Y003330D01*
X021186Y003330D01*
X021087Y003289D01*
X021011Y003213D01*
X020888Y003090D01*
X020636Y003090D01*
X020360Y002814D01*
X020084Y003090D01*
X019636Y003090D01*
X019320Y002774D01*
X019320Y002326D01*
X019326Y002320D01*
X019301Y002320D01*
X019320Y002339D01*
X019320Y002761D01*
X019021Y003060D01*
X018730Y003060D01*
X018730Y003792D01*
X018847Y003674D01*
X018934Y003587D01*
X019048Y003540D01*
X019176Y003540D01*
X019277Y003439D01*
X019963Y003439D01*
X020040Y003516D01*
X020180Y003516D01*
X020267Y003429D01*
X020953Y003429D01*
X021030Y003506D01*
X021248Y003506D01*
X021362Y003553D01*
X021382Y003573D01*
X021693Y003573D01*
X021816Y003696D01*
X021816Y004224D01*
X021693Y004347D01*
X020968Y004347D01*
X020845Y004224D01*
X020845Y004204D01*
X020267Y004204D01*
X020200Y004136D01*
X020040Y004136D01*
X019963Y004214D01*
X019277Y004214D01*
X019270Y004207D01*
X019270Y004845D01*
X019343Y004815D01*
X019477Y004815D01*
X019600Y004866D01*
X019694Y004960D01*
X019745Y005083D01*
X019745Y005115D01*
X019877Y005115D01*
X020000Y005166D01*
X020094Y005260D01*
X020145Y005383D01*
X020145Y005517D01*
X020094Y005640D01*
X020000Y005734D01*
X019877Y005785D01*
X019743Y005785D01*
X019670Y005755D01*
X019670Y006975D01*
X019670Y006911D02*
X020845Y006911D01*
X020845Y006813D02*
X019670Y006813D01*
X019670Y006714D02*
X020845Y006714D01*
X020845Y006616D02*
X019670Y006616D01*
X019670Y006517D02*
X020845Y006517D01*
X020845Y006419D02*
X019670Y006419D01*
X019670Y006320D02*
X020845Y006320D01*
X020845Y006222D02*
X019670Y006222D01*
X019670Y006123D02*
X020845Y006123D01*
X020845Y006025D02*
X019670Y006025D01*
X019670Y005926D02*
X020845Y005926D01*
X020845Y005828D02*
X019670Y005828D01*
X020004Y005729D02*
X020845Y005729D01*
X020845Y005631D02*
X020098Y005631D01*
X020139Y005532D02*
X020845Y005532D01*
X020845Y005434D02*
X020145Y005434D01*
X020125Y005335D02*
X020845Y005335D01*
X020845Y005237D02*
X020071Y005237D01*
X019933Y005138D02*
X020845Y005138D01*
X020845Y005040D02*
X019727Y005040D01*
X019675Y004941D02*
X020845Y004941D01*
X020845Y004843D02*
X019544Y004843D01*
X019276Y004843D02*
X019270Y004843D01*
X019270Y004744D02*
X020845Y004744D01*
X020895Y004646D02*
X019270Y004646D01*
X019270Y004547D02*
X021765Y004547D01*
X022055Y004547D02*
X022331Y004547D01*
X022232Y004646D02*
X022180Y004646D01*
X022434Y004449D02*
X019270Y004449D01*
X019270Y004350D02*
X022496Y004350D01*
X022388Y004252D02*
X021789Y004252D01*
X021816Y004153D02*
X022340Y004153D01*
X022325Y004055D02*
X021816Y004055D01*
X021816Y003956D02*
X022336Y003956D01*
X022378Y003858D02*
X021816Y003858D01*
X021816Y003759D02*
X022486Y003759D01*
X022834Y003759D02*
X023110Y003759D01*
X023110Y003661D02*
X021781Y003661D01*
X021371Y003562D02*
X023110Y003562D01*
X023012Y003464D02*
X020988Y003464D01*
X021065Y003267D02*
X018730Y003267D01*
X018730Y003365D02*
X022914Y003365D01*
X022942Y003858D02*
X023110Y003858D01*
X023110Y003956D02*
X022984Y003956D01*
X022995Y004055D02*
X023110Y004055D01*
X023110Y004153D02*
X022980Y004153D01*
X023110Y002817D02*
X023110Y002140D01*
X022716Y002140D01*
X022375Y001799D01*
X022084Y002090D01*
X021636Y002090D01*
X021360Y001814D01*
X021124Y002050D01*
X021400Y002326D01*
X021400Y002774D01*
X021384Y002790D01*
X023044Y002790D01*
X023110Y002817D01*
X023110Y002774D02*
X021399Y002774D01*
X021400Y002676D02*
X023110Y002676D01*
X023110Y002577D02*
X021400Y002577D01*
X021400Y002479D02*
X023110Y002479D01*
X023110Y002380D02*
X021400Y002380D01*
X021356Y002282D02*
X023110Y002282D01*
X023110Y002183D02*
X021257Y002183D01*
X021159Y002085D02*
X021631Y002085D01*
X021533Y001986D02*
X021187Y001986D01*
X021286Y001888D02*
X021434Y001888D01*
X022089Y002085D02*
X022661Y002085D01*
X022562Y001986D02*
X022187Y001986D01*
X022286Y001888D02*
X022464Y001888D01*
X020967Y003168D02*
X018730Y003168D01*
X018730Y003070D02*
X019616Y003070D01*
X019518Y002971D02*
X019110Y002971D01*
X019208Y002873D02*
X019419Y002873D01*
X019321Y002774D02*
X019307Y002774D01*
X019320Y002676D02*
X019320Y002676D01*
X019320Y002577D02*
X019320Y002577D01*
X019320Y002479D02*
X019320Y002479D01*
X019320Y002380D02*
X019320Y002380D01*
X020104Y003070D02*
X020616Y003070D01*
X020518Y002971D02*
X020202Y002971D01*
X020301Y002873D02*
X020419Y002873D01*
X020232Y003464D02*
X019988Y003464D01*
X020023Y004153D02*
X020217Y004153D01*
X020873Y004252D02*
X019270Y004252D01*
X018762Y003759D02*
X018730Y003759D01*
X018730Y003661D02*
X018861Y003661D01*
X018730Y003562D02*
X018994Y003562D01*
X019252Y003464D02*
X018730Y003464D01*
X017295Y003464D02*
X016445Y003464D01*
X016405Y003562D02*
X017124Y003562D01*
X017032Y003661D02*
X016323Y003661D01*
X016480Y003826D02*
X016603Y003775D01*
X016737Y003775D01*
X016860Y003826D01*
X016954Y003920D01*
X017005Y004043D01*
X017005Y004177D01*
X016954Y004300D01*
X016860Y004394D01*
X016737Y004445D01*
X016603Y004445D01*
X016480Y004394D01*
X016386Y004300D01*
X016335Y004177D01*
X016335Y004043D01*
X016386Y003920D01*
X016480Y003826D01*
X016448Y003858D02*
X015040Y003858D01*
X015040Y003956D02*
X016371Y003956D01*
X016335Y004055D02*
X015040Y004055D01*
X015040Y004153D02*
X016335Y004153D01*
X016366Y004252D02*
X015934Y004252D01*
X016026Y004350D02*
X016437Y004350D01*
X016654Y004449D02*
X016026Y004449D01*
X016806Y004449D02*
X017240Y004449D01*
X017240Y004547D02*
X016971Y004547D01*
X017037Y004646D02*
X017240Y004646D01*
X017240Y004744D02*
X017065Y004744D01*
X017065Y004843D02*
X017240Y004843D01*
X017240Y004941D02*
X017026Y004941D01*
X016944Y005040D02*
X017240Y005040D01*
X017236Y005138D02*
X015906Y005138D01*
X014939Y005138D02*
X014280Y005138D01*
X014280Y005040D02*
X014840Y005040D01*
X014819Y004941D02*
X014280Y004941D01*
X014280Y004843D02*
X014819Y004843D01*
X014819Y004744D02*
X014280Y004744D01*
X014280Y004646D02*
X014819Y004646D01*
X014819Y004547D02*
X014762Y004547D01*
X014969Y003759D02*
X016991Y003759D01*
X016985Y003858D02*
X016892Y003858D01*
X016969Y003956D02*
X017006Y003956D01*
X017005Y004055D02*
X017061Y004055D01*
X017005Y004153D02*
X017202Y004153D01*
X017326Y004252D02*
X016974Y004252D01*
X016903Y004350D02*
X017259Y004350D01*
X017253Y003365D02*
X016526Y003365D01*
X016580Y003267D02*
X017145Y003267D01*
X017047Y003168D02*
X016590Y003168D01*
X016590Y003070D02*
X016948Y003070D01*
X016031Y003070D02*
X014280Y003070D01*
X014280Y003168D02*
X015868Y003168D01*
X015803Y003267D02*
X014280Y003267D01*
X014280Y003365D02*
X015775Y003365D01*
X015775Y003464D02*
X014280Y003464D01*
X014772Y003562D02*
X015815Y003562D01*
X015897Y003661D02*
X014871Y003661D01*
X015110Y002971D02*
X015510Y002971D01*
X015412Y002873D02*
X015208Y002873D01*
X015307Y002774D02*
X015313Y002774D01*
X014510Y002971D02*
X014280Y002971D01*
X014280Y002873D02*
X014412Y002873D01*
X014313Y002774D02*
X014307Y002774D01*
X013740Y003060D02*
X013599Y003060D01*
X013310Y002771D01*
X013021Y003060D01*
X012599Y003060D01*
X012310Y002771D01*
X012021Y003060D01*
X011599Y003060D01*
X011300Y002761D01*
X011300Y002339D01*
X011589Y002050D01*
X011310Y001771D01*
X011021Y002060D01*
X010739Y002060D01*
X010491Y002308D01*
X010377Y002355D01*
X010320Y002355D01*
X010320Y002761D01*
X010120Y002961D01*
X010120Y003022D01*
X011239Y004140D01*
X011772Y004140D01*
X011886Y004187D01*
X012086Y004387D01*
X012173Y004474D01*
X012220Y004588D01*
X012220Y005362D01*
X012395Y005520D01*
X012740Y005520D01*
X013020Y005800D01*
X013301Y005520D01*
X013740Y005520D01*
X013740Y005520D01*
X013740Y004570D01*
X013730Y004580D01*
X013291Y004580D01*
X013010Y004300D01*
X012730Y004580D01*
X012291Y004580D01*
X011980Y004270D01*
X011980Y003830D01*
X012291Y003520D01*
X012730Y003520D01*
X013010Y003800D01*
X013291Y003520D01*
X013730Y003520D01*
X013740Y003530D01*
X013740Y003060D01*
X013740Y003070D02*
X010168Y003070D01*
X010120Y002971D02*
X011510Y002971D01*
X011412Y002873D02*
X010208Y002873D01*
X010307Y002774D02*
X011313Y002774D01*
X011300Y002676D02*
X010320Y002676D01*
X010320Y002577D02*
X011300Y002577D01*
X011300Y002479D02*
X010320Y002479D01*
X010320Y002380D02*
X011300Y002380D01*
X011357Y002282D02*
X010517Y002282D01*
X010615Y002183D02*
X011455Y002183D01*
X011554Y002085D02*
X010714Y002085D01*
X011095Y001986D02*
X011525Y001986D01*
X011427Y001888D02*
X011193Y001888D01*
X011292Y001789D02*
X011328Y001789D01*
X012307Y002774D02*
X012313Y002774D01*
X012412Y002873D02*
X012208Y002873D01*
X012110Y002971D02*
X012510Y002971D01*
X013110Y002971D02*
X013510Y002971D01*
X013412Y002873D02*
X013208Y002873D01*
X013307Y002774D02*
X013313Y002774D01*
X013740Y003168D02*
X010267Y003168D01*
X010365Y003267D02*
X013740Y003267D01*
X013740Y003365D02*
X010464Y003365D01*
X010562Y003464D02*
X013740Y003464D01*
X013248Y003562D02*
X012772Y003562D01*
X012871Y003661D02*
X013150Y003661D01*
X013051Y003759D02*
X012969Y003759D01*
X012959Y004350D02*
X013061Y004350D01*
X013160Y004449D02*
X012861Y004449D01*
X012762Y004547D02*
X013258Y004547D01*
X013740Y004646D02*
X012220Y004646D01*
X012220Y004744D02*
X013740Y004744D01*
X013740Y004843D02*
X012220Y004843D01*
X012220Y004941D02*
X013740Y004941D01*
X013740Y005040D02*
X012220Y005040D01*
X012220Y005138D02*
X013740Y005138D01*
X013740Y005237D02*
X012220Y005237D01*
X012220Y005335D02*
X013740Y005335D01*
X013740Y005434D02*
X012300Y005434D01*
X012752Y005532D02*
X013288Y005532D01*
X013190Y005631D02*
X012851Y005631D01*
X012949Y005729D02*
X013091Y005729D01*
X014280Y005532D02*
X014288Y005532D01*
X014280Y005434D02*
X017225Y005434D01*
X017297Y005532D02*
X014752Y005532D01*
X014851Y005631D02*
X017476Y005631D01*
X017399Y005729D02*
X014949Y005729D01*
X015048Y005828D02*
X017300Y005828D01*
X017202Y005926D02*
X015050Y005926D01*
X012258Y004547D02*
X012203Y004547D01*
X012160Y004449D02*
X012147Y004449D01*
X012061Y004350D02*
X012049Y004350D01*
X011980Y004252D02*
X011950Y004252D01*
X011980Y004153D02*
X011804Y004153D01*
X011980Y004055D02*
X011153Y004055D01*
X011055Y003956D02*
X011980Y003956D01*
X011980Y003858D02*
X010956Y003858D01*
X010858Y003759D02*
X012051Y003759D01*
X012150Y003661D02*
X010759Y003661D01*
X010661Y003562D02*
X012248Y003562D01*
X011348Y005920D02*
X010800Y005920D01*
X010800Y006187D01*
X010687Y006300D01*
X010800Y006413D01*
X010800Y006456D01*
X011353Y006456D01*
X011412Y006515D01*
X011490Y006515D01*
X011490Y006062D01*
X011348Y005920D01*
X011355Y005926D02*
X010800Y005926D01*
X010800Y006025D02*
X011453Y006025D01*
X011490Y006123D02*
X010800Y006123D01*
X010765Y006222D02*
X011490Y006222D01*
X011490Y006320D02*
X010708Y006320D01*
X010800Y006419D02*
X011490Y006419D01*
X008425Y003267D02*
X007611Y003267D01*
X007709Y003365D02*
X008326Y003365D01*
X008228Y003464D02*
X007808Y003464D01*
X007906Y003562D02*
X008129Y003562D01*
X008031Y003661D02*
X007975Y003661D01*
X007512Y003168D02*
X008523Y003168D01*
X008622Y003070D02*
X007414Y003070D01*
X007315Y002971D02*
X008720Y002971D01*
X008819Y002873D02*
X007217Y002873D01*
X007118Y002774D02*
X008860Y002774D01*
X008860Y002676D02*
X007020Y002676D01*
X006589Y002577D02*
X008860Y002577D01*
X008860Y002479D02*
X005820Y002479D01*
X005820Y002577D02*
X006031Y002577D01*
X005933Y002676D02*
X005820Y002676D01*
X005820Y002774D02*
X005923Y002774D01*
X005923Y002873D02*
X005820Y002873D01*
X005820Y002971D02*
X005923Y002971D01*
X005923Y003070D02*
X005820Y003070D01*
X005820Y003168D02*
X005923Y003168D01*
X005976Y003267D02*
X005820Y003267D01*
X005820Y003365D02*
X006762Y003365D01*
X006860Y003464D02*
X005820Y003464D01*
X005820Y003562D02*
X006959Y003562D01*
X007057Y003661D02*
X005820Y003661D01*
X005820Y003759D02*
X007156Y003759D01*
X007254Y003858D02*
X005820Y003858D01*
X005820Y003956D02*
X007353Y003956D01*
X007360Y004055D02*
X005820Y004055D01*
X005820Y004153D02*
X007360Y004153D01*
X006779Y002282D02*
X008879Y002282D01*
X008860Y002380D02*
X005820Y002380D01*
X005820Y002282D02*
X006237Y002282D01*
X006084Y002183D02*
X005820Y002183D01*
X005820Y002085D02*
X005986Y002085D01*
X005932Y001986D02*
X005820Y001986D01*
X005820Y001888D02*
X005891Y001888D01*
X005865Y001789D02*
X005820Y001789D01*
X005820Y001691D02*
X005865Y001691D01*
X005865Y001592D02*
X005820Y001592D01*
X005820Y001494D02*
X005897Y001494D01*
X005937Y001395D02*
X005820Y001395D01*
X005825Y001297D02*
X006000Y001297D01*
X006098Y001198D02*
X005865Y001198D01*
X005970Y001100D02*
X006272Y001100D01*
X006745Y001100D02*
X008190Y001100D01*
X008091Y001198D02*
X006918Y001198D01*
X007017Y001297D02*
X008037Y001297D01*
X007996Y001395D02*
X007079Y001395D01*
X007120Y001494D02*
X007980Y001494D01*
X007980Y001592D02*
X007151Y001592D01*
X007151Y001691D02*
X007991Y001691D01*
X008032Y001789D02*
X007151Y001789D01*
X007126Y001888D02*
X008078Y001888D01*
X008176Y001986D02*
X007085Y001986D01*
X007031Y002085D02*
X008336Y002085D01*
X008784Y002085D02*
X009037Y002085D01*
X008944Y001986D02*
X009135Y001986D01*
X009042Y001888D02*
X009234Y001888D01*
X009328Y001789D02*
X009089Y001789D01*
X009129Y001691D02*
X009300Y001691D01*
X009300Y001592D02*
X009140Y001592D01*
X009140Y001494D02*
X009300Y001494D01*
X009300Y001395D02*
X009124Y001395D01*
X009083Y001297D02*
X009342Y001297D01*
X009440Y001198D02*
X009029Y001198D01*
X008930Y001100D02*
X009539Y001100D01*
X008938Y002183D02*
X006932Y002183D01*
X015937Y008980D02*
X015942Y008980D01*
X016824Y009768D02*
X023110Y009768D01*
X023110Y009866D02*
X016725Y009866D01*
X016695Y009965D02*
X023110Y009965D01*
X023110Y009669D02*
X016922Y009669D01*
X017021Y009571D02*
X023110Y009571D01*
X023110Y009472D02*
X017119Y009472D01*
X017218Y009374D02*
X021011Y009374D01*
X020932Y009275D02*
X017316Y009275D01*
X017415Y009177D02*
X020892Y009177D01*
X020890Y009078D02*
X017513Y009078D01*
X017612Y008980D02*
X020909Y008980D01*
X020955Y008881D02*
X017710Y008881D01*
X017832Y008783D02*
X021059Y008783D01*
X021021Y008684D02*
X017999Y008684D01*
X018066Y008586D02*
X020954Y008586D01*
X020925Y008487D02*
X018095Y008487D01*
X018095Y008389D02*
X019882Y008389D01*
X019777Y008290D02*
X018057Y008290D01*
X018607Y008192D02*
X019736Y008192D01*
X020238Y008389D02*
X020925Y008389D01*
X020964Y008290D02*
X020343Y008290D01*
X020385Y008192D02*
X021044Y008192D01*
X021235Y008093D02*
X020395Y008093D01*
X020389Y007995D02*
X021333Y007995D01*
X021432Y007896D02*
X020462Y007896D01*
X020495Y007798D02*
X020919Y007798D01*
X020845Y007108D02*
X020042Y007108D01*
X019935Y007010D02*
X020845Y007010D01*
X021900Y008192D02*
X022586Y008192D01*
X022496Y008290D02*
X021801Y008290D01*
X021703Y008389D02*
X022496Y008389D01*
X022496Y008487D02*
X021604Y008487D01*
X021566Y008586D02*
X022496Y008586D01*
X022496Y008684D02*
X021499Y008684D01*
X021462Y008783D02*
X022496Y008783D01*
X022496Y008881D02*
X021565Y008881D01*
X021611Y008980D02*
X022521Y008980D01*
X022619Y009078D02*
X021630Y009078D01*
X021629Y009177D02*
X023110Y009177D01*
X023110Y009275D02*
X021588Y009275D01*
X021509Y009374D02*
X023110Y009374D01*
X022629Y011147D02*
X022121Y011147D01*
X022219Y011246D02*
X022530Y011246D01*
X022432Y011344D02*
X022318Y011344D01*
X022375Y011899D02*
X022084Y012190D01*
X021636Y012190D01*
X021360Y011914D01*
X021124Y012150D01*
X021400Y012426D01*
X021400Y012874D01*
X021384Y012890D01*
X023044Y012890D01*
X023110Y012917D01*
X023110Y012240D01*
X022716Y012240D01*
X022375Y011899D01*
X022339Y011935D02*
X022411Y011935D01*
X022509Y012034D02*
X022240Y012034D01*
X022142Y012132D02*
X022608Y012132D01*
X022706Y012231D02*
X021204Y012231D01*
X021142Y012132D02*
X021578Y012132D01*
X021480Y012034D02*
X021240Y012034D01*
X021339Y011935D02*
X021381Y011935D01*
X021303Y012329D02*
X023110Y012329D01*
X023110Y012428D02*
X021400Y012428D01*
X021400Y012526D02*
X023110Y012526D01*
X023110Y012625D02*
X021400Y012625D01*
X021400Y012723D02*
X023110Y012723D01*
X023110Y012822D02*
X021400Y012822D01*
X020914Y013216D02*
X018730Y013216D01*
X018730Y013160D02*
X018730Y013892D01*
X018847Y013774D01*
X018934Y013687D01*
X019048Y013640D01*
X019176Y013640D01*
X019277Y013539D01*
X019963Y013539D01*
X020040Y013616D01*
X020180Y013616D01*
X020267Y013529D01*
X020953Y013529D01*
X021030Y013606D01*
X021248Y013606D01*
X021362Y013653D01*
X021382Y013673D01*
X021693Y013673D01*
X021816Y013796D01*
X021816Y014324D01*
X021693Y014447D01*
X020968Y014447D01*
X020845Y014324D01*
X020845Y014304D01*
X020267Y014304D01*
X020200Y014236D01*
X020040Y014236D01*
X019963Y014314D01*
X019277Y014314D01*
X019270Y014307D01*
X019270Y014945D01*
X019343Y014915D01*
X019477Y014915D01*
X019600Y014966D01*
X019694Y015060D01*
X019745Y015183D01*
X019745Y015215D01*
X019877Y015215D01*
X020000Y015266D01*
X020094Y015360D01*
X020145Y015483D01*
X020145Y015617D01*
X020094Y015740D01*
X020000Y015834D01*
X019877Y015885D01*
X019743Y015885D01*
X019670Y015855D01*
X019670Y017075D01*
X019693Y017065D01*
X019827Y017065D01*
X019950Y017116D01*
X020044Y017210D01*
X020077Y017290D01*
X020845Y017290D01*
X020845Y014796D01*
X020968Y014673D01*
X021693Y014673D01*
X021703Y014683D01*
X021720Y014666D01*
X021843Y014615D01*
X021977Y014615D01*
X022100Y014666D01*
X022194Y014760D01*
X022201Y014777D01*
X022350Y014629D01*
X022426Y014553D01*
X022496Y014523D01*
X022496Y014445D01*
X022470Y014434D01*
X022376Y014340D01*
X022325Y014217D01*
X022325Y014083D01*
X022376Y013960D01*
X022470Y013866D01*
X022593Y013815D01*
X022727Y013815D01*
X022850Y013866D01*
X022944Y013960D01*
X022995Y014083D01*
X022995Y014217D01*
X022952Y014321D01*
X023110Y014321D01*
X023110Y013662D01*
X022878Y013430D01*
X021186Y013430D01*
X021087Y013389D01*
X021011Y013313D01*
X020888Y013190D01*
X020636Y013190D01*
X020360Y012914D01*
X020084Y013190D01*
X019636Y013190D01*
X019320Y012874D01*
X019320Y012426D01*
X019326Y012420D01*
X019301Y012420D01*
X019320Y012439D01*
X019320Y012861D01*
X019021Y013160D01*
X018730Y013160D01*
X018730Y013314D02*
X021012Y013314D01*
X021144Y013413D02*
X018730Y013413D01*
X018730Y013511D02*
X022959Y013511D01*
X023058Y013610D02*
X021256Y013610D01*
X021728Y013708D02*
X023110Y013708D01*
X023110Y013807D02*
X021816Y013807D01*
X021816Y013905D02*
X022431Y013905D01*
X022358Y014004D02*
X021816Y014004D01*
X021816Y014102D02*
X022325Y014102D01*
X022325Y014201D02*
X021816Y014201D01*
X021816Y014299D02*
X022359Y014299D01*
X022434Y014398D02*
X021743Y014398D01*
X022127Y014693D02*
X022285Y014693D01*
X022384Y014595D02*
X019270Y014595D01*
X019270Y014693D02*
X020948Y014693D01*
X020850Y014792D02*
X019270Y014792D01*
X019270Y014890D02*
X020845Y014890D01*
X020845Y014989D02*
X019622Y014989D01*
X019705Y015087D02*
X020845Y015087D01*
X020845Y015186D02*
X019745Y015186D01*
X020018Y015284D02*
X020845Y015284D01*
X020845Y015383D02*
X020103Y015383D01*
X020144Y015481D02*
X020845Y015481D01*
X020845Y015580D02*
X020145Y015580D01*
X020120Y015678D02*
X020845Y015678D01*
X020845Y015777D02*
X020057Y015777D01*
X019901Y015875D02*
X020845Y015875D01*
X020845Y015974D02*
X019670Y015974D01*
X019670Y016072D02*
X020845Y016072D01*
X020845Y016171D02*
X019670Y016171D01*
X019670Y016269D02*
X020845Y016269D01*
X020845Y016368D02*
X019670Y016368D01*
X019670Y016466D02*
X020845Y016466D01*
X020845Y016565D02*
X019670Y016565D01*
X019670Y016663D02*
X020845Y016663D01*
X020845Y016762D02*
X019670Y016762D01*
X019670Y016860D02*
X020845Y016860D01*
X020845Y016959D02*
X019670Y016959D01*
X019670Y017057D02*
X020845Y017057D01*
X020845Y017156D02*
X019989Y017156D01*
X020062Y017254D02*
X020845Y017254D01*
X020851Y017830D02*
X020495Y017830D01*
X020495Y017917D01*
X020444Y018040D01*
X020382Y018102D01*
X020395Y018133D01*
X020395Y018267D01*
X020344Y018390D01*
X020250Y018484D01*
X020127Y018535D01*
X019993Y018535D01*
X019870Y018484D01*
X019776Y018390D01*
X019725Y018267D01*
X019725Y018133D01*
X019776Y018010D01*
X019838Y017948D01*
X019825Y017917D01*
X019825Y017813D01*
X019767Y017789D01*
X019713Y017735D01*
X019693Y017735D01*
X019570Y017684D01*
X019476Y017590D01*
X019427Y017471D01*
X018673Y018226D01*
X018586Y018313D01*
X018472Y018360D01*
X018044Y018360D01*
X018044Y018360D01*
X018095Y018483D01*
X018095Y018617D01*
X018044Y018740D01*
X017950Y018834D01*
X017827Y018885D01*
X017807Y018885D01*
X016695Y019997D01*
X016695Y020067D01*
X016677Y020110D01*
X023110Y020110D01*
X023110Y019179D01*
X022619Y019179D01*
X022496Y019055D01*
X022496Y018382D01*
X022619Y018259D01*
X022980Y018259D01*
X022920Y018234D01*
X022906Y018220D01*
X021972Y018220D01*
X021595Y018597D01*
X021595Y018617D01*
X021544Y018740D01*
X021450Y018834D01*
X021397Y018856D01*
X021470Y018886D01*
X021574Y018990D01*
X021630Y019126D01*
X021630Y019274D01*
X021574Y019410D01*
X021470Y019514D01*
X021334Y019570D01*
X021187Y019570D01*
X021051Y019514D01*
X020946Y019410D01*
X020890Y019274D01*
X020890Y019126D01*
X020946Y018990D01*
X021051Y018886D01*
X021124Y018856D01*
X021070Y018834D01*
X020976Y018740D01*
X020925Y018617D01*
X020925Y018483D01*
X020976Y018360D01*
X021070Y018266D01*
X021193Y018215D01*
X021213Y018215D01*
X021481Y017947D01*
X020968Y017947D01*
X020851Y017830D01*
X020866Y017845D02*
X020495Y017845D01*
X020484Y017944D02*
X020964Y017944D01*
X021135Y018239D02*
X020395Y018239D01*
X020395Y018141D02*
X021288Y018141D01*
X021386Y018042D02*
X020442Y018042D01*
X020366Y018338D02*
X020999Y018338D01*
X020945Y018436D02*
X020298Y018436D01*
X020128Y018535D02*
X020925Y018535D01*
X020932Y018633D02*
X018088Y018633D01*
X018095Y018535D02*
X019992Y018535D01*
X019822Y018436D02*
X018075Y018436D01*
X018048Y018732D02*
X020973Y018732D01*
X021066Y018830D02*
X017954Y018830D01*
X017763Y018929D02*
X021008Y018929D01*
X020931Y019027D02*
X017665Y019027D01*
X017566Y019126D02*
X020890Y019126D01*
X020890Y019224D02*
X017468Y019224D01*
X017369Y019323D02*
X020910Y019323D01*
X020958Y019421D02*
X017271Y019421D01*
X017172Y019520D02*
X021065Y019520D01*
X021456Y019520D02*
X023110Y019520D01*
X023110Y019618D02*
X017074Y019618D01*
X016975Y019717D02*
X023110Y019717D01*
X023110Y019815D02*
X016877Y019815D01*
X016778Y019914D02*
X023110Y019914D01*
X023110Y020012D02*
X016695Y020012D01*
X015940Y019082D02*
X017234Y017787D01*
X017348Y017740D01*
X017576Y017740D01*
X017526Y017690D01*
X017475Y017567D01*
X017475Y017433D01*
X017517Y017331D01*
X017476Y017290D01*
X017425Y017167D01*
X017425Y017033D01*
X017460Y016950D01*
X017420Y016934D01*
X017380Y016894D01*
X017380Y017354D01*
X017339Y017453D01*
X016913Y017879D01*
X016814Y017920D01*
X015214Y017920D01*
X015200Y017934D01*
X015077Y017985D01*
X015050Y017985D01*
X015050Y018370D01*
X014740Y018680D01*
X014353Y018680D01*
X014375Y018733D01*
X014375Y018867D01*
X014324Y018990D01*
X014230Y019084D01*
X014107Y019135D01*
X013973Y019135D01*
X013850Y019084D01*
X013756Y018990D01*
X013705Y018867D01*
X013705Y018733D01*
X013727Y018680D01*
X013301Y018680D01*
X013020Y018400D01*
X012740Y018680D01*
X012301Y018680D01*
X011990Y018370D01*
X011990Y018202D01*
X011980Y018212D01*
X011980Y018847D01*
X011857Y018970D01*
X011798Y018970D01*
X011845Y019083D01*
X011845Y019163D01*
X012024Y019163D01*
X012147Y019286D01*
X012147Y019369D01*
X012379Y019600D01*
X013363Y019600D01*
X013377Y019586D01*
X014063Y019586D01*
X014075Y019598D01*
X014087Y019586D01*
X014773Y019586D01*
X014818Y019631D01*
X014819Y019631D01*
X014819Y019169D01*
X014942Y019046D01*
X015903Y019046D01*
X015940Y019082D01*
X015995Y019027D02*
X014287Y019027D01*
X014349Y018929D02*
X016093Y018929D01*
X016192Y018830D02*
X014375Y018830D01*
X014374Y018732D02*
X016290Y018732D01*
X016389Y018633D02*
X014787Y018633D01*
X014885Y018535D02*
X016487Y018535D01*
X016586Y018436D02*
X014984Y018436D01*
X015050Y018338D02*
X016684Y018338D01*
X016783Y018239D02*
X015050Y018239D01*
X015050Y018141D02*
X016881Y018141D01*
X016980Y018042D02*
X015050Y018042D01*
X015177Y017944D02*
X017078Y017944D01*
X017177Y017845D02*
X016947Y017845D01*
X017045Y017747D02*
X017333Y017747D01*
X017509Y017648D02*
X017144Y017648D01*
X017242Y017550D02*
X017475Y017550D01*
X017475Y017451D02*
X017340Y017451D01*
X017380Y017353D02*
X017509Y017353D01*
X017461Y017254D02*
X017380Y017254D01*
X017380Y017156D02*
X017425Y017156D01*
X017425Y017057D02*
X017380Y017057D01*
X017380Y016959D02*
X017456Y016959D01*
X017911Y016800D02*
X017950Y016816D01*
X018044Y016910D01*
X018095Y017033D01*
X018095Y017167D01*
X018053Y017269D01*
X018094Y017310D01*
X018145Y017433D01*
X018145Y017567D01*
X018094Y017690D01*
X018044Y017740D01*
X018282Y017740D01*
X019050Y016972D01*
X019050Y016755D01*
X018977Y016785D01*
X018843Y016785D01*
X018720Y016734D01*
X018671Y016685D01*
X018657Y016679D01*
X018581Y016603D01*
X018031Y016053D01*
X018000Y016084D01*
X017877Y016135D01*
X017857Y016135D01*
X017677Y016315D01*
X017800Y016366D01*
X017894Y016460D01*
X017945Y016583D01*
X017945Y016717D01*
X017911Y016800D01*
X017927Y016762D02*
X018787Y016762D01*
X018641Y016663D02*
X017945Y016663D01*
X017937Y016565D02*
X018543Y016565D01*
X018444Y016466D02*
X017896Y016466D01*
X017801Y016368D02*
X018346Y016368D01*
X018247Y016269D02*
X017723Y016269D01*
X017821Y016171D02*
X018149Y016171D01*
X018050Y016072D02*
X018012Y016072D01*
X017475Y015753D02*
X017475Y015733D01*
X017483Y015715D01*
X017447Y015715D01*
X017332Y015667D01*
X017243Y015578D01*
X017195Y015463D01*
X017195Y015337D01*
X017240Y015229D01*
X017240Y014496D01*
X016855Y014496D01*
X016860Y014494D02*
X016737Y014545D01*
X016603Y014545D01*
X016480Y014494D01*
X016386Y014400D01*
X016335Y014277D01*
X016335Y014143D01*
X016386Y014020D01*
X016480Y013926D01*
X016603Y013875D01*
X016737Y013875D01*
X016860Y013926D01*
X016954Y014020D01*
X017005Y014143D01*
X017005Y014277D01*
X016954Y014400D01*
X016860Y014494D01*
X016797Y014545D02*
X016920Y014596D01*
X017014Y014690D01*
X017065Y014813D01*
X017065Y014947D01*
X017014Y015070D01*
X016920Y015164D01*
X016797Y015215D01*
X016663Y015215D01*
X016540Y015164D01*
X016526Y015150D01*
X015995Y015150D01*
X015903Y015241D01*
X014942Y015241D01*
X014819Y015118D01*
X014819Y014591D01*
X014730Y014680D01*
X014291Y014680D01*
X014280Y014670D01*
X014280Y015640D01*
X014301Y015620D01*
X014740Y015620D01*
X015050Y015930D01*
X015050Y016370D01*
X014770Y016650D01*
X015000Y016880D01*
X015338Y016880D01*
X015805Y016413D01*
X015805Y016393D01*
X015856Y016270D01*
X015950Y016176D01*
X016073Y016125D01*
X016207Y016125D01*
X016330Y016176D01*
X016424Y016270D01*
X016475Y016393D01*
X016475Y016527D01*
X016424Y016650D01*
X016418Y016656D01*
X016490Y016686D01*
X016584Y016780D01*
X016635Y016903D01*
X016635Y017037D01*
X016584Y017160D01*
X016490Y017254D01*
X016367Y017305D01*
X016233Y017305D01*
X016110Y017254D01*
X016016Y017160D01*
X015965Y017037D01*
X015965Y017017D01*
X015603Y017379D01*
X015600Y017380D01*
X016648Y017380D01*
X016840Y017188D01*
X016840Y016446D01*
X016881Y016347D01*
X016957Y016271D01*
X017475Y015753D01*
X017452Y015777D02*
X014896Y015777D01*
X014995Y015875D02*
X017353Y015875D01*
X017255Y015974D02*
X015050Y015974D01*
X015050Y016072D02*
X017156Y016072D01*
X017058Y016171D02*
X016317Y016171D01*
X016423Y016269D02*
X016959Y016269D01*
X016873Y016368D02*
X016464Y016368D01*
X016475Y016466D02*
X016840Y016466D01*
X016840Y016565D02*
X016459Y016565D01*
X016434Y016663D02*
X016840Y016663D01*
X016840Y016762D02*
X016565Y016762D01*
X016617Y016860D02*
X016840Y016860D01*
X016840Y016959D02*
X016635Y016959D01*
X016627Y017057D02*
X016840Y017057D01*
X016840Y017156D02*
X016586Y017156D01*
X016490Y017254D02*
X016774Y017254D01*
X016676Y017353D02*
X015629Y017353D01*
X015728Y017254D02*
X016110Y017254D01*
X016014Y017156D02*
X015826Y017156D01*
X015925Y017057D02*
X015974Y017057D01*
X015555Y016663D02*
X014783Y016663D01*
X014855Y016565D02*
X015654Y016565D01*
X015752Y016466D02*
X014954Y016466D01*
X015050Y016368D02*
X015816Y016368D01*
X015857Y016269D02*
X015050Y016269D01*
X015050Y016171D02*
X015964Y016171D01*
X015457Y016762D02*
X014881Y016762D01*
X014980Y016860D02*
X015358Y016860D01*
X014798Y015678D02*
X017358Y015678D01*
X017244Y015580D02*
X014280Y015580D01*
X014280Y015481D02*
X017203Y015481D01*
X017195Y015383D02*
X014280Y015383D01*
X014280Y015284D02*
X017217Y015284D01*
X017240Y015186D02*
X016868Y015186D01*
X016997Y015087D02*
X017240Y015087D01*
X017240Y014989D02*
X017048Y014989D01*
X017065Y014890D02*
X017240Y014890D01*
X017240Y014792D02*
X017056Y014792D01*
X017015Y014693D02*
X017240Y014693D01*
X017240Y014595D02*
X016916Y014595D01*
X016797Y014545D02*
X016663Y014545D01*
X016540Y014596D01*
X016526Y014610D01*
X016026Y014610D01*
X016026Y014445D01*
X015903Y014321D01*
X015040Y014321D01*
X015040Y013930D01*
X014730Y013620D01*
X014291Y013620D01*
X014280Y013630D01*
X014280Y012946D01*
X014267Y012914D01*
X014310Y012871D01*
X014599Y013160D01*
X015021Y013160D01*
X015310Y012871D01*
X015599Y013160D01*
X016021Y013160D01*
X016050Y013131D01*
X016050Y013165D01*
X016043Y013165D01*
X015920Y013216D01*
X015826Y013310D01*
X015775Y013433D01*
X015775Y013567D01*
X015826Y013690D01*
X015920Y013784D01*
X016043Y013835D01*
X016177Y013835D01*
X016300Y013784D01*
X016394Y013690D01*
X016445Y013567D01*
X016445Y013547D01*
X016549Y013443D01*
X016590Y013344D01*
X016590Y013151D01*
X016599Y013160D01*
X016938Y013160D01*
X017237Y013459D01*
X017314Y013491D01*
X017295Y013537D01*
X017295Y013605D01*
X017253Y013605D01*
X017130Y013656D01*
X017036Y013750D01*
X016985Y013873D01*
X016985Y014007D01*
X017036Y014130D01*
X017130Y014224D01*
X017253Y014275D01*
X017387Y014275D01*
X017415Y014263D01*
X017281Y014397D01*
X017240Y014496D01*
X017281Y014398D02*
X016955Y014398D01*
X016996Y014299D02*
X017379Y014299D01*
X017107Y014201D02*
X017005Y014201D01*
X016988Y014102D02*
X017025Y014102D01*
X016985Y014004D02*
X016937Y014004D01*
X016985Y013905D02*
X016809Y013905D01*
X017013Y013807D02*
X016246Y013807D01*
X016376Y013708D02*
X017078Y013708D01*
X017243Y013610D02*
X016427Y013610D01*
X016481Y013511D02*
X017306Y013511D01*
X017191Y013413D02*
X016562Y013413D01*
X016590Y013314D02*
X017092Y013314D01*
X016994Y013216D02*
X016590Y013216D01*
X015922Y013216D02*
X014280Y013216D01*
X014280Y013314D02*
X015825Y013314D01*
X015784Y013413D02*
X014280Y013413D01*
X014280Y013511D02*
X015775Y013511D01*
X015793Y013610D02*
X014280Y013610D01*
X014818Y013708D02*
X015844Y013708D01*
X015975Y013807D02*
X014916Y013807D01*
X015015Y013905D02*
X016531Y013905D01*
X016403Y014004D02*
X015040Y014004D01*
X015040Y014102D02*
X016352Y014102D01*
X016335Y014201D02*
X015040Y014201D01*
X015040Y014299D02*
X016344Y014299D01*
X016385Y014398D02*
X015979Y014398D01*
X016026Y014496D02*
X016485Y014496D01*
X016544Y014595D02*
X016026Y014595D01*
X015959Y015186D02*
X016592Y015186D01*
X014886Y015186D02*
X014280Y015186D01*
X014280Y015087D02*
X014819Y015087D01*
X014819Y014989D02*
X014280Y014989D01*
X014280Y014890D02*
X014819Y014890D01*
X014819Y014792D02*
X014280Y014792D01*
X014280Y014693D02*
X014819Y014693D01*
X014815Y014595D02*
X014819Y014595D01*
X013740Y014693D02*
X012220Y014693D01*
X012220Y014792D02*
X013740Y014792D01*
X013740Y014890D02*
X012220Y014890D01*
X012220Y014989D02*
X013740Y014989D01*
X013740Y015087D02*
X012220Y015087D01*
X012220Y015186D02*
X013740Y015186D01*
X013740Y015284D02*
X012220Y015284D01*
X012220Y015383D02*
X013740Y015383D01*
X013740Y015481D02*
X012241Y015481D01*
X012350Y015580D02*
X013740Y015580D01*
X013243Y015678D02*
X012798Y015678D01*
X012896Y015777D02*
X013144Y015777D01*
X013046Y015875D02*
X012995Y015875D01*
X012815Y014595D02*
X013205Y014595D01*
X013107Y014496D02*
X012914Y014496D01*
X012916Y013807D02*
X013104Y013807D01*
X013203Y013708D02*
X012818Y013708D01*
X012203Y013708D02*
X010707Y013708D01*
X010805Y013807D02*
X012104Y013807D01*
X012006Y013905D02*
X010904Y013905D01*
X011002Y014004D02*
X011980Y014004D01*
X011980Y014102D02*
X011101Y014102D01*
X011199Y014201D02*
X011980Y014201D01*
X011980Y014299D02*
X011898Y014299D01*
X011996Y014398D02*
X012008Y014398D01*
X012086Y014487D02*
X012086Y014487D01*
X012095Y014496D02*
X012107Y014496D01*
X012181Y014595D02*
X012205Y014595D01*
X013740Y013610D02*
X010608Y013610D01*
X010510Y013511D02*
X013740Y013511D01*
X013740Y013413D02*
X010411Y013413D01*
X010313Y013314D02*
X013740Y013314D01*
X013740Y013216D02*
X010214Y013216D01*
X012064Y013117D02*
X012556Y013117D01*
X012457Y013019D02*
X012163Y013019D01*
X012261Y012920D02*
X012359Y012920D01*
X013064Y013117D02*
X013556Y013117D01*
X013457Y013019D02*
X013163Y013019D01*
X013261Y012920D02*
X013359Y012920D01*
X014269Y012920D02*
X014359Y012920D01*
X014280Y013019D02*
X014457Y013019D01*
X014556Y013117D02*
X014280Y013117D01*
X015064Y013117D02*
X015556Y013117D01*
X015457Y013019D02*
X015163Y013019D01*
X015261Y012920D02*
X015359Y012920D01*
X015395Y011344D02*
X015225Y011344D01*
X015127Y011246D02*
X015493Y011246D01*
X015592Y011147D02*
X015028Y011147D01*
X014592Y011147D02*
X014028Y011147D01*
X014127Y011246D02*
X014493Y011246D01*
X014395Y011344D02*
X014225Y011344D01*
X013592Y011147D02*
X013028Y011147D01*
X013127Y011246D02*
X013493Y011246D01*
X013395Y011344D02*
X013225Y011344D01*
X012592Y011147D02*
X012028Y011147D01*
X012127Y011246D02*
X012493Y011246D01*
X012395Y011344D02*
X012225Y011344D01*
X016028Y011147D02*
X016592Y011147D01*
X016493Y011246D02*
X016127Y011246D01*
X016225Y011344D02*
X016395Y011344D01*
X017028Y011147D02*
X017592Y011147D01*
X017493Y011246D02*
X017127Y011246D01*
X017225Y011344D02*
X017395Y011344D01*
X018028Y011147D02*
X018592Y011147D01*
X018493Y011246D02*
X018127Y011246D01*
X018225Y011344D02*
X018395Y011344D01*
X019028Y011147D02*
X019599Y011147D01*
X019501Y011246D02*
X019127Y011246D01*
X019225Y011344D02*
X019402Y011344D01*
X019320Y011443D02*
X019320Y011443D01*
X019320Y011541D02*
X019320Y011541D01*
X019320Y011640D02*
X019320Y011640D01*
X019320Y011738D02*
X019320Y011738D01*
X019320Y011837D02*
X019320Y011837D01*
X019309Y012428D02*
X019320Y012428D01*
X019320Y012526D02*
X019320Y012526D01*
X019320Y012625D02*
X019320Y012625D01*
X019320Y012723D02*
X019320Y012723D01*
X019320Y012822D02*
X019320Y012822D01*
X019366Y012920D02*
X019261Y012920D01*
X019163Y013019D02*
X019465Y013019D01*
X019563Y013117D02*
X019064Y013117D01*
X019207Y013610D02*
X018730Y013610D01*
X018730Y013708D02*
X018914Y013708D01*
X018815Y013807D02*
X018730Y013807D01*
X019270Y014398D02*
X020918Y014398D01*
X020262Y014299D02*
X019978Y014299D01*
X019270Y014496D02*
X022496Y014496D01*
X022961Y014299D02*
X023110Y014299D01*
X023110Y014201D02*
X022995Y014201D01*
X022995Y014102D02*
X023110Y014102D01*
X023110Y014004D02*
X022962Y014004D01*
X022889Y013905D02*
X023110Y013905D01*
X020563Y013117D02*
X020157Y013117D01*
X020255Y013019D02*
X020465Y013019D01*
X020366Y012920D02*
X020354Y012920D01*
X020187Y013610D02*
X020034Y013610D01*
X020318Y011344D02*
X020402Y011344D01*
X020501Y011246D02*
X020219Y011246D01*
X020121Y011147D02*
X020599Y011147D01*
X021121Y011147D02*
X021599Y011147D01*
X021501Y011246D02*
X021219Y011246D01*
X021318Y011344D02*
X021402Y011344D01*
X019719Y015875D02*
X019670Y015875D01*
X019050Y016762D02*
X019033Y016762D01*
X019050Y016860D02*
X017994Y016860D01*
X018064Y016959D02*
X019050Y016959D01*
X018965Y017057D02*
X018095Y017057D01*
X018095Y017156D02*
X018866Y017156D01*
X018768Y017254D02*
X018059Y017254D01*
X018112Y017353D02*
X018669Y017353D01*
X018571Y017451D02*
X018145Y017451D01*
X018145Y017550D02*
X018472Y017550D01*
X018374Y017648D02*
X018111Y017648D01*
X018526Y018338D02*
X019754Y018338D01*
X019725Y018239D02*
X018659Y018239D01*
X018673Y018226D02*
X018673Y018226D01*
X018758Y018141D02*
X019725Y018141D01*
X019763Y018042D02*
X018856Y018042D01*
X018955Y017944D02*
X019836Y017944D01*
X019825Y017845D02*
X019053Y017845D01*
X019152Y017747D02*
X019725Y017747D01*
X019534Y017648D02*
X019250Y017648D01*
X019349Y017550D02*
X019459Y017550D01*
X021454Y018830D02*
X022496Y018830D01*
X022496Y018732D02*
X021548Y018732D01*
X021588Y018633D02*
X022496Y018633D01*
X022496Y018535D02*
X021657Y018535D01*
X021756Y018436D02*
X022496Y018436D01*
X022540Y018338D02*
X021854Y018338D01*
X021953Y018239D02*
X022932Y018239D01*
X022496Y018929D02*
X021512Y018929D01*
X021589Y019027D02*
X022496Y019027D01*
X022566Y019126D02*
X021630Y019126D01*
X021630Y019224D02*
X023110Y019224D01*
X023110Y019323D02*
X021610Y019323D01*
X021562Y019421D02*
X023110Y019421D01*
X014862Y019126D02*
X014130Y019126D01*
X013951Y019126D02*
X011845Y019126D01*
X011822Y019027D02*
X013793Y019027D01*
X013731Y018929D02*
X011899Y018929D01*
X011980Y018830D02*
X013705Y018830D01*
X013706Y018732D02*
X011980Y018732D01*
X011980Y018633D02*
X012254Y018633D01*
X012155Y018535D02*
X011980Y018535D01*
X011980Y018436D02*
X012057Y018436D01*
X011990Y018338D02*
X011980Y018338D01*
X011980Y018239D02*
X011990Y018239D01*
X012787Y018633D02*
X013254Y018633D01*
X013155Y018535D02*
X012885Y018535D01*
X012984Y018436D02*
X013057Y018436D01*
X012085Y019224D02*
X014819Y019224D01*
X014819Y019323D02*
X012147Y019323D01*
X012200Y019421D02*
X014819Y019421D01*
X014819Y019520D02*
X012298Y019520D01*
X010098Y019618D02*
X009972Y019618D01*
X010800Y016556D02*
X011353Y016556D01*
X011412Y016615D01*
X011490Y016615D01*
X011490Y016162D01*
X011348Y016020D01*
X010800Y016020D01*
X010800Y016287D01*
X010687Y016400D01*
X010800Y016513D01*
X010800Y016556D01*
X010753Y016466D02*
X011490Y016466D01*
X011490Y016368D02*
X010720Y016368D01*
X010800Y016269D02*
X011490Y016269D01*
X011490Y016171D02*
X010800Y016171D01*
X010800Y016072D02*
X011400Y016072D01*
X011361Y016565D02*
X011490Y016565D01*
X014805Y019618D02*
X014819Y019618D01*
D36*
X016360Y019950D02*
X017760Y018550D01*
X016760Y017650D02*
X017110Y017300D01*
X017110Y016500D01*
X017810Y015800D01*
X018110Y015750D02*
X018810Y016450D01*
X018910Y016450D01*
X018860Y015950D02*
X018460Y015550D01*
X018460Y013000D01*
X018810Y012650D01*
X019210Y012150D02*
X020360Y012150D01*
X020860Y011650D01*
X020860Y012650D02*
X020960Y012650D01*
X020960Y012880D01*
X021240Y013160D01*
X022990Y013160D01*
X023970Y014140D01*
X023970Y014899D01*
X023300Y015569D01*
X023429Y015569D01*
X023960Y016100D01*
X023910Y016050D01*
X023560Y016550D02*
X024610Y016550D01*
X023560Y016550D02*
X023366Y016356D01*
X023100Y016356D01*
X022966Y016450D01*
X022610Y016450D01*
X022010Y017050D01*
X021910Y017050D01*
X021341Y017050D01*
X021331Y017060D01*
X021331Y016560D02*
X021900Y016560D01*
X021910Y016550D01*
X022760Y015700D01*
X022760Y015600D01*
X022910Y015450D01*
X022941Y015450D01*
X023100Y015569D01*
X023300Y015569D01*
X023100Y014781D02*
X022579Y014781D01*
X021910Y015450D01*
X021441Y015450D01*
X021331Y015560D01*
X021320Y015550D01*
X021331Y015060D02*
X021800Y015060D01*
X021910Y014950D01*
X021331Y015060D02*
X021220Y014950D01*
X021331Y016060D02*
X021850Y016060D01*
X021910Y016000D01*
X023100Y017144D02*
X023100Y017940D01*
X023110Y017950D01*
X021860Y017950D01*
X021260Y018550D01*
X021331Y017560D02*
X019920Y017560D01*
X019760Y017400D01*
X018110Y015750D02*
X018115Y013525D01*
X018105Y013525D01*
X017810Y013230D01*
X017390Y013230D01*
X016810Y012650D01*
X016810Y012700D01*
X016320Y012380D02*
X016320Y013290D01*
X016110Y013500D01*
X016320Y012380D02*
X016060Y012120D01*
X013270Y012120D01*
X012810Y011660D01*
X012810Y011650D01*
X013810Y012650D02*
X013810Y012800D01*
X014010Y013000D01*
X014010Y017510D01*
X013860Y017650D01*
X012160Y017650D01*
X011645Y018165D01*
X011645Y018510D01*
X011310Y018525D02*
X011295Y018510D01*
X011310Y018525D02*
X011310Y018950D01*
X011510Y019150D01*
X011310Y019250D02*
X011310Y018950D01*
X011310Y019250D02*
X010616Y019944D01*
X010460Y019944D01*
X009610Y019944D01*
X010945Y018510D02*
X010655Y018220D01*
X010420Y018220D01*
X010790Y017850D01*
X011060Y017850D01*
X011760Y017150D01*
X011760Y016050D01*
X011460Y015750D01*
X010610Y015750D01*
X010480Y015880D01*
X010480Y015940D01*
X011010Y016944D02*
X011454Y016944D01*
X011460Y016950D01*
X010420Y018220D02*
X010340Y018220D01*
X014520Y017150D02*
X015450Y017150D01*
X016140Y016460D01*
X016760Y017650D02*
X015010Y017650D01*
X016360Y019950D02*
X016360Y020000D01*
X017510Y015400D02*
X017510Y014550D01*
X017710Y014350D01*
X017710Y013700D01*
X017610Y013600D01*
X016730Y014880D02*
X015521Y014880D01*
X015423Y014781D01*
X015310Y014669D01*
X015423Y014781D02*
X015610Y014781D01*
X015610Y014670D01*
X015710Y014681D02*
X015610Y014781D01*
X015521Y014880D02*
X015571Y014930D01*
X018810Y011750D02*
X019210Y012150D01*
X018810Y011750D02*
X018810Y011650D01*
X016360Y009900D02*
X016360Y009850D01*
X017760Y008450D01*
X016760Y007550D02*
X017110Y007200D01*
X017110Y006400D01*
X017810Y005700D01*
X018110Y005650D02*
X018810Y006350D01*
X018910Y006350D01*
X018860Y005850D02*
X018460Y005450D01*
X018460Y002900D01*
X018810Y002550D01*
X019210Y002050D02*
X020360Y002050D01*
X020860Y001550D01*
X020860Y002550D02*
X020960Y002550D01*
X020960Y002780D01*
X021240Y003060D01*
X022990Y003060D01*
X023970Y004040D01*
X023970Y004799D01*
X023300Y005469D01*
X023429Y005469D01*
X023960Y006000D01*
X023910Y005950D01*
X023560Y006450D02*
X023366Y006256D01*
X023100Y006256D01*
X022966Y006350D01*
X022610Y006350D01*
X022010Y006950D01*
X021910Y006950D01*
X021341Y006950D01*
X021331Y006960D01*
X021331Y006460D02*
X021900Y006460D01*
X021910Y006450D01*
X022760Y005600D01*
X022760Y005500D01*
X022910Y005350D01*
X022941Y005350D01*
X023100Y005469D01*
X023300Y005469D01*
X023560Y006450D02*
X024610Y006450D01*
X023100Y007044D02*
X023100Y007840D01*
X023110Y007850D01*
X021860Y007850D01*
X021260Y008450D01*
X021331Y007460D02*
X019920Y007460D01*
X019760Y007300D01*
X021331Y005960D02*
X021850Y005960D01*
X021910Y005900D01*
X021910Y005350D02*
X021441Y005350D01*
X021331Y005460D01*
X021320Y005450D01*
X021331Y004960D02*
X021800Y004960D01*
X021910Y004850D01*
X021910Y005350D02*
X022579Y004681D01*
X023100Y004681D01*
X021331Y004960D02*
X021220Y004850D01*
X018110Y005650D02*
X018115Y003425D01*
X018105Y003425D01*
X017810Y003130D01*
X017390Y003130D01*
X016810Y002550D01*
X016810Y002600D01*
X016320Y002280D02*
X016320Y003190D01*
X016110Y003400D01*
X016320Y002280D02*
X016060Y002020D01*
X013270Y002020D01*
X012810Y001560D01*
X012810Y001550D01*
X013810Y002550D02*
X013810Y002700D01*
X014010Y002900D01*
X014010Y007410D01*
X013860Y007550D01*
X012160Y007550D01*
X011645Y008065D01*
X011645Y008410D01*
X011310Y008425D02*
X011295Y008410D01*
X011310Y008425D02*
X011310Y008850D01*
X011510Y009050D01*
X011310Y009150D02*
X011310Y008850D01*
X011310Y009150D02*
X010616Y009844D01*
X010460Y009844D01*
X009610Y009844D01*
X010945Y008410D02*
X010655Y008120D01*
X010420Y008120D01*
X010790Y007750D01*
X011060Y007750D01*
X011760Y007050D01*
X011760Y005950D01*
X011460Y005650D01*
X010610Y005650D01*
X010480Y005780D01*
X010480Y005840D01*
X011010Y006844D02*
X011454Y006844D01*
X011460Y006850D01*
X010420Y008120D02*
X010340Y008120D01*
X014520Y007050D02*
X015450Y007050D01*
X016140Y006360D01*
X016760Y007550D02*
X015010Y007550D01*
X017510Y005300D02*
X017510Y004450D01*
X017710Y004250D01*
X017710Y003600D01*
X017610Y003500D01*
X016730Y004780D02*
X015521Y004780D01*
X015423Y004681D01*
X015310Y004569D01*
X015423Y004681D02*
X015610Y004681D01*
X015610Y004570D01*
X015710Y004581D02*
X015610Y004681D01*
X015521Y004780D02*
X015571Y004830D01*
X018810Y001650D02*
X019210Y002050D01*
X018810Y001650D02*
X018810Y001550D01*
X023060Y007800D02*
X023110Y007850D01*
X023060Y017900D02*
X023110Y017950D01*
D37*
X007670Y013900D02*
X006820Y013050D01*
X006310Y013050D01*
X007670Y003800D02*
X006820Y002950D01*
X006310Y002950D01*
M02*
