%
M48
M72
T01C0.0130
T02C0.0150
T03C0.0236
T04C0.0315
T05C0.0400
T06C0.0866
%
T01
X6460Y6100
X8410Y6650
X8560Y6050
X9310Y5450
X10690Y3500
X11460Y6100
X11460Y6850
X11010Y7250
X11510Y9050
X14040Y8700
X15010Y7550
X16300Y6870
X16140Y6360
X17610Y6550
X17760Y7000
X17810Y7400
X18460Y8350
X17760Y8450
X17260Y9850
X16360Y9900
X15860Y8850
X18060Y6150
X17810Y5700
X17510Y5300
X16730Y4780
X16670Y4110
X17320Y3840
X17610Y3500
X16110Y3400
X18860Y5850
X18910Y6350
X19810Y5450
X19410Y5150
X20160Y4450
X21910Y4850
X21910Y5350
X21910Y5900
X21910Y6450
X21910Y6950
X23110Y7850
X21260Y8450
X20060Y8100
X20160Y7750
X19760Y7300
X19710Y9550
X22360Y9650
X24610Y6450
X23960Y6000
X24610Y5100
X22660Y4050
X21960Y3700
X17610Y13600
X17320Y13940
X16670Y14210
X16730Y14880
X17510Y15400
X17810Y15800
X18060Y16250
X17610Y16650
X17760Y17100
X17810Y17500
X17760Y18550
X18460Y18450
X19760Y17400
X20160Y17850
X20060Y18200
X21260Y18550
X22360Y19750
X23110Y17950
X21910Y17050
X21910Y16550
X21910Y16000
X21910Y15450
X21910Y14950
X22660Y14150
X21960Y13800
X20160Y14550
X19410Y15250
X19810Y15550
X18860Y15950
X18910Y16450
X16300Y16970
X16140Y16460
X15010Y17650
X14040Y18800
X15860Y18950
X16360Y20000
X17260Y19950
X19710Y19650
X23960Y16100
X24610Y16550
X24610Y15200
X16110Y13500
X11460Y16200
X11460Y16950
X11010Y17350
X9310Y15550
X8560Y16150
X8410Y16750
X6460Y16200
X7310Y19850
X11510Y19150
X10690Y13600
X7310Y9750
T02
X21260Y9100
X21260Y19200
T03
X11760Y19550
X7160Y18550
X6310Y13050
X7160Y8450
X11760Y9450
X6310Y2950
T04
X24520Y8190
X24520Y18290
T05
X21860Y12650
X20860Y12650
X19860Y12650
X19860Y11650
X20860Y11650
X21860Y11650
X22960Y11650
X18810Y11650
X17810Y11650
X16810Y11650
X15810Y11650
X14810Y11650
X13810Y11650
X12810Y11650
X11810Y11650
X10810Y11650
X9810Y11650
X9810Y12650
X10810Y12650
X11810Y12650
X12810Y12650
X13810Y12650
X14810Y12650
X15810Y12650
X16810Y12650
X17810Y12650
X18810Y12650
X14510Y14150
X13510Y14150
X12510Y14150
X12510Y15150
X12520Y16150
X12520Y17150
X12520Y18150
X13520Y18150
X14520Y18150
X14520Y17150
X13520Y17150
X13520Y16150
X14520Y16150
X14510Y15150
X13510Y15150
X8560Y12650
X8560Y11650
X12520Y8050
X12520Y7050
X12520Y6050
X12510Y5050
X12510Y4050
X13510Y4050
X14510Y4050
X14510Y5050
X13510Y5050
X13520Y6050
X14520Y6050
X14520Y7050
X13520Y7050
X13520Y8050
X14520Y8050
X14810Y2550
X13810Y2550
X12810Y2550
X11810Y2550
X10810Y2550
X9810Y2550
X9810Y1550
X10810Y1550
X11810Y1550
X12810Y1550
X13810Y1550
X14810Y1550
X15810Y1550
X16810Y1550
X16810Y2550
X15810Y2550
X17810Y2550
X18810Y2550
X18810Y1550
X17810Y1550
X19860Y1550
X19860Y2550
X20860Y2550
X21860Y2550
X21860Y1550
X20860Y1550
X22960Y1550
X8560Y1550
X8560Y2550
T06
X6508Y1698
X6508Y9372
X6508Y11798
X6508Y19472
X24318Y19472
X24318Y11798
X24318Y9372
X24318Y1698
M30
