G75*
%MOIN*%
%OFA0B0*%
%FSLAX24Y24*%
%IPPOS*%
%LPD*%
%AMOC8*
5,1,8,0,0,1.08239X$1,22.5*
%
%ADD10C,0.0060*%
%ADD11C,0.0000*%
%ADD12C,0.0020*%
%ADD13C,0.0030*%
%ADD14C,0.0400*%
%ADD15C,0.0050*%
%ADD16C,0.0079*%
%ADD17C,0.0080*%
D10*
X005910Y003300D02*
X005910Y004300D01*
X005912Y004317D01*
X005916Y004334D01*
X005923Y004350D01*
X005933Y004364D01*
X005946Y004377D01*
X005960Y004387D01*
X005976Y004394D01*
X005993Y004398D01*
X006010Y004400D01*
X006610Y004400D01*
X006627Y004398D01*
X006644Y004394D01*
X006660Y004387D01*
X006674Y004377D01*
X006687Y004364D01*
X006697Y004350D01*
X006704Y004334D01*
X006708Y004317D01*
X006710Y004300D01*
X006710Y003300D01*
X006708Y003283D01*
X006704Y003266D01*
X006697Y003250D01*
X006687Y003236D01*
X006674Y003223D01*
X006660Y003213D01*
X006644Y003206D01*
X006627Y003202D01*
X006610Y003200D01*
X006010Y003200D01*
X005993Y003202D01*
X005976Y003206D01*
X005960Y003213D01*
X005946Y003223D01*
X005933Y003236D01*
X005923Y003250D01*
X005916Y003266D01*
X005912Y003283D01*
X005910Y003300D01*
X007392Y004114D02*
X007628Y004114D01*
X007628Y004586D02*
X007392Y004586D01*
X007340Y005440D02*
X007440Y005440D01*
X007680Y005440D01*
X007780Y005440D01*
X008724Y004718D02*
X008724Y004482D01*
X009196Y004482D02*
X009196Y004718D01*
X009970Y004430D02*
X010150Y004430D01*
X010110Y004540D02*
X010091Y004547D01*
X010070Y004551D01*
X010050Y004551D01*
X010029Y004547D01*
X010010Y004540D01*
X009970Y005270D02*
X010150Y005270D01*
X010150Y006050D02*
X010540Y006050D01*
X010540Y006410D01*
X010540Y006890D02*
X010540Y007250D01*
X010380Y007250D01*
X010150Y007250D01*
X010220Y007140D02*
X010240Y007134D01*
X010261Y007132D01*
X010282Y007134D01*
X010302Y007139D01*
X010321Y007147D01*
X010338Y007159D01*
X010352Y007174D01*
X010365Y007191D01*
X010373Y007209D01*
X010379Y007229D01*
X010381Y007250D01*
X009980Y006780D02*
X009980Y006520D01*
X009340Y008200D02*
X008950Y008200D01*
X009340Y008200D02*
X009340Y008560D01*
X009340Y009040D02*
X009340Y009400D01*
X009180Y009400D01*
X008950Y009400D01*
X009020Y009290D02*
X009040Y009284D01*
X009061Y009282D01*
X009082Y009284D01*
X009102Y009289D01*
X009121Y009297D01*
X009138Y009309D01*
X009152Y009324D01*
X009165Y009341D01*
X009173Y009359D01*
X009179Y009379D01*
X009181Y009400D01*
X008780Y008930D02*
X008780Y008670D01*
X009860Y008550D02*
X009860Y009550D01*
X009862Y009567D01*
X009866Y009584D01*
X009873Y009600D01*
X009883Y009614D01*
X009896Y009627D01*
X009910Y009637D01*
X009926Y009644D01*
X009943Y009648D01*
X009960Y009650D01*
X010560Y009650D01*
X010577Y009648D01*
X010594Y009644D01*
X010610Y009637D01*
X010624Y009627D01*
X010637Y009614D01*
X010647Y009600D01*
X010654Y009584D01*
X010658Y009567D01*
X010660Y009550D01*
X010660Y008550D01*
X010658Y008533D01*
X010654Y008516D01*
X010647Y008500D01*
X010637Y008486D01*
X010624Y008473D01*
X010610Y008463D01*
X010594Y008456D01*
X010577Y008452D01*
X010560Y008450D01*
X009960Y008450D01*
X009943Y008452D01*
X009926Y008456D01*
X009910Y008463D01*
X009896Y008473D01*
X009883Y008486D01*
X009873Y008500D01*
X009866Y008516D01*
X009862Y008533D01*
X009860Y008550D01*
X012020Y008300D02*
X012020Y007800D01*
X012270Y007550D01*
X012020Y007300D01*
X012020Y006800D01*
X012270Y006550D01*
X012770Y006550D01*
X013020Y006800D01*
X013270Y006550D01*
X013770Y006550D01*
X014020Y006800D01*
X014270Y006550D01*
X014770Y006550D01*
X015020Y006800D01*
X015020Y007300D01*
X014770Y007550D01*
X014270Y007550D01*
X014020Y007300D01*
X013770Y007550D01*
X013270Y007550D01*
X013020Y007300D01*
X012770Y007550D01*
X012270Y007550D01*
X012770Y007550D01*
X013020Y007800D01*
X013270Y007550D01*
X013770Y007550D01*
X014020Y007800D01*
X014270Y007550D01*
X014770Y007550D01*
X015020Y007800D01*
X015020Y008300D01*
X014770Y008550D01*
X014270Y008550D01*
X014020Y008300D01*
X013770Y008550D01*
X013270Y008550D01*
X013020Y008300D01*
X012770Y008550D01*
X012270Y008550D01*
X012020Y008300D01*
X012270Y006550D02*
X012020Y006300D01*
X012020Y005800D01*
X012270Y005550D01*
X012770Y005550D01*
X013020Y005800D01*
X013270Y005550D01*
X013770Y005550D01*
X014020Y005800D01*
X014270Y005550D01*
X014770Y005550D01*
X015020Y005800D01*
X015020Y006300D01*
X014770Y006550D01*
X014270Y006550D01*
X014020Y006300D01*
X013770Y006550D01*
X013270Y006550D01*
X013020Y006300D01*
X012770Y006550D01*
X012270Y006550D01*
X012260Y005550D02*
X012010Y005300D01*
X012010Y004800D01*
X012260Y004550D01*
X012760Y004550D01*
X013010Y004800D01*
X013260Y004550D01*
X013760Y004550D01*
X014010Y004800D01*
X014260Y004550D01*
X014760Y004550D01*
X015010Y004800D01*
X015010Y005300D01*
X014760Y005550D01*
X014260Y005550D01*
X014010Y005300D01*
X013760Y005550D01*
X013260Y005550D01*
X013010Y005300D01*
X012760Y005550D01*
X012260Y005550D01*
X012260Y004550D02*
X012010Y004300D01*
X012010Y003800D01*
X012260Y003550D01*
X012760Y003550D01*
X013010Y003800D01*
X013260Y003550D01*
X013760Y003550D01*
X014010Y003800D01*
X014260Y003550D01*
X014760Y003550D01*
X015010Y003800D01*
X015010Y004300D01*
X014760Y004550D01*
X014260Y004550D01*
X014010Y004300D01*
X013760Y004550D01*
X013260Y004550D01*
X013010Y004300D01*
X012760Y004550D01*
X012260Y004550D01*
X012060Y003050D02*
X011560Y003050D01*
X011310Y002800D01*
X011310Y001300D01*
X011560Y001050D01*
X012060Y001050D01*
X012310Y001300D01*
X012310Y002800D01*
X012560Y003050D01*
X013060Y003050D01*
X013310Y002800D01*
X013310Y001300D01*
X013560Y001050D01*
X014060Y001050D01*
X014310Y001300D01*
X014310Y002800D01*
X014560Y003050D01*
X015060Y003050D01*
X015310Y002800D01*
X015310Y001300D01*
X015560Y001050D01*
X016060Y001050D01*
X016310Y001300D01*
X016310Y002800D01*
X016560Y003050D01*
X017060Y003050D01*
X017310Y002800D01*
X017310Y001300D01*
X017060Y001050D01*
X016560Y001050D01*
X016310Y001300D01*
X017310Y001300D02*
X017560Y001050D01*
X018060Y001050D01*
X018310Y001300D01*
X018560Y001050D01*
X019060Y001050D01*
X019310Y001300D01*
X019310Y002800D01*
X019060Y003050D01*
X018560Y003050D01*
X018310Y002800D01*
X018310Y001300D01*
X019360Y001300D02*
X019360Y002800D01*
X019610Y003050D01*
X020110Y003050D01*
X020360Y002800D01*
X020360Y001300D01*
X020610Y001050D01*
X021110Y001050D01*
X021360Y001300D01*
X021610Y001050D01*
X022110Y001050D01*
X022360Y001300D01*
X022360Y002800D01*
X022110Y003050D01*
X021610Y003050D01*
X021360Y002800D01*
X021360Y001300D01*
X020360Y001300D02*
X020110Y001050D01*
X019610Y001050D01*
X019360Y001300D01*
X020360Y002800D02*
X020610Y003050D01*
X021110Y003050D01*
X021360Y002800D01*
X022460Y001800D02*
X022710Y002050D01*
X023210Y002050D01*
X023460Y001800D01*
X023460Y001300D01*
X023210Y001050D01*
X022710Y001050D01*
X022460Y001300D01*
X022460Y001800D01*
X018310Y002800D02*
X018060Y003050D01*
X017560Y003050D01*
X017310Y002800D01*
X016310Y002800D02*
X016060Y003050D01*
X015560Y003050D01*
X015310Y002800D01*
X014310Y002800D02*
X014060Y003050D01*
X013560Y003050D01*
X013310Y002800D01*
X012310Y002800D02*
X012060Y003050D01*
X011310Y002800D02*
X011060Y003050D01*
X010560Y003050D01*
X010310Y002800D01*
X010310Y001300D01*
X010560Y001050D01*
X011060Y001050D01*
X011310Y001300D01*
X010310Y001300D02*
X010060Y001050D01*
X009560Y001050D01*
X009310Y001300D01*
X009310Y002800D01*
X009560Y003050D01*
X010060Y003050D01*
X010310Y002800D01*
X012310Y001300D02*
X012560Y001050D01*
X013060Y001050D01*
X013310Y001300D01*
X014310Y001300D02*
X014560Y001050D01*
X015060Y001050D01*
X015310Y001300D01*
X007780Y006660D02*
X007340Y006660D01*
X006110Y010220D02*
X024710Y010220D01*
X024710Y010950D02*
X006110Y010950D01*
X006010Y013300D02*
X006610Y013300D01*
X006627Y013302D01*
X006644Y013306D01*
X006660Y013313D01*
X006674Y013323D01*
X006687Y013336D01*
X006697Y013350D01*
X006704Y013366D01*
X006708Y013383D01*
X006710Y013400D01*
X006710Y014400D01*
X006708Y014417D01*
X006704Y014434D01*
X006697Y014450D01*
X006687Y014464D01*
X006674Y014477D01*
X006660Y014487D01*
X006644Y014494D01*
X006627Y014498D01*
X006610Y014500D01*
X006010Y014500D01*
X005993Y014498D01*
X005976Y014494D01*
X005960Y014487D01*
X005946Y014477D01*
X005933Y014464D01*
X005923Y014450D01*
X005916Y014434D01*
X005912Y014417D01*
X005910Y014400D01*
X005910Y013400D01*
X005912Y013383D01*
X005916Y013366D01*
X005923Y013350D01*
X005933Y013336D01*
X005946Y013323D01*
X005960Y013313D01*
X005976Y013306D01*
X005993Y013302D01*
X006010Y013300D01*
X007392Y014214D02*
X007628Y014214D01*
X007628Y014686D02*
X007392Y014686D01*
X007340Y015540D02*
X007440Y015540D01*
X007680Y015540D01*
X007780Y015540D01*
X008724Y014818D02*
X008724Y014582D01*
X009196Y014582D02*
X009196Y014818D01*
X009970Y014530D02*
X010150Y014530D01*
X010110Y014640D02*
X010091Y014647D01*
X010070Y014651D01*
X010050Y014651D01*
X010029Y014647D01*
X010010Y014640D01*
X009970Y015370D02*
X010150Y015370D01*
X010150Y016150D02*
X010540Y016150D01*
X010540Y016510D01*
X010540Y016990D02*
X010540Y017350D01*
X010380Y017350D01*
X010150Y017350D01*
X010220Y017240D02*
X010240Y017234D01*
X010261Y017232D01*
X010282Y017234D01*
X010302Y017239D01*
X010321Y017247D01*
X010338Y017259D01*
X010352Y017274D01*
X010365Y017291D01*
X010373Y017309D01*
X010379Y017329D01*
X010381Y017350D01*
X009980Y016880D02*
X009980Y016620D01*
X009340Y018300D02*
X008950Y018300D01*
X009340Y018300D02*
X009340Y018660D01*
X009340Y019140D02*
X009340Y019500D01*
X009180Y019500D01*
X008950Y019500D01*
X009020Y019390D02*
X009040Y019384D01*
X009061Y019382D01*
X009082Y019384D01*
X009102Y019389D01*
X009121Y019397D01*
X009138Y019409D01*
X009152Y019424D01*
X009165Y019441D01*
X009173Y019459D01*
X009179Y019479D01*
X009181Y019500D01*
X008780Y019030D02*
X008780Y018770D01*
X009860Y018650D02*
X009860Y019650D01*
X009862Y019667D01*
X009866Y019684D01*
X009873Y019700D01*
X009883Y019714D01*
X009896Y019727D01*
X009910Y019737D01*
X009926Y019744D01*
X009943Y019748D01*
X009960Y019750D01*
X010560Y019750D01*
X010577Y019748D01*
X010594Y019744D01*
X010610Y019737D01*
X010624Y019727D01*
X010637Y019714D01*
X010647Y019700D01*
X010654Y019684D01*
X010658Y019667D01*
X010660Y019650D01*
X010660Y018650D01*
X010658Y018633D01*
X010654Y018616D01*
X010647Y018600D01*
X010637Y018586D01*
X010624Y018573D01*
X010610Y018563D01*
X010594Y018556D01*
X010577Y018552D01*
X010560Y018550D01*
X009960Y018550D01*
X009943Y018552D01*
X009926Y018556D01*
X009910Y018563D01*
X009896Y018573D01*
X009883Y018586D01*
X009873Y018600D01*
X009866Y018616D01*
X009862Y018633D01*
X009860Y018650D01*
X012020Y018400D02*
X012020Y017900D01*
X012270Y017650D01*
X012020Y017400D01*
X012020Y016900D01*
X012270Y016650D01*
X012770Y016650D01*
X013020Y016900D01*
X013270Y016650D01*
X013770Y016650D01*
X014020Y016900D01*
X014270Y016650D01*
X014770Y016650D01*
X015020Y016900D01*
X015020Y017400D01*
X014770Y017650D01*
X014270Y017650D01*
X014020Y017400D01*
X013770Y017650D01*
X013270Y017650D01*
X013020Y017400D01*
X012770Y017650D01*
X012270Y017650D01*
X012770Y017650D01*
X013020Y017900D01*
X013270Y017650D01*
X013770Y017650D01*
X014020Y017900D01*
X014270Y017650D01*
X014770Y017650D01*
X015020Y017900D01*
X015020Y018400D01*
X014770Y018650D01*
X014270Y018650D01*
X014020Y018400D01*
X013770Y018650D01*
X013270Y018650D01*
X013020Y018400D01*
X012770Y018650D01*
X012270Y018650D01*
X012020Y018400D01*
X012270Y016650D02*
X012020Y016400D01*
X012020Y015900D01*
X012270Y015650D01*
X012770Y015650D01*
X013020Y015900D01*
X013270Y015650D01*
X013770Y015650D01*
X014020Y015900D01*
X014270Y015650D01*
X014770Y015650D01*
X015020Y015900D01*
X015020Y016400D01*
X014770Y016650D01*
X014270Y016650D01*
X014020Y016400D01*
X013770Y016650D01*
X013270Y016650D01*
X013020Y016400D01*
X012770Y016650D01*
X012270Y016650D01*
X012260Y015650D02*
X012010Y015400D01*
X012010Y014900D01*
X012260Y014650D01*
X012760Y014650D01*
X013010Y014900D01*
X013260Y014650D01*
X013760Y014650D01*
X014010Y014900D01*
X014260Y014650D01*
X014760Y014650D01*
X015010Y014900D01*
X015010Y015400D01*
X014760Y015650D01*
X014260Y015650D01*
X014010Y015400D01*
X013760Y015650D01*
X013260Y015650D01*
X013010Y015400D01*
X012760Y015650D01*
X012260Y015650D01*
X012260Y014650D02*
X012010Y014400D01*
X012010Y013900D01*
X012260Y013650D01*
X012760Y013650D01*
X013010Y013900D01*
X013260Y013650D01*
X013760Y013650D01*
X014010Y013900D01*
X014260Y013650D01*
X014760Y013650D01*
X015010Y013900D01*
X015010Y014400D01*
X014760Y014650D01*
X014260Y014650D01*
X014010Y014400D01*
X013760Y014650D01*
X013260Y014650D01*
X013010Y014400D01*
X012760Y014650D01*
X012260Y014650D01*
X012060Y013150D02*
X011560Y013150D01*
X011310Y012900D01*
X011310Y011400D01*
X011560Y011150D01*
X012060Y011150D01*
X012310Y011400D01*
X012310Y012900D01*
X012560Y013150D01*
X013060Y013150D01*
X013310Y012900D01*
X013310Y011400D01*
X013560Y011150D01*
X014060Y011150D01*
X014310Y011400D01*
X014310Y012900D01*
X014560Y013150D01*
X015060Y013150D01*
X015310Y012900D01*
X015310Y011400D01*
X015560Y011150D01*
X016060Y011150D01*
X016310Y011400D01*
X016310Y012900D01*
X016560Y013150D01*
X017060Y013150D01*
X017310Y012900D01*
X017310Y011400D01*
X017060Y011150D01*
X016560Y011150D01*
X016310Y011400D01*
X017310Y011400D02*
X017560Y011150D01*
X018060Y011150D01*
X018310Y011400D01*
X018560Y011150D01*
X019060Y011150D01*
X019310Y011400D01*
X019310Y012900D01*
X019060Y013150D01*
X018560Y013150D01*
X018310Y012900D01*
X018310Y011400D01*
X019360Y011400D02*
X019360Y012900D01*
X019610Y013150D01*
X020110Y013150D01*
X020360Y012900D01*
X020360Y011400D01*
X020610Y011150D01*
X021110Y011150D01*
X021360Y011400D01*
X021610Y011150D01*
X022110Y011150D01*
X022360Y011400D01*
X022360Y012900D01*
X022110Y013150D01*
X021610Y013150D01*
X021360Y012900D01*
X021360Y011400D01*
X020360Y011400D02*
X020110Y011150D01*
X019610Y011150D01*
X019360Y011400D01*
X020360Y010150D02*
X020960Y010150D01*
X020977Y010148D01*
X020994Y010144D01*
X021010Y010137D01*
X021024Y010127D01*
X021037Y010114D01*
X021047Y010100D01*
X021054Y010084D01*
X021058Y010067D01*
X021060Y010050D01*
X021060Y009050D01*
X021058Y009033D01*
X021054Y009016D01*
X021047Y009000D01*
X021037Y008986D01*
X021024Y008973D01*
X021010Y008963D01*
X020994Y008956D01*
X020977Y008952D01*
X020960Y008950D01*
X020360Y008950D01*
X020343Y008952D01*
X020326Y008956D01*
X020310Y008963D01*
X020296Y008973D01*
X020283Y008986D01*
X020273Y009000D01*
X020266Y009016D01*
X020262Y009033D01*
X020260Y009050D01*
X020260Y010050D01*
X020262Y010067D01*
X020266Y010084D01*
X020273Y010100D01*
X020283Y010114D01*
X020296Y010127D01*
X020310Y010137D01*
X020326Y010144D01*
X020343Y010148D01*
X020360Y010150D01*
X022460Y011400D02*
X022460Y011900D01*
X022710Y012150D01*
X023210Y012150D01*
X023460Y011900D01*
X023460Y011400D01*
X023210Y011150D01*
X022710Y011150D01*
X022460Y011400D01*
X021360Y012900D02*
X021110Y013150D01*
X020610Y013150D01*
X020360Y012900D01*
X018310Y012900D02*
X018060Y013150D01*
X017560Y013150D01*
X017310Y012900D01*
X016310Y012900D02*
X016060Y013150D01*
X015560Y013150D01*
X015310Y012900D01*
X014310Y012900D02*
X014060Y013150D01*
X013560Y013150D01*
X013310Y012900D01*
X012310Y012900D02*
X012060Y013150D01*
X011310Y012900D02*
X011060Y013150D01*
X010560Y013150D01*
X010310Y012900D01*
X010310Y011400D01*
X010560Y011150D01*
X011060Y011150D01*
X011310Y011400D01*
X010310Y011400D02*
X010060Y011150D01*
X009560Y011150D01*
X009310Y011400D01*
X009310Y012900D01*
X009560Y013150D01*
X010060Y013150D01*
X010310Y012900D01*
X012310Y011400D02*
X012560Y011150D01*
X013060Y011150D01*
X013310Y011400D01*
X014310Y011400D02*
X014560Y011150D01*
X015060Y011150D01*
X015310Y011400D01*
X007780Y016760D02*
X007340Y016760D01*
X020260Y019150D02*
X020260Y020150D01*
X020262Y020167D01*
X020266Y020184D01*
X020273Y020200D01*
X020283Y020214D01*
X020296Y020227D01*
X020310Y020237D01*
X020326Y020244D01*
X020343Y020248D01*
X020360Y020250D01*
X020960Y020250D01*
X020977Y020248D01*
X020994Y020244D01*
X021010Y020237D01*
X021024Y020227D01*
X021037Y020214D01*
X021047Y020200D01*
X021054Y020184D01*
X021058Y020167D01*
X021060Y020150D01*
X021060Y019150D01*
X021058Y019133D01*
X021054Y019116D01*
X021047Y019100D01*
X021037Y019086D01*
X021024Y019073D01*
X021010Y019063D01*
X020994Y019056D01*
X020977Y019052D01*
X020960Y019050D01*
X020360Y019050D01*
X020343Y019052D01*
X020326Y019056D01*
X020310Y019063D01*
X020296Y019073D01*
X020283Y019086D01*
X020273Y019100D01*
X020266Y019116D01*
X020262Y019133D01*
X020260Y019150D01*
D11*
X005610Y019820D02*
X005610Y001350D01*
X005612Y001306D01*
X005618Y001263D01*
X005627Y001221D01*
X005640Y001179D01*
X005657Y001139D01*
X005677Y001100D01*
X005700Y001063D01*
X005727Y001029D01*
X005756Y000996D01*
X005789Y000967D01*
X005823Y000940D01*
X005860Y000917D01*
X005899Y000897D01*
X005939Y000880D01*
X005981Y000867D01*
X006023Y000858D01*
X006066Y000852D01*
X006110Y000850D01*
X024716Y000850D01*
X024760Y000852D01*
X024803Y000858D01*
X024845Y000867D01*
X024887Y000880D01*
X024927Y000897D01*
X024966Y000917D01*
X025003Y000940D01*
X025037Y000967D01*
X025070Y000996D01*
X025099Y001029D01*
X025126Y001063D01*
X025149Y001100D01*
X025169Y001139D01*
X025186Y001179D01*
X025199Y001221D01*
X025208Y001263D01*
X025214Y001306D01*
X025216Y001350D01*
X025216Y019820D01*
X025214Y019864D01*
X025208Y019907D01*
X025199Y019949D01*
X025186Y019991D01*
X025169Y020031D01*
X025149Y020070D01*
X025126Y020107D01*
X025099Y020141D01*
X025070Y020174D01*
X025037Y020203D01*
X025003Y020230D01*
X024966Y020253D01*
X024927Y020273D01*
X024887Y020290D01*
X024845Y020303D01*
X024803Y020312D01*
X024760Y020318D01*
X024716Y020320D01*
X006110Y020320D01*
X006066Y020318D01*
X006023Y020312D01*
X005981Y020303D01*
X005939Y020290D01*
X005899Y020273D01*
X005860Y020253D01*
X005823Y020230D01*
X005789Y020203D01*
X005756Y020174D01*
X005727Y020141D01*
X005700Y020107D01*
X005677Y020070D01*
X005657Y020031D01*
X005640Y019991D01*
X005627Y019949D01*
X005618Y019907D01*
X005612Y019864D01*
X005610Y019820D01*
X006075Y019472D02*
X006077Y019513D01*
X006083Y019554D01*
X006093Y019594D01*
X006106Y019633D01*
X006123Y019670D01*
X006144Y019706D01*
X006168Y019740D01*
X006195Y019771D01*
X006224Y019799D01*
X006257Y019825D01*
X006291Y019847D01*
X006328Y019866D01*
X006366Y019881D01*
X006406Y019893D01*
X006446Y019901D01*
X006487Y019905D01*
X006529Y019905D01*
X006570Y019901D01*
X006610Y019893D01*
X006650Y019881D01*
X006688Y019866D01*
X006724Y019847D01*
X006759Y019825D01*
X006792Y019799D01*
X006821Y019771D01*
X006848Y019740D01*
X006872Y019706D01*
X006893Y019670D01*
X006910Y019633D01*
X006923Y019594D01*
X006933Y019554D01*
X006939Y019513D01*
X006941Y019472D01*
X006939Y019431D01*
X006933Y019390D01*
X006923Y019350D01*
X006910Y019311D01*
X006893Y019274D01*
X006872Y019238D01*
X006848Y019204D01*
X006821Y019173D01*
X006792Y019145D01*
X006759Y019119D01*
X006725Y019097D01*
X006688Y019078D01*
X006650Y019063D01*
X006610Y019051D01*
X006570Y019043D01*
X006529Y019039D01*
X006487Y019039D01*
X006446Y019043D01*
X006406Y019051D01*
X006366Y019063D01*
X006328Y019078D01*
X006292Y019097D01*
X006257Y019119D01*
X006224Y019145D01*
X006195Y019173D01*
X006168Y019204D01*
X006144Y019238D01*
X006123Y019274D01*
X006106Y019311D01*
X006093Y019350D01*
X006083Y019390D01*
X006077Y019431D01*
X006075Y019472D01*
X007440Y015540D02*
X007442Y015561D01*
X007447Y015581D01*
X007456Y015600D01*
X007468Y015617D01*
X007483Y015632D01*
X007500Y015644D01*
X007519Y015653D01*
X007539Y015658D01*
X007560Y015660D01*
X007581Y015658D01*
X007601Y015653D01*
X007620Y015644D01*
X007637Y015632D01*
X007652Y015617D01*
X007664Y015600D01*
X007673Y015581D01*
X007678Y015561D01*
X007680Y015540D01*
X006075Y011798D02*
X006077Y011839D01*
X006083Y011880D01*
X006093Y011920D01*
X006106Y011959D01*
X006123Y011996D01*
X006144Y012032D01*
X006168Y012066D01*
X006195Y012097D01*
X006224Y012125D01*
X006257Y012151D01*
X006291Y012173D01*
X006328Y012192D01*
X006366Y012207D01*
X006406Y012219D01*
X006446Y012227D01*
X006487Y012231D01*
X006529Y012231D01*
X006570Y012227D01*
X006610Y012219D01*
X006650Y012207D01*
X006688Y012192D01*
X006724Y012173D01*
X006759Y012151D01*
X006792Y012125D01*
X006821Y012097D01*
X006848Y012066D01*
X006872Y012032D01*
X006893Y011996D01*
X006910Y011959D01*
X006923Y011920D01*
X006933Y011880D01*
X006939Y011839D01*
X006941Y011798D01*
X006939Y011757D01*
X006933Y011716D01*
X006923Y011676D01*
X006910Y011637D01*
X006893Y011600D01*
X006872Y011564D01*
X006848Y011530D01*
X006821Y011499D01*
X006792Y011471D01*
X006759Y011445D01*
X006725Y011423D01*
X006688Y011404D01*
X006650Y011389D01*
X006610Y011377D01*
X006570Y011369D01*
X006529Y011365D01*
X006487Y011365D01*
X006446Y011369D01*
X006406Y011377D01*
X006366Y011389D01*
X006328Y011404D01*
X006292Y011423D01*
X006257Y011445D01*
X006224Y011471D01*
X006195Y011499D01*
X006168Y011530D01*
X006144Y011564D01*
X006123Y011600D01*
X006106Y011637D01*
X006093Y011676D01*
X006083Y011716D01*
X006077Y011757D01*
X006075Y011798D01*
X006075Y009372D02*
X006077Y009413D01*
X006083Y009454D01*
X006093Y009494D01*
X006106Y009533D01*
X006123Y009570D01*
X006144Y009606D01*
X006168Y009640D01*
X006195Y009671D01*
X006224Y009699D01*
X006257Y009725D01*
X006291Y009747D01*
X006328Y009766D01*
X006366Y009781D01*
X006406Y009793D01*
X006446Y009801D01*
X006487Y009805D01*
X006529Y009805D01*
X006570Y009801D01*
X006610Y009793D01*
X006650Y009781D01*
X006688Y009766D01*
X006724Y009747D01*
X006759Y009725D01*
X006792Y009699D01*
X006821Y009671D01*
X006848Y009640D01*
X006872Y009606D01*
X006893Y009570D01*
X006910Y009533D01*
X006923Y009494D01*
X006933Y009454D01*
X006939Y009413D01*
X006941Y009372D01*
X006939Y009331D01*
X006933Y009290D01*
X006923Y009250D01*
X006910Y009211D01*
X006893Y009174D01*
X006872Y009138D01*
X006848Y009104D01*
X006821Y009073D01*
X006792Y009045D01*
X006759Y009019D01*
X006725Y008997D01*
X006688Y008978D01*
X006650Y008963D01*
X006610Y008951D01*
X006570Y008943D01*
X006529Y008939D01*
X006487Y008939D01*
X006446Y008943D01*
X006406Y008951D01*
X006366Y008963D01*
X006328Y008978D01*
X006292Y008997D01*
X006257Y009019D01*
X006224Y009045D01*
X006195Y009073D01*
X006168Y009104D01*
X006144Y009138D01*
X006123Y009174D01*
X006106Y009211D01*
X006093Y009250D01*
X006083Y009290D01*
X006077Y009331D01*
X006075Y009372D01*
X007440Y005440D02*
X007442Y005461D01*
X007447Y005481D01*
X007456Y005500D01*
X007468Y005517D01*
X007483Y005532D01*
X007500Y005544D01*
X007519Y005553D01*
X007539Y005558D01*
X007560Y005560D01*
X007581Y005558D01*
X007601Y005553D01*
X007620Y005544D01*
X007637Y005532D01*
X007652Y005517D01*
X007664Y005500D01*
X007673Y005481D01*
X007678Y005461D01*
X007680Y005440D01*
X006075Y001698D02*
X006077Y001739D01*
X006083Y001780D01*
X006093Y001820D01*
X006106Y001859D01*
X006123Y001896D01*
X006144Y001932D01*
X006168Y001966D01*
X006195Y001997D01*
X006224Y002025D01*
X006257Y002051D01*
X006291Y002073D01*
X006328Y002092D01*
X006366Y002107D01*
X006406Y002119D01*
X006446Y002127D01*
X006487Y002131D01*
X006529Y002131D01*
X006570Y002127D01*
X006610Y002119D01*
X006650Y002107D01*
X006688Y002092D01*
X006724Y002073D01*
X006759Y002051D01*
X006792Y002025D01*
X006821Y001997D01*
X006848Y001966D01*
X006872Y001932D01*
X006893Y001896D01*
X006910Y001859D01*
X006923Y001820D01*
X006933Y001780D01*
X006939Y001739D01*
X006941Y001698D01*
X006939Y001657D01*
X006933Y001616D01*
X006923Y001576D01*
X006910Y001537D01*
X006893Y001500D01*
X006872Y001464D01*
X006848Y001430D01*
X006821Y001399D01*
X006792Y001371D01*
X006759Y001345D01*
X006725Y001323D01*
X006688Y001304D01*
X006650Y001289D01*
X006610Y001277D01*
X006570Y001269D01*
X006529Y001265D01*
X006487Y001265D01*
X006446Y001269D01*
X006406Y001277D01*
X006366Y001289D01*
X006328Y001304D01*
X006292Y001323D01*
X006257Y001345D01*
X006224Y001371D01*
X006195Y001399D01*
X006168Y001430D01*
X006144Y001464D01*
X006123Y001500D01*
X006106Y001537D01*
X006093Y001576D01*
X006083Y001616D01*
X006077Y001657D01*
X006075Y001698D01*
X023885Y001698D02*
X023887Y001739D01*
X023893Y001780D01*
X023903Y001820D01*
X023916Y001859D01*
X023933Y001896D01*
X023954Y001932D01*
X023978Y001966D01*
X024005Y001997D01*
X024034Y002025D01*
X024067Y002051D01*
X024101Y002073D01*
X024138Y002092D01*
X024176Y002107D01*
X024216Y002119D01*
X024256Y002127D01*
X024297Y002131D01*
X024339Y002131D01*
X024380Y002127D01*
X024420Y002119D01*
X024460Y002107D01*
X024498Y002092D01*
X024534Y002073D01*
X024569Y002051D01*
X024602Y002025D01*
X024631Y001997D01*
X024658Y001966D01*
X024682Y001932D01*
X024703Y001896D01*
X024720Y001859D01*
X024733Y001820D01*
X024743Y001780D01*
X024749Y001739D01*
X024751Y001698D01*
X024749Y001657D01*
X024743Y001616D01*
X024733Y001576D01*
X024720Y001537D01*
X024703Y001500D01*
X024682Y001464D01*
X024658Y001430D01*
X024631Y001399D01*
X024602Y001371D01*
X024569Y001345D01*
X024535Y001323D01*
X024498Y001304D01*
X024460Y001289D01*
X024420Y001277D01*
X024380Y001269D01*
X024339Y001265D01*
X024297Y001265D01*
X024256Y001269D01*
X024216Y001277D01*
X024176Y001289D01*
X024138Y001304D01*
X024102Y001323D01*
X024067Y001345D01*
X024034Y001371D01*
X024005Y001399D01*
X023978Y001430D01*
X023954Y001464D01*
X023933Y001500D01*
X023916Y001537D01*
X023903Y001576D01*
X023893Y001616D01*
X023887Y001657D01*
X023885Y001698D01*
X023885Y009372D02*
X023887Y009413D01*
X023893Y009454D01*
X023903Y009494D01*
X023916Y009533D01*
X023933Y009570D01*
X023954Y009606D01*
X023978Y009640D01*
X024005Y009671D01*
X024034Y009699D01*
X024067Y009725D01*
X024101Y009747D01*
X024138Y009766D01*
X024176Y009781D01*
X024216Y009793D01*
X024256Y009801D01*
X024297Y009805D01*
X024339Y009805D01*
X024380Y009801D01*
X024420Y009793D01*
X024460Y009781D01*
X024498Y009766D01*
X024534Y009747D01*
X024569Y009725D01*
X024602Y009699D01*
X024631Y009671D01*
X024658Y009640D01*
X024682Y009606D01*
X024703Y009570D01*
X024720Y009533D01*
X024733Y009494D01*
X024743Y009454D01*
X024749Y009413D01*
X024751Y009372D01*
X024749Y009331D01*
X024743Y009290D01*
X024733Y009250D01*
X024720Y009211D01*
X024703Y009174D01*
X024682Y009138D01*
X024658Y009104D01*
X024631Y009073D01*
X024602Y009045D01*
X024569Y009019D01*
X024535Y008997D01*
X024498Y008978D01*
X024460Y008963D01*
X024420Y008951D01*
X024380Y008943D01*
X024339Y008939D01*
X024297Y008939D01*
X024256Y008943D01*
X024216Y008951D01*
X024176Y008963D01*
X024138Y008978D01*
X024102Y008997D01*
X024067Y009019D01*
X024034Y009045D01*
X024005Y009073D01*
X023978Y009104D01*
X023954Y009138D01*
X023933Y009174D01*
X023916Y009211D01*
X023903Y009250D01*
X023893Y009290D01*
X023887Y009331D01*
X023885Y009372D01*
X023885Y011798D02*
X023887Y011839D01*
X023893Y011880D01*
X023903Y011920D01*
X023916Y011959D01*
X023933Y011996D01*
X023954Y012032D01*
X023978Y012066D01*
X024005Y012097D01*
X024034Y012125D01*
X024067Y012151D01*
X024101Y012173D01*
X024138Y012192D01*
X024176Y012207D01*
X024216Y012219D01*
X024256Y012227D01*
X024297Y012231D01*
X024339Y012231D01*
X024380Y012227D01*
X024420Y012219D01*
X024460Y012207D01*
X024498Y012192D01*
X024534Y012173D01*
X024569Y012151D01*
X024602Y012125D01*
X024631Y012097D01*
X024658Y012066D01*
X024682Y012032D01*
X024703Y011996D01*
X024720Y011959D01*
X024733Y011920D01*
X024743Y011880D01*
X024749Y011839D01*
X024751Y011798D01*
X024749Y011757D01*
X024743Y011716D01*
X024733Y011676D01*
X024720Y011637D01*
X024703Y011600D01*
X024682Y011564D01*
X024658Y011530D01*
X024631Y011499D01*
X024602Y011471D01*
X024569Y011445D01*
X024535Y011423D01*
X024498Y011404D01*
X024460Y011389D01*
X024420Y011377D01*
X024380Y011369D01*
X024339Y011365D01*
X024297Y011365D01*
X024256Y011369D01*
X024216Y011377D01*
X024176Y011389D01*
X024138Y011404D01*
X024102Y011423D01*
X024067Y011445D01*
X024034Y011471D01*
X024005Y011499D01*
X023978Y011530D01*
X023954Y011564D01*
X023933Y011600D01*
X023916Y011637D01*
X023903Y011676D01*
X023893Y011716D01*
X023887Y011757D01*
X023885Y011798D01*
X023885Y019472D02*
X023887Y019513D01*
X023893Y019554D01*
X023903Y019594D01*
X023916Y019633D01*
X023933Y019670D01*
X023954Y019706D01*
X023978Y019740D01*
X024005Y019771D01*
X024034Y019799D01*
X024067Y019825D01*
X024101Y019847D01*
X024138Y019866D01*
X024176Y019881D01*
X024216Y019893D01*
X024256Y019901D01*
X024297Y019905D01*
X024339Y019905D01*
X024380Y019901D01*
X024420Y019893D01*
X024460Y019881D01*
X024498Y019866D01*
X024534Y019847D01*
X024569Y019825D01*
X024602Y019799D01*
X024631Y019771D01*
X024658Y019740D01*
X024682Y019706D01*
X024703Y019670D01*
X024720Y019633D01*
X024733Y019594D01*
X024743Y019554D01*
X024749Y019513D01*
X024751Y019472D01*
X024749Y019431D01*
X024743Y019390D01*
X024733Y019350D01*
X024720Y019311D01*
X024703Y019274D01*
X024682Y019238D01*
X024658Y019204D01*
X024631Y019173D01*
X024602Y019145D01*
X024569Y019119D01*
X024535Y019097D01*
X024498Y019078D01*
X024460Y019063D01*
X024420Y019051D01*
X024380Y019043D01*
X024339Y019039D01*
X024297Y019039D01*
X024256Y019043D01*
X024216Y019051D01*
X024176Y019063D01*
X024138Y019078D01*
X024102Y019097D01*
X024067Y019119D01*
X024034Y019145D01*
X024005Y019173D01*
X023978Y019204D01*
X023954Y019238D01*
X023933Y019274D01*
X023916Y019311D01*
X023903Y019350D01*
X023893Y019390D01*
X023887Y019431D01*
X023885Y019472D01*
D12*
X023249Y019655D02*
X023249Y019875D01*
X023139Y019765D01*
X023286Y019765D01*
X023065Y019655D02*
X022918Y019655D01*
X022992Y019655D02*
X022992Y019875D01*
X022918Y019802D01*
X022844Y019838D02*
X022844Y019765D01*
X022807Y019728D01*
X022697Y019728D01*
X022697Y019655D02*
X022697Y019875D01*
X022807Y019875D01*
X022844Y019838D01*
X022771Y019728D02*
X022844Y019655D01*
X022559Y018815D02*
X022486Y018815D01*
X022449Y018778D01*
X022449Y018742D01*
X022486Y018705D01*
X022596Y018705D01*
X022596Y018632D02*
X022596Y018778D01*
X022559Y018815D01*
X022596Y018632D02*
X022559Y018595D01*
X022486Y018595D01*
X022449Y018632D01*
X022375Y018595D02*
X022302Y018668D01*
X022338Y018668D02*
X022228Y018668D01*
X022228Y018595D02*
X022228Y018815D01*
X022338Y018815D01*
X022375Y018778D01*
X022375Y018705D01*
X022338Y018668D01*
X021175Y018662D02*
X021175Y018589D01*
X021138Y018552D01*
X021175Y018478D02*
X021175Y018331D01*
X021175Y018404D02*
X020955Y018404D01*
X021028Y018331D01*
X020992Y018257D02*
X021065Y018257D01*
X021102Y018220D01*
X021102Y018110D01*
X021175Y018110D02*
X020955Y018110D01*
X020955Y018220D01*
X020992Y018257D01*
X021102Y018183D02*
X021175Y018257D01*
X020992Y018552D02*
X020955Y018589D01*
X020955Y018662D01*
X020992Y018699D01*
X021028Y018699D01*
X021065Y018662D01*
X021102Y018699D01*
X021138Y018699D01*
X021175Y018662D01*
X021065Y018662D02*
X021065Y018625D01*
X021363Y019610D02*
X021400Y019647D01*
X021400Y019683D01*
X021363Y019720D01*
X021180Y019720D01*
X021180Y019683D02*
X021180Y019757D01*
X021180Y019831D02*
X021180Y019941D01*
X021217Y019978D01*
X021290Y019978D01*
X021327Y019941D01*
X021327Y019831D01*
X021400Y019831D02*
X021180Y019831D01*
X021290Y020052D02*
X021290Y020162D01*
X021327Y020199D01*
X021363Y020199D01*
X021400Y020162D01*
X021400Y020089D01*
X021363Y020052D01*
X021290Y020052D01*
X021217Y020125D01*
X021180Y020199D01*
X019885Y019261D02*
X019885Y019188D01*
X019848Y019151D01*
X019812Y019151D01*
X019775Y019188D01*
X019775Y019261D01*
X019812Y019298D01*
X019848Y019298D01*
X019885Y019261D01*
X019775Y019261D02*
X019738Y019298D01*
X019702Y019298D01*
X019665Y019261D01*
X019665Y019188D01*
X019702Y019151D01*
X019738Y019151D01*
X019775Y019188D01*
X019702Y019077D02*
X019665Y019040D01*
X019665Y018967D01*
X019702Y018930D01*
X019848Y018930D01*
X019885Y018967D01*
X019885Y019040D01*
X019848Y019077D01*
X018869Y020052D02*
X018832Y020015D01*
X018759Y020015D01*
X018722Y020052D01*
X018869Y020198D01*
X018869Y020052D01*
X018869Y020198D02*
X018832Y020235D01*
X018759Y020235D01*
X018722Y020198D01*
X018722Y020052D01*
X018648Y020015D02*
X018501Y020015D01*
X018574Y020015D02*
X018574Y020235D01*
X018501Y020162D01*
X018427Y020198D02*
X018427Y020125D01*
X018390Y020088D01*
X018280Y020088D01*
X018280Y020015D02*
X018280Y020235D01*
X018390Y020235D01*
X018427Y020198D01*
X018353Y020088D02*
X018427Y020015D01*
X018072Y018895D02*
X018109Y018858D01*
X018109Y018822D01*
X018072Y018785D01*
X018109Y018748D01*
X018109Y018712D01*
X018072Y018675D01*
X017999Y018675D01*
X017962Y018712D01*
X017888Y018675D02*
X017741Y018675D01*
X017814Y018675D02*
X017814Y018895D01*
X017741Y018822D01*
X017667Y018858D02*
X017630Y018895D01*
X017557Y018895D01*
X017520Y018858D01*
X017520Y018712D01*
X017557Y018675D01*
X017630Y018675D01*
X017667Y018712D01*
X017962Y018858D02*
X017999Y018895D01*
X018072Y018895D01*
X018072Y018785D02*
X018035Y018785D01*
X016265Y017956D02*
X016265Y017809D01*
X016265Y017882D02*
X016045Y017882D01*
X016118Y017809D01*
X016045Y017661D02*
X016265Y017661D01*
X016265Y017588D02*
X016265Y017735D01*
X016118Y017588D02*
X016045Y017661D01*
X016082Y017514D02*
X016155Y017514D01*
X016192Y017477D01*
X016192Y017367D01*
X016265Y017367D02*
X016045Y017367D01*
X016045Y017477D01*
X016082Y017514D01*
X016192Y017440D02*
X016265Y017514D01*
X016265Y016209D02*
X016265Y016062D01*
X016118Y016209D01*
X016082Y016209D01*
X016045Y016172D01*
X016045Y016099D01*
X016082Y016062D01*
X016045Y015914D02*
X016265Y015914D01*
X016265Y015841D02*
X016265Y015988D01*
X016118Y015841D02*
X016045Y015914D01*
X016082Y015767D02*
X016155Y015767D01*
X016192Y015730D01*
X016192Y015620D01*
X016265Y015620D02*
X016045Y015620D01*
X016045Y015730D01*
X016082Y015767D01*
X016192Y015693D02*
X016265Y015767D01*
X015460Y015352D02*
X015423Y015389D01*
X015277Y015389D01*
X015240Y015352D01*
X015240Y015242D01*
X015460Y015242D01*
X015460Y015352D01*
X015460Y015168D02*
X015240Y015168D01*
X015240Y015021D02*
X015460Y015168D01*
X015460Y015021D02*
X015240Y015021D01*
X015277Y014947D02*
X015240Y014910D01*
X015240Y014837D01*
X015277Y014800D01*
X015423Y014800D01*
X015460Y014837D01*
X015460Y014910D01*
X015423Y014947D01*
X015350Y014947D01*
X015350Y014873D01*
X015327Y013430D02*
X015327Y013210D01*
X015254Y013210D02*
X015401Y013210D01*
X015475Y013247D02*
X015512Y013210D01*
X015585Y013210D01*
X015622Y013247D01*
X015622Y013320D01*
X015585Y013357D01*
X015548Y013357D01*
X015475Y013320D01*
X015475Y013430D01*
X015622Y013430D01*
X015327Y013430D02*
X015254Y013357D01*
X015180Y013430D02*
X015033Y013210D01*
X014959Y013247D02*
X014922Y013210D01*
X014849Y013210D01*
X014812Y013247D01*
X014849Y013320D02*
X014812Y013357D01*
X014812Y013393D01*
X014849Y013430D01*
X014922Y013430D01*
X014959Y013393D01*
X014922Y013320D02*
X014959Y013283D01*
X014959Y013247D01*
X014922Y013320D02*
X014849Y013320D01*
X014738Y013393D02*
X014738Y013430D01*
X014738Y013393D02*
X014664Y013320D01*
X014664Y013210D01*
X014664Y013320D02*
X014591Y013393D01*
X014591Y013430D01*
X014517Y013430D02*
X014517Y013210D01*
X014370Y013210D02*
X014370Y013430D01*
X014443Y013357D01*
X014517Y013430D01*
X015033Y013430D02*
X015180Y013210D01*
X018076Y015247D02*
X018113Y015210D01*
X018186Y015210D01*
X018223Y015247D01*
X018223Y015283D01*
X018186Y015320D01*
X018150Y015320D01*
X018186Y015320D02*
X018223Y015357D01*
X018223Y015393D01*
X018186Y015430D01*
X018113Y015430D01*
X018076Y015393D01*
X018297Y015393D02*
X018334Y015430D01*
X018407Y015430D01*
X018444Y015393D01*
X018444Y015357D01*
X018297Y015210D01*
X018444Y015210D01*
X018518Y015247D02*
X018518Y015283D01*
X018555Y015320D01*
X018628Y015320D01*
X018665Y015283D01*
X018665Y015247D01*
X018628Y015210D01*
X018555Y015210D01*
X018518Y015247D01*
X018555Y015320D02*
X018518Y015357D01*
X018518Y015393D01*
X018555Y015430D01*
X018628Y015430D01*
X018665Y015393D01*
X018665Y015357D01*
X018628Y015320D01*
X018739Y015283D02*
X018849Y015283D01*
X018886Y015320D01*
X018886Y015393D01*
X018849Y015430D01*
X018739Y015430D01*
X018739Y015210D01*
X018761Y014165D02*
X018651Y014055D01*
X018798Y014055D01*
X018761Y013945D02*
X018761Y014165D01*
X018577Y014128D02*
X018577Y014055D01*
X018540Y014018D01*
X018430Y014018D01*
X018430Y013945D02*
X018430Y014165D01*
X018540Y014165D01*
X018577Y014128D01*
X018503Y014018D02*
X018577Y013945D01*
X020730Y013377D02*
X020803Y013450D01*
X020877Y013377D01*
X020877Y013230D01*
X020951Y013303D02*
X021024Y013230D01*
X021098Y013303D01*
X021098Y013450D01*
X021172Y013450D02*
X021172Y013230D01*
X021172Y013303D02*
X021282Y013303D01*
X021319Y013340D01*
X021319Y013413D01*
X021282Y013450D01*
X021172Y013450D01*
X021245Y013303D02*
X021319Y013230D01*
X021393Y013267D02*
X021430Y013230D01*
X021503Y013230D01*
X021540Y013267D01*
X021540Y013303D01*
X021503Y013340D01*
X021430Y013340D01*
X021393Y013377D01*
X021393Y013413D01*
X021430Y013450D01*
X021503Y013450D01*
X021540Y013413D01*
X021614Y013450D02*
X021724Y013450D01*
X021761Y013413D01*
X021761Y013340D01*
X021724Y013303D01*
X021614Y013303D01*
X021614Y013230D02*
X021614Y013450D01*
X021835Y013450D02*
X021908Y013450D01*
X021872Y013450D02*
X021872Y013230D01*
X021908Y013230D02*
X021835Y013230D01*
X022266Y013287D02*
X022266Y013177D01*
X022486Y013177D01*
X022486Y013287D01*
X022450Y013324D01*
X022303Y013324D01*
X022266Y013287D01*
X022303Y013398D02*
X022266Y013435D01*
X022266Y013508D01*
X022303Y013545D01*
X022340Y013545D01*
X022376Y013508D01*
X022413Y013545D01*
X022450Y013545D01*
X022486Y013508D01*
X022486Y013435D01*
X022450Y013398D01*
X022376Y013471D02*
X022376Y013508D01*
X021536Y014098D02*
X021442Y013985D01*
X021489Y014041D02*
X021320Y014182D01*
X021329Y014079D01*
X021225Y014069D02*
X021301Y013815D01*
X021395Y013928D02*
X021131Y013956D01*
X020951Y013450D02*
X020951Y013303D01*
X020877Y013340D02*
X020730Y013340D01*
X020730Y013377D02*
X020730Y013230D01*
X021930Y015810D02*
X021930Y015883D01*
X021930Y015847D02*
X022150Y015847D01*
X022150Y015883D02*
X022150Y015810D01*
X022113Y015957D02*
X021967Y015957D01*
X021930Y015994D01*
X021930Y016067D01*
X021967Y016104D01*
X022040Y016178D02*
X021930Y016288D01*
X022150Y016288D01*
X022040Y016325D02*
X022040Y016178D01*
X022113Y016104D02*
X022150Y016067D01*
X022150Y015994D01*
X022113Y015957D01*
X023418Y017915D02*
X023528Y017915D01*
X023565Y017952D01*
X023565Y018098D01*
X023528Y018135D01*
X023418Y018135D01*
X023418Y017915D01*
X023639Y017915D02*
X023786Y017915D01*
X023713Y017915D02*
X023713Y018135D01*
X023639Y018062D01*
X024660Y017719D02*
X024660Y017572D01*
X024660Y017645D02*
X024880Y017645D01*
X024880Y017498D02*
X024660Y017498D01*
X024660Y017351D02*
X024880Y017498D01*
X024880Y017351D02*
X024660Y017351D01*
X024733Y017277D02*
X024880Y017277D01*
X024770Y017277D02*
X024770Y017130D01*
X024733Y017130D02*
X024660Y017203D01*
X024733Y017277D01*
X024733Y017130D02*
X024880Y017130D01*
X024859Y014165D02*
X024822Y014128D01*
X024859Y014165D02*
X024932Y014165D01*
X024969Y014128D01*
X024969Y014092D01*
X024822Y013945D01*
X024969Y013945D01*
X024748Y013945D02*
X024601Y013945D01*
X024674Y013945D02*
X024674Y014165D01*
X024601Y014092D01*
X024527Y014128D02*
X024490Y014165D01*
X024417Y014165D01*
X024380Y014128D01*
X024380Y013982D01*
X024417Y013945D01*
X024490Y013945D01*
X024527Y013982D01*
X024186Y012755D02*
X024186Y012718D01*
X024039Y012572D01*
X024039Y012535D01*
X023965Y012572D02*
X023928Y012535D01*
X023855Y012535D01*
X023818Y012572D01*
X023818Y012718D01*
X023855Y012755D01*
X023928Y012755D01*
X023965Y012718D01*
X024039Y012755D02*
X024186Y012755D01*
X021400Y010062D02*
X021363Y010099D01*
X021327Y010099D01*
X021290Y010062D01*
X021290Y009952D01*
X021363Y009952D01*
X021400Y009989D01*
X021400Y010062D01*
X021290Y009952D02*
X021217Y010025D01*
X021180Y010099D01*
X021217Y009878D02*
X021290Y009878D01*
X021327Y009841D01*
X021327Y009731D01*
X021400Y009731D02*
X021180Y009731D01*
X021180Y009841D01*
X021217Y009878D01*
X021180Y009657D02*
X021180Y009583D01*
X021180Y009620D02*
X021363Y009620D01*
X021400Y009583D01*
X021400Y009547D01*
X021363Y009510D01*
X022228Y008715D02*
X022338Y008715D01*
X022375Y008678D01*
X022375Y008605D01*
X022338Y008568D01*
X022228Y008568D01*
X022228Y008495D02*
X022228Y008715D01*
X022302Y008568D02*
X022375Y008495D01*
X022449Y008532D02*
X022486Y008495D01*
X022559Y008495D01*
X022596Y008532D01*
X022596Y008678D01*
X022559Y008715D01*
X022486Y008715D01*
X022449Y008678D01*
X022449Y008642D01*
X022486Y008605D01*
X022596Y008605D01*
X023418Y008035D02*
X023418Y007815D01*
X023528Y007815D01*
X023565Y007852D01*
X023565Y007998D01*
X023528Y008035D01*
X023418Y008035D01*
X023639Y007962D02*
X023713Y008035D01*
X023713Y007815D01*
X023786Y007815D02*
X023639Y007815D01*
X024660Y007619D02*
X024660Y007472D01*
X024660Y007545D02*
X024880Y007545D01*
X024880Y007398D02*
X024660Y007398D01*
X024660Y007251D02*
X024880Y007398D01*
X024880Y007251D02*
X024660Y007251D01*
X024733Y007177D02*
X024880Y007177D01*
X024770Y007177D02*
X024770Y007030D01*
X024733Y007030D02*
X024660Y007103D01*
X024733Y007177D01*
X024733Y007030D02*
X024880Y007030D01*
X022150Y006188D02*
X021930Y006188D01*
X022040Y006078D01*
X022040Y006225D01*
X021967Y006004D02*
X021930Y005967D01*
X021930Y005894D01*
X021967Y005857D01*
X022113Y005857D01*
X022150Y005894D01*
X022150Y005967D01*
X022113Y006004D01*
X022150Y005783D02*
X022150Y005710D01*
X022150Y005747D02*
X021930Y005747D01*
X021930Y005783D02*
X021930Y005710D01*
X021320Y004082D02*
X021489Y003941D01*
X021442Y003885D02*
X021536Y003998D01*
X021329Y003979D02*
X021320Y004082D01*
X021225Y003969D02*
X021301Y003715D01*
X021395Y003828D02*
X021131Y003856D01*
X021098Y003350D02*
X021098Y003203D01*
X021024Y003130D01*
X020951Y003203D01*
X020951Y003350D01*
X020877Y003277D02*
X020877Y003130D01*
X020877Y003240D02*
X020730Y003240D01*
X020730Y003277D02*
X020803Y003350D01*
X020877Y003277D01*
X020730Y003277D02*
X020730Y003130D01*
X021172Y003130D02*
X021172Y003350D01*
X021282Y003350D01*
X021319Y003313D01*
X021319Y003240D01*
X021282Y003203D01*
X021172Y003203D01*
X021245Y003203D02*
X021319Y003130D01*
X021393Y003167D02*
X021430Y003130D01*
X021503Y003130D01*
X021540Y003167D01*
X021540Y003203D01*
X021503Y003240D01*
X021430Y003240D01*
X021393Y003277D01*
X021393Y003313D01*
X021430Y003350D01*
X021503Y003350D01*
X021540Y003313D01*
X021614Y003350D02*
X021724Y003350D01*
X021761Y003313D01*
X021761Y003240D01*
X021724Y003203D01*
X021614Y003203D01*
X021614Y003130D02*
X021614Y003350D01*
X021835Y003350D02*
X021908Y003350D01*
X021872Y003350D02*
X021872Y003130D01*
X021908Y003130D02*
X021835Y003130D01*
X022266Y003187D02*
X022266Y003077D01*
X022486Y003077D01*
X022486Y003187D01*
X022450Y003224D01*
X022303Y003224D01*
X022266Y003187D01*
X022303Y003298D02*
X022266Y003335D01*
X022266Y003408D01*
X022303Y003445D01*
X022340Y003445D01*
X022376Y003408D01*
X022413Y003445D01*
X022450Y003445D01*
X022486Y003408D01*
X022486Y003335D01*
X022450Y003298D01*
X022376Y003371D02*
X022376Y003408D01*
X023818Y002618D02*
X023818Y002472D01*
X023855Y002435D01*
X023928Y002435D01*
X023965Y002472D01*
X024039Y002472D02*
X024186Y002618D01*
X024186Y002655D01*
X024039Y002655D01*
X023965Y002618D02*
X023928Y002655D01*
X023855Y002655D01*
X023818Y002618D01*
X024039Y002472D02*
X024039Y002435D01*
X024417Y003845D02*
X024490Y003845D01*
X024527Y003882D01*
X024601Y003845D02*
X024748Y003845D01*
X024674Y003845D02*
X024674Y004065D01*
X024601Y003992D01*
X024527Y004028D02*
X024490Y004065D01*
X024417Y004065D01*
X024380Y004028D01*
X024380Y003882D01*
X024417Y003845D01*
X024822Y003845D02*
X024969Y003992D01*
X024969Y004028D01*
X024932Y004065D01*
X024859Y004065D01*
X024822Y004028D01*
X024822Y003845D02*
X024969Y003845D01*
X021175Y008010D02*
X020955Y008010D01*
X020955Y008120D01*
X020992Y008157D01*
X021065Y008157D01*
X021102Y008120D01*
X021102Y008010D01*
X021102Y008083D02*
X021175Y008157D01*
X021175Y008231D02*
X021175Y008378D01*
X021175Y008304D02*
X020955Y008304D01*
X021028Y008231D01*
X020992Y008452D02*
X020955Y008489D01*
X020955Y008562D01*
X020992Y008599D01*
X021028Y008599D01*
X021065Y008562D01*
X021102Y008599D01*
X021138Y008599D01*
X021175Y008562D01*
X021175Y008489D01*
X021138Y008452D01*
X021065Y008525D02*
X021065Y008562D01*
X019885Y008867D02*
X019885Y008940D01*
X019848Y008977D01*
X019848Y009051D02*
X019812Y009051D01*
X019775Y009088D01*
X019775Y009161D01*
X019812Y009198D01*
X019848Y009198D01*
X019885Y009161D01*
X019885Y009088D01*
X019848Y009051D01*
X019775Y009088D02*
X019738Y009051D01*
X019702Y009051D01*
X019665Y009088D01*
X019665Y009161D01*
X019702Y009198D01*
X019738Y009198D01*
X019775Y009161D01*
X019702Y008977D02*
X019665Y008940D01*
X019665Y008867D01*
X019702Y008830D01*
X019848Y008830D01*
X019885Y008867D01*
X018832Y009915D02*
X018759Y009915D01*
X018722Y009952D01*
X018869Y010098D01*
X018869Y009952D01*
X018832Y009915D01*
X018722Y009952D02*
X018722Y010098D01*
X018759Y010135D01*
X018832Y010135D01*
X018869Y010098D01*
X018648Y009915D02*
X018501Y009915D01*
X018574Y009915D02*
X018574Y010135D01*
X018501Y010062D01*
X018427Y010098D02*
X018427Y010025D01*
X018390Y009988D01*
X018280Y009988D01*
X018280Y009915D02*
X018280Y010135D01*
X018390Y010135D01*
X018427Y010098D01*
X018353Y009988D02*
X018427Y009915D01*
X018072Y008795D02*
X018109Y008758D01*
X018109Y008722D01*
X018072Y008685D01*
X018109Y008648D01*
X018109Y008612D01*
X018072Y008575D01*
X017999Y008575D01*
X017962Y008612D01*
X017888Y008575D02*
X017741Y008575D01*
X017814Y008575D02*
X017814Y008795D01*
X017741Y008722D01*
X017667Y008758D02*
X017630Y008795D01*
X017557Y008795D01*
X017520Y008758D01*
X017520Y008612D01*
X017557Y008575D01*
X017630Y008575D01*
X017667Y008612D01*
X017962Y008758D02*
X017999Y008795D01*
X018072Y008795D01*
X018072Y008685D02*
X018035Y008685D01*
X016265Y007856D02*
X016265Y007709D01*
X016265Y007782D02*
X016045Y007782D01*
X016118Y007709D01*
X016045Y007561D02*
X016265Y007561D01*
X016265Y007488D02*
X016265Y007635D01*
X016118Y007488D02*
X016045Y007561D01*
X016082Y007414D02*
X016155Y007414D01*
X016192Y007377D01*
X016192Y007267D01*
X016265Y007267D02*
X016045Y007267D01*
X016045Y007377D01*
X016082Y007414D01*
X016192Y007340D02*
X016265Y007414D01*
X016265Y006109D02*
X016265Y005962D01*
X016118Y006109D01*
X016082Y006109D01*
X016045Y006072D01*
X016045Y005999D01*
X016082Y005962D01*
X016045Y005814D02*
X016265Y005814D01*
X016265Y005741D02*
X016265Y005888D01*
X016118Y005741D02*
X016045Y005814D01*
X016082Y005667D02*
X016155Y005667D01*
X016192Y005630D01*
X016192Y005520D01*
X016265Y005520D02*
X016045Y005520D01*
X016045Y005630D01*
X016082Y005667D01*
X016192Y005593D02*
X016265Y005667D01*
X015460Y005252D02*
X015460Y005142D01*
X015240Y005142D01*
X015240Y005252D01*
X015277Y005289D01*
X015423Y005289D01*
X015460Y005252D01*
X015460Y005068D02*
X015240Y005068D01*
X015240Y004921D02*
X015460Y005068D01*
X015460Y004921D02*
X015240Y004921D01*
X015277Y004847D02*
X015240Y004810D01*
X015240Y004737D01*
X015277Y004700D01*
X015423Y004700D01*
X015460Y004737D01*
X015460Y004810D01*
X015423Y004847D01*
X015350Y004847D01*
X015350Y004773D01*
X015327Y003330D02*
X015327Y003110D01*
X015254Y003110D02*
X015401Y003110D01*
X015475Y003147D02*
X015512Y003110D01*
X015585Y003110D01*
X015622Y003147D01*
X015622Y003220D01*
X015585Y003257D01*
X015548Y003257D01*
X015475Y003220D01*
X015475Y003330D01*
X015622Y003330D01*
X015327Y003330D02*
X015254Y003257D01*
X015180Y003330D02*
X015033Y003110D01*
X014959Y003147D02*
X014922Y003110D01*
X014849Y003110D01*
X014812Y003147D01*
X014849Y003220D02*
X014812Y003257D01*
X014812Y003293D01*
X014849Y003330D01*
X014922Y003330D01*
X014959Y003293D01*
X014922Y003220D02*
X014959Y003183D01*
X014959Y003147D01*
X014922Y003220D02*
X014849Y003220D01*
X014738Y003293D02*
X014738Y003330D01*
X014738Y003293D02*
X014664Y003220D01*
X014664Y003110D01*
X014664Y003220D02*
X014591Y003293D01*
X014591Y003330D01*
X014517Y003330D02*
X014517Y003110D01*
X014370Y003110D02*
X014370Y003330D01*
X014443Y003257D01*
X014517Y003330D01*
X015033Y003330D02*
X015180Y003110D01*
X018076Y005147D02*
X018113Y005110D01*
X018186Y005110D01*
X018223Y005147D01*
X018223Y005183D01*
X018186Y005220D01*
X018150Y005220D01*
X018186Y005220D02*
X018223Y005257D01*
X018223Y005293D01*
X018186Y005330D01*
X018113Y005330D01*
X018076Y005293D01*
X018297Y005293D02*
X018334Y005330D01*
X018407Y005330D01*
X018444Y005293D01*
X018444Y005257D01*
X018297Y005110D01*
X018444Y005110D01*
X018518Y005147D02*
X018518Y005183D01*
X018555Y005220D01*
X018628Y005220D01*
X018665Y005183D01*
X018665Y005147D01*
X018628Y005110D01*
X018555Y005110D01*
X018518Y005147D01*
X018555Y005220D02*
X018518Y005257D01*
X018518Y005293D01*
X018555Y005330D01*
X018628Y005330D01*
X018665Y005293D01*
X018665Y005257D01*
X018628Y005220D01*
X018739Y005183D02*
X018849Y005183D01*
X018886Y005220D01*
X018886Y005293D01*
X018849Y005330D01*
X018739Y005330D01*
X018739Y005110D01*
X018761Y004065D02*
X018651Y003955D01*
X018798Y003955D01*
X018761Y003845D02*
X018761Y004065D01*
X018577Y004028D02*
X018577Y003955D01*
X018540Y003918D01*
X018430Y003918D01*
X018430Y003845D02*
X018430Y004065D01*
X018540Y004065D01*
X018577Y004028D01*
X018503Y003918D02*
X018577Y003845D01*
X014095Y008680D02*
X013875Y008680D01*
X013875Y008790D01*
X013912Y008827D01*
X013985Y008827D01*
X014022Y008790D01*
X014022Y008680D01*
X014022Y008753D02*
X014095Y008827D01*
X014058Y008901D02*
X014095Y008938D01*
X014095Y009011D01*
X014058Y009048D01*
X014022Y009048D01*
X013985Y009011D01*
X013985Y008974D01*
X013985Y009011D02*
X013948Y009048D01*
X013912Y009048D01*
X013875Y009011D01*
X013875Y008938D01*
X013912Y008901D01*
X011940Y008836D02*
X011793Y008836D01*
X011720Y008762D01*
X011793Y008689D01*
X011940Y008689D01*
X011903Y008615D02*
X011757Y008615D01*
X011720Y008578D01*
X011720Y008468D01*
X011940Y008468D01*
X011940Y008578D01*
X011903Y008615D01*
X011830Y008689D02*
X011830Y008836D01*
X011867Y008394D02*
X011903Y008394D01*
X011940Y008357D01*
X011940Y008284D01*
X011903Y008247D01*
X011830Y008284D02*
X011830Y008357D01*
X011867Y008394D01*
X011757Y008394D02*
X011720Y008357D01*
X011720Y008284D01*
X011757Y008247D01*
X011793Y008247D01*
X011830Y008284D01*
X011326Y008252D02*
X011289Y008215D01*
X011216Y008215D01*
X011179Y008252D01*
X011179Y008325D02*
X011253Y008362D01*
X011289Y008362D01*
X011326Y008325D01*
X011326Y008252D01*
X011179Y008325D02*
X011179Y008435D01*
X011326Y008435D01*
X011105Y008398D02*
X011105Y008325D01*
X011068Y008288D01*
X010958Y008288D01*
X010958Y008215D02*
X010958Y008435D01*
X011068Y008435D01*
X011105Y008398D01*
X011032Y008288D02*
X011105Y008215D01*
X010983Y008607D02*
X011020Y008644D01*
X011020Y008680D01*
X010983Y008717D01*
X010800Y008717D01*
X010800Y008680D02*
X010800Y008754D01*
X010800Y008828D02*
X010800Y008938D01*
X010837Y008975D01*
X010910Y008975D01*
X010947Y008938D01*
X010947Y008828D01*
X011020Y008828D02*
X010800Y008828D01*
X010800Y009049D02*
X010800Y009196D01*
X010837Y009196D01*
X010983Y009049D01*
X011020Y009049D01*
X009996Y008215D02*
X009923Y008178D01*
X009849Y008105D01*
X009959Y008105D01*
X009996Y008068D01*
X009996Y008032D01*
X009959Y007995D01*
X009886Y007995D01*
X009849Y008032D01*
X009849Y008105D01*
X009775Y008105D02*
X009738Y008068D01*
X009628Y008068D01*
X009628Y007995D02*
X009628Y008215D01*
X009738Y008215D01*
X009775Y008178D01*
X009775Y008105D01*
X009702Y008068D02*
X009775Y007995D01*
X009088Y007983D02*
X009088Y007947D01*
X009051Y007910D01*
X008978Y007910D01*
X008941Y007947D01*
X008867Y007947D02*
X008830Y007910D01*
X008757Y007910D01*
X008720Y007947D01*
X008720Y008093D01*
X008757Y008130D01*
X008830Y008130D01*
X008867Y008093D01*
X008867Y007947D01*
X008867Y007910D02*
X008793Y007983D01*
X008761Y007855D02*
X008798Y007818D01*
X008798Y007782D01*
X008761Y007745D01*
X008798Y007708D01*
X008798Y007672D01*
X008761Y007635D01*
X008688Y007635D01*
X008651Y007672D01*
X008577Y007672D02*
X008540Y007635D01*
X008467Y007635D01*
X008430Y007672D01*
X008430Y007818D01*
X008467Y007855D01*
X008540Y007855D01*
X008577Y007818D01*
X008651Y007818D02*
X008688Y007855D01*
X008761Y007855D01*
X008761Y007745D02*
X008724Y007745D01*
X009014Y008020D02*
X009051Y008020D01*
X009088Y007983D01*
X009051Y008020D02*
X009088Y008057D01*
X009088Y008093D01*
X009051Y008130D01*
X008978Y008130D01*
X008941Y008093D01*
X008751Y007255D02*
X008678Y007255D01*
X008641Y007218D01*
X008567Y007218D02*
X008530Y007255D01*
X008457Y007255D01*
X008420Y007218D01*
X008420Y007072D01*
X008457Y007035D01*
X008530Y007035D01*
X008567Y007072D01*
X008641Y007035D02*
X008788Y007182D01*
X008788Y007218D01*
X008751Y007255D01*
X008788Y007035D02*
X008641Y007035D01*
X007680Y006325D02*
X007680Y006178D01*
X007680Y006252D02*
X007460Y006252D01*
X007533Y006178D01*
X007497Y006104D02*
X007460Y006067D01*
X007460Y005994D01*
X007497Y005957D01*
X007643Y005957D01*
X007680Y005994D01*
X007680Y006067D01*
X007643Y006104D01*
X007680Y005883D02*
X007680Y005810D01*
X007680Y005847D02*
X007460Y005847D01*
X007460Y005883D02*
X007460Y005810D01*
X006878Y006835D02*
X006731Y006835D01*
X006804Y006835D02*
X006804Y007055D01*
X006731Y006982D01*
X006657Y007018D02*
X006657Y006945D01*
X006620Y006908D01*
X006510Y006908D01*
X006510Y006835D02*
X006510Y007055D01*
X006620Y007055D01*
X006657Y007018D01*
X006583Y006908D02*
X006657Y006835D01*
X006211Y005805D02*
X006138Y005805D01*
X006101Y005768D01*
X006027Y005768D02*
X006027Y005695D01*
X005990Y005658D01*
X005880Y005658D01*
X005880Y005585D02*
X005880Y005805D01*
X005990Y005805D01*
X006027Y005768D01*
X005953Y005658D02*
X006027Y005585D01*
X006101Y005585D02*
X006248Y005732D01*
X006248Y005768D01*
X006211Y005805D01*
X006248Y005585D02*
X006101Y005585D01*
X006147Y005095D02*
X006110Y005058D01*
X006110Y004912D01*
X006147Y004875D01*
X006220Y004875D01*
X006257Y004912D01*
X006331Y004875D02*
X006478Y004875D01*
X006404Y004875D02*
X006404Y005095D01*
X006331Y005022D01*
X006257Y005058D02*
X006220Y005095D01*
X006147Y005095D01*
X007370Y003975D02*
X007370Y003755D01*
X007517Y003755D01*
X007591Y003755D02*
X007738Y003755D01*
X007664Y003755D02*
X007664Y003975D01*
X007591Y003902D01*
X007090Y003896D02*
X007090Y003749D01*
X007090Y003822D02*
X006870Y003822D01*
X006943Y003749D01*
X006907Y003675D02*
X006980Y003675D01*
X007017Y003638D01*
X007017Y003528D01*
X007090Y003528D02*
X006870Y003528D01*
X006870Y003638D01*
X006907Y003675D01*
X006870Y003454D02*
X006870Y003380D01*
X006870Y003417D02*
X007053Y003417D01*
X007090Y003380D01*
X007090Y003344D01*
X007053Y003307D01*
X008260Y003311D02*
X008260Y003238D01*
X008260Y003275D02*
X008443Y003275D01*
X008480Y003238D01*
X008480Y003201D01*
X008443Y003165D01*
X008407Y003386D02*
X008407Y003496D01*
X008370Y003532D01*
X008297Y003532D01*
X008260Y003496D01*
X008260Y003386D01*
X008480Y003386D01*
X008370Y003606D02*
X008260Y003717D01*
X008480Y003717D01*
X008370Y003753D02*
X008370Y003606D01*
X008365Y004460D02*
X008585Y004460D01*
X008585Y004607D01*
X008585Y004681D02*
X008438Y004828D01*
X008402Y004828D01*
X008365Y004791D01*
X008365Y004718D01*
X008402Y004681D01*
X008585Y004681D02*
X008585Y004828D01*
X009850Y005340D02*
X009923Y005340D01*
X009887Y005340D02*
X009887Y005560D01*
X009923Y005560D02*
X009850Y005560D01*
X009997Y005523D02*
X009997Y005377D01*
X010034Y005340D01*
X010108Y005340D01*
X010144Y005377D01*
X010218Y005340D02*
X010365Y005487D01*
X010365Y005523D01*
X010329Y005560D01*
X010255Y005560D01*
X010218Y005523D01*
X010144Y005523D02*
X010108Y005560D01*
X010034Y005560D01*
X009997Y005523D01*
X010147Y005710D02*
X010110Y005747D01*
X010110Y005893D01*
X010147Y005930D01*
X010220Y005930D01*
X010257Y005893D01*
X010257Y005747D01*
X010220Y005710D01*
X010147Y005710D01*
X010183Y005783D02*
X010257Y005710D01*
X010331Y005710D02*
X010478Y005857D01*
X010478Y005893D01*
X010441Y005930D01*
X010368Y005930D01*
X010331Y005893D01*
X010331Y005710D02*
X010478Y005710D01*
X010365Y005340D02*
X010218Y005340D01*
X011680Y005887D02*
X011680Y005960D01*
X011717Y005997D01*
X011753Y005997D01*
X011790Y005960D01*
X011827Y005997D01*
X011863Y005997D01*
X011900Y005960D01*
X011900Y005887D01*
X011863Y005850D01*
X011790Y005923D02*
X011790Y005960D01*
X011827Y006071D02*
X011900Y006144D01*
X011827Y006218D01*
X011680Y006218D01*
X011680Y006071D02*
X011827Y006071D01*
X011680Y005887D02*
X011717Y005850D01*
X011747Y006750D02*
X011783Y006750D01*
X011820Y006787D01*
X011820Y006860D01*
X011857Y006897D01*
X011893Y006897D01*
X011930Y006860D01*
X011930Y006787D01*
X011893Y006750D01*
X011747Y006750D02*
X011710Y006787D01*
X011710Y006860D01*
X011747Y006897D01*
X011747Y006971D02*
X011893Y006971D01*
X011930Y007008D01*
X011930Y007081D01*
X011893Y007118D01*
X011930Y007192D02*
X011930Y007339D01*
X011930Y007192D02*
X011710Y007192D01*
X011747Y007118D02*
X011710Y007081D01*
X011710Y007008D01*
X011747Y006971D01*
X011794Y003585D02*
X011794Y003365D01*
X011721Y003365D02*
X011868Y003365D01*
X011942Y003402D02*
X011942Y003438D01*
X011979Y003475D01*
X012052Y003475D01*
X012089Y003438D01*
X012089Y003402D01*
X012052Y003365D01*
X011979Y003365D01*
X011942Y003402D01*
X011979Y003475D02*
X011942Y003512D01*
X011942Y003548D01*
X011979Y003585D01*
X012052Y003585D01*
X012089Y003548D01*
X012089Y003512D01*
X012052Y003475D01*
X011794Y003585D02*
X011721Y003512D01*
X011647Y003548D02*
X011610Y003585D01*
X011537Y003585D01*
X011500Y003548D01*
X011500Y003402D01*
X011537Y003365D01*
X011610Y003365D01*
X011647Y003402D01*
X011278Y003392D02*
X011241Y003355D01*
X011168Y003355D01*
X011131Y003392D01*
X011131Y003465D02*
X011204Y003502D01*
X011241Y003502D01*
X011278Y003465D01*
X011278Y003392D01*
X011131Y003465D02*
X011131Y003575D01*
X011278Y003575D01*
X011057Y003538D02*
X011020Y003575D01*
X010947Y003575D01*
X010910Y003538D01*
X010910Y003392D01*
X010947Y003355D01*
X011020Y003355D01*
X011057Y003392D01*
X010228Y003525D02*
X010081Y003525D01*
X010191Y003635D01*
X010191Y003415D01*
X010007Y003452D02*
X009970Y003415D01*
X009897Y003415D01*
X009860Y003452D01*
X009860Y003598D01*
X009897Y003635D01*
X009970Y003635D01*
X010007Y003598D01*
X005893Y007983D02*
X005930Y008019D01*
X005930Y008056D01*
X005893Y008093D01*
X005710Y008093D01*
X005710Y008129D02*
X005710Y008056D01*
X005710Y008204D02*
X005710Y008314D01*
X005747Y008350D01*
X005820Y008350D01*
X005857Y008314D01*
X005857Y008204D01*
X005930Y008204D02*
X005710Y008204D01*
X005747Y008424D02*
X005710Y008461D01*
X005710Y008535D01*
X005747Y008571D01*
X005783Y008571D01*
X005820Y008535D01*
X005857Y008571D01*
X005893Y008571D01*
X005930Y008535D01*
X005930Y008461D01*
X005893Y008424D01*
X005820Y008498D02*
X005820Y008535D01*
X007195Y008968D02*
X007195Y009078D01*
X007232Y009115D01*
X007305Y009115D01*
X007342Y009078D01*
X007342Y008968D01*
X007415Y008968D02*
X007195Y008968D01*
X007342Y009041D02*
X007415Y009115D01*
X007378Y009189D02*
X007342Y009189D01*
X007305Y009226D01*
X007305Y009299D01*
X007342Y009336D01*
X007378Y009336D01*
X007415Y009299D01*
X007415Y009226D01*
X007378Y009189D01*
X007305Y009226D02*
X007268Y009189D01*
X007232Y009189D01*
X007195Y009226D01*
X007195Y009299D01*
X007232Y009336D01*
X007268Y009336D01*
X007305Y009299D01*
X007755Y009518D02*
X007755Y009628D01*
X007792Y009665D01*
X007865Y009665D01*
X007902Y009628D01*
X007902Y009518D01*
X007975Y009518D02*
X007755Y009518D01*
X007902Y009591D02*
X007975Y009665D01*
X007975Y009739D02*
X007938Y009739D01*
X007792Y009886D01*
X007755Y009886D01*
X007755Y009739D01*
X008443Y013265D02*
X008480Y013301D01*
X008480Y013338D01*
X008443Y013375D01*
X008260Y013375D01*
X008260Y013411D02*
X008260Y013338D01*
X008260Y013486D02*
X008260Y013596D01*
X008297Y013632D01*
X008370Y013632D01*
X008407Y013596D01*
X008407Y013486D01*
X008480Y013486D02*
X008260Y013486D01*
X008370Y013706D02*
X008260Y013817D01*
X008480Y013817D01*
X008370Y013853D02*
X008370Y013706D01*
X007738Y013855D02*
X007591Y013855D01*
X007664Y013855D02*
X007664Y014075D01*
X007591Y014002D01*
X007517Y013855D02*
X007370Y013855D01*
X007370Y014075D01*
X007090Y013996D02*
X007090Y013849D01*
X007090Y013922D02*
X006870Y013922D01*
X006943Y013849D01*
X006907Y013775D02*
X006980Y013775D01*
X007017Y013738D01*
X007017Y013628D01*
X007090Y013628D02*
X006870Y013628D01*
X006870Y013738D01*
X006907Y013775D01*
X006870Y013554D02*
X006870Y013480D01*
X006870Y013517D02*
X007053Y013517D01*
X007090Y013480D01*
X007090Y013444D01*
X007053Y013407D01*
X008365Y014560D02*
X008585Y014560D01*
X008585Y014707D01*
X008585Y014781D02*
X008438Y014928D01*
X008402Y014928D01*
X008365Y014891D01*
X008365Y014818D01*
X008402Y014781D01*
X008585Y014781D02*
X008585Y014928D01*
X007680Y015910D02*
X007680Y015983D01*
X007680Y015947D02*
X007460Y015947D01*
X007460Y015983D02*
X007460Y015910D01*
X007497Y016057D02*
X007643Y016057D01*
X007680Y016094D01*
X007680Y016167D01*
X007643Y016204D01*
X007680Y016278D02*
X007680Y016425D01*
X007680Y016352D02*
X007460Y016352D01*
X007533Y016278D01*
X007497Y016204D02*
X007460Y016167D01*
X007460Y016094D01*
X007497Y016057D01*
X006878Y016935D02*
X006731Y016935D01*
X006804Y016935D02*
X006804Y017155D01*
X006731Y017082D01*
X006657Y017118D02*
X006657Y017045D01*
X006620Y017008D01*
X006510Y017008D01*
X006510Y016935D02*
X006510Y017155D01*
X006620Y017155D01*
X006657Y017118D01*
X006583Y017008D02*
X006657Y016935D01*
X006211Y015905D02*
X006138Y015905D01*
X006101Y015868D01*
X006027Y015868D02*
X006027Y015795D01*
X005990Y015758D01*
X005880Y015758D01*
X005880Y015685D02*
X005880Y015905D01*
X005990Y015905D01*
X006027Y015868D01*
X005953Y015758D02*
X006027Y015685D01*
X006101Y015685D02*
X006248Y015832D01*
X006248Y015868D01*
X006211Y015905D01*
X006248Y015685D02*
X006101Y015685D01*
X006147Y015195D02*
X006110Y015158D01*
X006110Y015012D01*
X006147Y014975D01*
X006220Y014975D01*
X006257Y015012D01*
X006331Y014975D02*
X006478Y014975D01*
X006404Y014975D02*
X006404Y015195D01*
X006331Y015122D01*
X006257Y015158D02*
X006220Y015195D01*
X006147Y015195D01*
X008420Y017172D02*
X008457Y017135D01*
X008530Y017135D01*
X008567Y017172D01*
X008641Y017135D02*
X008788Y017282D01*
X008788Y017318D01*
X008751Y017355D01*
X008678Y017355D01*
X008641Y017318D01*
X008567Y017318D02*
X008530Y017355D01*
X008457Y017355D01*
X008420Y017318D01*
X008420Y017172D01*
X008641Y017135D02*
X008788Y017135D01*
X008761Y017735D02*
X008688Y017735D01*
X008651Y017772D01*
X008577Y017772D02*
X008540Y017735D01*
X008467Y017735D01*
X008430Y017772D01*
X008430Y017918D01*
X008467Y017955D01*
X008540Y017955D01*
X008577Y017918D01*
X008651Y017918D02*
X008688Y017955D01*
X008761Y017955D01*
X008798Y017918D01*
X008798Y017882D01*
X008761Y017845D01*
X008798Y017808D01*
X008798Y017772D01*
X008761Y017735D01*
X008761Y017845D02*
X008724Y017845D01*
X008757Y018010D02*
X008720Y018047D01*
X008720Y018193D01*
X008757Y018230D01*
X008830Y018230D01*
X008867Y018193D01*
X008867Y018047D01*
X008830Y018010D01*
X008757Y018010D01*
X008793Y018083D02*
X008867Y018010D01*
X008941Y018047D02*
X008978Y018010D01*
X009051Y018010D01*
X009088Y018047D01*
X009088Y018083D01*
X009051Y018120D01*
X009014Y018120D01*
X009051Y018120D02*
X009088Y018157D01*
X009088Y018193D01*
X009051Y018230D01*
X008978Y018230D01*
X008941Y018193D01*
X009628Y018168D02*
X009738Y018168D01*
X009775Y018205D01*
X009775Y018278D01*
X009738Y018315D01*
X009628Y018315D01*
X009628Y018095D01*
X009702Y018168D02*
X009775Y018095D01*
X009849Y018132D02*
X009886Y018095D01*
X009959Y018095D01*
X009996Y018132D01*
X009996Y018168D01*
X009959Y018205D01*
X009849Y018205D01*
X009849Y018132D01*
X009849Y018205D02*
X009923Y018278D01*
X009996Y018315D01*
X010800Y018780D02*
X010800Y018854D01*
X010800Y018817D02*
X010983Y018817D01*
X011020Y018780D01*
X011020Y018744D01*
X010983Y018707D01*
X010958Y018535D02*
X011068Y018535D01*
X011105Y018498D01*
X011105Y018425D01*
X011068Y018388D01*
X010958Y018388D01*
X010958Y018315D02*
X010958Y018535D01*
X011032Y018388D02*
X011105Y018315D01*
X011179Y018352D02*
X011216Y018315D01*
X011289Y018315D01*
X011326Y018352D01*
X011326Y018425D01*
X011289Y018462D01*
X011253Y018462D01*
X011179Y018425D01*
X011179Y018535D01*
X011326Y018535D01*
X011720Y018568D02*
X011720Y018678D01*
X011757Y018715D01*
X011903Y018715D01*
X011940Y018678D01*
X011940Y018568D01*
X011720Y018568D01*
X011757Y018494D02*
X011720Y018457D01*
X011720Y018384D01*
X011757Y018347D01*
X011793Y018347D01*
X011830Y018384D01*
X011830Y018457D01*
X011867Y018494D01*
X011903Y018494D01*
X011940Y018457D01*
X011940Y018384D01*
X011903Y018347D01*
X011940Y018789D02*
X011793Y018789D01*
X011720Y018862D01*
X011793Y018936D01*
X011940Y018936D01*
X011830Y018936D02*
X011830Y018789D01*
X011020Y018928D02*
X010800Y018928D01*
X010800Y019038D01*
X010837Y019075D01*
X010910Y019075D01*
X010947Y019038D01*
X010947Y018928D01*
X010983Y019149D02*
X010837Y019296D01*
X010800Y019296D01*
X010800Y019149D01*
X010983Y019149D02*
X011020Y019149D01*
X011930Y017439D02*
X011930Y017292D01*
X011710Y017292D01*
X011747Y017218D02*
X011710Y017181D01*
X011710Y017108D01*
X011747Y017071D01*
X011893Y017071D01*
X011930Y017108D01*
X011930Y017181D01*
X011893Y017218D01*
X011893Y016997D02*
X011930Y016960D01*
X011930Y016887D01*
X011893Y016850D01*
X011820Y016887D02*
X011783Y016850D01*
X011747Y016850D01*
X011710Y016887D01*
X011710Y016960D01*
X011747Y016997D01*
X011820Y016960D02*
X011857Y016997D01*
X011893Y016997D01*
X011820Y016960D02*
X011820Y016887D01*
X011827Y016318D02*
X011680Y016318D01*
X011827Y016318D02*
X011900Y016244D01*
X011827Y016171D01*
X011680Y016171D01*
X011717Y016097D02*
X011680Y016060D01*
X011680Y015987D01*
X011717Y015950D01*
X011790Y016023D02*
X011790Y016060D01*
X011827Y016097D01*
X011863Y016097D01*
X011900Y016060D01*
X011900Y015987D01*
X011863Y015950D01*
X011790Y016060D02*
X011753Y016097D01*
X011717Y016097D01*
X010478Y015993D02*
X010441Y016030D01*
X010368Y016030D01*
X010331Y015993D01*
X010257Y015993D02*
X010257Y015847D01*
X010220Y015810D01*
X010147Y015810D01*
X010110Y015847D01*
X010110Y015993D01*
X010147Y016030D01*
X010220Y016030D01*
X010257Y015993D01*
X010183Y015883D02*
X010257Y015810D01*
X010331Y015810D02*
X010478Y015957D01*
X010478Y015993D01*
X010478Y015810D02*
X010331Y015810D01*
X010329Y015660D02*
X010255Y015660D01*
X010218Y015623D01*
X010144Y015623D02*
X010108Y015660D01*
X010034Y015660D01*
X009997Y015623D01*
X009997Y015477D01*
X010034Y015440D01*
X010108Y015440D01*
X010144Y015477D01*
X010218Y015440D02*
X010365Y015587D01*
X010365Y015623D01*
X010329Y015660D01*
X010365Y015440D02*
X010218Y015440D01*
X009923Y015440D02*
X009850Y015440D01*
X009887Y015440D02*
X009887Y015660D01*
X009923Y015660D02*
X009850Y015660D01*
X009897Y013735D02*
X009860Y013698D01*
X009860Y013552D01*
X009897Y013515D01*
X009970Y013515D01*
X010007Y013552D01*
X010081Y013625D02*
X010228Y013625D01*
X010191Y013515D02*
X010191Y013735D01*
X010081Y013625D01*
X010007Y013698D02*
X009970Y013735D01*
X009897Y013735D01*
X010910Y013638D02*
X010910Y013492D01*
X010947Y013455D01*
X011020Y013455D01*
X011057Y013492D01*
X011131Y013492D02*
X011168Y013455D01*
X011241Y013455D01*
X011278Y013492D01*
X011278Y013565D01*
X011241Y013602D01*
X011204Y013602D01*
X011131Y013565D01*
X011131Y013675D01*
X011278Y013675D01*
X011500Y013648D02*
X011500Y013502D01*
X011537Y013465D01*
X011610Y013465D01*
X011647Y013502D01*
X011721Y013465D02*
X011868Y013465D01*
X011794Y013465D02*
X011794Y013685D01*
X011721Y013612D01*
X011647Y013648D02*
X011610Y013685D01*
X011537Y013685D01*
X011500Y013648D01*
X011942Y013648D02*
X011942Y013612D01*
X011979Y013575D01*
X012052Y013575D01*
X012089Y013538D01*
X012089Y013502D01*
X012052Y013465D01*
X011979Y013465D01*
X011942Y013502D01*
X011942Y013538D01*
X011979Y013575D01*
X012052Y013575D02*
X012089Y013612D01*
X012089Y013648D01*
X012052Y013685D01*
X011979Y013685D01*
X011942Y013648D01*
X011057Y013638D02*
X011020Y013675D01*
X010947Y013675D01*
X010910Y013638D01*
X005930Y018119D02*
X005893Y018083D01*
X005930Y018119D02*
X005930Y018156D01*
X005893Y018193D01*
X005710Y018193D01*
X005710Y018229D02*
X005710Y018156D01*
X005710Y018304D02*
X005710Y018414D01*
X005747Y018450D01*
X005820Y018450D01*
X005857Y018414D01*
X005857Y018304D01*
X005930Y018304D02*
X005710Y018304D01*
X005747Y018524D02*
X005710Y018561D01*
X005710Y018635D01*
X005747Y018671D01*
X005783Y018671D01*
X005820Y018635D01*
X005857Y018671D01*
X005893Y018671D01*
X005930Y018635D01*
X005930Y018561D01*
X005893Y018524D01*
X005820Y018598D02*
X005820Y018635D01*
X007195Y019068D02*
X007195Y019178D01*
X007232Y019215D01*
X007305Y019215D01*
X007342Y019178D01*
X007342Y019068D01*
X007415Y019068D02*
X007195Y019068D01*
X007342Y019141D02*
X007415Y019215D01*
X007378Y019289D02*
X007342Y019289D01*
X007305Y019326D01*
X007305Y019399D01*
X007342Y019436D01*
X007378Y019436D01*
X007415Y019399D01*
X007415Y019326D01*
X007378Y019289D01*
X007305Y019326D02*
X007268Y019289D01*
X007232Y019289D01*
X007195Y019326D01*
X007195Y019399D01*
X007232Y019436D01*
X007268Y019436D01*
X007305Y019399D01*
X007755Y019618D02*
X007755Y019728D01*
X007792Y019765D01*
X007865Y019765D01*
X007902Y019728D01*
X007902Y019618D01*
X007975Y019618D02*
X007755Y019618D01*
X007902Y019691D02*
X007975Y019765D01*
X007975Y019839D02*
X007938Y019839D01*
X007792Y019986D01*
X007755Y019986D01*
X007755Y019839D01*
X013875Y019111D02*
X013875Y019038D01*
X013912Y019001D01*
X013912Y018927D02*
X013985Y018927D01*
X014022Y018890D01*
X014022Y018780D01*
X014095Y018780D02*
X013875Y018780D01*
X013875Y018890D01*
X013912Y018927D01*
X014022Y018853D02*
X014095Y018927D01*
X014058Y019001D02*
X014095Y019038D01*
X014095Y019111D01*
X014058Y019148D01*
X014022Y019148D01*
X013985Y019111D01*
X013985Y019074D01*
X013985Y019111D02*
X013948Y019148D01*
X013912Y019148D01*
X013875Y019111D01*
X022697Y009775D02*
X022807Y009775D01*
X022844Y009738D01*
X022844Y009665D01*
X022807Y009628D01*
X022697Y009628D01*
X022697Y009555D02*
X022697Y009775D01*
X022771Y009628D02*
X022844Y009555D01*
X022918Y009555D02*
X023065Y009555D01*
X022992Y009555D02*
X022992Y009775D01*
X022918Y009702D01*
X023139Y009665D02*
X023286Y009665D01*
X023249Y009555D02*
X023249Y009775D01*
X023139Y009665D01*
D13*
X015955Y009579D02*
X015955Y009509D01*
X015920Y009474D01*
X015850Y009474D02*
X015815Y009544D01*
X015815Y009579D01*
X015850Y009614D01*
X015920Y009614D01*
X015955Y009579D01*
X015850Y009474D02*
X015745Y009474D01*
X015745Y009614D01*
X015780Y009393D02*
X015745Y009358D01*
X015745Y009288D01*
X015780Y009253D01*
X015920Y009253D01*
X015955Y009288D01*
X015955Y009358D01*
X015920Y009393D01*
X015955Y009176D02*
X015955Y009106D01*
X015955Y009141D02*
X015745Y009141D01*
X015745Y009106D02*
X015745Y009176D01*
X015413Y013885D02*
X015455Y013927D01*
X015455Y014010D01*
X015413Y014052D01*
X015330Y014052D01*
X015288Y014010D01*
X015288Y013968D01*
X015330Y013885D01*
X015205Y013885D01*
X015205Y014052D01*
X015205Y014143D02*
X015372Y014143D01*
X015455Y014226D01*
X015372Y014310D01*
X015205Y014310D01*
X015745Y019206D02*
X015745Y019276D01*
X015745Y019241D02*
X015955Y019241D01*
X015955Y019206D02*
X015955Y019276D01*
X015920Y019353D02*
X015955Y019388D01*
X015955Y019458D01*
X015920Y019493D01*
X015920Y019574D02*
X015955Y019609D01*
X015955Y019679D01*
X015920Y019714D01*
X015850Y019714D01*
X015815Y019679D01*
X015815Y019644D01*
X015850Y019574D01*
X015745Y019574D01*
X015745Y019714D01*
X015780Y019493D02*
X015745Y019458D01*
X015745Y019388D01*
X015780Y019353D01*
X015920Y019353D01*
X007925Y012666D02*
X007635Y012666D01*
X007635Y012762D02*
X007635Y012569D01*
X007635Y012468D02*
X007635Y012274D01*
X007635Y012371D02*
X007925Y012371D01*
X007925Y012173D02*
X007732Y012173D01*
X007635Y012076D01*
X007732Y011980D01*
X007925Y011980D01*
X007877Y011878D02*
X007925Y011830D01*
X007925Y011685D01*
X007635Y011685D01*
X007635Y011830D01*
X007683Y011878D01*
X007732Y011878D01*
X007780Y011830D01*
X007780Y011685D01*
X007780Y011830D02*
X007828Y011878D01*
X007877Y011878D01*
X007780Y011980D02*
X007780Y012173D01*
X015205Y004210D02*
X015372Y004210D01*
X015455Y004126D01*
X015372Y004043D01*
X015205Y004043D01*
X015205Y003952D02*
X015205Y003785D01*
X015330Y003785D01*
X015288Y003868D01*
X015288Y003910D01*
X015330Y003952D01*
X015413Y003952D01*
X015455Y003910D01*
X015455Y003827D01*
X015413Y003785D01*
X007925Y002566D02*
X007635Y002566D01*
X007635Y002662D02*
X007635Y002469D01*
X007635Y002368D02*
X007635Y002174D01*
X007635Y002271D02*
X007925Y002271D01*
X007925Y002073D02*
X007732Y002073D01*
X007635Y001976D01*
X007732Y001880D01*
X007925Y001880D01*
X007877Y001778D02*
X007925Y001730D01*
X007925Y001585D01*
X007635Y001585D01*
X007635Y001730D01*
X007683Y001778D01*
X007732Y001778D01*
X007780Y001730D01*
X007780Y001585D01*
X007780Y001730D02*
X007828Y001778D01*
X007877Y001778D01*
X007780Y001880D02*
X007780Y002073D01*
D14*
X007560Y010600D02*
X008410Y010600D01*
X009210Y010600D02*
X010060Y010600D01*
X010860Y010600D02*
X011710Y010600D01*
X012510Y010600D02*
X013360Y010600D01*
X014160Y010600D02*
X015010Y010600D01*
X015810Y010600D02*
X016660Y010600D01*
X017460Y010600D02*
X018310Y010600D01*
X019110Y010600D02*
X019960Y010600D01*
X020760Y010600D02*
X021610Y010600D01*
X022410Y010600D02*
X023260Y010600D01*
X024060Y010600D02*
X024910Y010600D01*
X006760Y010600D02*
X005910Y010600D01*
D15*
X007652Y005550D02*
X007654Y005560D01*
X007659Y005569D01*
X007668Y005575D01*
X007677Y005578D01*
X007688Y005577D01*
X007697Y005572D01*
X007704Y005565D01*
X007708Y005555D01*
X007708Y005545D01*
X007704Y005535D01*
X007697Y005528D01*
X007688Y005523D01*
X007677Y005522D01*
X007668Y005525D01*
X007659Y005531D01*
X007654Y005540D01*
X007652Y005550D01*
X016510Y008425D02*
X016860Y008425D01*
X016510Y008425D02*
X016510Y008725D01*
X017010Y008925D02*
X017010Y009075D01*
X016860Y009575D02*
X016510Y009575D01*
X016510Y009275D01*
X022410Y005750D02*
X022412Y005770D01*
X022418Y005788D01*
X022427Y005806D01*
X022439Y005821D01*
X022454Y005833D01*
X022472Y005842D01*
X022490Y005848D01*
X022510Y005850D01*
X022530Y005848D01*
X022548Y005842D01*
X022566Y005833D01*
X022581Y005821D01*
X022593Y005806D01*
X022602Y005788D01*
X022608Y005770D01*
X022610Y005750D01*
X022608Y005730D01*
X022602Y005712D01*
X022593Y005694D01*
X022581Y005679D01*
X022566Y005667D01*
X022548Y005658D01*
X022530Y005652D01*
X022510Y005650D01*
X022490Y005652D01*
X022472Y005658D01*
X022454Y005667D01*
X022439Y005679D01*
X022427Y005694D01*
X022418Y005712D01*
X022412Y005730D01*
X022410Y005750D01*
X022910Y003550D02*
X024310Y003550D01*
X024310Y002950D02*
X022910Y002950D01*
X022910Y013050D02*
X024310Y013050D01*
X024310Y013650D02*
X022910Y013650D01*
X022410Y015850D02*
X022412Y015870D01*
X022418Y015888D01*
X022427Y015906D01*
X022439Y015921D01*
X022454Y015933D01*
X022472Y015942D01*
X022490Y015948D01*
X022510Y015950D01*
X022530Y015948D01*
X022548Y015942D01*
X022566Y015933D01*
X022581Y015921D01*
X022593Y015906D01*
X022602Y015888D01*
X022608Y015870D01*
X022610Y015850D01*
X022608Y015830D01*
X022602Y015812D01*
X022593Y015794D01*
X022581Y015779D01*
X022566Y015767D01*
X022548Y015758D01*
X022530Y015752D01*
X022510Y015750D01*
X022490Y015752D01*
X022472Y015758D01*
X022454Y015767D01*
X022439Y015779D01*
X022427Y015794D01*
X022418Y015812D01*
X022412Y015830D01*
X022410Y015850D01*
X016860Y018525D02*
X016510Y018525D01*
X016510Y018825D01*
X017010Y019025D02*
X017010Y019175D01*
X016860Y019675D02*
X016510Y019675D01*
X016510Y019375D01*
X007652Y015650D02*
X007654Y015660D01*
X007659Y015669D01*
X007668Y015675D01*
X007677Y015678D01*
X007688Y015677D01*
X007697Y015672D01*
X007704Y015665D01*
X007708Y015655D01*
X007708Y015645D01*
X007704Y015635D01*
X007697Y015628D01*
X007688Y015623D01*
X007677Y015622D01*
X007668Y015625D01*
X007659Y015631D01*
X007654Y015640D01*
X007652Y015650D01*
D16*
X007389Y015297D02*
X007389Y014903D01*
X007231Y014903D02*
X007231Y015297D01*
X007192Y015100D02*
X007173Y015100D01*
X007428Y015100D02*
X007447Y015100D01*
X006139Y016482D02*
X006060Y016718D01*
X005942Y016482D01*
X005863Y016639D01*
X005785Y016639D01*
X006139Y016482D02*
X006257Y016639D01*
X006336Y016639D01*
X006421Y017274D02*
X006421Y017353D01*
X006578Y017432D01*
X006342Y017550D01*
X006578Y017629D01*
X006421Y017747D01*
X006421Y017826D01*
X007573Y017850D02*
X007592Y017850D01*
X007631Y018047D02*
X007631Y017653D01*
X007789Y017653D02*
X007789Y018047D01*
X007828Y017850D02*
X007847Y017850D01*
X007789Y017397D02*
X007789Y017003D01*
X007631Y017003D02*
X007631Y017397D01*
X007592Y017200D02*
X007573Y017200D01*
X007828Y017200D02*
X007847Y017200D01*
X007889Y018782D02*
X007810Y019018D01*
X007692Y018782D01*
X007613Y018939D01*
X007535Y018939D01*
X007889Y018782D02*
X008007Y018939D01*
X008086Y018939D01*
X008699Y019574D02*
X008699Y019653D01*
X008542Y019771D01*
X008778Y019850D01*
X008542Y019968D01*
X008699Y020047D01*
X008699Y020126D01*
X009899Y017976D02*
X009899Y017897D01*
X009742Y017818D01*
X009978Y017700D01*
X009742Y017621D01*
X009899Y017503D01*
X009899Y017424D01*
X011092Y017821D02*
X011328Y017900D01*
X011092Y018018D01*
X011249Y018097D01*
X011249Y018176D01*
X011092Y017821D02*
X011249Y017703D01*
X011249Y017624D01*
X014761Y018714D02*
X014761Y018793D01*
X014918Y018872D01*
X014682Y018990D01*
X014918Y019069D01*
X014761Y019187D01*
X014761Y019266D01*
X015650Y017888D02*
X015532Y017652D01*
X015453Y017809D01*
X015375Y017809D01*
X015650Y017888D02*
X015729Y017652D01*
X015847Y017809D01*
X015926Y017809D01*
X015758Y016558D02*
X015837Y016401D01*
X015916Y016401D01*
X015758Y016558D02*
X015640Y016322D01*
X015561Y016558D01*
X015443Y016401D01*
X015365Y016401D01*
X018285Y019251D02*
X018363Y019251D01*
X018481Y019408D01*
X018560Y019172D01*
X018678Y019408D01*
X018757Y019251D01*
X018836Y019251D01*
X019063Y019191D02*
X019457Y019191D01*
X019457Y019349D02*
X019063Y019349D01*
X019260Y019388D02*
X019260Y019407D01*
X019260Y019152D02*
X019260Y019133D01*
X018057Y019521D02*
X017663Y019521D01*
X017663Y019679D02*
X018057Y019679D01*
X017860Y019718D02*
X017860Y019737D01*
X017860Y019482D02*
X017860Y019463D01*
X020285Y018311D02*
X020363Y018311D01*
X020481Y018468D01*
X020560Y018232D01*
X020678Y018468D01*
X020757Y018311D01*
X020836Y018311D01*
X021942Y018318D02*
X022099Y018397D01*
X022099Y018476D01*
X021942Y018318D02*
X022178Y018200D01*
X021942Y018121D01*
X022099Y018003D01*
X022099Y017924D01*
X022519Y018944D02*
X022519Y019023D01*
X022362Y019141D01*
X022598Y019220D01*
X022362Y019338D01*
X022519Y019417D01*
X022519Y019496D01*
X023193Y018786D02*
X023193Y018314D01*
X023478Y018579D01*
X023478Y018786D01*
X023478Y018579D02*
X023478Y018294D01*
X023458Y018540D02*
X023193Y018786D01*
X023193Y018697D02*
X023193Y018658D01*
X023261Y018540D01*
X023340Y018540D01*
X023379Y018540D02*
X023193Y018697D01*
X023193Y018658D02*
X023193Y018422D01*
X023261Y018540D01*
X023379Y018540D02*
X023222Y018422D01*
X023581Y014247D02*
X023581Y013853D01*
X023739Y013853D02*
X023739Y014247D01*
X023778Y014050D02*
X023797Y014050D01*
X023542Y014050D02*
X023523Y014050D01*
X023189Y012747D02*
X023189Y012353D01*
X023031Y012353D02*
X023031Y012747D01*
X022992Y012550D02*
X022973Y012550D01*
X023228Y012550D02*
X023247Y012550D01*
X022519Y009396D02*
X022519Y009317D01*
X022362Y009238D01*
X022598Y009120D01*
X022362Y009041D01*
X022519Y008923D01*
X022519Y008844D01*
X022099Y008376D02*
X022099Y008297D01*
X021942Y008218D01*
X022178Y008100D01*
X021942Y008021D01*
X022099Y007903D01*
X022099Y007824D01*
X023193Y008214D02*
X023193Y008686D01*
X023458Y008440D01*
X023478Y008479D02*
X023193Y008214D01*
X023193Y008322D02*
X023261Y008440D01*
X023340Y008440D01*
X023379Y008440D02*
X023193Y008597D01*
X023193Y008558D01*
X023261Y008440D01*
X023379Y008440D02*
X023222Y008322D01*
X023193Y008322D02*
X023193Y008558D01*
X023478Y008479D02*
X023478Y008194D01*
X023478Y008479D02*
X023478Y008686D01*
X020836Y008211D02*
X020757Y008211D01*
X020678Y008368D01*
X020560Y008132D01*
X020481Y008368D01*
X020363Y008211D01*
X020285Y008211D01*
X019457Y009091D02*
X019063Y009091D01*
X019063Y009249D02*
X019457Y009249D01*
X019260Y009288D02*
X019260Y009307D01*
X019260Y009052D02*
X019260Y009033D01*
X018836Y009151D02*
X018757Y009151D01*
X018678Y009308D01*
X018560Y009072D01*
X018481Y009308D01*
X018363Y009151D01*
X018285Y009151D01*
X018057Y009421D02*
X017663Y009421D01*
X017663Y009579D02*
X018057Y009579D01*
X017860Y009618D02*
X017860Y009637D01*
X017860Y009382D02*
X017860Y009363D01*
X015926Y007709D02*
X015847Y007709D01*
X015729Y007552D01*
X015650Y007788D01*
X015532Y007552D01*
X015453Y007709D01*
X015375Y007709D01*
X014761Y008614D02*
X014761Y008693D01*
X014918Y008772D01*
X014682Y008890D01*
X014918Y008969D01*
X014761Y009087D01*
X014761Y009166D01*
X015561Y006458D02*
X015640Y006222D01*
X015758Y006458D01*
X015837Y006301D01*
X015916Y006301D01*
X015561Y006458D02*
X015443Y006301D01*
X015365Y006301D01*
X011887Y004399D02*
X011493Y004399D01*
X011493Y004241D02*
X011887Y004241D01*
X011690Y004202D02*
X011690Y004183D01*
X011690Y004438D02*
X011690Y004457D01*
X011307Y004399D02*
X010913Y004399D01*
X010913Y004241D02*
X011307Y004241D01*
X011110Y004202D02*
X011110Y004183D01*
X011110Y004438D02*
X011110Y004457D01*
X010139Y004247D02*
X010139Y003853D01*
X009981Y003853D02*
X009981Y004247D01*
X009942Y004050D02*
X009923Y004050D01*
X010178Y004050D02*
X010197Y004050D01*
X007447Y005000D02*
X007428Y005000D01*
X007389Y005197D02*
X007389Y004803D01*
X007231Y004803D02*
X007231Y005197D01*
X007192Y005000D02*
X007173Y005000D01*
X006139Y006382D02*
X006060Y006618D01*
X005942Y006382D01*
X005863Y006539D01*
X005785Y006539D01*
X006139Y006382D02*
X006257Y006539D01*
X006336Y006539D01*
X006421Y007174D02*
X006421Y007253D01*
X006578Y007332D01*
X006342Y007450D01*
X006578Y007529D01*
X006421Y007647D01*
X006421Y007726D01*
X007573Y007750D02*
X007592Y007750D01*
X007631Y007947D02*
X007631Y007553D01*
X007789Y007553D02*
X007789Y007947D01*
X007828Y007750D02*
X007847Y007750D01*
X007789Y007297D02*
X007789Y006903D01*
X007631Y006903D02*
X007631Y007297D01*
X007592Y007100D02*
X007573Y007100D01*
X007828Y007100D02*
X007847Y007100D01*
X007889Y008682D02*
X007810Y008918D01*
X007692Y008682D01*
X007613Y008839D01*
X007535Y008839D01*
X007889Y008682D02*
X008007Y008839D01*
X008086Y008839D01*
X008699Y009474D02*
X008699Y009553D01*
X008542Y009671D01*
X008778Y009750D01*
X008542Y009868D01*
X008699Y009947D01*
X008699Y010026D01*
X009899Y007876D02*
X009899Y007797D01*
X009742Y007718D01*
X009978Y007600D01*
X009742Y007521D01*
X009899Y007403D01*
X009899Y007324D01*
X011092Y007721D02*
X011328Y007800D01*
X011092Y007918D01*
X011249Y007997D01*
X011249Y008076D01*
X011092Y007721D02*
X011249Y007603D01*
X011249Y007524D01*
X018532Y003450D02*
X018768Y003332D01*
X018611Y003253D01*
X018611Y003174D01*
X018532Y003450D02*
X018768Y003529D01*
X018611Y003647D01*
X018611Y003726D01*
X022973Y002450D02*
X022992Y002450D01*
X023031Y002253D02*
X023031Y002647D01*
X023189Y002647D02*
X023189Y002253D01*
X023228Y002450D02*
X023247Y002450D01*
X023581Y003753D02*
X023581Y004147D01*
X023739Y004147D02*
X023739Y003753D01*
X023778Y003950D02*
X023797Y003950D01*
X023542Y003950D02*
X023523Y003950D01*
X018611Y013274D02*
X018611Y013353D01*
X018768Y013432D01*
X018532Y013550D01*
X018768Y013629D01*
X018611Y013747D01*
X018611Y013826D01*
X011887Y014341D02*
X011493Y014341D01*
X011493Y014499D02*
X011887Y014499D01*
X011690Y014538D02*
X011690Y014557D01*
X011690Y014302D02*
X011690Y014283D01*
X011307Y014341D02*
X010913Y014341D01*
X010913Y014499D02*
X011307Y014499D01*
X011110Y014538D02*
X011110Y014557D01*
X011110Y014302D02*
X011110Y014283D01*
X010197Y014150D02*
X010178Y014150D01*
X010139Y014347D02*
X010139Y013953D01*
X009981Y013953D02*
X009981Y014347D01*
X009942Y014150D02*
X009923Y014150D01*
D17*
X009354Y013965D02*
X009354Y013335D01*
X009353Y013335D02*
X009348Y013319D01*
X009340Y013303D01*
X009330Y013289D01*
X009318Y013277D01*
X009303Y013267D01*
X009287Y013260D01*
X009270Y013256D01*
X009253Y013255D01*
X009235Y013257D01*
X009060Y012900D02*
X009060Y012400D01*
X008810Y012150D01*
X009060Y011900D01*
X009060Y011400D01*
X008810Y011150D01*
X008310Y011150D01*
X008060Y011400D01*
X008060Y011900D01*
X008310Y012150D01*
X008060Y012400D01*
X008060Y012900D01*
X008310Y013150D01*
X008810Y013150D01*
X009060Y012900D01*
X008685Y013257D02*
X008665Y013255D01*
X008646Y013257D01*
X008627Y013263D01*
X008610Y013272D01*
X008594Y013284D01*
X008582Y013299D01*
X008573Y013317D01*
X008567Y013335D01*
X008566Y013335D02*
X008566Y013965D01*
X008567Y013965D02*
X008573Y013983D01*
X008582Y014001D01*
X008594Y014016D01*
X008610Y014028D01*
X008627Y014037D01*
X008646Y014043D01*
X008665Y014045D01*
X008685Y014043D01*
X009235Y014043D02*
X009253Y014045D01*
X009270Y014044D01*
X009287Y014040D01*
X009303Y014033D01*
X009318Y014023D01*
X009330Y014011D01*
X009340Y013997D01*
X009348Y013981D01*
X009353Y013965D01*
X006754Y018085D02*
X006754Y018715D01*
X006753Y018715D02*
X006748Y018731D01*
X006740Y018747D01*
X006730Y018761D01*
X006718Y018773D01*
X006703Y018783D01*
X006687Y018790D01*
X006670Y018794D01*
X006653Y018795D01*
X006635Y018793D01*
X006085Y018793D02*
X006065Y018795D01*
X006046Y018793D01*
X006027Y018787D01*
X006010Y018778D01*
X005994Y018766D01*
X005982Y018751D01*
X005973Y018733D01*
X005967Y018715D01*
X005966Y018715D02*
X005966Y018085D01*
X005967Y018085D02*
X005973Y018067D01*
X005982Y018049D01*
X005994Y018034D01*
X006010Y018022D01*
X006027Y018013D01*
X006046Y018007D01*
X006065Y018005D01*
X006085Y018007D01*
X006635Y018007D02*
X006653Y018005D01*
X006670Y018006D01*
X006687Y018010D01*
X006703Y018017D01*
X006718Y018027D01*
X006730Y018039D01*
X006740Y018053D01*
X006748Y018069D01*
X006753Y018085D01*
X006754Y008615D02*
X006754Y007985D01*
X006753Y007985D02*
X006748Y007969D01*
X006740Y007953D01*
X006730Y007939D01*
X006718Y007927D01*
X006703Y007917D01*
X006687Y007910D01*
X006670Y007906D01*
X006653Y007905D01*
X006635Y007907D01*
X006085Y007907D02*
X006065Y007905D01*
X006046Y007907D01*
X006027Y007913D01*
X006010Y007922D01*
X005994Y007934D01*
X005982Y007949D01*
X005973Y007967D01*
X005967Y007985D01*
X005966Y007985D02*
X005966Y008615D01*
X005967Y008615D02*
X005973Y008633D01*
X005982Y008651D01*
X005994Y008666D01*
X006010Y008678D01*
X006027Y008687D01*
X006046Y008693D01*
X006065Y008695D01*
X006085Y008693D01*
X006635Y008693D02*
X006653Y008695D01*
X006670Y008694D01*
X006687Y008690D01*
X006703Y008683D01*
X006718Y008673D01*
X006730Y008661D01*
X006740Y008647D01*
X006748Y008631D01*
X006753Y008615D01*
X008566Y003865D02*
X008566Y003235D01*
X008567Y003235D02*
X008573Y003217D01*
X008582Y003199D01*
X008594Y003184D01*
X008610Y003172D01*
X008627Y003163D01*
X008646Y003157D01*
X008665Y003155D01*
X008685Y003157D01*
X008810Y003050D02*
X008310Y003050D01*
X008060Y002800D01*
X008060Y002300D01*
X008310Y002050D01*
X008060Y001800D01*
X008060Y001300D01*
X008310Y001050D01*
X008810Y001050D01*
X009060Y001300D01*
X009060Y001800D01*
X008810Y002050D01*
X009060Y002300D01*
X009060Y002800D01*
X008810Y003050D01*
X009235Y003157D02*
X009253Y003155D01*
X009270Y003156D01*
X009287Y003160D01*
X009303Y003167D01*
X009318Y003177D01*
X009330Y003189D01*
X009340Y003203D01*
X009348Y003219D01*
X009353Y003235D01*
X009354Y003235D02*
X009354Y003865D01*
X009353Y003865D02*
X009348Y003881D01*
X009340Y003897D01*
X009330Y003911D01*
X009318Y003923D01*
X009303Y003933D01*
X009287Y003940D01*
X009270Y003944D01*
X009253Y003945D01*
X009235Y003943D01*
X008685Y003943D02*
X008665Y003945D01*
X008646Y003943D01*
X008627Y003937D01*
X008610Y003928D01*
X008594Y003916D01*
X008582Y003901D01*
X008573Y003883D01*
X008567Y003865D01*
X019960Y003719D02*
X020353Y003392D01*
X021260Y004481D02*
X020867Y004808D01*
X020353Y013492D02*
X019960Y013819D01*
X020867Y014908D02*
X021260Y014581D01*
M02*
