G75*
%MOIN*%
%OFA0B0*%
%FSLAX24Y24*%
%IPPOS*%
%LPD*%
%AMOC8*
5,1,8,0,0,1.08239X$1,22.5*
%
%ADD10C,0.0000*%
%ADD11C,0.0946*%
%ADD12R,0.0600X0.0300*%
%ADD13R,0.0395X0.0552*%
%ADD14C,0.0099*%
%ADD15R,0.0435X0.0592*%
%ADD16R,0.0530X0.0480*%
%ADD17R,0.0316X0.0946*%
%ADD18C,0.0640*%
%ADD19R,0.0580X0.0330*%
%ADD20R,0.0540X0.0220*%
%ADD21R,0.0552X0.0395*%
%ADD22R,0.0592X0.0435*%
%ADD23OC8,0.0740*%
%ADD24C,0.0820*%
%ADD25R,0.0552X0.0356*%
%ADD26R,0.0356X0.0749*%
%ADD27R,0.0290X0.0580*%
%ADD28R,0.0580X0.0290*%
%ADD29OC8,0.0680*%
%ADD30OC8,0.0720*%
%ADD31OC8,0.0840*%
D10*
X005610Y001350D02*
X005610Y019820D01*
X005612Y019864D01*
X005618Y019907D01*
X005627Y019949D01*
X005640Y019991D01*
X005657Y020031D01*
X005677Y020070D01*
X005700Y020107D01*
X005727Y020141D01*
X005756Y020174D01*
X005789Y020203D01*
X005823Y020230D01*
X005860Y020253D01*
X005899Y020273D01*
X005939Y020290D01*
X005981Y020303D01*
X006023Y020312D01*
X006066Y020318D01*
X006110Y020320D01*
X024716Y020320D01*
X024760Y020318D01*
X024803Y020312D01*
X024845Y020303D01*
X024887Y020290D01*
X024927Y020273D01*
X024966Y020253D01*
X025003Y020230D01*
X025037Y020203D01*
X025070Y020174D01*
X025099Y020141D01*
X025126Y020107D01*
X025149Y020070D01*
X025169Y020031D01*
X025186Y019991D01*
X025199Y019949D01*
X025208Y019907D01*
X025214Y019864D01*
X025216Y019820D01*
X025216Y001350D01*
X025214Y001306D01*
X025208Y001263D01*
X025199Y001221D01*
X025186Y001179D01*
X025169Y001139D01*
X025149Y001100D01*
X025126Y001063D01*
X025099Y001029D01*
X025070Y000996D01*
X025037Y000967D01*
X025003Y000940D01*
X024966Y000917D01*
X024927Y000897D01*
X024887Y000880D01*
X024845Y000867D01*
X024803Y000858D01*
X024760Y000852D01*
X024716Y000850D01*
X006110Y000850D01*
X006066Y000852D01*
X006023Y000858D01*
X005981Y000867D01*
X005939Y000880D01*
X005899Y000897D01*
X005860Y000917D01*
X005823Y000940D01*
X005789Y000967D01*
X005756Y000996D01*
X005727Y001029D01*
X005700Y001063D01*
X005677Y001100D01*
X005657Y001139D01*
X005640Y001179D01*
X005627Y001221D01*
X005618Y001263D01*
X005612Y001306D01*
X005610Y001350D01*
X006075Y001698D02*
X006077Y001739D01*
X006083Y001780D01*
X006093Y001820D01*
X006106Y001859D01*
X006123Y001896D01*
X006144Y001932D01*
X006168Y001966D01*
X006195Y001997D01*
X006224Y002025D01*
X006257Y002051D01*
X006291Y002073D01*
X006328Y002092D01*
X006366Y002107D01*
X006406Y002119D01*
X006446Y002127D01*
X006487Y002131D01*
X006529Y002131D01*
X006570Y002127D01*
X006610Y002119D01*
X006650Y002107D01*
X006688Y002092D01*
X006724Y002073D01*
X006759Y002051D01*
X006792Y002025D01*
X006821Y001997D01*
X006848Y001966D01*
X006872Y001932D01*
X006893Y001896D01*
X006910Y001859D01*
X006923Y001820D01*
X006933Y001780D01*
X006939Y001739D01*
X006941Y001698D01*
X006939Y001657D01*
X006933Y001616D01*
X006923Y001576D01*
X006910Y001537D01*
X006893Y001500D01*
X006872Y001464D01*
X006848Y001430D01*
X006821Y001399D01*
X006792Y001371D01*
X006759Y001345D01*
X006725Y001323D01*
X006688Y001304D01*
X006650Y001289D01*
X006610Y001277D01*
X006570Y001269D01*
X006529Y001265D01*
X006487Y001265D01*
X006446Y001269D01*
X006406Y001277D01*
X006366Y001289D01*
X006328Y001304D01*
X006292Y001323D01*
X006257Y001345D01*
X006224Y001371D01*
X006195Y001399D01*
X006168Y001430D01*
X006144Y001464D01*
X006123Y001500D01*
X006106Y001537D01*
X006093Y001576D01*
X006083Y001616D01*
X006077Y001657D01*
X006075Y001698D01*
X006075Y009372D02*
X006077Y009413D01*
X006083Y009454D01*
X006093Y009494D01*
X006106Y009533D01*
X006123Y009570D01*
X006144Y009606D01*
X006168Y009640D01*
X006195Y009671D01*
X006224Y009699D01*
X006257Y009725D01*
X006291Y009747D01*
X006328Y009766D01*
X006366Y009781D01*
X006406Y009793D01*
X006446Y009801D01*
X006487Y009805D01*
X006529Y009805D01*
X006570Y009801D01*
X006610Y009793D01*
X006650Y009781D01*
X006688Y009766D01*
X006724Y009747D01*
X006759Y009725D01*
X006792Y009699D01*
X006821Y009671D01*
X006848Y009640D01*
X006872Y009606D01*
X006893Y009570D01*
X006910Y009533D01*
X006923Y009494D01*
X006933Y009454D01*
X006939Y009413D01*
X006941Y009372D01*
X006939Y009331D01*
X006933Y009290D01*
X006923Y009250D01*
X006910Y009211D01*
X006893Y009174D01*
X006872Y009138D01*
X006848Y009104D01*
X006821Y009073D01*
X006792Y009045D01*
X006759Y009019D01*
X006725Y008997D01*
X006688Y008978D01*
X006650Y008963D01*
X006610Y008951D01*
X006570Y008943D01*
X006529Y008939D01*
X006487Y008939D01*
X006446Y008943D01*
X006406Y008951D01*
X006366Y008963D01*
X006328Y008978D01*
X006292Y008997D01*
X006257Y009019D01*
X006224Y009045D01*
X006195Y009073D01*
X006168Y009104D01*
X006144Y009138D01*
X006123Y009174D01*
X006106Y009211D01*
X006093Y009250D01*
X006083Y009290D01*
X006077Y009331D01*
X006075Y009372D01*
X006075Y011798D02*
X006077Y011839D01*
X006083Y011880D01*
X006093Y011920D01*
X006106Y011959D01*
X006123Y011996D01*
X006144Y012032D01*
X006168Y012066D01*
X006195Y012097D01*
X006224Y012125D01*
X006257Y012151D01*
X006291Y012173D01*
X006328Y012192D01*
X006366Y012207D01*
X006406Y012219D01*
X006446Y012227D01*
X006487Y012231D01*
X006529Y012231D01*
X006570Y012227D01*
X006610Y012219D01*
X006650Y012207D01*
X006688Y012192D01*
X006724Y012173D01*
X006759Y012151D01*
X006792Y012125D01*
X006821Y012097D01*
X006848Y012066D01*
X006872Y012032D01*
X006893Y011996D01*
X006910Y011959D01*
X006923Y011920D01*
X006933Y011880D01*
X006939Y011839D01*
X006941Y011798D01*
X006939Y011757D01*
X006933Y011716D01*
X006923Y011676D01*
X006910Y011637D01*
X006893Y011600D01*
X006872Y011564D01*
X006848Y011530D01*
X006821Y011499D01*
X006792Y011471D01*
X006759Y011445D01*
X006725Y011423D01*
X006688Y011404D01*
X006650Y011389D01*
X006610Y011377D01*
X006570Y011369D01*
X006529Y011365D01*
X006487Y011365D01*
X006446Y011369D01*
X006406Y011377D01*
X006366Y011389D01*
X006328Y011404D01*
X006292Y011423D01*
X006257Y011445D01*
X006224Y011471D01*
X006195Y011499D01*
X006168Y011530D01*
X006144Y011564D01*
X006123Y011600D01*
X006106Y011637D01*
X006093Y011676D01*
X006083Y011716D01*
X006077Y011757D01*
X006075Y011798D01*
X006075Y019472D02*
X006077Y019513D01*
X006083Y019554D01*
X006093Y019594D01*
X006106Y019633D01*
X006123Y019670D01*
X006144Y019706D01*
X006168Y019740D01*
X006195Y019771D01*
X006224Y019799D01*
X006257Y019825D01*
X006291Y019847D01*
X006328Y019866D01*
X006366Y019881D01*
X006406Y019893D01*
X006446Y019901D01*
X006487Y019905D01*
X006529Y019905D01*
X006570Y019901D01*
X006610Y019893D01*
X006650Y019881D01*
X006688Y019866D01*
X006724Y019847D01*
X006759Y019825D01*
X006792Y019799D01*
X006821Y019771D01*
X006848Y019740D01*
X006872Y019706D01*
X006893Y019670D01*
X006910Y019633D01*
X006923Y019594D01*
X006933Y019554D01*
X006939Y019513D01*
X006941Y019472D01*
X006939Y019431D01*
X006933Y019390D01*
X006923Y019350D01*
X006910Y019311D01*
X006893Y019274D01*
X006872Y019238D01*
X006848Y019204D01*
X006821Y019173D01*
X006792Y019145D01*
X006759Y019119D01*
X006725Y019097D01*
X006688Y019078D01*
X006650Y019063D01*
X006610Y019051D01*
X006570Y019043D01*
X006529Y019039D01*
X006487Y019039D01*
X006446Y019043D01*
X006406Y019051D01*
X006366Y019063D01*
X006328Y019078D01*
X006292Y019097D01*
X006257Y019119D01*
X006224Y019145D01*
X006195Y019173D01*
X006168Y019204D01*
X006144Y019238D01*
X006123Y019274D01*
X006106Y019311D01*
X006093Y019350D01*
X006083Y019390D01*
X006077Y019431D01*
X006075Y019472D01*
X023885Y019472D02*
X023887Y019513D01*
X023893Y019554D01*
X023903Y019594D01*
X023916Y019633D01*
X023933Y019670D01*
X023954Y019706D01*
X023978Y019740D01*
X024005Y019771D01*
X024034Y019799D01*
X024067Y019825D01*
X024101Y019847D01*
X024138Y019866D01*
X024176Y019881D01*
X024216Y019893D01*
X024256Y019901D01*
X024297Y019905D01*
X024339Y019905D01*
X024380Y019901D01*
X024420Y019893D01*
X024460Y019881D01*
X024498Y019866D01*
X024534Y019847D01*
X024569Y019825D01*
X024602Y019799D01*
X024631Y019771D01*
X024658Y019740D01*
X024682Y019706D01*
X024703Y019670D01*
X024720Y019633D01*
X024733Y019594D01*
X024743Y019554D01*
X024749Y019513D01*
X024751Y019472D01*
X024749Y019431D01*
X024743Y019390D01*
X024733Y019350D01*
X024720Y019311D01*
X024703Y019274D01*
X024682Y019238D01*
X024658Y019204D01*
X024631Y019173D01*
X024602Y019145D01*
X024569Y019119D01*
X024535Y019097D01*
X024498Y019078D01*
X024460Y019063D01*
X024420Y019051D01*
X024380Y019043D01*
X024339Y019039D01*
X024297Y019039D01*
X024256Y019043D01*
X024216Y019051D01*
X024176Y019063D01*
X024138Y019078D01*
X024102Y019097D01*
X024067Y019119D01*
X024034Y019145D01*
X024005Y019173D01*
X023978Y019204D01*
X023954Y019238D01*
X023933Y019274D01*
X023916Y019311D01*
X023903Y019350D01*
X023893Y019390D01*
X023887Y019431D01*
X023885Y019472D01*
X023885Y011798D02*
X023887Y011839D01*
X023893Y011880D01*
X023903Y011920D01*
X023916Y011959D01*
X023933Y011996D01*
X023954Y012032D01*
X023978Y012066D01*
X024005Y012097D01*
X024034Y012125D01*
X024067Y012151D01*
X024101Y012173D01*
X024138Y012192D01*
X024176Y012207D01*
X024216Y012219D01*
X024256Y012227D01*
X024297Y012231D01*
X024339Y012231D01*
X024380Y012227D01*
X024420Y012219D01*
X024460Y012207D01*
X024498Y012192D01*
X024534Y012173D01*
X024569Y012151D01*
X024602Y012125D01*
X024631Y012097D01*
X024658Y012066D01*
X024682Y012032D01*
X024703Y011996D01*
X024720Y011959D01*
X024733Y011920D01*
X024743Y011880D01*
X024749Y011839D01*
X024751Y011798D01*
X024749Y011757D01*
X024743Y011716D01*
X024733Y011676D01*
X024720Y011637D01*
X024703Y011600D01*
X024682Y011564D01*
X024658Y011530D01*
X024631Y011499D01*
X024602Y011471D01*
X024569Y011445D01*
X024535Y011423D01*
X024498Y011404D01*
X024460Y011389D01*
X024420Y011377D01*
X024380Y011369D01*
X024339Y011365D01*
X024297Y011365D01*
X024256Y011369D01*
X024216Y011377D01*
X024176Y011389D01*
X024138Y011404D01*
X024102Y011423D01*
X024067Y011445D01*
X024034Y011471D01*
X024005Y011499D01*
X023978Y011530D01*
X023954Y011564D01*
X023933Y011600D01*
X023916Y011637D01*
X023903Y011676D01*
X023893Y011716D01*
X023887Y011757D01*
X023885Y011798D01*
X023885Y009372D02*
X023887Y009413D01*
X023893Y009454D01*
X023903Y009494D01*
X023916Y009533D01*
X023933Y009570D01*
X023954Y009606D01*
X023978Y009640D01*
X024005Y009671D01*
X024034Y009699D01*
X024067Y009725D01*
X024101Y009747D01*
X024138Y009766D01*
X024176Y009781D01*
X024216Y009793D01*
X024256Y009801D01*
X024297Y009805D01*
X024339Y009805D01*
X024380Y009801D01*
X024420Y009793D01*
X024460Y009781D01*
X024498Y009766D01*
X024534Y009747D01*
X024569Y009725D01*
X024602Y009699D01*
X024631Y009671D01*
X024658Y009640D01*
X024682Y009606D01*
X024703Y009570D01*
X024720Y009533D01*
X024733Y009494D01*
X024743Y009454D01*
X024749Y009413D01*
X024751Y009372D01*
X024749Y009331D01*
X024743Y009290D01*
X024733Y009250D01*
X024720Y009211D01*
X024703Y009174D01*
X024682Y009138D01*
X024658Y009104D01*
X024631Y009073D01*
X024602Y009045D01*
X024569Y009019D01*
X024535Y008997D01*
X024498Y008978D01*
X024460Y008963D01*
X024420Y008951D01*
X024380Y008943D01*
X024339Y008939D01*
X024297Y008939D01*
X024256Y008943D01*
X024216Y008951D01*
X024176Y008963D01*
X024138Y008978D01*
X024102Y008997D01*
X024067Y009019D01*
X024034Y009045D01*
X024005Y009073D01*
X023978Y009104D01*
X023954Y009138D01*
X023933Y009174D01*
X023916Y009211D01*
X023903Y009250D01*
X023893Y009290D01*
X023887Y009331D01*
X023885Y009372D01*
X023885Y001698D02*
X023887Y001739D01*
X023893Y001780D01*
X023903Y001820D01*
X023916Y001859D01*
X023933Y001896D01*
X023954Y001932D01*
X023978Y001966D01*
X024005Y001997D01*
X024034Y002025D01*
X024067Y002051D01*
X024101Y002073D01*
X024138Y002092D01*
X024176Y002107D01*
X024216Y002119D01*
X024256Y002127D01*
X024297Y002131D01*
X024339Y002131D01*
X024380Y002127D01*
X024420Y002119D01*
X024460Y002107D01*
X024498Y002092D01*
X024534Y002073D01*
X024569Y002051D01*
X024602Y002025D01*
X024631Y001997D01*
X024658Y001966D01*
X024682Y001932D01*
X024703Y001896D01*
X024720Y001859D01*
X024733Y001820D01*
X024743Y001780D01*
X024749Y001739D01*
X024751Y001698D01*
X024749Y001657D01*
X024743Y001616D01*
X024733Y001576D01*
X024720Y001537D01*
X024703Y001500D01*
X024682Y001464D01*
X024658Y001430D01*
X024631Y001399D01*
X024602Y001371D01*
X024569Y001345D01*
X024535Y001323D01*
X024498Y001304D01*
X024460Y001289D01*
X024420Y001277D01*
X024380Y001269D01*
X024339Y001265D01*
X024297Y001265D01*
X024256Y001269D01*
X024216Y001277D01*
X024176Y001289D01*
X024138Y001304D01*
X024102Y001323D01*
X024067Y001345D01*
X024034Y001371D01*
X024005Y001399D01*
X023978Y001430D01*
X023954Y001464D01*
X023933Y001500D01*
X023916Y001537D01*
X023903Y001576D01*
X023893Y001616D01*
X023887Y001657D01*
X023885Y001698D01*
D11*
X024318Y001698D03*
X024318Y009372D03*
X024318Y011798D03*
X024318Y019472D03*
X006508Y019472D03*
X006508Y011798D03*
X006508Y009372D03*
X006508Y001698D03*
D12*
X007050Y005680D03*
X007050Y006050D03*
X007050Y006420D03*
X008070Y006420D03*
X008070Y006050D03*
X008070Y005680D03*
X009830Y006280D03*
X009830Y007020D03*
X010690Y006650D03*
X008630Y008430D03*
X008630Y009170D03*
X009490Y008800D03*
X008070Y015780D03*
X008070Y016150D03*
X008070Y016520D03*
X007050Y016520D03*
X007050Y016150D03*
X007050Y015780D03*
X009830Y016380D03*
X009830Y017120D03*
X010690Y016750D03*
X008630Y018530D03*
X008630Y019270D03*
X009490Y018900D03*
D13*
X007864Y014450D03*
X007156Y014450D03*
X007156Y004350D03*
X007864Y004350D03*
D14*
X005813Y005958D02*
X005813Y006254D01*
X006307Y006254D01*
X006307Y005958D01*
X005813Y005958D01*
X005813Y006056D02*
X006307Y006056D01*
X006307Y006154D02*
X005813Y006154D01*
X005813Y006252D02*
X006307Y006252D01*
X005813Y006746D02*
X005813Y007042D01*
X006307Y007042D01*
X006307Y006746D01*
X005813Y006746D01*
X005813Y006844D02*
X006307Y006844D01*
X006307Y006942D02*
X005813Y006942D01*
X005813Y007040D02*
X006307Y007040D01*
X006214Y007203D02*
X005918Y007203D01*
X005918Y007697D01*
X006214Y007697D01*
X006214Y007203D01*
X006214Y007301D02*
X005918Y007301D01*
X005918Y007399D02*
X006214Y007399D01*
X006214Y007497D02*
X005918Y007497D01*
X005918Y007595D02*
X006214Y007595D01*
X006214Y007693D02*
X005918Y007693D01*
X006706Y007203D02*
X007002Y007203D01*
X006706Y007203D02*
X006706Y007697D01*
X007002Y007697D01*
X007002Y007203D01*
X007002Y007301D02*
X006706Y007301D01*
X006706Y007399D02*
X007002Y007399D01*
X007002Y007497D02*
X006706Y007497D01*
X006706Y007595D02*
X007002Y007595D01*
X007002Y007693D02*
X006706Y007693D01*
X007563Y008258D02*
X007563Y008554D01*
X008057Y008554D01*
X008057Y008258D01*
X007563Y008258D01*
X007563Y008356D02*
X008057Y008356D01*
X008057Y008454D02*
X007563Y008454D01*
X007563Y008552D02*
X008057Y008552D01*
X007563Y009046D02*
X007563Y009342D01*
X008057Y009342D01*
X008057Y009046D01*
X007563Y009046D01*
X007563Y009144D02*
X008057Y009144D01*
X008057Y009242D02*
X007563Y009242D01*
X007563Y009340D02*
X008057Y009340D01*
X008118Y009997D02*
X008414Y009997D01*
X008414Y009503D01*
X008118Y009503D01*
X008118Y009997D01*
X008118Y009601D02*
X008414Y009601D01*
X008414Y009699D02*
X008118Y009699D01*
X008118Y009797D02*
X008414Y009797D01*
X008414Y009895D02*
X008118Y009895D01*
X008118Y009993D02*
X008414Y009993D01*
X008906Y009997D02*
X009202Y009997D01*
X009202Y009503D01*
X008906Y009503D01*
X008906Y009997D01*
X008906Y009601D02*
X009202Y009601D01*
X009202Y009699D02*
X008906Y009699D01*
X008906Y009797D02*
X009202Y009797D01*
X009202Y009895D02*
X008906Y009895D01*
X008906Y009993D02*
X009202Y009993D01*
X010668Y008047D02*
X010964Y008047D01*
X010964Y007553D01*
X010668Y007553D01*
X010668Y008047D01*
X010668Y007651D02*
X010964Y007651D01*
X010964Y007749D02*
X010668Y007749D01*
X010668Y007847D02*
X010964Y007847D01*
X010964Y007945D02*
X010668Y007945D01*
X010668Y008043D02*
X010964Y008043D01*
X011456Y008047D02*
X011752Y008047D01*
X011752Y007553D01*
X011456Y007553D01*
X011456Y008047D01*
X011456Y007651D02*
X011752Y007651D01*
X011752Y007749D02*
X011456Y007749D01*
X011456Y007847D02*
X011752Y007847D01*
X011752Y007945D02*
X011456Y007945D01*
X011456Y008043D02*
X011752Y008043D01*
X010402Y007847D02*
X010106Y007847D01*
X010402Y007847D02*
X010402Y007353D01*
X010106Y007353D01*
X010106Y007847D01*
X010106Y007451D02*
X010402Y007451D01*
X010402Y007549D02*
X010106Y007549D01*
X010106Y007647D02*
X010402Y007647D01*
X010402Y007745D02*
X010106Y007745D01*
X010106Y007843D02*
X010402Y007843D01*
X009614Y007847D02*
X009318Y007847D01*
X009614Y007847D02*
X009614Y007353D01*
X009318Y007353D01*
X009318Y007847D01*
X009318Y007451D02*
X009614Y007451D01*
X009614Y007549D02*
X009318Y007549D01*
X009318Y007647D02*
X009614Y007647D01*
X009614Y007745D02*
X009318Y007745D01*
X009318Y007843D02*
X009614Y007843D01*
X014258Y008643D02*
X014554Y008643D01*
X014258Y008643D02*
X014258Y009137D01*
X014554Y009137D01*
X014554Y008643D01*
X014554Y008741D02*
X014258Y008741D01*
X014258Y008839D02*
X014554Y008839D01*
X014554Y008937D02*
X014258Y008937D01*
X014258Y009035D02*
X014554Y009035D01*
X014554Y009133D02*
X014258Y009133D01*
X015046Y008643D02*
X015342Y008643D01*
X015046Y008643D02*
X015046Y009137D01*
X015342Y009137D01*
X015342Y008643D01*
X015342Y008741D02*
X015046Y008741D01*
X015046Y008839D02*
X015342Y008839D01*
X015342Y008937D02*
X015046Y008937D01*
X015046Y009035D02*
X015342Y009035D01*
X015342Y009133D02*
X015046Y009133D01*
X015403Y008212D02*
X015403Y007916D01*
X015403Y008212D02*
X015897Y008212D01*
X015897Y007916D01*
X015403Y007916D01*
X015403Y008014D02*
X015897Y008014D01*
X015897Y008112D02*
X015403Y008112D01*
X015403Y008210D02*
X015897Y008210D01*
X015403Y007424D02*
X015403Y007128D01*
X015403Y007424D02*
X015897Y007424D01*
X015897Y007128D01*
X015403Y007128D01*
X015403Y007226D02*
X015897Y007226D01*
X015897Y007324D02*
X015403Y007324D01*
X015403Y007422D02*
X015897Y007422D01*
X015887Y006882D02*
X015887Y006586D01*
X015393Y006586D01*
X015393Y006882D01*
X015887Y006882D01*
X015887Y006684D02*
X015393Y006684D01*
X015393Y006782D02*
X015887Y006782D01*
X015887Y006880D02*
X015393Y006880D01*
X015887Y006094D02*
X015887Y005798D01*
X015393Y005798D01*
X015393Y006094D01*
X015887Y006094D01*
X015887Y005896D02*
X015393Y005896D01*
X015393Y005994D02*
X015887Y005994D01*
X015887Y006092D02*
X015393Y006092D01*
X018108Y003203D02*
X018404Y003203D01*
X018108Y003203D02*
X018108Y003697D01*
X018404Y003697D01*
X018404Y003203D01*
X018404Y003301D02*
X018108Y003301D01*
X018108Y003399D02*
X018404Y003399D01*
X018404Y003497D02*
X018108Y003497D01*
X018108Y003595D02*
X018404Y003595D01*
X018404Y003693D02*
X018108Y003693D01*
X018896Y003203D02*
X019192Y003203D01*
X018896Y003203D02*
X018896Y003697D01*
X019192Y003697D01*
X019192Y003203D01*
X019192Y003301D02*
X018896Y003301D01*
X018896Y003399D02*
X019192Y003399D01*
X019192Y003497D02*
X018896Y003497D01*
X018896Y003595D02*
X019192Y003595D01*
X019192Y003693D02*
X018896Y003693D01*
X020807Y007708D02*
X020807Y008004D01*
X020807Y007708D02*
X020313Y007708D01*
X020313Y008004D01*
X020807Y008004D01*
X020807Y007806D02*
X020313Y007806D01*
X020313Y007904D02*
X020807Y007904D01*
X020807Y008002D02*
X020313Y008002D01*
X020807Y008496D02*
X020807Y008792D01*
X020807Y008496D02*
X020313Y008496D01*
X020313Y008792D01*
X020807Y008792D01*
X020807Y008594D02*
X020313Y008594D01*
X020313Y008692D02*
X020807Y008692D01*
X020807Y008790D02*
X020313Y008790D01*
X021518Y008347D02*
X021814Y008347D01*
X021814Y007853D01*
X021518Y007853D01*
X021518Y008347D01*
X021518Y007951D02*
X021814Y007951D01*
X021814Y008049D02*
X021518Y008049D01*
X021518Y008147D02*
X021814Y008147D01*
X021814Y008245D02*
X021518Y008245D01*
X021518Y008343D02*
X021814Y008343D01*
X022306Y008347D02*
X022602Y008347D01*
X022602Y007853D01*
X022306Y007853D01*
X022306Y008347D01*
X022306Y007951D02*
X022602Y007951D01*
X022602Y008049D02*
X022306Y008049D01*
X022306Y008147D02*
X022602Y008147D01*
X022602Y008245D02*
X022306Y008245D01*
X022306Y008343D02*
X022602Y008343D01*
X022798Y008687D02*
X023094Y008687D01*
X023094Y008193D01*
X022798Y008193D01*
X022798Y008687D01*
X022798Y008291D02*
X023094Y008291D01*
X023094Y008389D02*
X022798Y008389D01*
X022798Y008487D02*
X023094Y008487D01*
X023094Y008585D02*
X022798Y008585D01*
X022798Y008683D02*
X023094Y008683D01*
X023022Y009367D02*
X022726Y009367D01*
X023022Y009367D02*
X023022Y008873D01*
X022726Y008873D01*
X022726Y009367D01*
X022726Y008971D02*
X023022Y008971D01*
X023022Y009069D02*
X022726Y009069D01*
X022726Y009167D02*
X023022Y009167D01*
X023022Y009265D02*
X022726Y009265D01*
X022726Y009363D02*
X023022Y009363D01*
X022234Y009367D02*
X021938Y009367D01*
X022234Y009367D02*
X022234Y008873D01*
X021938Y008873D01*
X021938Y009367D01*
X021938Y008971D02*
X022234Y008971D01*
X022234Y009069D02*
X021938Y009069D01*
X021938Y009167D02*
X022234Y009167D01*
X022234Y009265D02*
X021938Y009265D01*
X021938Y009363D02*
X022234Y009363D01*
X023586Y008687D02*
X023882Y008687D01*
X023882Y008193D01*
X023586Y008193D01*
X023586Y008687D01*
X023586Y008291D02*
X023882Y008291D01*
X023882Y008389D02*
X023586Y008389D01*
X023586Y008487D02*
X023882Y008487D01*
X023882Y008585D02*
X023586Y008585D01*
X023586Y008683D02*
X023882Y008683D01*
X018807Y008648D02*
X018807Y008944D01*
X018807Y008648D02*
X018313Y008648D01*
X018313Y008944D01*
X018807Y008944D01*
X018807Y008746D02*
X018313Y008746D01*
X018313Y008844D02*
X018807Y008844D01*
X018807Y008942D02*
X018313Y008942D01*
X018807Y009436D02*
X018807Y009732D01*
X018807Y009436D02*
X018313Y009436D01*
X018313Y009732D01*
X018807Y009732D01*
X018807Y009534D02*
X018313Y009534D01*
X018313Y009632D02*
X018807Y009632D01*
X018807Y009730D02*
X018313Y009730D01*
X018404Y013303D02*
X018108Y013303D01*
X018108Y013797D01*
X018404Y013797D01*
X018404Y013303D01*
X018404Y013401D02*
X018108Y013401D01*
X018108Y013499D02*
X018404Y013499D01*
X018404Y013597D02*
X018108Y013597D01*
X018108Y013695D02*
X018404Y013695D01*
X018404Y013793D02*
X018108Y013793D01*
X018896Y013303D02*
X019192Y013303D01*
X018896Y013303D02*
X018896Y013797D01*
X019192Y013797D01*
X019192Y013303D01*
X019192Y013401D02*
X018896Y013401D01*
X018896Y013499D02*
X019192Y013499D01*
X019192Y013597D02*
X018896Y013597D01*
X018896Y013695D02*
X019192Y013695D01*
X019192Y013793D02*
X018896Y013793D01*
X015887Y015898D02*
X015887Y016194D01*
X015887Y015898D02*
X015393Y015898D01*
X015393Y016194D01*
X015887Y016194D01*
X015887Y015996D02*
X015393Y015996D01*
X015393Y016094D02*
X015887Y016094D01*
X015887Y016192D02*
X015393Y016192D01*
X015887Y016686D02*
X015887Y016982D01*
X015887Y016686D02*
X015393Y016686D01*
X015393Y016982D01*
X015887Y016982D01*
X015887Y016784D02*
X015393Y016784D01*
X015393Y016882D02*
X015887Y016882D01*
X015887Y016980D02*
X015393Y016980D01*
X015403Y017228D02*
X015403Y017524D01*
X015897Y017524D01*
X015897Y017228D01*
X015403Y017228D01*
X015403Y017326D02*
X015897Y017326D01*
X015897Y017424D02*
X015403Y017424D01*
X015403Y017522D02*
X015897Y017522D01*
X015403Y018016D02*
X015403Y018312D01*
X015897Y018312D01*
X015897Y018016D01*
X015403Y018016D01*
X015403Y018114D02*
X015897Y018114D01*
X015897Y018212D02*
X015403Y018212D01*
X015403Y018310D02*
X015897Y018310D01*
X015342Y018743D02*
X015046Y018743D01*
X015046Y019237D01*
X015342Y019237D01*
X015342Y018743D01*
X015342Y018841D02*
X015046Y018841D01*
X015046Y018939D02*
X015342Y018939D01*
X015342Y019037D02*
X015046Y019037D01*
X015046Y019135D02*
X015342Y019135D01*
X015342Y019233D02*
X015046Y019233D01*
X014554Y018743D02*
X014258Y018743D01*
X014258Y019237D01*
X014554Y019237D01*
X014554Y018743D01*
X014554Y018841D02*
X014258Y018841D01*
X014258Y018939D02*
X014554Y018939D01*
X014554Y019037D02*
X014258Y019037D01*
X014258Y019135D02*
X014554Y019135D01*
X014554Y019233D02*
X014258Y019233D01*
X011752Y018147D02*
X011456Y018147D01*
X011752Y018147D02*
X011752Y017653D01*
X011456Y017653D01*
X011456Y018147D01*
X011456Y017751D02*
X011752Y017751D01*
X011752Y017849D02*
X011456Y017849D01*
X011456Y017947D02*
X011752Y017947D01*
X011752Y018045D02*
X011456Y018045D01*
X011456Y018143D02*
X011752Y018143D01*
X010964Y018147D02*
X010668Y018147D01*
X010964Y018147D02*
X010964Y017653D01*
X010668Y017653D01*
X010668Y018147D01*
X010668Y017751D02*
X010964Y017751D01*
X010964Y017849D02*
X010668Y017849D01*
X010668Y017947D02*
X010964Y017947D01*
X010964Y018045D02*
X010668Y018045D01*
X010668Y018143D02*
X010964Y018143D01*
X010402Y017947D02*
X010106Y017947D01*
X010402Y017947D02*
X010402Y017453D01*
X010106Y017453D01*
X010106Y017947D01*
X010106Y017551D02*
X010402Y017551D01*
X010402Y017649D02*
X010106Y017649D01*
X010106Y017747D02*
X010402Y017747D01*
X010402Y017845D02*
X010106Y017845D01*
X010106Y017943D02*
X010402Y017943D01*
X009614Y017947D02*
X009318Y017947D01*
X009614Y017947D02*
X009614Y017453D01*
X009318Y017453D01*
X009318Y017947D01*
X009318Y017551D02*
X009614Y017551D01*
X009614Y017649D02*
X009318Y017649D01*
X009318Y017747D02*
X009614Y017747D01*
X009614Y017845D02*
X009318Y017845D01*
X009318Y017943D02*
X009614Y017943D01*
X007563Y018358D02*
X007563Y018654D01*
X008057Y018654D01*
X008057Y018358D01*
X007563Y018358D01*
X007563Y018456D02*
X008057Y018456D01*
X008057Y018554D02*
X007563Y018554D01*
X007563Y018652D02*
X008057Y018652D01*
X007563Y019146D02*
X007563Y019442D01*
X008057Y019442D01*
X008057Y019146D01*
X007563Y019146D01*
X007563Y019244D02*
X008057Y019244D01*
X008057Y019342D02*
X007563Y019342D01*
X007563Y019440D02*
X008057Y019440D01*
X008118Y020097D02*
X008414Y020097D01*
X008414Y019603D01*
X008118Y019603D01*
X008118Y020097D01*
X008118Y019701D02*
X008414Y019701D01*
X008414Y019799D02*
X008118Y019799D01*
X008118Y019897D02*
X008414Y019897D01*
X008414Y019995D02*
X008118Y019995D01*
X008118Y020093D02*
X008414Y020093D01*
X008906Y020097D02*
X009202Y020097D01*
X009202Y019603D01*
X008906Y019603D01*
X008906Y020097D01*
X008906Y019701D02*
X009202Y019701D01*
X009202Y019799D02*
X008906Y019799D01*
X008906Y019897D02*
X009202Y019897D01*
X009202Y019995D02*
X008906Y019995D01*
X008906Y020093D02*
X009202Y020093D01*
X007002Y017303D02*
X006706Y017303D01*
X006706Y017797D01*
X007002Y017797D01*
X007002Y017303D01*
X007002Y017401D02*
X006706Y017401D01*
X006706Y017499D02*
X007002Y017499D01*
X007002Y017597D02*
X006706Y017597D01*
X006706Y017695D02*
X007002Y017695D01*
X007002Y017793D02*
X006706Y017793D01*
X006214Y017303D02*
X005918Y017303D01*
X005918Y017797D01*
X006214Y017797D01*
X006214Y017303D01*
X006214Y017401D02*
X005918Y017401D01*
X005918Y017499D02*
X006214Y017499D01*
X006214Y017597D02*
X005918Y017597D01*
X005918Y017695D02*
X006214Y017695D01*
X006214Y017793D02*
X005918Y017793D01*
X005813Y017142D02*
X005813Y016846D01*
X005813Y017142D02*
X006307Y017142D01*
X006307Y016846D01*
X005813Y016846D01*
X005813Y016944D02*
X006307Y016944D01*
X006307Y017042D02*
X005813Y017042D01*
X005813Y017140D02*
X006307Y017140D01*
X005813Y016354D02*
X005813Y016058D01*
X005813Y016354D02*
X006307Y016354D01*
X006307Y016058D01*
X005813Y016058D01*
X005813Y016156D02*
X006307Y016156D01*
X006307Y016254D02*
X005813Y016254D01*
X005813Y016352D02*
X006307Y016352D01*
X018807Y018748D02*
X018807Y019044D01*
X018807Y018748D02*
X018313Y018748D01*
X018313Y019044D01*
X018807Y019044D01*
X018807Y018846D02*
X018313Y018846D01*
X018313Y018944D02*
X018807Y018944D01*
X018807Y019042D02*
X018313Y019042D01*
X018807Y019536D02*
X018807Y019832D01*
X018807Y019536D02*
X018313Y019536D01*
X018313Y019832D01*
X018807Y019832D01*
X018807Y019634D02*
X018313Y019634D01*
X018313Y019732D02*
X018807Y019732D01*
X018807Y019830D02*
X018313Y019830D01*
X020807Y018892D02*
X020807Y018596D01*
X020313Y018596D01*
X020313Y018892D01*
X020807Y018892D01*
X020807Y018694D02*
X020313Y018694D01*
X020313Y018792D02*
X020807Y018792D01*
X020807Y018890D02*
X020313Y018890D01*
X020807Y018104D02*
X020807Y017808D01*
X020313Y017808D01*
X020313Y018104D01*
X020807Y018104D01*
X020807Y017906D02*
X020313Y017906D01*
X020313Y018004D02*
X020807Y018004D01*
X020807Y018102D02*
X020313Y018102D01*
X021518Y018447D02*
X021814Y018447D01*
X021814Y017953D01*
X021518Y017953D01*
X021518Y018447D01*
X021518Y018051D02*
X021814Y018051D01*
X021814Y018149D02*
X021518Y018149D01*
X021518Y018247D02*
X021814Y018247D01*
X021814Y018345D02*
X021518Y018345D01*
X021518Y018443D02*
X021814Y018443D01*
X022306Y018447D02*
X022602Y018447D01*
X022602Y017953D01*
X022306Y017953D01*
X022306Y018447D01*
X022306Y018051D02*
X022602Y018051D01*
X022602Y018149D02*
X022306Y018149D01*
X022306Y018247D02*
X022602Y018247D01*
X022602Y018345D02*
X022306Y018345D01*
X022306Y018443D02*
X022602Y018443D01*
X022798Y018787D02*
X023094Y018787D01*
X023094Y018293D01*
X022798Y018293D01*
X022798Y018787D01*
X022798Y018391D02*
X023094Y018391D01*
X023094Y018489D02*
X022798Y018489D01*
X022798Y018587D02*
X023094Y018587D01*
X023094Y018685D02*
X022798Y018685D01*
X022798Y018783D02*
X023094Y018783D01*
X023022Y019467D02*
X022726Y019467D01*
X023022Y019467D02*
X023022Y018973D01*
X022726Y018973D01*
X022726Y019467D01*
X022726Y019071D02*
X023022Y019071D01*
X023022Y019169D02*
X022726Y019169D01*
X022726Y019267D02*
X023022Y019267D01*
X023022Y019365D02*
X022726Y019365D01*
X022726Y019463D02*
X023022Y019463D01*
X022234Y019467D02*
X021938Y019467D01*
X022234Y019467D02*
X022234Y018973D01*
X021938Y018973D01*
X021938Y019467D01*
X021938Y019071D02*
X022234Y019071D01*
X022234Y019169D02*
X021938Y019169D01*
X021938Y019267D02*
X022234Y019267D01*
X022234Y019365D02*
X021938Y019365D01*
X021938Y019463D02*
X022234Y019463D01*
X023586Y018787D02*
X023882Y018787D01*
X023882Y018293D01*
X023586Y018293D01*
X023586Y018787D01*
X023586Y018391D02*
X023882Y018391D01*
X023882Y018489D02*
X023586Y018489D01*
X023586Y018587D02*
X023882Y018587D01*
X023882Y018685D02*
X023586Y018685D01*
X023586Y018783D02*
X023882Y018783D01*
D15*
X024054Y014050D03*
X023266Y014050D03*
X023504Y012550D03*
X022716Y012550D03*
X023266Y003950D03*
X024054Y003950D03*
X023504Y002450D03*
X022716Y002450D03*
X010454Y004050D03*
X009666Y004050D03*
X007704Y005000D03*
X006916Y005000D03*
X007316Y007100D03*
X007316Y007750D03*
X008104Y007750D03*
X008104Y007100D03*
X009666Y014150D03*
X010454Y014150D03*
X007704Y015100D03*
X006916Y015100D03*
X007316Y017200D03*
X007316Y017850D03*
X008104Y017850D03*
X008104Y017200D03*
D16*
X016360Y019100D03*
X017160Y018750D03*
X017160Y019450D03*
X017160Y009350D03*
X017160Y008650D03*
X016360Y009000D03*
D17*
X022510Y007024D03*
X023010Y007024D03*
X023510Y007024D03*
X024010Y007024D03*
X024010Y004976D03*
X023510Y004976D03*
X023010Y004976D03*
X022510Y004976D03*
X022510Y015076D03*
X023010Y015076D03*
X023510Y015076D03*
X024010Y015076D03*
X024010Y017124D03*
X023510Y017124D03*
X023010Y017124D03*
X022510Y017124D03*
D18*
X024520Y018290D03*
X024520Y008190D03*
D19*
X020660Y009200D03*
X020660Y009550D03*
X020660Y009900D03*
X010260Y009400D03*
X010260Y009050D03*
X010260Y008700D03*
X006360Y008477D03*
X006360Y008123D03*
X006310Y004150D03*
X006310Y003800D03*
X006310Y003450D03*
X008960Y003373D03*
X008960Y003727D03*
X008960Y013473D03*
X008960Y013827D03*
X006310Y013900D03*
X006310Y014250D03*
X006310Y013550D03*
X006360Y018223D03*
X006360Y018577D03*
X010260Y018800D03*
X010260Y019150D03*
X010260Y019500D03*
X020660Y019650D03*
X020660Y020000D03*
X020660Y019300D03*
D20*
X010470Y015210D03*
X010470Y014950D03*
X010470Y014690D03*
X009650Y014690D03*
X009650Y014950D03*
X009650Y015210D03*
X009650Y005110D03*
X009650Y004850D03*
X009650Y004590D03*
X010470Y004590D03*
X010470Y004850D03*
X010470Y005110D03*
D21*
X008960Y004954D03*
X008960Y004246D03*
X008960Y014346D03*
X008960Y015054D03*
D22*
X011110Y014814D03*
X011690Y014814D03*
X011690Y014026D03*
X011110Y014026D03*
X017860Y009894D03*
X017860Y009106D03*
X019260Y008776D03*
X019260Y009564D03*
X011690Y004714D03*
X011110Y004714D03*
X011110Y003926D03*
X011690Y003926D03*
X019260Y018876D03*
X019260Y019664D03*
X017860Y019994D03*
X017860Y019206D03*
D23*
X019860Y012650D03*
X019860Y011650D03*
X020860Y011650D03*
X021860Y011650D03*
X021860Y012650D03*
X020860Y012650D03*
X020860Y002550D03*
X021860Y002550D03*
X021860Y001550D03*
X020860Y001550D03*
X019860Y001550D03*
X019860Y002550D03*
D24*
X008560Y002550D03*
X008560Y001550D03*
X008560Y011650D03*
X008560Y012650D03*
D25*
X022882Y013350D03*
X024338Y013350D03*
X024338Y003250D03*
X022882Y003250D03*
D26*
G36*
X021314Y004361D02*
X021086Y004087D01*
X020512Y004565D01*
X020740Y004839D01*
X021314Y004361D01*
G37*
G36*
X021011Y003998D02*
X020783Y003724D01*
X020209Y004202D01*
X020437Y004476D01*
X021011Y003998D01*
G37*
G36*
X020709Y003635D02*
X020481Y003361D01*
X019907Y003839D01*
X020135Y004113D01*
X020709Y003635D01*
G37*
G36*
X020709Y013735D02*
X020481Y013461D01*
X019907Y013939D01*
X020135Y014213D01*
X020709Y013735D01*
G37*
G36*
X021011Y014098D02*
X020783Y013824D01*
X020209Y014302D01*
X020437Y014576D01*
X021011Y014098D01*
G37*
G36*
X021314Y014461D02*
X021086Y014187D01*
X020512Y014665D01*
X020740Y014939D01*
X021314Y014461D01*
G37*
D27*
X019712Y014660D03*
X019398Y014660D03*
X019083Y014660D03*
X018768Y014660D03*
X018453Y014660D03*
X018138Y014660D03*
X017823Y014660D03*
X017508Y014660D03*
X017508Y018040D03*
X017823Y018040D03*
X018138Y018040D03*
X018453Y018040D03*
X018768Y018040D03*
X019083Y018040D03*
X019398Y018040D03*
X019712Y018040D03*
X019712Y007940D03*
X019398Y007940D03*
X019083Y007940D03*
X018768Y007940D03*
X018453Y007940D03*
X018138Y007940D03*
X017823Y007940D03*
X017508Y007940D03*
X017508Y004560D03*
X017823Y004560D03*
X018138Y004560D03*
X018453Y004560D03*
X018768Y004560D03*
X019083Y004560D03*
X019398Y004560D03*
X019712Y004560D03*
D28*
X020300Y005148D03*
X020300Y005463D03*
X020300Y005778D03*
X020300Y006093D03*
X020300Y006407D03*
X020300Y006722D03*
X020300Y007037D03*
X020300Y007352D03*
X016920Y007352D03*
X016920Y007037D03*
X016920Y006722D03*
X016920Y006407D03*
X016920Y006093D03*
X016920Y005778D03*
X016920Y005463D03*
X016920Y005148D03*
X016920Y015248D03*
X016920Y015563D03*
X016920Y015878D03*
X016920Y016193D03*
X016920Y016507D03*
X016920Y016822D03*
X016920Y017137D03*
X016920Y017452D03*
X020300Y017452D03*
X020300Y017137D03*
X020300Y016822D03*
X020300Y016507D03*
X020300Y016193D03*
X020300Y015878D03*
X020300Y015563D03*
X020300Y015248D03*
D29*
X018810Y012650D03*
X017810Y012650D03*
X016810Y012650D03*
X015810Y012650D03*
X014810Y012650D03*
X013810Y012650D03*
X012810Y012650D03*
X011810Y012650D03*
X010810Y012650D03*
X009810Y012650D03*
X009810Y011650D03*
X010810Y011650D03*
X011810Y011650D03*
X012810Y011650D03*
X013810Y011650D03*
X014810Y011650D03*
X015810Y011650D03*
X016810Y011650D03*
X017810Y011650D03*
X018810Y011650D03*
X018810Y002550D03*
X017810Y002550D03*
X016810Y002550D03*
X015810Y002550D03*
X014810Y002550D03*
X013810Y002550D03*
X012810Y002550D03*
X011810Y002550D03*
X010810Y002550D03*
X009810Y002550D03*
X009810Y001550D03*
X010810Y001550D03*
X011810Y001550D03*
X012810Y001550D03*
X013810Y001550D03*
X014810Y001550D03*
X015810Y001550D03*
X016810Y001550D03*
X017810Y001550D03*
X018810Y001550D03*
D30*
X014510Y004050D03*
X013510Y004050D03*
X012510Y004050D03*
X012510Y005050D03*
X012520Y006050D03*
X012520Y007050D03*
X012520Y008050D03*
X013520Y008050D03*
X014520Y008050D03*
X014520Y007050D03*
X013520Y007050D03*
X013520Y006050D03*
X014520Y006050D03*
X014510Y005050D03*
X013510Y005050D03*
X013510Y014150D03*
X014510Y014150D03*
X014510Y015150D03*
X013510Y015150D03*
X012510Y015150D03*
X012510Y014150D03*
X012520Y016150D03*
X012520Y017150D03*
X012520Y018150D03*
X013520Y018150D03*
X014520Y018150D03*
X014520Y017150D03*
X013520Y017150D03*
X013520Y016150D03*
X014520Y016150D03*
D31*
X022960Y011650D03*
X022960Y001550D03*
M02*
