G75*
%MOIN*%
%OFA0B0*%
%FSLAX24Y24*%
%IPPOS*%
%LPD*%
%AMOC8*
5,1,8,0,0,1.08239X$1,22.5*
%
%ADD10C,0.0000*%
%ADD11C,0.0020*%
%ADD12R,0.0025X0.0005*%
%ADD13R,0.0040X0.0005*%
%ADD14R,0.0050X0.0005*%
%ADD15R,0.0060X0.0005*%
%ADD16R,0.0065X0.0005*%
%ADD17R,0.0075X0.0005*%
%ADD18R,0.0085X0.0005*%
%ADD19R,0.0090X0.0005*%
%ADD20R,0.0100X0.0005*%
%ADD21R,0.0110X0.0005*%
%ADD22R,0.0125X0.0005*%
%ADD23R,0.0135X0.0005*%
%ADD24R,0.0150X0.0005*%
%ADD25R,0.0160X0.0005*%
%ADD26R,0.0175X0.0005*%
%ADD27R,0.0185X0.0005*%
%ADD28R,0.0200X0.0005*%
%ADD29R,0.0015X0.0005*%
%ADD30R,0.0210X0.0005*%
%ADD31R,0.0220X0.0005*%
%ADD32R,0.0225X0.0005*%
%ADD33R,0.0235X0.0005*%
%ADD34R,0.0245X0.0005*%
%ADD35R,0.0260X0.0005*%
%ADD36R,0.0270X0.0005*%
%ADD37R,0.0285X0.0005*%
%ADD38R,0.0400X0.0005*%
%ADD39R,0.0410X0.0005*%
%ADD40R,0.0415X0.0005*%
%ADD41R,0.0420X0.0005*%
%ADD42R,0.0425X0.0005*%
%ADD43R,0.0430X0.0005*%
%ADD44R,0.0435X0.0005*%
%ADD45R,0.0445X0.0005*%
%ADD46R,0.0450X0.0005*%
%ADD47R,0.0455X0.0005*%
%ADD48R,0.0460X0.0005*%
%ADD49R,0.0440X0.0005*%
%ADD50R,0.0465X0.0005*%
%ADD51R,0.0470X0.0005*%
%ADD52R,0.0475X0.0005*%
%ADD53R,0.0480X0.0005*%
%ADD54R,0.0485X0.0005*%
%ADD55R,0.0490X0.0005*%
%ADD56R,0.0495X0.0005*%
%ADD57R,0.0510X0.0005*%
%ADD58R,0.0530X0.0005*%
%ADD59R,0.0555X0.0005*%
%ADD60R,0.0580X0.0005*%
%ADD61R,0.0600X0.0005*%
%ADD62R,0.0615X0.0005*%
%ADD63R,0.0620X0.0005*%
%ADD64R,0.0610X0.0005*%
%ADD65R,0.0605X0.0005*%
%ADD66R,0.0595X0.0005*%
%ADD67R,0.0590X0.0005*%
%ADD68R,0.0570X0.0005*%
%ADD69R,0.0545X0.0005*%
%ADD70R,0.0540X0.0005*%
%ADD71R,0.0520X0.0005*%
%ADD72R,0.0500X0.0005*%
%ADD73R,0.0505X0.0005*%
%ADD74R,0.0515X0.0005*%
%ADD75R,0.1135X0.0005*%
%ADD76R,0.1125X0.0005*%
%ADD77R,0.1120X0.0005*%
%ADD78R,0.1115X0.0005*%
%ADD79R,0.1105X0.0005*%
%ADD80R,0.1095X0.0005*%
%ADD81R,0.1090X0.0005*%
%ADD82R,0.1085X0.0005*%
%ADD83R,0.1075X0.0005*%
%ADD84R,0.1070X0.0005*%
%ADD85R,0.1145X0.0005*%
%ADD86R,0.1155X0.0005*%
%ADD87R,0.1160X0.0005*%
%ADD88R,0.1165X0.0005*%
%ADD89R,0.1175X0.0005*%
%ADD90R,0.1180X0.0005*%
%ADD91R,0.1185X0.0005*%
%ADD92R,0.1195X0.0005*%
%ADD93R,0.1205X0.0005*%
%ADD94R,0.1215X0.0005*%
%ADD95R,0.1225X0.0005*%
%ADD96R,0.1235X0.0005*%
%ADD97R,0.1245X0.0005*%
%ADD98R,0.1255X0.0005*%
%ADD99R,0.1265X0.0005*%
%ADD100R,0.1275X0.0005*%
%ADD101R,0.1285X0.0005*%
%ADD102R,0.1290X0.0005*%
%ADD103R,0.1295X0.0005*%
%ADD104R,0.1305X0.0005*%
%ADD105R,0.0300X0.0005*%
%ADD106R,0.0585X0.0005*%
%ADD107R,0.0565X0.0005*%
%ADD108R,0.0290X0.0005*%
%ADD109R,0.0275X0.0005*%
%ADD110R,0.0535X0.0005*%
%ADD111R,0.0265X0.0005*%
%ADD112R,0.0250X0.0005*%
%ADD113R,0.0240X0.0005*%
%ADD114R,0.0215X0.0005*%
%ADD115R,0.0395X0.0005*%
%ADD116R,0.0190X0.0005*%
%ADD117R,0.0365X0.0005*%
%ADD118R,0.0345X0.0005*%
%ADD119R,0.0165X0.0005*%
%ADD120R,0.0325X0.0005*%
%ADD121R,0.0315X0.0005*%
%ADD122R,0.0140X0.0005*%
%ADD123R,0.0305X0.0005*%
%ADD124R,0.0130X0.0005*%
%ADD125R,0.0115X0.0005*%
%ADD126R,0.0105X0.0005*%
%ADD127R,0.0080X0.0005*%
%ADD128R,0.0295X0.0005*%
%ADD129R,0.0055X0.0005*%
%ADD130R,0.0030X0.0005*%
%ADD131R,0.0010X0.0005*%
%ADD132R,0.0255X0.0005*%
%ADD133C,0.0030*%
%ADD134C,0.0050*%
%ADD135C,0.0079*%
%ADD136C,0.0080*%
%ADD137C,0.0060*%
D10*
X005610Y001350D02*
X005610Y019820D01*
X005612Y019864D01*
X005618Y019907D01*
X005627Y019949D01*
X005640Y019991D01*
X005657Y020031D01*
X005677Y020070D01*
X005700Y020107D01*
X005727Y020141D01*
X005756Y020174D01*
X005789Y020203D01*
X005823Y020230D01*
X005860Y020253D01*
X005899Y020273D01*
X005939Y020290D01*
X005981Y020303D01*
X006023Y020312D01*
X006066Y020318D01*
X006110Y020320D01*
X024716Y020320D01*
X024760Y020318D01*
X024803Y020312D01*
X024845Y020303D01*
X024887Y020290D01*
X024927Y020273D01*
X024966Y020253D01*
X025003Y020230D01*
X025037Y020203D01*
X025070Y020174D01*
X025099Y020141D01*
X025126Y020107D01*
X025149Y020070D01*
X025169Y020031D01*
X025186Y019991D01*
X025199Y019949D01*
X025208Y019907D01*
X025214Y019864D01*
X025216Y019820D01*
X025216Y001350D01*
X025214Y001306D01*
X025208Y001263D01*
X025199Y001221D01*
X025186Y001179D01*
X025169Y001139D01*
X025149Y001100D01*
X025126Y001063D01*
X025099Y001029D01*
X025070Y000996D01*
X025037Y000967D01*
X025003Y000940D01*
X024966Y000917D01*
X024927Y000897D01*
X024887Y000880D01*
X024845Y000867D01*
X024803Y000858D01*
X024760Y000852D01*
X024716Y000850D01*
X006110Y000850D01*
X006066Y000852D01*
X006023Y000858D01*
X005981Y000867D01*
X005939Y000880D01*
X005899Y000897D01*
X005860Y000917D01*
X005823Y000940D01*
X005789Y000967D01*
X005756Y000996D01*
X005727Y001029D01*
X005700Y001063D01*
X005677Y001100D01*
X005657Y001139D01*
X005640Y001179D01*
X005627Y001221D01*
X005618Y001263D01*
X005612Y001306D01*
X005610Y001350D01*
X006075Y001698D02*
X006077Y001739D01*
X006083Y001780D01*
X006093Y001820D01*
X006106Y001859D01*
X006123Y001896D01*
X006144Y001932D01*
X006168Y001966D01*
X006195Y001997D01*
X006224Y002025D01*
X006257Y002051D01*
X006291Y002073D01*
X006328Y002092D01*
X006366Y002107D01*
X006406Y002119D01*
X006446Y002127D01*
X006487Y002131D01*
X006529Y002131D01*
X006570Y002127D01*
X006610Y002119D01*
X006650Y002107D01*
X006688Y002092D01*
X006724Y002073D01*
X006759Y002051D01*
X006792Y002025D01*
X006821Y001997D01*
X006848Y001966D01*
X006872Y001932D01*
X006893Y001896D01*
X006910Y001859D01*
X006923Y001820D01*
X006933Y001780D01*
X006939Y001739D01*
X006941Y001698D01*
X006939Y001657D01*
X006933Y001616D01*
X006923Y001576D01*
X006910Y001537D01*
X006893Y001500D01*
X006872Y001464D01*
X006848Y001430D01*
X006821Y001399D01*
X006792Y001371D01*
X006759Y001345D01*
X006725Y001323D01*
X006688Y001304D01*
X006650Y001289D01*
X006610Y001277D01*
X006570Y001269D01*
X006529Y001265D01*
X006487Y001265D01*
X006446Y001269D01*
X006406Y001277D01*
X006366Y001289D01*
X006328Y001304D01*
X006292Y001323D01*
X006257Y001345D01*
X006224Y001371D01*
X006195Y001399D01*
X006168Y001430D01*
X006144Y001464D01*
X006123Y001500D01*
X006106Y001537D01*
X006093Y001576D01*
X006083Y001616D01*
X006077Y001657D01*
X006075Y001698D01*
X006075Y009372D02*
X006077Y009413D01*
X006083Y009454D01*
X006093Y009494D01*
X006106Y009533D01*
X006123Y009570D01*
X006144Y009606D01*
X006168Y009640D01*
X006195Y009671D01*
X006224Y009699D01*
X006257Y009725D01*
X006291Y009747D01*
X006328Y009766D01*
X006366Y009781D01*
X006406Y009793D01*
X006446Y009801D01*
X006487Y009805D01*
X006529Y009805D01*
X006570Y009801D01*
X006610Y009793D01*
X006650Y009781D01*
X006688Y009766D01*
X006724Y009747D01*
X006759Y009725D01*
X006792Y009699D01*
X006821Y009671D01*
X006848Y009640D01*
X006872Y009606D01*
X006893Y009570D01*
X006910Y009533D01*
X006923Y009494D01*
X006933Y009454D01*
X006939Y009413D01*
X006941Y009372D01*
X006939Y009331D01*
X006933Y009290D01*
X006923Y009250D01*
X006910Y009211D01*
X006893Y009174D01*
X006872Y009138D01*
X006848Y009104D01*
X006821Y009073D01*
X006792Y009045D01*
X006759Y009019D01*
X006725Y008997D01*
X006688Y008978D01*
X006650Y008963D01*
X006610Y008951D01*
X006570Y008943D01*
X006529Y008939D01*
X006487Y008939D01*
X006446Y008943D01*
X006406Y008951D01*
X006366Y008963D01*
X006328Y008978D01*
X006292Y008997D01*
X006257Y009019D01*
X006224Y009045D01*
X006195Y009073D01*
X006168Y009104D01*
X006144Y009138D01*
X006123Y009174D01*
X006106Y009211D01*
X006093Y009250D01*
X006083Y009290D01*
X006077Y009331D01*
X006075Y009372D01*
X006075Y011798D02*
X006077Y011839D01*
X006083Y011880D01*
X006093Y011920D01*
X006106Y011959D01*
X006123Y011996D01*
X006144Y012032D01*
X006168Y012066D01*
X006195Y012097D01*
X006224Y012125D01*
X006257Y012151D01*
X006291Y012173D01*
X006328Y012192D01*
X006366Y012207D01*
X006406Y012219D01*
X006446Y012227D01*
X006487Y012231D01*
X006529Y012231D01*
X006570Y012227D01*
X006610Y012219D01*
X006650Y012207D01*
X006688Y012192D01*
X006724Y012173D01*
X006759Y012151D01*
X006792Y012125D01*
X006821Y012097D01*
X006848Y012066D01*
X006872Y012032D01*
X006893Y011996D01*
X006910Y011959D01*
X006923Y011920D01*
X006933Y011880D01*
X006939Y011839D01*
X006941Y011798D01*
X006939Y011757D01*
X006933Y011716D01*
X006923Y011676D01*
X006910Y011637D01*
X006893Y011600D01*
X006872Y011564D01*
X006848Y011530D01*
X006821Y011499D01*
X006792Y011471D01*
X006759Y011445D01*
X006725Y011423D01*
X006688Y011404D01*
X006650Y011389D01*
X006610Y011377D01*
X006570Y011369D01*
X006529Y011365D01*
X006487Y011365D01*
X006446Y011369D01*
X006406Y011377D01*
X006366Y011389D01*
X006328Y011404D01*
X006292Y011423D01*
X006257Y011445D01*
X006224Y011471D01*
X006195Y011499D01*
X006168Y011530D01*
X006144Y011564D01*
X006123Y011600D01*
X006106Y011637D01*
X006093Y011676D01*
X006083Y011716D01*
X006077Y011757D01*
X006075Y011798D01*
X006075Y019472D02*
X006077Y019513D01*
X006083Y019554D01*
X006093Y019594D01*
X006106Y019633D01*
X006123Y019670D01*
X006144Y019706D01*
X006168Y019740D01*
X006195Y019771D01*
X006224Y019799D01*
X006257Y019825D01*
X006291Y019847D01*
X006328Y019866D01*
X006366Y019881D01*
X006406Y019893D01*
X006446Y019901D01*
X006487Y019905D01*
X006529Y019905D01*
X006570Y019901D01*
X006610Y019893D01*
X006650Y019881D01*
X006688Y019866D01*
X006724Y019847D01*
X006759Y019825D01*
X006792Y019799D01*
X006821Y019771D01*
X006848Y019740D01*
X006872Y019706D01*
X006893Y019670D01*
X006910Y019633D01*
X006923Y019594D01*
X006933Y019554D01*
X006939Y019513D01*
X006941Y019472D01*
X006939Y019431D01*
X006933Y019390D01*
X006923Y019350D01*
X006910Y019311D01*
X006893Y019274D01*
X006872Y019238D01*
X006848Y019204D01*
X006821Y019173D01*
X006792Y019145D01*
X006759Y019119D01*
X006725Y019097D01*
X006688Y019078D01*
X006650Y019063D01*
X006610Y019051D01*
X006570Y019043D01*
X006529Y019039D01*
X006487Y019039D01*
X006446Y019043D01*
X006406Y019051D01*
X006366Y019063D01*
X006328Y019078D01*
X006292Y019097D01*
X006257Y019119D01*
X006224Y019145D01*
X006195Y019173D01*
X006168Y019204D01*
X006144Y019238D01*
X006123Y019274D01*
X006106Y019311D01*
X006093Y019350D01*
X006083Y019390D01*
X006077Y019431D01*
X006075Y019472D01*
X023885Y019472D02*
X023887Y019513D01*
X023893Y019554D01*
X023903Y019594D01*
X023916Y019633D01*
X023933Y019670D01*
X023954Y019706D01*
X023978Y019740D01*
X024005Y019771D01*
X024034Y019799D01*
X024067Y019825D01*
X024101Y019847D01*
X024138Y019866D01*
X024176Y019881D01*
X024216Y019893D01*
X024256Y019901D01*
X024297Y019905D01*
X024339Y019905D01*
X024380Y019901D01*
X024420Y019893D01*
X024460Y019881D01*
X024498Y019866D01*
X024534Y019847D01*
X024569Y019825D01*
X024602Y019799D01*
X024631Y019771D01*
X024658Y019740D01*
X024682Y019706D01*
X024703Y019670D01*
X024720Y019633D01*
X024733Y019594D01*
X024743Y019554D01*
X024749Y019513D01*
X024751Y019472D01*
X024749Y019431D01*
X024743Y019390D01*
X024733Y019350D01*
X024720Y019311D01*
X024703Y019274D01*
X024682Y019238D01*
X024658Y019204D01*
X024631Y019173D01*
X024602Y019145D01*
X024569Y019119D01*
X024535Y019097D01*
X024498Y019078D01*
X024460Y019063D01*
X024420Y019051D01*
X024380Y019043D01*
X024339Y019039D01*
X024297Y019039D01*
X024256Y019043D01*
X024216Y019051D01*
X024176Y019063D01*
X024138Y019078D01*
X024102Y019097D01*
X024067Y019119D01*
X024034Y019145D01*
X024005Y019173D01*
X023978Y019204D01*
X023954Y019238D01*
X023933Y019274D01*
X023916Y019311D01*
X023903Y019350D01*
X023893Y019390D01*
X023887Y019431D01*
X023885Y019472D01*
X023885Y011798D02*
X023887Y011839D01*
X023893Y011880D01*
X023903Y011920D01*
X023916Y011959D01*
X023933Y011996D01*
X023954Y012032D01*
X023978Y012066D01*
X024005Y012097D01*
X024034Y012125D01*
X024067Y012151D01*
X024101Y012173D01*
X024138Y012192D01*
X024176Y012207D01*
X024216Y012219D01*
X024256Y012227D01*
X024297Y012231D01*
X024339Y012231D01*
X024380Y012227D01*
X024420Y012219D01*
X024460Y012207D01*
X024498Y012192D01*
X024534Y012173D01*
X024569Y012151D01*
X024602Y012125D01*
X024631Y012097D01*
X024658Y012066D01*
X024682Y012032D01*
X024703Y011996D01*
X024720Y011959D01*
X024733Y011920D01*
X024743Y011880D01*
X024749Y011839D01*
X024751Y011798D01*
X024749Y011757D01*
X024743Y011716D01*
X024733Y011676D01*
X024720Y011637D01*
X024703Y011600D01*
X024682Y011564D01*
X024658Y011530D01*
X024631Y011499D01*
X024602Y011471D01*
X024569Y011445D01*
X024535Y011423D01*
X024498Y011404D01*
X024460Y011389D01*
X024420Y011377D01*
X024380Y011369D01*
X024339Y011365D01*
X024297Y011365D01*
X024256Y011369D01*
X024216Y011377D01*
X024176Y011389D01*
X024138Y011404D01*
X024102Y011423D01*
X024067Y011445D01*
X024034Y011471D01*
X024005Y011499D01*
X023978Y011530D01*
X023954Y011564D01*
X023933Y011600D01*
X023916Y011637D01*
X023903Y011676D01*
X023893Y011716D01*
X023887Y011757D01*
X023885Y011798D01*
X023885Y009372D02*
X023887Y009413D01*
X023893Y009454D01*
X023903Y009494D01*
X023916Y009533D01*
X023933Y009570D01*
X023954Y009606D01*
X023978Y009640D01*
X024005Y009671D01*
X024034Y009699D01*
X024067Y009725D01*
X024101Y009747D01*
X024138Y009766D01*
X024176Y009781D01*
X024216Y009793D01*
X024256Y009801D01*
X024297Y009805D01*
X024339Y009805D01*
X024380Y009801D01*
X024420Y009793D01*
X024460Y009781D01*
X024498Y009766D01*
X024534Y009747D01*
X024569Y009725D01*
X024602Y009699D01*
X024631Y009671D01*
X024658Y009640D01*
X024682Y009606D01*
X024703Y009570D01*
X024720Y009533D01*
X024733Y009494D01*
X024743Y009454D01*
X024749Y009413D01*
X024751Y009372D01*
X024749Y009331D01*
X024743Y009290D01*
X024733Y009250D01*
X024720Y009211D01*
X024703Y009174D01*
X024682Y009138D01*
X024658Y009104D01*
X024631Y009073D01*
X024602Y009045D01*
X024569Y009019D01*
X024535Y008997D01*
X024498Y008978D01*
X024460Y008963D01*
X024420Y008951D01*
X024380Y008943D01*
X024339Y008939D01*
X024297Y008939D01*
X024256Y008943D01*
X024216Y008951D01*
X024176Y008963D01*
X024138Y008978D01*
X024102Y008997D01*
X024067Y009019D01*
X024034Y009045D01*
X024005Y009073D01*
X023978Y009104D01*
X023954Y009138D01*
X023933Y009174D01*
X023916Y009211D01*
X023903Y009250D01*
X023893Y009290D01*
X023887Y009331D01*
X023885Y009372D01*
X023885Y001698D02*
X023887Y001739D01*
X023893Y001780D01*
X023903Y001820D01*
X023916Y001859D01*
X023933Y001896D01*
X023954Y001932D01*
X023978Y001966D01*
X024005Y001997D01*
X024034Y002025D01*
X024067Y002051D01*
X024101Y002073D01*
X024138Y002092D01*
X024176Y002107D01*
X024216Y002119D01*
X024256Y002127D01*
X024297Y002131D01*
X024339Y002131D01*
X024380Y002127D01*
X024420Y002119D01*
X024460Y002107D01*
X024498Y002092D01*
X024534Y002073D01*
X024569Y002051D01*
X024602Y002025D01*
X024631Y001997D01*
X024658Y001966D01*
X024682Y001932D01*
X024703Y001896D01*
X024720Y001859D01*
X024733Y001820D01*
X024743Y001780D01*
X024749Y001739D01*
X024751Y001698D01*
X024749Y001657D01*
X024743Y001616D01*
X024733Y001576D01*
X024720Y001537D01*
X024703Y001500D01*
X024682Y001464D01*
X024658Y001430D01*
X024631Y001399D01*
X024602Y001371D01*
X024569Y001345D01*
X024535Y001323D01*
X024498Y001304D01*
X024460Y001289D01*
X024420Y001277D01*
X024380Y001269D01*
X024339Y001265D01*
X024297Y001265D01*
X024256Y001269D01*
X024216Y001277D01*
X024176Y001289D01*
X024138Y001304D01*
X024102Y001323D01*
X024067Y001345D01*
X024034Y001371D01*
X024005Y001399D01*
X023978Y001430D01*
X023954Y001464D01*
X023933Y001500D01*
X023916Y001537D01*
X023903Y001576D01*
X023893Y001616D01*
X023887Y001657D01*
X023885Y001698D01*
D11*
X020983Y003322D02*
X020946Y003285D01*
X020873Y003285D01*
X020836Y003322D01*
X020762Y003285D02*
X020615Y003285D01*
X020689Y003285D02*
X020689Y003505D01*
X020762Y003432D01*
X020836Y003468D02*
X020873Y003505D01*
X020946Y003505D01*
X020983Y003468D01*
X020983Y003322D01*
X020541Y003395D02*
X020394Y003395D01*
X020431Y003285D02*
X020431Y003505D01*
X020541Y003395D01*
X019993Y003322D02*
X019956Y003285D01*
X019883Y003285D01*
X019846Y003322D01*
X019772Y003285D02*
X019625Y003285D01*
X019699Y003285D02*
X019699Y003505D01*
X019772Y003432D01*
X019846Y003468D02*
X019883Y003505D01*
X019956Y003505D01*
X019993Y003468D01*
X019993Y003322D01*
X019551Y003322D02*
X019551Y003285D01*
X019551Y003322D02*
X019404Y003468D01*
X019404Y003505D01*
X019551Y003505D01*
X024328Y007520D02*
X024328Y007780D01*
X024414Y007780D02*
X024241Y007780D01*
X024499Y007780D02*
X024499Y007520D01*
X024672Y007780D01*
X024672Y007520D01*
X024757Y007520D02*
X024757Y007693D01*
X024843Y007780D01*
X024930Y007693D01*
X024930Y007520D01*
X024930Y007650D02*
X024757Y007650D01*
X020946Y013385D02*
X020873Y013385D01*
X020836Y013422D01*
X020762Y013385D02*
X020615Y013385D01*
X020689Y013385D02*
X020689Y013605D01*
X020762Y013532D01*
X020836Y013568D02*
X020873Y013605D01*
X020946Y013605D01*
X020983Y013568D01*
X020983Y013422D01*
X020946Y013385D01*
X020541Y013495D02*
X020394Y013495D01*
X020431Y013385D02*
X020431Y013605D01*
X020541Y013495D01*
X019993Y013422D02*
X019956Y013385D01*
X019883Y013385D01*
X019846Y013422D01*
X019772Y013385D02*
X019625Y013385D01*
X019699Y013385D02*
X019699Y013605D01*
X019772Y013532D01*
X019846Y013568D02*
X019883Y013605D01*
X019956Y013605D01*
X019993Y013568D01*
X019993Y013422D01*
X019551Y013422D02*
X019551Y013385D01*
X019551Y013422D02*
X019404Y013568D01*
X019404Y013605D01*
X019551Y013605D01*
X015440Y010058D02*
X015440Y009912D01*
X015403Y009875D01*
X015330Y009875D01*
X015293Y009912D01*
X015219Y009875D02*
X015072Y009875D01*
X015146Y009875D02*
X015146Y010095D01*
X015219Y010022D01*
X015293Y010058D02*
X015330Y010095D01*
X015403Y010095D01*
X015440Y010058D01*
X014998Y010095D02*
X014998Y009985D01*
X014925Y010022D01*
X014888Y010022D01*
X014851Y009985D01*
X014851Y009912D01*
X014888Y009875D01*
X014961Y009875D01*
X014998Y009912D01*
X014998Y010095D02*
X014851Y010095D01*
X013275Y009769D02*
X013239Y009695D01*
X013165Y009622D01*
X013165Y009732D01*
X013128Y009769D01*
X013092Y009769D01*
X013055Y009732D01*
X013055Y009659D01*
X013092Y009622D01*
X013165Y009622D01*
X013055Y009548D02*
X013055Y009401D01*
X013055Y009474D02*
X013275Y009474D01*
X013202Y009401D01*
X013239Y009327D02*
X013275Y009290D01*
X013275Y009217D01*
X013239Y009180D01*
X013092Y009180D01*
X013055Y009217D01*
X013055Y009290D01*
X013092Y009327D01*
X011695Y007880D02*
X011621Y007880D01*
X011658Y007880D02*
X011658Y007697D01*
X011695Y007660D01*
X011731Y007660D01*
X011768Y007697D01*
X011547Y007733D02*
X011437Y007733D01*
X011400Y007770D01*
X011400Y007843D01*
X011437Y007880D01*
X011547Y007880D01*
X011547Y007660D01*
X011326Y007697D02*
X011326Y007733D01*
X011289Y007770D01*
X011216Y007770D01*
X011179Y007733D01*
X011179Y007697D01*
X011216Y007660D01*
X011289Y007660D01*
X011326Y007697D01*
X011289Y007770D02*
X011326Y007807D01*
X011326Y007843D01*
X011289Y007880D01*
X011216Y007880D01*
X011179Y007843D01*
X011179Y007807D01*
X011216Y007770D01*
X011582Y006646D02*
X011618Y006646D01*
X011655Y006609D01*
X011655Y006499D01*
X011582Y006499D01*
X011545Y006536D01*
X011545Y006609D01*
X011582Y006646D01*
X011729Y006572D02*
X011655Y006499D01*
X011729Y006572D02*
X011765Y006646D01*
X011729Y006425D02*
X011765Y006388D01*
X011765Y006315D01*
X011729Y006278D01*
X011582Y006278D01*
X011545Y006315D01*
X011545Y006388D01*
X011582Y006425D01*
X009500Y008152D02*
X009500Y008299D01*
X009500Y008226D02*
X009280Y008226D01*
X009353Y008299D01*
X009317Y008373D02*
X009463Y008373D01*
X009500Y008410D01*
X009500Y008483D01*
X009463Y008520D01*
X009317Y008520D01*
X009280Y008483D01*
X009280Y008410D01*
X009317Y008373D01*
X009427Y008447D02*
X009500Y008373D01*
X009035Y008407D02*
X009035Y008334D01*
X008999Y008297D01*
X008852Y008297D01*
X008815Y008334D01*
X008815Y008407D01*
X008852Y008444D01*
X008815Y008518D02*
X008815Y008665D01*
X008815Y008591D02*
X009035Y008591D01*
X008962Y008518D01*
X008999Y008444D02*
X009035Y008407D01*
X008820Y008090D02*
X008746Y008090D01*
X008783Y008090D02*
X008783Y007907D01*
X008820Y007870D01*
X008856Y007870D01*
X008893Y007907D01*
X008672Y007943D02*
X008562Y007943D01*
X008525Y007980D01*
X008525Y008053D01*
X008562Y008090D01*
X008672Y008090D01*
X008672Y007870D01*
X008451Y007907D02*
X008414Y007870D01*
X008341Y007870D01*
X008304Y007907D01*
X008304Y008053D01*
X008341Y008090D01*
X008414Y008090D01*
X008451Y008053D01*
X008451Y008017D01*
X008414Y007980D01*
X008304Y007980D01*
X008815Y008739D02*
X008815Y008886D01*
X008815Y008812D02*
X009035Y008812D01*
X008962Y008739D01*
X008965Y009227D02*
X009185Y009227D01*
X009185Y009337D01*
X009149Y009374D01*
X009075Y009374D01*
X009038Y009337D01*
X009038Y009227D01*
X009038Y009300D02*
X008965Y009374D01*
X008965Y009448D02*
X008965Y009595D01*
X008965Y009521D02*
X009185Y009521D01*
X009112Y009448D01*
X009075Y009669D02*
X009112Y009742D01*
X009112Y009779D01*
X009075Y009816D01*
X009002Y009816D01*
X008965Y009779D01*
X008965Y009706D01*
X009002Y009669D01*
X009075Y009669D02*
X009185Y009669D01*
X009185Y009816D01*
X010865Y009679D02*
X010865Y009606D01*
X010902Y009569D01*
X010975Y009569D01*
X010975Y009679D01*
X010938Y009716D01*
X010902Y009716D01*
X010865Y009679D01*
X010975Y009569D02*
X011049Y009642D01*
X011085Y009716D01*
X010865Y009495D02*
X010865Y009348D01*
X010865Y009421D02*
X011085Y009421D01*
X011012Y009348D01*
X011049Y009274D02*
X010975Y009274D01*
X010938Y009237D01*
X010938Y009127D01*
X010865Y009127D02*
X011085Y009127D01*
X011085Y009237D01*
X011049Y009274D01*
X010938Y009200D02*
X010865Y009274D01*
X009354Y006465D02*
X009317Y006465D01*
X009280Y006428D01*
X009243Y006465D01*
X009207Y006465D01*
X009170Y006428D01*
X009170Y006355D01*
X009207Y006318D01*
X009207Y006244D02*
X009170Y006207D01*
X009170Y006134D01*
X009207Y006097D01*
X009354Y006097D01*
X009390Y006134D01*
X009390Y006207D01*
X009354Y006244D01*
X009354Y006318D02*
X009390Y006355D01*
X009390Y006428D01*
X009354Y006465D01*
X009280Y006428D02*
X009280Y006392D01*
X009170Y006023D02*
X009170Y005950D01*
X009170Y005987D02*
X009390Y005987D01*
X009390Y006023D02*
X009390Y005950D01*
X008604Y005099D02*
X008640Y005062D01*
X008640Y004989D01*
X008604Y004952D01*
X008604Y004878D02*
X008530Y004878D01*
X008493Y004841D01*
X008493Y004731D01*
X008420Y004731D02*
X008640Y004731D01*
X008640Y004841D01*
X008604Y004878D01*
X008420Y004952D02*
X008420Y005099D01*
X008420Y004952D02*
X008567Y005099D01*
X008604Y005099D01*
X008640Y004657D02*
X008640Y004583D01*
X008640Y004620D02*
X008457Y004620D01*
X008420Y004583D01*
X008420Y004547D01*
X008457Y004510D01*
X007896Y005185D02*
X007823Y005185D01*
X007786Y005222D01*
X007712Y005185D02*
X007565Y005185D01*
X007639Y005185D02*
X007639Y005405D01*
X007712Y005332D01*
X007786Y005368D02*
X007823Y005405D01*
X007896Y005405D01*
X007933Y005368D01*
X007933Y005222D01*
X007896Y005185D01*
X007491Y005222D02*
X007344Y005368D01*
X007344Y005222D01*
X007381Y005185D01*
X007454Y005185D01*
X007491Y005222D01*
X007491Y005368D01*
X007454Y005405D01*
X007381Y005405D01*
X007344Y005368D01*
X006010Y005442D02*
X006010Y005478D01*
X005790Y005478D01*
X005790Y005442D02*
X005790Y005515D01*
X005790Y005589D02*
X005790Y005736D01*
X005937Y005736D02*
X005790Y005589D01*
X005937Y005589D02*
X005937Y005736D01*
X005900Y005367D02*
X005790Y005367D01*
X005790Y005257D01*
X005827Y005221D01*
X005863Y005257D01*
X005863Y005367D01*
X005900Y005367D02*
X005937Y005331D01*
X005937Y005257D01*
X005937Y005146D02*
X005937Y005036D01*
X005900Y005000D01*
X005827Y005000D01*
X005790Y005036D01*
X005790Y005146D01*
X005827Y004925D02*
X005790Y004889D01*
X005790Y004815D01*
X005827Y004779D01*
X005900Y004815D02*
X005900Y004889D01*
X005863Y004925D01*
X005827Y004925D01*
X005900Y004815D02*
X005937Y004779D01*
X005974Y004779D01*
X006010Y004815D01*
X006010Y004889D01*
X005974Y004925D01*
X005937Y004484D02*
X005753Y004484D01*
X005717Y004447D01*
X005717Y004410D01*
X005790Y004373D02*
X005790Y004484D01*
X005790Y004373D02*
X005827Y004337D01*
X005937Y004337D01*
X005900Y004263D02*
X005937Y004226D01*
X005937Y004116D01*
X006010Y004116D02*
X005790Y004116D01*
X005790Y004226D01*
X005827Y004263D01*
X005900Y004263D01*
X005790Y003821D02*
X005790Y003747D01*
X005790Y003784D02*
X006010Y003784D01*
X006010Y003747D01*
X005900Y003673D02*
X005863Y003673D01*
X005863Y003526D01*
X005827Y003526D02*
X005900Y003526D01*
X005937Y003563D01*
X005937Y003637D01*
X005900Y003673D01*
X005790Y003637D02*
X005790Y003563D01*
X005827Y003526D01*
X005790Y003452D02*
X005900Y003452D01*
X005937Y003416D01*
X005900Y003379D01*
X005790Y003379D01*
X005790Y003305D02*
X005937Y003305D01*
X005937Y003342D01*
X005900Y003379D01*
X005900Y003231D02*
X005790Y003231D01*
X005790Y003121D01*
X005827Y003084D01*
X005863Y003121D01*
X005863Y003231D01*
X005900Y003231D02*
X005937Y003195D01*
X005937Y003121D01*
X005974Y003010D02*
X006010Y002974D01*
X006010Y002900D01*
X005974Y002863D01*
X005827Y002863D01*
X005790Y002900D01*
X005790Y002974D01*
X005827Y003010D01*
X005790Y002789D02*
X005790Y002679D01*
X005827Y002642D01*
X005937Y002642D01*
X005900Y002568D02*
X005790Y002568D01*
X005900Y002568D02*
X005937Y002532D01*
X005937Y002422D01*
X005790Y002422D01*
X005790Y002348D02*
X005790Y002274D01*
X005790Y002311D02*
X005937Y002311D01*
X005937Y002274D01*
X006010Y002311D02*
X006047Y002311D01*
X006010Y002200D02*
X006010Y002053D01*
X006010Y002127D02*
X005790Y002127D01*
X005790Y001979D02*
X005790Y001869D01*
X005827Y001832D01*
X005937Y001832D01*
X006010Y001758D02*
X005790Y001758D01*
X005790Y001611D02*
X006010Y001611D01*
X005937Y001685D01*
X006010Y001758D01*
X005937Y001979D02*
X005753Y001979D01*
X005717Y001942D01*
X005717Y001906D01*
X005717Y002716D02*
X005717Y002753D01*
X005753Y002789D01*
X005937Y002789D01*
X009749Y004237D02*
X009786Y004200D01*
X009859Y004200D01*
X009896Y004237D01*
X009896Y004310D02*
X009822Y004347D01*
X009786Y004347D01*
X009749Y004310D01*
X009749Y004237D01*
X009896Y004310D02*
X009896Y004420D01*
X009749Y004420D01*
X009970Y004383D02*
X009970Y004310D01*
X010006Y004273D01*
X010117Y004273D01*
X010117Y004200D02*
X010117Y004420D01*
X010006Y004420D01*
X009970Y004383D01*
X010191Y004420D02*
X010264Y004420D01*
X010227Y004420D02*
X010227Y004237D01*
X010264Y004200D01*
X010301Y004200D01*
X010338Y004237D01*
X006080Y007040D02*
X006080Y007113D01*
X006080Y007077D02*
X005860Y007077D01*
X005860Y007113D02*
X005860Y007040D01*
X005897Y007187D02*
X005860Y007224D01*
X005860Y007297D01*
X005897Y007334D01*
X005897Y007408D02*
X005860Y007445D01*
X005860Y007518D01*
X005897Y007555D01*
X005933Y007555D01*
X005970Y007518D01*
X005970Y007408D01*
X005897Y007408D01*
X005970Y007408D02*
X006044Y007482D01*
X006080Y007555D01*
X006044Y007334D02*
X006080Y007297D01*
X006080Y007224D01*
X006044Y007187D01*
X005897Y007187D01*
X007192Y008870D02*
X007155Y008907D01*
X007155Y008980D01*
X007192Y009017D01*
X007192Y009091D02*
X007155Y009128D01*
X007155Y009201D01*
X007192Y009238D01*
X007339Y009238D01*
X007375Y009201D01*
X007375Y009128D01*
X007339Y009091D01*
X007302Y009091D01*
X007265Y009128D01*
X007265Y009238D01*
X007339Y009017D02*
X007375Y008980D01*
X007375Y008907D01*
X007339Y008870D01*
X007192Y008870D01*
X006010Y011711D02*
X005937Y011785D01*
X006010Y011858D01*
X005790Y011858D01*
X005827Y011932D02*
X005790Y011969D01*
X005790Y012079D01*
X005753Y012079D02*
X005717Y012042D01*
X005717Y012006D01*
X005753Y012079D02*
X005937Y012079D01*
X006010Y012153D02*
X006010Y012300D01*
X006010Y012227D02*
X005790Y012227D01*
X005790Y012374D02*
X005790Y012448D01*
X005790Y012411D02*
X005937Y012411D01*
X005937Y012374D01*
X006010Y012411D02*
X006047Y012411D01*
X005937Y012522D02*
X005937Y012632D01*
X005900Y012668D01*
X005790Y012668D01*
X005827Y012742D02*
X005790Y012779D01*
X005790Y012889D01*
X005753Y012889D02*
X005717Y012853D01*
X005717Y012816D01*
X005753Y012889D02*
X005937Y012889D01*
X005974Y012963D02*
X005827Y012963D01*
X005790Y013000D01*
X005790Y013074D01*
X005827Y013110D01*
X005827Y013184D02*
X005863Y013221D01*
X005863Y013331D01*
X005900Y013331D02*
X005790Y013331D01*
X005790Y013221D01*
X005827Y013184D01*
X005937Y013221D02*
X005937Y013295D01*
X005900Y013331D01*
X005937Y013405D02*
X005937Y013442D01*
X005900Y013479D01*
X005937Y013516D01*
X005900Y013552D01*
X005790Y013552D01*
X005790Y013479D02*
X005900Y013479D01*
X005937Y013405D02*
X005790Y013405D01*
X005827Y013626D02*
X005900Y013626D01*
X005937Y013663D01*
X005937Y013737D01*
X005900Y013773D01*
X005863Y013773D01*
X005863Y013626D01*
X005827Y013626D02*
X005790Y013663D01*
X005790Y013737D01*
X005790Y013847D02*
X005790Y013921D01*
X005790Y013884D02*
X006010Y013884D01*
X006010Y013847D01*
X006010Y014216D02*
X005790Y014216D01*
X005790Y014326D01*
X005827Y014363D01*
X005900Y014363D01*
X005937Y014326D01*
X005937Y014216D01*
X005937Y014437D02*
X005827Y014437D01*
X005790Y014473D01*
X005790Y014584D01*
X005753Y014584D02*
X005717Y014547D01*
X005717Y014510D01*
X005753Y014584D02*
X005937Y014584D01*
X005937Y014879D02*
X005900Y014915D01*
X005900Y014989D01*
X005863Y015025D01*
X005827Y015025D01*
X005790Y014989D01*
X005790Y014915D01*
X005827Y014879D01*
X005937Y014879D02*
X005974Y014879D01*
X006010Y014915D01*
X006010Y014989D01*
X005974Y015025D01*
X005900Y015100D02*
X005827Y015100D01*
X005790Y015136D01*
X005790Y015246D01*
X005827Y015321D02*
X005863Y015357D01*
X005863Y015467D01*
X005900Y015467D02*
X005790Y015467D01*
X005790Y015357D01*
X005827Y015321D01*
X005937Y015357D02*
X005937Y015431D01*
X005900Y015467D01*
X005790Y015542D02*
X005790Y015615D01*
X005790Y015578D02*
X006010Y015578D01*
X006010Y015542D01*
X005937Y015689D02*
X005937Y015836D01*
X005790Y015689D01*
X005790Y015836D01*
X005937Y015246D02*
X005937Y015136D01*
X005900Y015100D01*
X007344Y015322D02*
X007381Y015285D01*
X007454Y015285D01*
X007491Y015322D01*
X007344Y015468D01*
X007344Y015322D01*
X007344Y015468D02*
X007381Y015505D01*
X007454Y015505D01*
X007491Y015468D01*
X007491Y015322D01*
X007565Y015285D02*
X007712Y015285D01*
X007639Y015285D02*
X007639Y015505D01*
X007712Y015432D01*
X007786Y015468D02*
X007823Y015505D01*
X007896Y015505D01*
X007933Y015468D01*
X007933Y015322D01*
X007896Y015285D01*
X007823Y015285D01*
X007786Y015322D01*
X008420Y015199D02*
X008420Y015052D01*
X008567Y015199D01*
X008604Y015199D01*
X008640Y015162D01*
X008640Y015089D01*
X008604Y015052D01*
X008604Y014978D02*
X008530Y014978D01*
X008493Y014941D01*
X008493Y014831D01*
X008420Y014831D02*
X008640Y014831D01*
X008640Y014941D01*
X008604Y014978D01*
X008640Y014757D02*
X008640Y014683D01*
X008640Y014720D02*
X008457Y014720D01*
X008420Y014683D01*
X008420Y014647D01*
X008457Y014610D01*
X009749Y014520D02*
X009896Y014520D01*
X009896Y014410D01*
X009822Y014447D01*
X009786Y014447D01*
X009749Y014410D01*
X009749Y014337D01*
X009786Y014300D01*
X009859Y014300D01*
X009896Y014337D01*
X009970Y014410D02*
X010006Y014373D01*
X010117Y014373D01*
X010117Y014300D02*
X010117Y014520D01*
X010006Y014520D01*
X009970Y014483D01*
X009970Y014410D01*
X010191Y014520D02*
X010264Y014520D01*
X010227Y014520D02*
X010227Y014337D01*
X010264Y014300D01*
X010301Y014300D01*
X010338Y014337D01*
X009390Y016050D02*
X009390Y016123D01*
X009390Y016087D02*
X009170Y016087D01*
X009170Y016123D02*
X009170Y016050D01*
X009207Y016197D02*
X009170Y016234D01*
X009170Y016307D01*
X009207Y016344D01*
X009207Y016418D02*
X009170Y016455D01*
X009170Y016528D01*
X009207Y016565D01*
X009243Y016565D01*
X009280Y016528D01*
X009280Y016492D01*
X009280Y016528D02*
X009317Y016565D01*
X009354Y016565D01*
X009390Y016528D01*
X009390Y016455D01*
X009354Y016418D01*
X009354Y016344D02*
X009390Y016307D01*
X009390Y016234D01*
X009354Y016197D01*
X009207Y016197D01*
X008856Y017970D02*
X008820Y017970D01*
X008783Y018007D01*
X008783Y018190D01*
X008820Y018190D02*
X008746Y018190D01*
X008672Y018190D02*
X008562Y018190D01*
X008525Y018153D01*
X008525Y018080D01*
X008562Y018043D01*
X008672Y018043D01*
X008672Y017970D02*
X008672Y018190D01*
X008451Y018153D02*
X008451Y018117D01*
X008414Y018080D01*
X008304Y018080D01*
X008304Y018007D02*
X008304Y018153D01*
X008341Y018190D01*
X008414Y018190D01*
X008451Y018153D01*
X008451Y018007D02*
X008414Y017970D01*
X008341Y017970D01*
X008304Y018007D01*
X008856Y017970D02*
X008893Y018007D01*
X009280Y018326D02*
X009500Y018326D01*
X009500Y018399D02*
X009500Y018252D01*
X009353Y018399D02*
X009280Y018326D01*
X009317Y018473D02*
X009463Y018473D01*
X009500Y018510D01*
X009500Y018583D01*
X009463Y018620D01*
X009317Y018620D01*
X009280Y018583D01*
X009280Y018510D01*
X009317Y018473D01*
X009427Y018547D02*
X009500Y018473D01*
X009035Y018507D02*
X009035Y018434D01*
X008999Y018397D01*
X008852Y018397D01*
X008815Y018434D01*
X008815Y018507D01*
X008852Y018544D01*
X008815Y018618D02*
X008815Y018765D01*
X008815Y018691D02*
X009035Y018691D01*
X008962Y018618D01*
X008999Y018544D02*
X009035Y018507D01*
X008962Y018839D02*
X009035Y018912D01*
X008815Y018912D01*
X008815Y018839D02*
X008815Y018986D01*
X008965Y019327D02*
X009185Y019327D01*
X009185Y019437D01*
X009149Y019474D01*
X009075Y019474D01*
X009038Y019437D01*
X009038Y019327D01*
X009038Y019400D02*
X008965Y019474D01*
X008965Y019548D02*
X008965Y019695D01*
X008965Y019621D02*
X009185Y019621D01*
X009112Y019548D01*
X009075Y019769D02*
X009112Y019842D01*
X009112Y019879D01*
X009075Y019916D01*
X009002Y019916D01*
X008965Y019879D01*
X008965Y019806D01*
X009002Y019769D01*
X009075Y019769D02*
X009185Y019769D01*
X009185Y019916D01*
X010865Y019779D02*
X010902Y019816D01*
X010938Y019816D01*
X010975Y019779D01*
X010975Y019669D01*
X010902Y019669D01*
X010865Y019706D01*
X010865Y019779D01*
X010975Y019669D02*
X011049Y019742D01*
X011085Y019816D01*
X011085Y019521D02*
X010865Y019521D01*
X010865Y019448D02*
X010865Y019595D01*
X011012Y019448D02*
X011085Y019521D01*
X011049Y019374D02*
X010975Y019374D01*
X010938Y019337D01*
X010938Y019227D01*
X010865Y019227D02*
X011085Y019227D01*
X011085Y019337D01*
X011049Y019374D01*
X010938Y019300D02*
X010865Y019374D01*
X011216Y017980D02*
X011179Y017943D01*
X011179Y017907D01*
X011216Y017870D01*
X011289Y017870D01*
X011326Y017907D01*
X011326Y017943D01*
X011289Y017980D01*
X011216Y017980D01*
X011216Y017870D02*
X011179Y017833D01*
X011179Y017797D01*
X011216Y017760D01*
X011289Y017760D01*
X011326Y017797D01*
X011326Y017833D01*
X011289Y017870D01*
X011400Y017870D02*
X011437Y017833D01*
X011547Y017833D01*
X011547Y017760D02*
X011547Y017980D01*
X011437Y017980D01*
X011400Y017943D01*
X011400Y017870D01*
X011621Y017980D02*
X011695Y017980D01*
X011658Y017980D02*
X011658Y017797D01*
X011695Y017760D01*
X011731Y017760D01*
X011768Y017797D01*
X011765Y016746D02*
X011729Y016672D01*
X011655Y016599D01*
X011655Y016709D01*
X011618Y016746D01*
X011582Y016746D01*
X011545Y016709D01*
X011545Y016636D01*
X011582Y016599D01*
X011655Y016599D01*
X011582Y016525D02*
X011545Y016488D01*
X011545Y016415D01*
X011582Y016378D01*
X011729Y016378D01*
X011765Y016415D01*
X011765Y016488D01*
X011729Y016525D01*
X013092Y019280D02*
X013055Y019317D01*
X013055Y019390D01*
X013092Y019427D01*
X013055Y019501D02*
X013055Y019648D01*
X013055Y019574D02*
X013275Y019574D01*
X013202Y019501D01*
X013239Y019427D02*
X013275Y019390D01*
X013275Y019317D01*
X013239Y019280D01*
X013092Y019280D01*
X013092Y019722D02*
X013055Y019759D01*
X013055Y019832D01*
X013092Y019869D01*
X013128Y019869D01*
X013165Y019832D01*
X013165Y019722D01*
X013092Y019722D01*
X013165Y019722D02*
X013239Y019795D01*
X013275Y019869D01*
X014851Y020012D02*
X014888Y019975D01*
X014961Y019975D01*
X014998Y020012D01*
X014998Y020085D02*
X014925Y020122D01*
X014888Y020122D01*
X014851Y020085D01*
X014851Y020012D01*
X014998Y020085D02*
X014998Y020195D01*
X014851Y020195D01*
X015146Y020195D02*
X015146Y019975D01*
X015219Y019975D02*
X015072Y019975D01*
X015219Y020122D02*
X015146Y020195D01*
X015293Y020158D02*
X015330Y020195D01*
X015403Y020195D01*
X015440Y020158D01*
X015440Y020012D01*
X015403Y019975D01*
X015330Y019975D01*
X015293Y020012D01*
X007375Y019301D02*
X007375Y019228D01*
X007339Y019191D01*
X007302Y019191D01*
X007265Y019228D01*
X007265Y019338D01*
X007192Y019338D02*
X007339Y019338D01*
X007375Y019301D01*
X007192Y019338D02*
X007155Y019301D01*
X007155Y019228D01*
X007192Y019191D01*
X007192Y019117D02*
X007155Y019080D01*
X007155Y019007D01*
X007192Y018970D01*
X007339Y018970D01*
X007375Y019007D01*
X007375Y019080D01*
X007339Y019117D01*
X006080Y017655D02*
X006044Y017582D01*
X005970Y017508D01*
X005970Y017618D01*
X005933Y017655D01*
X005897Y017655D01*
X005860Y017618D01*
X005860Y017545D01*
X005897Y017508D01*
X005970Y017508D01*
X005897Y017434D02*
X005860Y017397D01*
X005860Y017324D01*
X005897Y017287D01*
X006044Y017287D01*
X006080Y017324D01*
X006080Y017397D01*
X006044Y017434D01*
X006080Y017213D02*
X006080Y017140D01*
X006080Y017177D02*
X005860Y017177D01*
X005860Y017213D02*
X005860Y017140D01*
X005974Y013110D02*
X006010Y013074D01*
X006010Y013000D01*
X005974Y012963D01*
X005937Y012742D02*
X005827Y012742D01*
X005790Y012522D02*
X005937Y012522D01*
X005937Y011932D02*
X005827Y011932D01*
X005790Y011711D02*
X006010Y011711D01*
X024241Y017880D02*
X024414Y017880D01*
X024499Y017880D02*
X024499Y017620D01*
X024672Y017880D01*
X024672Y017620D01*
X024757Y017620D02*
X024757Y017793D01*
X024843Y017880D01*
X024930Y017793D01*
X024930Y017620D01*
X024930Y017750D02*
X024757Y017750D01*
X024328Y017620D02*
X024328Y017880D01*
D12*
X007925Y014105D03*
X007675Y014030D03*
X007185Y014030D03*
X006935Y014105D03*
X006935Y004005D03*
X007185Y003930D03*
X007675Y003930D03*
X007925Y004005D03*
D13*
X007923Y004000D03*
X007678Y003925D03*
X007183Y003925D03*
X006938Y004000D03*
X006938Y002715D03*
X007923Y002715D03*
X007923Y012815D03*
X006938Y012815D03*
X007183Y014025D03*
X006938Y014100D03*
X007678Y014025D03*
X007923Y014100D03*
D14*
X007923Y014095D03*
X007683Y014020D03*
X007178Y014020D03*
X006938Y014095D03*
X006938Y003995D03*
X007178Y003920D03*
X007683Y003920D03*
X007923Y003995D03*
D15*
X007923Y003990D03*
X007923Y014090D03*
D16*
X007685Y014015D03*
X007175Y014015D03*
X006940Y014090D03*
X006940Y012825D03*
X007920Y012825D03*
X006940Y003990D03*
X007175Y003915D03*
X007685Y003915D03*
X007920Y002725D03*
X006940Y002725D03*
D17*
X007170Y003910D03*
X006940Y003985D03*
X007690Y003910D03*
X007920Y003985D03*
X007690Y014010D03*
X007920Y014085D03*
X007170Y014010D03*
X006940Y014085D03*
D18*
X007695Y014005D03*
X007920Y014080D03*
X007920Y003980D03*
X007695Y003905D03*
D19*
X007168Y003905D03*
X006943Y003980D03*
X006943Y002735D03*
X007918Y002735D03*
X007918Y012835D03*
X006943Y012835D03*
X007168Y014005D03*
X006943Y014080D03*
D20*
X006943Y014075D03*
X007163Y014000D03*
X007698Y014000D03*
X007918Y014075D03*
X007918Y003975D03*
X007698Y003900D03*
X007163Y003900D03*
X006943Y003975D03*
D21*
X006943Y003970D03*
X007918Y003970D03*
X007918Y014070D03*
X006943Y014070D03*
D22*
X006945Y014065D03*
X007915Y014065D03*
X007915Y012850D03*
X007915Y003965D03*
X006945Y003965D03*
X007915Y002750D03*
D23*
X007915Y003960D03*
X006945Y003960D03*
X006945Y014060D03*
X007915Y014060D03*
D24*
X007913Y014055D03*
X006948Y014055D03*
X006948Y012860D03*
X007913Y012860D03*
X007913Y003955D03*
X006948Y003955D03*
X006948Y002760D03*
X007913Y002760D03*
D25*
X007913Y003950D03*
X006948Y003950D03*
X006948Y014050D03*
X007913Y014050D03*
D26*
X007910Y014045D03*
X006950Y014045D03*
X006950Y012870D03*
X007910Y012870D03*
X007910Y003945D03*
X006950Y003945D03*
X006950Y002770D03*
X007910Y002770D03*
D27*
X007910Y003940D03*
X006950Y003940D03*
X006950Y014040D03*
X007910Y014040D03*
D28*
X007908Y014035D03*
X006953Y014035D03*
X006953Y012880D03*
X007908Y012880D03*
X007908Y003935D03*
X006953Y003935D03*
X006953Y002780D03*
X007908Y002780D03*
D29*
X007675Y003935D03*
X007185Y003935D03*
X007185Y014035D03*
X007675Y014035D03*
D30*
X007908Y014030D03*
X006953Y014030D03*
X006953Y003930D03*
X007908Y003930D03*
D31*
X007908Y003925D03*
X007908Y014025D03*
D32*
X006955Y014025D03*
X006955Y012890D03*
X007430Y012645D03*
X007905Y012890D03*
X006955Y003925D03*
X006955Y002790D03*
X007430Y002545D03*
X007905Y002790D03*
D33*
X007430Y002565D03*
X007430Y002560D03*
X007430Y002555D03*
X007430Y002550D03*
X006955Y003920D03*
X007905Y003920D03*
X007430Y012650D03*
X007430Y012655D03*
X007430Y012660D03*
X007430Y012665D03*
X006955Y014020D03*
X007905Y014020D03*
D34*
X007905Y014015D03*
X006955Y014015D03*
X007430Y012695D03*
X007430Y012690D03*
X007430Y012685D03*
X007430Y012680D03*
X007430Y012675D03*
X006955Y003915D03*
X007905Y003915D03*
X007430Y002595D03*
X007430Y002590D03*
X007430Y002585D03*
X007430Y002580D03*
X007430Y002575D03*
D35*
X007433Y002625D03*
X007903Y002805D03*
X007903Y003910D03*
X006958Y003910D03*
X007433Y012725D03*
X007903Y012905D03*
X007903Y014010D03*
X006958Y014010D03*
D36*
X006958Y014005D03*
X007903Y014005D03*
X007433Y012750D03*
X007903Y003905D03*
X006958Y003905D03*
X007433Y002650D03*
D37*
X007430Y002680D03*
X007430Y002685D03*
X007430Y002690D03*
X007430Y002695D03*
X007430Y002700D03*
X007900Y002815D03*
X007900Y003900D03*
X006960Y003900D03*
X007430Y012780D03*
X007430Y012785D03*
X007430Y012790D03*
X007430Y012795D03*
X007430Y012800D03*
X007900Y012915D03*
X007900Y014000D03*
X006960Y014000D03*
D38*
X007013Y013995D03*
X007848Y013995D03*
X007848Y003895D03*
X007013Y003895D03*
D39*
X007013Y003890D03*
X007848Y003890D03*
X007848Y013990D03*
X007013Y013990D03*
D40*
X007010Y013985D03*
X007085Y013800D03*
X007090Y013790D03*
X007095Y013785D03*
X007095Y013780D03*
X007765Y013780D03*
X007765Y013775D03*
X007765Y013785D03*
X007770Y013790D03*
X007775Y013800D03*
X007850Y013985D03*
X007430Y012885D03*
X007010Y003885D03*
X007085Y003700D03*
X007090Y003690D03*
X007095Y003685D03*
X007095Y003680D03*
X007765Y003680D03*
X007765Y003675D03*
X007765Y003685D03*
X007770Y003690D03*
X007775Y003700D03*
X007850Y003885D03*
X007430Y002785D03*
D41*
X007098Y003665D03*
X007098Y003670D03*
X007098Y003675D03*
X007088Y003695D03*
X007083Y003705D03*
X007078Y003715D03*
X007763Y003670D03*
X007763Y003665D03*
X007773Y003695D03*
X007778Y003705D03*
X007783Y003715D03*
X007853Y003880D03*
X007763Y013765D03*
X007763Y013770D03*
X007773Y013795D03*
X007778Y013805D03*
X007783Y013815D03*
X007853Y013980D03*
X007098Y013775D03*
X007098Y013770D03*
X007098Y013765D03*
X007088Y013795D03*
X007083Y013805D03*
X007078Y013815D03*
D42*
X007080Y013810D03*
X007075Y013820D03*
X007070Y013825D03*
X007070Y013830D03*
X007100Y013760D03*
X007010Y013980D03*
X007760Y013760D03*
X007780Y013810D03*
X007785Y013820D03*
X007790Y013825D03*
X007790Y013830D03*
X007795Y013835D03*
X007010Y003880D03*
X007070Y003730D03*
X007070Y003725D03*
X007075Y003720D03*
X007080Y003710D03*
X007100Y003660D03*
X007760Y003660D03*
X007780Y003710D03*
X007785Y003720D03*
X007790Y003725D03*
X007790Y003730D03*
X007795Y003735D03*
D43*
X007798Y003740D03*
X007803Y003750D03*
X007763Y003655D03*
X007853Y003875D03*
X007098Y003655D03*
X007068Y003735D03*
X007063Y003740D03*
X007063Y003745D03*
X007058Y003750D03*
X007008Y003875D03*
X007098Y013755D03*
X007068Y013835D03*
X007063Y013840D03*
X007063Y013845D03*
X007058Y013850D03*
X007008Y013975D03*
X007763Y013755D03*
X007798Y013840D03*
X007803Y013850D03*
X007853Y013975D03*
D44*
X007855Y013970D03*
X007810Y013865D03*
X007810Y013860D03*
X007805Y013855D03*
X007800Y013845D03*
X007760Y013750D03*
X007100Y013750D03*
X007055Y013855D03*
X007055Y013860D03*
X007050Y013865D03*
X007005Y013970D03*
X007005Y003870D03*
X007050Y003765D03*
X007055Y003760D03*
X007055Y003755D03*
X007100Y003650D03*
X007760Y003650D03*
X007800Y003745D03*
X007805Y003755D03*
X007810Y003760D03*
X007810Y003765D03*
X007855Y003870D03*
D45*
X007855Y003865D03*
X007835Y003810D03*
X007830Y003800D03*
X007825Y003795D03*
X007825Y003790D03*
X007760Y003635D03*
X007810Y003200D03*
X007805Y003195D03*
X007800Y003190D03*
X007060Y003190D03*
X007055Y003195D03*
X007050Y003200D03*
X007100Y003635D03*
X007035Y003790D03*
X007035Y003795D03*
X007030Y003800D03*
X007025Y003810D03*
X007005Y003865D03*
X007060Y013290D03*
X007055Y013295D03*
X007050Y013300D03*
X007100Y013735D03*
X007035Y013890D03*
X007035Y013895D03*
X007030Y013900D03*
X007025Y013910D03*
X007005Y013965D03*
X007760Y013735D03*
X007825Y013890D03*
X007825Y013895D03*
X007830Y013900D03*
X007835Y013910D03*
X007855Y013965D03*
X007810Y013300D03*
X007805Y013295D03*
X007800Y013290D03*
D46*
X007798Y013285D03*
X007818Y013610D03*
X007813Y013615D03*
X007808Y013620D03*
X007803Y013625D03*
X007763Y013730D03*
X007833Y013905D03*
X007838Y013915D03*
X007843Y013920D03*
X007858Y013960D03*
X007098Y013730D03*
X007058Y013625D03*
X007053Y013620D03*
X007048Y013615D03*
X007043Y013610D03*
X007063Y013285D03*
X007068Y013280D03*
X007028Y013905D03*
X007023Y013915D03*
X007018Y013925D03*
X007003Y013960D03*
X007003Y003860D03*
X007018Y003825D03*
X007023Y003815D03*
X007028Y003805D03*
X007098Y003630D03*
X007058Y003525D03*
X007053Y003520D03*
X007048Y003515D03*
X007043Y003510D03*
X007063Y003185D03*
X007068Y003180D03*
X007798Y003185D03*
X007818Y003510D03*
X007813Y003515D03*
X007808Y003520D03*
X007803Y003525D03*
X007763Y003630D03*
X007833Y003805D03*
X007838Y003815D03*
X007843Y003820D03*
X007858Y003860D03*
D47*
X007855Y003855D03*
X007855Y003850D03*
X007855Y003845D03*
X007850Y003835D03*
X007845Y003830D03*
X007845Y003825D03*
X007760Y003625D03*
X007795Y003535D03*
X007800Y003530D03*
X007820Y003205D03*
X007795Y003180D03*
X007790Y003175D03*
X007040Y003205D03*
X007060Y003530D03*
X007065Y003535D03*
X007100Y003625D03*
X007020Y003820D03*
X007015Y003830D03*
X007010Y003835D03*
X007010Y003840D03*
X007005Y003845D03*
X007005Y003850D03*
X007005Y003855D03*
X007040Y013305D03*
X007060Y013630D03*
X007065Y013635D03*
X007100Y013725D03*
X007020Y013920D03*
X007015Y013930D03*
X007010Y013935D03*
X007010Y013940D03*
X007005Y013945D03*
X007005Y013950D03*
X007005Y013955D03*
X007760Y013725D03*
X007795Y013635D03*
X007800Y013630D03*
X007820Y013305D03*
X007795Y013280D03*
X007790Y013275D03*
X007845Y013925D03*
X007845Y013930D03*
X007850Y013935D03*
X007855Y013945D03*
X007855Y013950D03*
X007855Y013955D03*
D48*
X007853Y013940D03*
X007763Y013720D03*
X007763Y013715D03*
X007793Y013640D03*
X007098Y013720D03*
X007073Y013275D03*
X007853Y003840D03*
X007763Y003620D03*
X007763Y003615D03*
X007793Y003540D03*
X007098Y003620D03*
X007073Y003175D03*
D49*
X007098Y003640D03*
X007098Y003645D03*
X007048Y003770D03*
X007043Y003775D03*
X007043Y003780D03*
X007038Y003785D03*
X007763Y003645D03*
X007763Y003640D03*
X007813Y003770D03*
X007818Y003775D03*
X007818Y003780D03*
X007823Y003785D03*
X007433Y002790D03*
X007433Y012890D03*
X007763Y013740D03*
X007763Y013745D03*
X007813Y013870D03*
X007818Y013875D03*
X007818Y013880D03*
X007823Y013885D03*
X007098Y013745D03*
X007098Y013740D03*
X007048Y013870D03*
X007043Y013875D03*
X007043Y013880D03*
X007038Y013885D03*
D50*
X007100Y013715D03*
X007100Y013710D03*
X007070Y013640D03*
X007030Y013605D03*
X007075Y013270D03*
X007430Y012895D03*
X007780Y013265D03*
X007785Y013270D03*
X007830Y013605D03*
X007760Y013710D03*
X007760Y003610D03*
X007830Y003505D03*
X007785Y003170D03*
X007780Y003165D03*
X007430Y002795D03*
X007075Y003170D03*
X007030Y003505D03*
X007070Y003540D03*
X007100Y003610D03*
X007100Y003615D03*
D51*
X007098Y003605D03*
X007078Y003550D03*
X007073Y003545D03*
X007083Y003165D03*
X007783Y003550D03*
X007788Y003545D03*
X007763Y003605D03*
X007083Y013265D03*
X007073Y013645D03*
X007078Y013650D03*
X007098Y013705D03*
X007763Y013705D03*
X007783Y013650D03*
X007788Y013645D03*
D52*
X007760Y013700D03*
X007835Y013310D03*
X007775Y013260D03*
X007085Y013260D03*
X007025Y013310D03*
X007100Y013700D03*
X007100Y003600D03*
X007025Y003210D03*
X007085Y003160D03*
X007775Y003160D03*
X007835Y003210D03*
X007760Y003600D03*
D53*
X007763Y003595D03*
X007763Y003590D03*
X007773Y003560D03*
X007778Y003555D03*
X007768Y003155D03*
X007093Y003155D03*
X007083Y003555D03*
X007088Y003560D03*
X007098Y003595D03*
X007093Y013255D03*
X007083Y013655D03*
X007088Y013660D03*
X007098Y013695D03*
X007763Y013695D03*
X007763Y013690D03*
X007773Y013660D03*
X007778Y013655D03*
X007768Y013255D03*
D54*
X007845Y013600D03*
X007760Y013685D03*
X007100Y013685D03*
X007100Y013690D03*
X007015Y013600D03*
X007430Y012900D03*
X007100Y003590D03*
X007100Y003585D03*
X007015Y003500D03*
X007760Y003585D03*
X007845Y003500D03*
X007430Y002800D03*
D55*
X007763Y003150D03*
X007768Y003565D03*
X007768Y003570D03*
X007763Y003575D03*
X007763Y003580D03*
X007098Y003580D03*
X007098Y003575D03*
X007093Y003565D03*
X007763Y013250D03*
X007768Y013665D03*
X007768Y013670D03*
X007763Y013675D03*
X007763Y013680D03*
X007098Y013680D03*
X007098Y013675D03*
X007093Y013665D03*
D56*
X007095Y013670D03*
X007100Y013250D03*
X007095Y003570D03*
X007100Y003150D03*
D57*
X006998Y003495D03*
X007863Y003495D03*
X007863Y013595D03*
X006998Y013595D03*
D58*
X006983Y013590D03*
X007878Y013590D03*
X007878Y003490D03*
X006983Y003490D03*
D59*
X006970Y003485D03*
X007890Y003485D03*
X007890Y013585D03*
X006970Y013585D03*
D60*
X006953Y013580D03*
X007908Y013580D03*
X007908Y003480D03*
X006953Y003480D03*
D61*
X006938Y003475D03*
X006913Y003420D03*
X006913Y003415D03*
X006913Y003410D03*
X006913Y003405D03*
X006913Y003310D03*
X006913Y003305D03*
X006913Y003300D03*
X006913Y003295D03*
X007923Y003475D03*
X007948Y003420D03*
X007948Y003415D03*
X007948Y003410D03*
X007948Y003405D03*
X007948Y003310D03*
X007948Y003305D03*
X007948Y003300D03*
X007948Y003295D03*
X007948Y013395D03*
X007948Y013400D03*
X007948Y013405D03*
X007948Y013410D03*
X007948Y013505D03*
X007948Y013510D03*
X007948Y013515D03*
X007948Y013520D03*
X007923Y013575D03*
X006938Y013575D03*
X006913Y013520D03*
X006913Y013515D03*
X006913Y013510D03*
X006913Y013505D03*
X006913Y013410D03*
X006913Y013405D03*
X006913Y013400D03*
X006913Y013395D03*
D62*
X006920Y013365D03*
X006920Y013360D03*
X006930Y013340D03*
X006920Y013550D03*
X006920Y013555D03*
X006925Y013565D03*
X006930Y013570D03*
X007930Y013570D03*
X007935Y013565D03*
X007940Y013555D03*
X007940Y013550D03*
X007940Y013365D03*
X007940Y013360D03*
X007930Y013340D03*
X007930Y003470D03*
X007935Y003465D03*
X007940Y003455D03*
X007940Y003450D03*
X007940Y003265D03*
X007940Y003260D03*
X007930Y003240D03*
X006930Y003240D03*
X006920Y003260D03*
X006920Y003265D03*
X006920Y003450D03*
X006920Y003455D03*
X006925Y003465D03*
X006930Y003470D03*
D63*
X006923Y003460D03*
X006923Y003255D03*
X006923Y003250D03*
X006928Y003245D03*
X007933Y003245D03*
X007938Y003250D03*
X007938Y003255D03*
X007938Y003460D03*
X007933Y013345D03*
X007938Y013350D03*
X007938Y013355D03*
X007938Y013560D03*
X006923Y013560D03*
X006923Y013355D03*
X006923Y013350D03*
X006928Y013345D03*
D64*
X006918Y013370D03*
X006918Y013375D03*
X006918Y013540D03*
X006918Y013545D03*
X007943Y013545D03*
X007943Y013540D03*
X007943Y013375D03*
X007943Y013370D03*
X007943Y003445D03*
X007943Y003440D03*
X007943Y003275D03*
X007943Y003270D03*
X006918Y003270D03*
X006918Y003275D03*
X006918Y003440D03*
X006918Y003445D03*
D65*
X006915Y003435D03*
X006915Y003430D03*
X006915Y003425D03*
X006915Y003290D03*
X006915Y003285D03*
X006915Y003280D03*
X007945Y003280D03*
X007945Y003285D03*
X007945Y003290D03*
X007945Y003425D03*
X007945Y003430D03*
X007945Y003435D03*
X007945Y013380D03*
X007945Y013385D03*
X007945Y013390D03*
X007945Y013525D03*
X007945Y013530D03*
X007945Y013535D03*
X006915Y013535D03*
X006915Y013530D03*
X006915Y013525D03*
X006915Y013390D03*
X006915Y013385D03*
X006915Y013380D03*
D66*
X006910Y013415D03*
X006910Y013420D03*
X006910Y013425D03*
X006910Y013430D03*
X006910Y013435D03*
X006910Y013440D03*
X006910Y013445D03*
X006910Y013450D03*
X006910Y013455D03*
X006910Y013460D03*
X006910Y013465D03*
X006910Y013470D03*
X006910Y013475D03*
X006910Y013480D03*
X006910Y013485D03*
X006910Y013490D03*
X006910Y013495D03*
X006910Y013500D03*
X007950Y013500D03*
X007950Y013495D03*
X007950Y013490D03*
X007950Y013485D03*
X007950Y013480D03*
X007950Y013475D03*
X007950Y013470D03*
X007950Y013445D03*
X007950Y013440D03*
X007950Y013435D03*
X007950Y013430D03*
X007950Y013425D03*
X007950Y013420D03*
X007950Y013415D03*
X007950Y003400D03*
X007950Y003395D03*
X007950Y003390D03*
X007950Y003385D03*
X007950Y003380D03*
X007950Y003375D03*
X007950Y003370D03*
X007950Y003345D03*
X007950Y003340D03*
X007950Y003335D03*
X007950Y003330D03*
X007950Y003325D03*
X007950Y003320D03*
X007950Y003315D03*
X006910Y003315D03*
X006910Y003320D03*
X006910Y003325D03*
X006910Y003330D03*
X006910Y003335D03*
X006910Y003340D03*
X006910Y003345D03*
X006910Y003350D03*
X006910Y003355D03*
X006910Y003360D03*
X006910Y003365D03*
X006910Y003370D03*
X006910Y003375D03*
X006910Y003380D03*
X006910Y003385D03*
X006910Y003390D03*
X006910Y003395D03*
X006910Y003400D03*
D67*
X006948Y003235D03*
X007913Y003235D03*
X007953Y003350D03*
X007953Y003355D03*
X007953Y003360D03*
X007953Y003365D03*
X007913Y013335D03*
X007953Y013450D03*
X007953Y013455D03*
X007953Y013460D03*
X007953Y013465D03*
X006948Y013335D03*
D68*
X006963Y013330D03*
X007898Y013330D03*
X007898Y003230D03*
X006963Y003230D03*
D69*
X007885Y003225D03*
X007885Y013325D03*
D70*
X007733Y013235D03*
X007128Y013235D03*
X006978Y013325D03*
X006978Y003225D03*
X007128Y003135D03*
X007733Y003135D03*
D71*
X007868Y003220D03*
X006993Y003220D03*
X006993Y013320D03*
X007868Y013320D03*
D72*
X007853Y013315D03*
X007108Y013245D03*
X007008Y013315D03*
X007008Y003215D03*
X007108Y003145D03*
X007853Y003215D03*
D73*
X007755Y003145D03*
X007755Y013245D03*
D74*
X007745Y013240D03*
X007430Y012905D03*
X007115Y013240D03*
X007115Y003140D03*
X007430Y002805D03*
X007745Y003140D03*
D75*
X007430Y003130D03*
X007430Y003125D03*
X007430Y002995D03*
X007430Y002990D03*
X007430Y013090D03*
X007430Y013095D03*
X007430Y013225D03*
X007430Y013230D03*
D76*
X007430Y013220D03*
X007430Y013215D03*
X007430Y013100D03*
X007430Y003120D03*
X007430Y003115D03*
X007430Y003000D03*
D77*
X007433Y003110D03*
X007433Y013210D03*
D78*
X007430Y013205D03*
X007430Y013200D03*
X007430Y013110D03*
X007430Y013105D03*
X007430Y003105D03*
X007430Y003100D03*
X007430Y003010D03*
X007430Y003005D03*
D79*
X007430Y003015D03*
X007430Y003090D03*
X007430Y003095D03*
X007430Y013115D03*
X007430Y013190D03*
X007430Y013195D03*
D80*
X007430Y013185D03*
X007430Y013180D03*
X007430Y013125D03*
X007430Y013120D03*
X007430Y003085D03*
X007430Y003080D03*
X007430Y003025D03*
X007430Y003020D03*
D81*
X007433Y003075D03*
X007433Y013175D03*
D82*
X007430Y013170D03*
X007430Y013165D03*
X007430Y013130D03*
X007430Y003070D03*
X007430Y003065D03*
X007430Y003030D03*
D83*
X007430Y003035D03*
X007430Y003040D03*
X007430Y003055D03*
X007430Y003060D03*
X007430Y013135D03*
X007430Y013140D03*
X007430Y013155D03*
X007430Y013160D03*
D84*
X007433Y013150D03*
X007433Y013145D03*
X007433Y003050D03*
X007433Y003045D03*
D85*
X007430Y002985D03*
X007430Y013085D03*
D86*
X007430Y013080D03*
X007430Y002980D03*
D87*
X007433Y002975D03*
X007433Y013075D03*
D88*
X007430Y013070D03*
X007430Y002970D03*
D89*
X007430Y002965D03*
X007430Y013065D03*
D90*
X007433Y013060D03*
X007433Y002960D03*
D91*
X007430Y002955D03*
X007430Y013055D03*
D92*
X007430Y013050D03*
X007430Y002950D03*
D93*
X007430Y002945D03*
X007430Y002940D03*
X007430Y013040D03*
X007430Y013045D03*
D94*
X007430Y013035D03*
X007430Y002935D03*
D95*
X007430Y002930D03*
X007430Y002925D03*
X007430Y013025D03*
X007430Y013030D03*
D96*
X007430Y013020D03*
X007430Y002920D03*
D97*
X007430Y002915D03*
X007430Y002910D03*
X007430Y002825D03*
X007430Y012925D03*
X007430Y013010D03*
X007430Y013015D03*
D98*
X007430Y013005D03*
X007430Y012930D03*
X007430Y002905D03*
X007430Y002830D03*
D99*
X007430Y002835D03*
X007430Y002895D03*
X007430Y002900D03*
X007430Y012935D03*
X007430Y012995D03*
X007430Y013000D03*
D100*
X007430Y012990D03*
X007430Y012940D03*
X007430Y002890D03*
X007430Y002840D03*
D101*
X007430Y002845D03*
X007430Y002885D03*
X007430Y012945D03*
X007430Y012985D03*
D102*
X007433Y012980D03*
X007433Y002880D03*
D103*
X007430Y002875D03*
X007430Y002850D03*
X007430Y012950D03*
X007430Y012975D03*
D104*
X007430Y012970D03*
X007430Y012965D03*
X007430Y012960D03*
X007430Y012955D03*
X007430Y002870D03*
X007430Y002865D03*
X007430Y002860D03*
X007430Y002855D03*
D105*
X007898Y002820D03*
X006963Y002820D03*
X006963Y012920D03*
X007898Y012920D03*
D106*
X007430Y012920D03*
X007430Y002820D03*
D107*
X007430Y002815D03*
X007430Y012915D03*
D108*
X007433Y012805D03*
X006963Y012915D03*
X006963Y002815D03*
X007433Y002705D03*
D109*
X007430Y002675D03*
X007430Y002670D03*
X007430Y002665D03*
X007430Y002660D03*
X007430Y002655D03*
X007900Y002810D03*
X006960Y002810D03*
X007430Y012755D03*
X007430Y012760D03*
X007430Y012765D03*
X007430Y012770D03*
X007430Y012775D03*
X007900Y012910D03*
X006960Y012910D03*
D110*
X007430Y012910D03*
X007430Y002810D03*
D111*
X007430Y002645D03*
X007430Y002640D03*
X007430Y002635D03*
X007430Y002630D03*
X006960Y002805D03*
X007430Y012730D03*
X007430Y012735D03*
X007430Y012740D03*
X007430Y012745D03*
X006960Y012905D03*
D112*
X006958Y012900D03*
X007903Y012900D03*
X007903Y002800D03*
X006958Y002800D03*
D113*
X006958Y002795D03*
X007433Y002570D03*
X007903Y002795D03*
X007433Y012670D03*
X007903Y012895D03*
X006958Y012895D03*
D114*
X006955Y012885D03*
X007905Y012885D03*
X007905Y002785D03*
X006955Y002785D03*
D115*
X007430Y002780D03*
X007430Y012880D03*
D116*
X007908Y012875D03*
X006953Y012875D03*
X006953Y002775D03*
X007908Y002775D03*
D117*
X007430Y002775D03*
X007430Y012875D03*
D118*
X007430Y012870D03*
X007430Y002770D03*
D119*
X007910Y002765D03*
X006950Y002765D03*
X006950Y012865D03*
X007910Y012865D03*
D120*
X007430Y012865D03*
X007430Y002765D03*
D121*
X007430Y002760D03*
X007430Y012860D03*
D122*
X007913Y012855D03*
X006948Y012855D03*
X006948Y002755D03*
X007913Y002755D03*
D123*
X007430Y002755D03*
X007430Y002750D03*
X007430Y002745D03*
X007430Y002740D03*
X007430Y002735D03*
X007430Y012835D03*
X007430Y012840D03*
X007430Y012845D03*
X007430Y012850D03*
X007430Y012855D03*
D124*
X006948Y012850D03*
X006948Y002750D03*
D125*
X006945Y002745D03*
X007915Y002745D03*
X007915Y012845D03*
X006945Y012845D03*
D126*
X006945Y012840D03*
X007915Y012840D03*
X007915Y002740D03*
X006945Y002740D03*
D127*
X006943Y002730D03*
X007918Y002730D03*
X007918Y012830D03*
X006943Y012830D03*
D128*
X007430Y012830D03*
X007430Y012825D03*
X007430Y012820D03*
X007430Y012815D03*
X007430Y012810D03*
X007430Y002730D03*
X007430Y002725D03*
X007430Y002720D03*
X007430Y002715D03*
X007430Y002710D03*
D129*
X007920Y002720D03*
X006940Y002720D03*
X006940Y012820D03*
X007920Y012820D03*
D130*
X007923Y012810D03*
X006938Y012810D03*
X006938Y002710D03*
X007923Y002710D03*
D131*
X007923Y002705D03*
X006938Y002705D03*
X006938Y012805D03*
X007923Y012805D03*
D132*
X007430Y012720D03*
X007430Y012715D03*
X007430Y012710D03*
X007430Y012705D03*
X007430Y012700D03*
X007430Y002620D03*
X007430Y002615D03*
X007430Y002610D03*
X007430Y002605D03*
X007430Y002600D03*
D133*
X020536Y005195D02*
X020826Y005195D01*
X020536Y005389D01*
X020826Y005389D01*
X020826Y005490D02*
X020536Y005490D01*
X020632Y005490D02*
X020632Y005635D01*
X020681Y005683D01*
X020777Y005683D01*
X020826Y005635D01*
X020826Y005490D01*
X020632Y005587D02*
X020536Y005683D01*
X020536Y005785D02*
X020826Y005785D01*
X020826Y005978D01*
X020681Y005881D02*
X020681Y005785D01*
X020487Y006079D02*
X020487Y006273D01*
X020584Y006374D02*
X020536Y006422D01*
X020536Y006519D01*
X020584Y006567D01*
X020632Y006567D01*
X020681Y006519D01*
X020681Y006422D01*
X020729Y006374D01*
X020777Y006374D01*
X020826Y006422D01*
X020826Y006519D01*
X020777Y006567D01*
X020826Y006668D02*
X020729Y006765D01*
X020826Y006862D01*
X020536Y006862D01*
X020536Y006963D02*
X020536Y007108D01*
X020584Y007157D01*
X020777Y007157D01*
X020826Y007108D01*
X020826Y006963D01*
X020536Y006963D01*
X020536Y006668D02*
X020826Y006668D01*
X020826Y015295D02*
X020536Y015295D01*
X020536Y015489D02*
X020826Y015489D01*
X020826Y015590D02*
X020826Y015735D01*
X020777Y015783D01*
X020681Y015783D01*
X020632Y015735D01*
X020632Y015590D01*
X020536Y015590D02*
X020826Y015590D01*
X020632Y015687D02*
X020536Y015783D01*
X020536Y015885D02*
X020826Y015885D01*
X020826Y016078D01*
X020681Y015981D02*
X020681Y015885D01*
X020487Y016179D02*
X020487Y016373D01*
X020584Y016474D02*
X020536Y016522D01*
X020536Y016619D01*
X020584Y016667D01*
X020632Y016667D01*
X020681Y016619D01*
X020681Y016522D01*
X020729Y016474D01*
X020777Y016474D01*
X020826Y016522D01*
X020826Y016619D01*
X020777Y016667D01*
X020826Y016768D02*
X020729Y016865D01*
X020826Y016962D01*
X020536Y016962D01*
X020536Y017063D02*
X020536Y017208D01*
X020584Y017257D01*
X020777Y017257D01*
X020826Y017208D01*
X020826Y017063D01*
X020536Y017063D01*
X020536Y016768D02*
X020826Y016768D01*
X020536Y015489D02*
X020826Y015295D01*
D134*
X022154Y017553D02*
X022424Y017553D01*
X022424Y017688D01*
X022379Y017734D01*
X022289Y017734D01*
X022244Y017688D01*
X022244Y017553D01*
X022244Y017643D02*
X022154Y017734D01*
X022154Y017848D02*
X022424Y017848D01*
X022424Y018028D01*
X022424Y018143D02*
X022154Y018143D01*
X022154Y018323D02*
X022424Y018323D01*
X022334Y018233D01*
X022424Y018143D01*
X022289Y017938D02*
X022289Y017848D01*
X022289Y018437D02*
X022199Y018437D01*
X022154Y018482D01*
X022154Y018572D01*
X022199Y018617D01*
X022244Y018617D01*
X022289Y018572D01*
X022289Y018437D01*
X022379Y018527D01*
X022424Y018617D01*
X022379Y018732D02*
X022334Y018732D01*
X022289Y018777D01*
X022289Y018912D01*
X022379Y018912D02*
X022424Y018867D01*
X022424Y018777D01*
X022379Y018732D01*
X022379Y018912D02*
X022199Y018912D01*
X022154Y018867D01*
X022154Y018777D01*
X022199Y018732D01*
X022199Y008812D02*
X022379Y008812D01*
X022424Y008767D01*
X022424Y008677D01*
X022379Y008632D01*
X022334Y008632D01*
X022289Y008677D01*
X022289Y008812D01*
X022199Y008812D02*
X022154Y008767D01*
X022154Y008677D01*
X022199Y008632D01*
X022199Y008517D02*
X022244Y008517D01*
X022289Y008472D01*
X022289Y008337D01*
X022199Y008337D01*
X022154Y008382D01*
X022154Y008472D01*
X022199Y008517D01*
X022379Y008427D02*
X022289Y008337D01*
X022379Y008427D02*
X022424Y008517D01*
X022424Y008223D02*
X022154Y008223D01*
X022154Y008043D02*
X022424Y008043D01*
X022334Y008133D01*
X022424Y008223D01*
X022424Y007928D02*
X022424Y007748D01*
X022154Y007748D01*
X022154Y007634D02*
X022244Y007543D01*
X022244Y007588D02*
X022244Y007453D01*
X022154Y007453D02*
X022424Y007453D01*
X022424Y007588D01*
X022379Y007634D01*
X022289Y007634D01*
X022244Y007588D01*
X022289Y007748D02*
X022289Y007838D01*
D135*
X020807Y004289D02*
X020413Y004289D01*
X020413Y004131D02*
X020807Y004131D01*
X020610Y004092D02*
X020610Y004073D01*
X020610Y004328D02*
X020610Y004347D01*
X019817Y004299D02*
X019423Y004299D01*
X019423Y004141D02*
X019817Y004141D01*
X019620Y004102D02*
X019620Y004083D01*
X019620Y004338D02*
X019620Y004357D01*
X014627Y009401D02*
X014233Y009401D01*
X014233Y009559D02*
X014627Y009559D01*
X014430Y009598D02*
X014430Y009617D01*
X014430Y009362D02*
X014430Y009343D01*
X013917Y009401D02*
X013523Y009401D01*
X013523Y009559D02*
X013917Y009559D01*
X013720Y009598D02*
X013720Y009617D01*
X013720Y009362D02*
X013720Y009343D01*
X010736Y009489D02*
X010657Y009489D01*
X010578Y009332D01*
X010460Y009568D01*
X010381Y009332D01*
X010263Y009489D01*
X010185Y009489D01*
X009886Y009489D02*
X009807Y009489D01*
X009728Y009332D01*
X009610Y009568D01*
X009531Y009332D01*
X009413Y009489D01*
X009335Y009489D01*
X008607Y009179D02*
X008213Y009179D01*
X008213Y009021D02*
X008607Y009021D01*
X008410Y008982D02*
X008410Y008963D01*
X008410Y009218D02*
X008410Y009237D01*
X007957Y009179D02*
X007563Y009179D01*
X007563Y009021D02*
X007957Y009021D01*
X007760Y008982D02*
X007760Y008963D01*
X007760Y009218D02*
X007760Y009237D01*
X010813Y006529D02*
X011207Y006529D01*
X011207Y006371D02*
X010813Y006371D01*
X011010Y006332D02*
X011010Y006313D01*
X011010Y006568D02*
X011010Y006587D01*
X007597Y005850D02*
X007578Y005850D01*
X007539Y005653D02*
X007539Y006047D01*
X007381Y006047D02*
X007381Y005653D01*
X007342Y005850D02*
X007323Y005850D01*
X007381Y015753D02*
X007381Y016147D01*
X007539Y016147D02*
X007539Y015753D01*
X007578Y015950D02*
X007597Y015950D01*
X007342Y015950D02*
X007323Y015950D01*
X007760Y019063D02*
X007760Y019082D01*
X007957Y019121D02*
X007563Y019121D01*
X007563Y019279D02*
X007957Y019279D01*
X007760Y019318D02*
X007760Y019337D01*
X008213Y019279D02*
X008607Y019279D01*
X008607Y019121D02*
X008213Y019121D01*
X008410Y019082D02*
X008410Y019063D01*
X008410Y019318D02*
X008410Y019337D01*
X009335Y019589D02*
X009413Y019589D01*
X009531Y019432D01*
X009610Y019668D01*
X009728Y019432D01*
X009807Y019589D01*
X009886Y019589D01*
X010185Y019589D02*
X010263Y019589D01*
X010381Y019432D01*
X010460Y019668D01*
X010578Y019432D01*
X010657Y019589D01*
X010736Y019589D01*
X013523Y019659D02*
X013917Y019659D01*
X013917Y019501D02*
X013523Y019501D01*
X013720Y019462D02*
X013720Y019443D01*
X013720Y019698D02*
X013720Y019717D01*
X014233Y019659D02*
X014627Y019659D01*
X014627Y019501D02*
X014233Y019501D01*
X014430Y019462D02*
X014430Y019443D01*
X014430Y019698D02*
X014430Y019717D01*
X011207Y016629D02*
X010813Y016629D01*
X010813Y016471D02*
X011207Y016471D01*
X011010Y016432D02*
X011010Y016413D01*
X011010Y016668D02*
X011010Y016687D01*
X019423Y014399D02*
X019817Y014399D01*
X019817Y014241D02*
X019423Y014241D01*
X019620Y014202D02*
X019620Y014183D01*
X019620Y014438D02*
X019620Y014457D01*
X020413Y014389D02*
X020807Y014389D01*
X020807Y014231D02*
X020413Y014231D01*
X020610Y014192D02*
X020610Y014173D01*
X020610Y014428D02*
X020610Y014447D01*
D136*
X010325Y014656D02*
X009695Y014656D01*
X009695Y014657D02*
X009679Y014662D01*
X009663Y014670D01*
X009649Y014680D01*
X009637Y014692D01*
X009627Y014707D01*
X009620Y014723D01*
X009616Y014740D01*
X009615Y014757D01*
X009617Y014775D01*
X009617Y015325D02*
X009615Y015343D01*
X009616Y015360D01*
X009620Y015377D01*
X009627Y015393D01*
X009637Y015408D01*
X009649Y015420D01*
X009663Y015430D01*
X009679Y015438D01*
X009695Y015443D01*
X009695Y015444D02*
X010325Y015444D01*
X010325Y015443D02*
X010341Y015438D01*
X010357Y015430D01*
X010371Y015420D01*
X010383Y015408D01*
X010393Y015393D01*
X010400Y015377D01*
X010404Y015360D01*
X010405Y015343D01*
X010403Y015325D01*
X010403Y014775D02*
X010405Y014757D01*
X010404Y014740D01*
X010400Y014723D01*
X010393Y014707D01*
X010383Y014692D01*
X010371Y014680D01*
X010357Y014670D01*
X010341Y014662D01*
X010325Y014657D01*
X010325Y005344D02*
X009695Y005344D01*
X009695Y005343D02*
X009679Y005338D01*
X009663Y005330D01*
X009649Y005320D01*
X009637Y005308D01*
X009627Y005293D01*
X009620Y005277D01*
X009616Y005260D01*
X009615Y005243D01*
X009617Y005225D01*
X009617Y004675D02*
X009615Y004657D01*
X009616Y004640D01*
X009620Y004623D01*
X009627Y004607D01*
X009637Y004592D01*
X009649Y004580D01*
X009663Y004570D01*
X009679Y004562D01*
X009695Y004557D01*
X009695Y004556D02*
X010325Y004556D01*
X010325Y004557D02*
X010341Y004562D01*
X010357Y004570D01*
X010371Y004580D01*
X010383Y004592D01*
X010393Y004607D01*
X010400Y004623D01*
X010404Y004640D01*
X010405Y004657D01*
X010403Y004675D01*
X010403Y005225D02*
X010405Y005243D01*
X010404Y005260D01*
X010400Y005277D01*
X010393Y005293D01*
X010383Y005308D01*
X010371Y005320D01*
X010357Y005330D01*
X010341Y005338D01*
X010325Y005343D01*
D137*
X010680Y006190D02*
X010680Y006410D01*
X010590Y006370D02*
X010580Y006354D01*
X010572Y006337D01*
X010568Y006319D01*
X010566Y006300D01*
X010568Y006281D01*
X010572Y006263D01*
X010580Y006246D01*
X010590Y006230D01*
X010580Y006246D01*
X010572Y006263D01*
X010568Y006281D01*
X010566Y006300D01*
X010568Y006319D01*
X010572Y006337D01*
X010580Y006354D01*
X010590Y006370D01*
X010240Y006610D02*
X009980Y006610D01*
X009540Y006410D02*
X009540Y006190D01*
X008990Y006950D02*
X007990Y006950D01*
X007973Y006952D01*
X007956Y006956D01*
X007940Y006963D01*
X007926Y006973D01*
X007913Y006986D01*
X007903Y007000D01*
X007896Y007016D01*
X007892Y007033D01*
X007890Y007050D01*
X007890Y007650D01*
X007892Y007667D01*
X007896Y007684D01*
X007903Y007700D01*
X007913Y007714D01*
X007926Y007727D01*
X007940Y007737D01*
X007956Y007744D01*
X007973Y007748D01*
X007990Y007750D01*
X008990Y007750D01*
X009007Y007748D01*
X009024Y007744D01*
X009040Y007737D01*
X009054Y007727D01*
X009067Y007714D01*
X009077Y007700D01*
X009084Y007684D01*
X009088Y007667D01*
X009090Y007650D01*
X009090Y007050D01*
X009088Y007033D01*
X009084Y007016D01*
X009077Y007000D01*
X009067Y006986D01*
X009054Y006973D01*
X009040Y006963D01*
X009024Y006956D01*
X009007Y006952D01*
X008990Y006950D01*
X009630Y007150D02*
X009630Y007510D01*
X009630Y007150D02*
X010020Y007150D01*
X010190Y007620D02*
X010190Y007880D01*
X010020Y008350D02*
X009790Y008350D01*
X009630Y008350D01*
X009630Y007990D01*
X009790Y008350D02*
X009792Y008329D01*
X009798Y008309D01*
X009806Y008291D01*
X009819Y008274D01*
X009833Y008259D01*
X009850Y008247D01*
X009869Y008239D01*
X009889Y008234D01*
X009910Y008232D01*
X009931Y008234D01*
X009951Y008240D01*
X010695Y008110D02*
X010695Y008710D01*
X010697Y008727D01*
X010701Y008744D01*
X010708Y008760D01*
X010718Y008774D01*
X010731Y008787D01*
X010745Y008797D01*
X010761Y008804D01*
X010778Y008808D01*
X010795Y008810D01*
X011795Y008810D01*
X011812Y008808D01*
X011829Y008804D01*
X011845Y008797D01*
X011859Y008787D01*
X011872Y008774D01*
X011882Y008760D01*
X011889Y008744D01*
X011893Y008727D01*
X011895Y008710D01*
X011895Y008110D01*
X011893Y008093D01*
X011889Y008076D01*
X011882Y008060D01*
X011872Y008046D01*
X011859Y008033D01*
X011845Y008023D01*
X011829Y008016D01*
X011812Y008012D01*
X011795Y008010D01*
X010795Y008010D01*
X010778Y008012D01*
X010761Y008016D01*
X010745Y008023D01*
X010731Y008033D01*
X010718Y008046D01*
X010708Y008060D01*
X010701Y008076D01*
X010697Y008093D01*
X010695Y008110D01*
X007470Y007410D02*
X007470Y007090D01*
X007250Y007090D01*
X006570Y007090D02*
X006350Y007090D01*
X006350Y007410D01*
X007170Y005130D02*
X008170Y005130D01*
X008187Y005128D01*
X008204Y005124D01*
X008220Y005117D01*
X008234Y005107D01*
X008247Y005094D01*
X008257Y005080D01*
X008264Y005064D01*
X008268Y005047D01*
X008270Y005030D01*
X008270Y004430D01*
X008268Y004413D01*
X008264Y004396D01*
X008257Y004380D01*
X008247Y004366D01*
X008234Y004353D01*
X008220Y004343D01*
X008204Y004336D01*
X008187Y004332D01*
X008170Y004330D01*
X007170Y004330D01*
X007153Y004332D01*
X007136Y004336D01*
X007120Y004343D01*
X007106Y004353D01*
X007093Y004366D01*
X007083Y004380D01*
X007076Y004396D01*
X007072Y004413D01*
X007070Y004430D01*
X007070Y005030D01*
X007072Y005047D01*
X007076Y005064D01*
X007083Y005080D01*
X007093Y005094D01*
X007106Y005107D01*
X007120Y005117D01*
X007136Y005124D01*
X007153Y005128D01*
X007170Y005130D01*
X007170Y014430D02*
X008170Y014430D01*
X008187Y014432D01*
X008204Y014436D01*
X008220Y014443D01*
X008234Y014453D01*
X008247Y014466D01*
X008257Y014480D01*
X008264Y014496D01*
X008268Y014513D01*
X008270Y014530D01*
X008270Y015130D01*
X008268Y015147D01*
X008264Y015164D01*
X008257Y015180D01*
X008247Y015194D01*
X008234Y015207D01*
X008220Y015217D01*
X008204Y015224D01*
X008187Y015228D01*
X008170Y015230D01*
X007170Y015230D01*
X007153Y015228D01*
X007136Y015224D01*
X007120Y015217D01*
X007106Y015207D01*
X007093Y015194D01*
X007083Y015180D01*
X007076Y015164D01*
X007072Y015147D01*
X007070Y015130D01*
X007070Y014530D01*
X007072Y014513D01*
X007076Y014496D01*
X007083Y014480D01*
X007093Y014466D01*
X007106Y014453D01*
X007120Y014443D01*
X007136Y014436D01*
X007153Y014432D01*
X007170Y014430D01*
X009540Y016290D02*
X009540Y016510D01*
X009980Y016710D02*
X010240Y016710D01*
X010680Y016510D02*
X010680Y016290D01*
X010590Y016330D02*
X010580Y016346D01*
X010572Y016363D01*
X010568Y016381D01*
X010566Y016400D01*
X010568Y016419D01*
X010572Y016437D01*
X010580Y016454D01*
X010590Y016470D01*
X010580Y016454D01*
X010572Y016437D01*
X010568Y016419D01*
X010566Y016400D01*
X010568Y016381D01*
X010572Y016363D01*
X010580Y016346D01*
X010590Y016330D01*
X010020Y017250D02*
X009630Y017250D01*
X009630Y017610D01*
X009630Y018090D02*
X009630Y018450D01*
X009790Y018450D01*
X010020Y018450D01*
X009951Y018340D02*
X009931Y018334D01*
X009910Y018332D01*
X009889Y018334D01*
X009869Y018339D01*
X009850Y018347D01*
X009833Y018359D01*
X009819Y018374D01*
X009806Y018391D01*
X009798Y018409D01*
X009792Y018429D01*
X009790Y018450D01*
X010190Y017980D02*
X010190Y017720D01*
X010695Y018210D02*
X010695Y018810D01*
X010697Y018827D01*
X010701Y018844D01*
X010708Y018860D01*
X010718Y018874D01*
X010731Y018887D01*
X010745Y018897D01*
X010761Y018904D01*
X010778Y018908D01*
X010795Y018910D01*
X011795Y018910D01*
X011812Y018908D01*
X011829Y018904D01*
X011845Y018897D01*
X011859Y018887D01*
X011872Y018874D01*
X011882Y018860D01*
X011889Y018844D01*
X011893Y018827D01*
X011895Y018810D01*
X011895Y018210D01*
X011893Y018193D01*
X011889Y018176D01*
X011882Y018160D01*
X011872Y018146D01*
X011859Y018133D01*
X011845Y018123D01*
X011829Y018116D01*
X011812Y018112D01*
X011795Y018110D01*
X010795Y018110D01*
X010778Y018112D01*
X010761Y018116D01*
X010745Y018123D01*
X010731Y018133D01*
X010718Y018146D01*
X010708Y018160D01*
X010701Y018176D01*
X010697Y018193D01*
X010695Y018210D01*
X009090Y017750D02*
X009090Y017150D01*
X009088Y017133D01*
X009084Y017116D01*
X009077Y017100D01*
X009067Y017086D01*
X009054Y017073D01*
X009040Y017063D01*
X009024Y017056D01*
X009007Y017052D01*
X008990Y017050D01*
X007990Y017050D01*
X007973Y017052D01*
X007956Y017056D01*
X007940Y017063D01*
X007926Y017073D01*
X007913Y017086D01*
X007903Y017100D01*
X007896Y017116D01*
X007892Y017133D01*
X007890Y017150D01*
X007890Y017750D01*
X007892Y017767D01*
X007896Y017784D01*
X007903Y017800D01*
X007913Y017814D01*
X007926Y017827D01*
X007940Y017837D01*
X007956Y017844D01*
X007973Y017848D01*
X007990Y017850D01*
X008990Y017850D01*
X009007Y017848D01*
X009024Y017844D01*
X009040Y017837D01*
X009054Y017827D01*
X009067Y017814D01*
X009077Y017800D01*
X009084Y017784D01*
X009088Y017767D01*
X009090Y017750D01*
X007470Y017510D02*
X007470Y017190D01*
X007250Y017190D01*
X006570Y017190D02*
X006350Y017190D01*
X006350Y017510D01*
M02*
