G75*
%MOIN*%
%OFA0B0*%
%FSLAX24Y24*%
%IPPOS*%
%LPD*%
%AMOC8*
5,1,8,0,0,1.08239X$1,22.5*
%
%ADD10C,0.0000*%
%ADD11C,0.0472*%
%ADD12C,0.0600*%
%ADD13C,0.0354*%
%ADD14C,0.0210*%
%ADD15C,0.0230*%
%ADD16C,0.0200*%
%ADD17C,0.0100*%
%ADD18C,0.0120*%
%ADD19C,0.0160*%
D10*
X005610Y001350D02*
X005610Y019820D01*
X005612Y019864D01*
X005618Y019907D01*
X005627Y019949D01*
X005640Y019991D01*
X005657Y020031D01*
X005677Y020070D01*
X005700Y020107D01*
X005727Y020141D01*
X005756Y020174D01*
X005789Y020203D01*
X005823Y020230D01*
X005860Y020253D01*
X005899Y020273D01*
X005939Y020290D01*
X005981Y020303D01*
X006023Y020312D01*
X006066Y020318D01*
X006110Y020320D01*
X024716Y020320D01*
X024760Y020318D01*
X024803Y020312D01*
X024845Y020303D01*
X024887Y020290D01*
X024927Y020273D01*
X024966Y020253D01*
X025003Y020230D01*
X025037Y020203D01*
X025070Y020174D01*
X025099Y020141D01*
X025126Y020107D01*
X025149Y020070D01*
X025169Y020031D01*
X025186Y019991D01*
X025199Y019949D01*
X025208Y019907D01*
X025214Y019864D01*
X025216Y019820D01*
X025216Y001350D01*
X025214Y001306D01*
X025208Y001263D01*
X025199Y001221D01*
X025186Y001179D01*
X025169Y001139D01*
X025149Y001100D01*
X025126Y001063D01*
X025099Y001029D01*
X025070Y000996D01*
X025037Y000967D01*
X025003Y000940D01*
X024966Y000917D01*
X024927Y000897D01*
X024887Y000880D01*
X024845Y000867D01*
X024803Y000858D01*
X024760Y000852D01*
X024716Y000850D01*
X006110Y000850D01*
X006066Y000852D01*
X006023Y000858D01*
X005981Y000867D01*
X005939Y000880D01*
X005899Y000897D01*
X005860Y000917D01*
X005823Y000940D01*
X005789Y000967D01*
X005756Y000996D01*
X005727Y001029D01*
X005700Y001063D01*
X005677Y001100D01*
X005657Y001139D01*
X005640Y001179D01*
X005627Y001221D01*
X005618Y001263D01*
X005612Y001306D01*
X005610Y001350D01*
X006075Y001698D02*
X006077Y001739D01*
X006083Y001780D01*
X006093Y001820D01*
X006106Y001859D01*
X006123Y001896D01*
X006144Y001932D01*
X006168Y001966D01*
X006195Y001997D01*
X006224Y002025D01*
X006257Y002051D01*
X006291Y002073D01*
X006328Y002092D01*
X006366Y002107D01*
X006406Y002119D01*
X006446Y002127D01*
X006487Y002131D01*
X006529Y002131D01*
X006570Y002127D01*
X006610Y002119D01*
X006650Y002107D01*
X006688Y002092D01*
X006724Y002073D01*
X006759Y002051D01*
X006792Y002025D01*
X006821Y001997D01*
X006848Y001966D01*
X006872Y001932D01*
X006893Y001896D01*
X006910Y001859D01*
X006923Y001820D01*
X006933Y001780D01*
X006939Y001739D01*
X006941Y001698D01*
X006939Y001657D01*
X006933Y001616D01*
X006923Y001576D01*
X006910Y001537D01*
X006893Y001500D01*
X006872Y001464D01*
X006848Y001430D01*
X006821Y001399D01*
X006792Y001371D01*
X006759Y001345D01*
X006725Y001323D01*
X006688Y001304D01*
X006650Y001289D01*
X006610Y001277D01*
X006570Y001269D01*
X006529Y001265D01*
X006487Y001265D01*
X006446Y001269D01*
X006406Y001277D01*
X006366Y001289D01*
X006328Y001304D01*
X006292Y001323D01*
X006257Y001345D01*
X006224Y001371D01*
X006195Y001399D01*
X006168Y001430D01*
X006144Y001464D01*
X006123Y001500D01*
X006106Y001537D01*
X006093Y001576D01*
X006083Y001616D01*
X006077Y001657D01*
X006075Y001698D01*
X006075Y009372D02*
X006077Y009413D01*
X006083Y009454D01*
X006093Y009494D01*
X006106Y009533D01*
X006123Y009570D01*
X006144Y009606D01*
X006168Y009640D01*
X006195Y009671D01*
X006224Y009699D01*
X006257Y009725D01*
X006291Y009747D01*
X006328Y009766D01*
X006366Y009781D01*
X006406Y009793D01*
X006446Y009801D01*
X006487Y009805D01*
X006529Y009805D01*
X006570Y009801D01*
X006610Y009793D01*
X006650Y009781D01*
X006688Y009766D01*
X006724Y009747D01*
X006759Y009725D01*
X006792Y009699D01*
X006821Y009671D01*
X006848Y009640D01*
X006872Y009606D01*
X006893Y009570D01*
X006910Y009533D01*
X006923Y009494D01*
X006933Y009454D01*
X006939Y009413D01*
X006941Y009372D01*
X006939Y009331D01*
X006933Y009290D01*
X006923Y009250D01*
X006910Y009211D01*
X006893Y009174D01*
X006872Y009138D01*
X006848Y009104D01*
X006821Y009073D01*
X006792Y009045D01*
X006759Y009019D01*
X006725Y008997D01*
X006688Y008978D01*
X006650Y008963D01*
X006610Y008951D01*
X006570Y008943D01*
X006529Y008939D01*
X006487Y008939D01*
X006446Y008943D01*
X006406Y008951D01*
X006366Y008963D01*
X006328Y008978D01*
X006292Y008997D01*
X006257Y009019D01*
X006224Y009045D01*
X006195Y009073D01*
X006168Y009104D01*
X006144Y009138D01*
X006123Y009174D01*
X006106Y009211D01*
X006093Y009250D01*
X006083Y009290D01*
X006077Y009331D01*
X006075Y009372D01*
X006075Y011798D02*
X006077Y011839D01*
X006083Y011880D01*
X006093Y011920D01*
X006106Y011959D01*
X006123Y011996D01*
X006144Y012032D01*
X006168Y012066D01*
X006195Y012097D01*
X006224Y012125D01*
X006257Y012151D01*
X006291Y012173D01*
X006328Y012192D01*
X006366Y012207D01*
X006406Y012219D01*
X006446Y012227D01*
X006487Y012231D01*
X006529Y012231D01*
X006570Y012227D01*
X006610Y012219D01*
X006650Y012207D01*
X006688Y012192D01*
X006724Y012173D01*
X006759Y012151D01*
X006792Y012125D01*
X006821Y012097D01*
X006848Y012066D01*
X006872Y012032D01*
X006893Y011996D01*
X006910Y011959D01*
X006923Y011920D01*
X006933Y011880D01*
X006939Y011839D01*
X006941Y011798D01*
X006939Y011757D01*
X006933Y011716D01*
X006923Y011676D01*
X006910Y011637D01*
X006893Y011600D01*
X006872Y011564D01*
X006848Y011530D01*
X006821Y011499D01*
X006792Y011471D01*
X006759Y011445D01*
X006725Y011423D01*
X006688Y011404D01*
X006650Y011389D01*
X006610Y011377D01*
X006570Y011369D01*
X006529Y011365D01*
X006487Y011365D01*
X006446Y011369D01*
X006406Y011377D01*
X006366Y011389D01*
X006328Y011404D01*
X006292Y011423D01*
X006257Y011445D01*
X006224Y011471D01*
X006195Y011499D01*
X006168Y011530D01*
X006144Y011564D01*
X006123Y011600D01*
X006106Y011637D01*
X006093Y011676D01*
X006083Y011716D01*
X006077Y011757D01*
X006075Y011798D01*
X006075Y019472D02*
X006077Y019513D01*
X006083Y019554D01*
X006093Y019594D01*
X006106Y019633D01*
X006123Y019670D01*
X006144Y019706D01*
X006168Y019740D01*
X006195Y019771D01*
X006224Y019799D01*
X006257Y019825D01*
X006291Y019847D01*
X006328Y019866D01*
X006366Y019881D01*
X006406Y019893D01*
X006446Y019901D01*
X006487Y019905D01*
X006529Y019905D01*
X006570Y019901D01*
X006610Y019893D01*
X006650Y019881D01*
X006688Y019866D01*
X006724Y019847D01*
X006759Y019825D01*
X006792Y019799D01*
X006821Y019771D01*
X006848Y019740D01*
X006872Y019706D01*
X006893Y019670D01*
X006910Y019633D01*
X006923Y019594D01*
X006933Y019554D01*
X006939Y019513D01*
X006941Y019472D01*
X006939Y019431D01*
X006933Y019390D01*
X006923Y019350D01*
X006910Y019311D01*
X006893Y019274D01*
X006872Y019238D01*
X006848Y019204D01*
X006821Y019173D01*
X006792Y019145D01*
X006759Y019119D01*
X006725Y019097D01*
X006688Y019078D01*
X006650Y019063D01*
X006610Y019051D01*
X006570Y019043D01*
X006529Y019039D01*
X006487Y019039D01*
X006446Y019043D01*
X006406Y019051D01*
X006366Y019063D01*
X006328Y019078D01*
X006292Y019097D01*
X006257Y019119D01*
X006224Y019145D01*
X006195Y019173D01*
X006168Y019204D01*
X006144Y019238D01*
X006123Y019274D01*
X006106Y019311D01*
X006093Y019350D01*
X006083Y019390D01*
X006077Y019431D01*
X006075Y019472D01*
X023885Y019472D02*
X023887Y019513D01*
X023893Y019554D01*
X023903Y019594D01*
X023916Y019633D01*
X023933Y019670D01*
X023954Y019706D01*
X023978Y019740D01*
X024005Y019771D01*
X024034Y019799D01*
X024067Y019825D01*
X024101Y019847D01*
X024138Y019866D01*
X024176Y019881D01*
X024216Y019893D01*
X024256Y019901D01*
X024297Y019905D01*
X024339Y019905D01*
X024380Y019901D01*
X024420Y019893D01*
X024460Y019881D01*
X024498Y019866D01*
X024534Y019847D01*
X024569Y019825D01*
X024602Y019799D01*
X024631Y019771D01*
X024658Y019740D01*
X024682Y019706D01*
X024703Y019670D01*
X024720Y019633D01*
X024733Y019594D01*
X024743Y019554D01*
X024749Y019513D01*
X024751Y019472D01*
X024749Y019431D01*
X024743Y019390D01*
X024733Y019350D01*
X024720Y019311D01*
X024703Y019274D01*
X024682Y019238D01*
X024658Y019204D01*
X024631Y019173D01*
X024602Y019145D01*
X024569Y019119D01*
X024535Y019097D01*
X024498Y019078D01*
X024460Y019063D01*
X024420Y019051D01*
X024380Y019043D01*
X024339Y019039D01*
X024297Y019039D01*
X024256Y019043D01*
X024216Y019051D01*
X024176Y019063D01*
X024138Y019078D01*
X024102Y019097D01*
X024067Y019119D01*
X024034Y019145D01*
X024005Y019173D01*
X023978Y019204D01*
X023954Y019238D01*
X023933Y019274D01*
X023916Y019311D01*
X023903Y019350D01*
X023893Y019390D01*
X023887Y019431D01*
X023885Y019472D01*
X023885Y011798D02*
X023887Y011839D01*
X023893Y011880D01*
X023903Y011920D01*
X023916Y011959D01*
X023933Y011996D01*
X023954Y012032D01*
X023978Y012066D01*
X024005Y012097D01*
X024034Y012125D01*
X024067Y012151D01*
X024101Y012173D01*
X024138Y012192D01*
X024176Y012207D01*
X024216Y012219D01*
X024256Y012227D01*
X024297Y012231D01*
X024339Y012231D01*
X024380Y012227D01*
X024420Y012219D01*
X024460Y012207D01*
X024498Y012192D01*
X024534Y012173D01*
X024569Y012151D01*
X024602Y012125D01*
X024631Y012097D01*
X024658Y012066D01*
X024682Y012032D01*
X024703Y011996D01*
X024720Y011959D01*
X024733Y011920D01*
X024743Y011880D01*
X024749Y011839D01*
X024751Y011798D01*
X024749Y011757D01*
X024743Y011716D01*
X024733Y011676D01*
X024720Y011637D01*
X024703Y011600D01*
X024682Y011564D01*
X024658Y011530D01*
X024631Y011499D01*
X024602Y011471D01*
X024569Y011445D01*
X024535Y011423D01*
X024498Y011404D01*
X024460Y011389D01*
X024420Y011377D01*
X024380Y011369D01*
X024339Y011365D01*
X024297Y011365D01*
X024256Y011369D01*
X024216Y011377D01*
X024176Y011389D01*
X024138Y011404D01*
X024102Y011423D01*
X024067Y011445D01*
X024034Y011471D01*
X024005Y011499D01*
X023978Y011530D01*
X023954Y011564D01*
X023933Y011600D01*
X023916Y011637D01*
X023903Y011676D01*
X023893Y011716D01*
X023887Y011757D01*
X023885Y011798D01*
X023885Y009372D02*
X023887Y009413D01*
X023893Y009454D01*
X023903Y009494D01*
X023916Y009533D01*
X023933Y009570D01*
X023954Y009606D01*
X023978Y009640D01*
X024005Y009671D01*
X024034Y009699D01*
X024067Y009725D01*
X024101Y009747D01*
X024138Y009766D01*
X024176Y009781D01*
X024216Y009793D01*
X024256Y009801D01*
X024297Y009805D01*
X024339Y009805D01*
X024380Y009801D01*
X024420Y009793D01*
X024460Y009781D01*
X024498Y009766D01*
X024534Y009747D01*
X024569Y009725D01*
X024602Y009699D01*
X024631Y009671D01*
X024658Y009640D01*
X024682Y009606D01*
X024703Y009570D01*
X024720Y009533D01*
X024733Y009494D01*
X024743Y009454D01*
X024749Y009413D01*
X024751Y009372D01*
X024749Y009331D01*
X024743Y009290D01*
X024733Y009250D01*
X024720Y009211D01*
X024703Y009174D01*
X024682Y009138D01*
X024658Y009104D01*
X024631Y009073D01*
X024602Y009045D01*
X024569Y009019D01*
X024535Y008997D01*
X024498Y008978D01*
X024460Y008963D01*
X024420Y008951D01*
X024380Y008943D01*
X024339Y008939D01*
X024297Y008939D01*
X024256Y008943D01*
X024216Y008951D01*
X024176Y008963D01*
X024138Y008978D01*
X024102Y008997D01*
X024067Y009019D01*
X024034Y009045D01*
X024005Y009073D01*
X023978Y009104D01*
X023954Y009138D01*
X023933Y009174D01*
X023916Y009211D01*
X023903Y009250D01*
X023893Y009290D01*
X023887Y009331D01*
X023885Y009372D01*
X023885Y001698D02*
X023887Y001739D01*
X023893Y001780D01*
X023903Y001820D01*
X023916Y001859D01*
X023933Y001896D01*
X023954Y001932D01*
X023978Y001966D01*
X024005Y001997D01*
X024034Y002025D01*
X024067Y002051D01*
X024101Y002073D01*
X024138Y002092D01*
X024176Y002107D01*
X024216Y002119D01*
X024256Y002127D01*
X024297Y002131D01*
X024339Y002131D01*
X024380Y002127D01*
X024420Y002119D01*
X024460Y002107D01*
X024498Y002092D01*
X024534Y002073D01*
X024569Y002051D01*
X024602Y002025D01*
X024631Y001997D01*
X024658Y001966D01*
X024682Y001932D01*
X024703Y001896D01*
X024720Y001859D01*
X024733Y001820D01*
X024743Y001780D01*
X024749Y001739D01*
X024751Y001698D01*
X024749Y001657D01*
X024743Y001616D01*
X024733Y001576D01*
X024720Y001537D01*
X024703Y001500D01*
X024682Y001464D01*
X024658Y001430D01*
X024631Y001399D01*
X024602Y001371D01*
X024569Y001345D01*
X024535Y001323D01*
X024498Y001304D01*
X024460Y001289D01*
X024420Y001277D01*
X024380Y001269D01*
X024339Y001265D01*
X024297Y001265D01*
X024256Y001269D01*
X024216Y001277D01*
X024176Y001289D01*
X024138Y001304D01*
X024102Y001323D01*
X024067Y001345D01*
X024034Y001371D01*
X024005Y001399D01*
X023978Y001430D01*
X023954Y001464D01*
X023933Y001500D01*
X023916Y001537D01*
X023903Y001576D01*
X023893Y001616D01*
X023887Y001657D01*
X023885Y001698D01*
D11*
X024520Y008190D03*
X024520Y018290D03*
D12*
X021860Y012650D03*
X020860Y012650D03*
X019860Y012650D03*
X019860Y011650D03*
X020860Y011650D03*
X021860Y011650D03*
X022960Y011650D03*
X018810Y011650D03*
X017810Y011650D03*
X016810Y011650D03*
X015810Y011650D03*
X014810Y011650D03*
X013810Y011650D03*
X012810Y011650D03*
X011810Y011650D03*
X010810Y011650D03*
X009810Y011650D03*
X009810Y012650D03*
X010810Y012650D03*
X011810Y012650D03*
X012810Y012650D03*
X013810Y012650D03*
X014810Y012650D03*
X015810Y012650D03*
X016810Y012650D03*
X017810Y012650D03*
X018810Y012650D03*
X014510Y014150D03*
X013510Y014150D03*
X012510Y014150D03*
X012510Y015150D03*
X012520Y016150D03*
X012520Y017150D03*
X012520Y018150D03*
X013520Y018150D03*
X014520Y018150D03*
X014520Y017150D03*
X013520Y017150D03*
X013520Y016150D03*
X014520Y016150D03*
X014510Y015150D03*
X013510Y015150D03*
X008560Y012650D03*
X008560Y011650D03*
X012520Y008050D03*
X012520Y007050D03*
X012520Y006050D03*
X012510Y005050D03*
X012510Y004050D03*
X013510Y004050D03*
X014510Y004050D03*
X014510Y005050D03*
X013510Y005050D03*
X013520Y006050D03*
X014520Y006050D03*
X014520Y007050D03*
X013520Y007050D03*
X013520Y008050D03*
X014520Y008050D03*
X014810Y002550D03*
X013810Y002550D03*
X012810Y002550D03*
X011810Y002550D03*
X010810Y002550D03*
X009810Y002550D03*
X009810Y001550D03*
X010810Y001550D03*
X011810Y001550D03*
X012810Y001550D03*
X013810Y001550D03*
X014810Y001550D03*
X015810Y001550D03*
X016810Y001550D03*
X016810Y002550D03*
X015810Y002550D03*
X017810Y002550D03*
X018810Y002550D03*
X018810Y001550D03*
X017810Y001550D03*
X019860Y001550D03*
X019860Y002550D03*
X020860Y002550D03*
X021860Y002550D03*
X021860Y001550D03*
X020860Y001550D03*
X022960Y001550D03*
X008560Y001550D03*
X008560Y002550D03*
D13*
X006310Y002950D03*
X007160Y008450D03*
X011760Y009450D03*
X006310Y013050D03*
X007160Y018550D03*
X011760Y019550D03*
D14*
X011510Y019150D03*
X011010Y017350D03*
X011460Y016950D03*
X011460Y016200D03*
X009310Y015550D03*
X008560Y016150D03*
X008410Y016750D03*
X006460Y016200D03*
X007310Y019850D03*
X014040Y018800D03*
X015010Y017650D03*
X016300Y016970D03*
X016140Y016460D03*
X017610Y016650D03*
X017760Y017100D03*
X017810Y017500D03*
X017760Y018550D03*
X018460Y018450D03*
X019760Y017400D03*
X020160Y017850D03*
X020060Y018200D03*
X021260Y018550D03*
X022360Y019750D03*
X023110Y017950D03*
X021910Y017050D03*
X021910Y016550D03*
X021910Y016000D03*
X021910Y015450D03*
X021910Y014950D03*
X022660Y014150D03*
X021960Y013800D03*
X020160Y014550D03*
X019410Y015250D03*
X019810Y015550D03*
X018860Y015950D03*
X018910Y016450D03*
X018060Y016250D03*
X017810Y015800D03*
X017510Y015400D03*
X016730Y014880D03*
X016670Y014210D03*
X017320Y013940D03*
X017610Y013600D03*
X016110Y013500D03*
X016360Y009900D03*
X017260Y009850D03*
X017760Y008450D03*
X018460Y008350D03*
X017810Y007400D03*
X017760Y007000D03*
X017610Y006550D03*
X018060Y006150D03*
X017810Y005700D03*
X017510Y005300D03*
X016730Y004780D03*
X016670Y004110D03*
X017320Y003840D03*
X017610Y003500D03*
X016110Y003400D03*
X018860Y005850D03*
X018910Y006350D03*
X019810Y005450D03*
X019410Y005150D03*
X020160Y004450D03*
X021910Y004850D03*
X021910Y005350D03*
X021910Y005900D03*
X021910Y006450D03*
X021910Y006950D03*
X023110Y007850D03*
X021260Y008450D03*
X020060Y008100D03*
X020160Y007750D03*
X019760Y007300D03*
X019710Y009550D03*
X022360Y009650D03*
X024610Y006450D03*
X023960Y006000D03*
X024610Y005100D03*
X022660Y004050D03*
X021960Y003700D03*
X016300Y006870D03*
X016140Y006360D03*
X015010Y007550D03*
X014040Y008700D03*
X015860Y008850D03*
X011510Y009050D03*
X011010Y007250D03*
X011460Y006850D03*
X011460Y006100D03*
X009310Y005450D03*
X008560Y006050D03*
X008410Y006650D03*
X006460Y006100D03*
X007310Y009750D03*
X010690Y013600D03*
X015860Y018950D03*
X016360Y020000D03*
X017260Y019950D03*
X019710Y019650D03*
X023960Y016100D03*
X024610Y016550D03*
X024610Y015200D03*
X010690Y003500D03*
D15*
X021260Y009100D03*
X021260Y019200D03*
D16*
X017110Y019200D01*
X015110Y017200D01*
X015110Y016800D01*
X014520Y016150D01*
X017110Y009100D02*
X015110Y007100D01*
X015110Y006700D01*
X014520Y006050D01*
X017110Y009100D02*
X021260Y009100D01*
D17*
X021460Y009078D02*
X020610Y009078D01*
X020610Y009000D02*
X021460Y009000D01*
X021460Y009850D01*
X020610Y009850D01*
X020610Y009000D01*
X020610Y009177D02*
X021460Y009177D01*
X021460Y009275D02*
X020610Y009275D01*
X020610Y009374D02*
X021460Y009374D01*
X021460Y009472D02*
X020610Y009472D01*
X020610Y009571D02*
X021460Y009571D01*
X021460Y009669D02*
X020610Y009669D01*
X020610Y009768D02*
X021460Y009768D01*
X021740Y009768D02*
X022610Y009768D01*
X022610Y009866D02*
X021740Y009866D01*
X021740Y009906D02*
X021697Y010009D01*
X021666Y010040D01*
X022610Y010040D01*
X022610Y006832D01*
X022225Y006447D01*
X022225Y006513D01*
X022177Y006628D01*
X022106Y006700D01*
X022177Y006772D01*
X022225Y006887D01*
X022225Y007013D01*
X022177Y007128D01*
X022089Y007217D01*
X021973Y007265D01*
X021847Y007265D01*
X021732Y007217D01*
X021643Y007128D01*
X021595Y007013D01*
X021595Y006887D01*
X021643Y006772D01*
X021715Y006700D01*
X021643Y006628D01*
X021595Y006513D01*
X021595Y006387D01*
X021643Y006272D01*
X021732Y006183D01*
X021751Y006175D01*
X021732Y006167D01*
X021643Y006078D01*
X021598Y005970D01*
X021131Y005503D01*
X021090Y005404D01*
X021090Y003007D01*
X020962Y003060D01*
X020759Y003060D01*
X020571Y002982D01*
X020428Y002839D01*
X020360Y002676D01*
X020360Y002676D01*
X020292Y002839D01*
X020149Y002982D01*
X019962Y003060D01*
X019759Y003060D01*
X019571Y002982D01*
X019428Y002839D01*
X019350Y002651D01*
X019350Y002449D01*
X019403Y002320D01*
X019267Y002320D01*
X019320Y002449D01*
X019320Y002651D01*
X019242Y002839D01*
X019099Y002982D01*
X018912Y003060D01*
X018709Y003060D01*
X018521Y002982D01*
X018378Y002839D01*
X018310Y002676D01*
X018310Y002676D01*
X018242Y002839D01*
X018099Y002982D01*
X017912Y003060D01*
X017709Y003060D01*
X017521Y002982D01*
X017378Y002839D01*
X017310Y002676D01*
X017310Y002676D01*
X017242Y002839D01*
X017099Y002982D01*
X016912Y003060D01*
X016709Y003060D01*
X016680Y003048D01*
X016680Y003795D01*
X016733Y003795D01*
X016849Y003843D01*
X016937Y003932D01*
X016978Y004030D01*
X017065Y004030D01*
X017053Y004018D01*
X017005Y003903D01*
X017005Y003777D01*
X017053Y003662D01*
X017142Y003573D01*
X017257Y003525D01*
X017295Y003525D01*
X017295Y003437D01*
X017343Y003322D01*
X017432Y003233D01*
X017547Y003185D01*
X017673Y003185D01*
X017789Y003233D01*
X017877Y003322D01*
X017925Y003437D01*
X017925Y003563D01*
X017877Y003678D01*
X017789Y003767D01*
X017673Y003815D01*
X017635Y003815D01*
X017635Y003903D01*
X017587Y004018D01*
X017576Y004030D01*
X018064Y004030D01*
X018163Y004071D01*
X018239Y004147D01*
X019120Y005028D01*
X019143Y004972D01*
X019232Y004883D01*
X019347Y004835D01*
X019473Y004835D01*
X019589Y004883D01*
X019677Y004972D01*
X019725Y005087D01*
X019725Y005144D01*
X019747Y005135D01*
X019873Y005135D01*
X019989Y005183D01*
X020077Y005272D01*
X020122Y005380D01*
X020389Y005647D01*
X020430Y005746D01*
X020430Y007579D01*
X020475Y007687D01*
X020475Y007813D01*
X020427Y007928D01*
X020358Y007997D01*
X020375Y008037D01*
X020375Y008163D01*
X020327Y008278D01*
X020239Y008367D01*
X020123Y008415D01*
X019997Y008415D01*
X019882Y008367D01*
X019793Y008278D01*
X019745Y008163D01*
X019745Y008037D01*
X019793Y007922D01*
X019862Y007853D01*
X019845Y007813D01*
X019845Y007687D01*
X019886Y007589D01*
X019823Y007615D01*
X019697Y007615D01*
X019589Y007570D01*
X019306Y007570D01*
X019207Y007529D01*
X018437Y006759D01*
X018361Y006683D01*
X018320Y006584D01*
X018320Y005409D01*
X017995Y005070D01*
X017726Y005070D01*
X017777Y005122D01*
X017825Y005237D01*
X018155Y005237D01*
X018061Y005138D02*
X017784Y005138D01*
X017825Y005237D02*
X017825Y005363D01*
X017816Y005385D01*
X017873Y005385D01*
X017989Y005433D01*
X018077Y005522D01*
X018125Y005637D01*
X018125Y005763D01*
X018077Y005878D01*
X017989Y005967D01*
X017873Y006015D01*
X017849Y006015D01*
X018231Y006400D01*
X018269Y006437D01*
X018269Y006437D01*
X018269Y006438D01*
X018290Y006487D01*
X018310Y006536D01*
X018310Y006537D01*
X018310Y006590D01*
X018310Y007132D01*
X018313Y007177D01*
X018310Y007185D01*
X018310Y007194D01*
X018293Y007236D01*
X018278Y007279D01*
X018272Y007285D01*
X018269Y007293D01*
X018237Y007325D01*
X018125Y007451D01*
X018125Y007463D01*
X018077Y007578D01*
X017989Y007667D01*
X017873Y007715D01*
X017747Y007715D01*
X017632Y007667D01*
X017553Y007589D01*
X017313Y007829D01*
X017214Y007870D01*
X016406Y007870D01*
X016307Y007829D01*
X016231Y007753D01*
X015955Y007476D01*
X015952Y007475D01*
X015917Y007439D01*
X015881Y007403D01*
X015880Y007400D01*
X015420Y006917D01*
X015420Y006972D01*
X017239Y008790D01*
X020424Y008790D01*
X020451Y008763D01*
X020554Y008720D01*
X021089Y008720D01*
X021082Y008717D01*
X020993Y008628D01*
X020945Y008513D01*
X020945Y008387D01*
X020993Y008272D01*
X021082Y008183D01*
X021197Y008135D01*
X021323Y008135D01*
X021439Y008183D01*
X021527Y008272D01*
X021575Y008387D01*
X021575Y008513D01*
X021527Y008628D01*
X021439Y008717D01*
X021431Y008720D01*
X021516Y008720D01*
X021619Y008763D01*
X021697Y008841D01*
X021740Y008944D01*
X021740Y009906D01*
X021716Y009965D02*
X022610Y009965D01*
X022610Y009669D02*
X021740Y009669D01*
X021740Y009571D02*
X022610Y009571D01*
X022610Y009472D02*
X021740Y009472D01*
X021740Y009374D02*
X022610Y009374D01*
X022610Y009275D02*
X021740Y009275D01*
X021740Y009177D02*
X022610Y009177D01*
X022610Y009078D02*
X021740Y009078D01*
X021740Y008980D02*
X022610Y008980D01*
X022610Y008881D02*
X021714Y008881D01*
X021639Y008783D02*
X022610Y008783D01*
X022610Y008684D02*
X021471Y008684D01*
X021545Y008586D02*
X022610Y008586D01*
X022610Y008487D02*
X021575Y008487D01*
X021575Y008389D02*
X022610Y008389D01*
X022610Y008290D02*
X021535Y008290D01*
X021448Y008192D02*
X022610Y008192D01*
X022610Y008093D02*
X020375Y008093D01*
X020361Y007995D02*
X022610Y007995D01*
X022610Y007896D02*
X020440Y007896D01*
X020475Y007798D02*
X022610Y007798D01*
X022610Y007699D02*
X020475Y007699D01*
X020439Y007601D02*
X022610Y007601D01*
X022610Y007502D02*
X020430Y007502D01*
X020430Y007404D02*
X022610Y007404D01*
X022610Y007305D02*
X020430Y007305D01*
X020430Y007207D02*
X021722Y007207D01*
X021635Y007108D02*
X020430Y007108D01*
X020430Y007010D02*
X021595Y007010D01*
X021595Y006911D02*
X020430Y006911D01*
X020430Y006813D02*
X021626Y006813D01*
X021700Y006714D02*
X020430Y006714D01*
X020430Y006616D02*
X021638Y006616D01*
X021597Y006517D02*
X020430Y006517D01*
X020430Y006419D02*
X021595Y006419D01*
X021623Y006320D02*
X020430Y006320D01*
X020430Y006222D02*
X021693Y006222D01*
X021688Y006123D02*
X020430Y006123D01*
X020430Y006025D02*
X021621Y006025D01*
X021555Y005926D02*
X020430Y005926D01*
X020430Y005828D02*
X021456Y005828D01*
X021358Y005729D02*
X020423Y005729D01*
X020373Y005631D02*
X021259Y005631D01*
X021161Y005532D02*
X020274Y005532D01*
X020176Y005434D02*
X021103Y005434D01*
X021090Y005335D02*
X020104Y005335D01*
X020043Y005237D02*
X021090Y005237D01*
X021090Y005138D02*
X019881Y005138D01*
X019739Y005138D02*
X019725Y005138D01*
X019705Y005040D02*
X021090Y005040D01*
X021090Y004941D02*
X019647Y004941D01*
X019492Y004843D02*
X021090Y004843D01*
X021090Y004744D02*
X018836Y004744D01*
X018738Y004646D02*
X021090Y004646D01*
X021090Y004547D02*
X018639Y004547D01*
X018541Y004449D02*
X021090Y004449D01*
X021090Y004350D02*
X018442Y004350D01*
X018344Y004252D02*
X021090Y004252D01*
X021090Y004153D02*
X018245Y004153D01*
X018124Y004055D02*
X021090Y004055D01*
X021090Y003956D02*
X017613Y003956D01*
X017635Y003858D02*
X021090Y003858D01*
X021090Y003759D02*
X017796Y003759D01*
X017884Y003661D02*
X021090Y003661D01*
X021090Y003562D02*
X017925Y003562D01*
X017925Y003464D02*
X021090Y003464D01*
X021090Y003365D02*
X017895Y003365D01*
X017823Y003267D02*
X021090Y003267D01*
X021090Y003168D02*
X016680Y003168D01*
X016680Y003070D02*
X021090Y003070D01*
X020560Y002971D02*
X020160Y002971D01*
X020258Y002873D02*
X020462Y002873D01*
X020401Y002774D02*
X020319Y002774D01*
X019560Y002971D02*
X019110Y002971D01*
X019208Y002873D02*
X019462Y002873D01*
X019401Y002774D02*
X019269Y002774D01*
X019310Y002676D02*
X019360Y002676D01*
X019350Y002577D02*
X019320Y002577D01*
X019320Y002479D02*
X019350Y002479D01*
X019378Y002380D02*
X019292Y002380D01*
X018510Y002971D02*
X018110Y002971D01*
X018208Y002873D02*
X018412Y002873D01*
X018351Y002774D02*
X018269Y002774D01*
X017510Y002971D02*
X017110Y002971D01*
X017208Y002873D02*
X017412Y002873D01*
X017351Y002774D02*
X017269Y002774D01*
X017398Y003267D02*
X016680Y003267D01*
X016680Y003365D02*
X017325Y003365D01*
X017295Y003464D02*
X016680Y003464D01*
X016680Y003562D02*
X017167Y003562D01*
X017054Y003661D02*
X016680Y003661D01*
X016680Y003759D02*
X017012Y003759D01*
X017005Y003858D02*
X016864Y003858D01*
X016947Y003956D02*
X017027Y003956D01*
X017825Y005335D02*
X018250Y005335D01*
X018320Y005434D02*
X017990Y005434D01*
X018082Y005532D02*
X018320Y005532D01*
X018320Y005631D02*
X018122Y005631D01*
X018125Y005729D02*
X018320Y005729D01*
X018320Y005828D02*
X018098Y005828D01*
X018029Y005926D02*
X018320Y005926D01*
X018320Y006025D02*
X017859Y006025D01*
X017957Y006123D02*
X018320Y006123D01*
X018320Y006222D02*
X018055Y006222D01*
X018153Y006320D02*
X018320Y006320D01*
X018320Y006419D02*
X018251Y006419D01*
X018302Y006517D02*
X018320Y006517D01*
X018310Y006537D02*
X018310Y006537D01*
X018310Y006616D02*
X018333Y006616D01*
X018310Y006714D02*
X018393Y006714D01*
X018437Y006759D02*
X018437Y006759D01*
X018491Y006813D02*
X018310Y006813D01*
X018310Y006911D02*
X018590Y006911D01*
X018688Y007010D02*
X018310Y007010D01*
X018310Y007108D02*
X018787Y007108D01*
X018885Y007207D02*
X018305Y007207D01*
X018256Y007305D02*
X018984Y007305D01*
X019082Y007404D02*
X018167Y007404D01*
X018109Y007502D02*
X019181Y007502D01*
X019664Y007601D02*
X018055Y007601D01*
X017910Y007699D02*
X019845Y007699D01*
X019857Y007601D02*
X019881Y007601D01*
X019845Y007798D02*
X017344Y007798D01*
X017442Y007699D02*
X017710Y007699D01*
X017566Y007601D02*
X017541Y007601D01*
X017697Y008135D02*
X017582Y008183D01*
X017493Y008272D01*
X017445Y008387D01*
X017445Y008513D01*
X017493Y008628D01*
X017582Y008717D01*
X017697Y008765D01*
X017823Y008765D01*
X017939Y008717D01*
X018027Y008628D01*
X018075Y008513D01*
X018075Y008387D01*
X018027Y008272D01*
X017939Y008183D01*
X017823Y008135D01*
X017697Y008135D01*
X017573Y008192D02*
X016640Y008192D01*
X016542Y008093D02*
X019745Y008093D01*
X019763Y007995D02*
X016443Y007995D01*
X016345Y007896D02*
X019818Y007896D01*
X019757Y008192D02*
X017948Y008192D01*
X018035Y008290D02*
X019805Y008290D01*
X019935Y008389D02*
X018075Y008389D01*
X018075Y008487D02*
X020945Y008487D01*
X020945Y008389D02*
X020186Y008389D01*
X020315Y008290D02*
X020985Y008290D01*
X021073Y008192D02*
X020363Y008192D01*
X020431Y008783D02*
X017231Y008783D01*
X017133Y008684D02*
X017549Y008684D01*
X017475Y008586D02*
X017034Y008586D01*
X016936Y008487D02*
X017445Y008487D01*
X017445Y008389D02*
X016837Y008389D01*
X016739Y008290D02*
X017485Y008290D01*
X017971Y008684D02*
X021049Y008684D01*
X020975Y008586D02*
X018045Y008586D01*
X017048Y009410D02*
X016934Y009363D01*
X015284Y007712D01*
X015277Y007728D01*
X015189Y007817D01*
X015073Y007865D01*
X014995Y007865D01*
X015030Y007949D01*
X015030Y008151D01*
X014952Y008339D01*
X014809Y008482D01*
X014622Y008560D01*
X014419Y008560D01*
X014294Y008508D01*
X014307Y008522D01*
X014355Y008637D01*
X014355Y008763D01*
X014307Y008878D01*
X014219Y008967D01*
X014103Y009015D01*
X013977Y009015D01*
X013862Y008967D01*
X013785Y008890D01*
X012052Y008890D01*
X011946Y008846D01*
X011192Y008092D01*
X011180Y008104D01*
X011070Y008150D01*
X010050Y008150D01*
X009940Y008104D01*
X009856Y008020D01*
X009810Y007910D01*
X009810Y007540D01*
X009649Y007540D01*
X009631Y007545D01*
X009592Y007540D01*
X009552Y007540D01*
X009535Y007533D01*
X009517Y007531D01*
X009482Y007511D01*
X009446Y007496D01*
X009433Y007483D01*
X009417Y007474D01*
X009392Y007442D01*
X009364Y007414D01*
X009357Y007397D01*
X009042Y006992D01*
X009014Y006964D01*
X009007Y006947D01*
X008996Y006933D01*
X008985Y006894D01*
X008970Y006858D01*
X008970Y006839D01*
X008965Y006821D01*
X008970Y006782D01*
X008970Y006070D01*
X007465Y004555D01*
X007424Y004514D01*
X007424Y004513D01*
X007402Y004461D01*
X007380Y004408D01*
X007380Y004407D01*
X007380Y004407D01*
X007380Y004349D01*
X007380Y002382D01*
X007424Y002276D01*
X008050Y001650D01*
X008050Y001449D01*
X008128Y001261D01*
X008271Y001118D01*
X008410Y001060D01*
X006648Y001060D01*
X006872Y001153D01*
X007053Y001334D01*
X007151Y001570D01*
X007151Y001826D01*
X007053Y002062D01*
X006872Y002243D01*
X006636Y002341D01*
X006380Y002341D01*
X006144Y002243D01*
X005963Y002062D01*
X005865Y001826D01*
X005865Y001570D01*
X005963Y001334D01*
X006144Y001153D01*
X006368Y001060D01*
X006110Y001060D01*
X006054Y001066D01*
X005949Y001109D01*
X005869Y001189D01*
X005826Y001293D01*
X005820Y001350D01*
X005820Y009945D01*
X005860Y009973D01*
X005939Y010010D01*
X006023Y010032D01*
X006110Y010040D01*
X010932Y010040D01*
X010890Y009997D01*
X010850Y009902D01*
X010850Y009298D01*
X010890Y009203D01*
X010963Y009130D01*
X011058Y009090D01*
X011195Y009090D01*
X011195Y008987D01*
X011243Y008872D01*
X011332Y008783D01*
X011447Y008735D01*
X011573Y008735D01*
X011689Y008783D01*
X011883Y008783D01*
X011777Y008872D02*
X011825Y008987D01*
X011825Y009063D01*
X011837Y009063D01*
X011903Y009090D01*
X012662Y009090D01*
X012757Y009130D01*
X012831Y009203D01*
X012870Y009298D01*
X012870Y009902D01*
X012831Y009997D01*
X012788Y010040D01*
X016077Y010040D01*
X016045Y009963D01*
X016045Y009837D01*
X016093Y009722D01*
X016182Y009633D01*
X016297Y009585D01*
X016423Y009585D01*
X016539Y009633D01*
X016627Y009722D01*
X016675Y009837D01*
X016675Y009963D01*
X016643Y010040D01*
X020404Y010040D01*
X020373Y010009D01*
X020330Y009906D01*
X020330Y009410D01*
X017048Y009410D01*
X016962Y009374D02*
X012870Y009374D01*
X012870Y009472D02*
X020330Y009472D01*
X020330Y009571D02*
X012870Y009571D01*
X012870Y009669D02*
X016145Y009669D01*
X016074Y009768D02*
X012870Y009768D01*
X012870Y009866D02*
X016045Y009866D01*
X016046Y009965D02*
X012844Y009965D01*
X012610Y009850D02*
X012610Y009350D01*
X011609Y009350D01*
X011573Y009365D01*
X011447Y009365D01*
X011411Y009350D01*
X011110Y009350D01*
X011110Y009850D01*
X012610Y009850D01*
X012610Y009768D02*
X011110Y009768D01*
X011110Y009669D02*
X012610Y009669D01*
X012610Y009571D02*
X011110Y009571D01*
X011110Y009472D02*
X012610Y009472D01*
X012610Y009374D02*
X011110Y009374D01*
X010850Y009374D02*
X007151Y009374D01*
X007151Y009472D02*
X010850Y009472D01*
X010850Y009571D02*
X007122Y009571D01*
X007151Y009500D02*
X007053Y009736D01*
X006872Y009917D01*
X006636Y010015D01*
X006380Y010015D01*
X006144Y009917D01*
X005963Y009736D01*
X005865Y009500D01*
X005865Y009244D01*
X005963Y009008D01*
X006144Y008827D01*
X006380Y008729D01*
X006636Y008729D01*
X006872Y008827D01*
X007053Y009008D01*
X007151Y009244D01*
X007151Y009500D01*
X007081Y009669D02*
X010850Y009669D01*
X010850Y009768D02*
X007022Y009768D01*
X006923Y009866D02*
X010850Y009866D01*
X010876Y009965D02*
X006757Y009965D01*
X006259Y009965D02*
X005849Y009965D01*
X005820Y009866D02*
X006093Y009866D01*
X005995Y009768D02*
X005820Y009768D01*
X005820Y009669D02*
X005935Y009669D01*
X005894Y009571D02*
X005820Y009571D01*
X005820Y009472D02*
X005865Y009472D01*
X005865Y009374D02*
X005820Y009374D01*
X005820Y009275D02*
X005865Y009275D01*
X005893Y009177D02*
X005820Y009177D01*
X005820Y009078D02*
X005934Y009078D01*
X005991Y008980D02*
X005820Y008980D01*
X005820Y008881D02*
X006089Y008881D01*
X006250Y008783D02*
X005820Y008783D01*
X005820Y008684D02*
X006847Y008684D01*
X006832Y008669D02*
X006773Y008527D01*
X006773Y008373D01*
X006832Y008231D01*
X006941Y008122D01*
X007083Y008063D01*
X007237Y008063D01*
X007379Y008122D01*
X007488Y008231D01*
X007547Y008373D01*
X007547Y008527D01*
X007488Y008669D01*
X007379Y008778D01*
X007237Y008837D01*
X007083Y008837D01*
X006941Y008778D01*
X006832Y008669D01*
X006797Y008586D02*
X005820Y008586D01*
X005820Y008487D02*
X006773Y008487D01*
X006773Y008389D02*
X005820Y008389D01*
X005820Y008290D02*
X006807Y008290D01*
X006871Y008192D02*
X005820Y008192D01*
X005820Y008093D02*
X007009Y008093D01*
X007311Y008093D02*
X009929Y008093D01*
X009845Y007995D02*
X005820Y007995D01*
X005820Y007896D02*
X009810Y007896D01*
X009810Y007798D02*
X005820Y007798D01*
X005820Y007699D02*
X009810Y007699D01*
X009810Y007601D02*
X005820Y007601D01*
X005820Y007502D02*
X009462Y007502D01*
X009360Y007404D02*
X005820Y007404D01*
X005820Y007305D02*
X009286Y007305D01*
X009209Y007207D02*
X005820Y007207D01*
X005820Y007108D02*
X009133Y007108D01*
X009056Y007010D02*
X005820Y007010D01*
X005820Y006911D02*
X008226Y006911D01*
X008232Y006917D02*
X008143Y006828D01*
X008095Y006713D01*
X008095Y006587D01*
X008143Y006472D01*
X008232Y006383D01*
X008347Y006335D01*
X008473Y006335D01*
X008589Y006383D01*
X008677Y006472D01*
X008725Y006587D01*
X008725Y006713D01*
X008677Y006828D01*
X008589Y006917D01*
X008473Y006965D01*
X008347Y006965D01*
X008232Y006917D01*
X008137Y006813D02*
X005820Y006813D01*
X005820Y006714D02*
X008096Y006714D01*
X008095Y006616D02*
X005820Y006616D01*
X005820Y006517D02*
X008124Y006517D01*
X008196Y006419D02*
X005820Y006419D01*
X005820Y006320D02*
X008970Y006320D01*
X008970Y006222D02*
X005820Y006222D01*
X005820Y006123D02*
X008970Y006123D01*
X008926Y006025D02*
X005820Y006025D01*
X005820Y005926D02*
X008828Y005926D01*
X008730Y005828D02*
X005820Y005828D01*
X005820Y005729D02*
X008632Y005729D01*
X008534Y005631D02*
X005820Y005631D01*
X005820Y005532D02*
X008436Y005532D01*
X008338Y005434D02*
X005820Y005434D01*
X005820Y005335D02*
X008241Y005335D01*
X008143Y005237D02*
X005820Y005237D01*
X005820Y005138D02*
X008045Y005138D01*
X007947Y005040D02*
X005820Y005040D01*
X005820Y004941D02*
X007849Y004941D01*
X007751Y004843D02*
X005820Y004843D01*
X005820Y004744D02*
X007653Y004744D01*
X007555Y004646D02*
X005820Y004646D01*
X005820Y004547D02*
X007457Y004547D01*
X007424Y004514D02*
X007424Y004514D01*
X007397Y004449D02*
X005820Y004449D01*
X005820Y004350D02*
X007380Y004350D01*
X007380Y004252D02*
X005820Y004252D01*
X005820Y004153D02*
X007380Y004153D01*
X007380Y004055D02*
X005820Y004055D01*
X005820Y003956D02*
X007380Y003956D01*
X007380Y003858D02*
X005820Y003858D01*
X005820Y003759D02*
X007380Y003759D01*
X007380Y003661D02*
X005820Y003661D01*
X005820Y003562D02*
X007380Y003562D01*
X007380Y003464D02*
X005820Y003464D01*
X005820Y003365D02*
X007380Y003365D01*
X007380Y003267D02*
X006541Y003267D01*
X006529Y003278D02*
X006387Y003337D01*
X006233Y003337D01*
X006091Y003278D01*
X005982Y003169D01*
X005923Y003027D01*
X005923Y002873D01*
X005820Y002873D01*
X005820Y002971D02*
X005923Y002971D01*
X005923Y002873D02*
X005982Y002731D01*
X006091Y002622D01*
X006233Y002563D01*
X006387Y002563D01*
X006529Y002622D01*
X006638Y002731D01*
X006697Y002873D01*
X007380Y002873D01*
X007380Y002971D02*
X006697Y002971D01*
X006697Y003027D02*
X006697Y002873D01*
X006656Y002774D02*
X007380Y002774D01*
X007380Y002676D02*
X006584Y002676D01*
X006422Y002577D02*
X007380Y002577D01*
X007380Y002479D02*
X005820Y002479D01*
X005820Y002577D02*
X006198Y002577D01*
X006037Y002676D02*
X005820Y002676D01*
X005820Y002774D02*
X005964Y002774D01*
X005941Y003070D02*
X005820Y003070D01*
X005820Y003168D02*
X005982Y003168D01*
X006080Y003267D02*
X005820Y003267D01*
X006529Y003278D02*
X006638Y003169D01*
X006697Y003027D01*
X006679Y003070D02*
X007380Y003070D01*
X007380Y003168D02*
X006639Y003168D01*
X006779Y002282D02*
X007422Y002282D01*
X007381Y002380D02*
X005820Y002380D01*
X005820Y002282D02*
X006237Y002282D01*
X006084Y002183D02*
X005820Y002183D01*
X005820Y002085D02*
X005986Y002085D01*
X005932Y001986D02*
X005820Y001986D01*
X005820Y001888D02*
X005891Y001888D01*
X005865Y001789D02*
X005820Y001789D01*
X005820Y001691D02*
X005865Y001691D01*
X005865Y001592D02*
X005820Y001592D01*
X005820Y001494D02*
X005897Y001494D01*
X005937Y001395D02*
X005820Y001395D01*
X005825Y001297D02*
X006000Y001297D01*
X006098Y001198D02*
X005865Y001198D01*
X005970Y001100D02*
X006272Y001100D01*
X006745Y001100D02*
X008314Y001100D01*
X008190Y001198D02*
X006918Y001198D01*
X007017Y001297D02*
X008113Y001297D01*
X008072Y001395D02*
X007079Y001395D01*
X007120Y001494D02*
X008050Y001494D01*
X008050Y001592D02*
X007151Y001592D01*
X007151Y001691D02*
X008009Y001691D01*
X007910Y001789D02*
X007151Y001789D01*
X007126Y001888D02*
X007812Y001888D01*
X007713Y001986D02*
X007085Y001986D01*
X007031Y002085D02*
X007615Y002085D01*
X007516Y002183D02*
X006932Y002183D01*
X007960Y002560D02*
X007960Y004230D01*
X009029Y005306D01*
X009043Y005272D01*
X009132Y005183D01*
X009247Y005135D01*
X009373Y005135D01*
X009489Y005183D01*
X009577Y005272D01*
X009625Y005387D01*
X009625Y005513D01*
X009577Y005628D01*
X009489Y005717D01*
X009452Y005732D01*
X009465Y005745D01*
X009506Y005786D01*
X009506Y005786D01*
X009506Y005786D01*
X009528Y005839D01*
X009550Y005892D01*
X009550Y005893D01*
X009550Y005893D01*
X009550Y005951D01*
X009550Y006700D01*
X009752Y006960D01*
X009926Y006960D01*
X009940Y006946D01*
X010050Y006900D01*
X011070Y006900D01*
X011154Y006935D01*
X011145Y006913D01*
X011145Y006787D01*
X011193Y006672D01*
X011282Y006583D01*
X011397Y006535D01*
X011523Y006535D01*
X011537Y006541D01*
X011640Y006438D01*
X011640Y003196D01*
X011681Y003097D01*
X011718Y003060D01*
X011709Y003060D01*
X011521Y002982D01*
X011378Y002839D01*
X011300Y002651D01*
X011300Y002449D01*
X011378Y002261D01*
X011521Y002118D01*
X011685Y002050D01*
X011521Y001982D01*
X011378Y001839D01*
X011310Y001676D01*
X011242Y001839D01*
X011099Y001982D01*
X010912Y002060D01*
X010709Y002060D01*
X010521Y001982D01*
X010378Y001839D01*
X010310Y001676D01*
X010242Y001839D01*
X010099Y001982D01*
X009936Y002050D01*
X010099Y002118D01*
X010242Y002261D01*
X010320Y002449D01*
X010320Y002651D01*
X010242Y002839D01*
X010099Y002982D01*
X009912Y003060D01*
X009709Y003060D01*
X009521Y002982D01*
X009378Y002839D01*
X009300Y002651D01*
X009300Y002449D01*
X009378Y002261D01*
X009521Y002118D01*
X009685Y002050D01*
X009521Y001982D01*
X009378Y001839D01*
X009300Y001651D01*
X009300Y001449D01*
X009378Y001261D01*
X009521Y001118D01*
X009660Y001060D01*
X008710Y001060D01*
X008849Y001118D01*
X008992Y001261D01*
X009070Y001449D01*
X009070Y001651D01*
X008992Y001839D01*
X008849Y001982D01*
X008662Y002060D01*
X008460Y002060D01*
X007960Y002560D01*
X007960Y002577D02*
X009300Y002577D01*
X009300Y002479D02*
X008041Y002479D01*
X008140Y002380D02*
X009328Y002380D01*
X009369Y002282D02*
X008238Y002282D01*
X008337Y002183D02*
X009455Y002183D01*
X009600Y002085D02*
X008435Y002085D01*
X008839Y001986D02*
X009531Y001986D01*
X009427Y001888D02*
X008943Y001888D01*
X009013Y001789D02*
X009357Y001789D01*
X009316Y001691D02*
X009054Y001691D01*
X009070Y001592D02*
X009300Y001592D01*
X009300Y001494D02*
X009070Y001494D01*
X009048Y001395D02*
X009322Y001395D01*
X009363Y001297D02*
X009007Y001297D01*
X008930Y001198D02*
X009440Y001198D01*
X009564Y001100D02*
X008806Y001100D01*
X010089Y001986D02*
X010531Y001986D01*
X010427Y001888D02*
X010193Y001888D01*
X010263Y001789D02*
X010357Y001789D01*
X010316Y001691D02*
X010304Y001691D01*
X010020Y002085D02*
X011600Y002085D01*
X011531Y001986D02*
X011089Y001986D01*
X011193Y001888D02*
X011427Y001888D01*
X011357Y001789D02*
X011263Y001789D01*
X011304Y001691D02*
X011316Y001691D01*
X011455Y002183D02*
X010165Y002183D01*
X010251Y002282D02*
X011369Y002282D01*
X011328Y002380D02*
X010292Y002380D01*
X010320Y002479D02*
X011300Y002479D01*
X011300Y002577D02*
X010320Y002577D01*
X010310Y002676D02*
X011310Y002676D01*
X011351Y002774D02*
X010269Y002774D01*
X010208Y002873D02*
X011412Y002873D01*
X011510Y002971D02*
X010110Y002971D01*
X009510Y002971D02*
X007960Y002971D01*
X007960Y002873D02*
X009412Y002873D01*
X009351Y002774D02*
X007960Y002774D01*
X007960Y002676D02*
X009310Y002676D01*
X007960Y003070D02*
X011708Y003070D01*
X011652Y003168D02*
X007960Y003168D01*
X007960Y003267D02*
X011640Y003267D01*
X011640Y003365D02*
X007960Y003365D01*
X007960Y003464D02*
X011640Y003464D01*
X011640Y003562D02*
X007960Y003562D01*
X007960Y003661D02*
X011640Y003661D01*
X011640Y003759D02*
X007960Y003759D01*
X007960Y003858D02*
X011640Y003858D01*
X011640Y003956D02*
X007960Y003956D01*
X007960Y004055D02*
X011640Y004055D01*
X011640Y004153D02*
X007960Y004153D01*
X007982Y004252D02*
X011640Y004252D01*
X011640Y004350D02*
X008079Y004350D01*
X008177Y004449D02*
X011640Y004449D01*
X011640Y004547D02*
X008275Y004547D01*
X008373Y004646D02*
X011640Y004646D01*
X011640Y004744D02*
X008471Y004744D01*
X008569Y004843D02*
X011640Y004843D01*
X011640Y004941D02*
X008667Y004941D01*
X008765Y005040D02*
X011640Y005040D01*
X011640Y005138D02*
X009381Y005138D01*
X009239Y005138D02*
X008862Y005138D01*
X008960Y005237D02*
X009078Y005237D01*
X009543Y005237D02*
X011640Y005237D01*
X011640Y005335D02*
X009604Y005335D01*
X009625Y005434D02*
X011640Y005434D01*
X011640Y005532D02*
X009617Y005532D01*
X009575Y005631D02*
X011640Y005631D01*
X011640Y005729D02*
X009458Y005729D01*
X009523Y005828D02*
X011640Y005828D01*
X011640Y005926D02*
X009550Y005926D01*
X009550Y006025D02*
X011640Y006025D01*
X011640Y006123D02*
X009550Y006123D01*
X009550Y006222D02*
X011640Y006222D01*
X011640Y006320D02*
X009550Y006320D01*
X009550Y006419D02*
X011640Y006419D01*
X011561Y006517D02*
X009550Y006517D01*
X009550Y006616D02*
X011249Y006616D01*
X011175Y006714D02*
X009561Y006714D01*
X009638Y006813D02*
X011145Y006813D01*
X011145Y006911D02*
X011098Y006911D01*
X011010Y007200D02*
X010110Y007200D01*
X010110Y007850D01*
X011010Y007850D01*
X011010Y007200D01*
X011010Y007207D02*
X010110Y007207D01*
X010110Y007305D02*
X011010Y007305D01*
X011010Y007404D02*
X010110Y007404D01*
X010110Y007502D02*
X011010Y007502D01*
X011010Y007601D02*
X010110Y007601D01*
X010110Y007699D02*
X011010Y007699D01*
X011010Y007798D02*
X010110Y007798D01*
X010023Y006911D02*
X009714Y006911D01*
X008990Y006911D02*
X008594Y006911D01*
X008684Y006813D02*
X008966Y006813D01*
X008970Y006714D02*
X008724Y006714D01*
X008725Y006616D02*
X008970Y006616D01*
X008970Y006517D02*
X008696Y006517D01*
X008625Y006419D02*
X008970Y006419D01*
X007450Y008192D02*
X011292Y008192D01*
X011390Y008290D02*
X007513Y008290D01*
X007547Y008389D02*
X011489Y008389D01*
X011587Y008487D02*
X007547Y008487D01*
X007523Y008586D02*
X011686Y008586D01*
X011784Y008684D02*
X007473Y008684D01*
X007368Y008783D02*
X011332Y008783D01*
X011239Y008881D02*
X006927Y008881D01*
X006952Y008783D02*
X006766Y008783D01*
X007026Y008980D02*
X011198Y008980D01*
X011195Y009078D02*
X007083Y009078D01*
X007123Y009177D02*
X010915Y009177D01*
X010860Y009275D02*
X007151Y009275D01*
X006636Y011155D02*
X006380Y011155D01*
X006144Y011253D01*
X005963Y011434D01*
X005865Y011670D01*
X005865Y011926D01*
X005963Y012162D01*
X006144Y012343D01*
X006380Y012441D01*
X006636Y012441D01*
X006872Y012343D01*
X007053Y012162D01*
X007151Y011926D01*
X007151Y011670D01*
X007053Y011434D01*
X006872Y011253D01*
X006636Y011155D01*
X006855Y011246D02*
X008243Y011246D01*
X008271Y011218D02*
X008459Y011140D01*
X008662Y011140D01*
X008849Y011218D01*
X008992Y011361D01*
X009070Y011549D01*
X009070Y011751D01*
X008992Y011939D01*
X008849Y012082D01*
X008662Y012160D01*
X008460Y012160D01*
X007960Y012660D01*
X007960Y014330D01*
X009029Y015406D01*
X009043Y015372D01*
X009132Y015283D01*
X009247Y015235D01*
X009373Y015235D01*
X009489Y015283D01*
X009577Y015372D01*
X009625Y015487D01*
X009625Y015613D01*
X009577Y015728D01*
X009489Y015817D01*
X009452Y015832D01*
X009465Y015845D01*
X009506Y015886D01*
X009506Y015886D01*
X009506Y015886D01*
X009528Y015939D01*
X009550Y015992D01*
X009550Y015993D01*
X009550Y015993D01*
X009550Y016051D01*
X009550Y016800D01*
X009752Y017060D01*
X009926Y017060D01*
X009940Y017046D01*
X010050Y017000D01*
X011070Y017000D01*
X011154Y017035D01*
X011145Y017013D01*
X011145Y016887D01*
X011193Y016772D01*
X011282Y016683D01*
X011397Y016635D01*
X011523Y016635D01*
X011537Y016641D01*
X011640Y016538D01*
X011640Y013296D01*
X011681Y013197D01*
X011718Y013160D01*
X011709Y013160D01*
X011521Y013082D01*
X011378Y012939D01*
X011300Y012751D01*
X011300Y012549D01*
X011378Y012361D01*
X011521Y012218D01*
X011685Y012150D01*
X011521Y012082D01*
X011378Y011939D01*
X011310Y011776D01*
X011242Y011939D01*
X011099Y012082D01*
X010912Y012160D01*
X010709Y012160D01*
X010521Y012082D01*
X010378Y011939D01*
X010310Y011776D01*
X010242Y011939D01*
X010099Y012082D01*
X009936Y012150D01*
X010099Y012218D01*
X010242Y012361D01*
X010320Y012549D01*
X010320Y012751D01*
X010242Y012939D01*
X010099Y013082D01*
X009912Y013160D01*
X009709Y013160D01*
X009521Y013082D01*
X009378Y012939D01*
X009300Y012751D01*
X009300Y012549D01*
X009378Y012361D01*
X009521Y012218D01*
X009685Y012150D01*
X009521Y012082D01*
X009378Y011939D01*
X009300Y011751D01*
X009300Y011549D01*
X009378Y011361D01*
X009521Y011218D01*
X009709Y011140D01*
X009912Y011140D01*
X010099Y011218D01*
X010242Y011361D01*
X010310Y011524D01*
X010378Y011361D01*
X010521Y011218D01*
X010709Y011140D01*
X010912Y011140D01*
X011099Y011218D01*
X011242Y011361D01*
X011310Y011524D01*
X011378Y011361D01*
X011521Y011218D01*
X011709Y011140D01*
X011912Y011140D01*
X012099Y011218D01*
X012242Y011361D01*
X012310Y011524D01*
X012378Y011361D01*
X012521Y011218D01*
X012709Y011140D01*
X012912Y011140D01*
X013099Y011218D01*
X013242Y011361D01*
X013310Y011524D01*
X013378Y011361D01*
X013521Y011218D01*
X013709Y011140D01*
X013912Y011140D01*
X014099Y011218D01*
X014242Y011361D01*
X014310Y011524D01*
X014378Y011361D01*
X014521Y011218D01*
X014709Y011140D01*
X014912Y011140D01*
X015099Y011218D01*
X015242Y011361D01*
X015310Y011524D01*
X015378Y011361D01*
X015521Y011218D01*
X015709Y011140D01*
X015912Y011140D01*
X016099Y011218D01*
X016242Y011361D01*
X016310Y011524D01*
X016378Y011361D01*
X016521Y011218D01*
X016709Y011140D01*
X016912Y011140D01*
X017099Y011218D01*
X017242Y011361D01*
X017310Y011524D01*
X017378Y011361D01*
X017521Y011218D01*
X017709Y011140D01*
X017912Y011140D01*
X018099Y011218D01*
X018242Y011361D01*
X018310Y011524D01*
X018378Y011361D01*
X018521Y011218D01*
X018709Y011140D01*
X018912Y011140D01*
X019099Y011218D01*
X019242Y011361D01*
X019320Y011549D01*
X019320Y011751D01*
X019267Y011880D01*
X019403Y011880D01*
X019350Y011751D01*
X019350Y011549D01*
X019428Y011361D01*
X019571Y011218D01*
X019759Y011140D01*
X019962Y011140D01*
X020149Y011218D01*
X020292Y011361D01*
X020360Y011524D01*
X020428Y011361D01*
X020571Y011218D01*
X020759Y011140D01*
X020962Y011140D01*
X021149Y011218D01*
X021292Y011361D01*
X021360Y011524D01*
X021428Y011361D01*
X021571Y011218D01*
X021759Y011140D01*
X021962Y011140D01*
X022149Y011218D01*
X022292Y011361D01*
X022370Y011549D01*
X022370Y011751D01*
X022292Y011939D01*
X022149Y012082D01*
X021962Y012160D01*
X021759Y012160D01*
X021630Y012107D01*
X021630Y014803D01*
X021643Y014772D01*
X021732Y014683D01*
X021847Y014635D01*
X021973Y014635D01*
X022089Y014683D01*
X022177Y014772D01*
X022225Y014887D01*
X022225Y015013D01*
X022177Y015128D01*
X022106Y015200D01*
X022177Y015272D01*
X022225Y015387D01*
X022225Y015513D01*
X022177Y015628D01*
X022089Y015717D01*
X022069Y015725D01*
X022089Y015733D01*
X022136Y015780D01*
X022164Y015780D01*
X022263Y015821D01*
X022610Y016168D01*
X022610Y015982D01*
X022507Y015879D01*
X022431Y015803D01*
X022390Y015704D01*
X022390Y014321D01*
X022345Y014213D01*
X022345Y014087D01*
X022393Y013972D01*
X022482Y013883D01*
X022597Y013835D01*
X022610Y013835D01*
X022610Y012021D01*
X022528Y011939D01*
X022450Y011751D01*
X022450Y011549D01*
X022528Y011361D01*
X022610Y011279D01*
X022610Y011110D01*
X006110Y011110D01*
X006036Y011102D01*
X005962Y011108D01*
X005889Y011126D01*
X005821Y011157D01*
X005820Y011158D01*
X005820Y019820D01*
X005826Y019877D01*
X005869Y019981D01*
X005949Y020061D01*
X006054Y020105D01*
X006110Y020110D01*
X006368Y020110D01*
X006144Y020017D01*
X005963Y019836D01*
X005865Y019600D01*
X005865Y019344D01*
X005963Y019108D01*
X006144Y018927D01*
X006380Y018829D01*
X006636Y018829D01*
X006872Y018927D01*
X007053Y019108D01*
X007151Y019344D01*
X007151Y019600D01*
X007053Y019836D01*
X006872Y020017D01*
X006648Y020110D01*
X010902Y020110D01*
X010890Y020097D01*
X010850Y020002D01*
X010850Y019398D01*
X010890Y019303D01*
X010963Y019230D01*
X011058Y019190D01*
X011195Y019190D01*
X011195Y019087D01*
X011243Y018972D01*
X011332Y018883D01*
X011447Y018835D01*
X011573Y018835D01*
X011689Y018883D01*
X011777Y018972D01*
X011825Y019087D01*
X011825Y019163D01*
X011837Y019163D01*
X011903Y019190D01*
X012662Y019190D01*
X012757Y019230D01*
X012831Y019303D01*
X012870Y019398D01*
X012870Y020002D01*
X012831Y020097D01*
X012818Y020110D01*
X016065Y020110D01*
X016045Y020063D01*
X016045Y019937D01*
X016093Y019822D01*
X016182Y019733D01*
X016297Y019685D01*
X016423Y019685D01*
X016539Y019733D01*
X016627Y019822D01*
X016675Y019937D01*
X016675Y020063D01*
X016655Y020110D01*
X020374Y020110D01*
X020373Y020109D01*
X020330Y020006D01*
X020330Y019510D01*
X017048Y019510D01*
X016934Y019463D01*
X015284Y017812D01*
X015277Y017828D01*
X015189Y017917D01*
X015073Y017965D01*
X014995Y017965D01*
X015030Y018049D01*
X015030Y018251D01*
X014952Y018439D01*
X014809Y018582D01*
X014622Y018660D01*
X014419Y018660D01*
X014294Y018608D01*
X014307Y018622D01*
X014355Y018737D01*
X014355Y018863D01*
X014307Y018978D01*
X014219Y019067D01*
X014103Y019115D01*
X013977Y019115D01*
X013862Y019067D01*
X013785Y018990D01*
X012052Y018990D01*
X011946Y018946D01*
X011192Y018192D01*
X011180Y018204D01*
X011070Y018250D01*
X010050Y018250D01*
X009940Y018204D01*
X009856Y018120D01*
X009810Y018010D01*
X009810Y017640D01*
X009649Y017640D01*
X009631Y017645D01*
X009592Y017640D01*
X009552Y017640D01*
X009535Y017633D01*
X009517Y017631D01*
X009482Y017611D01*
X009446Y017596D01*
X009433Y017583D01*
X009417Y017574D01*
X009392Y017542D01*
X009364Y017514D01*
X009357Y017497D01*
X009042Y017092D01*
X009014Y017064D01*
X009007Y017047D01*
X008996Y017033D01*
X008985Y016994D01*
X008970Y016958D01*
X008970Y016939D01*
X008965Y016921D01*
X008970Y016882D01*
X008970Y016170D01*
X007465Y014655D01*
X007424Y014614D01*
X007424Y014613D01*
X007402Y014561D01*
X007380Y014508D01*
X007380Y014507D01*
X007380Y014507D01*
X007380Y014449D01*
X007380Y012482D01*
X007424Y012376D01*
X008050Y011750D01*
X008050Y011549D01*
X008128Y011361D01*
X008271Y011218D01*
X008145Y011344D02*
X006964Y011344D01*
X007057Y011443D02*
X008094Y011443D01*
X008053Y011541D02*
X007098Y011541D01*
X007139Y011640D02*
X008050Y011640D01*
X008050Y011738D02*
X007151Y011738D01*
X007151Y011837D02*
X007963Y011837D01*
X007865Y011935D02*
X007147Y011935D01*
X007107Y012034D02*
X007766Y012034D01*
X007668Y012132D02*
X007066Y012132D01*
X006985Y012231D02*
X007569Y012231D01*
X007471Y012329D02*
X006887Y012329D01*
X006669Y012428D02*
X007403Y012428D01*
X007380Y012526D02*
X005820Y012526D01*
X005820Y012428D02*
X006347Y012428D01*
X006387Y012663D02*
X006233Y012663D01*
X006091Y012722D01*
X005982Y012831D01*
X005923Y012973D01*
X005923Y013127D01*
X005982Y013269D01*
X006091Y013378D01*
X006233Y013437D01*
X006387Y013437D01*
X006529Y013378D01*
X006638Y013269D01*
X006697Y013127D01*
X006697Y012973D01*
X006638Y012831D01*
X006529Y012722D01*
X006387Y012663D01*
X006531Y012723D02*
X007380Y012723D01*
X007380Y012625D02*
X005820Y012625D01*
X005820Y012723D02*
X006090Y012723D01*
X005991Y012822D02*
X005820Y012822D01*
X005820Y012920D02*
X005945Y012920D01*
X005923Y013019D02*
X005820Y013019D01*
X005820Y013117D02*
X005923Y013117D01*
X005960Y013216D02*
X005820Y013216D01*
X005820Y013314D02*
X006027Y013314D01*
X006174Y013413D02*
X005820Y013413D01*
X005820Y013511D02*
X007380Y013511D01*
X007380Y013413D02*
X006447Y013413D01*
X006594Y013314D02*
X007380Y013314D01*
X007380Y013216D02*
X006661Y013216D01*
X006697Y013117D02*
X007380Y013117D01*
X007380Y013019D02*
X006697Y013019D01*
X006675Y012920D02*
X007380Y012920D01*
X007380Y012822D02*
X006629Y012822D01*
X006130Y012329D02*
X005820Y012329D01*
X005820Y012231D02*
X006031Y012231D01*
X005950Y012132D02*
X005820Y012132D01*
X005820Y012034D02*
X005910Y012034D01*
X005869Y011935D02*
X005820Y011935D01*
X005820Y011837D02*
X005865Y011837D01*
X005865Y011738D02*
X005820Y011738D01*
X005820Y011640D02*
X005878Y011640D01*
X005919Y011541D02*
X005820Y011541D01*
X005820Y011443D02*
X005959Y011443D01*
X006053Y011344D02*
X005820Y011344D01*
X005820Y011246D02*
X006162Y011246D01*
X005843Y011147D02*
X008442Y011147D01*
X008678Y011147D02*
X009692Y011147D01*
X009493Y011246D02*
X008877Y011246D01*
X008975Y011344D02*
X009395Y011344D01*
X009344Y011443D02*
X009026Y011443D01*
X009067Y011541D02*
X009303Y011541D01*
X009300Y011640D02*
X009070Y011640D01*
X009070Y011738D02*
X009300Y011738D01*
X009335Y011837D02*
X009035Y011837D01*
X008994Y011935D02*
X009376Y011935D01*
X009472Y012034D02*
X008898Y012034D01*
X008729Y012132D02*
X009641Y012132D01*
X009508Y012231D02*
X008390Y012231D01*
X008291Y012329D02*
X009410Y012329D01*
X009350Y012428D02*
X008193Y012428D01*
X008094Y012526D02*
X009309Y012526D01*
X009300Y012625D02*
X007996Y012625D01*
X007960Y012723D02*
X009300Y012723D01*
X009329Y012822D02*
X007960Y012822D01*
X007960Y012920D02*
X009370Y012920D01*
X009457Y013019D02*
X007960Y013019D01*
X007960Y013117D02*
X009605Y013117D01*
X010015Y013117D02*
X011605Y013117D01*
X011674Y013216D02*
X007960Y013216D01*
X007960Y013314D02*
X011640Y013314D01*
X011640Y013413D02*
X007960Y013413D01*
X007960Y013511D02*
X011640Y013511D01*
X011640Y013610D02*
X007960Y013610D01*
X007960Y013708D02*
X011640Y013708D01*
X011640Y013807D02*
X007960Y013807D01*
X007960Y013905D02*
X011640Y013905D01*
X011640Y014004D02*
X007960Y014004D01*
X007960Y014102D02*
X011640Y014102D01*
X011640Y014201D02*
X007960Y014201D01*
X007960Y014299D02*
X011640Y014299D01*
X011640Y014398D02*
X008027Y014398D01*
X008125Y014496D02*
X011640Y014496D01*
X011640Y014595D02*
X008223Y014595D01*
X008320Y014693D02*
X011640Y014693D01*
X011640Y014792D02*
X008418Y014792D01*
X008516Y014890D02*
X011640Y014890D01*
X011640Y014989D02*
X008614Y014989D01*
X008712Y015087D02*
X011640Y015087D01*
X011640Y015186D02*
X008810Y015186D01*
X008908Y015284D02*
X009131Y015284D01*
X009039Y015383D02*
X009006Y015383D01*
X009490Y015284D02*
X011640Y015284D01*
X011640Y015383D02*
X009582Y015383D01*
X009622Y015481D02*
X011640Y015481D01*
X011640Y015580D02*
X009625Y015580D01*
X009598Y015678D02*
X011640Y015678D01*
X011640Y015777D02*
X009529Y015777D01*
X009495Y015875D02*
X011640Y015875D01*
X011640Y015974D02*
X009542Y015974D01*
X009550Y016072D02*
X011640Y016072D01*
X011640Y016171D02*
X009550Y016171D01*
X009550Y016269D02*
X011640Y016269D01*
X011640Y016368D02*
X009550Y016368D01*
X009550Y016466D02*
X011640Y016466D01*
X011614Y016565D02*
X009550Y016565D01*
X009550Y016663D02*
X011330Y016663D01*
X011203Y016762D02*
X009550Y016762D01*
X009596Y016860D02*
X011156Y016860D01*
X011145Y016959D02*
X009673Y016959D01*
X009750Y017057D02*
X009929Y017057D01*
X010110Y017300D02*
X011010Y017300D01*
X011010Y017950D01*
X010110Y017950D01*
X010110Y017300D01*
X010110Y017353D02*
X011010Y017353D01*
X011010Y017451D02*
X010110Y017451D01*
X010110Y017550D02*
X011010Y017550D01*
X011010Y017648D02*
X010110Y017648D01*
X010110Y017747D02*
X011010Y017747D01*
X011010Y017845D02*
X010110Y017845D01*
X010110Y017944D02*
X011010Y017944D01*
X011096Y018239D02*
X011239Y018239D01*
X011337Y018338D02*
X007491Y018338D01*
X007488Y018331D02*
X007547Y018473D01*
X007547Y018627D01*
X007488Y018769D01*
X007379Y018878D01*
X007237Y018937D01*
X007083Y018937D01*
X006941Y018878D01*
X006832Y018769D01*
X006773Y018627D01*
X006773Y018473D01*
X006832Y018331D01*
X006941Y018222D01*
X007083Y018163D01*
X007237Y018163D01*
X007379Y018222D01*
X007488Y018331D01*
X007532Y018436D02*
X011436Y018436D01*
X011534Y018535D02*
X007547Y018535D01*
X007545Y018633D02*
X011633Y018633D01*
X011731Y018732D02*
X007504Y018732D01*
X007428Y018830D02*
X011830Y018830D01*
X011734Y018929D02*
X011928Y018929D01*
X011800Y019027D02*
X013822Y019027D01*
X014259Y019027D02*
X016499Y019027D01*
X016597Y019126D02*
X011825Y019126D01*
X011609Y019450D02*
X011573Y019465D01*
X011447Y019465D01*
X011411Y019450D01*
X011110Y019450D01*
X011110Y019950D01*
X012610Y019950D01*
X012610Y019450D01*
X011609Y019450D01*
X011195Y019126D02*
X007061Y019126D01*
X007101Y019224D02*
X010976Y019224D01*
X010881Y019323D02*
X007142Y019323D01*
X007151Y019421D02*
X010850Y019421D01*
X010850Y019520D02*
X007151Y019520D01*
X007144Y019618D02*
X010850Y019618D01*
X010850Y019717D02*
X007103Y019717D01*
X007062Y019815D02*
X010850Y019815D01*
X010850Y019914D02*
X006976Y019914D01*
X006878Y020012D02*
X010854Y020012D01*
X011110Y019914D02*
X012610Y019914D01*
X012610Y019815D02*
X011110Y019815D01*
X011110Y019717D02*
X012610Y019717D01*
X012610Y019618D02*
X011110Y019618D01*
X011110Y019520D02*
X012610Y019520D01*
X012870Y019520D02*
X020330Y019520D01*
X020330Y019618D02*
X012870Y019618D01*
X012870Y019717D02*
X016221Y019717D01*
X016100Y019815D02*
X012870Y019815D01*
X012870Y019914D02*
X016055Y019914D01*
X016045Y020012D02*
X012866Y020012D01*
X012870Y019421D02*
X016893Y019421D01*
X016794Y019323D02*
X012839Y019323D01*
X012744Y019224D02*
X016696Y019224D01*
X016400Y018929D02*
X014328Y018929D01*
X014355Y018830D02*
X016302Y018830D01*
X016203Y018732D02*
X014353Y018732D01*
X014354Y018633D02*
X014312Y018633D01*
X014687Y018633D02*
X016105Y018633D01*
X016006Y018535D02*
X014857Y018535D01*
X014954Y018436D02*
X015908Y018436D01*
X015809Y018338D02*
X014994Y018338D01*
X015030Y018239D02*
X015711Y018239D01*
X015612Y018141D02*
X015030Y018141D01*
X015027Y018042D02*
X015514Y018042D01*
X015415Y017944D02*
X015125Y017944D01*
X015261Y017845D02*
X015317Y017845D01*
X015800Y017451D02*
X015833Y017451D01*
X015880Y017500D02*
X015420Y017017D01*
X015420Y017072D01*
X017239Y018890D01*
X020424Y018890D01*
X020451Y018863D01*
X020554Y018820D01*
X021089Y018820D01*
X021082Y018817D01*
X020993Y018728D01*
X020945Y018613D01*
X020945Y018487D01*
X020993Y018372D01*
X021082Y018283D01*
X021197Y018235D01*
X021323Y018235D01*
X021439Y018283D01*
X021527Y018372D01*
X021575Y018487D01*
X021575Y018613D01*
X021527Y018728D01*
X021439Y018817D01*
X021431Y018820D01*
X021516Y018820D01*
X021619Y018863D01*
X021697Y018941D01*
X021740Y019044D01*
X021740Y020006D01*
X021697Y020109D01*
X021696Y020110D01*
X022610Y020110D01*
X022610Y016932D01*
X022225Y016547D01*
X022225Y016613D01*
X022177Y016728D01*
X022106Y016800D01*
X022177Y016872D01*
X022225Y016987D01*
X022225Y017113D01*
X022177Y017228D01*
X022089Y017317D01*
X021973Y017365D01*
X021847Y017365D01*
X021732Y017317D01*
X021643Y017228D01*
X021595Y017113D01*
X021595Y016987D01*
X021643Y016872D01*
X021715Y016800D01*
X021643Y016728D01*
X021595Y016613D01*
X021595Y016487D01*
X021643Y016372D01*
X021732Y016283D01*
X021751Y016275D01*
X021732Y016267D01*
X021643Y016178D01*
X021598Y016070D01*
X021131Y015603D01*
X021090Y015504D01*
X021090Y013107D01*
X020962Y013160D01*
X020759Y013160D01*
X020571Y013082D01*
X020428Y012939D01*
X020360Y012776D01*
X020292Y012939D01*
X020149Y013082D01*
X019962Y013160D01*
X019759Y013160D01*
X019571Y013082D01*
X019428Y012939D01*
X019350Y012751D01*
X019350Y012549D01*
X019403Y012420D01*
X019267Y012420D01*
X019320Y012549D01*
X019320Y012751D01*
X019242Y012939D01*
X019099Y013082D01*
X018912Y013160D01*
X018709Y013160D01*
X018521Y013082D01*
X018378Y012939D01*
X018310Y012776D01*
X018242Y012939D01*
X018099Y013082D01*
X017912Y013160D01*
X017709Y013160D01*
X017521Y013082D01*
X017378Y012939D01*
X017310Y012776D01*
X017242Y012939D01*
X017099Y013082D01*
X016912Y013160D01*
X016709Y013160D01*
X016680Y013148D01*
X016680Y013895D01*
X016733Y013895D01*
X016849Y013943D01*
X016937Y014032D01*
X016978Y014130D01*
X017065Y014130D01*
X017053Y014118D01*
X017005Y014003D01*
X017005Y013877D01*
X017053Y013762D01*
X017142Y013673D01*
X017257Y013625D01*
X017295Y013625D01*
X017295Y013537D01*
X017343Y013422D01*
X017432Y013333D01*
X017547Y013285D01*
X017673Y013285D01*
X017789Y013333D01*
X017877Y013422D01*
X017925Y013537D01*
X017925Y013663D01*
X017877Y013778D01*
X017789Y013867D01*
X017673Y013915D01*
X017635Y013915D01*
X017635Y014003D01*
X017587Y014118D01*
X017576Y014130D01*
X018064Y014130D01*
X018163Y014171D01*
X018239Y014247D01*
X019120Y015128D01*
X019143Y015072D01*
X019232Y014983D01*
X019347Y014935D01*
X019473Y014935D01*
X019589Y014983D01*
X019677Y015072D01*
X019725Y015187D01*
X019725Y015244D01*
X019747Y015235D01*
X019873Y015235D01*
X019989Y015283D01*
X020077Y015372D01*
X020122Y015480D01*
X020389Y015747D01*
X020430Y015846D01*
X020430Y017679D01*
X020475Y017787D01*
X020475Y017913D01*
X020427Y018028D01*
X020358Y018097D01*
X020375Y018137D01*
X020375Y018263D01*
X020327Y018378D01*
X020239Y018467D01*
X020123Y018515D01*
X019997Y018515D01*
X019882Y018467D01*
X019793Y018378D01*
X019745Y018263D01*
X019745Y018137D01*
X019793Y018022D01*
X019862Y017953D01*
X019845Y017913D01*
X019845Y017787D01*
X019886Y017689D01*
X019823Y017715D01*
X019697Y017715D01*
X019589Y017670D01*
X019306Y017670D01*
X019207Y017629D01*
X018361Y016783D01*
X018320Y016684D01*
X018320Y015509D01*
X017995Y015170D01*
X017726Y015170D01*
X017777Y015222D01*
X017825Y015337D01*
X017825Y015463D01*
X017816Y015485D01*
X017873Y015485D01*
X017989Y015533D01*
X018077Y015622D01*
X018125Y015737D01*
X018125Y015863D01*
X018077Y015978D01*
X017989Y016067D01*
X017873Y016115D01*
X017849Y016115D01*
X018231Y016499D01*
X018269Y016537D01*
X018269Y016537D01*
X018269Y016538D01*
X018290Y016587D01*
X018310Y016636D01*
X018310Y016637D01*
X018310Y016690D01*
X018310Y017232D01*
X018313Y017277D01*
X018310Y017285D01*
X018310Y017294D01*
X018293Y017336D01*
X018278Y017379D01*
X018272Y017385D01*
X018269Y017393D01*
X018237Y017425D01*
X018125Y017551D01*
X018125Y017563D01*
X018077Y017678D01*
X017989Y017767D01*
X017873Y017815D01*
X017747Y017815D01*
X017632Y017767D01*
X017553Y017689D01*
X017313Y017929D01*
X017214Y017970D01*
X016406Y017970D01*
X016307Y017929D01*
X016231Y017853D01*
X015955Y017576D01*
X015952Y017575D01*
X015917Y017539D01*
X015881Y017503D01*
X015880Y017500D01*
X015898Y017550D02*
X015927Y017550D01*
X015997Y017648D02*
X016026Y017648D01*
X016095Y017747D02*
X016125Y017747D01*
X016194Y017845D02*
X016223Y017845D01*
X016292Y017944D02*
X016342Y017944D01*
X016391Y018042D02*
X019785Y018042D01*
X019745Y018141D02*
X016489Y018141D01*
X016588Y018239D02*
X017688Y018239D01*
X017697Y018235D02*
X017582Y018283D01*
X017493Y018372D01*
X017445Y018487D01*
X017445Y018613D01*
X017493Y018728D01*
X017582Y018817D01*
X017697Y018865D01*
X017823Y018865D01*
X017939Y018817D01*
X018027Y018728D01*
X018075Y018613D01*
X018075Y018487D01*
X018027Y018372D01*
X017939Y018283D01*
X017823Y018235D01*
X017697Y018235D01*
X017832Y018239D02*
X019745Y018239D01*
X019776Y018338D02*
X017993Y018338D01*
X018054Y018436D02*
X019851Y018436D01*
X020270Y018436D02*
X020966Y018436D01*
X020945Y018535D02*
X018075Y018535D01*
X018067Y018633D02*
X020954Y018633D01*
X020996Y018732D02*
X018024Y018732D01*
X017907Y018830D02*
X020530Y018830D01*
X020610Y019100D02*
X021460Y019100D01*
X021460Y019950D01*
X020610Y019950D01*
X020610Y019100D01*
X020610Y019126D02*
X021460Y019126D01*
X021460Y019224D02*
X020610Y019224D01*
X020610Y019323D02*
X021460Y019323D01*
X021460Y019421D02*
X020610Y019421D01*
X020610Y019520D02*
X021460Y019520D01*
X021460Y019618D02*
X020610Y019618D01*
X020610Y019717D02*
X021460Y019717D01*
X021460Y019815D02*
X020610Y019815D01*
X020610Y019914D02*
X021460Y019914D01*
X021740Y019914D02*
X022610Y019914D01*
X022610Y020012D02*
X021737Y020012D01*
X021740Y019815D02*
X022610Y019815D01*
X022610Y019717D02*
X021740Y019717D01*
X021740Y019618D02*
X022610Y019618D01*
X022610Y019520D02*
X021740Y019520D01*
X021740Y019421D02*
X022610Y019421D01*
X022610Y019323D02*
X021740Y019323D01*
X021740Y019224D02*
X022610Y019224D01*
X022610Y019126D02*
X021740Y019126D01*
X021733Y019027D02*
X022610Y019027D01*
X022610Y018929D02*
X021685Y018929D01*
X021540Y018830D02*
X022610Y018830D01*
X022610Y018732D02*
X021524Y018732D01*
X021567Y018633D02*
X022610Y018633D01*
X022610Y018535D02*
X021575Y018535D01*
X021554Y018436D02*
X022610Y018436D01*
X022610Y018338D02*
X021493Y018338D01*
X021332Y018239D02*
X022610Y018239D01*
X022610Y018141D02*
X020375Y018141D01*
X020375Y018239D02*
X021188Y018239D01*
X021027Y018338D02*
X020344Y018338D01*
X020414Y018042D02*
X022610Y018042D01*
X022610Y017944D02*
X020462Y017944D01*
X020475Y017845D02*
X022610Y017845D01*
X022610Y017747D02*
X020458Y017747D01*
X020430Y017648D02*
X022610Y017648D01*
X022610Y017550D02*
X020430Y017550D01*
X020430Y017451D02*
X022610Y017451D01*
X022610Y017353D02*
X022003Y017353D01*
X022152Y017254D02*
X022610Y017254D01*
X022610Y017156D02*
X022207Y017156D01*
X022225Y017057D02*
X022610Y017057D01*
X022610Y016959D02*
X022213Y016959D01*
X022166Y016860D02*
X022538Y016860D01*
X022440Y016762D02*
X022144Y016762D01*
X022204Y016663D02*
X022341Y016663D01*
X022243Y016565D02*
X022225Y016565D01*
X021736Y016269D02*
X020430Y016269D01*
X020430Y016171D02*
X021640Y016171D01*
X021599Y016072D02*
X020430Y016072D01*
X020430Y015974D02*
X021502Y015974D01*
X021403Y015875D02*
X020430Y015875D01*
X020401Y015777D02*
X021305Y015777D01*
X021206Y015678D02*
X020320Y015678D01*
X020221Y015580D02*
X021121Y015580D01*
X021090Y015481D02*
X020123Y015481D01*
X020082Y015383D02*
X021090Y015383D01*
X021090Y015284D02*
X019990Y015284D01*
X019724Y015186D02*
X021090Y015186D01*
X021090Y015087D02*
X019684Y015087D01*
X019594Y014989D02*
X021090Y014989D01*
X021090Y014890D02*
X018882Y014890D01*
X018980Y014989D02*
X019226Y014989D01*
X019137Y015087D02*
X019079Y015087D01*
X018783Y014792D02*
X021090Y014792D01*
X021090Y014693D02*
X018685Y014693D01*
X018586Y014595D02*
X021090Y014595D01*
X021090Y014496D02*
X018488Y014496D01*
X018389Y014398D02*
X021090Y014398D01*
X021090Y014299D02*
X018291Y014299D01*
X018192Y014201D02*
X021090Y014201D01*
X021090Y014102D02*
X017594Y014102D01*
X017635Y014004D02*
X021090Y014004D01*
X021090Y013905D02*
X017697Y013905D01*
X017849Y013807D02*
X021090Y013807D01*
X021090Y013708D02*
X017906Y013708D01*
X017925Y013610D02*
X021090Y013610D01*
X021090Y013511D02*
X017914Y013511D01*
X017868Y013413D02*
X021090Y013413D01*
X021090Y013314D02*
X017743Y013314D01*
X017605Y013117D02*
X017015Y013117D01*
X017163Y013019D02*
X017457Y013019D01*
X017370Y012920D02*
X017250Y012920D01*
X017291Y012822D02*
X017329Y012822D01*
X017477Y013314D02*
X016680Y013314D01*
X016680Y013216D02*
X021090Y013216D01*
X021090Y013117D02*
X021065Y013117D01*
X020655Y013117D02*
X020065Y013117D01*
X020213Y013019D02*
X020507Y013019D01*
X020420Y012920D02*
X020300Y012920D01*
X020341Y012822D02*
X020379Y012822D01*
X019655Y013117D02*
X019015Y013117D01*
X019163Y013019D02*
X019507Y013019D01*
X019420Y012920D02*
X019250Y012920D01*
X019291Y012822D02*
X019379Y012822D01*
X019350Y012723D02*
X019320Y012723D01*
X019320Y012625D02*
X019350Y012625D01*
X019359Y012526D02*
X019311Y012526D01*
X019270Y012428D02*
X019400Y012428D01*
X018605Y013117D02*
X018015Y013117D01*
X018163Y013019D02*
X018457Y013019D01*
X018370Y012920D02*
X018250Y012920D01*
X018291Y012822D02*
X018329Y012822D01*
X017352Y013413D02*
X016680Y013413D01*
X016680Y013511D02*
X017306Y013511D01*
X017295Y013610D02*
X016680Y013610D01*
X016680Y013708D02*
X017107Y013708D01*
X017034Y013807D02*
X016680Y013807D01*
X016757Y013905D02*
X017005Y013905D01*
X017005Y014004D02*
X016909Y014004D01*
X016966Y014102D02*
X017046Y014102D01*
X017741Y015186D02*
X018010Y015186D01*
X018104Y015284D02*
X017803Y015284D01*
X017825Y015383D02*
X018199Y015383D01*
X018294Y015481D02*
X017817Y015481D01*
X018035Y015580D02*
X018320Y015580D01*
X018320Y015678D02*
X018101Y015678D01*
X018125Y015777D02*
X018320Y015777D01*
X018320Y015875D02*
X018120Y015875D01*
X018079Y015974D02*
X018320Y015974D01*
X018320Y016072D02*
X017977Y016072D01*
X017904Y016171D02*
X018320Y016171D01*
X018320Y016269D02*
X018002Y016269D01*
X018100Y016368D02*
X018320Y016368D01*
X018320Y016466D02*
X018198Y016466D01*
X018280Y016565D02*
X018320Y016565D01*
X018310Y016637D02*
X018310Y016637D01*
X018310Y016663D02*
X018320Y016663D01*
X018310Y016762D02*
X018352Y016762D01*
X018310Y016860D02*
X018438Y016860D01*
X018537Y016959D02*
X018310Y016959D01*
X018310Y017057D02*
X018635Y017057D01*
X018734Y017156D02*
X018310Y017156D01*
X018311Y017254D02*
X018832Y017254D01*
X018931Y017353D02*
X018287Y017353D01*
X018214Y017451D02*
X019029Y017451D01*
X019128Y017550D02*
X018127Y017550D01*
X018090Y017648D02*
X019253Y017648D01*
X019862Y017747D02*
X018009Y017747D01*
X017611Y017747D02*
X017495Y017747D01*
X017397Y017845D02*
X019845Y017845D01*
X019858Y017944D02*
X017278Y017944D01*
X017527Y018338D02*
X016686Y018338D01*
X016785Y018436D02*
X017466Y018436D01*
X017445Y018535D02*
X016883Y018535D01*
X016982Y018633D02*
X017454Y018633D01*
X017496Y018732D02*
X017080Y018732D01*
X017179Y018830D02*
X017613Y018830D01*
X016621Y019815D02*
X020330Y019815D01*
X020330Y019717D02*
X016499Y019717D01*
X016665Y019914D02*
X020330Y019914D01*
X020333Y020012D02*
X016675Y020012D01*
X015740Y017353D02*
X015701Y017353D01*
X015646Y017254D02*
X015603Y017254D01*
X015552Y017156D02*
X015504Y017156D01*
X015458Y017057D02*
X015420Y017057D01*
X014840Y015749D02*
X014840Y014541D01*
X014799Y014582D01*
X014612Y014660D01*
X014409Y014660D01*
X014221Y014582D01*
X014078Y014439D01*
X014010Y014276D01*
X013942Y014439D01*
X013799Y014582D01*
X013612Y014660D01*
X013409Y014660D01*
X013221Y014582D01*
X013078Y014439D01*
X013010Y014276D01*
X012942Y014439D01*
X012799Y014582D01*
X012612Y014660D01*
X012409Y014660D01*
X012221Y014582D01*
X012180Y014541D01*
X012180Y015769D01*
X012231Y015718D01*
X012419Y015640D01*
X012622Y015640D01*
X012809Y015718D01*
X012952Y015861D01*
X013020Y016024D01*
X013088Y015861D01*
X013231Y015718D01*
X013419Y015640D01*
X013622Y015640D01*
X013809Y015718D01*
X013952Y015861D01*
X014020Y016024D01*
X014088Y015861D01*
X014231Y015718D01*
X014419Y015640D01*
X014622Y015640D01*
X014809Y015718D01*
X014840Y015749D01*
X014840Y015678D02*
X014713Y015678D01*
X014840Y015580D02*
X012180Y015580D01*
X012180Y015678D02*
X012327Y015678D01*
X012180Y015481D02*
X014840Y015481D01*
X014840Y015383D02*
X012180Y015383D01*
X012180Y015284D02*
X014840Y015284D01*
X014840Y015186D02*
X012180Y015186D01*
X012180Y015087D02*
X014840Y015087D01*
X014840Y014989D02*
X012180Y014989D01*
X012180Y014890D02*
X014840Y014890D01*
X014840Y014792D02*
X012180Y014792D01*
X012180Y014693D02*
X014840Y014693D01*
X014840Y014595D02*
X014770Y014595D01*
X014251Y014595D02*
X013770Y014595D01*
X013885Y014496D02*
X014135Y014496D01*
X014061Y014398D02*
X013960Y014398D01*
X014000Y014299D02*
X014020Y014299D01*
X013251Y014595D02*
X012770Y014595D01*
X012885Y014496D02*
X013135Y014496D01*
X013061Y014398D02*
X012960Y014398D01*
X013000Y014299D02*
X013020Y014299D01*
X012251Y014595D02*
X012180Y014595D01*
X012713Y015678D02*
X013327Y015678D01*
X013172Y015777D02*
X012868Y015777D01*
X012958Y015875D02*
X013082Y015875D01*
X013041Y015974D02*
X012999Y015974D01*
X013713Y015678D02*
X014327Y015678D01*
X014172Y015777D02*
X013868Y015777D01*
X013958Y015875D02*
X014082Y015875D01*
X014041Y015974D02*
X013999Y015974D01*
X011457Y013019D02*
X010163Y013019D01*
X010250Y012920D02*
X011370Y012920D01*
X011329Y012822D02*
X010291Y012822D01*
X010320Y012723D02*
X011300Y012723D01*
X011300Y012625D02*
X010320Y012625D01*
X010311Y012526D02*
X011309Y012526D01*
X011350Y012428D02*
X010270Y012428D01*
X010210Y012329D02*
X011410Y012329D01*
X011508Y012231D02*
X010112Y012231D01*
X009979Y012132D02*
X010641Y012132D01*
X010472Y012034D02*
X010148Y012034D01*
X010244Y011935D02*
X010376Y011935D01*
X010335Y011837D02*
X010285Y011837D01*
X010276Y011443D02*
X010344Y011443D01*
X010395Y011344D02*
X010225Y011344D01*
X010127Y011246D02*
X010493Y011246D01*
X010692Y011147D02*
X009928Y011147D01*
X010928Y011147D02*
X011692Y011147D01*
X011493Y011246D02*
X011127Y011246D01*
X011225Y011344D02*
X011395Y011344D01*
X011344Y011443D02*
X011276Y011443D01*
X011285Y011837D02*
X011335Y011837D01*
X011376Y011935D02*
X011244Y011935D01*
X011148Y012034D02*
X011472Y012034D01*
X011641Y012132D02*
X010979Y012132D01*
X011928Y011147D02*
X012692Y011147D01*
X012493Y011246D02*
X012127Y011246D01*
X012225Y011344D02*
X012395Y011344D01*
X012344Y011443D02*
X012276Y011443D01*
X012928Y011147D02*
X013692Y011147D01*
X013493Y011246D02*
X013127Y011246D01*
X013225Y011344D02*
X013395Y011344D01*
X013344Y011443D02*
X013276Y011443D01*
X013928Y011147D02*
X014692Y011147D01*
X014493Y011246D02*
X014127Y011246D01*
X014225Y011344D02*
X014395Y011344D01*
X014344Y011443D02*
X014276Y011443D01*
X014928Y011147D02*
X015692Y011147D01*
X015493Y011246D02*
X015127Y011246D01*
X015225Y011344D02*
X015395Y011344D01*
X015344Y011443D02*
X015276Y011443D01*
X015928Y011147D02*
X016692Y011147D01*
X016493Y011246D02*
X016127Y011246D01*
X016225Y011344D02*
X016395Y011344D01*
X016344Y011443D02*
X016276Y011443D01*
X016928Y011147D02*
X017692Y011147D01*
X017493Y011246D02*
X017127Y011246D01*
X017225Y011344D02*
X017395Y011344D01*
X017344Y011443D02*
X017276Y011443D01*
X017928Y011147D02*
X018692Y011147D01*
X018493Y011246D02*
X018127Y011246D01*
X018225Y011344D02*
X018395Y011344D01*
X018344Y011443D02*
X018276Y011443D01*
X018928Y011147D02*
X019742Y011147D01*
X019543Y011246D02*
X019127Y011246D01*
X019225Y011344D02*
X019445Y011344D01*
X019394Y011443D02*
X019276Y011443D01*
X019317Y011541D02*
X019353Y011541D01*
X019350Y011640D02*
X019320Y011640D01*
X019320Y011738D02*
X019350Y011738D01*
X019385Y011837D02*
X019285Y011837D01*
X019978Y011147D02*
X020742Y011147D01*
X020543Y011246D02*
X020177Y011246D01*
X020275Y011344D02*
X020445Y011344D01*
X020394Y011443D02*
X020326Y011443D01*
X020978Y011147D02*
X021742Y011147D01*
X021543Y011246D02*
X021177Y011246D01*
X021275Y011344D02*
X021445Y011344D01*
X021394Y011443D02*
X021326Y011443D01*
X021630Y012132D02*
X021691Y012132D01*
X021630Y012231D02*
X022610Y012231D01*
X022610Y012329D02*
X021630Y012329D01*
X021630Y012428D02*
X022610Y012428D01*
X022610Y012526D02*
X021630Y012526D01*
X021630Y012625D02*
X022610Y012625D01*
X022610Y012723D02*
X021630Y012723D01*
X021630Y012822D02*
X022610Y012822D01*
X022610Y012920D02*
X021630Y012920D01*
X021630Y013019D02*
X022610Y013019D01*
X022610Y013117D02*
X021630Y013117D01*
X021630Y013216D02*
X022610Y013216D01*
X022610Y013314D02*
X021630Y013314D01*
X021630Y013413D02*
X022610Y013413D01*
X022610Y013511D02*
X021630Y013511D01*
X021630Y013610D02*
X022610Y013610D01*
X022610Y013708D02*
X021630Y013708D01*
X021630Y013807D02*
X022610Y013807D01*
X022460Y013905D02*
X021630Y013905D01*
X021630Y014004D02*
X022380Y014004D01*
X022345Y014102D02*
X021630Y014102D01*
X021630Y014201D02*
X022345Y014201D01*
X022381Y014299D02*
X021630Y014299D01*
X021630Y014398D02*
X022390Y014398D01*
X022390Y014496D02*
X021630Y014496D01*
X021630Y014595D02*
X022390Y014595D01*
X022390Y014693D02*
X022099Y014693D01*
X022185Y014792D02*
X022390Y014792D01*
X022390Y014890D02*
X022225Y014890D01*
X022225Y014989D02*
X022390Y014989D01*
X022390Y015087D02*
X022194Y015087D01*
X022120Y015186D02*
X022390Y015186D01*
X022390Y015284D02*
X022182Y015284D01*
X022223Y015383D02*
X022390Y015383D01*
X022390Y015481D02*
X022225Y015481D01*
X022197Y015580D02*
X022390Y015580D01*
X022390Y015678D02*
X022128Y015678D01*
X022132Y015777D02*
X022420Y015777D01*
X022503Y015875D02*
X022317Y015875D01*
X022415Y015974D02*
X022602Y015974D01*
X022610Y016072D02*
X022514Y016072D01*
X021647Y016368D02*
X020430Y016368D01*
X020430Y016466D02*
X021604Y016466D01*
X021595Y016565D02*
X020430Y016565D01*
X020430Y016663D02*
X021616Y016663D01*
X021676Y016762D02*
X020430Y016762D01*
X020430Y016860D02*
X021655Y016860D01*
X021607Y016959D02*
X020430Y016959D01*
X020430Y017057D02*
X021595Y017057D01*
X021613Y017156D02*
X020430Y017156D01*
X020430Y017254D02*
X021669Y017254D01*
X021817Y017353D02*
X020430Y017353D01*
X021630Y014792D02*
X021635Y014792D01*
X021630Y014693D02*
X021722Y014693D01*
X022029Y012132D02*
X022610Y012132D01*
X022610Y012034D02*
X022198Y012034D01*
X022294Y011935D02*
X022526Y011935D01*
X022485Y011837D02*
X022335Y011837D01*
X022370Y011738D02*
X022450Y011738D01*
X022450Y011640D02*
X022370Y011640D01*
X022367Y011541D02*
X022453Y011541D01*
X022494Y011443D02*
X022326Y011443D01*
X022275Y011344D02*
X022545Y011344D01*
X022610Y011246D02*
X022177Y011246D01*
X021978Y011147D02*
X022610Y011147D01*
X020355Y009965D02*
X016674Y009965D01*
X016675Y009866D02*
X020330Y009866D01*
X020330Y009768D02*
X016646Y009768D01*
X016575Y009669D02*
X020330Y009669D01*
X022099Y007207D02*
X022610Y007207D01*
X022610Y007108D02*
X022185Y007108D01*
X022225Y007010D02*
X022610Y007010D01*
X022610Y006911D02*
X022225Y006911D01*
X022194Y006813D02*
X022591Y006813D01*
X022493Y006714D02*
X022120Y006714D01*
X022182Y006616D02*
X022394Y006616D01*
X022296Y006517D02*
X022223Y006517D01*
X022610Y006068D02*
X022610Y005882D01*
X022507Y005779D01*
X022431Y005703D01*
X022390Y005604D01*
X022390Y004221D01*
X022345Y004113D01*
X022345Y003987D01*
X022393Y003872D01*
X022482Y003783D01*
X022597Y003735D01*
X022610Y003735D01*
X022610Y001921D01*
X022528Y001839D01*
X022450Y001651D01*
X022450Y001449D01*
X022528Y001261D01*
X022610Y001179D01*
X022610Y001060D01*
X022010Y001060D01*
X022149Y001118D01*
X022292Y001261D01*
X022370Y001449D01*
X022370Y001651D01*
X022292Y001839D01*
X022149Y001982D01*
X021962Y002060D01*
X021759Y002060D01*
X021630Y002007D01*
X021630Y004703D01*
X021643Y004672D01*
X021732Y004583D01*
X021847Y004535D01*
X021973Y004535D01*
X022089Y004583D01*
X022177Y004672D01*
X022225Y004787D01*
X022225Y004913D01*
X022177Y005028D01*
X022106Y005100D01*
X022177Y005172D01*
X022225Y005287D01*
X022225Y005413D01*
X022177Y005528D01*
X022089Y005617D01*
X022069Y005625D01*
X022089Y005633D01*
X022136Y005680D01*
X022164Y005680D01*
X022263Y005721D01*
X022339Y005797D01*
X022339Y005797D01*
X022610Y006068D01*
X022610Y006025D02*
X022567Y006025D01*
X022610Y005926D02*
X022468Y005926D01*
X022556Y005828D02*
X022370Y005828D01*
X022458Y005729D02*
X022271Y005729D01*
X022401Y005631D02*
X022084Y005631D01*
X022173Y005532D02*
X022390Y005532D01*
X022390Y005434D02*
X022216Y005434D01*
X022225Y005335D02*
X022390Y005335D01*
X022390Y005237D02*
X022204Y005237D01*
X022144Y005138D02*
X022390Y005138D01*
X022390Y005040D02*
X022166Y005040D01*
X022213Y004941D02*
X022390Y004941D01*
X022390Y004843D02*
X022225Y004843D01*
X022207Y004744D02*
X022390Y004744D01*
X022390Y004646D02*
X022152Y004646D01*
X022003Y004547D02*
X022390Y004547D01*
X022390Y004449D02*
X021630Y004449D01*
X021630Y004547D02*
X021817Y004547D01*
X021669Y004646D02*
X021630Y004646D01*
X021630Y004350D02*
X022390Y004350D01*
X022390Y004252D02*
X021630Y004252D01*
X021630Y004153D02*
X022362Y004153D01*
X022345Y004055D02*
X021630Y004055D01*
X021630Y003956D02*
X022358Y003956D01*
X022407Y003858D02*
X021630Y003858D01*
X021630Y003759D02*
X022538Y003759D01*
X022610Y003661D02*
X021630Y003661D01*
X021630Y003562D02*
X022610Y003562D01*
X022610Y003464D02*
X021630Y003464D01*
X021630Y003365D02*
X022610Y003365D01*
X022610Y003267D02*
X021630Y003267D01*
X021630Y003168D02*
X022610Y003168D01*
X022610Y003070D02*
X021630Y003070D01*
X021630Y002971D02*
X022610Y002971D01*
X022610Y002873D02*
X021630Y002873D01*
X021630Y002774D02*
X022610Y002774D01*
X022610Y002676D02*
X021630Y002676D01*
X021630Y002577D02*
X022610Y002577D01*
X022610Y002479D02*
X021630Y002479D01*
X021630Y002380D02*
X022610Y002380D01*
X022610Y002282D02*
X021630Y002282D01*
X021630Y002183D02*
X022610Y002183D01*
X022610Y002085D02*
X021630Y002085D01*
X022139Y001986D02*
X022610Y001986D01*
X022577Y001888D02*
X022243Y001888D01*
X022313Y001789D02*
X022507Y001789D01*
X022466Y001691D02*
X022354Y001691D01*
X022370Y001592D02*
X022450Y001592D01*
X022450Y001494D02*
X022370Y001494D01*
X022348Y001395D02*
X022472Y001395D01*
X022513Y001297D02*
X022307Y001297D01*
X022230Y001198D02*
X022590Y001198D01*
X022610Y001100D02*
X022106Y001100D01*
X019328Y004843D02*
X018935Y004843D01*
X019033Y004941D02*
X019173Y004941D01*
X016079Y007601D02*
X016049Y007601D01*
X015981Y007502D02*
X015951Y007502D01*
X015882Y007404D02*
X015852Y007404D01*
X015790Y007305D02*
X015754Y007305D01*
X015696Y007207D02*
X015655Y007207D01*
X015602Y007108D02*
X015557Y007108D01*
X015509Y007010D02*
X015458Y007010D01*
X015370Y007798D02*
X015208Y007798D01*
X015009Y007896D02*
X015468Y007896D01*
X015567Y007995D02*
X015030Y007995D01*
X015030Y008093D02*
X015665Y008093D01*
X015764Y008192D02*
X015013Y008192D01*
X014973Y008290D02*
X015862Y008290D01*
X015961Y008389D02*
X014902Y008389D01*
X014797Y008487D02*
X016059Y008487D01*
X016158Y008586D02*
X014334Y008586D01*
X014355Y008684D02*
X016256Y008684D01*
X016355Y008783D02*
X014347Y008783D01*
X014304Y008881D02*
X016453Y008881D01*
X016552Y008980D02*
X014187Y008980D01*
X013893Y008980D02*
X011822Y008980D01*
X011781Y008881D02*
X012032Y008881D01*
X011875Y009078D02*
X016650Y009078D01*
X016749Y009177D02*
X012805Y009177D01*
X012861Y009275D02*
X016847Y009275D01*
X016276Y007798D02*
X016246Y007798D01*
X016178Y007699D02*
X016148Y007699D01*
X014020Y005924D02*
X013952Y005761D01*
X013809Y005618D01*
X013622Y005540D01*
X013419Y005540D01*
X013231Y005618D01*
X013088Y005761D01*
X013020Y005924D01*
X012952Y005761D01*
X012809Y005618D01*
X012622Y005540D01*
X012419Y005540D01*
X012231Y005618D01*
X012180Y005669D01*
X012180Y004441D01*
X012221Y004482D01*
X012409Y004560D01*
X012612Y004560D01*
X012799Y004482D01*
X012942Y004339D01*
X013010Y004176D01*
X013078Y004339D01*
X013221Y004482D01*
X013409Y004560D01*
X013612Y004560D01*
X013799Y004482D01*
X013942Y004339D01*
X014010Y004176D01*
X014078Y004339D01*
X014221Y004482D01*
X014409Y004560D01*
X014612Y004560D01*
X014799Y004482D01*
X014840Y004441D01*
X014840Y005649D01*
X014809Y005618D01*
X014622Y005540D01*
X014419Y005540D01*
X014231Y005618D01*
X014088Y005761D01*
X014020Y005924D01*
X013980Y005828D02*
X014060Y005828D01*
X014119Y005729D02*
X013921Y005729D01*
X013822Y005631D02*
X014218Y005631D01*
X014822Y005631D02*
X014840Y005631D01*
X014840Y005532D02*
X012180Y005532D01*
X012180Y005434D02*
X014840Y005434D01*
X014840Y005335D02*
X012180Y005335D01*
X012180Y005237D02*
X014840Y005237D01*
X014840Y005138D02*
X012180Y005138D01*
X012180Y005040D02*
X014840Y005040D01*
X014840Y004941D02*
X012180Y004941D01*
X012180Y004843D02*
X014840Y004843D01*
X014840Y004744D02*
X012180Y004744D01*
X012180Y004646D02*
X014840Y004646D01*
X014840Y004547D02*
X014642Y004547D01*
X014832Y004449D02*
X014840Y004449D01*
X014378Y004547D02*
X013642Y004547D01*
X013832Y004449D02*
X014188Y004449D01*
X014089Y004350D02*
X013931Y004350D01*
X013978Y004252D02*
X014042Y004252D01*
X013378Y004547D02*
X012642Y004547D01*
X012832Y004449D02*
X013188Y004449D01*
X013089Y004350D02*
X012931Y004350D01*
X012978Y004252D02*
X013042Y004252D01*
X012378Y004547D02*
X012180Y004547D01*
X012180Y004449D02*
X012188Y004449D01*
X012180Y005631D02*
X012218Y005631D01*
X012822Y005631D02*
X013218Y005631D01*
X013119Y005729D02*
X012921Y005729D01*
X012980Y005828D02*
X013060Y005828D01*
X011193Y008093D02*
X011191Y008093D01*
X011689Y008783D02*
X011777Y008872D01*
X007380Y013610D02*
X005820Y013610D01*
X005820Y013708D02*
X007380Y013708D01*
X007380Y013807D02*
X005820Y013807D01*
X005820Y013905D02*
X007380Y013905D01*
X007380Y014004D02*
X005820Y014004D01*
X005820Y014102D02*
X007380Y014102D01*
X007380Y014201D02*
X005820Y014201D01*
X005820Y014299D02*
X007380Y014299D01*
X007380Y014398D02*
X005820Y014398D01*
X005820Y014496D02*
X007380Y014496D01*
X007416Y014595D02*
X005820Y014595D01*
X005820Y014693D02*
X007503Y014693D01*
X007424Y014614D02*
X007424Y014614D01*
X007601Y014792D02*
X005820Y014792D01*
X005820Y014890D02*
X007699Y014890D01*
X007796Y014989D02*
X005820Y014989D01*
X005820Y015087D02*
X007894Y015087D01*
X007992Y015186D02*
X005820Y015186D01*
X005820Y015284D02*
X008090Y015284D01*
X008188Y015383D02*
X005820Y015383D01*
X005820Y015481D02*
X008286Y015481D01*
X008384Y015580D02*
X005820Y015580D01*
X005820Y015678D02*
X008482Y015678D01*
X008579Y015777D02*
X005820Y015777D01*
X005820Y015875D02*
X008677Y015875D01*
X008775Y015974D02*
X005820Y015974D01*
X005820Y016072D02*
X008873Y016072D01*
X008970Y016171D02*
X005820Y016171D01*
X005820Y016269D02*
X008970Y016269D01*
X008970Y016368D02*
X005820Y016368D01*
X005820Y016466D02*
X008273Y016466D01*
X008232Y016483D02*
X008347Y016435D01*
X008473Y016435D01*
X008589Y016483D01*
X008677Y016572D01*
X008725Y016687D01*
X008725Y016813D01*
X008677Y016928D01*
X008589Y017017D01*
X008473Y017065D01*
X008347Y017065D01*
X008232Y017017D01*
X008143Y016928D01*
X008095Y016813D01*
X008095Y016687D01*
X008143Y016572D01*
X008232Y016483D01*
X008150Y016565D02*
X005820Y016565D01*
X005820Y016663D02*
X008105Y016663D01*
X008095Y016762D02*
X005820Y016762D01*
X005820Y016860D02*
X008115Y016860D01*
X008173Y016959D02*
X005820Y016959D01*
X005820Y017057D02*
X008328Y017057D01*
X008492Y017057D02*
X009011Y017057D01*
X008970Y016959D02*
X008647Y016959D01*
X008705Y016860D02*
X008970Y016860D01*
X008970Y016762D02*
X008725Y016762D01*
X008715Y016663D02*
X008970Y016663D01*
X008970Y016565D02*
X008670Y016565D01*
X008548Y016466D02*
X008970Y016466D01*
X009091Y017156D02*
X005820Y017156D01*
X005820Y017254D02*
X009168Y017254D01*
X009245Y017353D02*
X005820Y017353D01*
X005820Y017451D02*
X009321Y017451D01*
X009398Y017550D02*
X005820Y017550D01*
X005820Y017648D02*
X009810Y017648D01*
X009810Y017747D02*
X005820Y017747D01*
X005820Y017845D02*
X009810Y017845D01*
X009810Y017944D02*
X005820Y017944D01*
X005820Y018042D02*
X009823Y018042D01*
X009876Y018141D02*
X005820Y018141D01*
X005820Y018239D02*
X006924Y018239D01*
X006829Y018338D02*
X005820Y018338D01*
X005820Y018436D02*
X006788Y018436D01*
X006773Y018535D02*
X005820Y018535D01*
X005820Y018633D02*
X006775Y018633D01*
X006816Y018732D02*
X005820Y018732D01*
X005820Y018830D02*
X006378Y018830D01*
X006142Y018929D02*
X005820Y018929D01*
X005820Y019027D02*
X006044Y019027D01*
X005956Y019126D02*
X005820Y019126D01*
X005820Y019224D02*
X005915Y019224D01*
X005874Y019323D02*
X005820Y019323D01*
X005820Y019421D02*
X005865Y019421D01*
X005865Y019520D02*
X005820Y019520D01*
X005820Y019618D02*
X005873Y019618D01*
X005913Y019717D02*
X005820Y019717D01*
X005820Y019815D02*
X005954Y019815D01*
X006040Y019914D02*
X005841Y019914D01*
X005869Y019981D02*
X005869Y019981D01*
X005900Y020012D02*
X006139Y020012D01*
X006973Y019027D02*
X011220Y019027D01*
X011286Y018929D02*
X007258Y018929D01*
X007062Y018929D02*
X006874Y018929D01*
X006893Y018830D02*
X006639Y018830D01*
X007397Y018239D02*
X010024Y018239D01*
D18*
X011460Y016950D02*
X011610Y016950D01*
X011910Y016650D01*
X011910Y013350D01*
X012310Y012950D01*
X012310Y012350D01*
X012510Y012150D01*
X014310Y012150D01*
X014810Y011650D01*
X015360Y012150D02*
X015360Y013250D01*
X015460Y013350D01*
X015460Y015800D01*
X016140Y016460D01*
X016580Y016420D02*
X016580Y016690D01*
X016300Y016970D01*
X016110Y017350D02*
X016460Y017700D01*
X017160Y017700D01*
X017760Y017100D01*
X018040Y017240D02*
X018040Y016690D01*
X016410Y015050D01*
X016410Y013050D01*
X016310Y012950D01*
X016310Y012200D01*
X016810Y011700D01*
X016810Y011650D01*
X015810Y011650D02*
X015810Y011700D01*
X015360Y012150D01*
X015810Y012650D02*
X015810Y015650D01*
X016580Y016420D01*
X017310Y016630D02*
X017590Y016630D01*
X017610Y016650D01*
X017310Y016630D02*
X016110Y015430D01*
X016110Y013500D01*
X016670Y014210D02*
X016860Y014400D01*
X018010Y014400D01*
X019160Y015550D01*
X019810Y015550D01*
X020160Y015900D01*
X020160Y017850D01*
X019760Y017400D02*
X019360Y017400D01*
X018590Y016630D01*
X018590Y015400D01*
X018110Y014900D01*
X017050Y014900D01*
X016730Y014880D01*
X015110Y013750D02*
X015110Y016300D01*
X016110Y017350D01*
X017810Y017500D02*
X018040Y017240D01*
X021360Y015450D02*
X021910Y016000D01*
X021960Y016050D01*
X022110Y016050D01*
X023060Y017000D01*
X023060Y017900D01*
X023110Y017950D01*
X023560Y016550D02*
X022660Y015650D01*
X022660Y014150D01*
X021360Y015450D02*
X021360Y012000D01*
X021010Y011650D01*
X020860Y011650D01*
X020360Y012150D02*
X020860Y012650D01*
X020360Y012150D02*
X018310Y012150D01*
X017810Y011650D01*
X015110Y013750D02*
X014560Y013200D01*
X013360Y013200D01*
X012810Y012650D01*
X016460Y007600D02*
X017160Y007600D01*
X017760Y007000D01*
X018040Y007140D02*
X017810Y007400D01*
X018040Y007140D02*
X018040Y006590D01*
X016410Y004950D01*
X016410Y002950D01*
X016310Y002850D01*
X016310Y002100D01*
X016810Y001600D01*
X016810Y001550D01*
X015810Y001550D02*
X015810Y001600D01*
X015360Y002050D01*
X015360Y003150D01*
X015460Y003250D01*
X015460Y005700D01*
X016140Y006360D01*
X016580Y006320D02*
X016580Y006590D01*
X016300Y006870D01*
X016110Y007250D02*
X016460Y007600D01*
X016110Y007250D02*
X015110Y006200D01*
X015110Y003650D01*
X014560Y003100D01*
X013360Y003100D01*
X012810Y002550D01*
X012310Y002250D02*
X012510Y002050D01*
X014310Y002050D01*
X014810Y001550D01*
X015810Y002550D02*
X015810Y005550D01*
X016580Y006320D01*
X017310Y006530D02*
X017590Y006530D01*
X017610Y006550D01*
X017310Y006530D02*
X016110Y005330D01*
X016110Y003400D01*
X016670Y004110D02*
X016860Y004300D01*
X018010Y004300D01*
X019160Y005450D01*
X019810Y005450D01*
X020160Y005800D01*
X020160Y007750D01*
X019760Y007300D02*
X019360Y007300D01*
X018590Y006530D01*
X018590Y005300D01*
X018110Y004800D01*
X017050Y004800D01*
X016730Y004780D01*
X018310Y002050D02*
X017810Y001550D01*
X018310Y002050D02*
X020360Y002050D01*
X020860Y002550D01*
X021360Y001900D02*
X021360Y005350D01*
X021910Y005900D01*
X021960Y005950D01*
X022110Y005950D01*
X023060Y006900D01*
X023060Y007800D01*
X023110Y007850D01*
X023560Y006450D02*
X022660Y005550D01*
X022660Y004050D01*
X021360Y001900D02*
X021010Y001550D01*
X020860Y001550D01*
X023560Y006450D02*
X024610Y006450D01*
X024610Y016550D02*
X023560Y016550D01*
X011910Y006550D02*
X011910Y003250D01*
X012310Y002850D01*
X012310Y002250D01*
X011910Y006550D02*
X011610Y006850D01*
X011460Y006850D01*
D19*
X011010Y007250D02*
X011010Y007500D01*
X012110Y008600D01*
X013910Y008600D01*
X014010Y008700D01*
X014040Y008700D01*
X011010Y007250D02*
X009610Y007250D01*
X009260Y006800D01*
X009260Y005950D01*
X007670Y004350D01*
X007670Y002440D01*
X008560Y001550D01*
X008560Y011650D02*
X007670Y012540D01*
X007670Y014450D01*
X009260Y016050D01*
X009260Y016900D01*
X009610Y017350D01*
X011010Y017350D01*
X011010Y017600D01*
X012110Y018700D01*
X013910Y018700D01*
X014010Y018800D01*
X014040Y018800D01*
M02*
