G75*
%MOIN*%
%OFA0B0*%
%FSLAX24Y24*%
%IPPOS*%
%LPD*%
%AMOC8*
5,1,8,0,0,1.08239X$1,22.5*
%
%ADD10C,0.0000*%
%ADD11R,0.0400X0.0450*%
%ADD12R,0.0220X0.0780*%
%ADD13C,0.0079*%
%ADD14R,0.0512X0.0355*%
%ADD15R,0.0355X0.0512*%
%ADD16C,0.0787*%
%ADD17C,0.0860*%
%ADD18R,0.0220X0.0500*%
%ADD19R,0.0669X0.0276*%
%ADD20R,0.0394X0.0551*%
%ADD21R,0.0210X0.0500*%
%ADD22R,0.0500X0.0210*%
%ADD23R,0.0551X0.0354*%
%ADD24C,0.0660*%
%ADD25C,0.0700*%
%ADD26R,0.0327X0.0248*%
%ADD27R,0.0276X0.0394*%
%ADD28C,0.0768*%
%ADD29C,0.0100*%
%ADD30OC8,0.0480*%
%ADD31R,0.0800X0.0800*%
%ADD32C,0.0800*%
%ADD33R,0.0236X0.0866*%
%ADD34R,0.1102X0.1102*%
D10*
X004460Y000876D02*
X004460Y017246D01*
X004462Y017300D01*
X004468Y017353D01*
X004477Y017405D01*
X004490Y017457D01*
X004507Y017508D01*
X004528Y017558D01*
X004552Y017605D01*
X004579Y017651D01*
X004610Y017695D01*
X004643Y017737D01*
X004680Y017776D01*
X004719Y017813D01*
X004761Y017846D01*
X004805Y017877D01*
X004851Y017904D01*
X004898Y017928D01*
X004948Y017949D01*
X004999Y017966D01*
X005051Y017979D01*
X005103Y017988D01*
X005156Y017994D01*
X005210Y017996D01*
X021202Y017996D01*
X021251Y018002D01*
X021300Y018004D01*
X021349Y018002D01*
X021398Y017997D01*
X021446Y017988D01*
X021494Y017975D01*
X021541Y017959D01*
X021586Y017940D01*
X021629Y017917D01*
X021671Y017891D01*
X021711Y017862D01*
X021748Y017830D01*
X021783Y017795D01*
X021815Y017758D01*
X021845Y017718D01*
X021871Y017677D01*
X021894Y017633D01*
X021914Y017588D01*
X021930Y017542D01*
X021943Y017494D01*
X021952Y017446D01*
X021952Y000876D01*
X021950Y000822D01*
X021944Y000769D01*
X021935Y000717D01*
X021922Y000665D01*
X021905Y000614D01*
X021884Y000564D01*
X021860Y000517D01*
X021833Y000471D01*
X021802Y000427D01*
X021769Y000385D01*
X021732Y000346D01*
X021693Y000309D01*
X021651Y000276D01*
X021607Y000245D01*
X021561Y000218D01*
X021514Y000194D01*
X021464Y000173D01*
X021413Y000156D01*
X021361Y000143D01*
X021309Y000134D01*
X021256Y000128D01*
X021202Y000126D01*
X005210Y000126D01*
X005156Y000128D01*
X005103Y000134D01*
X005051Y000143D01*
X004999Y000156D01*
X004948Y000173D01*
X004898Y000194D01*
X004851Y000218D01*
X004805Y000245D01*
X004761Y000276D01*
X004719Y000309D01*
X004680Y000346D01*
X004643Y000385D01*
X004610Y000427D01*
X004579Y000471D01*
X004552Y000517D01*
X004528Y000564D01*
X004507Y000614D01*
X004490Y000665D01*
X004477Y000717D01*
X004468Y000769D01*
X004462Y000822D01*
X004460Y000876D01*
D11*
X020530Y009336D03*
X021230Y009336D03*
X020880Y008536D03*
D12*
X008410Y009146D03*
X007910Y009146D03*
X007410Y009146D03*
X006910Y009146D03*
X006910Y007206D03*
X007410Y007206D03*
X007910Y007206D03*
X008410Y007206D03*
D13*
X010037Y009064D02*
X010037Y009300D01*
X010037Y009064D02*
X009603Y009064D01*
X009603Y009300D01*
X010037Y009300D01*
X010037Y009142D02*
X009603Y009142D01*
X009603Y009220D02*
X010037Y009220D01*
X010037Y009298D02*
X009603Y009298D01*
X010037Y009851D02*
X010037Y010087D01*
X010037Y009851D02*
X009603Y009851D01*
X009603Y010087D01*
X010037Y010087D01*
X010037Y009929D02*
X009603Y009929D01*
X009603Y010007D02*
X010037Y010007D01*
X010037Y010085D02*
X009603Y010085D01*
X008921Y009689D02*
X008685Y009689D01*
X008685Y010123D01*
X008921Y010123D01*
X008921Y009689D01*
X008921Y009767D02*
X008685Y009767D01*
X008685Y009845D02*
X008921Y009845D01*
X008921Y009923D02*
X008685Y009923D01*
X008685Y010001D02*
X008921Y010001D01*
X008921Y010079D02*
X008685Y010079D01*
X008134Y009689D02*
X007898Y009689D01*
X007898Y010123D01*
X008134Y010123D01*
X008134Y009689D01*
X008134Y009767D02*
X007898Y009767D01*
X007898Y009845D02*
X008134Y009845D01*
X008134Y009923D02*
X007898Y009923D01*
X007898Y010001D02*
X008134Y010001D01*
X008134Y010079D02*
X007898Y010079D01*
X012643Y010051D02*
X012643Y010287D01*
X013077Y010287D01*
X013077Y010051D01*
X012643Y010051D01*
X012643Y010129D02*
X013077Y010129D01*
X013077Y010207D02*
X012643Y010207D01*
X012643Y010285D02*
X013077Y010285D01*
X013648Y009859D02*
X013884Y009859D01*
X013648Y009859D02*
X013648Y010293D01*
X013884Y010293D01*
X013884Y009859D01*
X013884Y009937D02*
X013648Y009937D01*
X013648Y010015D02*
X013884Y010015D01*
X013884Y010093D02*
X013648Y010093D01*
X013648Y010171D02*
X013884Y010171D01*
X013884Y010249D02*
X013648Y010249D01*
X014435Y009859D02*
X014671Y009859D01*
X014435Y009859D02*
X014435Y010293D01*
X014671Y010293D01*
X014671Y009859D01*
X014671Y009937D02*
X014435Y009937D01*
X014435Y010015D02*
X014671Y010015D01*
X014671Y010093D02*
X014435Y010093D01*
X014435Y010171D02*
X014671Y010171D01*
X014671Y010249D02*
X014435Y010249D01*
X014415Y009463D02*
X014651Y009463D01*
X014651Y009029D01*
X014415Y009029D01*
X014415Y009463D01*
X014415Y009107D02*
X014651Y009107D01*
X014651Y009185D02*
X014415Y009185D01*
X014415Y009263D02*
X014651Y009263D01*
X014651Y009341D02*
X014415Y009341D01*
X014415Y009419D02*
X014651Y009419D01*
X015427Y009437D02*
X015427Y009201D01*
X014993Y009201D01*
X014993Y009437D01*
X015427Y009437D01*
X015427Y009279D02*
X014993Y009279D01*
X014993Y009357D02*
X015427Y009357D01*
X015427Y009435D02*
X014993Y009435D01*
X015427Y008650D02*
X015427Y008414D01*
X014993Y008414D01*
X014993Y008650D01*
X015427Y008650D01*
X015427Y008492D02*
X014993Y008492D01*
X014993Y008570D02*
X015427Y008570D01*
X015427Y008648D02*
X014993Y008648D01*
X013473Y008637D02*
X013473Y008401D01*
X013473Y008637D02*
X013907Y008637D01*
X013907Y008401D01*
X013473Y008401D01*
X013473Y008479D02*
X013907Y008479D01*
X013907Y008557D02*
X013473Y008557D01*
X013473Y008635D02*
X013907Y008635D01*
X013864Y009463D02*
X013628Y009463D01*
X013864Y009463D02*
X013864Y009029D01*
X013628Y009029D01*
X013628Y009463D01*
X013628Y009107D02*
X013864Y009107D01*
X013864Y009185D02*
X013628Y009185D01*
X013628Y009263D02*
X013864Y009263D01*
X013864Y009341D02*
X013628Y009341D01*
X013628Y009419D02*
X013864Y009419D01*
X012643Y009500D02*
X012643Y009264D01*
X012643Y009500D02*
X013077Y009500D01*
X013077Y009264D01*
X012643Y009264D01*
X012643Y009342D02*
X013077Y009342D01*
X013077Y009420D02*
X012643Y009420D01*
X012643Y009498D02*
X013077Y009498D01*
X013473Y007850D02*
X013473Y007614D01*
X013473Y007850D02*
X013907Y007850D01*
X013907Y007614D01*
X013473Y007614D01*
X013473Y007692D02*
X013907Y007692D01*
X013907Y007770D02*
X013473Y007770D01*
X013473Y007848D02*
X013907Y007848D01*
X017093Y008634D02*
X017093Y008870D01*
X017527Y008870D01*
X017527Y008634D01*
X017093Y008634D01*
X017093Y008712D02*
X017527Y008712D01*
X017527Y008790D02*
X017093Y008790D01*
X017093Y008868D02*
X017527Y008868D01*
X017093Y009421D02*
X017093Y009657D01*
X017527Y009657D01*
X017527Y009421D01*
X017093Y009421D01*
X017093Y009499D02*
X017527Y009499D01*
X017527Y009577D02*
X017093Y009577D01*
X017093Y009655D02*
X017527Y009655D01*
X014971Y011643D02*
X014735Y011643D01*
X014971Y011643D02*
X014971Y011209D01*
X014735Y011209D01*
X014735Y011643D01*
X014735Y011287D02*
X014971Y011287D01*
X014971Y011365D02*
X014735Y011365D01*
X014735Y011443D02*
X014971Y011443D01*
X014971Y011521D02*
X014735Y011521D01*
X014735Y011599D02*
X014971Y011599D01*
X014184Y011643D02*
X013948Y011643D01*
X014184Y011643D02*
X014184Y011209D01*
X013948Y011209D01*
X013948Y011643D01*
X013948Y011287D02*
X014184Y011287D01*
X014184Y011365D02*
X013948Y011365D01*
X013948Y011443D02*
X014184Y011443D01*
X014184Y011521D02*
X013948Y011521D01*
X013948Y011599D02*
X014184Y011599D01*
X016388Y015113D02*
X016624Y015113D01*
X016624Y014679D01*
X016388Y014679D01*
X016388Y015113D01*
X016388Y014757D02*
X016624Y014757D01*
X016624Y014835D02*
X016388Y014835D01*
X016388Y014913D02*
X016624Y014913D01*
X016624Y014991D02*
X016388Y014991D01*
X016388Y015069D02*
X016624Y015069D01*
X017175Y015113D02*
X017411Y015113D01*
X017411Y014679D01*
X017175Y014679D01*
X017175Y015113D01*
X017175Y014757D02*
X017411Y014757D01*
X017411Y014835D02*
X017175Y014835D01*
X017175Y014913D02*
X017411Y014913D01*
X017411Y014991D02*
X017175Y014991D01*
X017175Y015069D02*
X017411Y015069D01*
X015211Y015339D02*
X014975Y015339D01*
X014975Y015773D01*
X015211Y015773D01*
X015211Y015339D01*
X015211Y015417D02*
X014975Y015417D01*
X014975Y015495D02*
X015211Y015495D01*
X015211Y015573D02*
X014975Y015573D01*
X014975Y015651D02*
X015211Y015651D01*
X015211Y015729D02*
X014975Y015729D01*
X014424Y015339D02*
X014188Y015339D01*
X014188Y015773D01*
X014424Y015773D01*
X014424Y015339D01*
X014424Y015417D02*
X014188Y015417D01*
X014188Y015495D02*
X014424Y015495D01*
X014424Y015573D02*
X014188Y015573D01*
X014188Y015651D02*
X014424Y015651D01*
X014424Y015729D02*
X014188Y015729D01*
X013871Y015359D02*
X013635Y015359D01*
X013635Y015793D01*
X013871Y015793D01*
X013871Y015359D01*
X013871Y015437D02*
X013635Y015437D01*
X013635Y015515D02*
X013871Y015515D01*
X013871Y015593D02*
X013635Y015593D01*
X013635Y015671D02*
X013871Y015671D01*
X013871Y015749D02*
X013635Y015749D01*
X013084Y015359D02*
X012848Y015359D01*
X012848Y015793D01*
X013084Y015793D01*
X013084Y015359D01*
X013084Y015437D02*
X012848Y015437D01*
X012848Y015515D02*
X013084Y015515D01*
X013084Y015593D02*
X012848Y015593D01*
X012848Y015671D02*
X013084Y015671D01*
X013084Y015749D02*
X012848Y015749D01*
X020338Y012729D02*
X020574Y012729D01*
X020338Y012729D02*
X020338Y013163D01*
X020574Y013163D01*
X020574Y012729D01*
X020574Y012807D02*
X020338Y012807D01*
X020338Y012885D02*
X020574Y012885D01*
X020574Y012963D02*
X020338Y012963D01*
X020338Y013041D02*
X020574Y013041D01*
X020574Y013119D02*
X020338Y013119D01*
X021125Y012729D02*
X021361Y012729D01*
X021125Y012729D02*
X021125Y013163D01*
X021361Y013163D01*
X021361Y012729D01*
X021361Y012807D02*
X021125Y012807D01*
X021125Y012885D02*
X021361Y012885D01*
X021361Y012963D02*
X021125Y012963D01*
X021125Y013041D02*
X021361Y013041D01*
X021361Y013119D02*
X021125Y013119D01*
X021397Y012387D02*
X021397Y012151D01*
X020963Y012151D01*
X020963Y012387D01*
X021397Y012387D01*
X021397Y012229D02*
X020963Y012229D01*
X020963Y012307D02*
X021397Y012307D01*
X021397Y012385D02*
X020963Y012385D01*
X021397Y011600D02*
X021397Y011364D01*
X020963Y011364D01*
X020963Y011600D01*
X021397Y011600D01*
X021397Y011442D02*
X020963Y011442D01*
X020963Y011520D02*
X021397Y011520D01*
X021397Y011598D02*
X020963Y011598D01*
X021135Y009809D02*
X021371Y009809D01*
X021135Y009809D02*
X021135Y010243D01*
X021371Y010243D01*
X021371Y009809D01*
X021371Y009887D02*
X021135Y009887D01*
X021135Y009965D02*
X021371Y009965D01*
X021371Y010043D02*
X021135Y010043D01*
X021135Y010121D02*
X021371Y010121D01*
X021371Y010199D02*
X021135Y010199D01*
X020584Y009809D02*
X020348Y009809D01*
X020348Y010243D01*
X020584Y010243D01*
X020584Y009809D01*
X020584Y009887D02*
X020348Y009887D01*
X020348Y009965D02*
X020584Y009965D01*
X020584Y010043D02*
X020348Y010043D01*
X020348Y010121D02*
X020584Y010121D01*
X020584Y010199D02*
X020348Y010199D01*
D14*
X018060Y009508D03*
X018060Y008720D03*
X018060Y008319D03*
X018060Y007532D03*
X016260Y007712D03*
X016260Y008499D03*
X014520Y008499D03*
X014520Y007712D03*
X010670Y009172D03*
X010670Y009959D03*
X007260Y009882D03*
X007260Y010669D03*
X013040Y016602D03*
X013040Y017389D03*
X015830Y016089D03*
X015830Y015302D03*
X017860Y014932D03*
X017860Y015719D03*
X018060Y016662D03*
X018060Y017449D03*
X019050Y017459D03*
X019050Y016672D03*
X020010Y016632D03*
X020010Y017419D03*
X019860Y015619D03*
X019860Y014832D03*
D15*
X017263Y015686D03*
X016476Y015686D03*
X016203Y016806D03*
X015416Y016806D03*
X020466Y010926D03*
X021253Y010926D03*
X021053Y007926D03*
X020266Y007926D03*
X009803Y008726D03*
X009016Y008726D03*
D16*
X014728Y016613D03*
X020791Y016613D03*
D17*
X018744Y005038D03*
X016775Y005038D03*
D18*
X012190Y009096D03*
X011430Y009096D03*
X011430Y010056D03*
X011810Y010056D03*
X012190Y010056D03*
D19*
X020851Y013914D03*
X020851Y014387D03*
X020851Y014859D03*
D20*
X017384Y016493D03*
X016635Y016493D03*
X017010Y017359D03*
D21*
X016922Y013851D03*
X017237Y013851D03*
X017552Y013851D03*
X017867Y013851D03*
X018182Y013851D03*
X018497Y013851D03*
X018812Y013851D03*
X019127Y013851D03*
X019127Y010471D03*
X018812Y010471D03*
X018497Y010471D03*
X018182Y010471D03*
X017867Y010471D03*
X017552Y010471D03*
X017237Y010471D03*
X016922Y010471D03*
D22*
X016334Y011059D03*
X016334Y011374D03*
X016334Y011689D03*
X016334Y012003D03*
X016334Y012318D03*
X016334Y012633D03*
X016334Y012948D03*
X016334Y013263D03*
X019714Y013263D03*
X019714Y012948D03*
X019714Y012633D03*
X019714Y012318D03*
X019714Y012003D03*
X019714Y011689D03*
X019714Y011374D03*
X019714Y011059D03*
D23*
X011799Y013175D03*
X011799Y013675D03*
X011799Y014175D03*
X011799Y014675D03*
X011799Y015175D03*
X011799Y015675D03*
X011799Y016175D03*
X011799Y016675D03*
D24*
X014475Y003026D03*
X016444Y003026D03*
D25*
X016480Y001076D03*
X014480Y001076D03*
D26*
X012860Y008073D03*
X012860Y008978D03*
D27*
X005604Y009223D03*
X005230Y009223D03*
X004855Y009223D03*
X004855Y010168D03*
X005230Y010168D03*
X005604Y010168D03*
D28*
X005200Y011076D03*
X008200Y011076D03*
X010050Y011076D03*
X013050Y011076D03*
X010050Y007076D03*
X008200Y005076D03*
X010050Y004076D03*
X005200Y004076D03*
X005200Y007076D03*
D29*
X018760Y008251D02*
X019060Y008251D01*
X019060Y007801D01*
X018760Y007801D01*
X018760Y008251D01*
X018760Y007900D02*
X019060Y007900D01*
X019060Y007999D02*
X018760Y007999D01*
X018760Y008098D02*
X019060Y008098D01*
X019060Y008197D02*
X018760Y008197D01*
X018753Y008607D02*
X019053Y008607D01*
X018753Y008607D02*
X018753Y009057D01*
X019053Y009057D01*
X019053Y008607D01*
X019053Y008706D02*
X018753Y008706D01*
X018753Y008805D02*
X019053Y008805D01*
X019053Y008904D02*
X018753Y008904D01*
X018753Y009003D02*
X019053Y009003D01*
X019453Y008607D02*
X019753Y008607D01*
X019453Y008607D02*
X019453Y009057D01*
X019753Y009057D01*
X019753Y008607D01*
X019753Y008706D02*
X019453Y008706D01*
X019453Y008805D02*
X019753Y008805D01*
X019753Y008904D02*
X019453Y008904D01*
X019453Y009003D02*
X019753Y009003D01*
X019760Y009851D02*
X019460Y009851D01*
X019760Y009851D02*
X019760Y009401D01*
X019460Y009401D01*
X019460Y009851D01*
X019460Y009500D02*
X019760Y009500D01*
X019760Y009599D02*
X019460Y009599D01*
X019460Y009698D02*
X019760Y009698D01*
X019760Y009797D02*
X019460Y009797D01*
X019060Y009851D02*
X018760Y009851D01*
X019060Y009851D02*
X019060Y009401D01*
X018760Y009401D01*
X018760Y009851D01*
X018760Y009500D02*
X019060Y009500D01*
X019060Y009599D02*
X018760Y009599D01*
X018760Y009698D02*
X019060Y009698D01*
X019060Y009797D02*
X018760Y009797D01*
X019460Y008251D02*
X019760Y008251D01*
X019760Y007801D01*
X019460Y007801D01*
X019460Y008251D01*
X019460Y007900D02*
X019760Y007900D01*
X019760Y007999D02*
X019460Y007999D01*
X019460Y008098D02*
X019760Y008098D01*
X019760Y008197D02*
X019460Y008197D01*
X018485Y014926D02*
X018485Y015226D01*
X018935Y015226D01*
X018935Y014926D01*
X018485Y014926D01*
X018485Y015025D02*
X018935Y015025D01*
X018935Y015124D02*
X018485Y015124D01*
X018485Y015223D02*
X018935Y015223D01*
X018485Y015626D02*
X018485Y015926D01*
X018935Y015926D01*
X018935Y015626D01*
X018485Y015626D01*
X018485Y015725D02*
X018935Y015725D01*
X018935Y015824D02*
X018485Y015824D01*
X018485Y015923D02*
X018935Y015923D01*
D30*
X013260Y014676D03*
X013260Y013676D03*
X013260Y012676D03*
D31*
X012510Y001876D03*
X007860Y001876D03*
X018610Y001926D03*
D32*
X020610Y001926D03*
X010510Y001876D03*
X005860Y001876D03*
D33*
X013910Y012502D03*
X014410Y012502D03*
X014910Y012502D03*
X015410Y012502D03*
X015410Y014549D03*
X014910Y014549D03*
X014410Y014549D03*
X013910Y014549D03*
D34*
X013418Y004976D03*
X015701Y004976D03*
M02*
