G75*
%MOIN*%
%OFA0B0*%
%FSLAX24Y24*%
%IPPOS*%
%LPD*%
%AMOC8*
5,1,8,0,0,1.08239X$1,22.5*
%
%ADD10C,0.0000*%
%ADD11C,0.0500*%
D10*
X004460Y000876D02*
X004460Y017246D01*
X004462Y017300D01*
X004468Y017353D01*
X004477Y017405D01*
X004490Y017457D01*
X004507Y017508D01*
X004528Y017558D01*
X004552Y017605D01*
X004579Y017651D01*
X004610Y017695D01*
X004643Y017737D01*
X004680Y017776D01*
X004719Y017813D01*
X004761Y017846D01*
X004805Y017877D01*
X004851Y017904D01*
X004898Y017928D01*
X004948Y017949D01*
X004999Y017966D01*
X005051Y017979D01*
X005103Y017988D01*
X005156Y017994D01*
X005210Y017996D01*
X021202Y017996D01*
X021251Y018002D01*
X021300Y018004D01*
X021349Y018002D01*
X021398Y017997D01*
X021446Y017988D01*
X021494Y017975D01*
X021541Y017959D01*
X021586Y017940D01*
X021629Y017917D01*
X021671Y017891D01*
X021711Y017862D01*
X021748Y017830D01*
X021783Y017795D01*
X021815Y017758D01*
X021845Y017718D01*
X021871Y017677D01*
X021894Y017633D01*
X021914Y017588D01*
X021930Y017542D01*
X021943Y017494D01*
X021952Y017446D01*
X021952Y000876D01*
X021950Y000822D01*
X021944Y000769D01*
X021935Y000717D01*
X021922Y000665D01*
X021905Y000614D01*
X021884Y000564D01*
X021860Y000517D01*
X021833Y000471D01*
X021802Y000427D01*
X021769Y000385D01*
X021732Y000346D01*
X021693Y000309D01*
X021651Y000276D01*
X021607Y000245D01*
X021561Y000218D01*
X021514Y000194D01*
X021464Y000173D01*
X021413Y000156D01*
X021361Y000143D01*
X021309Y000134D01*
X021256Y000128D01*
X021202Y000126D01*
X005210Y000126D01*
X005156Y000128D01*
X005103Y000134D01*
X005051Y000143D01*
X004999Y000156D01*
X004948Y000173D01*
X004898Y000194D01*
X004851Y000218D01*
X004805Y000245D01*
X004761Y000276D01*
X004719Y000309D01*
X004680Y000346D01*
X004643Y000385D01*
X004610Y000427D01*
X004579Y000471D01*
X004552Y000517D01*
X004528Y000564D01*
X004507Y000614D01*
X004490Y000665D01*
X004477Y000717D01*
X004468Y000769D01*
X004462Y000822D01*
X004460Y000876D01*
D11*
X006860Y000926D02*
X006860Y004926D01*
X006660Y005926D02*
X010660Y005926D01*
X009060Y005726D02*
X009060Y000926D01*
X011510Y000926D02*
X011510Y004526D01*
X012660Y005926D02*
X017860Y005926D01*
X021060Y005926D01*
X017860Y005926D02*
X017860Y004926D01*
X016860Y003926D01*
X015460Y003926D01*
X015460Y002126D01*
X017060Y002126D01*
X017085Y002118D02*
X018317Y003100D01*
X018460Y003126D02*
X019360Y003126D01*
X019510Y002976D01*
X019510Y001376D01*
X019960Y000926D01*
X015460Y000626D02*
X015460Y002126D01*
X011010Y008026D02*
X008810Y008026D01*
X006460Y008026D02*
X005060Y008026D01*
M02*
