G75*
%MOIN*%
%OFA0B0*%
%FSLAX24Y24*%
%IPPOS*%
%LPD*%
%AMOC8*
5,1,8,0,0,1.08239X$1,22.5*
%
%ADD10C,0.0000*%
%ADD11C,0.0787*%
%ADD12C,0.0860*%
%ADD13C,0.0660*%
%ADD14C,0.0700*%
%ADD15C,0.0768*%
%ADD16OC8,0.0480*%
%ADD17R,0.0800X0.0800*%
%ADD18C,0.0800*%
%ADD19R,0.0236X0.0610*%
%ADD20R,0.0472X0.0709*%
%ADD21R,0.0394X0.0394*%
D10*
X003485Y000850D02*
X003485Y017220D01*
X003487Y017274D01*
X003493Y017327D01*
X003502Y017379D01*
X003515Y017431D01*
X003532Y017482D01*
X003553Y017532D01*
X003577Y017579D01*
X003604Y017625D01*
X003635Y017669D01*
X003668Y017711D01*
X003705Y017750D01*
X003744Y017787D01*
X003786Y017820D01*
X003830Y017851D01*
X003876Y017878D01*
X003923Y017902D01*
X003973Y017923D01*
X004024Y017940D01*
X004076Y017953D01*
X004128Y017962D01*
X004181Y017968D01*
X004235Y017970D01*
X020227Y017970D01*
X020276Y017976D01*
X020325Y017978D01*
X020374Y017976D01*
X020423Y017971D01*
X020471Y017962D01*
X020519Y017949D01*
X020566Y017933D01*
X020611Y017914D01*
X020654Y017891D01*
X020696Y017865D01*
X020736Y017836D01*
X020773Y017804D01*
X020808Y017769D01*
X020840Y017732D01*
X020870Y017692D01*
X020896Y017651D01*
X020919Y017607D01*
X020939Y017562D01*
X020955Y017516D01*
X020968Y017468D01*
X020977Y017420D01*
X020977Y000850D01*
X020975Y000796D01*
X020969Y000743D01*
X020960Y000691D01*
X020947Y000639D01*
X020930Y000588D01*
X020909Y000538D01*
X020885Y000491D01*
X020858Y000445D01*
X020827Y000401D01*
X020794Y000359D01*
X020757Y000320D01*
X020718Y000283D01*
X020676Y000250D01*
X020632Y000219D01*
X020586Y000192D01*
X020539Y000168D01*
X020489Y000147D01*
X020438Y000130D01*
X020386Y000117D01*
X020334Y000108D01*
X020281Y000102D01*
X020227Y000100D01*
X004235Y000100D01*
X004181Y000102D01*
X004128Y000108D01*
X004076Y000117D01*
X004024Y000130D01*
X003973Y000147D01*
X003923Y000168D01*
X003876Y000192D01*
X003830Y000219D01*
X003786Y000250D01*
X003744Y000283D01*
X003705Y000320D01*
X003668Y000359D01*
X003635Y000401D01*
X003604Y000445D01*
X003577Y000491D01*
X003553Y000538D01*
X003532Y000588D01*
X003515Y000639D01*
X003502Y000691D01*
X003493Y000743D01*
X003487Y000796D01*
X003485Y000850D01*
D11*
X013753Y016587D03*
X019816Y016587D03*
D12*
X017769Y005013D03*
X015801Y005013D03*
D13*
X015469Y003000D03*
X013501Y003000D03*
D14*
X013505Y001050D03*
X015505Y001050D03*
D15*
X009075Y004050D03*
X007225Y005050D03*
X009075Y007050D03*
X009075Y011050D03*
X007225Y011050D03*
X004225Y011050D03*
X004225Y007050D03*
X004225Y004050D03*
X012075Y011050D03*
D16*
X012285Y012650D03*
X012285Y013650D03*
X012285Y014650D03*
D17*
X011535Y001850D03*
X006885Y001850D03*
X017635Y001900D03*
D18*
X019635Y001900D03*
X009535Y001850D03*
X004885Y001850D03*
D19*
X008597Y012850D03*
X008991Y012850D03*
X009385Y012850D03*
X009779Y012850D03*
X010172Y012850D03*
X010303Y014550D03*
X009910Y014550D03*
X009516Y014550D03*
X009122Y014550D03*
X008729Y014550D03*
X008335Y014550D03*
X008335Y016300D03*
X008729Y016300D03*
X009122Y016300D03*
X009516Y016300D03*
X009910Y016300D03*
X010303Y016300D03*
D20*
X010815Y015424D03*
X010815Y013674D03*
X010684Y011974D03*
X008086Y011974D03*
X007823Y013674D03*
X007823Y015424D03*
D21*
X010947Y016885D03*
X010947Y017515D03*
X012522Y017515D03*
X012522Y016885D03*
M02*
