G75*
%MOIN*%
%OFA0B0*%
%FSLAX24Y24*%
%IPPOS*%
%LPD*%
%AMOC8*
5,1,8,0,0,1.08239X$1,22.5*
%
%ADD10C,0.0000*%
%ADD11C,0.0020*%
%ADD12C,0.0030*%
%ADD13C,0.0050*%
%ADD14C,0.0080*%
%ADD15C,0.0060*%
%ADD16C,0.0100*%
%ADD17R,0.0146X0.0002*%
%ADD18R,0.0139X0.0002*%
%ADD19R,0.0146X0.0002*%
%ADD20R,0.0139X0.0002*%
%ADD21R,0.0154X0.0002*%
%ADD22R,0.0154X0.0002*%
%ADD23R,0.0158X0.0002*%
%ADD24R,0.0168X0.0002*%
%ADD25R,0.0158X0.0002*%
%ADD26R,0.0168X0.0002*%
%ADD27R,0.0166X0.0002*%
%ADD28R,0.0166X0.0002*%
%ADD29R,0.0173X0.0002*%
%ADD30R,0.0173X0.0002*%
%ADD31R,0.0180X0.0002*%
%ADD32R,0.0180X0.0002*%
%ADD33R,0.0026X0.0002*%
%ADD34R,0.0026X0.0002*%
%ADD35R,0.0187X0.0002*%
%ADD36R,0.0046X0.0002*%
%ADD37R,0.0048X0.0002*%
%ADD38R,0.0187X0.0002*%
%ADD39R,0.0046X0.0002*%
%ADD40R,0.0048X0.0002*%
%ADD41R,0.0060X0.0002*%
%ADD42R,0.0192X0.0002*%
%ADD43R,0.0192X0.0002*%
%ADD44R,0.0079X0.0002*%
%ADD45R,0.0079X0.0002*%
%ADD46R,0.0228X0.0002*%
%ADD47R,0.0094X0.0002*%
%ADD48R,0.0221X0.0002*%
%ADD49R,0.0228X0.0002*%
%ADD50R,0.0094X0.0002*%
%ADD51R,0.0221X0.0002*%
%ADD52R,0.0259X0.0002*%
%ADD53R,0.0115X0.0002*%
%ADD54R,0.0113X0.0002*%
%ADD55R,0.0266X0.0002*%
%ADD56R,0.0259X0.0002*%
%ADD57R,0.0115X0.0002*%
%ADD58R,0.0113X0.0002*%
%ADD59R,0.0266X0.0002*%
%ADD60R,0.0288X0.0002*%
%ADD61R,0.0125X0.0002*%
%ADD62R,0.0307X0.0002*%
%ADD63R,0.0300X0.0002*%
%ADD64R,0.0307X0.0002*%
%ADD65R,0.0300X0.0002*%
%ADD66R,0.0322X0.0002*%
%ADD67R,0.0161X0.0002*%
%ADD68R,0.0322X0.0002*%
%ADD69R,0.0161X0.0002*%
%ADD70R,0.0334X0.0002*%
%ADD71R,0.0326X0.0002*%
%ADD72R,0.0334X0.0002*%
%ADD73R,0.0326X0.0002*%
%ADD74R,0.0526X0.0002*%
%ADD75R,0.0528X0.0002*%
%ADD76R,0.0526X0.0002*%
%ADD77R,0.0528X0.0002*%
%ADD78R,0.0526X0.0002*%
%ADD79R,0.0533X0.0002*%
%ADD80R,0.0533X0.0002*%
%ADD81R,0.0533X0.0002*%
%ADD82R,0.0533X0.0002*%
%ADD83R,0.0526X0.0002*%
%ADD84R,0.0521X0.0002*%
%ADD85R,0.0518X0.0002*%
%ADD86R,0.0521X0.0002*%
%ADD87R,0.0518X0.0002*%
%ADD88R,0.0514X0.0002*%
%ADD89R,0.0511X0.0002*%
%ADD90R,0.0514X0.0002*%
%ADD91R,0.0511X0.0002*%
%ADD92R,0.0499X0.0002*%
%ADD93R,0.0506X0.0002*%
%ADD94R,0.0499X0.0002*%
%ADD95R,0.0506X0.0002*%
%ADD96R,0.0502X0.0002*%
%ADD97R,0.0502X0.0002*%
%ADD98R,0.0494X0.0002*%
%ADD99R,0.0480X0.0002*%
%ADD100R,0.0480X0.0002*%
%ADD101R,0.0466X0.0002*%
%ADD102R,0.0473X0.0002*%
%ADD103R,0.0466X0.0002*%
%ADD104R,0.0473X0.0002*%
%ADD105R,0.0458X0.0002*%
%ADD106R,0.0451X0.0002*%
%ADD107R,0.0454X0.0002*%
%ADD108R,0.0451X0.0002*%
%ADD109R,0.0454X0.0002*%
%ADD110R,0.0446X0.0002*%
%ADD111R,0.0446X0.0002*%
%ADD112R,0.0439X0.0002*%
%ADD113R,0.0439X0.0002*%
%ADD114R,0.0434X0.0002*%
%ADD115R,0.0427X0.0002*%
%ADD116R,0.0434X0.0002*%
%ADD117R,0.0427X0.0002*%
%ADD118R,0.0413X0.0002*%
%ADD119R,0.0420X0.0002*%
%ADD120R,0.0413X0.0002*%
%ADD121R,0.0420X0.0002*%
%ADD122R,0.0413X0.0002*%
%ADD123R,0.0413X0.0002*%
%ADD124R,0.0022X0.0002*%
%ADD125R,0.0415X0.0002*%
%ADD126R,0.0022X0.0002*%
%ADD127R,0.0415X0.0002*%
%ADD128R,0.0034X0.0002*%
%ADD129R,0.0038X0.0002*%
%ADD130R,0.0060X0.0002*%
%ADD131R,0.0334X0.0002*%
%ADD132R,0.0038X0.0002*%
%ADD133R,0.0334X0.0002*%
%ADD134R,0.0074X0.0002*%
%ADD135R,0.0305X0.0002*%
%ADD136R,0.0072X0.0002*%
%ADD137R,0.0074X0.0002*%
%ADD138R,0.0305X0.0002*%
%ADD139R,0.0072X0.0002*%
%ADD140R,0.0089X0.0002*%
%ADD141R,0.0293X0.0002*%
%ADD142R,0.0298X0.0002*%
%ADD143R,0.0089X0.0002*%
%ADD144R,0.0293X0.0002*%
%ADD145R,0.0298X0.0002*%
%ADD146R,0.0108X0.0002*%
%ADD147R,0.0293X0.0002*%
%ADD148R,0.0286X0.0002*%
%ADD149R,0.0125X0.0002*%
%ADD150R,0.0281X0.0002*%
%ADD151R,0.0286X0.0002*%
%ADD152R,0.0127X0.0002*%
%ADD153R,0.0281X0.0002*%
%ADD154R,0.0127X0.0002*%
%ADD155R,0.0281X0.0002*%
%ADD156R,0.0274X0.0002*%
%ADD157R,0.0281X0.0002*%
%ADD158R,0.0274X0.0002*%
%ADD159R,0.0166X0.0002*%
%ADD160R,0.0166X0.0002*%
%ADD161R,0.0221X0.0002*%
%ADD162R,0.0319X0.0002*%
%ADD163R,0.0226X0.0002*%
%ADD164R,0.0221X0.0002*%
%ADD165R,0.0319X0.0002*%
%ADD166R,0.0226X0.0002*%
%ADD167R,0.0346X0.0002*%
%ADD168R,0.0341X0.0002*%
%ADD169R,0.0278X0.0002*%
%ADD170R,0.0314X0.0002*%
%ADD171R,0.0382X0.0002*%
%ADD172R,0.0372X0.0002*%
%ADD173R,0.0314X0.0002*%
%ADD174R,0.0382X0.0002*%
%ADD175R,0.0372X0.0002*%
%ADD176R,0.0353X0.0002*%
%ADD177R,0.0386X0.0002*%
%ADD178R,0.0379X0.0002*%
%ADD179R,0.0353X0.0002*%
%ADD180R,0.0386X0.0002*%
%ADD181R,0.0379X0.0002*%
%ADD182R,0.0367X0.0002*%
%ADD183R,0.0367X0.0002*%
%ADD184R,0.0374X0.0002*%
%ADD185R,0.0374X0.0002*%
%ADD186R,0.0365X0.0002*%
%ADD187R,0.0360X0.0002*%
%ADD188R,0.0365X0.0002*%
%ADD189R,0.0360X0.0002*%
%ADD190R,0.0374X0.0002*%
%ADD191R,0.0374X0.0002*%
%ADD192R,0.0379X0.0002*%
%ADD193R,0.0379X0.0002*%
%ADD194R,0.0346X0.0002*%
%ADD195R,0.0338X0.0002*%
%ADD196R,0.0338X0.0002*%
%ADD197R,0.0312X0.0002*%
%ADD198R,0.0312X0.0002*%
%ADD199R,0.0295X0.0002*%
%ADD200R,0.0286X0.0002*%
%ADD201R,0.0295X0.0002*%
%ADD202R,0.0286X0.0002*%
%ADD203R,0.0288X0.0002*%
%ADD204R,0.0278X0.0002*%
%ADD205R,0.0307X0.0002*%
%ADD206R,0.0341X0.0002*%
%ADD207R,0.0341X0.0002*%
%ADD208R,0.0701X0.0002*%
%ADD209R,0.0701X0.0002*%
%ADD210R,0.0701X0.0002*%
%ADD211R,0.0701X0.0002*%
%ADD212R,0.0694X0.0002*%
%ADD213R,0.0694X0.0002*%
%ADD214R,0.0686X0.0002*%
%ADD215R,0.0686X0.0002*%
%ADD216R,0.0686X0.0002*%
%ADD217R,0.0686X0.0002*%
%ADD218R,0.0679X0.0002*%
%ADD219R,0.0672X0.0002*%
%ADD220R,0.0679X0.0002*%
%ADD221R,0.0672X0.0002*%
%ADD222R,0.0665X0.0002*%
%ADD223R,0.0665X0.0002*%
%ADD224R,0.0660X0.0002*%
%ADD225R,0.0660X0.0002*%
%ADD226R,0.0667X0.0002*%
%ADD227R,0.0667X0.0002*%
%ADD228R,0.0679X0.0002*%
%ADD229R,0.0679X0.0002*%
%ADD230R,0.0706X0.0002*%
%ADD231R,0.0708X0.0002*%
%ADD232R,0.0706X0.0002*%
%ADD233R,0.0708X0.0002*%
%ADD234R,0.0720X0.0002*%
%ADD235R,0.0713X0.0002*%
%ADD236R,0.0720X0.0002*%
%ADD237R,0.0713X0.0002*%
%ADD238R,0.0718X0.0002*%
%ADD239R,0.0718X0.0002*%
%ADD240R,0.0734X0.0002*%
%ADD241R,0.0732X0.0002*%
%ADD242R,0.0746X0.0002*%
%ADD243R,0.0739X0.0002*%
%ADD244R,0.0746X0.0002*%
%ADD245R,0.0739X0.0002*%
%ADD246R,0.0758X0.0002*%
%ADD247R,0.0761X0.0002*%
%ADD248R,0.0758X0.0002*%
%ADD249R,0.0761X0.0002*%
%ADD250R,0.0773X0.0002*%
%ADD251R,0.0773X0.0002*%
%ADD252R,0.0787X0.0002*%
%ADD253R,0.0785X0.0002*%
%ADD254R,0.0787X0.0002*%
%ADD255R,0.0785X0.0002*%
%ADD256R,0.0799X0.0002*%
%ADD257R,0.0799X0.0002*%
%ADD258R,0.0799X0.0002*%
%ADD259R,0.0799X0.0002*%
%ADD260R,0.0792X0.0002*%
%ADD261R,0.0792X0.0002*%
%ADD262R,0.0780X0.0002*%
%ADD263R,0.0778X0.0002*%
%ADD264R,0.0780X0.0002*%
%ADD265R,0.0778X0.0002*%
%ADD266R,0.0766X0.0002*%
%ADD267R,0.0768X0.0002*%
%ADD268R,0.0766X0.0002*%
%ADD269R,0.0768X0.0002*%
%ADD270R,0.0348X0.0002*%
%ADD271R,0.0175X0.0002*%
%ADD272R,0.0353X0.0002*%
%ADD273R,0.0173X0.0002*%
%ADD274R,0.0348X0.0002*%
%ADD275R,0.0175X0.0002*%
%ADD276R,0.0353X0.0002*%
%ADD277R,0.0173X0.0002*%
%ADD278R,0.0149X0.0002*%
%ADD279R,0.0139X0.0002*%
%ADD280R,0.0149X0.0002*%
%ADD281R,0.0139X0.0002*%
%ADD282R,0.0134X0.0002*%
%ADD283R,0.0252X0.0002*%
%ADD284R,0.0132X0.0002*%
%ADD285R,0.0127X0.0002*%
%ADD286R,0.0134X0.0002*%
%ADD287R,0.0252X0.0002*%
%ADD288R,0.0132X0.0002*%
%ADD289R,0.0127X0.0002*%
%ADD290R,0.0120X0.0002*%
%ADD291R,0.0113X0.0002*%
%ADD292R,0.0120X0.0002*%
%ADD293R,0.0108X0.0002*%
%ADD294R,0.0113X0.0002*%
%ADD295R,0.0098X0.0002*%
%ADD296R,0.0199X0.0002*%
%ADD297R,0.0101X0.0002*%
%ADD298R,0.0199X0.0002*%
%ADD299R,0.0086X0.0002*%
%ADD300R,0.0086X0.0002*%
%ADD301R,0.0185X0.0002*%
%ADD302R,0.0079X0.0002*%
%ADD303R,0.0086X0.0002*%
%ADD304R,0.0086X0.0002*%
%ADD305R,0.0185X0.0002*%
%ADD306R,0.0079X0.0002*%
%ADD307R,0.0067X0.0002*%
%ADD308R,0.0065X0.0002*%
%ADD309R,0.0067X0.0002*%
%ADD310R,0.0065X0.0002*%
%ADD311R,0.0053X0.0002*%
%ADD312R,0.0055X0.0002*%
%ADD313R,0.0053X0.0002*%
%ADD314R,0.0055X0.0002*%
%ADD315R,0.0034X0.0002*%
%ADD316R,0.0019X0.0002*%
%ADD317R,0.0019X0.0002*%
%ADD318R,0.0041X0.0002*%
%ADD319R,0.0041X0.0002*%
%ADD320R,0.0074X0.0002*%
%ADD321R,0.0074X0.0002*%
%ADD322R,0.0098X0.0002*%
%ADD323R,0.0206X0.0002*%
%ADD324R,0.0101X0.0002*%
%ADD325R,0.0108X0.0002*%
%ADD326R,0.0206X0.0002*%
%ADD327R,0.0108X0.0002*%
%ADD328R,0.0240X0.0002*%
%ADD329R,0.0240X0.0002*%
%ADD330R,0.0274X0.0002*%
%ADD331R,0.0274X0.0002*%
%ADD332R,0.0562X0.0002*%
%ADD333R,0.0562X0.0002*%
%ADD334R,0.0754X0.0002*%
%ADD335R,0.0754X0.0002*%
%ADD336R,0.0727X0.0002*%
%ADD337R,0.0725X0.0002*%
%ADD338R,0.0727X0.0002*%
%ADD339R,0.0725X0.0002*%
%ADD340R,0.0307X0.0002*%
%ADD341R,0.0338X0.0002*%
%ADD342R,0.0338X0.0002*%
%ADD343R,0.0372X0.0002*%
%ADD344R,0.0372X0.0002*%
%ADD345R,0.0341X0.0002*%
%ADD346R,0.0199X0.0002*%
%ADD347R,0.0161X0.0002*%
%ADD348R,0.0161X0.0002*%
%ADD349R,0.0101X0.0002*%
%ADD350R,0.0101X0.0002*%
%ADD351R,0.0319X0.0002*%
%ADD352R,0.0319X0.0002*%
%ADD353R,0.0408X0.0002*%
%ADD354R,0.0408X0.0002*%
%ADD355R,0.0432X0.0002*%
%ADD356R,0.0432X0.0002*%
%ADD357R,0.0473X0.0002*%
%ADD358R,0.0473X0.0002*%
%ADD359R,0.0487X0.0002*%
%ADD360R,0.0487X0.0002*%
%ADD361R,0.0492X0.0002*%
%ADD362R,0.0494X0.0002*%
%ADD363R,0.0492X0.0002*%
%ADD364R,0.0521X0.0002*%
%ADD365R,0.0521X0.0002*%
%ADD366R,0.0329X0.0002*%
%ADD367R,0.0329X0.0002*%
%ADD368R,0.0154X0.0002*%
%ADD369R,0.0154X0.0002*%
%ADD370R,0.0199X0.0002*%
%ADD371R,0.0031X0.0002*%
%ADD372R,0.0041X0.0002*%
%ADD373R,0.0031X0.0002*%
%ADD374R,0.0041X0.0002*%
D10*
X004460Y000876D02*
X004460Y017246D01*
X004462Y017300D01*
X004468Y017353D01*
X004477Y017405D01*
X004490Y017457D01*
X004507Y017508D01*
X004528Y017558D01*
X004552Y017605D01*
X004579Y017651D01*
X004610Y017695D01*
X004643Y017737D01*
X004680Y017776D01*
X004719Y017813D01*
X004761Y017846D01*
X004805Y017877D01*
X004851Y017904D01*
X004898Y017928D01*
X004948Y017949D01*
X004999Y017966D01*
X005051Y017979D01*
X005103Y017988D01*
X005156Y017994D01*
X005210Y017996D01*
X021202Y017996D01*
X021251Y018002D01*
X021300Y018004D01*
X021349Y018002D01*
X021398Y017997D01*
X021446Y017988D01*
X021494Y017975D01*
X021541Y017959D01*
X021586Y017940D01*
X021629Y017917D01*
X021671Y017891D01*
X021711Y017862D01*
X021748Y017830D01*
X021783Y017795D01*
X021815Y017758D01*
X021845Y017718D01*
X021871Y017677D01*
X021894Y017633D01*
X021914Y017588D01*
X021930Y017542D01*
X021943Y017494D01*
X021952Y017446D01*
X021952Y000876D01*
X021950Y000822D01*
X021944Y000769D01*
X021935Y000717D01*
X021922Y000665D01*
X021905Y000614D01*
X021884Y000564D01*
X021860Y000517D01*
X021833Y000471D01*
X021802Y000427D01*
X021769Y000385D01*
X021732Y000346D01*
X021693Y000309D01*
X021651Y000276D01*
X021607Y000245D01*
X021561Y000218D01*
X021514Y000194D01*
X021464Y000173D01*
X021413Y000156D01*
X021361Y000143D01*
X021309Y000134D01*
X021256Y000128D01*
X021202Y000126D01*
X005210Y000126D01*
X005156Y000128D01*
X005103Y000134D01*
X005051Y000143D01*
X004999Y000156D01*
X004948Y000173D01*
X004898Y000194D01*
X004851Y000218D01*
X004805Y000245D01*
X004761Y000276D01*
X004719Y000309D01*
X004680Y000346D01*
X004643Y000385D01*
X004610Y000427D01*
X004579Y000471D01*
X004552Y000517D01*
X004528Y000564D01*
X004507Y000614D01*
X004490Y000665D01*
X004477Y000717D01*
X004468Y000769D01*
X004462Y000822D01*
X004460Y000876D01*
D11*
X004991Y013202D02*
X004991Y013422D01*
X005101Y013422D01*
X005137Y013386D01*
X005137Y013312D01*
X005101Y013276D01*
X004991Y013276D01*
X004916Y013312D02*
X004916Y013459D01*
X004880Y013496D01*
X004806Y013496D01*
X004770Y013459D01*
X004770Y013312D01*
X004806Y013276D01*
X004880Y013276D01*
X004916Y013312D01*
X005211Y013312D02*
X005248Y013276D01*
X005322Y013276D01*
X005358Y013349D02*
X005211Y013349D01*
X005211Y013386D02*
X005248Y013422D01*
X005322Y013422D01*
X005358Y013386D01*
X005358Y013349D01*
X005432Y013276D02*
X005432Y013422D01*
X005543Y013422D01*
X005579Y013386D01*
X005579Y013276D01*
X005653Y013276D02*
X005653Y013496D01*
X005653Y013386D02*
X005800Y013386D01*
X005874Y013312D02*
X005911Y013349D01*
X006021Y013349D01*
X006021Y013386D02*
X006021Y013276D01*
X005911Y013276D01*
X005874Y013312D01*
X005800Y013276D02*
X005800Y013496D01*
X005911Y013422D02*
X005985Y013422D01*
X006021Y013386D01*
X006095Y013422D02*
X006095Y013276D01*
X006095Y013349D02*
X006169Y013422D01*
X006206Y013422D01*
X006280Y013386D02*
X006316Y013422D01*
X006426Y013422D01*
X006426Y013496D02*
X006426Y013276D01*
X006316Y013276D01*
X006280Y013312D01*
X006280Y013386D01*
X006501Y013422D02*
X006501Y013312D01*
X006537Y013276D01*
X006574Y013312D01*
X006611Y013276D01*
X006647Y013312D01*
X006647Y013422D01*
X006758Y013422D02*
X006832Y013422D01*
X006868Y013386D01*
X006868Y013276D01*
X006758Y013276D01*
X006722Y013312D01*
X006758Y013349D01*
X006868Y013349D01*
X006943Y013349D02*
X007016Y013422D01*
X007053Y013422D01*
X007127Y013386D02*
X007163Y013422D01*
X007237Y013422D01*
X007274Y013386D01*
X007274Y013349D01*
X007127Y013349D01*
X007127Y013312D02*
X007127Y013386D01*
X007127Y013312D02*
X007163Y013276D01*
X007237Y013276D01*
X007348Y013276D02*
X007384Y013276D01*
X007384Y013312D01*
X007348Y013312D01*
X007348Y013276D01*
X007458Y013276D02*
X007532Y013276D01*
X007495Y013276D02*
X007495Y013422D01*
X007458Y013422D01*
X007495Y013496D02*
X007495Y013532D01*
X007606Y013386D02*
X007606Y013312D01*
X007642Y013276D01*
X007716Y013276D01*
X007752Y013312D01*
X007752Y013386D01*
X007716Y013422D01*
X007642Y013422D01*
X007606Y013386D01*
X006943Y013422D02*
X006943Y013276D01*
X005211Y013312D02*
X005211Y013386D01*
X005138Y016876D02*
X005211Y016949D01*
X005211Y017022D01*
X005138Y017096D01*
X005064Y017022D02*
X004954Y017022D01*
X004917Y016986D01*
X004917Y016912D01*
X004954Y016876D01*
X005064Y016876D01*
X004843Y016876D02*
X004770Y016949D01*
X004770Y017022D01*
X004843Y017096D01*
X004916Y017236D02*
X004843Y017309D01*
X004880Y017309D02*
X004770Y017309D01*
X004770Y017236D02*
X004770Y017456D01*
X004880Y017456D01*
X004916Y017419D01*
X004916Y017346D01*
X004880Y017309D01*
X004991Y017346D02*
X004991Y017272D01*
X005027Y017236D01*
X005101Y017236D01*
X005137Y017272D01*
X005137Y017346D01*
X005101Y017382D01*
X005027Y017382D01*
X004991Y017346D01*
X005211Y017456D02*
X005248Y017456D01*
X005248Y017236D01*
X005211Y017236D02*
X005285Y017236D01*
X005359Y017236D02*
X005432Y017236D01*
X005396Y017236D02*
X005396Y017456D01*
X005359Y017456D01*
X005506Y017346D02*
X005543Y017382D01*
X005616Y017382D01*
X005653Y017346D01*
X005653Y017309D01*
X005506Y017309D01*
X005506Y017272D02*
X005506Y017346D01*
X005506Y017272D02*
X005543Y017236D01*
X005616Y017236D01*
X005727Y017236D02*
X005727Y017382D01*
X005727Y017309D02*
X005801Y017382D01*
X005837Y017382D01*
X005911Y017346D02*
X005948Y017382D01*
X006058Y017382D01*
X006132Y017382D02*
X006169Y017346D01*
X006242Y017346D01*
X006279Y017309D01*
X006279Y017272D01*
X006242Y017236D01*
X006169Y017236D01*
X006132Y017272D01*
X006058Y017272D02*
X006021Y017309D01*
X005948Y017309D01*
X005911Y017346D01*
X005911Y017236D02*
X006021Y017236D01*
X006058Y017272D01*
X006132Y017382D02*
X006132Y017419D01*
X006169Y017456D01*
X006242Y017456D01*
X006279Y017419D01*
X006353Y017456D02*
X006353Y017236D01*
X006353Y017346D02*
X006390Y017382D01*
X006463Y017382D01*
X006500Y017346D01*
X006500Y017236D01*
X006574Y017272D02*
X006611Y017236D01*
X006721Y017236D01*
X006721Y017382D01*
X006795Y017382D02*
X006869Y017382D01*
X006832Y017419D02*
X006832Y017272D01*
X006869Y017236D01*
X006979Y017272D02*
X007016Y017236D01*
X006979Y017272D02*
X006979Y017419D01*
X006943Y017382D02*
X007016Y017382D01*
X007090Y017346D02*
X007127Y017382D01*
X007200Y017382D01*
X007237Y017346D01*
X007237Y017309D01*
X007090Y017309D01*
X007090Y017272D02*
X007090Y017346D01*
X007090Y017272D02*
X007127Y017236D01*
X007200Y017236D01*
X007311Y017236D02*
X007311Y017382D01*
X007311Y017309D02*
X007384Y017382D01*
X007421Y017382D01*
X007495Y017456D02*
X007642Y017236D01*
X007642Y017456D01*
X007716Y017346D02*
X007716Y017272D01*
X007753Y017236D01*
X007826Y017236D01*
X007863Y017272D01*
X007863Y017346D01*
X007826Y017382D01*
X007753Y017382D01*
X007716Y017346D01*
X007937Y017346D02*
X007974Y017382D01*
X008084Y017382D01*
X008084Y017456D02*
X008084Y017236D01*
X007974Y017236D01*
X007937Y017272D01*
X007937Y017346D01*
X008158Y017346D02*
X008195Y017382D01*
X008268Y017382D01*
X008305Y017346D01*
X008305Y017309D01*
X008158Y017309D01*
X008158Y017272D02*
X008158Y017346D01*
X008158Y017272D02*
X008195Y017236D01*
X008268Y017236D01*
X008268Y017022D02*
X008342Y016876D01*
X008415Y017022D01*
X008194Y016986D02*
X008194Y016949D01*
X008048Y016949D01*
X008048Y016986D02*
X008084Y017022D01*
X008158Y017022D01*
X008194Y016986D01*
X008158Y016876D02*
X008084Y016876D01*
X008048Y016912D01*
X008048Y016986D01*
X007973Y017022D02*
X007937Y017022D01*
X007863Y016949D01*
X007863Y016876D02*
X007863Y017022D01*
X007568Y016949D02*
X007531Y016986D01*
X007421Y016986D01*
X007421Y016912D01*
X007458Y016876D01*
X007531Y016876D01*
X007568Y016912D01*
X007568Y016949D01*
X007495Y017059D02*
X007421Y016986D01*
X007495Y017059D02*
X007568Y017096D01*
X007495Y017236D02*
X007495Y017456D01*
X007274Y017096D02*
X007274Y016876D01*
X007347Y016876D02*
X007200Y016876D01*
X007126Y016912D02*
X007089Y016876D01*
X007016Y016876D01*
X006979Y016912D01*
X007126Y017059D01*
X007126Y016912D01*
X007200Y017022D02*
X007274Y017096D01*
X007126Y017059D02*
X007089Y017096D01*
X007016Y017096D01*
X006979Y017059D01*
X006979Y016912D01*
X006905Y016876D02*
X006758Y016876D01*
X006905Y017022D01*
X006905Y017059D01*
X006868Y017096D01*
X006795Y017096D01*
X006758Y017059D01*
X006574Y017272D02*
X006574Y017382D01*
X006206Y017096D02*
X006206Y016876D01*
X006169Y016876D02*
X006243Y016876D01*
X006316Y016876D02*
X006463Y016876D01*
X006463Y017022D02*
X006316Y016876D01*
X006316Y017022D02*
X006463Y017022D01*
X006206Y017096D02*
X006169Y017096D01*
X006095Y016986D02*
X006095Y016876D01*
X005985Y016876D01*
X005948Y016912D01*
X005985Y016949D01*
X006095Y016949D01*
X006095Y016986D02*
X006058Y017022D01*
X005985Y017022D01*
X005874Y017022D02*
X005764Y017022D01*
X005727Y016986D01*
X005727Y016912D01*
X005764Y016876D01*
X005874Y016876D01*
X005653Y016912D02*
X005616Y016876D01*
X005543Y016876D01*
X005506Y016912D01*
X005543Y016986D02*
X005616Y016986D01*
X005653Y016949D01*
X005653Y016912D01*
X005543Y016986D02*
X005506Y017022D01*
X005506Y017059D01*
X005543Y017096D01*
X005616Y017096D01*
X005653Y017059D01*
X008600Y017236D02*
X008600Y017382D01*
X008600Y017309D02*
X008673Y017382D01*
X008710Y017382D01*
X008784Y017382D02*
X008858Y017456D01*
X008858Y017236D01*
X008931Y017236D02*
X008784Y017236D01*
X008784Y017096D02*
X008784Y016876D01*
X008857Y016876D02*
X008710Y016876D01*
X008710Y017022D02*
X008784Y017096D01*
X008931Y016912D02*
X008968Y016912D01*
X008968Y016876D01*
X008931Y016876D01*
X008931Y016912D01*
X009042Y016912D02*
X009079Y016876D01*
X009152Y016876D01*
X009189Y016912D01*
X009189Y016949D01*
X009152Y016986D01*
X009115Y016986D01*
X009152Y016986D02*
X009189Y017022D01*
X009189Y017059D01*
X009152Y017096D01*
X009079Y017096D01*
X009042Y017059D01*
X009042Y017236D02*
X009005Y017236D01*
X009005Y017272D01*
X009042Y017272D01*
X009042Y017236D01*
X009116Y017272D02*
X009152Y017236D01*
X009226Y017236D01*
X009262Y017272D01*
X009262Y017309D01*
X009226Y017346D01*
X009189Y017346D01*
X009226Y017346D02*
X009262Y017382D01*
X009262Y017419D01*
X009226Y017456D01*
X009152Y017456D01*
X009116Y017419D01*
D12*
X008435Y016421D02*
X008435Y016325D01*
X008435Y016373D02*
X008144Y016373D01*
X008144Y016325D02*
X008144Y016421D01*
X008193Y016223D02*
X008144Y016175D01*
X008144Y016030D01*
X008435Y016030D01*
X008435Y016175D01*
X008386Y016223D01*
X008193Y016223D01*
X008144Y015929D02*
X008144Y015735D01*
X008144Y015832D02*
X008435Y015832D01*
X008144Y015634D02*
X008144Y015441D01*
X008435Y015441D01*
X008289Y015441D02*
X008289Y015537D01*
X008144Y014811D02*
X008144Y014714D01*
X008144Y014762D02*
X008435Y014762D01*
X008435Y014714D02*
X008435Y014811D01*
X008289Y014613D02*
X008338Y014564D01*
X008338Y014419D01*
X008435Y014419D02*
X008144Y014419D01*
X008144Y014564D01*
X008193Y014613D01*
X008289Y014613D01*
X008338Y014318D02*
X008386Y014318D01*
X008435Y014270D01*
X008435Y014173D01*
X008386Y014125D01*
X008289Y014173D02*
X008289Y014270D01*
X008338Y014318D01*
X008193Y014318D02*
X008144Y014270D01*
X008144Y014173D01*
X008193Y014125D01*
X008241Y014125D01*
X008289Y014173D01*
X008289Y014023D02*
X008338Y013975D01*
X008338Y013830D01*
X008435Y013830D02*
X008144Y013830D01*
X008144Y013975D01*
X008193Y014023D01*
X008289Y014023D01*
X008338Y013927D02*
X008435Y014023D01*
X008338Y013729D02*
X008144Y013729D01*
X008144Y013535D02*
X008338Y013535D01*
X008435Y013632D01*
X008338Y013729D01*
X008289Y013434D02*
X008289Y013241D01*
X008241Y013241D02*
X008144Y013337D01*
X008241Y013434D01*
X008435Y013434D01*
X008435Y013241D02*
X008241Y013241D01*
X008240Y012161D02*
X008144Y012161D01*
X008095Y012112D01*
X007996Y012161D02*
X007899Y012161D01*
X007947Y012161D02*
X007947Y011871D01*
X007899Y011871D02*
X007996Y011871D01*
X008095Y011871D02*
X008289Y012064D01*
X008289Y012112D01*
X008240Y012161D01*
X008390Y012112D02*
X008390Y011919D01*
X008438Y011871D01*
X008535Y011871D01*
X008583Y011919D01*
X008583Y012112D02*
X008535Y012161D01*
X008438Y012161D01*
X008390Y012112D01*
X008289Y011871D02*
X008095Y011871D01*
X007798Y012161D02*
X007604Y011871D01*
X007503Y011919D02*
X007455Y011871D01*
X007358Y011871D01*
X007309Y011919D01*
X007358Y012016D02*
X007455Y012016D01*
X007503Y011967D01*
X007503Y011919D01*
X007358Y012016D02*
X007309Y012064D01*
X007309Y012112D01*
X007358Y012161D01*
X007455Y012161D01*
X007503Y012112D01*
X007208Y012161D02*
X007208Y011871D01*
X007015Y012161D01*
X007015Y011871D01*
X006914Y011919D02*
X006914Y012112D01*
X006865Y012161D01*
X006769Y012161D01*
X006720Y012112D01*
X006720Y011919D01*
X006769Y011871D01*
X006865Y011871D01*
X006914Y011919D01*
X006619Y012161D02*
X006426Y012161D01*
X006522Y012161D02*
X006522Y011871D01*
X006228Y011871D02*
X006228Y012161D01*
X006324Y012161D02*
X006131Y012161D01*
X006030Y012161D02*
X006030Y011919D01*
X005981Y011871D01*
X005885Y011871D01*
X005836Y011919D01*
X005836Y012161D01*
X005735Y012112D02*
X005735Y012064D01*
X005687Y012016D01*
X005542Y012016D01*
X005687Y012016D02*
X005735Y011967D01*
X005735Y011919D01*
X005687Y011871D01*
X005542Y011871D01*
X005542Y012161D01*
X005687Y012161D01*
X005735Y012112D01*
X010006Y012108D02*
X010054Y012059D01*
X010102Y012059D01*
X010151Y012108D01*
X010151Y012350D01*
X010199Y012350D02*
X010102Y012350D01*
X010300Y012350D02*
X010445Y012350D01*
X010494Y012301D01*
X010494Y012205D01*
X010445Y012156D01*
X010300Y012156D01*
X010300Y012059D02*
X010300Y012350D01*
X010595Y012301D02*
X010643Y012350D01*
X010740Y012350D01*
X010788Y012301D01*
X010788Y012253D01*
X010595Y012059D01*
X010788Y012059D01*
X010759Y013741D02*
X010662Y013741D01*
X010614Y013789D01*
X010614Y013886D02*
X010711Y013934D01*
X010759Y013934D01*
X010807Y013886D01*
X010807Y013789D01*
X010759Y013741D01*
X010614Y013886D02*
X010614Y014031D01*
X010807Y014031D01*
X010513Y013982D02*
X010513Y013886D01*
X010464Y013837D01*
X010319Y013837D01*
X010319Y013741D02*
X010319Y014031D01*
X010464Y014031D01*
X010513Y013982D01*
X010218Y014031D02*
X010121Y014031D01*
X010170Y014031D02*
X010170Y013789D01*
X010121Y013741D01*
X010073Y013741D01*
X010025Y013789D01*
X010023Y015591D02*
X010071Y015591D01*
X010120Y015639D01*
X010120Y015881D01*
X010168Y015881D02*
X010071Y015881D01*
X010269Y015881D02*
X010414Y015881D01*
X010463Y015832D01*
X010463Y015736D01*
X010414Y015687D01*
X010269Y015687D01*
X010269Y015591D02*
X010269Y015881D01*
X009975Y015639D02*
X010023Y015591D01*
X010564Y015639D02*
X010612Y015591D01*
X010709Y015591D01*
X010757Y015639D01*
X010757Y015687D01*
X010709Y015736D01*
X010564Y015736D01*
X010564Y015639D01*
X010564Y015736D02*
X010661Y015832D01*
X010757Y015881D01*
X012739Y012311D02*
X012836Y012311D01*
X012787Y012311D02*
X012787Y012021D01*
X012739Y012021D02*
X012836Y012021D01*
X012935Y012069D02*
X012984Y012021D01*
X013080Y012021D01*
X013129Y012069D01*
X013230Y012069D02*
X013230Y012117D01*
X013278Y012166D01*
X013375Y012166D01*
X013423Y012117D01*
X013423Y012069D01*
X013375Y012021D01*
X013278Y012021D01*
X013230Y012069D01*
X013278Y012166D02*
X013230Y012214D01*
X013230Y012262D01*
X013278Y012311D01*
X013375Y012311D01*
X013423Y012262D01*
X013423Y012214D01*
X013375Y012166D01*
X013129Y012262D02*
X013080Y012311D01*
X012984Y012311D01*
X012935Y012262D01*
X012935Y012069D01*
X011757Y008241D02*
X011757Y007951D01*
X011853Y007951D02*
X011660Y007951D01*
X011559Y007951D02*
X011365Y007951D01*
X011365Y008241D01*
X011264Y008192D02*
X011264Y008096D01*
X011216Y008047D01*
X011071Y008047D01*
X011167Y008047D02*
X011264Y007951D01*
X011071Y007951D02*
X011071Y008241D01*
X011216Y008241D01*
X011264Y008192D01*
X011660Y008144D02*
X011757Y008241D01*
X007093Y008222D02*
X007045Y008271D01*
X006948Y008271D01*
X006900Y008222D01*
X007093Y008222D02*
X007093Y008174D01*
X006900Y007981D01*
X007093Y007981D01*
X006799Y007981D02*
X006605Y007981D01*
X006605Y008271D01*
X006504Y008222D02*
X006504Y008126D01*
X006456Y008077D01*
X006311Y008077D01*
X006407Y008077D02*
X006504Y007981D01*
X006311Y007981D02*
X006311Y008271D01*
X006456Y008271D01*
X006504Y008222D01*
X014275Y002541D02*
X014275Y002347D01*
X014371Y002251D01*
X014468Y002347D01*
X014468Y002541D01*
X014569Y002444D02*
X014666Y002541D01*
X014666Y002251D01*
X014569Y002251D02*
X014763Y002251D01*
X014646Y000631D02*
X014646Y000341D01*
X014549Y000341D02*
X014743Y000341D01*
X014549Y000534D02*
X014646Y000631D01*
X014448Y000631D02*
X014255Y000631D01*
X014255Y000341D01*
X014255Y000486D02*
X014351Y000486D01*
X016853Y006778D02*
X016853Y007068D01*
X016853Y006923D02*
X017047Y006923D01*
X017047Y007068D02*
X017047Y006778D01*
X017148Y006778D02*
X017244Y006778D01*
X017196Y006778D02*
X017196Y007068D01*
X017148Y007068D02*
X017244Y007068D01*
X017344Y007068D02*
X017344Y006778D01*
X017538Y006778D01*
X017639Y006778D02*
X017736Y006778D01*
X017687Y006778D02*
X017687Y007068D01*
X017639Y007068D02*
X017736Y007068D01*
X017835Y007068D02*
X018029Y006778D01*
X018029Y007068D01*
X018130Y007068D02*
X018130Y006778D01*
X018130Y006874D02*
X018323Y007068D01*
X018178Y006923D02*
X018323Y006778D01*
X017835Y006778D02*
X017835Y007068D01*
D13*
X018260Y005326D02*
X017260Y005326D01*
X017231Y003852D02*
X013688Y003852D01*
X013680Y003846D02*
X013680Y002216D01*
X013688Y002199D02*
X017231Y002199D01*
X017240Y002206D02*
X017240Y003836D01*
X017560Y003526D02*
X021660Y003526D01*
X021660Y000326D01*
X017560Y000326D01*
X017560Y003526D01*
X017660Y002926D02*
X021560Y002926D01*
X021560Y000926D01*
X017660Y000926D01*
X017660Y002926D01*
X017709Y001926D02*
X017711Y001986D01*
X017717Y002045D01*
X017727Y002104D01*
X017740Y002162D01*
X017758Y002219D01*
X017779Y002274D01*
X017804Y002328D01*
X017832Y002381D01*
X017864Y002431D01*
X017899Y002479D01*
X017937Y002525D01*
X017978Y002568D01*
X018022Y002609D01*
X018068Y002646D01*
X018117Y002680D01*
X018168Y002711D01*
X018221Y002739D01*
X018276Y002763D01*
X018332Y002783D01*
X018389Y002799D01*
X018447Y002812D01*
X018506Y002821D01*
X018565Y002826D01*
X018625Y002827D01*
X018684Y002824D01*
X018744Y002817D01*
X018802Y002806D01*
X018860Y002792D01*
X018917Y002773D01*
X018972Y002751D01*
X019026Y002725D01*
X019078Y002696D01*
X019127Y002664D01*
X019175Y002628D01*
X019220Y002589D01*
X019263Y002547D01*
X019302Y002503D01*
X019339Y002456D01*
X019372Y002406D01*
X019402Y002355D01*
X019429Y002302D01*
X019452Y002247D01*
X019471Y002190D01*
X019487Y002133D01*
X019499Y002074D01*
X019507Y002015D01*
X019511Y001956D01*
X019511Y001896D01*
X019507Y001837D01*
X019499Y001778D01*
X019487Y001719D01*
X019471Y001662D01*
X019452Y001605D01*
X019429Y001550D01*
X019402Y001497D01*
X019372Y001446D01*
X019339Y001396D01*
X019302Y001349D01*
X019263Y001305D01*
X019220Y001263D01*
X019175Y001224D01*
X019127Y001188D01*
X019078Y001156D01*
X019026Y001127D01*
X018972Y001101D01*
X018917Y001079D01*
X018860Y001060D01*
X018802Y001046D01*
X018744Y001035D01*
X018684Y001028D01*
X018625Y001025D01*
X018565Y001026D01*
X018506Y001031D01*
X018447Y001040D01*
X018389Y001053D01*
X018332Y001069D01*
X018276Y001089D01*
X018221Y001113D01*
X018168Y001141D01*
X018117Y001172D01*
X018068Y001206D01*
X018022Y001243D01*
X017978Y001284D01*
X017937Y001327D01*
X017899Y001373D01*
X017864Y001421D01*
X017832Y001471D01*
X017804Y001524D01*
X017779Y001578D01*
X017758Y001633D01*
X017740Y001690D01*
X017727Y001748D01*
X017717Y001807D01*
X017711Y001866D01*
X017709Y001926D01*
X017130Y001866D02*
X017130Y000286D01*
X017125Y000288D02*
X013834Y000288D01*
X013830Y000286D02*
X013830Y001856D01*
X013834Y001863D02*
X017125Y001863D01*
X013783Y004133D02*
X013783Y017519D01*
X021736Y017519D01*
X021736Y004133D01*
X013783Y004133D01*
X013560Y003476D02*
X009460Y003476D01*
X009460Y000276D01*
X013560Y000276D01*
X013560Y003476D01*
X013460Y002876D02*
X009560Y002876D01*
X009560Y000876D01*
X013460Y000876D01*
X013460Y002876D01*
X011609Y001876D02*
X011611Y001936D01*
X011617Y001995D01*
X011627Y002054D01*
X011640Y002112D01*
X011658Y002169D01*
X011679Y002224D01*
X011704Y002278D01*
X011732Y002331D01*
X011764Y002381D01*
X011799Y002429D01*
X011837Y002475D01*
X011878Y002518D01*
X011922Y002559D01*
X011968Y002596D01*
X012017Y002630D01*
X012068Y002661D01*
X012121Y002689D01*
X012176Y002713D01*
X012232Y002733D01*
X012289Y002749D01*
X012347Y002762D01*
X012406Y002771D01*
X012465Y002776D01*
X012525Y002777D01*
X012584Y002774D01*
X012644Y002767D01*
X012702Y002756D01*
X012760Y002742D01*
X012817Y002723D01*
X012872Y002701D01*
X012926Y002675D01*
X012978Y002646D01*
X013027Y002614D01*
X013075Y002578D01*
X013120Y002539D01*
X013163Y002497D01*
X013202Y002453D01*
X013239Y002406D01*
X013272Y002356D01*
X013302Y002305D01*
X013329Y002252D01*
X013352Y002197D01*
X013371Y002140D01*
X013387Y002083D01*
X013399Y002024D01*
X013407Y001965D01*
X013411Y001906D01*
X013411Y001846D01*
X013407Y001787D01*
X013399Y001728D01*
X013387Y001669D01*
X013371Y001612D01*
X013352Y001555D01*
X013329Y001500D01*
X013302Y001447D01*
X013272Y001396D01*
X013239Y001346D01*
X013202Y001299D01*
X013163Y001255D01*
X013120Y001213D01*
X013075Y001174D01*
X013027Y001138D01*
X012978Y001106D01*
X012926Y001077D01*
X012872Y001051D01*
X012817Y001029D01*
X012760Y001010D01*
X012702Y000996D01*
X012644Y000985D01*
X012584Y000978D01*
X012525Y000975D01*
X012465Y000976D01*
X012406Y000981D01*
X012347Y000990D01*
X012289Y001003D01*
X012232Y001019D01*
X012176Y001039D01*
X012121Y001063D01*
X012068Y001091D01*
X012017Y001122D01*
X011968Y001156D01*
X011922Y001193D01*
X011878Y001234D01*
X011837Y001277D01*
X011799Y001323D01*
X011764Y001371D01*
X011732Y001421D01*
X011704Y001474D01*
X011679Y001528D01*
X011658Y001583D01*
X011640Y001640D01*
X011627Y001698D01*
X011617Y001757D01*
X011611Y001816D01*
X011609Y001876D01*
X009609Y001876D02*
X009611Y001936D01*
X009617Y001995D01*
X009627Y002054D01*
X009640Y002112D01*
X009658Y002169D01*
X009679Y002224D01*
X009704Y002278D01*
X009732Y002331D01*
X009764Y002381D01*
X009799Y002429D01*
X009837Y002475D01*
X009878Y002518D01*
X009922Y002559D01*
X009968Y002596D01*
X010017Y002630D01*
X010068Y002661D01*
X010121Y002689D01*
X010176Y002713D01*
X010232Y002733D01*
X010289Y002749D01*
X010347Y002762D01*
X010406Y002771D01*
X010465Y002776D01*
X010525Y002777D01*
X010584Y002774D01*
X010644Y002767D01*
X010702Y002756D01*
X010760Y002742D01*
X010817Y002723D01*
X010872Y002701D01*
X010926Y002675D01*
X010978Y002646D01*
X011027Y002614D01*
X011075Y002578D01*
X011120Y002539D01*
X011163Y002497D01*
X011202Y002453D01*
X011239Y002406D01*
X011272Y002356D01*
X011302Y002305D01*
X011329Y002252D01*
X011352Y002197D01*
X011371Y002140D01*
X011387Y002083D01*
X011399Y002024D01*
X011407Y001965D01*
X011411Y001906D01*
X011411Y001846D01*
X011407Y001787D01*
X011399Y001728D01*
X011387Y001669D01*
X011371Y001612D01*
X011352Y001555D01*
X011329Y001500D01*
X011302Y001447D01*
X011272Y001396D01*
X011239Y001346D01*
X011202Y001299D01*
X011163Y001255D01*
X011120Y001213D01*
X011075Y001174D01*
X011027Y001138D01*
X010978Y001106D01*
X010926Y001077D01*
X010872Y001051D01*
X010817Y001029D01*
X010760Y001010D01*
X010702Y000996D01*
X010644Y000985D01*
X010584Y000978D01*
X010525Y000975D01*
X010465Y000976D01*
X010406Y000981D01*
X010347Y000990D01*
X010289Y001003D01*
X010232Y001019D01*
X010176Y001039D01*
X010121Y001063D01*
X010068Y001091D01*
X010017Y001122D01*
X009968Y001156D01*
X009922Y001193D01*
X009878Y001234D01*
X009837Y001277D01*
X009799Y001323D01*
X009764Y001371D01*
X009732Y001421D01*
X009704Y001474D01*
X009679Y001528D01*
X009658Y001583D01*
X009640Y001640D01*
X009627Y001698D01*
X009617Y001757D01*
X009611Y001816D01*
X009609Y001876D01*
X008810Y002876D02*
X004910Y002876D01*
X004910Y000876D01*
X008810Y000876D01*
X008810Y002876D01*
X008910Y003476D02*
X004810Y003476D01*
X004810Y000276D01*
X008910Y000276D01*
X008910Y003476D01*
X006959Y001876D02*
X006961Y001936D01*
X006967Y001995D01*
X006977Y002054D01*
X006990Y002112D01*
X007008Y002169D01*
X007029Y002224D01*
X007054Y002278D01*
X007082Y002331D01*
X007114Y002381D01*
X007149Y002429D01*
X007187Y002475D01*
X007228Y002518D01*
X007272Y002559D01*
X007318Y002596D01*
X007367Y002630D01*
X007418Y002661D01*
X007471Y002689D01*
X007526Y002713D01*
X007582Y002733D01*
X007639Y002749D01*
X007697Y002762D01*
X007756Y002771D01*
X007815Y002776D01*
X007875Y002777D01*
X007934Y002774D01*
X007994Y002767D01*
X008052Y002756D01*
X008110Y002742D01*
X008167Y002723D01*
X008222Y002701D01*
X008276Y002675D01*
X008328Y002646D01*
X008377Y002614D01*
X008425Y002578D01*
X008470Y002539D01*
X008513Y002497D01*
X008552Y002453D01*
X008589Y002406D01*
X008622Y002356D01*
X008652Y002305D01*
X008679Y002252D01*
X008702Y002197D01*
X008721Y002140D01*
X008737Y002083D01*
X008749Y002024D01*
X008757Y001965D01*
X008761Y001906D01*
X008761Y001846D01*
X008757Y001787D01*
X008749Y001728D01*
X008737Y001669D01*
X008721Y001612D01*
X008702Y001555D01*
X008679Y001500D01*
X008652Y001447D01*
X008622Y001396D01*
X008589Y001346D01*
X008552Y001299D01*
X008513Y001255D01*
X008470Y001213D01*
X008425Y001174D01*
X008377Y001138D01*
X008328Y001106D01*
X008276Y001077D01*
X008222Y001051D01*
X008167Y001029D01*
X008110Y001010D01*
X008052Y000996D01*
X007994Y000985D01*
X007934Y000978D01*
X007875Y000975D01*
X007815Y000976D01*
X007756Y000981D01*
X007697Y000990D01*
X007639Y001003D01*
X007582Y001019D01*
X007526Y001039D01*
X007471Y001063D01*
X007418Y001091D01*
X007367Y001122D01*
X007318Y001156D01*
X007272Y001193D01*
X007228Y001234D01*
X007187Y001277D01*
X007149Y001323D01*
X007114Y001371D01*
X007082Y001421D01*
X007054Y001474D01*
X007029Y001528D01*
X007008Y001583D01*
X006990Y001640D01*
X006977Y001698D01*
X006967Y001757D01*
X006961Y001816D01*
X006959Y001876D01*
X004959Y001876D02*
X004961Y001936D01*
X004967Y001995D01*
X004977Y002054D01*
X004990Y002112D01*
X005008Y002169D01*
X005029Y002224D01*
X005054Y002278D01*
X005082Y002331D01*
X005114Y002381D01*
X005149Y002429D01*
X005187Y002475D01*
X005228Y002518D01*
X005272Y002559D01*
X005318Y002596D01*
X005367Y002630D01*
X005418Y002661D01*
X005471Y002689D01*
X005526Y002713D01*
X005582Y002733D01*
X005639Y002749D01*
X005697Y002762D01*
X005756Y002771D01*
X005815Y002776D01*
X005875Y002777D01*
X005934Y002774D01*
X005994Y002767D01*
X006052Y002756D01*
X006110Y002742D01*
X006167Y002723D01*
X006222Y002701D01*
X006276Y002675D01*
X006328Y002646D01*
X006377Y002614D01*
X006425Y002578D01*
X006470Y002539D01*
X006513Y002497D01*
X006552Y002453D01*
X006589Y002406D01*
X006622Y002356D01*
X006652Y002305D01*
X006679Y002252D01*
X006702Y002197D01*
X006721Y002140D01*
X006737Y002083D01*
X006749Y002024D01*
X006757Y001965D01*
X006761Y001906D01*
X006761Y001846D01*
X006757Y001787D01*
X006749Y001728D01*
X006737Y001669D01*
X006721Y001612D01*
X006702Y001555D01*
X006679Y001500D01*
X006652Y001447D01*
X006622Y001396D01*
X006589Y001346D01*
X006552Y001299D01*
X006513Y001255D01*
X006470Y001213D01*
X006425Y001174D01*
X006377Y001138D01*
X006328Y001106D01*
X006276Y001077D01*
X006222Y001051D01*
X006167Y001029D01*
X006110Y001010D01*
X006052Y000996D01*
X005994Y000985D01*
X005934Y000978D01*
X005875Y000975D01*
X005815Y000976D01*
X005756Y000981D01*
X005697Y000990D01*
X005639Y001003D01*
X005582Y001019D01*
X005526Y001039D01*
X005471Y001063D01*
X005418Y001091D01*
X005367Y001122D01*
X005318Y001156D01*
X005272Y001193D01*
X005228Y001234D01*
X005187Y001277D01*
X005149Y001323D01*
X005114Y001371D01*
X005082Y001421D01*
X005054Y001474D01*
X005029Y001528D01*
X005008Y001583D01*
X004990Y001640D01*
X004977Y001698D01*
X004967Y001757D01*
X004961Y001816D01*
X004959Y001876D01*
X019709Y001926D02*
X019711Y001986D01*
X019717Y002045D01*
X019727Y002104D01*
X019740Y002162D01*
X019758Y002219D01*
X019779Y002274D01*
X019804Y002328D01*
X019832Y002381D01*
X019864Y002431D01*
X019899Y002479D01*
X019937Y002525D01*
X019978Y002568D01*
X020022Y002609D01*
X020068Y002646D01*
X020117Y002680D01*
X020168Y002711D01*
X020221Y002739D01*
X020276Y002763D01*
X020332Y002783D01*
X020389Y002799D01*
X020447Y002812D01*
X020506Y002821D01*
X020565Y002826D01*
X020625Y002827D01*
X020684Y002824D01*
X020744Y002817D01*
X020802Y002806D01*
X020860Y002792D01*
X020917Y002773D01*
X020972Y002751D01*
X021026Y002725D01*
X021078Y002696D01*
X021127Y002664D01*
X021175Y002628D01*
X021220Y002589D01*
X021263Y002547D01*
X021302Y002503D01*
X021339Y002456D01*
X021372Y002406D01*
X021402Y002355D01*
X021429Y002302D01*
X021452Y002247D01*
X021471Y002190D01*
X021487Y002133D01*
X021499Y002074D01*
X021507Y002015D01*
X021511Y001956D01*
X021511Y001896D01*
X021507Y001837D01*
X021499Y001778D01*
X021487Y001719D01*
X021471Y001662D01*
X021452Y001605D01*
X021429Y001550D01*
X021402Y001497D01*
X021372Y001446D01*
X021339Y001396D01*
X021302Y001349D01*
X021263Y001305D01*
X021220Y001263D01*
X021175Y001224D01*
X021127Y001188D01*
X021078Y001156D01*
X021026Y001127D01*
X020972Y001101D01*
X020917Y001079D01*
X020860Y001060D01*
X020802Y001046D01*
X020744Y001035D01*
X020684Y001028D01*
X020625Y001025D01*
X020565Y001026D01*
X020506Y001031D01*
X020447Y001040D01*
X020389Y001053D01*
X020332Y001069D01*
X020276Y001089D01*
X020221Y001113D01*
X020168Y001141D01*
X020117Y001172D01*
X020068Y001206D01*
X020022Y001243D01*
X019978Y001284D01*
X019937Y001327D01*
X019899Y001373D01*
X019864Y001421D01*
X019832Y001471D01*
X019804Y001524D01*
X019779Y001578D01*
X019758Y001633D01*
X019740Y001690D01*
X019727Y001748D01*
X019717Y001807D01*
X019711Y001866D01*
X019709Y001926D01*
X013536Y016674D02*
X011883Y016674D01*
X012276Y017147D02*
X012276Y017304D01*
X012277Y017304D02*
X012279Y017332D01*
X012284Y017360D01*
X012292Y017388D01*
X012304Y017414D01*
X012319Y017438D01*
X012336Y017460D01*
X012357Y017481D01*
X012379Y017498D01*
X012403Y017513D01*
X012429Y017525D01*
X012457Y017533D01*
X012485Y017538D01*
X012513Y017540D01*
X012513Y017541D02*
X012906Y017541D01*
X012906Y017540D02*
X012934Y017538D01*
X012962Y017533D01*
X012990Y017525D01*
X013016Y017513D01*
X013040Y017498D01*
X013062Y017481D01*
X013083Y017460D01*
X013100Y017438D01*
X013115Y017414D01*
X013127Y017388D01*
X013135Y017360D01*
X013140Y017332D01*
X013142Y017304D01*
X013143Y017304D02*
X013143Y017147D01*
X013142Y017147D02*
X013140Y017119D01*
X013135Y017091D01*
X013127Y017063D01*
X013115Y017037D01*
X013100Y017013D01*
X013083Y016991D01*
X013062Y016970D01*
X013040Y016953D01*
X013016Y016938D01*
X012990Y016926D01*
X012962Y016918D01*
X012934Y016913D01*
X012906Y016911D01*
X012513Y016911D01*
X012485Y016913D01*
X012457Y016918D01*
X012429Y016926D01*
X012403Y016938D01*
X012379Y016953D01*
X012357Y016970D01*
X012336Y016991D01*
X012319Y017013D01*
X012304Y017037D01*
X012292Y017063D01*
X012284Y017091D01*
X012279Y017119D01*
X012277Y017147D01*
X011883Y017777D02*
X013536Y017777D01*
D14*
X013550Y011576D02*
X009550Y011576D01*
X009550Y003576D01*
X013550Y003576D01*
X013550Y011576D01*
X008700Y011576D02*
X008700Y003576D01*
X004700Y003576D01*
X004700Y011576D01*
X008700Y011576D01*
D15*
X013706Y012725D02*
X013760Y012752D01*
X013811Y012782D01*
X013861Y012815D01*
X013909Y012850D01*
X013910Y012851D02*
X013910Y014500D01*
X013310Y014228D02*
X013310Y014123D01*
X013697Y014630D02*
X013753Y014603D01*
X013807Y014572D01*
X013859Y014538D01*
X013909Y014501D01*
X012813Y014626D02*
X012756Y014597D01*
X012700Y014564D01*
X012647Y014529D01*
X012596Y014489D01*
X012548Y014447D01*
X012502Y014402D01*
X012459Y014355D01*
X012419Y014305D01*
X012382Y014252D01*
X012349Y014197D01*
X012318Y014141D01*
X012292Y014082D01*
X012269Y014022D01*
X012249Y013961D01*
X012234Y013899D01*
X012222Y013836D01*
X012214Y013772D01*
X012210Y013708D01*
X012210Y013644D01*
X012214Y013580D01*
X012222Y013516D01*
X012234Y013453D01*
X012249Y013391D01*
X012269Y013330D01*
X012292Y013270D01*
X012318Y013211D01*
X012349Y013155D01*
X012382Y013100D01*
X012419Y013047D01*
X012459Y012997D01*
X012502Y012950D01*
X012548Y012905D01*
X012596Y012863D01*
X012647Y012823D01*
X012700Y012788D01*
X012756Y012755D01*
X012813Y012726D01*
X013310Y013123D02*
X013310Y013228D01*
D16*
X011878Y013126D02*
X011878Y012576D01*
X011878Y013126D02*
X011478Y013126D01*
X011310Y013426D02*
X009310Y013426D01*
X009272Y013126D02*
X008872Y013126D01*
X008872Y012576D01*
X009572Y011726D02*
X011178Y011726D01*
X012010Y014276D02*
X012010Y014826D01*
X011610Y014826D01*
X011310Y015176D02*
X009310Y015176D01*
X009010Y014826D02*
X008610Y014826D01*
X008610Y014276D01*
X008610Y016026D02*
X008610Y016576D01*
X009010Y016576D01*
X011610Y016576D02*
X012010Y016576D01*
X012010Y016026D01*
D17*
X007050Y014566D03*
X006764Y014702D03*
X006764Y014712D03*
X006472Y014566D03*
X005759Y014702D03*
X005759Y014712D03*
X005459Y014119D03*
X005759Y013735D03*
X005759Y013726D03*
X006044Y013872D03*
X006472Y013872D03*
X006764Y015715D03*
X006764Y015722D03*
X005759Y015722D03*
X005759Y015715D03*
X005759Y015706D03*
D18*
X005455Y015336D03*
X005755Y014736D03*
X006761Y014736D03*
X007054Y014882D03*
X006761Y013726D03*
D19*
X006472Y013874D03*
X006472Y013877D03*
X006044Y013877D03*
X006044Y013874D03*
X005759Y013738D03*
X005759Y013733D03*
X005759Y013730D03*
X005759Y013728D03*
X005459Y014122D03*
X005459Y014124D03*
X005759Y014700D03*
X005759Y014705D03*
X005759Y014707D03*
X005759Y014710D03*
X005759Y014714D03*
X005759Y014717D03*
X005759Y014738D03*
X005759Y014741D03*
X005759Y014743D03*
X006472Y014570D03*
X006472Y014568D03*
X006764Y014700D03*
X006764Y014705D03*
X006764Y014707D03*
X006764Y014710D03*
X006764Y014714D03*
X006764Y014717D03*
X007050Y014570D03*
X007050Y014568D03*
X006764Y015713D03*
X006764Y015718D03*
X006764Y015720D03*
X005759Y015720D03*
X005759Y015718D03*
X005759Y015713D03*
X005759Y015710D03*
X005759Y015708D03*
D20*
X005455Y015334D03*
X005455Y015331D03*
X005755Y014734D03*
X005755Y014731D03*
X006761Y014731D03*
X006761Y014734D03*
X007054Y014880D03*
X006761Y013730D03*
X006761Y013728D03*
D21*
X006761Y013733D03*
X006761Y013738D03*
X006761Y013740D03*
X006761Y013745D03*
X006761Y013747D03*
X006761Y013750D03*
X006761Y013754D03*
X006761Y013757D03*
X006761Y013762D03*
X006761Y013764D03*
X007061Y014122D03*
X007061Y014124D03*
X006761Y014688D03*
X006761Y014690D03*
X006761Y014693D03*
X006761Y014698D03*
X006761Y014738D03*
X006761Y014741D03*
X006761Y014743D03*
X006761Y014748D03*
X006761Y014750D03*
X006761Y014753D03*
X006761Y014758D03*
X006761Y014760D03*
X006761Y014765D03*
X006761Y014767D03*
X006761Y014770D03*
X006761Y014774D03*
X006761Y014777D03*
X006475Y014885D03*
X006475Y014887D03*
X006475Y014890D03*
X007061Y015326D03*
X006761Y015698D03*
X006761Y015701D03*
X006761Y015703D03*
X006761Y015708D03*
X006761Y015710D03*
X006475Y015574D03*
X006475Y015571D03*
X005755Y014770D03*
X005755Y014767D03*
X005755Y014765D03*
X005755Y014760D03*
X005755Y014758D03*
X005755Y014753D03*
X005755Y014750D03*
X005755Y014748D03*
X005755Y014698D03*
X005755Y014693D03*
X005467Y014885D03*
X005467Y014887D03*
X005467Y014890D03*
X005755Y013764D03*
X005755Y013762D03*
X005755Y013757D03*
X005755Y013754D03*
X005755Y013750D03*
X005755Y013747D03*
X005755Y013745D03*
X005755Y013740D03*
D22*
X005755Y013742D03*
X005755Y013752D03*
X005755Y013759D03*
X005755Y014695D03*
X005755Y014746D03*
X005755Y014755D03*
X005755Y014762D03*
X006475Y015576D03*
X006761Y015706D03*
X007061Y015329D03*
X006761Y014772D03*
X006761Y014762D03*
X006761Y014755D03*
X006761Y014746D03*
X006761Y014695D03*
X006761Y014686D03*
X007061Y014119D03*
X006761Y013759D03*
X006761Y013752D03*
X006761Y013742D03*
X006761Y013735D03*
D23*
X007051Y014558D03*
X007051Y014561D03*
X007051Y014563D03*
X007051Y014885D03*
X007051Y014887D03*
X007051Y014890D03*
X005758Y014784D03*
X005758Y014782D03*
X005758Y014777D03*
X005758Y014774D03*
X005758Y014690D03*
X005758Y014688D03*
X005758Y014683D03*
X005758Y014681D03*
X005758Y014678D03*
X005758Y014674D03*
X005758Y014671D03*
X005758Y014666D03*
X005758Y014664D03*
X005758Y014662D03*
X005758Y013771D03*
X005758Y013766D03*
X005758Y015665D03*
X005758Y015667D03*
X005758Y015670D03*
X005758Y015674D03*
X005758Y015677D03*
X005758Y015682D03*
X005758Y015684D03*
X005758Y015686D03*
X005758Y015691D03*
X005758Y015694D03*
X005758Y015698D03*
X005758Y015701D03*
X005758Y015703D03*
D24*
X006048Y015566D03*
X006761Y015660D03*
X006761Y015665D03*
X006761Y015667D03*
X006761Y015670D03*
X006761Y014810D03*
X006761Y014808D03*
X006761Y014803D03*
X006761Y014801D03*
X006761Y014798D03*
X006761Y014794D03*
X006761Y014791D03*
X006761Y014786D03*
X006761Y014784D03*
X006761Y014782D03*
X006761Y014664D03*
X006761Y014662D03*
X006761Y014657D03*
X006761Y014654D03*
X006761Y013800D03*
X006761Y013798D03*
X006761Y013793D03*
X006761Y013790D03*
X006761Y013788D03*
X006761Y013783D03*
X006761Y013781D03*
X006761Y013778D03*
X006761Y013774D03*
X006761Y013771D03*
X006761Y013766D03*
D25*
X005758Y013769D03*
X005758Y014659D03*
X005758Y014669D03*
X005758Y014676D03*
X005758Y014686D03*
X005758Y014772D03*
X005758Y014779D03*
X005758Y015672D03*
X005758Y015679D03*
X005758Y015689D03*
X005758Y015696D03*
D26*
X006048Y015569D03*
X006761Y015662D03*
X006761Y014806D03*
X006761Y014796D03*
X006761Y014789D03*
X006761Y014779D03*
X006761Y014659D03*
X006761Y014652D03*
X006761Y013802D03*
X006761Y013795D03*
X006761Y013786D03*
X006761Y013776D03*
X006761Y013769D03*
D27*
X006474Y014558D03*
X006474Y014561D03*
X006474Y014563D03*
X006474Y014894D03*
X006474Y014897D03*
X006474Y015566D03*
X005754Y014803D03*
X005754Y014801D03*
X005754Y014798D03*
X005754Y014794D03*
X005754Y014791D03*
X005754Y014786D03*
X005754Y013798D03*
X005754Y013793D03*
X005754Y013790D03*
X005754Y013788D03*
X005754Y013783D03*
X005754Y013781D03*
X005754Y013778D03*
X005754Y013774D03*
D28*
X005754Y013776D03*
X005754Y013786D03*
X005754Y013795D03*
X005754Y014789D03*
X005754Y014796D03*
X006474Y014892D03*
X006474Y015569D03*
D29*
X005758Y015631D03*
X005758Y015634D03*
X005758Y015638D03*
X005758Y015641D03*
X005758Y015643D03*
X005758Y015648D03*
X005758Y015650D03*
X005758Y015653D03*
X005758Y015658D03*
X005758Y015660D03*
X005758Y014818D03*
X005758Y014813D03*
X005758Y014810D03*
X005758Y014808D03*
X005758Y014657D03*
X005758Y014654D03*
X005758Y014650D03*
X005758Y014647D03*
X005758Y014645D03*
X005758Y014640D03*
X005758Y014638D03*
X005758Y014633D03*
X005758Y014630D03*
X005758Y014628D03*
X005758Y013810D03*
X005758Y013807D03*
X005758Y013805D03*
X005758Y013800D03*
X007058Y014126D03*
D30*
X007058Y014129D03*
X005758Y013802D03*
X005758Y014626D03*
X005758Y014635D03*
X005758Y014642D03*
X005758Y014652D03*
X005758Y014806D03*
X005758Y014815D03*
X005758Y015636D03*
X005758Y015646D03*
X005758Y015655D03*
X005758Y015662D03*
D31*
X005754Y014837D03*
X005754Y014834D03*
X005754Y014830D03*
X005754Y014827D03*
X005754Y014825D03*
X005754Y014820D03*
X005754Y014623D03*
X005754Y014621D03*
X005754Y014618D03*
X005468Y014554D03*
X005468Y014551D03*
X005754Y013831D03*
X005754Y013826D03*
X005754Y013824D03*
X005754Y013822D03*
X005754Y013817D03*
X005754Y013814D03*
X006042Y013886D03*
X006042Y013891D03*
X006474Y013891D03*
X006474Y013886D03*
X006762Y013834D03*
X006762Y013831D03*
X006762Y013826D03*
X006762Y013824D03*
X006762Y013822D03*
X006762Y013817D03*
X006762Y013814D03*
X006762Y013810D03*
X006762Y013807D03*
X006762Y013805D03*
X006474Y014551D03*
X006474Y014554D03*
X006762Y014618D03*
X006762Y014621D03*
X006762Y014623D03*
X006762Y014628D03*
X006762Y014630D03*
X006762Y014813D03*
X006762Y014818D03*
X006762Y014820D03*
X006762Y014825D03*
X006762Y014827D03*
X006762Y014830D03*
X006762Y014834D03*
X006762Y014837D03*
X006762Y014842D03*
X006762Y014844D03*
X006762Y015626D03*
X006762Y015631D03*
X006762Y015634D03*
D32*
X006762Y015636D03*
X006762Y015629D03*
X006762Y014839D03*
X006762Y014832D03*
X006762Y014822D03*
X006762Y014815D03*
X006762Y014626D03*
X006474Y014556D03*
X005754Y014822D03*
X005754Y014832D03*
X005468Y014556D03*
X005754Y013829D03*
X005754Y013819D03*
X005754Y013812D03*
X006042Y013889D03*
X006474Y013889D03*
X006762Y013836D03*
X006762Y013829D03*
X006762Y013819D03*
X006762Y013812D03*
D33*
X006457Y013826D03*
X006457Y013831D03*
X006059Y013831D03*
X006059Y013826D03*
X006059Y014611D03*
X006059Y014614D03*
X006059Y014834D03*
X006059Y014837D03*
X005411Y015374D03*
X005411Y015377D03*
X006810Y015360D03*
X007110Y015374D03*
X007110Y015377D03*
X007064Y014837D03*
X007064Y014834D03*
X007064Y014614D03*
X007064Y014611D03*
D34*
X007064Y014616D03*
X007064Y014832D03*
X007110Y015372D03*
X006810Y015362D03*
X006059Y014832D03*
X006059Y014616D03*
X005411Y015372D03*
X006059Y013829D03*
X006457Y013829D03*
D35*
X005758Y013834D03*
X005758Y013838D03*
X005758Y013841D03*
X005758Y013843D03*
X005758Y014594D03*
X005758Y014597D03*
X005758Y014602D03*
X005758Y014604D03*
X005758Y014606D03*
X005758Y014611D03*
X005758Y014614D03*
X005758Y014842D03*
X005758Y014844D03*
X005758Y014846D03*
X005758Y014851D03*
X005758Y014854D03*
X005472Y014902D03*
X005472Y014904D03*
X005758Y015605D03*
X005758Y015607D03*
X005758Y015610D03*
X005758Y015614D03*
X005758Y015617D03*
X005758Y015622D03*
X005758Y015624D03*
X005758Y015626D03*
X006478Y014904D03*
X006478Y014902D03*
D36*
X006054Y014844D03*
X006054Y014842D03*
X006054Y014606D03*
X006054Y013834D03*
X007100Y015365D03*
X007100Y015367D03*
X007100Y015370D03*
D37*
X007061Y014844D03*
X007061Y014842D03*
X007061Y014606D03*
X006461Y013834D03*
X005714Y014088D03*
X005714Y014090D03*
X005422Y015365D03*
X005422Y015367D03*
X005422Y015370D03*
D38*
X005758Y015612D03*
X005758Y015619D03*
X005758Y015629D03*
X005758Y014856D03*
X005758Y014849D03*
X005758Y014839D03*
X005758Y014616D03*
X005758Y014609D03*
X005758Y014599D03*
X005758Y014592D03*
X005472Y014899D03*
X006478Y014899D03*
X005758Y013836D03*
D39*
X006054Y013836D03*
X006054Y014609D03*
X006054Y014839D03*
D40*
X005714Y014086D03*
X006461Y013836D03*
X007061Y014609D03*
X007061Y014839D03*
D41*
X007062Y014846D03*
X007062Y014604D03*
X007062Y014602D03*
X007093Y014090D03*
X007093Y014088D03*
X006462Y013843D03*
X006462Y013841D03*
X006462Y013838D03*
X006054Y013838D03*
X006054Y013841D03*
X006054Y013843D03*
X005420Y014088D03*
X005420Y014090D03*
X006054Y014602D03*
X006054Y014604D03*
X006054Y014846D03*
X007093Y015360D03*
D42*
X006761Y014863D03*
X006761Y014861D03*
X006761Y014858D03*
X006761Y014854D03*
X006761Y014851D03*
X006041Y014902D03*
X006041Y014904D03*
X005755Y014863D03*
X005755Y014861D03*
X005755Y014858D03*
X005755Y013850D03*
X005755Y013848D03*
X006761Y013848D03*
X006761Y013850D03*
X006761Y013843D03*
X006761Y013841D03*
X006761Y013838D03*
D43*
X006761Y013846D03*
X005755Y013846D03*
X006041Y014899D03*
X006761Y014856D03*
D44*
X006052Y014592D03*
X006052Y013846D03*
X006464Y013846D03*
D45*
X006464Y013848D03*
X006464Y013850D03*
X006052Y013850D03*
X006052Y013848D03*
X006052Y014594D03*
X006052Y014597D03*
D46*
X005752Y013858D03*
X005752Y013853D03*
D47*
X006052Y013853D03*
X006052Y013858D03*
X006464Y013858D03*
X006464Y013853D03*
X007084Y014100D03*
X007057Y014585D03*
X007057Y014587D03*
X007057Y014590D03*
X007057Y014858D03*
X007057Y014861D03*
X007057Y014863D03*
X006052Y014863D03*
X006052Y014861D03*
X006052Y014858D03*
X006052Y014590D03*
X006052Y014587D03*
X006052Y014585D03*
D48*
X006768Y014580D03*
X006768Y013858D03*
X006768Y013853D03*
D49*
X005752Y013855D03*
D50*
X006052Y013855D03*
X006464Y013855D03*
X007084Y014102D03*
D51*
X006768Y013855D03*
X006768Y014582D03*
D52*
X005748Y013860D03*
D53*
X006048Y013860D03*
D54*
X006467Y013860D03*
X007074Y014105D03*
X007074Y014107D03*
X007074Y014110D03*
X006467Y014580D03*
X007074Y015338D03*
X007074Y015341D03*
X007074Y015343D03*
D55*
X005444Y014143D03*
X005444Y014141D03*
X005444Y014138D03*
X006772Y013860D03*
D56*
X005748Y013862D03*
D57*
X006048Y013862D03*
D58*
X006467Y013862D03*
X006467Y014582D03*
D59*
X006772Y013862D03*
D60*
X006768Y013865D03*
X006768Y013867D03*
X006768Y013870D03*
X007001Y014311D03*
X007001Y014314D03*
X006768Y014568D03*
X006768Y014570D03*
X005748Y013870D03*
X005748Y013867D03*
X005748Y013865D03*
X005534Y014328D03*
X005534Y014330D03*
X005534Y015120D03*
D61*
X006048Y014878D03*
X006048Y014873D03*
X006048Y014578D03*
X006048Y014573D03*
X005448Y014117D03*
X005448Y014114D03*
X006048Y013870D03*
X006048Y013867D03*
X006048Y013865D03*
X006468Y013865D03*
X006468Y013867D03*
X006468Y013870D03*
D62*
X006564Y014095D03*
X006504Y014136D03*
X005758Y013872D03*
X007018Y015139D03*
X006758Y015576D03*
D63*
X006515Y015319D03*
X006560Y015106D03*
X005960Y015106D03*
X005960Y015355D03*
X005540Y015115D03*
X005509Y015139D03*
X005548Y014342D03*
X006762Y013872D03*
X006973Y014342D03*
D64*
X006564Y014345D03*
X006564Y014347D03*
X006564Y014350D03*
X006504Y014134D03*
X006504Y014131D03*
X006564Y014098D03*
X006564Y014093D03*
X005758Y013877D03*
X005758Y013874D03*
X007018Y015142D03*
X007018Y015144D03*
X006758Y015571D03*
X006758Y015574D03*
D65*
X006515Y015324D03*
X006515Y015322D03*
X006560Y015110D03*
X006560Y015108D03*
X005960Y015108D03*
X005960Y015110D03*
X005960Y015353D03*
X005960Y015358D03*
X005540Y015118D03*
X005540Y015113D03*
X005509Y015142D03*
X005509Y015144D03*
X005435Y015305D03*
X005435Y015307D03*
X005435Y015310D03*
X005754Y014890D03*
X005754Y014887D03*
X005754Y014885D03*
X005548Y014340D03*
X006762Y013877D03*
X006762Y013874D03*
X006973Y014340D03*
D66*
X006751Y013879D03*
X005765Y013879D03*
X005491Y014309D03*
X006571Y015362D03*
D67*
X006764Y015672D03*
X006764Y015679D03*
X006764Y015689D03*
X006764Y015696D03*
X006764Y014676D03*
X006764Y014669D03*
X006472Y013879D03*
X006044Y013879D03*
D68*
X005765Y013882D03*
X005765Y013884D03*
X005491Y014306D03*
X005558Y015098D03*
X005558Y015101D03*
X005558Y015103D03*
X006571Y015360D03*
X006958Y015103D03*
X006958Y015101D03*
X006958Y015098D03*
X006751Y013884D03*
X006751Y013882D03*
D69*
X006472Y013882D03*
X006472Y013884D03*
X006044Y013884D03*
X006044Y013882D03*
X006044Y014558D03*
X006044Y014561D03*
X006044Y014563D03*
X006044Y014885D03*
X006044Y014887D03*
X006044Y014890D03*
X006764Y014683D03*
X006764Y014681D03*
X006764Y014678D03*
X006764Y014674D03*
X006764Y014671D03*
X006764Y014666D03*
X006764Y015674D03*
X006764Y015677D03*
X006764Y015682D03*
X006764Y015684D03*
X006764Y015686D03*
X006764Y015691D03*
X006764Y015694D03*
D70*
X005778Y013891D03*
X005778Y013886D03*
D71*
X005942Y014088D03*
X005942Y014090D03*
X005942Y014354D03*
X005942Y014357D03*
X006742Y013891D03*
X006742Y013886D03*
X006022Y015314D03*
X006022Y015317D03*
D72*
X005778Y013889D03*
D73*
X005942Y014086D03*
X005942Y014352D03*
X006742Y013889D03*
X006022Y015312D03*
D74*
X005874Y015562D03*
X005874Y015564D03*
X005874Y013894D03*
D75*
X006641Y013894D03*
X006641Y015554D03*
X006641Y015557D03*
X005894Y015523D03*
X005894Y015521D03*
X005894Y015518D03*
D76*
X005874Y015559D03*
X005874Y013896D03*
D77*
X006641Y013896D03*
X006641Y015552D03*
D78*
X006628Y015530D03*
X006628Y015528D03*
X006628Y015523D03*
X006628Y015521D03*
X006628Y015518D03*
X005888Y015540D03*
X005881Y015545D03*
X005881Y015547D03*
X005881Y015550D03*
X005888Y013930D03*
X005888Y013927D03*
X005888Y013925D03*
X005881Y013903D03*
X005881Y013901D03*
X005881Y013898D03*
X006628Y013920D03*
X006628Y013925D03*
X006628Y013927D03*
X006628Y013930D03*
X006635Y013903D03*
X006635Y013901D03*
X006635Y013898D03*
D79*
X006631Y013906D03*
X006631Y013915D03*
X005885Y013906D03*
X006631Y015535D03*
X006631Y015542D03*
D80*
X006631Y015540D03*
X006631Y015538D03*
X006631Y015533D03*
X006631Y013918D03*
X006631Y013913D03*
X006631Y013910D03*
X006631Y013908D03*
X005885Y013908D03*
X005885Y013910D03*
D81*
X005892Y013913D03*
X005892Y013918D03*
X005892Y013920D03*
X005892Y015528D03*
X005892Y015530D03*
X005892Y015533D03*
X005892Y015538D03*
X006638Y015545D03*
X006638Y015547D03*
X006638Y015550D03*
D82*
X005892Y015535D03*
X005892Y015526D03*
X005892Y013922D03*
X005892Y013915D03*
D83*
X006628Y013922D03*
X006628Y015526D03*
X005888Y015542D03*
D84*
X005891Y015516D03*
X005891Y013932D03*
D85*
X006624Y013932D03*
X005878Y015552D03*
D86*
X005891Y015514D03*
X005891Y015511D03*
X005891Y013937D03*
X005891Y013934D03*
D87*
X006624Y013934D03*
X006624Y013937D03*
X005878Y015554D03*
X005878Y015557D03*
D88*
X005887Y013939D03*
D89*
X006628Y013939D03*
X006628Y015516D03*
D90*
X005887Y013944D03*
X005887Y013942D03*
D91*
X006628Y013942D03*
X006628Y013944D03*
X006628Y015511D03*
X006628Y015514D03*
D92*
X005887Y013954D03*
X005887Y013951D03*
X005887Y013946D03*
D93*
X006630Y013946D03*
X006630Y013951D03*
X006630Y015502D03*
X006630Y015504D03*
X006630Y015506D03*
X005891Y015506D03*
X005891Y015504D03*
X005891Y015502D03*
D94*
X005887Y013956D03*
X005887Y013949D03*
D95*
X006630Y013949D03*
X006630Y015499D03*
X006630Y015509D03*
X005891Y015509D03*
X005891Y015499D03*
D96*
X006628Y013954D03*
D97*
X006628Y013956D03*
D98*
X006631Y013958D03*
X006631Y013961D03*
X006631Y013963D03*
X005885Y013963D03*
X005885Y013961D03*
X005885Y013958D03*
X006631Y015494D03*
X006631Y015497D03*
D99*
X006631Y015482D03*
X005885Y015482D03*
X005885Y013975D03*
X005885Y013966D03*
X006631Y013966D03*
X006631Y013975D03*
D100*
X006631Y013973D03*
X006631Y013970D03*
X006631Y013968D03*
X006631Y013978D03*
X005885Y013978D03*
X005885Y013973D03*
X005885Y013970D03*
X005885Y013968D03*
X005885Y015480D03*
X006631Y015480D03*
D101*
X006638Y015470D03*
X006638Y015468D03*
X005885Y015468D03*
X005885Y015470D03*
X005885Y013980D03*
D102*
X006635Y013980D03*
X006635Y015473D03*
X006635Y015478D03*
D103*
X006638Y015466D03*
X005885Y015466D03*
X005885Y013982D03*
D104*
X006635Y013982D03*
X006635Y015475D03*
D105*
X006635Y015463D03*
X006635Y015461D03*
X006635Y015458D03*
X006635Y013990D03*
X006635Y013987D03*
X006635Y013985D03*
X005881Y013985D03*
X005881Y013987D03*
X005881Y013990D03*
D106*
X005885Y013992D03*
X005885Y015456D03*
D107*
X006637Y015456D03*
X006637Y013992D03*
D108*
X005885Y013994D03*
X005885Y013997D03*
X005885Y015451D03*
X005885Y015454D03*
X005885Y015458D03*
X005885Y015461D03*
X005885Y015463D03*
D109*
X006637Y015454D03*
X006637Y015451D03*
X006637Y013997D03*
X006637Y013994D03*
D110*
X006634Y013999D03*
X005882Y013999D03*
X005882Y015449D03*
D111*
X005882Y015446D03*
X005882Y014004D03*
X005882Y014002D03*
X006634Y014002D03*
X006634Y014004D03*
D112*
X006637Y014006D03*
X006637Y014011D03*
X005879Y014011D03*
X005879Y014006D03*
X006637Y015446D03*
D113*
X006637Y015449D03*
X006637Y014009D03*
X005879Y014009D03*
D114*
X005881Y014014D03*
X005881Y015434D03*
X005881Y015437D03*
X005881Y015442D03*
X005881Y015444D03*
D115*
X006638Y015437D03*
X006638Y015434D03*
X006638Y014023D03*
X006638Y014021D03*
X006638Y014018D03*
X006638Y014014D03*
X005878Y014018D03*
X005878Y014021D03*
X005878Y014023D03*
D116*
X005881Y014016D03*
X005881Y015432D03*
X005881Y015439D03*
D117*
X006638Y015432D03*
X006638Y014016D03*
D118*
X006638Y014035D03*
X006638Y014042D03*
X006624Y014069D03*
X006624Y014076D03*
X005892Y014069D03*
X005892Y014059D03*
X005878Y014035D03*
X005878Y014026D03*
X006624Y015372D03*
X006624Y015379D03*
X006638Y015406D03*
X006638Y015415D03*
X005892Y015396D03*
X005892Y015389D03*
X005878Y015415D03*
X005878Y015422D03*
D119*
X006628Y015389D03*
X006642Y015422D03*
X006642Y014026D03*
X005881Y014042D03*
D120*
X005878Y014038D03*
X005878Y014033D03*
X005878Y014030D03*
X005878Y014028D03*
X005892Y014062D03*
X005892Y014064D03*
X005892Y014066D03*
X005892Y014071D03*
X006617Y014078D03*
X006617Y014081D03*
X006617Y014083D03*
X006624Y014074D03*
X006624Y014071D03*
X006624Y014066D03*
X006638Y014040D03*
X006638Y014038D03*
X006638Y014033D03*
X006617Y015365D03*
X006617Y015367D03*
X006617Y015370D03*
X006624Y015374D03*
X006624Y015377D03*
X006624Y015382D03*
X006624Y015384D03*
X006638Y015408D03*
X006638Y015410D03*
X006638Y015413D03*
X006638Y015418D03*
X005892Y015394D03*
X005892Y015391D03*
X005892Y015386D03*
X005878Y015413D03*
X005878Y015418D03*
X005878Y015420D03*
D121*
X005881Y015425D03*
X005881Y015427D03*
X005881Y015430D03*
X006628Y015386D03*
X006642Y015420D03*
X006642Y015425D03*
X006642Y015427D03*
X006642Y015430D03*
X006642Y014030D03*
X006642Y014028D03*
X005881Y014040D03*
D122*
X005885Y014045D03*
X005885Y014047D03*
X005885Y014050D03*
X005885Y014054D03*
X005885Y014057D03*
X006631Y014057D03*
X006631Y014054D03*
X006631Y014050D03*
X006631Y014047D03*
X006631Y014045D03*
X006631Y014062D03*
X006631Y014064D03*
X006631Y015391D03*
X006631Y015394D03*
X006631Y015398D03*
X006631Y015401D03*
X006631Y015403D03*
X005885Y015403D03*
X005885Y015401D03*
X005885Y015398D03*
X005885Y015408D03*
X005885Y015410D03*
D123*
X005885Y015406D03*
X006631Y015396D03*
X006631Y014059D03*
X006631Y014052D03*
X005885Y014052D03*
D124*
X005408Y014074D03*
X005708Y015360D03*
X006061Y015626D03*
X007108Y014074D03*
D125*
X005898Y014074D03*
X005898Y014078D03*
X005898Y014081D03*
X005898Y014083D03*
X005898Y015365D03*
X005898Y015367D03*
X005898Y015370D03*
X005898Y015374D03*
X005898Y015377D03*
D126*
X005708Y015362D03*
X006061Y015629D03*
X005408Y014076D03*
X007108Y014076D03*
D127*
X005898Y014076D03*
X005898Y015372D03*
D128*
X006461Y014844D03*
X006461Y014842D03*
X006461Y014614D03*
X006461Y014611D03*
X005455Y014611D03*
X005455Y014614D03*
X005414Y014083D03*
X005414Y014081D03*
X005414Y014078D03*
D129*
X006804Y014088D03*
X006804Y014090D03*
X007104Y014083D03*
X007104Y014081D03*
X007104Y014078D03*
D130*
X007093Y014086D03*
X007062Y014599D03*
X007062Y014849D03*
X007093Y015362D03*
X006054Y014849D03*
X006054Y014599D03*
X005420Y014086D03*
D131*
X005752Y014892D03*
X005485Y015149D03*
X006491Y015149D03*
X006491Y015312D03*
X006577Y014352D03*
X006577Y014086D03*
X006952Y014352D03*
X007091Y014146D03*
D132*
X006804Y014086D03*
D133*
X006577Y014088D03*
X006577Y014090D03*
X006577Y014354D03*
X006577Y014357D03*
X006952Y014357D03*
X006952Y014354D03*
X007091Y014150D03*
X007091Y014148D03*
X006491Y015146D03*
X006491Y015314D03*
X006491Y015317D03*
X005752Y014897D03*
X005752Y014894D03*
X005485Y015146D03*
D134*
X005461Y014854D03*
X005461Y014851D03*
X005428Y014098D03*
X005428Y014093D03*
D135*
X005958Y014093D03*
X005958Y014098D03*
X005958Y014345D03*
X005958Y014347D03*
X005958Y014350D03*
X006764Y014885D03*
X006764Y014887D03*
X006764Y014890D03*
X006971Y015108D03*
X006971Y015110D03*
X006558Y015353D03*
X006558Y015358D03*
D136*
X007087Y014098D03*
X007087Y014093D03*
D137*
X005428Y014095D03*
X005461Y014856D03*
D138*
X005958Y014095D03*
X006971Y015106D03*
X006558Y015355D03*
D139*
X007087Y014095D03*
D140*
X005435Y014100D03*
X005435Y015353D03*
X005435Y015358D03*
D141*
X005758Y015578D03*
X005758Y015581D03*
X005758Y015583D03*
X006552Y015350D03*
X006552Y015348D03*
X006552Y015118D03*
X006552Y015113D03*
X006977Y015113D03*
X006977Y015118D03*
X006984Y015120D03*
X007078Y015305D03*
X007078Y015307D03*
X007078Y015310D03*
X006518Y014314D03*
X006518Y014311D03*
X005998Y014126D03*
X005964Y014100D03*
X005964Y014340D03*
D142*
X006554Y014340D03*
X006554Y014100D03*
D143*
X005435Y014102D03*
X005435Y015355D03*
D144*
X006552Y015346D03*
X006552Y015115D03*
X006977Y015115D03*
X006984Y015122D03*
X006518Y014316D03*
X005998Y014129D03*
X005964Y014102D03*
X005964Y014342D03*
D145*
X006554Y014342D03*
X006554Y014102D03*
D146*
X006052Y014580D03*
X006052Y014868D03*
X006052Y014870D03*
X005444Y014110D03*
X005444Y014107D03*
X005444Y014105D03*
D147*
X005971Y014105D03*
X005971Y014107D03*
X005971Y014110D03*
D148*
X006541Y014114D03*
X006541Y014117D03*
X006548Y014110D03*
X006548Y014107D03*
X006548Y014105D03*
X006548Y014333D03*
X006548Y014338D03*
X006988Y014330D03*
X006988Y014328D03*
X005975Y015120D03*
X005968Y015118D03*
X005968Y015113D03*
X006001Y015322D03*
X006001Y015324D03*
X005975Y015338D03*
X005975Y015341D03*
X005975Y015343D03*
X005968Y015348D03*
X005968Y015350D03*
X005528Y015130D03*
X005528Y015127D03*
X005528Y015125D03*
D149*
X006048Y014875D03*
X006048Y014575D03*
X005448Y014112D03*
D150*
X005977Y014112D03*
X005977Y014326D03*
X006997Y015132D03*
X005977Y015336D03*
D151*
X005968Y015346D03*
X006001Y015319D03*
X005975Y015122D03*
X005968Y015115D03*
X006548Y014335D03*
X006541Y014112D03*
X006988Y014326D03*
D152*
X007067Y014112D03*
D153*
X005977Y014114D03*
X005977Y014117D03*
X005977Y014328D03*
X005977Y014330D03*
X006997Y015134D03*
X006997Y015137D03*
X005977Y015331D03*
X005977Y015334D03*
D154*
X007067Y014117D03*
X007067Y014114D03*
D155*
X006524Y014129D03*
X005984Y014119D03*
X005992Y015132D03*
X006532Y015132D03*
X006532Y015329D03*
X006772Y015586D03*
D156*
X005755Y014882D03*
X006535Y014119D03*
D157*
X006524Y014126D03*
X005984Y014124D03*
X005984Y014122D03*
X005992Y015134D03*
X005992Y015137D03*
X006532Y015137D03*
X006532Y015134D03*
X006532Y015326D03*
X006772Y015588D03*
X006772Y015590D03*
D158*
X005981Y015130D03*
X005981Y015127D03*
X005981Y015125D03*
X005755Y014880D03*
X005981Y014323D03*
X005981Y014321D03*
X005981Y014318D03*
X006535Y014318D03*
X006535Y014321D03*
X006535Y014323D03*
X006535Y014124D03*
X006535Y014122D03*
D159*
X005461Y014126D03*
X005468Y014558D03*
X005468Y014561D03*
X005468Y014563D03*
X005468Y014894D03*
X005468Y014897D03*
D160*
X005468Y014892D03*
X005461Y014129D03*
D161*
X005455Y014131D03*
X005455Y014134D03*
X005755Y014580D03*
D162*
X005752Y014563D03*
X005752Y014561D03*
X005752Y014558D03*
X006018Y014134D03*
X006018Y014131D03*
X006498Y014306D03*
X006764Y014558D03*
X006764Y014561D03*
X006764Y014563D03*
D163*
X007070Y014134D03*
X007070Y014131D03*
D164*
X005755Y014582D03*
X005455Y014136D03*
D165*
X006018Y014136D03*
X006498Y014309D03*
D166*
X007070Y014136D03*
D167*
X006038Y014138D03*
X006038Y014141D03*
X006038Y014143D03*
X006038Y014302D03*
X006038Y014304D03*
X005431Y015300D03*
D168*
X006487Y014143D03*
X006487Y014141D03*
X006487Y014138D03*
X007087Y015300D03*
D169*
X006991Y015130D03*
X006991Y015127D03*
X006991Y015125D03*
X006545Y015120D03*
X006538Y015125D03*
X006538Y015127D03*
X006538Y015130D03*
X006538Y015331D03*
X006538Y015334D03*
X006545Y015338D03*
X006545Y015341D03*
X006545Y015343D03*
X005525Y015137D03*
X005525Y015134D03*
X005525Y014323D03*
X005525Y014321D03*
X005525Y014318D03*
X005971Y014333D03*
X005971Y014338D03*
X006545Y014330D03*
X006545Y014328D03*
X006991Y014323D03*
X006991Y014321D03*
X006991Y014318D03*
X007078Y014143D03*
X007078Y014141D03*
X007078Y014138D03*
D170*
X007021Y014309D03*
X005435Y014146D03*
D171*
X006061Y014146D03*
X006061Y015302D03*
D172*
X006071Y015276D03*
X006071Y015269D03*
X006071Y015259D03*
X006071Y015199D03*
X006071Y015192D03*
X006071Y015182D03*
X006052Y015156D03*
X005444Y015175D03*
X005444Y015182D03*
X005444Y014275D03*
X005444Y014266D03*
X006071Y014266D03*
X006071Y014256D03*
X006071Y014189D03*
X006071Y014179D03*
X006071Y014172D03*
X006464Y014146D03*
X007064Y014292D03*
D173*
X007021Y014306D03*
X006568Y015098D03*
X006568Y015101D03*
X006568Y015103D03*
X005948Y015103D03*
X005948Y015101D03*
X005948Y015098D03*
X005555Y014350D03*
X005555Y014347D03*
X005555Y014345D03*
X005435Y014150D03*
X005435Y014148D03*
D174*
X006061Y014148D03*
X006061Y014150D03*
X006061Y015300D03*
D175*
X006071Y015274D03*
X006071Y015271D03*
X006071Y015266D03*
X006071Y015264D03*
X006071Y015262D03*
X006071Y015204D03*
X006071Y015202D03*
X006071Y015197D03*
X006071Y015194D03*
X006071Y015190D03*
X006071Y015187D03*
X006071Y015185D03*
X006071Y015180D03*
X006052Y015154D03*
X006052Y015151D03*
X005444Y015173D03*
X005444Y015178D03*
X005444Y015180D03*
X005444Y015185D03*
X005444Y015187D03*
X005444Y015190D03*
X005444Y015278D03*
X005444Y015281D03*
X005444Y015283D03*
X005444Y014278D03*
X005444Y014273D03*
X005444Y014270D03*
X005444Y014268D03*
X006071Y014268D03*
X006071Y014270D03*
X006071Y014263D03*
X006071Y014261D03*
X006071Y014258D03*
X006071Y014254D03*
X006071Y014251D03*
X006071Y014186D03*
X006071Y014184D03*
X006071Y014182D03*
X006071Y014177D03*
X006071Y014174D03*
X006464Y014150D03*
X006464Y014148D03*
X007064Y014294D03*
X007064Y014297D03*
D176*
X007081Y014158D03*
X007081Y014153D03*
X007081Y015293D03*
X007081Y015298D03*
X005435Y014158D03*
X005435Y014153D03*
D177*
X006064Y014153D03*
X006064Y014158D03*
X006064Y014285D03*
X006064Y014287D03*
X006064Y014290D03*
X006457Y014294D03*
X006457Y014297D03*
X006457Y015158D03*
X006457Y015161D03*
X006457Y015163D03*
X006457Y015300D03*
X006064Y015298D03*
X006064Y015293D03*
X006064Y015163D03*
X006064Y015161D03*
X006064Y015158D03*
X005452Y015158D03*
X005452Y015161D03*
X005452Y015163D03*
D178*
X006067Y015168D03*
X006067Y015170D03*
X006067Y015173D03*
X006067Y015178D03*
X006067Y015278D03*
X006067Y015281D03*
X006067Y015283D03*
X006067Y015288D03*
X006067Y015290D03*
X006454Y015293D03*
X006454Y015298D03*
X006454Y015170D03*
X006454Y015168D03*
X006454Y014290D03*
X006454Y014287D03*
X006454Y014285D03*
X006454Y014280D03*
X006454Y014160D03*
X006454Y014158D03*
X006454Y014153D03*
X006067Y014160D03*
X006067Y014165D03*
X006067Y014167D03*
X006067Y014170D03*
X006067Y014273D03*
X006067Y014278D03*
X006067Y014280D03*
X005455Y014294D03*
X005455Y014297D03*
D179*
X005435Y014155D03*
X007081Y014155D03*
X007081Y015295D03*
D180*
X006457Y015302D03*
X006064Y015295D03*
X006457Y014292D03*
X006064Y014155D03*
D181*
X006067Y014162D03*
X006067Y014275D03*
X006067Y014282D03*
X006454Y014282D03*
X006454Y014162D03*
X006454Y014155D03*
X005455Y014292D03*
X006067Y015166D03*
X006067Y015175D03*
X006067Y015286D03*
X006454Y015295D03*
X006454Y015166D03*
D182*
X006448Y015194D03*
X006448Y015197D03*
X006448Y015202D03*
X006448Y015204D03*
X006448Y015206D03*
X006448Y015211D03*
X006448Y015214D03*
X006448Y015218D03*
X006448Y015221D03*
X006448Y015223D03*
X006448Y015240D03*
X006448Y015245D03*
X006448Y015247D03*
X006448Y015250D03*
X006448Y015254D03*
X006448Y015257D03*
X006448Y015262D03*
X006448Y015264D03*
X006448Y015266D03*
X007074Y015266D03*
X007074Y015264D03*
X007074Y015262D03*
X007074Y015271D03*
X007074Y015274D03*
X007074Y015278D03*
X007074Y015281D03*
X007074Y015283D03*
X007074Y015288D03*
X007074Y015290D03*
X007074Y015204D03*
X007074Y015202D03*
X007074Y015197D03*
X007074Y015194D03*
X007074Y015190D03*
X007074Y015187D03*
X007074Y015185D03*
X007074Y014270D03*
X007074Y014268D03*
X007074Y014263D03*
X007074Y014261D03*
X007074Y014258D03*
X007074Y014254D03*
X007074Y014251D03*
X007074Y014186D03*
X007074Y014184D03*
X007074Y014182D03*
X007074Y014177D03*
X007074Y014174D03*
X007074Y014170D03*
X007074Y014167D03*
X007074Y014165D03*
X007074Y014160D03*
X006448Y014182D03*
X006448Y014184D03*
X006448Y014186D03*
X006448Y014191D03*
X006448Y014194D03*
X006448Y014198D03*
X006448Y014201D03*
X006448Y014203D03*
X006448Y014208D03*
X006448Y014210D03*
X006448Y014234D03*
X006448Y014237D03*
X006448Y014242D03*
X006448Y014244D03*
X006448Y014246D03*
X006448Y014251D03*
X006448Y014254D03*
X006448Y014258D03*
X006448Y014261D03*
X006448Y014263D03*
X005754Y014902D03*
X005754Y014904D03*
X005442Y015194D03*
X005442Y015197D03*
X005442Y015202D03*
X005442Y015204D03*
X005442Y015206D03*
X005442Y015211D03*
X005442Y015214D03*
X005442Y015218D03*
X005442Y015221D03*
X005442Y015223D03*
X005442Y015240D03*
X005442Y015245D03*
X005442Y015247D03*
X005442Y015250D03*
X005442Y015254D03*
X005442Y015257D03*
X005442Y015262D03*
X005442Y015264D03*
X005442Y015266D03*
X005442Y015271D03*
X005442Y015274D03*
X005442Y015288D03*
X005442Y015290D03*
X005442Y014263D03*
X005442Y014261D03*
X005442Y014258D03*
X005442Y014254D03*
X005442Y014251D03*
X005442Y014246D03*
X005442Y014244D03*
X005442Y014242D03*
X005442Y014237D03*
X005442Y014234D03*
X005442Y014210D03*
X005442Y014208D03*
X005442Y014203D03*
X005442Y014201D03*
X005442Y014198D03*
X005442Y014194D03*
X005442Y014191D03*
X005442Y014186D03*
X005442Y014184D03*
X005442Y014182D03*
X005442Y014177D03*
X005442Y014174D03*
X005442Y014170D03*
X005442Y014167D03*
X005442Y014165D03*
X005442Y014160D03*
D183*
X005442Y014162D03*
X005442Y014172D03*
X005442Y014179D03*
X005442Y014189D03*
X005442Y014196D03*
X005442Y014206D03*
X005442Y014232D03*
X005442Y014239D03*
X005442Y014249D03*
X005442Y014256D03*
X005754Y014899D03*
X005442Y015192D03*
X005442Y015199D03*
X005442Y015209D03*
X005442Y015216D03*
X005442Y015242D03*
X005442Y015252D03*
X005442Y015259D03*
X005442Y015269D03*
X005442Y015276D03*
X005442Y015286D03*
X006448Y015269D03*
X006448Y015259D03*
X006448Y015252D03*
X006448Y015242D03*
X006448Y015216D03*
X006448Y015209D03*
X006448Y015199D03*
X006448Y015192D03*
X007074Y015192D03*
X007074Y015199D03*
X007074Y015259D03*
X007074Y015269D03*
X007074Y015276D03*
X007074Y015286D03*
X007074Y014266D03*
X007074Y014256D03*
X007074Y014189D03*
X007074Y014179D03*
X007074Y014172D03*
X007074Y014162D03*
X006448Y014179D03*
X006448Y014189D03*
X006448Y014196D03*
X006448Y014206D03*
X006448Y014232D03*
X006448Y014239D03*
X006448Y014249D03*
X006448Y014256D03*
D184*
X006451Y014268D03*
X006451Y014270D03*
X006451Y014273D03*
X006451Y014278D03*
X006451Y014177D03*
X006451Y014174D03*
X006451Y014170D03*
X006451Y014167D03*
X006451Y014165D03*
X006058Y014294D03*
X006058Y014297D03*
X006451Y015173D03*
X006451Y015178D03*
X006451Y015180D03*
X006451Y015185D03*
X006451Y015187D03*
X006451Y015190D03*
X006451Y015271D03*
X006451Y015274D03*
X006451Y015278D03*
X006451Y015281D03*
X006451Y015283D03*
X006451Y015288D03*
X006451Y015290D03*
D185*
X006451Y015286D03*
X006451Y015276D03*
X006451Y015182D03*
X006451Y015175D03*
X006451Y014275D03*
X006451Y014266D03*
X006451Y014172D03*
X006058Y014292D03*
D186*
X006074Y014246D03*
X006074Y014244D03*
X006074Y014242D03*
X006074Y014237D03*
X006074Y014234D03*
X006074Y014230D03*
X006074Y014227D03*
X006074Y014225D03*
X006074Y014220D03*
X006074Y014218D03*
X006074Y014213D03*
X006074Y014210D03*
X006074Y014208D03*
X006074Y014203D03*
X006074Y014201D03*
X006074Y014198D03*
X006074Y014194D03*
X006074Y014191D03*
X006074Y015206D03*
X006074Y015211D03*
X006074Y015214D03*
X006074Y015218D03*
X006074Y015221D03*
X006074Y015223D03*
X006074Y015228D03*
X006074Y015230D03*
X006074Y015233D03*
X006074Y015238D03*
X006074Y015240D03*
X006074Y015245D03*
X006074Y015247D03*
X006074Y015250D03*
X006074Y015254D03*
X006074Y015257D03*
D187*
X006444Y015238D03*
X006444Y015233D03*
X006444Y015230D03*
X006444Y015228D03*
X006470Y015154D03*
X006470Y015151D03*
X006470Y015305D03*
X006470Y015307D03*
X006470Y015310D03*
X007078Y015257D03*
X007078Y015254D03*
X007078Y015250D03*
X007078Y015247D03*
X007078Y015245D03*
X007078Y015240D03*
X007078Y015238D03*
X007078Y015233D03*
X007078Y015230D03*
X007078Y015228D03*
X007078Y015223D03*
X007078Y015221D03*
X007078Y015218D03*
X007078Y015214D03*
X007078Y015211D03*
X007078Y015206D03*
X007078Y014246D03*
X007078Y014244D03*
X007078Y014242D03*
X007078Y014237D03*
X007078Y014234D03*
X007078Y014230D03*
X007078Y014227D03*
X007078Y014225D03*
X007078Y014220D03*
X007078Y014218D03*
X007078Y014213D03*
X007078Y014210D03*
X007078Y014208D03*
X007078Y014203D03*
X007078Y014201D03*
X007078Y014198D03*
X007078Y014194D03*
X007078Y014191D03*
X006478Y014302D03*
X006478Y014304D03*
X006444Y014230D03*
X006444Y014227D03*
X006444Y014225D03*
X006444Y014220D03*
X006444Y014218D03*
X006444Y014213D03*
X005472Y014302D03*
X005472Y014304D03*
X005438Y014230D03*
X005438Y014227D03*
X005438Y014225D03*
X005438Y014220D03*
X005438Y014218D03*
X005438Y014213D03*
X005465Y015151D03*
X005465Y015154D03*
X005438Y015228D03*
X005438Y015230D03*
X005438Y015233D03*
X005438Y015238D03*
X005438Y015293D03*
X005438Y015298D03*
D188*
X006074Y015252D03*
X006074Y015242D03*
X006074Y015235D03*
X006074Y015226D03*
X006074Y015216D03*
X006074Y015209D03*
X006074Y014249D03*
X006074Y014239D03*
X006074Y014232D03*
X006074Y014222D03*
X006074Y014215D03*
X006074Y014206D03*
X006074Y014196D03*
D189*
X006444Y014215D03*
X006444Y014222D03*
X006478Y014299D03*
X007078Y014249D03*
X007078Y014239D03*
X007078Y014232D03*
X007078Y014222D03*
X007078Y014215D03*
X007078Y014206D03*
X007078Y014196D03*
X006470Y015156D03*
X006444Y015226D03*
X006444Y015235D03*
X007078Y015235D03*
X007078Y015242D03*
X007078Y015252D03*
X007078Y015226D03*
X007078Y015216D03*
X007078Y015209D03*
X005465Y015156D03*
X005438Y015226D03*
X005438Y015235D03*
X005438Y015295D03*
X005472Y014299D03*
X005438Y014222D03*
X005438Y014215D03*
D190*
X007070Y014273D03*
X007070Y014278D03*
X007070Y014280D03*
X007070Y015168D03*
X007070Y015170D03*
X007070Y015173D03*
X007070Y015178D03*
X007070Y015180D03*
D191*
X007070Y015182D03*
X007070Y015175D03*
X007070Y015166D03*
X007070Y014282D03*
X007070Y014275D03*
D192*
X007068Y014285D03*
X007068Y014287D03*
X007068Y014290D03*
X007068Y015158D03*
X007068Y015161D03*
X007068Y015163D03*
X005448Y015168D03*
X005448Y015170D03*
X005448Y014290D03*
X005448Y014287D03*
X005448Y014285D03*
X005448Y014280D03*
D193*
X005448Y014282D03*
X005448Y015166D03*
D194*
X005431Y015302D03*
X006038Y014299D03*
D195*
X007040Y014299D03*
X007040Y015149D03*
D196*
X007040Y015146D03*
X007040Y014304D03*
X007040Y014302D03*
D197*
X006014Y014306D03*
X006014Y015142D03*
X006014Y015144D03*
D198*
X006014Y015139D03*
X006014Y014309D03*
D199*
X005538Y014333D03*
X005538Y014338D03*
X005512Y014314D03*
X005512Y014311D03*
X006764Y015578D03*
X006764Y015581D03*
X006764Y015583D03*
D200*
X005754Y014570D03*
X005754Y014568D03*
X005994Y014314D03*
X005994Y014311D03*
X006980Y014333D03*
X006980Y014338D03*
D201*
X005538Y014335D03*
X005512Y014316D03*
D202*
X005754Y014566D03*
X005994Y014316D03*
X006980Y014335D03*
D203*
X007001Y014316D03*
X006768Y014566D03*
X005534Y014326D03*
X005534Y015122D03*
D204*
X005525Y015132D03*
X005971Y014335D03*
X006545Y014326D03*
X006545Y015122D03*
X006538Y015336D03*
D205*
X006511Y015144D03*
X006511Y015142D03*
X005765Y015571D03*
X005765Y015574D03*
X005551Y015110D03*
X005551Y015108D03*
X006965Y014350D03*
X006965Y014347D03*
X006965Y014345D03*
D206*
X006768Y014892D03*
X005568Y014352D03*
D207*
X005568Y014354D03*
X005568Y014357D03*
X006768Y014894D03*
X006768Y014897D03*
D208*
X005755Y015089D03*
X005755Y015096D03*
X005755Y014359D03*
D209*
X006768Y014359D03*
X006768Y015096D03*
D210*
X006761Y015010D03*
X006761Y015007D03*
X006761Y015005D03*
X005755Y015005D03*
X005755Y015007D03*
X005755Y015010D03*
X005755Y015086D03*
X005755Y015091D03*
X005755Y015094D03*
X005755Y014364D03*
X005755Y014362D03*
D211*
X006768Y014362D03*
X006768Y014364D03*
X006768Y015091D03*
X006768Y015094D03*
D212*
X006764Y015086D03*
X006764Y015084D03*
X006764Y015082D03*
X006764Y014443D03*
X006764Y014441D03*
X006764Y014438D03*
X006764Y014366D03*
X005759Y014438D03*
X005759Y014441D03*
X005759Y014443D03*
X005752Y014366D03*
X005752Y015082D03*
X005752Y015084D03*
D213*
X005752Y015079D03*
X005752Y014369D03*
X006764Y014369D03*
X006764Y015079D03*
X006764Y015089D03*
D214*
X006761Y015024D03*
X006761Y015022D03*
X006761Y015017D03*
X006761Y015014D03*
X006761Y014434D03*
X006761Y014431D03*
X005755Y014431D03*
X005755Y014434D03*
X005755Y014374D03*
X005755Y014371D03*
X005755Y015014D03*
X005755Y015017D03*
X005755Y015074D03*
X005755Y015077D03*
D215*
X006768Y015077D03*
X006768Y015074D03*
X006768Y014374D03*
X006768Y014371D03*
D216*
X006761Y014436D03*
X006761Y015012D03*
X006761Y015019D03*
X005755Y015012D03*
X005755Y015072D03*
X005755Y014436D03*
X005755Y014376D03*
D217*
X006768Y014376D03*
X006768Y015072D03*
D218*
X006764Y015070D03*
X006764Y015067D03*
X006764Y015065D03*
X006764Y014426D03*
X006764Y014390D03*
X006764Y014388D03*
X006764Y014383D03*
X006764Y014381D03*
X006764Y014378D03*
X005752Y014378D03*
X005752Y014381D03*
X005752Y014383D03*
X005752Y015065D03*
X005752Y015067D03*
X005752Y015070D03*
D219*
X005755Y015062D03*
X005755Y015029D03*
X005755Y014395D03*
X005755Y014386D03*
X006768Y014395D03*
X006761Y015029D03*
X006768Y015062D03*
D220*
X006764Y014429D03*
X006764Y014386D03*
D221*
X006768Y014393D03*
X006768Y014398D03*
X006761Y015026D03*
X006768Y015060D03*
X005755Y015060D03*
X005755Y015026D03*
X005755Y014398D03*
X005755Y014393D03*
X005755Y014390D03*
X005755Y014388D03*
D222*
X005752Y014400D03*
X005752Y015053D03*
X005752Y015058D03*
X006764Y015058D03*
X006764Y015053D03*
X006764Y015050D03*
X006764Y015048D03*
X006764Y014424D03*
X006764Y014422D03*
X006764Y014400D03*
D223*
X006764Y014402D03*
X006764Y014419D03*
X006764Y015046D03*
X006764Y015055D03*
X005752Y015055D03*
X005752Y014402D03*
D224*
X005754Y014405D03*
X005754Y014407D03*
X005754Y014410D03*
X005754Y014414D03*
X005754Y014417D03*
X005754Y015031D03*
X005754Y015034D03*
X005754Y015038D03*
X005754Y015041D03*
X005754Y015043D03*
X005754Y015048D03*
X005754Y015050D03*
X006762Y015043D03*
X006762Y015041D03*
X006762Y015038D03*
X006762Y015034D03*
X006762Y015031D03*
X006762Y014417D03*
X006762Y014414D03*
X006767Y014410D03*
X006767Y014407D03*
X006767Y014405D03*
D225*
X006762Y014412D03*
X006762Y015036D03*
X005754Y015036D03*
X005754Y015046D03*
X005754Y014412D03*
D226*
X005758Y014419D03*
D227*
X005758Y014422D03*
X005758Y014424D03*
D228*
X005759Y014426D03*
X005759Y015022D03*
X005759Y015024D03*
D229*
X005759Y015019D03*
X005759Y014429D03*
D230*
X005758Y014446D03*
X005758Y015002D03*
D231*
X006764Y014446D03*
D232*
X005758Y014448D03*
X005758Y014450D03*
X005758Y015000D03*
D233*
X006764Y014450D03*
X006764Y014448D03*
D234*
X005758Y014453D03*
X005758Y014458D03*
X005758Y014460D03*
D235*
X005754Y014993D03*
X005754Y014998D03*
X006762Y014998D03*
X006762Y015000D03*
X006762Y014993D03*
X006762Y014458D03*
X006762Y014453D03*
D236*
X005758Y014455D03*
X005758Y014462D03*
D237*
X005754Y014995D03*
X006762Y014995D03*
X006762Y015002D03*
X006762Y014455D03*
D238*
X006764Y014460D03*
D239*
X006764Y014462D03*
D240*
X005758Y014465D03*
X005758Y014467D03*
X005758Y014470D03*
D241*
X006764Y014470D03*
X006764Y014467D03*
X006764Y014465D03*
D242*
X006764Y014479D03*
X005759Y014479D03*
X005759Y014472D03*
X005759Y014976D03*
D243*
X006761Y014976D03*
X006761Y014472D03*
D244*
X006764Y014482D03*
X006764Y014484D03*
X005759Y014484D03*
X005759Y014482D03*
X005759Y014477D03*
X005759Y014474D03*
X005759Y014971D03*
X005759Y014974D03*
D245*
X005755Y014978D03*
X005755Y014981D03*
X005755Y014983D03*
X006761Y014983D03*
X006761Y014981D03*
X006761Y014978D03*
X006761Y014974D03*
X006761Y014971D03*
X006761Y014477D03*
X006761Y014474D03*
D246*
X005758Y014486D03*
D247*
X006764Y014486D03*
D248*
X005758Y014489D03*
D249*
X006764Y014489D03*
D250*
X006763Y014491D03*
X006763Y014494D03*
X006763Y014498D03*
X006763Y014501D03*
X006763Y014503D03*
X006763Y014906D03*
X005758Y014906D03*
X005758Y014954D03*
X005758Y014957D03*
X005758Y014503D03*
X005758Y014501D03*
X005758Y014498D03*
X005758Y014494D03*
X005758Y014491D03*
D251*
X005758Y014496D03*
X005758Y014909D03*
X005758Y014952D03*
X006763Y014909D03*
X006763Y014496D03*
D252*
X005758Y014506D03*
X005758Y014916D03*
D253*
X006764Y014916D03*
X006764Y014506D03*
D254*
X005758Y014508D03*
X005758Y014510D03*
X005758Y014911D03*
X005758Y014914D03*
D255*
X006764Y014914D03*
X006764Y014911D03*
X006764Y014510D03*
X006764Y014508D03*
D256*
X005759Y014513D03*
X005759Y014518D03*
X005759Y014520D03*
X005759Y014525D03*
X005759Y014527D03*
X005759Y014530D03*
X005759Y014918D03*
X005759Y014921D03*
X005759Y014923D03*
X005759Y014928D03*
X005759Y014930D03*
X005759Y014933D03*
X005759Y014938D03*
D257*
X006764Y014530D03*
X006764Y014527D03*
X006764Y014525D03*
X006764Y014520D03*
X006764Y014518D03*
X006764Y014513D03*
D258*
X005759Y014515D03*
X005759Y014522D03*
X005759Y014926D03*
X005759Y014935D03*
D259*
X006764Y014522D03*
X006764Y014515D03*
D260*
X006761Y014532D03*
X006761Y014926D03*
X006761Y014935D03*
X006761Y014942D03*
X005755Y014942D03*
X005755Y014532D03*
D261*
X005755Y014534D03*
X005755Y014537D03*
X005755Y014940D03*
X006761Y014940D03*
X006761Y014938D03*
X006761Y014933D03*
X006761Y014930D03*
X006761Y014928D03*
X006761Y014923D03*
X006761Y014921D03*
X006761Y014918D03*
X006761Y014537D03*
X006761Y014534D03*
D262*
X005754Y014539D03*
D263*
X006761Y014539D03*
D264*
X005754Y014542D03*
X005754Y014544D03*
X005754Y014945D03*
X005754Y014947D03*
X005754Y014950D03*
D265*
X006761Y014950D03*
X006761Y014947D03*
X006761Y014945D03*
X006761Y014544D03*
X006761Y014542D03*
D266*
X005754Y014546D03*
X005754Y014962D03*
X005754Y014964D03*
D267*
X006761Y014964D03*
X006761Y014962D03*
X006761Y014957D03*
X006761Y014954D03*
X006761Y014546D03*
D268*
X005754Y014549D03*
X005754Y014959D03*
D269*
X006761Y014959D03*
X006761Y014952D03*
X006761Y014549D03*
D270*
X005752Y014551D03*
X005752Y014554D03*
D271*
X006044Y014554D03*
X006044Y014551D03*
X006044Y014894D03*
X006044Y014897D03*
X006764Y014650D03*
X006764Y014647D03*
X006764Y014645D03*
X006764Y014640D03*
X006764Y014638D03*
X006764Y014633D03*
X006764Y015638D03*
X006764Y015641D03*
X006764Y015643D03*
X006764Y015648D03*
X006764Y015650D03*
X006764Y015653D03*
X006764Y015658D03*
D272*
X006042Y015310D03*
X006042Y015307D03*
X006042Y015305D03*
X006767Y014554D03*
X006767Y014551D03*
D273*
X007051Y014551D03*
X007051Y014554D03*
X007051Y014894D03*
X007051Y014897D03*
D274*
X005752Y014556D03*
D275*
X006044Y014556D03*
X006044Y014892D03*
X006764Y014642D03*
X006764Y014635D03*
X006764Y015646D03*
X006764Y015655D03*
D276*
X006767Y014556D03*
D277*
X007051Y014556D03*
X007051Y014892D03*
D278*
X005465Y014566D03*
D279*
X006048Y014566D03*
X006048Y014882D03*
D280*
X005465Y014570D03*
X005465Y014568D03*
D281*
X006048Y014568D03*
X006048Y014570D03*
X006048Y014880D03*
D282*
X005758Y014724D03*
X005758Y014722D03*
X005465Y014578D03*
X005465Y014573D03*
X005465Y014880D03*
X005758Y015725D03*
X005758Y015727D03*
X005758Y015730D03*
D283*
X005444Y015317D03*
X005444Y015314D03*
X005752Y014578D03*
X005752Y014573D03*
X006764Y014573D03*
X006764Y014578D03*
D284*
X006764Y014722D03*
X006764Y014724D03*
X006472Y014578D03*
X006472Y014573D03*
X006472Y014880D03*
X007064Y015331D03*
X007064Y015334D03*
X006764Y015725D03*
X006764Y015727D03*
X006764Y015730D03*
X006472Y015583D03*
X006472Y015581D03*
X006472Y015578D03*
X006052Y015578D03*
X006052Y015581D03*
X006052Y015583D03*
D285*
X007055Y014878D03*
X007055Y014873D03*
X007055Y014578D03*
X007055Y014573D03*
D286*
X005758Y014719D03*
X005465Y014575D03*
X005465Y014882D03*
D287*
X005752Y014575D03*
X005444Y015312D03*
X006764Y014575D03*
D288*
X006764Y014719D03*
X006472Y014575D03*
X006472Y014882D03*
X007064Y015336D03*
D289*
X007055Y014875D03*
X007055Y014575D03*
D290*
X006470Y014873D03*
X006470Y014878D03*
X006470Y015588D03*
X006470Y015590D03*
X006050Y015590D03*
X006050Y015588D03*
X005446Y015343D03*
X005446Y015341D03*
X005446Y015338D03*
X005465Y014878D03*
X005465Y014873D03*
X005465Y014580D03*
D291*
X007055Y014580D03*
D292*
X006470Y014875D03*
X006470Y015586D03*
X006050Y015586D03*
X005465Y014875D03*
X005465Y014582D03*
D293*
X006052Y014582D03*
X006052Y014866D03*
D294*
X007055Y014582D03*
D295*
X007081Y015348D03*
X007081Y015350D03*
X005461Y014870D03*
X005461Y014868D03*
X005461Y014590D03*
X005461Y014587D03*
X005461Y014585D03*
D296*
X005759Y014585D03*
X005759Y014587D03*
X005759Y014590D03*
X005459Y015322D03*
X005459Y015324D03*
D297*
X006468Y015593D03*
X006468Y015598D03*
X006468Y014870D03*
X006468Y014868D03*
X006468Y014590D03*
X006468Y014587D03*
X006468Y014585D03*
D298*
X006764Y014585D03*
X006764Y014587D03*
X006764Y014590D03*
X006764Y015600D03*
D299*
X006055Y015602D03*
X005462Y014592D03*
D300*
X006468Y014592D03*
X006468Y015602D03*
D301*
X006764Y015612D03*
X006764Y015619D03*
X007057Y015319D03*
X006764Y014849D03*
X006764Y014616D03*
X006764Y014609D03*
X006764Y014599D03*
X006764Y014592D03*
D302*
X007057Y014592D03*
X007057Y014856D03*
X007084Y015355D03*
D303*
X006055Y015600D03*
X005462Y014863D03*
X005462Y014861D03*
X005462Y014858D03*
X005462Y014597D03*
X005462Y014594D03*
D304*
X006468Y014594D03*
X006468Y014597D03*
X006468Y014858D03*
X006468Y014861D03*
X006468Y014863D03*
X006468Y015600D03*
D305*
X006764Y015605D03*
X006764Y015607D03*
X006764Y015610D03*
X006764Y015614D03*
X006764Y015617D03*
X006764Y015622D03*
X006764Y015624D03*
X007057Y015324D03*
X007057Y015322D03*
X006764Y014846D03*
X006764Y014614D03*
X006764Y014611D03*
X006764Y014606D03*
X006764Y014604D03*
X006764Y014602D03*
X006764Y014597D03*
X006764Y014594D03*
D306*
X007057Y014594D03*
X007057Y014597D03*
X007057Y014851D03*
X007057Y014854D03*
X007084Y015353D03*
X007084Y015358D03*
D307*
X005424Y015362D03*
X005458Y014599D03*
D308*
X006464Y014599D03*
X006464Y014856D03*
D309*
X006058Y015605D03*
X006058Y015607D03*
X006058Y015610D03*
X005424Y015360D03*
X005458Y014604D03*
X005458Y014602D03*
D310*
X006464Y014602D03*
X006464Y014604D03*
X006464Y014851D03*
X006464Y014854D03*
X006464Y015605D03*
X006464Y015607D03*
X006464Y015610D03*
D311*
X006058Y015614D03*
X006058Y015617D03*
X005458Y014846D03*
X005458Y014606D03*
D312*
X006464Y014606D03*
X006464Y014846D03*
X006464Y015614D03*
X006464Y015617D03*
D313*
X006058Y015612D03*
X005458Y014849D03*
X005458Y014609D03*
D314*
X006464Y014609D03*
X006464Y014849D03*
X006464Y015612D03*
D315*
X006461Y014839D03*
X006461Y014616D03*
X005455Y014616D03*
D316*
X005455Y014618D03*
X005455Y014621D03*
X005455Y014623D03*
X005455Y014834D03*
X005455Y014837D03*
X006461Y014837D03*
X006461Y014834D03*
X006461Y014623D03*
X006461Y014621D03*
X006461Y014618D03*
X006461Y015626D03*
D317*
X006461Y015629D03*
X006461Y014832D03*
X005455Y014832D03*
D318*
X005459Y014839D03*
D319*
X005459Y014842D03*
X005459Y014844D03*
D320*
X006054Y014851D03*
X006054Y014854D03*
D321*
X006054Y014856D03*
D322*
X005461Y014866D03*
X007081Y015346D03*
D323*
X006761Y014866D03*
X005755Y014866D03*
X005755Y015602D03*
D324*
X006468Y015595D03*
X006468Y014866D03*
D325*
X007057Y014866D03*
D326*
X006761Y014868D03*
X006761Y014870D03*
X005755Y014870D03*
X005755Y014868D03*
X005755Y015600D03*
D327*
X007057Y014870D03*
X007057Y014868D03*
D328*
X006763Y014873D03*
X006763Y014878D03*
X007070Y015314D03*
X007070Y015317D03*
X006770Y015593D03*
X006770Y015598D03*
X005750Y015598D03*
X005750Y015593D03*
X005750Y014878D03*
X005750Y014873D03*
D329*
X005750Y014875D03*
X005750Y015595D03*
X006770Y015595D03*
X007070Y015312D03*
X006763Y014875D03*
D330*
X006768Y014880D03*
X005988Y015326D03*
X005748Y015588D03*
X005748Y015590D03*
D331*
X005748Y015586D03*
X005988Y015329D03*
X006768Y014882D03*
D332*
X006864Y014899D03*
D333*
X006864Y014902D03*
X006864Y014904D03*
D334*
X006761Y014966D03*
X005755Y014966D03*
D335*
X005755Y014969D03*
X006761Y014969D03*
D336*
X005754Y014986D03*
D337*
X006761Y014986D03*
D338*
X005754Y014988D03*
X005754Y014990D03*
D339*
X006761Y014990D03*
X006761Y014988D03*
D340*
X006511Y015139D03*
X005765Y015576D03*
X005551Y015106D03*
D341*
X006035Y015146D03*
D342*
X006035Y015149D03*
D343*
X007057Y015151D03*
X007057Y015154D03*
D344*
X007057Y015156D03*
D345*
X007087Y015302D03*
D346*
X005459Y015319D03*
D347*
X005459Y015326D03*
D348*
X005459Y015329D03*
D349*
X005441Y015346D03*
X006055Y015595D03*
D350*
X006055Y015593D03*
X006055Y015598D03*
X005441Y015350D03*
X005441Y015348D03*
D351*
X005771Y015566D03*
X005951Y015360D03*
D352*
X005951Y015362D03*
X005771Y015569D03*
D353*
X005894Y015379D03*
D354*
X005894Y015382D03*
X005894Y015384D03*
D355*
X006641Y015439D03*
D356*
X006641Y015442D03*
X006641Y015444D03*
D357*
X005888Y015473D03*
X005888Y015478D03*
D358*
X005888Y015475D03*
D359*
X005888Y015485D03*
X005888Y015487D03*
X005888Y015490D03*
D360*
X006635Y015490D03*
X006635Y015487D03*
X006635Y015485D03*
D361*
X005891Y015492D03*
D362*
X006631Y015492D03*
D363*
X005891Y015494D03*
X005891Y015497D03*
D364*
X006644Y015559D03*
D365*
X006644Y015562D03*
X006644Y015564D03*
D366*
X006748Y015566D03*
D367*
X006748Y015569D03*
D368*
X006048Y015571D03*
X006048Y015574D03*
D369*
X006048Y015576D03*
D370*
X006764Y015602D03*
D371*
X006061Y015619D03*
D372*
X006464Y015619D03*
D373*
X006061Y015622D03*
X006061Y015624D03*
D374*
X006464Y015624D03*
X006464Y015622D03*
M02*
