%
M48
M72
T01C0.0130
T02C0.0190
T03C0.0197
T04C0.0236
T05C0.0315
T06C0.0320
T07C0.0433
T08C0.0460
T09C0.0512
%
T01
X3885Y8900
X4235Y9700
X4785Y10250
X8135Y12640
X8135Y13040
X8735Y13640
X8735Y14040
X8735Y15040
X9335Y15350
X8735Y15640
X9935Y15400
X11285Y15550
X11835Y15150
X11635Y14650
X11485Y14150
X11485Y13650
X11635Y12750
X11385Y12400
X13085Y13300
X13085Y13650
X12985Y14150
X13458Y14524
X13635Y13650
X13685Y13300
X13985Y12850
X14745Y12150
X14835Y11800
X14435Y11350
X14735Y11050
X15285Y10650
X15685Y9950
X16085Y9950
X17435Y11050
X17085Y11350
X17185Y12050
X17535Y12350
X17985Y12450
X18185Y12900
X17785Y12900
X17385Y12900
X16985Y12900
X16585Y13300
X16585Y14350
X15485Y14250
X14355Y15350
X12665Y16200
X12885Y17640
X13485Y17640
X14085Y17640
X14685Y17640
X15285Y17640
X16285Y16040
X16685Y16040
X19685Y17640
X20285Y17640
X20585Y17140
X20585Y16540
X15885Y11350
X13885Y11000
X18135Y10900
X18535Y10600
X10285Y17640
X9685Y17640
X9085Y17640
X8485Y17640
X7885Y17640
T02
X10285Y17100
T03
X8185Y10400
X8335Y9450
X14835Y8300
X17585Y8000
T04
X12485Y9100
X10485Y8550
X7885Y9100
X18185Y15050
T05
X15469Y3000
X13501Y3000
X13505Y1050
X15505Y1050
T06
X12285Y12650
X12285Y13650
X12285Y14650
T07
X13753Y16587
X19816Y16587
X17769Y5013
X15801Y5013
T08
X17635Y1900
X19635Y1900
X11535Y1850
X9535Y1850
X6885Y1850
X4885Y1850
T09
X4225Y4050
X7225Y5050
X9075Y4050
X9075Y7050
X9075Y11050
X7225Y11050
X4225Y11050
X4225Y7050
X12075Y11050
M30
