G75*
%MOIN*%
%OFA0B0*%
%FSLAX24Y24*%
%IPPOS*%
%LPD*%
%AMOC8*
5,1,8,0,0,1.08239X$1,22.5*
%
%ADD10C,0.0000*%
%ADD11C,0.0787*%
%ADD12C,0.0860*%
%ADD13C,0.0660*%
%ADD14C,0.0700*%
%ADD15C,0.0768*%
%ADD16OC8,0.0480*%
%ADD17R,0.0800X0.0800*%
%ADD18C,0.0800*%
%ADD19R,0.0236X0.0610*%
%ADD20R,0.0472X0.0709*%
%ADD21R,0.0394X0.0394*%
%ADD22C,0.0310*%
%ADD23C,0.0160*%
%ADD24C,0.0250*%
%ADD25C,0.0450*%
%ADD26C,0.0100*%
%ADD27C,0.0356*%
%ADD28C,0.0317*%
%ADD29C,0.0180*%
%ADD30C,0.0200*%
D10*
X003485Y000850D02*
X003485Y017220D01*
X003487Y017274D01*
X003493Y017327D01*
X003502Y017379D01*
X003515Y017431D01*
X003532Y017482D01*
X003553Y017532D01*
X003577Y017579D01*
X003604Y017625D01*
X003635Y017669D01*
X003668Y017711D01*
X003705Y017750D01*
X003744Y017787D01*
X003786Y017820D01*
X003830Y017851D01*
X003876Y017878D01*
X003923Y017902D01*
X003973Y017923D01*
X004024Y017940D01*
X004076Y017953D01*
X004128Y017962D01*
X004181Y017968D01*
X004235Y017970D01*
X020227Y017970D01*
X020276Y017976D01*
X020325Y017978D01*
X020374Y017976D01*
X020423Y017971D01*
X020471Y017962D01*
X020519Y017949D01*
X020566Y017933D01*
X020611Y017914D01*
X020654Y017891D01*
X020696Y017865D01*
X020736Y017836D01*
X020773Y017804D01*
X020808Y017769D01*
X020840Y017732D01*
X020870Y017692D01*
X020896Y017651D01*
X020919Y017607D01*
X020939Y017562D01*
X020955Y017516D01*
X020968Y017468D01*
X020977Y017420D01*
X020977Y000850D01*
X020975Y000796D01*
X020969Y000743D01*
X020960Y000691D01*
X020947Y000639D01*
X020930Y000588D01*
X020909Y000538D01*
X020885Y000491D01*
X020858Y000445D01*
X020827Y000401D01*
X020794Y000359D01*
X020757Y000320D01*
X020718Y000283D01*
X020676Y000250D01*
X020632Y000219D01*
X020586Y000192D01*
X020539Y000168D01*
X020489Y000147D01*
X020438Y000130D01*
X020386Y000117D01*
X020334Y000108D01*
X020281Y000102D01*
X020227Y000100D01*
X004235Y000100D01*
X004181Y000102D01*
X004128Y000108D01*
X004076Y000117D01*
X004024Y000130D01*
X003973Y000147D01*
X003923Y000168D01*
X003876Y000192D01*
X003830Y000219D01*
X003786Y000250D01*
X003744Y000283D01*
X003705Y000320D01*
X003668Y000359D01*
X003635Y000401D01*
X003604Y000445D01*
X003577Y000491D01*
X003553Y000538D01*
X003532Y000588D01*
X003515Y000639D01*
X003502Y000691D01*
X003493Y000743D01*
X003487Y000796D01*
X003485Y000850D01*
D11*
X013753Y016587D03*
X019816Y016587D03*
D12*
X017769Y005013D03*
X015801Y005013D03*
D13*
X015469Y003000D03*
X013501Y003000D03*
D14*
X013505Y001050D03*
X015505Y001050D03*
D15*
X009075Y004050D03*
X007225Y005050D03*
X009075Y007050D03*
X009075Y011050D03*
X007225Y011050D03*
X004225Y011050D03*
X004225Y007050D03*
X004225Y004050D03*
X012075Y011050D03*
D16*
X012285Y012650D03*
X012285Y013650D03*
X012285Y014650D03*
D17*
X011535Y001850D03*
X006885Y001850D03*
X017635Y001900D03*
D18*
X019635Y001900D03*
X009535Y001850D03*
X004885Y001850D03*
D19*
X008597Y012850D03*
X008991Y012850D03*
X009385Y012850D03*
X009779Y012850D03*
X010172Y012850D03*
X010303Y014550D03*
X009910Y014550D03*
X009516Y014550D03*
X009122Y014550D03*
X008729Y014550D03*
X008335Y014550D03*
X008335Y016300D03*
X008729Y016300D03*
X009122Y016300D03*
X009516Y016300D03*
X009910Y016300D03*
X010303Y016300D03*
D20*
X010815Y015424D03*
X010815Y013674D03*
X010684Y011974D03*
X008086Y011974D03*
X007823Y013674D03*
X007823Y015424D03*
D21*
X010947Y016885D03*
X010947Y017515D03*
X012522Y017515D03*
X012522Y016885D03*
D22*
X010285Y017100D03*
D23*
X008535Y017100D01*
X008335Y016900D01*
X008335Y016300D01*
X008335Y014550D01*
X008335Y013550D01*
X008635Y013250D01*
X008635Y012887D01*
X008597Y012850D01*
X008597Y012937D01*
X008299Y012939D02*
X007565Y012939D01*
X007565Y013097D02*
X008299Y013097D01*
X008299Y013218D02*
X008239Y013278D01*
X008239Y013245D01*
X008134Y013140D01*
X007565Y013140D01*
X007565Y012500D01*
X007767Y012500D01*
X007775Y012508D01*
X008299Y012508D01*
X008299Y013218D01*
X008262Y013256D02*
X008239Y013256D01*
X008299Y012780D02*
X007565Y012780D01*
X007565Y012622D02*
X008299Y012622D01*
X008991Y012850D02*
X008991Y013335D01*
X008881Y013335D01*
X008855Y013397D01*
X008782Y013470D01*
X008595Y013658D01*
X008595Y014065D01*
X008729Y014065D01*
X008870Y014065D01*
X008892Y014071D01*
X008892Y014017D01*
X009205Y013705D01*
X009340Y013570D01*
X009790Y013570D01*
X010024Y013335D01*
X009980Y013335D01*
X009975Y013331D01*
X009971Y013335D01*
X009586Y013335D01*
X009582Y013331D01*
X009578Y013335D01*
X009192Y013335D01*
X009179Y013322D01*
X009179Y013323D01*
X009133Y013335D01*
X008991Y013335D01*
X008991Y012850D01*
X008991Y012850D01*
X008991Y012939D02*
X008991Y012939D01*
X008991Y013097D02*
X008991Y013097D01*
X008991Y013256D02*
X008991Y013256D01*
X008839Y013414D02*
X009946Y013414D01*
X009337Y013573D02*
X008680Y013573D01*
X008595Y013731D02*
X009179Y013731D01*
X009020Y013890D02*
X008595Y013890D01*
X008595Y014048D02*
X008892Y014048D01*
X008729Y014065D02*
X008729Y014550D01*
X008729Y014550D01*
X008729Y014550D01*
X008729Y015035D01*
X008870Y015035D01*
X008916Y015023D01*
X008917Y015022D01*
X008930Y015035D01*
X009255Y015035D01*
X009255Y015053D01*
X009162Y015091D01*
X009076Y015177D01*
X009030Y015289D01*
X009030Y015411D01*
X009076Y015523D01*
X009162Y015609D01*
X009274Y015655D01*
X009315Y015655D01*
X009474Y015815D01*
X009323Y015815D01*
X009311Y015828D01*
X009310Y015827D01*
X009264Y015815D01*
X009122Y015815D01*
X009122Y016300D01*
X008824Y016300D01*
X008729Y016300D01*
X009122Y016300D01*
X009122Y016300D01*
X009122Y016300D01*
X009122Y016785D01*
X008980Y016785D01*
X008935Y016773D01*
X008925Y016768D01*
X008916Y016773D01*
X008870Y016785D01*
X008729Y016785D01*
X008729Y016300D01*
X008729Y016300D01*
X008729Y015815D01*
X008870Y015815D01*
X008916Y015827D01*
X008925Y015832D01*
X008935Y015827D01*
X008980Y015815D01*
X009122Y015815D01*
X009122Y016300D01*
X009122Y016300D01*
X009122Y016785D01*
X009264Y016785D01*
X009288Y016779D01*
X009350Y016840D01*
X008643Y016840D01*
X008595Y016792D01*
X008595Y016785D01*
X008729Y016785D01*
X008729Y016300D01*
X008729Y016300D01*
X008729Y016300D01*
X008729Y015815D01*
X008595Y015815D01*
X008595Y015035D01*
X008729Y015035D01*
X008729Y014550D01*
X008729Y014065D01*
X008729Y014207D02*
X008729Y014207D01*
X008729Y014365D02*
X008729Y014365D01*
X008729Y014524D02*
X008729Y014524D01*
X008729Y014682D02*
X008729Y014682D01*
X008729Y014841D02*
X008729Y014841D01*
X008729Y014999D02*
X008729Y014999D01*
X008595Y015158D02*
X009096Y015158D01*
X009030Y015316D02*
X008595Y015316D01*
X008595Y015475D02*
X009056Y015475D01*
X009221Y015633D02*
X008595Y015633D01*
X008595Y015792D02*
X009451Y015792D01*
X009122Y015950D02*
X009122Y015950D01*
X009122Y016109D02*
X009122Y016109D01*
X009122Y016267D02*
X009122Y016267D01*
X009122Y016426D02*
X009122Y016426D01*
X009122Y016584D02*
X009122Y016584D01*
X009122Y016743D02*
X009122Y016743D01*
X008729Y016743D02*
X008729Y016743D01*
X008729Y016584D02*
X008729Y016584D01*
X008729Y016426D02*
X008729Y016426D01*
X008729Y016267D02*
X008729Y016267D01*
X008729Y016109D02*
X008729Y016109D01*
X008729Y015950D02*
X008729Y015950D01*
X008037Y015958D02*
X007565Y015958D01*
X007565Y017690D01*
X010571Y017690D01*
X010571Y017533D01*
X010929Y017533D01*
X010929Y017497D01*
X010571Y017497D01*
X010571Y017294D01*
X010577Y017269D01*
X010569Y017290D01*
X010475Y017384D01*
X010351Y017435D01*
X010218Y017435D01*
X010095Y017384D01*
X010071Y017360D01*
X008483Y017360D01*
X008388Y017320D01*
X008114Y017047D01*
X008075Y016952D01*
X008075Y016718D01*
X008037Y016680D01*
X008037Y015958D01*
X008037Y016109D02*
X007565Y016109D01*
X007565Y016267D02*
X008037Y016267D01*
X008037Y016426D02*
X007565Y016426D01*
X007565Y016584D02*
X008037Y016584D01*
X008075Y016743D02*
X007565Y016743D01*
X007565Y016901D02*
X008075Y016901D01*
X008127Y017060D02*
X007565Y017060D01*
X007565Y017218D02*
X008285Y017218D01*
X007565Y017377D02*
X010088Y017377D01*
X010482Y017377D02*
X010571Y017377D01*
X010571Y017535D02*
X007565Y017535D01*
X010966Y017533D02*
X011324Y017533D01*
X011324Y017690D01*
X012145Y017690D01*
X012145Y017533D01*
X012504Y017533D01*
X012504Y017497D01*
X012145Y017497D01*
X012145Y017294D01*
X012158Y017249D01*
X012181Y017208D01*
X012189Y017200D01*
X012145Y017156D01*
X012145Y017145D01*
X011324Y017145D01*
X011324Y017156D01*
X011281Y017200D01*
X011288Y017208D01*
X011312Y017249D01*
X011324Y017294D01*
X011324Y017497D01*
X010966Y017497D01*
X010966Y017533D01*
X011324Y017535D02*
X012145Y017535D01*
X012145Y017377D02*
X011324Y017377D01*
X011294Y017218D02*
X012175Y017218D01*
X012541Y017497D02*
X012541Y017533D01*
X012899Y017533D01*
X012899Y017690D01*
X020193Y017690D01*
X020214Y017685D01*
X020248Y017690D01*
X020283Y017690D01*
X020294Y017695D01*
X020343Y017697D01*
X020487Y017662D01*
X020605Y017575D01*
X020682Y017449D01*
X020697Y017390D01*
X020697Y016100D01*
X020139Y016100D01*
X020141Y016101D01*
X020303Y016262D01*
X020390Y016473D01*
X020390Y016702D01*
X020303Y016912D01*
X020141Y017074D01*
X019930Y017161D01*
X019702Y017161D01*
X019491Y017074D01*
X019330Y016912D01*
X019243Y016702D01*
X019243Y016560D01*
X017633Y016560D01*
X017538Y016520D01*
X017038Y016020D01*
X017038Y016020D01*
X016964Y015947D01*
X016925Y015852D01*
X016925Y014598D01*
X016964Y014503D01*
X017038Y014430D01*
X017285Y014182D01*
X017285Y014100D01*
X017685Y013700D01*
X018485Y013700D01*
X019025Y012980D01*
X019025Y010008D01*
X018877Y009860D01*
X015133Y009860D01*
X014864Y010170D01*
X017290Y010170D01*
X017490Y009970D01*
X018730Y009970D01*
X018865Y010105D01*
X019015Y010255D01*
X019015Y010945D01*
X018880Y011080D01*
X018215Y011745D01*
X018215Y012249D01*
X018243Y012277D01*
X018290Y012389D01*
X018290Y012511D01*
X018243Y012623D01*
X018158Y012709D01*
X018046Y012755D01*
X017924Y012755D01*
X017812Y012709D01*
X017726Y012623D01*
X017717Y012600D01*
X017708Y012609D01*
X017596Y012655D01*
X017474Y012655D01*
X017362Y012609D01*
X017334Y012580D01*
X017080Y012580D01*
X016765Y012895D01*
X016630Y013030D01*
X016431Y013030D01*
X015533Y013945D01*
X015546Y013945D01*
X015658Y013991D01*
X015743Y014077D01*
X015790Y014189D01*
X015790Y014311D01*
X015743Y014423D01*
X015658Y014509D01*
X015546Y014555D01*
X015505Y014555D01*
X014756Y015304D01*
X014755Y015316D01*
X016925Y015316D01*
X016925Y015158D02*
X014903Y015158D01*
X014755Y015316D02*
X014690Y015370D01*
X014660Y015400D01*
X014660Y015411D01*
X014613Y015523D01*
X014528Y015609D01*
X014416Y015655D01*
X014375Y015655D01*
X014000Y016030D01*
X013894Y016030D01*
X013974Y016056D01*
X014054Y016097D01*
X014127Y016150D01*
X014191Y016214D01*
X014244Y016287D01*
X014285Y016367D01*
X014313Y016453D01*
X014327Y016542D01*
X014327Y016559D01*
X013782Y016559D01*
X013782Y016616D01*
X013725Y016616D01*
X013725Y017161D01*
X013708Y017161D01*
X013619Y017147D01*
X013533Y017119D01*
X013453Y017078D01*
X013380Y017025D01*
X013316Y016961D01*
X013263Y016888D01*
X013222Y016808D01*
X013195Y016725D01*
X013195Y016735D01*
X013060Y016870D01*
X012899Y017031D01*
X012899Y017156D01*
X012856Y017200D01*
X012863Y017208D01*
X012887Y017249D01*
X012899Y017294D01*
X012899Y017497D01*
X012541Y017497D01*
X012899Y017535D02*
X020630Y017535D01*
X020697Y017377D02*
X012899Y017377D01*
X012869Y017218D02*
X020697Y017218D01*
X020697Y017060D02*
X020156Y017060D01*
X020307Y016901D02*
X020697Y016901D01*
X020697Y016743D02*
X020373Y016743D01*
X020390Y016584D02*
X020697Y016584D01*
X020697Y016426D02*
X020370Y016426D01*
X020305Y016267D02*
X020697Y016267D01*
X020697Y016109D02*
X020149Y016109D01*
X019816Y016587D02*
X019529Y016300D01*
X019385Y016300D01*
X017685Y016300D01*
X017185Y015800D01*
X017185Y014650D01*
X017585Y014250D01*
X018635Y014250D01*
X019285Y013600D01*
X019285Y009900D01*
X018985Y009600D01*
X017885Y009600D01*
X017585Y009300D01*
X017585Y008000D01*
X017714Y007280D02*
X017710Y007268D01*
X017703Y007258D01*
X017693Y007250D01*
X017885Y009600D02*
X014885Y009600D01*
X013985Y010500D01*
X011685Y010500D01*
X011585Y010600D01*
X009885Y010600D01*
X009435Y011050D01*
X009075Y011050D01*
X007225Y011050D01*
X007735Y011450D02*
X007585Y011600D01*
X006135Y011600D01*
X004785Y010250D01*
X004225Y011050D02*
X003885Y010710D01*
X003885Y008900D01*
X007735Y011450D02*
X008535Y011450D01*
X008785Y011700D01*
X009285Y011700D01*
X010085Y010900D01*
X011925Y010900D01*
X012075Y011050D01*
X012485Y009100D02*
X012485Y008900D01*
X012285Y008700D01*
X011585Y008400D01*
X010485Y008550D02*
X008285Y008550D01*
X007885Y009100D01*
X008335Y009450D02*
X008214Y009571D01*
X008185Y009641D02*
X008185Y010400D01*
X008185Y009641D02*
X008187Y009621D01*
X008193Y009603D01*
X008202Y009585D01*
X008214Y009570D01*
X014937Y010086D02*
X017374Y010086D01*
X018846Y010086D02*
X019025Y010086D01*
X019025Y010244D02*
X019004Y010244D01*
X019015Y010403D02*
X019025Y010403D01*
X019015Y010561D02*
X019025Y010561D01*
X019015Y010720D02*
X019025Y010720D01*
X019015Y010878D02*
X019025Y010878D01*
X019025Y011037D02*
X018924Y011037D01*
X019025Y011195D02*
X018765Y011195D01*
X018607Y011354D02*
X019025Y011354D01*
X019025Y011512D02*
X018448Y011512D01*
X018290Y011671D02*
X019025Y011671D01*
X019025Y011829D02*
X018215Y011829D01*
X018215Y011988D02*
X019025Y011988D01*
X019025Y012146D02*
X018215Y012146D01*
X018255Y012305D02*
X019025Y012305D01*
X019025Y012463D02*
X018290Y012463D01*
X018244Y012622D02*
X019025Y012622D01*
X019025Y012780D02*
X016880Y012780D01*
X016722Y012939D02*
X019025Y012939D01*
X018937Y013097D02*
X016366Y013097D01*
X016210Y013256D02*
X018818Y013256D01*
X018699Y013414D02*
X016054Y013414D01*
X015899Y013573D02*
X018580Y013573D01*
X017654Y013731D02*
X015743Y013731D01*
X015587Y013890D02*
X017495Y013890D01*
X017337Y014048D02*
X015714Y014048D01*
X015790Y014207D02*
X017261Y014207D01*
X017102Y014365D02*
X015767Y014365D01*
X015621Y014524D02*
X016956Y014524D01*
X016925Y014682D02*
X015378Y014682D01*
X015220Y014841D02*
X016925Y014841D01*
X016925Y014999D02*
X015061Y014999D01*
X014633Y015475D02*
X016925Y015475D01*
X016925Y015633D02*
X014469Y015633D01*
X014239Y015792D02*
X016925Y015792D01*
X016967Y015950D02*
X014080Y015950D01*
X014070Y016109D02*
X017126Y016109D01*
X017284Y016267D02*
X014230Y016267D01*
X014304Y016426D02*
X017443Y016426D01*
X018185Y015050D02*
X018235Y015050D01*
X019243Y016584D02*
X013782Y016584D01*
X013782Y016616D02*
X014327Y016616D01*
X014327Y016633D01*
X014313Y016722D01*
X014285Y016808D01*
X014244Y016888D01*
X014191Y016961D01*
X014127Y017025D01*
X014054Y017078D01*
X013974Y017119D01*
X013888Y017147D01*
X013798Y017161D01*
X013782Y017161D01*
X013782Y016616D01*
X013782Y016743D02*
X013725Y016743D01*
X013725Y016901D02*
X013782Y016901D01*
X013782Y017060D02*
X013725Y017060D01*
X014080Y017060D02*
X019477Y017060D01*
X019325Y016901D02*
X014235Y016901D01*
X014306Y016743D02*
X019260Y016743D01*
X020291Y017694D02*
X020359Y017694D01*
X017726Y012622D02*
X017676Y012622D01*
X017393Y012622D02*
X017039Y012622D01*
X018944Y009927D02*
X015075Y009927D01*
X013201Y016743D02*
X013188Y016743D01*
X013272Y016901D02*
X013029Y016901D01*
X012899Y017060D02*
X013427Y017060D01*
X012522Y016885D02*
X010947Y016885D01*
D24*
X010285Y017640D03*
X009685Y017640D03*
X009085Y017640D03*
X008485Y017640D03*
X007885Y017640D03*
X008735Y015640D03*
X009335Y015350D03*
X008735Y015040D03*
X008735Y014040D03*
X008735Y013640D03*
X008135Y013040D03*
X008135Y012640D03*
X009935Y015400D03*
X011285Y015550D03*
X011835Y015150D03*
X011635Y014650D03*
X011485Y014150D03*
X011485Y013650D03*
X011635Y012750D03*
X011385Y012400D03*
X013085Y013300D03*
X013085Y013650D03*
X012985Y014150D03*
X013458Y014524D03*
X013635Y013650D03*
X013685Y013300D03*
X013985Y012850D03*
X014745Y012150D03*
X014835Y011800D03*
X014435Y011350D03*
X014735Y011050D03*
X015285Y010650D03*
X015685Y009950D03*
X016085Y009950D03*
X017435Y011050D03*
X017085Y011350D03*
X017185Y012050D03*
X017535Y012350D03*
X017985Y012450D03*
X018185Y012900D03*
X017785Y012900D03*
X017385Y012900D03*
X016985Y012900D03*
X016585Y013300D03*
X016585Y014350D03*
X015485Y014250D03*
X014355Y015350D03*
X012665Y016200D03*
X012885Y017640D03*
X013485Y017640D03*
X014085Y017640D03*
X014685Y017640D03*
X015285Y017640D03*
X016285Y016040D03*
X016685Y016040D03*
X019685Y017640D03*
X020285Y017640D03*
X020585Y017140D03*
X020585Y016540D03*
X015885Y011350D03*
X013885Y011000D03*
X018135Y010900D03*
X018535Y010600D03*
X004785Y010250D03*
X004235Y009700D03*
X003885Y008900D03*
D25*
X010485Y017540D02*
X012885Y017540D01*
D26*
X012720Y016885D02*
X012965Y016640D01*
X012965Y015940D01*
X013105Y015800D01*
X013905Y015800D01*
X014355Y015350D01*
X014535Y015200D01*
X015485Y014250D01*
X015435Y014300D01*
X013935Y014000D02*
X015985Y011950D01*
X016485Y011950D01*
X017085Y011350D01*
X016885Y011050D02*
X017435Y011050D01*
X017385Y010750D02*
X017685Y010450D01*
X018385Y010450D01*
X018535Y010600D01*
X018785Y010350D02*
X018635Y010200D01*
X017585Y010200D01*
X017385Y010400D01*
X014485Y010400D01*
X013885Y011000D01*
X013985Y011300D02*
X014635Y010650D01*
X015285Y010650D01*
X014735Y011050D02*
X015835Y011050D01*
X016135Y010750D01*
X017385Y010750D01*
X016885Y011050D02*
X016285Y011650D01*
X015885Y011650D01*
X014685Y012850D01*
X013985Y012850D01*
X013085Y012850D01*
X012685Y013250D01*
X011885Y013250D01*
X011485Y013650D01*
X011485Y013450D01*
X011135Y013100D01*
X010585Y013100D01*
X009885Y013800D01*
X009435Y013800D01*
X009122Y014113D01*
X009122Y014550D01*
X009485Y014581D02*
X009485Y015000D01*
X009635Y015150D01*
X010235Y015150D01*
X010385Y015300D01*
X010385Y015750D01*
X010585Y015950D01*
X011335Y015950D01*
X011485Y015800D01*
X012079Y015800D01*
X012985Y015800D01*
X013105Y015800D01*
X013635Y015550D02*
X011285Y015550D01*
X011605Y016040D02*
X012505Y016040D01*
X012665Y016200D01*
X012720Y016885D02*
X012522Y016885D01*
X012529Y016879D01*
X011605Y016040D02*
X011395Y016250D01*
X010985Y016250D01*
X010435Y016800D01*
X009635Y016800D01*
X009485Y016650D01*
X009485Y016331D01*
X009516Y016300D01*
X009485Y016269D01*
X009910Y016300D02*
X009910Y015925D01*
X009335Y015350D01*
X009935Y015400D02*
X009935Y015550D01*
X010285Y015900D01*
X010285Y016281D01*
X010303Y016300D01*
X011835Y015150D02*
X011985Y015300D01*
X013485Y015300D01*
X016185Y012550D01*
X016485Y012550D01*
X016985Y012050D01*
X017185Y012050D01*
X016985Y012350D02*
X016535Y012800D01*
X016335Y012800D01*
X013635Y015550D01*
X013811Y014524D02*
X013458Y014524D01*
X013232Y014550D01*
X012835Y014550D01*
X012535Y014250D01*
X011935Y014250D01*
X011685Y014500D01*
X011685Y014650D01*
X011635Y014650D01*
X011535Y014750D01*
X010585Y014750D01*
X010385Y014550D01*
X010303Y014550D01*
X009910Y014550D02*
X009910Y014225D01*
X010085Y014050D01*
X010435Y014050D01*
X010585Y014200D01*
X011435Y014200D01*
X011485Y014150D01*
X011635Y014150D01*
X011785Y014000D01*
X012885Y014000D01*
X012985Y014100D01*
X012985Y014150D01*
X012885Y014000D02*
X013935Y014000D01*
X013635Y013650D02*
X013085Y013650D01*
X013085Y013300D02*
X013685Y013300D01*
X014345Y012550D02*
X012985Y012550D01*
X012535Y013010D01*
X011885Y013010D01*
X011635Y012750D01*
X011385Y012400D02*
X011535Y012250D01*
X012935Y012250D01*
X014235Y012250D01*
X014735Y011800D01*
X014835Y011800D01*
X014745Y012150D02*
X014345Y012550D01*
X014185Y012000D02*
X014835Y011350D01*
X015885Y011350D01*
X016035Y012300D02*
X016435Y012300D01*
X017085Y011650D01*
X017535Y011650D01*
X018135Y011050D01*
X018135Y010900D01*
X018785Y010850D02*
X018785Y010350D01*
X018785Y010850D02*
X017985Y011650D01*
X017985Y012450D01*
X017535Y012350D02*
X016985Y012350D01*
X016035Y012300D02*
X013811Y014524D01*
X011485Y013650D02*
X011485Y013650D01*
X011485Y013550D01*
X010897Y012787D02*
X011085Y012600D01*
X011085Y012250D01*
X011335Y012000D01*
X012835Y012000D01*
X012885Y012000D01*
X012835Y012000D01*
X014185Y012000D01*
X013985Y011780D02*
X014285Y011500D01*
X014435Y011350D01*
X013985Y011300D02*
X013735Y011550D01*
X011535Y011550D01*
X011135Y011150D01*
X010285Y011150D01*
X010260Y011175D01*
X009335Y012100D01*
X009335Y012800D01*
X009385Y012850D01*
X009779Y012850D02*
X009785Y012844D01*
X009785Y012050D01*
X010385Y011450D01*
X011055Y011450D01*
X011385Y011780D01*
X013985Y011780D01*
X010897Y012787D02*
X010235Y012787D01*
X010172Y012850D01*
X009516Y014550D02*
X009485Y014581D01*
X008135Y012640D02*
X007825Y012640D01*
X007085Y011900D01*
X006085Y011900D01*
X004285Y010100D01*
X004285Y009750D01*
X004235Y009700D01*
X004785Y010250D02*
X004835Y010250D01*
D27*
X007885Y009100D03*
X010485Y008550D03*
X012485Y009100D03*
X018185Y015050D03*
D28*
X014835Y008300D03*
X017585Y008000D03*
X008335Y009450D03*
X008185Y010400D03*
D29*
X014835Y008300D02*
X015385Y008300D01*
X016435Y007250D01*
X017693Y007250D01*
X017714Y007279D02*
X018685Y008250D01*
X019685Y009250D01*
X019685Y011900D01*
X020485Y012700D01*
X020485Y015100D01*
X020285Y015300D01*
X018485Y015300D01*
X018235Y015050D01*
D30*
X011585Y008400D02*
X011513Y008410D01*
X010485Y008550D01*
M02*
