G75*
%MOIN*%
%OFA0B0*%
%FSLAX24Y24*%
%IPPOS*%
%LPD*%
%AMOC8*
5,1,8,0,0,1.08239X$1,22.5*
%
%ADD10C,0.0000*%
%ADD11R,0.0400X0.0450*%
%ADD12R,0.0220X0.0780*%
%ADD13C,0.0079*%
%ADD14R,0.0512X0.0355*%
%ADD15R,0.0355X0.0512*%
%ADD16C,0.0787*%
%ADD17C,0.0860*%
%ADD18R,0.0220X0.0500*%
%ADD19R,0.0669X0.0276*%
%ADD20R,0.0394X0.0551*%
%ADD21R,0.0210X0.0500*%
%ADD22R,0.0500X0.0210*%
%ADD23R,0.0551X0.0354*%
%ADD24C,0.0660*%
%ADD25C,0.0700*%
%ADD26R,0.0327X0.0248*%
%ADD27R,0.0276X0.0394*%
%ADD28C,0.0768*%
%ADD29C,0.0100*%
%ADD30OC8,0.0480*%
%ADD31R,0.0800X0.0800*%
%ADD32C,0.0800*%
%ADD33R,0.0236X0.0866*%
%ADD34R,0.1102X0.1102*%
%ADD35C,0.0160*%
%ADD36C,0.0200*%
%ADD37C,0.0310*%
%ADD38C,0.0250*%
%ADD39C,0.0240*%
%ADD40C,0.0320*%
%ADD41C,0.0120*%
%ADD42C,0.0760*%
%ADD43C,0.0500*%
%ADD44C,0.0356*%
%ADD45C,0.0317*%
D10*
X004460Y000876D02*
X004460Y017246D01*
X004462Y017300D01*
X004468Y017353D01*
X004477Y017405D01*
X004490Y017457D01*
X004507Y017508D01*
X004528Y017558D01*
X004552Y017605D01*
X004579Y017651D01*
X004610Y017695D01*
X004643Y017737D01*
X004680Y017776D01*
X004719Y017813D01*
X004761Y017846D01*
X004805Y017877D01*
X004851Y017904D01*
X004898Y017928D01*
X004948Y017949D01*
X004999Y017966D01*
X005051Y017979D01*
X005103Y017988D01*
X005156Y017994D01*
X005210Y017996D01*
X021202Y017996D01*
X021251Y018002D01*
X021300Y018004D01*
X021349Y018002D01*
X021398Y017997D01*
X021446Y017988D01*
X021494Y017975D01*
X021541Y017959D01*
X021586Y017940D01*
X021629Y017917D01*
X021671Y017891D01*
X021711Y017862D01*
X021748Y017830D01*
X021783Y017795D01*
X021815Y017758D01*
X021845Y017718D01*
X021871Y017677D01*
X021894Y017633D01*
X021914Y017588D01*
X021930Y017542D01*
X021943Y017494D01*
X021952Y017446D01*
X021952Y000876D01*
X021950Y000822D01*
X021944Y000769D01*
X021935Y000717D01*
X021922Y000665D01*
X021905Y000614D01*
X021884Y000564D01*
X021860Y000517D01*
X021833Y000471D01*
X021802Y000427D01*
X021769Y000385D01*
X021732Y000346D01*
X021693Y000309D01*
X021651Y000276D01*
X021607Y000245D01*
X021561Y000218D01*
X021514Y000194D01*
X021464Y000173D01*
X021413Y000156D01*
X021361Y000143D01*
X021309Y000134D01*
X021256Y000128D01*
X021202Y000126D01*
X005210Y000126D01*
X005156Y000128D01*
X005103Y000134D01*
X005051Y000143D01*
X004999Y000156D01*
X004948Y000173D01*
X004898Y000194D01*
X004851Y000218D01*
X004805Y000245D01*
X004761Y000276D01*
X004719Y000309D01*
X004680Y000346D01*
X004643Y000385D01*
X004610Y000427D01*
X004579Y000471D01*
X004552Y000517D01*
X004528Y000564D01*
X004507Y000614D01*
X004490Y000665D01*
X004477Y000717D01*
X004468Y000769D01*
X004462Y000822D01*
X004460Y000876D01*
D11*
X020530Y009336D03*
X021230Y009336D03*
X020880Y008536D03*
D12*
X008410Y009146D03*
X007910Y009146D03*
X007410Y009146D03*
X006910Y009146D03*
X006910Y007206D03*
X007410Y007206D03*
X007910Y007206D03*
X008410Y007206D03*
D13*
X010037Y009064D02*
X010037Y009300D01*
X010037Y009064D02*
X009603Y009064D01*
X009603Y009300D01*
X010037Y009300D01*
X010037Y009142D02*
X009603Y009142D01*
X009603Y009220D02*
X010037Y009220D01*
X010037Y009298D02*
X009603Y009298D01*
X010037Y009851D02*
X010037Y010087D01*
X010037Y009851D02*
X009603Y009851D01*
X009603Y010087D01*
X010037Y010087D01*
X010037Y009929D02*
X009603Y009929D01*
X009603Y010007D02*
X010037Y010007D01*
X010037Y010085D02*
X009603Y010085D01*
X008921Y009689D02*
X008685Y009689D01*
X008685Y010123D01*
X008921Y010123D01*
X008921Y009689D01*
X008921Y009767D02*
X008685Y009767D01*
X008685Y009845D02*
X008921Y009845D01*
X008921Y009923D02*
X008685Y009923D01*
X008685Y010001D02*
X008921Y010001D01*
X008921Y010079D02*
X008685Y010079D01*
X008134Y009689D02*
X007898Y009689D01*
X007898Y010123D01*
X008134Y010123D01*
X008134Y009689D01*
X008134Y009767D02*
X007898Y009767D01*
X007898Y009845D02*
X008134Y009845D01*
X008134Y009923D02*
X007898Y009923D01*
X007898Y010001D02*
X008134Y010001D01*
X008134Y010079D02*
X007898Y010079D01*
X012643Y010051D02*
X012643Y010287D01*
X013077Y010287D01*
X013077Y010051D01*
X012643Y010051D01*
X012643Y010129D02*
X013077Y010129D01*
X013077Y010207D02*
X012643Y010207D01*
X012643Y010285D02*
X013077Y010285D01*
X013648Y009859D02*
X013884Y009859D01*
X013648Y009859D02*
X013648Y010293D01*
X013884Y010293D01*
X013884Y009859D01*
X013884Y009937D02*
X013648Y009937D01*
X013648Y010015D02*
X013884Y010015D01*
X013884Y010093D02*
X013648Y010093D01*
X013648Y010171D02*
X013884Y010171D01*
X013884Y010249D02*
X013648Y010249D01*
X014435Y009859D02*
X014671Y009859D01*
X014435Y009859D02*
X014435Y010293D01*
X014671Y010293D01*
X014671Y009859D01*
X014671Y009937D02*
X014435Y009937D01*
X014435Y010015D02*
X014671Y010015D01*
X014671Y010093D02*
X014435Y010093D01*
X014435Y010171D02*
X014671Y010171D01*
X014671Y010249D02*
X014435Y010249D01*
X014415Y009463D02*
X014651Y009463D01*
X014651Y009029D01*
X014415Y009029D01*
X014415Y009463D01*
X014415Y009107D02*
X014651Y009107D01*
X014651Y009185D02*
X014415Y009185D01*
X014415Y009263D02*
X014651Y009263D01*
X014651Y009341D02*
X014415Y009341D01*
X014415Y009419D02*
X014651Y009419D01*
X015427Y009437D02*
X015427Y009201D01*
X014993Y009201D01*
X014993Y009437D01*
X015427Y009437D01*
X015427Y009279D02*
X014993Y009279D01*
X014993Y009357D02*
X015427Y009357D01*
X015427Y009435D02*
X014993Y009435D01*
X015427Y008650D02*
X015427Y008414D01*
X014993Y008414D01*
X014993Y008650D01*
X015427Y008650D01*
X015427Y008492D02*
X014993Y008492D01*
X014993Y008570D02*
X015427Y008570D01*
X015427Y008648D02*
X014993Y008648D01*
X013473Y008637D02*
X013473Y008401D01*
X013473Y008637D02*
X013907Y008637D01*
X013907Y008401D01*
X013473Y008401D01*
X013473Y008479D02*
X013907Y008479D01*
X013907Y008557D02*
X013473Y008557D01*
X013473Y008635D02*
X013907Y008635D01*
X013864Y009463D02*
X013628Y009463D01*
X013864Y009463D02*
X013864Y009029D01*
X013628Y009029D01*
X013628Y009463D01*
X013628Y009107D02*
X013864Y009107D01*
X013864Y009185D02*
X013628Y009185D01*
X013628Y009263D02*
X013864Y009263D01*
X013864Y009341D02*
X013628Y009341D01*
X013628Y009419D02*
X013864Y009419D01*
X012643Y009500D02*
X012643Y009264D01*
X012643Y009500D02*
X013077Y009500D01*
X013077Y009264D01*
X012643Y009264D01*
X012643Y009342D02*
X013077Y009342D01*
X013077Y009420D02*
X012643Y009420D01*
X012643Y009498D02*
X013077Y009498D01*
X013473Y007850D02*
X013473Y007614D01*
X013473Y007850D02*
X013907Y007850D01*
X013907Y007614D01*
X013473Y007614D01*
X013473Y007692D02*
X013907Y007692D01*
X013907Y007770D02*
X013473Y007770D01*
X013473Y007848D02*
X013907Y007848D01*
X017093Y008634D02*
X017093Y008870D01*
X017527Y008870D01*
X017527Y008634D01*
X017093Y008634D01*
X017093Y008712D02*
X017527Y008712D01*
X017527Y008790D02*
X017093Y008790D01*
X017093Y008868D02*
X017527Y008868D01*
X017093Y009421D02*
X017093Y009657D01*
X017527Y009657D01*
X017527Y009421D01*
X017093Y009421D01*
X017093Y009499D02*
X017527Y009499D01*
X017527Y009577D02*
X017093Y009577D01*
X017093Y009655D02*
X017527Y009655D01*
X014971Y011643D02*
X014735Y011643D01*
X014971Y011643D02*
X014971Y011209D01*
X014735Y011209D01*
X014735Y011643D01*
X014735Y011287D02*
X014971Y011287D01*
X014971Y011365D02*
X014735Y011365D01*
X014735Y011443D02*
X014971Y011443D01*
X014971Y011521D02*
X014735Y011521D01*
X014735Y011599D02*
X014971Y011599D01*
X014184Y011643D02*
X013948Y011643D01*
X014184Y011643D02*
X014184Y011209D01*
X013948Y011209D01*
X013948Y011643D01*
X013948Y011287D02*
X014184Y011287D01*
X014184Y011365D02*
X013948Y011365D01*
X013948Y011443D02*
X014184Y011443D01*
X014184Y011521D02*
X013948Y011521D01*
X013948Y011599D02*
X014184Y011599D01*
X016388Y015113D02*
X016624Y015113D01*
X016624Y014679D01*
X016388Y014679D01*
X016388Y015113D01*
X016388Y014757D02*
X016624Y014757D01*
X016624Y014835D02*
X016388Y014835D01*
X016388Y014913D02*
X016624Y014913D01*
X016624Y014991D02*
X016388Y014991D01*
X016388Y015069D02*
X016624Y015069D01*
X017175Y015113D02*
X017411Y015113D01*
X017411Y014679D01*
X017175Y014679D01*
X017175Y015113D01*
X017175Y014757D02*
X017411Y014757D01*
X017411Y014835D02*
X017175Y014835D01*
X017175Y014913D02*
X017411Y014913D01*
X017411Y014991D02*
X017175Y014991D01*
X017175Y015069D02*
X017411Y015069D01*
X015211Y015339D02*
X014975Y015339D01*
X014975Y015773D01*
X015211Y015773D01*
X015211Y015339D01*
X015211Y015417D02*
X014975Y015417D01*
X014975Y015495D02*
X015211Y015495D01*
X015211Y015573D02*
X014975Y015573D01*
X014975Y015651D02*
X015211Y015651D01*
X015211Y015729D02*
X014975Y015729D01*
X014424Y015339D02*
X014188Y015339D01*
X014188Y015773D01*
X014424Y015773D01*
X014424Y015339D01*
X014424Y015417D02*
X014188Y015417D01*
X014188Y015495D02*
X014424Y015495D01*
X014424Y015573D02*
X014188Y015573D01*
X014188Y015651D02*
X014424Y015651D01*
X014424Y015729D02*
X014188Y015729D01*
X013871Y015359D02*
X013635Y015359D01*
X013635Y015793D01*
X013871Y015793D01*
X013871Y015359D01*
X013871Y015437D02*
X013635Y015437D01*
X013635Y015515D02*
X013871Y015515D01*
X013871Y015593D02*
X013635Y015593D01*
X013635Y015671D02*
X013871Y015671D01*
X013871Y015749D02*
X013635Y015749D01*
X013084Y015359D02*
X012848Y015359D01*
X012848Y015793D01*
X013084Y015793D01*
X013084Y015359D01*
X013084Y015437D02*
X012848Y015437D01*
X012848Y015515D02*
X013084Y015515D01*
X013084Y015593D02*
X012848Y015593D01*
X012848Y015671D02*
X013084Y015671D01*
X013084Y015749D02*
X012848Y015749D01*
X020338Y012729D02*
X020574Y012729D01*
X020338Y012729D02*
X020338Y013163D01*
X020574Y013163D01*
X020574Y012729D01*
X020574Y012807D02*
X020338Y012807D01*
X020338Y012885D02*
X020574Y012885D01*
X020574Y012963D02*
X020338Y012963D01*
X020338Y013041D02*
X020574Y013041D01*
X020574Y013119D02*
X020338Y013119D01*
X021125Y012729D02*
X021361Y012729D01*
X021125Y012729D02*
X021125Y013163D01*
X021361Y013163D01*
X021361Y012729D01*
X021361Y012807D02*
X021125Y012807D01*
X021125Y012885D02*
X021361Y012885D01*
X021361Y012963D02*
X021125Y012963D01*
X021125Y013041D02*
X021361Y013041D01*
X021361Y013119D02*
X021125Y013119D01*
X021397Y012387D02*
X021397Y012151D01*
X020963Y012151D01*
X020963Y012387D01*
X021397Y012387D01*
X021397Y012229D02*
X020963Y012229D01*
X020963Y012307D02*
X021397Y012307D01*
X021397Y012385D02*
X020963Y012385D01*
X021397Y011600D02*
X021397Y011364D01*
X020963Y011364D01*
X020963Y011600D01*
X021397Y011600D01*
X021397Y011442D02*
X020963Y011442D01*
X020963Y011520D02*
X021397Y011520D01*
X021397Y011598D02*
X020963Y011598D01*
X021135Y009809D02*
X021371Y009809D01*
X021135Y009809D02*
X021135Y010243D01*
X021371Y010243D01*
X021371Y009809D01*
X021371Y009887D02*
X021135Y009887D01*
X021135Y009965D02*
X021371Y009965D01*
X021371Y010043D02*
X021135Y010043D01*
X021135Y010121D02*
X021371Y010121D01*
X021371Y010199D02*
X021135Y010199D01*
X020584Y009809D02*
X020348Y009809D01*
X020348Y010243D01*
X020584Y010243D01*
X020584Y009809D01*
X020584Y009887D02*
X020348Y009887D01*
X020348Y009965D02*
X020584Y009965D01*
X020584Y010043D02*
X020348Y010043D01*
X020348Y010121D02*
X020584Y010121D01*
X020584Y010199D02*
X020348Y010199D01*
D14*
X018060Y009508D03*
X018060Y008720D03*
X018060Y008319D03*
X018060Y007532D03*
X016260Y007712D03*
X016260Y008499D03*
X014520Y008499D03*
X014520Y007712D03*
X010670Y009172D03*
X010670Y009959D03*
X007260Y009882D03*
X007260Y010669D03*
X013040Y016602D03*
X013040Y017389D03*
X015830Y016089D03*
X015830Y015302D03*
X017860Y014932D03*
X017860Y015719D03*
X018060Y016662D03*
X018060Y017449D03*
X019050Y017459D03*
X019050Y016672D03*
X020010Y016632D03*
X020010Y017419D03*
X019860Y015619D03*
X019860Y014832D03*
D15*
X017263Y015686D03*
X016476Y015686D03*
X016203Y016806D03*
X015416Y016806D03*
X020466Y010926D03*
X021253Y010926D03*
X021053Y007926D03*
X020266Y007926D03*
X009803Y008726D03*
X009016Y008726D03*
D16*
X014728Y016613D03*
X020791Y016613D03*
D17*
X018744Y005038D03*
X016775Y005038D03*
D18*
X012190Y009096D03*
X011430Y009096D03*
X011430Y010056D03*
X011810Y010056D03*
X012190Y010056D03*
D19*
X020851Y013914D03*
X020851Y014387D03*
X020851Y014859D03*
D20*
X017384Y016493D03*
X016635Y016493D03*
X017010Y017359D03*
D21*
X016922Y013851D03*
X017237Y013851D03*
X017552Y013851D03*
X017867Y013851D03*
X018182Y013851D03*
X018497Y013851D03*
X018812Y013851D03*
X019127Y013851D03*
X019127Y010471D03*
X018812Y010471D03*
X018497Y010471D03*
X018182Y010471D03*
X017867Y010471D03*
X017552Y010471D03*
X017237Y010471D03*
X016922Y010471D03*
D22*
X016334Y011059D03*
X016334Y011374D03*
X016334Y011689D03*
X016334Y012003D03*
X016334Y012318D03*
X016334Y012633D03*
X016334Y012948D03*
X016334Y013263D03*
X019714Y013263D03*
X019714Y012948D03*
X019714Y012633D03*
X019714Y012318D03*
X019714Y012003D03*
X019714Y011689D03*
X019714Y011374D03*
X019714Y011059D03*
D23*
X011799Y013175D03*
X011799Y013675D03*
X011799Y014175D03*
X011799Y014675D03*
X011799Y015175D03*
X011799Y015675D03*
X011799Y016175D03*
X011799Y016675D03*
D24*
X014475Y003026D03*
X016444Y003026D03*
D25*
X016480Y001076D03*
X014480Y001076D03*
D26*
X012860Y008073D03*
X012860Y008978D03*
D27*
X005604Y009223D03*
X005230Y009223D03*
X004855Y009223D03*
X004855Y010168D03*
X005230Y010168D03*
X005604Y010168D03*
D28*
X005200Y011076D03*
X008200Y011076D03*
X010050Y011076D03*
X013050Y011076D03*
X010050Y007076D03*
X008200Y005076D03*
X010050Y004076D03*
X005200Y004076D03*
X005200Y007076D03*
D29*
X004860Y007119D02*
X007460Y007119D01*
X007460Y007021D02*
X004860Y007021D01*
X004860Y006922D02*
X007460Y006922D01*
X007460Y006824D02*
X004860Y006824D01*
X004860Y006725D02*
X006659Y006725D01*
X006660Y006726D02*
X006260Y006326D01*
X004860Y006326D01*
X004860Y007526D01*
X007460Y007526D01*
X007460Y006726D01*
X006660Y006726D01*
X006561Y006627D02*
X004860Y006627D01*
X004860Y006528D02*
X006462Y006528D01*
X006364Y006430D02*
X004860Y006430D01*
X004860Y006331D02*
X006265Y006331D01*
X007460Y007218D02*
X004860Y007218D01*
X004860Y007316D02*
X007460Y007316D01*
X007460Y007415D02*
X004860Y007415D01*
X004860Y007513D02*
X007460Y007513D01*
X007860Y007513D02*
X010460Y007513D01*
X010460Y007526D02*
X007860Y007526D01*
X007860Y006826D01*
X008860Y006826D01*
X009260Y006526D01*
X010460Y006526D01*
X010460Y007526D01*
X010460Y007415D02*
X007860Y007415D01*
X007860Y007316D02*
X010460Y007316D01*
X010460Y007218D02*
X007860Y007218D01*
X007860Y007119D02*
X010460Y007119D01*
X010460Y007021D02*
X007860Y007021D01*
X007860Y006922D02*
X010460Y006922D01*
X010460Y006824D02*
X008862Y006824D01*
X008993Y006725D02*
X010460Y006725D01*
X010460Y006627D02*
X009125Y006627D01*
X009256Y006528D02*
X010460Y006528D01*
X008460Y005426D02*
X008460Y001326D01*
X007510Y001326D01*
X007510Y002526D01*
X007560Y002526D01*
X007560Y005426D01*
X008460Y005426D01*
X008460Y005346D02*
X007560Y005346D01*
X007560Y005248D02*
X008460Y005248D01*
X008460Y005149D02*
X007560Y005149D01*
X007560Y005051D02*
X008460Y005051D01*
X008460Y004952D02*
X007560Y004952D01*
X007560Y004854D02*
X008460Y004854D01*
X008460Y004755D02*
X007560Y004755D01*
X007560Y004657D02*
X008460Y004657D01*
X008460Y004558D02*
X007560Y004558D01*
X007560Y004460D02*
X008460Y004460D01*
X008460Y004361D02*
X007560Y004361D01*
X007560Y004263D02*
X008460Y004263D01*
X008460Y004164D02*
X007560Y004164D01*
X007560Y004066D02*
X008460Y004066D01*
X008460Y003967D02*
X007560Y003967D01*
X007560Y003869D02*
X008460Y003869D01*
X008460Y003770D02*
X007560Y003770D01*
X007560Y003672D02*
X008460Y003672D01*
X008460Y003573D02*
X007560Y003573D01*
X007560Y003475D02*
X008460Y003475D01*
X008460Y003376D02*
X007560Y003376D01*
X007560Y003278D02*
X008460Y003278D01*
X008460Y003179D02*
X007560Y003179D01*
X007560Y003081D02*
X008460Y003081D01*
X008460Y002982D02*
X007560Y002982D01*
X007560Y002884D02*
X008460Y002884D01*
X008460Y002785D02*
X007560Y002785D01*
X007560Y002687D02*
X008460Y002687D01*
X008460Y002588D02*
X007560Y002588D01*
X007510Y002490D02*
X008460Y002490D01*
X008460Y002391D02*
X007510Y002391D01*
X007510Y002293D02*
X008460Y002293D01*
X008460Y002194D02*
X007510Y002194D01*
X007510Y002096D02*
X008460Y002096D01*
X008460Y001997D02*
X007510Y001997D01*
X007510Y001899D02*
X008460Y001899D01*
X008460Y001800D02*
X007510Y001800D01*
X007510Y001702D02*
X008460Y001702D01*
X008460Y001603D02*
X007510Y001603D01*
X007510Y001505D02*
X008460Y001505D01*
X008460Y001406D02*
X007510Y001406D01*
X006210Y001406D02*
X004710Y001406D01*
X004710Y001326D02*
X004710Y004526D01*
X005860Y004526D01*
X005860Y002526D01*
X006210Y002526D01*
X006210Y001326D01*
X004710Y001326D01*
X004710Y001505D02*
X006210Y001505D01*
X006210Y001603D02*
X004710Y001603D01*
X004710Y001702D02*
X006210Y001702D01*
X006210Y001800D02*
X004710Y001800D01*
X004710Y001899D02*
X006210Y001899D01*
X006210Y001997D02*
X004710Y001997D01*
X004710Y002096D02*
X006210Y002096D01*
X006210Y002194D02*
X004710Y002194D01*
X004710Y002293D02*
X006210Y002293D01*
X006210Y002391D02*
X004710Y002391D01*
X004710Y002490D02*
X006210Y002490D01*
X005860Y002588D02*
X004710Y002588D01*
X004710Y002687D02*
X005860Y002687D01*
X005860Y002785D02*
X004710Y002785D01*
X004710Y002884D02*
X005860Y002884D01*
X005860Y002982D02*
X004710Y002982D01*
X004710Y003081D02*
X005860Y003081D01*
X005860Y003179D02*
X004710Y003179D01*
X004710Y003278D02*
X005860Y003278D01*
X005860Y003376D02*
X004710Y003376D01*
X004710Y003475D02*
X005860Y003475D01*
X005860Y003573D02*
X004710Y003573D01*
X004710Y003672D02*
X005860Y003672D01*
X005860Y003770D02*
X004710Y003770D01*
X004710Y003869D02*
X005860Y003869D01*
X005860Y003967D02*
X004710Y003967D01*
X004710Y004066D02*
X005860Y004066D01*
X005860Y004164D02*
X004710Y004164D01*
X004710Y004263D02*
X005860Y004263D01*
X005860Y004361D02*
X004710Y004361D01*
X004710Y004460D02*
X005860Y004460D01*
X009660Y004460D02*
X010860Y004460D01*
X010860Y004526D02*
X010860Y001326D01*
X009660Y001326D01*
X009660Y004526D01*
X010860Y004526D01*
X010860Y004361D02*
X009660Y004361D01*
X009660Y004263D02*
X010860Y004263D01*
X010860Y004164D02*
X009660Y004164D01*
X009660Y004066D02*
X010860Y004066D01*
X010860Y003967D02*
X009660Y003967D01*
X009660Y003869D02*
X010860Y003869D01*
X010860Y003770D02*
X009660Y003770D01*
X009660Y003672D02*
X010860Y003672D01*
X010860Y003573D02*
X009660Y003573D01*
X009660Y003475D02*
X010860Y003475D01*
X010860Y003376D02*
X009660Y003376D01*
X009660Y003278D02*
X010860Y003278D01*
X010860Y003179D02*
X009660Y003179D01*
X009660Y003081D02*
X010860Y003081D01*
X010860Y002982D02*
X009660Y002982D01*
X009660Y002884D02*
X010860Y002884D01*
X010860Y002785D02*
X009660Y002785D01*
X009660Y002687D02*
X010860Y002687D01*
X010860Y002588D02*
X009660Y002588D01*
X009660Y002490D02*
X010860Y002490D01*
X010860Y002391D02*
X009660Y002391D01*
X009660Y002293D02*
X010860Y002293D01*
X010860Y002194D02*
X009660Y002194D01*
X009660Y002096D02*
X010860Y002096D01*
X010860Y001997D02*
X009660Y001997D01*
X009660Y001899D02*
X010860Y001899D01*
X010860Y001800D02*
X009660Y001800D01*
X009660Y001702D02*
X010860Y001702D01*
X010860Y001603D02*
X009660Y001603D01*
X009660Y001505D02*
X010860Y001505D01*
X010860Y001406D02*
X009660Y001406D01*
X013245Y008140D02*
X013558Y007999D01*
X013968Y007999D01*
X014045Y007922D01*
X014154Y007922D01*
X014154Y007935D01*
X014218Y007999D01*
X014821Y007999D01*
X014885Y007935D01*
X014885Y007902D01*
X015894Y007902D01*
X015894Y007935D01*
X015958Y007999D01*
X016460Y007999D01*
X016460Y008172D01*
X016298Y008172D01*
X016298Y008461D01*
X016221Y008461D01*
X015854Y008461D01*
X015854Y008302D01*
X015864Y008264D01*
X015884Y008230D01*
X015912Y008202D01*
X015946Y008182D01*
X015984Y008172D01*
X016221Y008172D01*
X016221Y008461D01*
X016221Y008538D01*
X015854Y008538D01*
X015854Y008697D01*
X015864Y008735D01*
X015884Y008769D01*
X015912Y008797D01*
X015946Y008817D01*
X015984Y008827D01*
X016110Y008827D01*
X016110Y009052D01*
X014960Y010126D01*
X014821Y010133D01*
X014821Y009797D01*
X014743Y009720D01*
X014743Y009581D01*
X014799Y009526D01*
X014870Y009526D01*
X014931Y009587D01*
X015488Y009587D01*
X015575Y009499D01*
X015575Y009139D01*
X015488Y009052D01*
X014931Y009052D01*
X014877Y009106D01*
X014801Y009106D01*
X014801Y008967D01*
X014713Y008880D01*
X014353Y008880D01*
X014266Y008967D01*
X014266Y009524D01*
X014353Y009611D01*
X014363Y009611D01*
X014363Y009720D01*
X014286Y009797D01*
X014286Y010160D01*
X014033Y010173D01*
X014033Y009797D01*
X013946Y009710D01*
X013586Y009710D01*
X013498Y009797D01*
X013498Y009886D01*
X012875Y009886D01*
X012860Y009901D01*
X012825Y009866D01*
X012410Y009866D01*
X012410Y009760D01*
X012345Y009696D01*
X012034Y009696D01*
X012028Y009702D01*
X012012Y009686D01*
X011977Y009666D01*
X011939Y009656D01*
X011815Y009656D01*
X011815Y010051D01*
X011805Y010051D01*
X011805Y009656D01*
X011680Y009656D01*
X011642Y009666D01*
X011607Y009686D01*
X011591Y009702D01*
X011585Y009696D01*
X011274Y009696D01*
X011210Y009760D01*
X011210Y009769D01*
X011035Y009769D01*
X011035Y009736D01*
X010971Y009672D01*
X010368Y009672D01*
X010304Y009736D01*
X010304Y009779D01*
X010175Y009779D01*
X010304Y009779D01*
X010360Y009680D02*
X010060Y009680D01*
X010060Y009702D02*
X010098Y009702D01*
X010175Y009779D01*
X010060Y009702D02*
X010060Y009489D01*
X010061Y009489D01*
X010109Y009476D01*
X010152Y009452D01*
X010188Y009416D01*
X010213Y009373D01*
X010225Y009325D01*
X010225Y009211D01*
X010060Y009211D01*
X010060Y009153D01*
X010225Y009153D01*
X010225Y009039D01*
X010213Y008991D01*
X010188Y008948D01*
X010152Y008912D01*
X010131Y008900D01*
X010131Y008764D01*
X010060Y008764D01*
X010060Y008726D01*
X011210Y008726D01*
X011215Y008739D01*
X011243Y008767D01*
X011210Y008800D01*
X011210Y009391D01*
X011274Y009456D01*
X011585Y009456D01*
X011650Y009391D01*
X011650Y009173D01*
X011670Y009153D01*
X011670Y008773D01*
X011704Y008739D01*
X011709Y008726D01*
X012660Y008726D01*
X013245Y008140D01*
X013325Y008104D02*
X016460Y008104D01*
X016460Y008006D02*
X013544Y008006D01*
X013448Y008212D02*
X013661Y008212D01*
X013661Y008476D01*
X013718Y008476D01*
X013718Y008212D01*
X013931Y008212D01*
X013979Y008225D01*
X014022Y008250D01*
X014058Y008285D01*
X014083Y008328D01*
X014095Y008376D01*
X014095Y008491D01*
X013979Y008491D01*
X013985Y008495D01*
X013998Y008501D01*
X014000Y008507D01*
X014007Y008508D01*
X014016Y008519D01*
X014027Y008528D01*
X014028Y008535D01*
X014034Y008537D01*
X014039Y008548D01*
X014095Y008548D01*
X014095Y008662D01*
X014083Y008710D01*
X014060Y008750D01*
X014060Y009459D01*
X014062Y009462D01*
X014060Y009479D01*
X014060Y009496D01*
X014059Y009497D01*
X014060Y009501D01*
X014055Y009515D01*
X014053Y009529D01*
X014047Y009533D01*
X014048Y009540D01*
X014040Y009551D01*
X014034Y009564D01*
X014028Y009567D01*
X014027Y009573D01*
X014016Y009582D01*
X014007Y009593D01*
X014000Y009594D01*
X013998Y009600D01*
X013985Y009606D01*
X013974Y009614D01*
X013967Y009614D01*
X013962Y009619D01*
X013948Y009621D01*
X013935Y009626D01*
X013931Y009625D01*
X013930Y009626D01*
X013913Y009626D01*
X013896Y009628D01*
X013893Y009626D01*
X013176Y009626D01*
X013174Y009628D01*
X013161Y009626D01*
X013138Y009649D01*
X012581Y009649D01*
X012494Y009562D01*
X012494Y009286D01*
X012410Y009286D01*
X012410Y009391D01*
X012345Y009456D01*
X012034Y009456D01*
X011970Y009391D01*
X011970Y008800D01*
X012034Y008736D01*
X012345Y008736D01*
X012410Y008800D01*
X012410Y008906D01*
X012586Y008906D01*
X012586Y008809D01*
X012651Y008744D01*
X013010Y008744D01*
X013010Y008643D01*
X013007Y008640D01*
X013010Y008622D01*
X013010Y008605D01*
X013011Y008604D01*
X013009Y008600D01*
X013014Y008587D01*
X013016Y008573D01*
X013022Y008568D01*
X013021Y008562D01*
X013029Y008550D01*
X013035Y008537D01*
X013041Y008535D01*
X013042Y008528D01*
X013053Y008519D01*
X013062Y008508D01*
X013069Y008507D01*
X013071Y008501D01*
X013084Y008495D01*
X013096Y008487D01*
X013102Y008488D01*
X013107Y008482D01*
X013121Y008480D01*
X013134Y008475D01*
X013138Y008477D01*
X013139Y008476D01*
X013156Y008476D01*
X013174Y008473D01*
X013176Y008476D01*
X013284Y008476D01*
X013284Y008376D01*
X013297Y008328D01*
X013321Y008285D01*
X013357Y008250D01*
X013400Y008225D01*
X013448Y008212D01*
X013312Y008301D02*
X013084Y008301D01*
X013182Y008203D02*
X014171Y008203D01*
X014172Y008202D02*
X014206Y008182D01*
X014244Y008172D01*
X014481Y008172D01*
X014481Y008461D01*
X014114Y008461D01*
X014114Y008302D01*
X014124Y008264D01*
X014144Y008230D01*
X014172Y008202D01*
X014114Y008301D02*
X014067Y008301D01*
X014095Y008400D02*
X014114Y008400D01*
X014114Y008538D02*
X014114Y008697D01*
X014124Y008735D01*
X014144Y008769D01*
X014172Y008797D01*
X014206Y008817D01*
X014244Y008827D01*
X014481Y008827D01*
X014481Y008538D01*
X014558Y008538D01*
X014558Y008827D01*
X014795Y008827D01*
X014833Y008817D01*
X014868Y008797D01*
X014870Y008795D01*
X014877Y008802D01*
X014920Y008826D01*
X014968Y008839D01*
X015181Y008839D01*
X015181Y008561D01*
X015238Y008561D01*
X015238Y008839D01*
X015451Y008839D01*
X015499Y008826D01*
X015542Y008802D01*
X015578Y008766D01*
X015603Y008723D01*
X015615Y008675D01*
X015615Y008561D01*
X015238Y008561D01*
X015238Y008503D01*
X015238Y008224D01*
X015451Y008224D01*
X015499Y008237D01*
X015542Y008262D01*
X015578Y008298D01*
X015603Y008341D01*
X015615Y008389D01*
X015615Y008503D01*
X015238Y008503D01*
X015181Y008503D01*
X015181Y008224D01*
X014968Y008224D01*
X014920Y008237D01*
X014905Y008246D01*
X014895Y008230D01*
X014868Y008202D01*
X014833Y008182D01*
X014795Y008172D01*
X014558Y008172D01*
X014558Y008461D01*
X014558Y008538D01*
X014925Y008538D01*
X014925Y008561D01*
X015181Y008561D01*
X015181Y008503D01*
X014804Y008503D01*
X014804Y008461D01*
X014558Y008461D01*
X014481Y008461D01*
X014481Y008538D01*
X014114Y008538D01*
X014114Y008597D02*
X014095Y008597D01*
X014087Y008695D02*
X014114Y008695D01*
X014060Y008794D02*
X014168Y008794D01*
X014060Y008892D02*
X014341Y008892D01*
X014266Y008991D02*
X014060Y008991D01*
X014060Y009089D02*
X014266Y009089D01*
X014266Y009188D02*
X014060Y009188D01*
X014060Y009286D02*
X014266Y009286D01*
X014266Y009385D02*
X014060Y009385D01*
X014060Y009483D02*
X014266Y009483D01*
X014323Y009582D02*
X014016Y009582D01*
X014015Y009779D02*
X014304Y009779D01*
X014286Y009877D02*
X014033Y009877D01*
X014033Y009976D02*
X014286Y009976D01*
X014286Y010074D02*
X014033Y010074D01*
X014033Y010173D02*
X014038Y010173D01*
X013860Y010526D02*
X015460Y010526D01*
X015710Y010276D01*
X016726Y010276D01*
X016922Y010471D01*
X016560Y010676D02*
X016260Y010676D01*
X016560Y010676D02*
X017110Y011176D01*
X017110Y013376D01*
X016922Y013563D01*
X016922Y013851D01*
X016513Y013672D02*
X016463Y013672D01*
X016460Y014276D01*
X016456Y013672D01*
X016513Y013672D02*
X016810Y013376D01*
X016810Y012526D01*
X016610Y012326D01*
X016341Y012326D01*
X016334Y012318D01*
X016334Y012633D02*
X016067Y012633D01*
X015960Y012476D01*
X015960Y011976D01*
X015810Y011826D01*
X016072Y011689D02*
X015760Y011376D01*
X015410Y011376D01*
X015710Y011076D02*
X016162Y011374D01*
X016334Y011374D01*
X016317Y011076D02*
X016110Y011076D01*
X016110Y010976D01*
X015860Y010726D01*
X014010Y010726D01*
X013760Y010976D01*
X013760Y011626D01*
X013460Y011926D01*
X007260Y011926D01*
X006060Y010726D01*
X005610Y010726D01*
X005310Y010426D01*
X005310Y010248D01*
X005230Y010168D01*
X005604Y010168D02*
X005652Y010168D01*
X005760Y010276D01*
X006060Y010326D02*
X006060Y009126D01*
X005760Y008826D01*
X005350Y008826D01*
X005230Y008946D01*
X005230Y009223D01*
X004855Y009223D02*
X004855Y008930D01*
X004860Y008926D01*
X006060Y010326D02*
X007410Y011676D01*
X013410Y011676D01*
X013560Y011526D01*
X013560Y010826D01*
X013860Y010526D01*
X013498Y009877D02*
X012836Y009877D01*
X012513Y009582D02*
X010060Y009582D01*
X010084Y009483D02*
X010345Y009483D01*
X010356Y009489D02*
X010322Y009469D01*
X010294Y009441D01*
X010274Y009407D01*
X010264Y009369D01*
X010264Y009211D01*
X010631Y009211D01*
X010631Y009499D01*
X010394Y009499D01*
X010356Y009489D01*
X010268Y009385D02*
X010206Y009385D01*
X010225Y009286D02*
X010264Y009286D01*
X010264Y009133D02*
X010264Y008975D01*
X010274Y008937D01*
X010294Y008902D01*
X010322Y008874D01*
X010356Y008855D01*
X010394Y008844D01*
X010631Y008844D01*
X010631Y009133D01*
X010708Y009133D01*
X010708Y008844D01*
X010945Y008844D01*
X010983Y008855D01*
X011018Y008874D01*
X011045Y008902D01*
X011065Y008937D01*
X011075Y008975D01*
X011075Y009133D01*
X010708Y009133D01*
X010708Y009211D01*
X010631Y009211D01*
X010631Y009133D01*
X010264Y009133D01*
X010264Y009089D02*
X010225Y009089D01*
X010212Y008991D02*
X010264Y008991D01*
X010304Y008892D02*
X010131Y008892D01*
X010131Y008794D02*
X011216Y008794D01*
X011210Y008892D02*
X011035Y008892D01*
X011075Y008991D02*
X011210Y008991D01*
X011210Y009089D02*
X011075Y009089D01*
X011075Y009211D02*
X011075Y009369D01*
X011065Y009407D01*
X011045Y009441D01*
X011018Y009469D01*
X010983Y009489D01*
X010945Y009499D01*
X010708Y009499D01*
X010708Y009211D01*
X011075Y009211D01*
X011075Y009286D02*
X011210Y009286D01*
X011210Y009188D02*
X010708Y009188D01*
X010631Y009188D02*
X010060Y009188D01*
X010631Y009286D02*
X010708Y009286D01*
X010708Y009385D02*
X010631Y009385D01*
X010631Y009483D02*
X010708Y009483D01*
X010994Y009483D02*
X012494Y009483D01*
X012494Y009385D02*
X012410Y009385D01*
X012410Y009286D02*
X012494Y009286D01*
X012410Y008892D02*
X012586Y008892D01*
X012601Y008794D02*
X012403Y008794D01*
X012690Y008695D02*
X013010Y008695D01*
X013010Y008597D02*
X012788Y008597D01*
X012887Y008498D02*
X013078Y008498D01*
X012985Y008400D02*
X013284Y008400D01*
X013661Y008400D02*
X013718Y008400D01*
X013718Y008301D02*
X013661Y008301D01*
X013991Y008498D02*
X014481Y008498D01*
X014558Y008498D02*
X014804Y008498D01*
X014558Y008400D02*
X014481Y008400D01*
X014481Y008301D02*
X014558Y008301D01*
X014558Y008203D02*
X014481Y008203D01*
X014868Y008203D02*
X015911Y008203D01*
X015854Y008301D02*
X015580Y008301D01*
X015615Y008400D02*
X015854Y008400D01*
X015854Y008597D02*
X015615Y008597D01*
X015610Y008695D02*
X015854Y008695D01*
X015908Y008794D02*
X015550Y008794D01*
X015525Y009089D02*
X016070Y009089D01*
X016110Y008991D02*
X014801Y008991D01*
X014801Y009089D02*
X014894Y009089D01*
X014726Y008892D02*
X016110Y008892D01*
X015964Y009188D02*
X015575Y009188D01*
X015575Y009286D02*
X015859Y009286D01*
X015753Y009385D02*
X015575Y009385D01*
X015575Y009483D02*
X015648Y009483D01*
X015542Y009582D02*
X015493Y009582D01*
X015437Y009680D02*
X014743Y009680D01*
X014743Y009582D02*
X014926Y009582D01*
X014802Y009779D02*
X015331Y009779D01*
X015226Y009877D02*
X014821Y009877D01*
X014821Y009976D02*
X015120Y009976D01*
X015015Y010074D02*
X014821Y010074D01*
X014363Y009680D02*
X012002Y009680D01*
X011815Y009680D02*
X011805Y009680D01*
X011805Y009779D02*
X011815Y009779D01*
X011805Y009877D02*
X011815Y009877D01*
X011805Y009976D02*
X011815Y009976D01*
X011617Y009680D02*
X010979Y009680D01*
X011071Y009385D02*
X011210Y009385D01*
X011650Y009385D02*
X011970Y009385D01*
X011970Y009286D02*
X011650Y009286D01*
X011650Y009188D02*
X011970Y009188D01*
X011970Y009089D02*
X011670Y009089D01*
X011670Y008991D02*
X011970Y008991D01*
X011970Y008892D02*
X011670Y008892D01*
X011670Y008794D02*
X011976Y008794D01*
X012410Y009779D02*
X013517Y009779D01*
X014481Y008794D02*
X014558Y008794D01*
X014558Y008695D02*
X014481Y008695D01*
X014481Y008597D02*
X014558Y008597D01*
X015181Y008597D02*
X015238Y008597D01*
X015238Y008695D02*
X015181Y008695D01*
X015181Y008794D02*
X015238Y008794D01*
X015238Y008498D02*
X015181Y008498D01*
X015181Y008400D02*
X015238Y008400D01*
X015238Y008301D02*
X015181Y008301D01*
X014885Y007907D02*
X015894Y007907D01*
X016221Y008203D02*
X016298Y008203D01*
X016298Y008301D02*
X016221Y008301D01*
X016221Y008400D02*
X016298Y008400D01*
X016221Y008498D02*
X015615Y008498D01*
X016700Y008794D02*
X016904Y008794D01*
X016904Y008726D02*
X016710Y008726D01*
X016710Y008729D01*
X016710Y008746D01*
X016707Y008749D01*
X016517Y010076D01*
X016644Y010076D01*
X016750Y010076D01*
X016755Y010071D01*
X017322Y010071D01*
X017322Y009877D01*
X016546Y009877D01*
X016560Y009779D02*
X016946Y009779D01*
X016904Y009736D02*
X016904Y009343D01*
X017015Y009232D01*
X017604Y009232D01*
X017654Y009281D01*
X017654Y009268D01*
X017741Y009180D01*
X018062Y009180D01*
X018194Y009048D01*
X018098Y009048D01*
X018098Y008759D01*
X018021Y008759D01*
X018021Y009048D01*
X017784Y009048D01*
X017746Y009038D01*
X017712Y009018D01*
X017684Y008990D01*
X017680Y008984D01*
X017604Y009059D01*
X017015Y009059D01*
X016904Y008948D01*
X016904Y008726D01*
X016904Y008892D02*
X016686Y008892D01*
X016672Y008991D02*
X016946Y008991D01*
X016960Y009286D02*
X016630Y009286D01*
X016644Y009188D02*
X017734Y009188D01*
X017684Y008991D02*
X017673Y008991D01*
X018021Y008991D02*
X018098Y008991D01*
X018098Y008892D02*
X018021Y008892D01*
X018021Y008794D02*
X018098Y008794D01*
X018153Y009089D02*
X016658Y009089D01*
X016616Y009385D02*
X016904Y009385D01*
X016904Y009483D02*
X016602Y009483D01*
X016588Y009582D02*
X016904Y009582D01*
X016904Y009680D02*
X016574Y009680D01*
X016531Y009976D02*
X017322Y009976D01*
X017322Y009877D02*
X017292Y009847D01*
X017015Y009847D01*
X016904Y009736D01*
X016751Y010074D02*
X016517Y010074D01*
X017072Y010871D02*
X017187Y010976D01*
X017192Y010976D01*
X017248Y011031D01*
X017305Y011083D01*
X017306Y011089D01*
X017310Y011093D01*
X017310Y011171D01*
X017313Y011249D01*
X017310Y011253D01*
X017310Y013451D01*
X017404Y013451D01*
X017409Y013456D01*
X017427Y013451D01*
X017549Y013451D01*
X017549Y013848D01*
X017554Y013848D01*
X017554Y013451D01*
X017617Y013451D01*
X017617Y013443D01*
X017610Y013425D01*
X017610Y013326D01*
X017648Y013234D01*
X017718Y013164D01*
X017810Y013126D01*
X018559Y013126D01*
X018608Y013146D01*
X019314Y013146D01*
X019314Y012518D01*
X019235Y012518D01*
X019235Y012530D01*
X019193Y012631D01*
X019115Y012709D01*
X019014Y012751D01*
X018905Y012751D01*
X018804Y012709D01*
X018726Y012631D01*
X018702Y012572D01*
X018665Y012609D01*
X018564Y012651D01*
X018455Y012651D01*
X018354Y012609D01*
X018276Y012531D01*
X018235Y012430D01*
X018235Y012342D01*
X018214Y012351D01*
X018105Y012351D01*
X018004Y012309D01*
X017926Y012231D01*
X017885Y012130D01*
X017885Y012021D01*
X017926Y011920D01*
X018004Y011842D01*
X018105Y011801D01*
X018214Y011801D01*
X018262Y011820D01*
X018764Y011624D01*
X018180Y011624D01*
X018114Y011651D01*
X018005Y011651D01*
X017904Y011609D01*
X017826Y011531D01*
X017785Y011430D01*
X017785Y011321D01*
X017826Y011220D01*
X017904Y011142D01*
X018005Y011101D01*
X018114Y011101D01*
X018135Y011109D01*
X018135Y011021D01*
X018176Y010920D01*
X018225Y010871D01*
X018015Y010871D01*
X018010Y010866D01*
X017991Y010871D01*
X017869Y010871D01*
X017869Y010473D01*
X017864Y010473D01*
X017864Y010871D01*
X017742Y010871D01*
X017724Y010866D01*
X017719Y010871D01*
X017072Y010871D01*
X017170Y010961D02*
X018159Y010961D01*
X018135Y011059D02*
X017279Y011059D01*
X017310Y011158D02*
X017889Y011158D01*
X017811Y011256D02*
X017310Y011256D01*
X017310Y011355D02*
X017785Y011355D01*
X017794Y011453D02*
X017310Y011453D01*
X017310Y011552D02*
X017847Y011552D01*
X018004Y011650D02*
X017310Y011650D01*
X017310Y011749D02*
X018445Y011749D01*
X018697Y011650D02*
X018115Y011650D01*
X017999Y011847D02*
X017310Y011847D01*
X017310Y011946D02*
X017916Y011946D01*
X017885Y012044D02*
X017310Y012044D01*
X017310Y012143D02*
X017890Y012143D01*
X017936Y012241D02*
X017310Y012241D01*
X017310Y012340D02*
X018078Y012340D01*
X018238Y012438D02*
X017310Y012438D01*
X017310Y012537D02*
X018282Y012537D01*
X018417Y012635D02*
X017310Y012635D01*
X017310Y012734D02*
X018864Y012734D01*
X018730Y012635D02*
X018602Y012635D01*
X018510Y012376D02*
X019082Y012003D01*
X019714Y012003D01*
X019714Y011689D02*
X019147Y011689D01*
X018160Y012076D01*
X017310Y012832D02*
X019314Y012832D01*
X019314Y012734D02*
X019055Y012734D01*
X019189Y012635D02*
X019314Y012635D01*
X019314Y012537D02*
X019232Y012537D01*
X019117Y012318D02*
X018960Y012476D01*
X019117Y012318D02*
X019714Y012318D01*
X019314Y012931D02*
X017310Y012931D01*
X017310Y013029D02*
X019314Y013029D01*
X019314Y013128D02*
X018564Y013128D01*
X017805Y013128D02*
X017310Y013128D01*
X017310Y013226D02*
X017655Y013226D01*
X017610Y013325D02*
X017310Y013325D01*
X017310Y013423D02*
X017610Y013423D01*
X017554Y013522D02*
X017549Y013522D01*
X017549Y013620D02*
X017554Y013620D01*
X017549Y013719D02*
X017554Y013719D01*
X017549Y013817D02*
X017554Y013817D01*
X017554Y013853D02*
X017549Y013853D01*
X017549Y014251D01*
X017427Y014251D01*
X017422Y014250D01*
X017419Y014265D01*
X017366Y014302D01*
X017320Y014348D01*
X017300Y014348D01*
X017097Y014490D01*
X017490Y014490D01*
X017601Y014601D01*
X017601Y014604D01*
X017635Y014604D01*
X017637Y014537D01*
X017637Y014251D01*
X017554Y014251D01*
X017554Y013853D01*
X017549Y013916D02*
X017554Y013916D01*
X017549Y014014D02*
X017554Y014014D01*
X017549Y014113D02*
X017554Y014113D01*
X017549Y014211D02*
X017554Y014211D01*
X017637Y014310D02*
X017358Y014310D01*
X017214Y014408D02*
X017637Y014408D01*
X017637Y014507D02*
X017507Y014507D01*
X017237Y014148D02*
X016410Y014726D01*
X016410Y014882D01*
X016506Y014896D01*
X016360Y014869D01*
X016003Y014869D01*
X015860Y014726D01*
X015860Y013976D01*
X015560Y013676D01*
X014610Y013676D01*
X014360Y013826D02*
X014360Y012926D01*
X014410Y012876D01*
X014410Y012502D01*
X014410Y011873D01*
X014336Y011696D02*
X014066Y011426D01*
X014189Y011831D02*
X013869Y011831D01*
X013853Y011815D01*
X013741Y011927D01*
X013772Y011919D01*
X013900Y011919D01*
X013900Y012493D01*
X013641Y012493D01*
X013641Y012049D01*
X013650Y012018D01*
X013542Y012126D01*
X008510Y012126D01*
X008510Y017746D01*
X016712Y017746D01*
X016663Y017696D01*
X016663Y017021D01*
X016751Y016933D01*
X017268Y016933D01*
X017356Y017021D01*
X017356Y017109D01*
X018019Y017109D01*
X018038Y017117D01*
X018166Y016989D01*
X018098Y016989D01*
X018098Y016701D01*
X018021Y016701D01*
X018021Y016989D01*
X017784Y016989D01*
X017746Y016979D01*
X017712Y016959D01*
X017684Y016931D01*
X017664Y016897D01*
X017663Y016894D01*
X017638Y016908D01*
X017600Y016918D01*
X017432Y016918D01*
X017432Y016541D01*
X017335Y016541D01*
X017335Y016444D01*
X017037Y016444D01*
X017037Y016197D01*
X017047Y016159D01*
X017067Y016125D01*
X017095Y016097D01*
X017104Y016091D01*
X017066Y016091D01*
X017028Y016081D01*
X016994Y016062D01*
X016966Y016034D01*
X016946Y015999D01*
X016936Y015961D01*
X016936Y015724D01*
X017224Y015724D01*
X017224Y015647D01*
X016936Y015647D01*
X016936Y015546D01*
X016803Y015694D01*
X016803Y016004D01*
X016760Y016047D01*
X016760Y016067D01*
X016894Y016067D01*
X016982Y016155D01*
X016982Y016830D01*
X016894Y016918D01*
X016531Y016918D01*
X016531Y017124D01*
X016443Y017211D01*
X016160Y017211D01*
X015978Y017419D01*
X015975Y017427D01*
X015946Y017456D01*
X015919Y017488D01*
X015911Y017491D01*
X015905Y017498D01*
X015867Y017513D01*
X015829Y017532D01*
X015821Y017532D01*
X015813Y017536D01*
X015772Y017536D01*
X015730Y017538D01*
X015722Y017536D01*
X014070Y017536D01*
X013978Y017498D01*
X013384Y016903D01*
X013358Y016929D01*
X012721Y016929D01*
X012717Y016925D01*
X012214Y016925D01*
X012137Y017003D01*
X011766Y017003D01*
X011565Y017171D01*
X011565Y017186D01*
X011518Y017298D01*
X011432Y017384D01*
X011320Y017431D01*
X011199Y017431D01*
X011087Y017384D01*
X011001Y017298D01*
X010955Y017186D01*
X010955Y017065D01*
X011001Y016953D01*
X011087Y016867D01*
X011199Y016821D01*
X011266Y016821D01*
X011373Y016731D01*
X011373Y016436D01*
X011389Y016420D01*
X011384Y016410D01*
X011373Y016372D01*
X011373Y016214D01*
X011760Y016214D01*
X011760Y016137D01*
X011373Y016137D01*
X011373Y015978D01*
X011384Y015940D01*
X011389Y015931D01*
X011373Y015915D01*
X011373Y015436D01*
X011384Y015425D01*
X011373Y015415D01*
X011373Y014936D01*
X011384Y014925D01*
X011373Y014915D01*
X011373Y014436D01*
X011384Y014425D01*
X011373Y014415D01*
X011373Y013936D01*
X011384Y013925D01*
X011373Y013915D01*
X011373Y013436D01*
X011384Y013425D01*
X011373Y013415D01*
X011373Y012994D01*
X011110Y013258D01*
X011110Y015237D01*
X011143Y015270D01*
X011185Y015371D01*
X011185Y015480D01*
X011143Y015581D01*
X011065Y015659D01*
X010964Y015701D01*
X010855Y015701D01*
X010754Y015659D01*
X010676Y015581D01*
X010635Y015480D01*
X010635Y015371D01*
X010676Y015270D01*
X010710Y015237D01*
X010710Y013093D01*
X010827Y012976D01*
X011177Y012626D01*
X010642Y012626D01*
X010510Y012758D01*
X010510Y015187D01*
X010543Y015220D01*
X010585Y015321D01*
X010585Y015430D01*
X010543Y015531D01*
X010465Y015609D01*
X010364Y015651D01*
X010255Y015651D01*
X010154Y015609D01*
X010076Y015531D01*
X010035Y015430D01*
X010035Y015321D01*
X010076Y015220D01*
X010110Y015187D01*
X010110Y012593D01*
X010477Y012226D01*
X012171Y012226D01*
X012204Y012192D01*
X012305Y012151D01*
X012414Y012151D01*
X012515Y012192D01*
X012593Y012270D01*
X012635Y012371D01*
X012635Y012480D01*
X012626Y012501D01*
X012664Y012501D01*
X012765Y012542D01*
X012843Y012620D01*
X012878Y012706D01*
X013230Y012706D01*
X013230Y012646D01*
X013290Y012646D01*
X013290Y012286D01*
X013421Y012286D01*
X013646Y012511D01*
X013900Y012511D01*
X013900Y012493D01*
X013919Y012493D01*
X013919Y012511D01*
X014141Y012511D01*
X014141Y012493D01*
X013919Y012493D01*
X013919Y011919D01*
X014047Y011919D01*
X014086Y011929D01*
X014120Y011949D01*
X014148Y011977D01*
X014156Y011992D01*
X014210Y011939D01*
X014210Y011873D01*
X014209Y011863D01*
X014201Y011845D01*
X014195Y011837D01*
X014189Y011831D01*
X014202Y011847D02*
X013821Y011847D01*
X013900Y011946D02*
X013919Y011946D01*
X013919Y012044D02*
X013900Y012044D01*
X013900Y012143D02*
X013919Y012143D01*
X013919Y012241D02*
X013900Y012241D01*
X013900Y012340D02*
X013919Y012340D01*
X013919Y012438D02*
X013900Y012438D01*
X013900Y012511D02*
X013900Y012975D01*
X013919Y012975D01*
X013919Y012511D01*
X013900Y012511D01*
X013900Y012537D02*
X013919Y012537D01*
X013919Y012635D02*
X013900Y012635D01*
X013900Y012734D02*
X013919Y012734D01*
X013919Y012832D02*
X013900Y012832D01*
X013900Y012931D02*
X013919Y012931D01*
X013909Y013175D02*
X014060Y013326D01*
X013909Y013175D02*
X011799Y013175D01*
X011373Y013128D02*
X011240Y013128D01*
X011142Y013226D02*
X011373Y013226D01*
X011373Y013325D02*
X011110Y013325D01*
X011110Y013423D02*
X011382Y013423D01*
X011373Y013522D02*
X011110Y013522D01*
X011110Y013620D02*
X011373Y013620D01*
X011373Y013719D02*
X011110Y013719D01*
X011110Y013817D02*
X011373Y013817D01*
X011374Y013916D02*
X011110Y013916D01*
X011110Y014014D02*
X011373Y014014D01*
X011373Y014113D02*
X011110Y014113D01*
X011110Y014211D02*
X011373Y014211D01*
X011373Y014310D02*
X011110Y014310D01*
X011110Y014408D02*
X011373Y014408D01*
X011373Y014507D02*
X011110Y014507D01*
X011110Y014605D02*
X011373Y014605D01*
X011373Y014704D02*
X011110Y014704D01*
X011110Y014802D02*
X011373Y014802D01*
X011373Y014901D02*
X011110Y014901D01*
X011110Y014999D02*
X011373Y014999D01*
X011373Y015098D02*
X011110Y015098D01*
X011110Y015196D02*
X011373Y015196D01*
X011373Y015295D02*
X011153Y015295D01*
X011185Y015393D02*
X011373Y015393D01*
X011373Y015492D02*
X011180Y015492D01*
X011134Y015590D02*
X011373Y015590D01*
X011373Y015689D02*
X010993Y015689D01*
X010826Y015689D02*
X008510Y015689D01*
X008510Y015787D02*
X011373Y015787D01*
X011373Y015886D02*
X008510Y015886D01*
X008510Y015984D02*
X011373Y015984D01*
X011373Y016083D02*
X008510Y016083D01*
X008510Y016181D02*
X011760Y016181D01*
X011838Y016181D02*
X012859Y016181D01*
X012810Y016230D02*
X012944Y016096D01*
X013058Y015981D01*
X012769Y015981D01*
X012658Y015871D01*
X012658Y015411D01*
X012654Y015409D01*
X012576Y015331D01*
X012535Y015230D01*
X012535Y015121D01*
X012576Y015020D01*
X012646Y014951D01*
X012555Y014951D01*
X012454Y014909D01*
X012376Y014831D01*
X012353Y014776D01*
X012225Y014776D01*
X012225Y014915D01*
X012214Y014925D01*
X012225Y014936D01*
X012225Y015301D01*
X012314Y015301D01*
X012415Y015342D01*
X012493Y015420D01*
X012535Y015521D01*
X012535Y015630D01*
X012493Y015731D01*
X012415Y015809D01*
X012314Y015851D01*
X012225Y015851D01*
X012225Y015915D01*
X012209Y015931D01*
X012214Y015940D01*
X012225Y015978D01*
X012225Y016137D01*
X011838Y016137D01*
X011838Y016214D01*
X012225Y016214D01*
X012225Y016372D01*
X012214Y016410D01*
X012209Y016420D01*
X012214Y016425D01*
X012634Y016425D01*
X012634Y016362D01*
X012721Y016274D01*
X012810Y016274D01*
X012810Y016230D01*
X012716Y016280D02*
X012225Y016280D01*
X012223Y016378D02*
X012634Y016378D01*
X012957Y016083D02*
X012225Y016083D01*
X012225Y015984D02*
X013056Y015984D01*
X012673Y015886D02*
X012225Y015886D01*
X012437Y015787D02*
X012658Y015787D01*
X012658Y015689D02*
X012510Y015689D01*
X012535Y015590D02*
X012658Y015590D01*
X012658Y015492D02*
X012522Y015492D01*
X012466Y015393D02*
X012638Y015393D01*
X012561Y015295D02*
X012225Y015295D01*
X012225Y015196D02*
X012535Y015196D01*
X012544Y015098D02*
X012225Y015098D01*
X012225Y014999D02*
X012597Y014999D01*
X012446Y014901D02*
X012225Y014901D01*
X012225Y014802D02*
X012364Y014802D01*
X012510Y014576D02*
X011899Y014576D01*
X011799Y014675D01*
X011749Y014226D02*
X011799Y014175D01*
X012159Y014175D01*
X012460Y014176D01*
X012510Y014576D02*
X012610Y014676D01*
X012260Y015576D02*
X011959Y015625D01*
X011799Y015675D01*
X011373Y016280D02*
X008510Y016280D01*
X008510Y016378D02*
X011375Y016378D01*
X011373Y016477D02*
X008510Y016477D01*
X008510Y016575D02*
X011373Y016575D01*
X011373Y016674D02*
X008510Y016674D01*
X008510Y016772D02*
X011324Y016772D01*
X011083Y016871D02*
X008510Y016871D01*
X008510Y016969D02*
X010994Y016969D01*
X010955Y017068D02*
X008510Y017068D01*
X008510Y017166D02*
X010955Y017166D01*
X010987Y017265D02*
X008510Y017265D01*
X008510Y017363D02*
X011066Y017363D01*
X011453Y017363D02*
X013001Y017363D01*
X013001Y017351D02*
X012634Y017351D01*
X012634Y017192D01*
X012644Y017154D01*
X012664Y017120D01*
X012692Y017092D01*
X012726Y017072D01*
X012764Y017062D01*
X013001Y017062D01*
X013001Y017351D01*
X013001Y017428D01*
X013001Y017717D01*
X012764Y017717D01*
X012726Y017707D01*
X012692Y017687D01*
X012664Y017659D01*
X012644Y017625D01*
X012634Y017587D01*
X012634Y017428D01*
X013001Y017428D01*
X013078Y017428D01*
X013078Y017717D01*
X013315Y017717D01*
X013353Y017707D01*
X013388Y017687D01*
X013415Y017659D01*
X013435Y017625D01*
X013445Y017587D01*
X013445Y017428D01*
X013078Y017428D01*
X013078Y017351D01*
X013445Y017351D01*
X013445Y017192D01*
X013435Y017154D01*
X013415Y017120D01*
X013388Y017092D01*
X013353Y017072D01*
X013315Y017062D01*
X013078Y017062D01*
X013078Y017351D01*
X013001Y017351D01*
X013078Y017363D02*
X013844Y017363D01*
X013942Y017462D02*
X013445Y017462D01*
X013445Y017560D02*
X016663Y017560D01*
X016663Y017462D02*
X015941Y017462D01*
X016028Y017363D02*
X016663Y017363D01*
X016663Y017265D02*
X016114Y017265D01*
X016488Y017166D02*
X016663Y017166D01*
X016663Y017068D02*
X016531Y017068D01*
X016531Y016969D02*
X016714Y016969D01*
X016942Y016871D02*
X017077Y016871D01*
X017067Y016860D02*
X017047Y016826D01*
X017037Y016788D01*
X017037Y016541D01*
X017335Y016541D01*
X017335Y016918D01*
X017167Y016918D01*
X017129Y016908D01*
X017095Y016888D01*
X017067Y016860D01*
X017037Y016772D02*
X016982Y016772D01*
X016982Y016674D02*
X017037Y016674D01*
X017037Y016575D02*
X016982Y016575D01*
X016982Y016477D02*
X017335Y016477D01*
X017335Y016575D02*
X017432Y016575D01*
X017432Y016674D02*
X017335Y016674D01*
X017335Y016772D02*
X017432Y016772D01*
X017432Y016871D02*
X017335Y016871D01*
X017305Y016969D02*
X017728Y016969D01*
X018021Y016969D02*
X018098Y016969D01*
X018098Y016871D02*
X018021Y016871D01*
X018021Y016772D02*
X018098Y016772D01*
X018098Y016701D02*
X018455Y016701D01*
X018625Y016530D01*
X018644Y016512D01*
X018644Y016432D01*
X018731Y016344D01*
X019368Y016344D01*
X019445Y016422D01*
X019604Y016422D01*
X019604Y016392D01*
X019691Y016304D01*
X020328Y016304D01*
X020330Y016306D01*
X020330Y016305D01*
X020483Y016152D01*
X020683Y016069D01*
X020752Y016069D01*
X020752Y015147D01*
X020454Y015147D01*
X020366Y015059D01*
X020366Y014865D01*
X020265Y014764D01*
X020265Y015072D01*
X020178Y015159D01*
X019541Y015159D01*
X019488Y015106D01*
X019488Y015141D01*
X019438Y015261D01*
X019345Y015354D01*
X019225Y015404D01*
X019094Y015404D01*
X019055Y015388D01*
X019017Y015426D01*
X018402Y015426D01*
X018285Y015308D01*
X018285Y014843D01*
X018318Y014809D01*
X018265Y014757D01*
X018265Y015172D01*
X018178Y015259D01*
X017541Y015259D01*
X017537Y015255D01*
X017500Y015291D01*
X017533Y015310D01*
X017561Y015338D01*
X017580Y015372D01*
X017586Y015392D01*
X017821Y015392D01*
X017821Y015681D01*
X017454Y015681D01*
X017454Y015647D01*
X017302Y015647D01*
X017302Y015724D01*
X017591Y015724D01*
X017591Y015758D01*
X017821Y015758D01*
X017821Y016047D01*
X017584Y016047D01*
X017555Y016039D01*
X017533Y016062D01*
X017523Y016067D01*
X017600Y016067D01*
X017638Y016077D01*
X017672Y016097D01*
X017700Y016125D01*
X017720Y016159D01*
X017730Y016197D01*
X017730Y016353D01*
X017746Y016345D01*
X017784Y016334D01*
X018021Y016334D01*
X018021Y016623D01*
X018098Y016623D01*
X018098Y016334D01*
X018335Y016334D01*
X018373Y016345D01*
X018408Y016364D01*
X018435Y016392D01*
X018455Y016427D01*
X018465Y016465D01*
X018465Y016623D01*
X018098Y016623D01*
X018098Y016701D01*
X018098Y016674D02*
X018482Y016674D01*
X018465Y016575D02*
X018580Y016575D01*
X018625Y016530D02*
X018625Y016530D01*
X018644Y016477D02*
X018465Y016477D01*
X018421Y016378D02*
X018698Y016378D01*
X018660Y016126D02*
X018458Y016126D01*
X018407Y016112D01*
X018362Y016086D01*
X018324Y016048D01*
X018298Y016003D01*
X018285Y015952D01*
X018285Y015826D01*
X018660Y015826D01*
X018660Y016126D01*
X018660Y016083D02*
X018760Y016083D01*
X018760Y016126D02*
X018760Y015826D01*
X019135Y015826D01*
X019135Y015952D01*
X019121Y016003D01*
X019095Y016048D01*
X019057Y016086D01*
X019012Y016112D01*
X018961Y016126D01*
X018760Y016126D01*
X018760Y015984D02*
X018660Y015984D01*
X018660Y015886D02*
X018760Y015886D01*
X018760Y015826D02*
X018660Y015826D01*
X018660Y015726D01*
X018760Y015726D01*
X018760Y015826D01*
X018760Y015787D02*
X019454Y015787D01*
X019454Y015817D02*
X019454Y015658D01*
X019821Y015658D01*
X019821Y015947D01*
X019584Y015947D01*
X019546Y015937D01*
X019512Y015917D01*
X019484Y015889D01*
X019464Y015855D01*
X019454Y015817D01*
X019482Y015886D02*
X019135Y015886D01*
X019126Y015984D02*
X020752Y015984D01*
X020660Y015984D02*
X021702Y015984D01*
X021702Y015886D02*
X020660Y015886D01*
X020752Y015886D02*
X020237Y015886D01*
X020235Y015889D02*
X020208Y015917D01*
X020173Y015937D01*
X020135Y015947D01*
X019898Y015947D01*
X019898Y015658D01*
X019821Y015658D01*
X019821Y015581D01*
X019454Y015581D01*
X019454Y015422D01*
X019464Y015384D01*
X019484Y015350D01*
X019512Y015322D01*
X019546Y015302D01*
X019584Y015292D01*
X019821Y015292D01*
X019821Y015581D01*
X019898Y015581D01*
X019898Y015658D01*
X020265Y015658D01*
X020265Y015817D01*
X020255Y015855D01*
X020235Y015889D01*
X020265Y015787D02*
X020752Y015787D01*
X020660Y015787D02*
X021702Y015787D01*
X021702Y015689D02*
X020660Y015689D01*
X020752Y015689D02*
X020265Y015689D01*
X020265Y015581D02*
X019898Y015581D01*
X019898Y015292D01*
X020135Y015292D01*
X020173Y015302D01*
X020208Y015322D01*
X020235Y015350D01*
X020255Y015384D01*
X020265Y015422D01*
X020265Y015581D01*
X020265Y015492D02*
X020752Y015492D01*
X020660Y015492D02*
X021702Y015492D01*
X021702Y015590D02*
X020660Y015590D01*
X020752Y015590D02*
X019898Y015590D01*
X019821Y015590D02*
X019132Y015590D01*
X019135Y015599D02*
X019135Y015726D01*
X018760Y015726D01*
X018760Y015426D01*
X018961Y015426D01*
X019012Y015439D01*
X019057Y015466D01*
X019095Y015503D01*
X019121Y015548D01*
X019135Y015599D01*
X019135Y015689D02*
X019454Y015689D01*
X019454Y015492D02*
X019083Y015492D01*
X019069Y015393D02*
X019050Y015393D01*
X019250Y015393D02*
X019461Y015393D01*
X019404Y015295D02*
X019573Y015295D01*
X019465Y015196D02*
X020752Y015196D01*
X020752Y015295D02*
X020146Y015295D01*
X020258Y015393D02*
X020752Y015393D01*
X020660Y015393D02*
X021702Y015393D01*
X021702Y015326D02*
X020660Y015326D01*
X020660Y016122D01*
X020691Y016109D01*
X020891Y016109D01*
X021076Y016186D01*
X021218Y016328D01*
X021295Y016513D01*
X021295Y016713D01*
X021218Y016898D01*
X021076Y017040D01*
X020891Y017117D01*
X020691Y017117D01*
X020660Y017104D01*
X020660Y017746D01*
X021171Y017746D01*
X021191Y017741D01*
X021221Y017746D01*
X021251Y017746D01*
X021261Y017750D01*
X021319Y017753D01*
X021474Y017715D01*
X021602Y017621D01*
X021685Y017485D01*
X021702Y017419D01*
X021702Y015326D01*
X021702Y016083D02*
X020660Y016083D01*
X020651Y016083D02*
X019060Y016083D01*
X019401Y016378D02*
X019618Y016378D01*
X019821Y015886D02*
X019898Y015886D01*
X019898Y015787D02*
X019821Y015787D01*
X019821Y015689D02*
X019898Y015689D01*
X019898Y015492D02*
X019821Y015492D01*
X019821Y015393D02*
X019898Y015393D01*
X019898Y015295D02*
X019821Y015295D01*
X020239Y015098D02*
X020405Y015098D01*
X020366Y014999D02*
X020265Y014999D01*
X020265Y014901D02*
X020366Y014901D01*
X020303Y014802D02*
X020265Y014802D01*
X020610Y014826D02*
X020835Y014826D01*
X020851Y014859D01*
X020610Y014826D02*
X020060Y014276D01*
X019010Y014276D01*
X018812Y014128D01*
X018812Y013851D01*
X019127Y013851D02*
X019185Y013851D01*
X019360Y014026D01*
X020310Y014026D01*
X020510Y013826D01*
X020890Y013826D01*
X020851Y013914D01*
X018485Y014926D02*
X018485Y015226D01*
X018935Y015226D01*
X018935Y014926D01*
X018485Y014926D01*
X018485Y015025D02*
X018935Y015025D01*
X018935Y015124D02*
X018485Y015124D01*
X018485Y015223D02*
X018935Y015223D01*
X018760Y015492D02*
X018660Y015492D01*
X018660Y015426D02*
X018660Y015726D01*
X018285Y015726D01*
X018285Y015599D01*
X018298Y015548D01*
X018324Y015503D01*
X018362Y015466D01*
X018407Y015439D01*
X018458Y015426D01*
X018660Y015426D01*
X018660Y015590D02*
X018760Y015590D01*
X018760Y015689D02*
X018660Y015689D01*
X018660Y015787D02*
X018265Y015787D01*
X018265Y015758D02*
X018265Y015917D01*
X018255Y015955D01*
X018235Y015989D01*
X018208Y016017D01*
X018173Y016037D01*
X018135Y016047D01*
X017898Y016047D01*
X017898Y015758D01*
X017821Y015758D01*
X017821Y015681D01*
X017898Y015681D01*
X017898Y015758D01*
X018265Y015758D01*
X018285Y015689D02*
X017898Y015689D01*
X017898Y015681D02*
X018265Y015681D01*
X018265Y015522D01*
X018255Y015484D01*
X018235Y015450D01*
X018208Y015422D01*
X018173Y015402D01*
X018135Y015392D01*
X017898Y015392D01*
X017898Y015681D01*
X017821Y015689D02*
X017302Y015689D01*
X017302Y015724D02*
X017224Y015724D01*
X017224Y016067D01*
X017302Y016067D01*
X017302Y015724D01*
X017302Y015787D02*
X017224Y015787D01*
X017224Y015689D02*
X016808Y015689D01*
X016803Y015787D02*
X016936Y015787D01*
X016936Y015886D02*
X016803Y015886D01*
X016803Y015984D02*
X016942Y015984D01*
X016910Y016083D02*
X017033Y016083D01*
X017041Y016181D02*
X016982Y016181D01*
X016982Y016280D02*
X017037Y016280D01*
X017037Y016378D02*
X016982Y016378D01*
X017224Y015984D02*
X017302Y015984D01*
X017302Y015886D02*
X017224Y015886D01*
X017648Y016083D02*
X018359Y016083D01*
X018293Y015984D02*
X018238Y015984D01*
X018265Y015886D02*
X018285Y015886D01*
X018265Y015590D02*
X018287Y015590D01*
X018257Y015492D02*
X018336Y015492D01*
X018369Y015393D02*
X018140Y015393D01*
X018285Y015295D02*
X017507Y015295D01*
X017821Y015393D02*
X017898Y015393D01*
X017898Y015492D02*
X017821Y015492D01*
X017821Y015590D02*
X017898Y015590D01*
X017898Y015787D02*
X017821Y015787D01*
X017821Y015886D02*
X017898Y015886D01*
X017898Y015984D02*
X017821Y015984D01*
X017726Y016181D02*
X020454Y016181D01*
X020355Y016280D02*
X017730Y016280D01*
X018021Y016378D02*
X018098Y016378D01*
X018098Y016477D02*
X018021Y016477D01*
X018021Y016575D02*
X018098Y016575D01*
X018088Y017068D02*
X017356Y017068D01*
X016663Y017659D02*
X013416Y017659D01*
X013078Y017659D02*
X013001Y017659D01*
X013001Y017560D02*
X013078Y017560D01*
X013078Y017462D02*
X013001Y017462D01*
X013001Y017265D02*
X013078Y017265D01*
X013078Y017166D02*
X013001Y017166D01*
X013001Y017068D02*
X013078Y017068D01*
X013337Y017068D02*
X013548Y017068D01*
X013647Y017166D02*
X013438Y017166D01*
X013445Y017265D02*
X013745Y017265D01*
X013450Y016969D02*
X012170Y016969D01*
X011688Y017068D02*
X012742Y017068D01*
X012641Y017166D02*
X011570Y017166D01*
X011532Y017265D02*
X012634Y017265D01*
X012634Y017462D02*
X008510Y017462D01*
X008510Y017560D02*
X012634Y017560D01*
X012663Y017659D02*
X008510Y017659D01*
X008510Y015590D02*
X010135Y015590D01*
X010060Y015492D02*
X008510Y015492D01*
X008510Y015393D02*
X010035Y015393D01*
X010045Y015295D02*
X008510Y015295D01*
X008510Y015196D02*
X010100Y015196D01*
X010110Y015098D02*
X008510Y015098D01*
X008510Y014999D02*
X010110Y014999D01*
X010110Y014901D02*
X008510Y014901D01*
X008510Y014802D02*
X010110Y014802D01*
X010110Y014704D02*
X008510Y014704D01*
X008510Y014605D02*
X010110Y014605D01*
X010110Y014507D02*
X008510Y014507D01*
X008510Y014408D02*
X010110Y014408D01*
X010110Y014310D02*
X008510Y014310D01*
X008510Y014211D02*
X010110Y014211D01*
X010110Y014113D02*
X008510Y014113D01*
X008510Y014014D02*
X010110Y014014D01*
X010110Y013916D02*
X008510Y013916D01*
X008510Y013817D02*
X010110Y013817D01*
X010110Y013719D02*
X008510Y013719D01*
X008510Y013620D02*
X010110Y013620D01*
X010110Y013522D02*
X008510Y013522D01*
X008510Y013423D02*
X010110Y013423D01*
X010110Y013325D02*
X008510Y013325D01*
X008510Y013226D02*
X010110Y013226D01*
X010110Y013128D02*
X008510Y013128D01*
X008510Y013029D02*
X010110Y013029D01*
X010110Y012931D02*
X008510Y012931D01*
X008510Y012832D02*
X010110Y012832D01*
X010110Y012734D02*
X008510Y012734D01*
X008510Y012635D02*
X010110Y012635D01*
X010166Y012537D02*
X008510Y012537D01*
X008510Y012438D02*
X010264Y012438D01*
X010363Y012340D02*
X008510Y012340D01*
X008510Y012241D02*
X010461Y012241D01*
X010560Y012426D02*
X010310Y012676D01*
X010310Y015376D01*
X010559Y015492D02*
X010639Y015492D01*
X010635Y015393D02*
X010585Y015393D01*
X010574Y015295D02*
X010666Y015295D01*
X010710Y015196D02*
X010519Y015196D01*
X010510Y015098D02*
X010710Y015098D01*
X010710Y014999D02*
X010510Y014999D01*
X010510Y014901D02*
X010710Y014901D01*
X010710Y014802D02*
X010510Y014802D01*
X010510Y014704D02*
X010710Y014704D01*
X010710Y014605D02*
X010510Y014605D01*
X010510Y014507D02*
X010710Y014507D01*
X010710Y014408D02*
X010510Y014408D01*
X010510Y014310D02*
X010710Y014310D01*
X010710Y014211D02*
X010510Y014211D01*
X010510Y014113D02*
X010710Y014113D01*
X010710Y014014D02*
X010510Y014014D01*
X010510Y013916D02*
X010710Y013916D01*
X010710Y013817D02*
X010510Y013817D01*
X010510Y013719D02*
X010710Y013719D01*
X010710Y013620D02*
X010510Y013620D01*
X010510Y013522D02*
X010710Y013522D01*
X010710Y013423D02*
X010510Y013423D01*
X010510Y013325D02*
X010710Y013325D01*
X010710Y013226D02*
X010510Y013226D01*
X010510Y013128D02*
X010710Y013128D01*
X010773Y013029D02*
X010510Y013029D01*
X010510Y012931D02*
X010872Y012931D01*
X010970Y012832D02*
X010510Y012832D01*
X010534Y012734D02*
X011069Y012734D01*
X011167Y012635D02*
X010633Y012635D01*
X010560Y012426D02*
X012360Y012426D01*
X012635Y012438D02*
X012945Y012438D01*
X012870Y012514D02*
X013098Y012286D01*
X013230Y012286D01*
X013230Y012646D01*
X012870Y012646D01*
X012870Y012514D01*
X012870Y012537D02*
X012751Y012537D01*
X012849Y012635D02*
X012870Y012635D01*
X012610Y012776D02*
X011310Y012776D01*
X010910Y013176D01*
X010910Y015426D01*
X010685Y015590D02*
X010484Y015590D01*
X013260Y013676D02*
X014060Y013676D01*
X014360Y013826D02*
X014510Y013976D01*
X014860Y013976D01*
X014910Y014026D01*
X014910Y014549D01*
X014433Y014549D02*
X014410Y014549D01*
X014410Y014376D01*
X014460Y014326D01*
X013960Y014176D02*
X013910Y014226D01*
X013910Y014549D01*
X014660Y013326D02*
X014985Y013326D01*
X015047Y013263D01*
X016334Y013263D01*
X016334Y012948D02*
X015982Y012948D01*
X015710Y012676D01*
X015720Y012176D01*
X015410Y012176D02*
X015410Y012502D01*
X015036Y012376D02*
X014910Y012502D01*
X015036Y012376D02*
X014960Y012876D01*
X015410Y012176D02*
X014853Y011619D01*
X014853Y011426D01*
X014860Y011419D01*
X014860Y011026D01*
X014337Y011696D02*
X014355Y011717D01*
X014372Y011740D01*
X014385Y011765D01*
X014396Y011790D01*
X014404Y011817D01*
X014408Y011845D01*
X014410Y011873D01*
X014203Y011946D02*
X014114Y011946D01*
X013643Y012044D02*
X013624Y012044D01*
X013641Y012143D02*
X008510Y012143D01*
X011339Y013029D02*
X011373Y013029D01*
X012622Y012340D02*
X013044Y012340D01*
X013230Y012340D02*
X013290Y012340D01*
X013290Y012438D02*
X013230Y012438D01*
X013230Y012537D02*
X013290Y012537D01*
X013290Y012635D02*
X013230Y012635D01*
X013475Y012340D02*
X013641Y012340D01*
X013641Y012438D02*
X013574Y012438D01*
X013641Y012241D02*
X012564Y012241D01*
X016072Y011689D02*
X016334Y011689D01*
X016334Y012003D02*
X016732Y012003D01*
X016860Y011876D01*
X016860Y011376D01*
X016334Y011059D02*
X016317Y011076D01*
X017864Y010862D02*
X017869Y010862D01*
X017864Y010764D02*
X017869Y010764D01*
X017864Y010665D02*
X017869Y010665D01*
X017864Y010567D02*
X017869Y010567D01*
X017869Y010468D02*
X017869Y010071D01*
X017952Y010071D01*
X017952Y009835D01*
X017782Y009835D01*
X017782Y010071D01*
X017864Y010071D01*
X017864Y010468D01*
X017869Y010468D01*
X017864Y010468D01*
X017864Y010370D02*
X017869Y010370D01*
X017864Y010271D02*
X017869Y010271D01*
X017864Y010173D02*
X017869Y010173D01*
X017864Y010074D02*
X017869Y010074D01*
X017952Y009976D02*
X017782Y009976D01*
X017782Y009877D02*
X017952Y009877D01*
X018760Y009851D02*
X019060Y009851D01*
X019060Y009401D01*
X018760Y009401D01*
X018760Y009851D01*
X018760Y009500D02*
X019060Y009500D01*
X019060Y009599D02*
X018760Y009599D01*
X018760Y009698D02*
X019060Y009698D01*
X019060Y009797D02*
X018760Y009797D01*
X019127Y010471D02*
X019064Y010971D01*
X019110Y010926D01*
X019310Y011176D02*
X018510Y011176D01*
X018410Y011076D01*
X018427Y011059D01*
X018060Y011376D02*
X018107Y011424D01*
X019507Y011424D01*
X019310Y011176D02*
X019427Y011059D01*
X019714Y011059D01*
X019510Y010626D02*
X020066Y010626D01*
X020466Y010026D01*
X019760Y009851D02*
X019460Y009851D01*
X019760Y009851D02*
X019760Y009401D01*
X019460Y009401D01*
X019460Y009851D01*
X019460Y009500D02*
X019760Y009500D01*
X019760Y009599D02*
X019460Y009599D01*
X019460Y009698D02*
X019760Y009698D01*
X019760Y009797D02*
X019460Y009797D01*
X019453Y008607D02*
X019753Y008607D01*
X019453Y008607D02*
X019453Y009057D01*
X019753Y009057D01*
X019753Y008607D01*
X019753Y008706D02*
X019453Y008706D01*
X019453Y008805D02*
X019753Y008805D01*
X019753Y008904D02*
X019453Y008904D01*
X019453Y009003D02*
X019753Y009003D01*
X019053Y008607D02*
X018753Y008607D01*
X018753Y009057D01*
X019053Y009057D01*
X019053Y008607D01*
X019053Y008706D02*
X018753Y008706D01*
X018753Y008805D02*
X019053Y008805D01*
X019053Y008904D02*
X018753Y008904D01*
X018753Y009003D02*
X019053Y009003D01*
X019060Y008251D02*
X018760Y008251D01*
X019060Y008251D02*
X019060Y007801D01*
X018760Y007801D01*
X018760Y008251D01*
X018760Y007900D02*
X019060Y007900D01*
X019060Y007999D02*
X018760Y007999D01*
X018760Y008098D02*
X019060Y008098D01*
X019060Y008197D02*
X018760Y008197D01*
X019460Y008251D02*
X019760Y008251D01*
X019760Y007801D01*
X019460Y007801D01*
X019460Y008251D01*
X019460Y007900D02*
X019760Y007900D01*
X019760Y007999D02*
X019460Y007999D01*
X019460Y008098D02*
X019760Y008098D01*
X019760Y008197D02*
X019460Y008197D01*
X017237Y013851D02*
X017237Y014148D01*
X018265Y014802D02*
X018311Y014802D01*
X018285Y014901D02*
X018265Y014901D01*
X018265Y014999D02*
X018285Y014999D01*
X018285Y015098D02*
X018265Y015098D01*
X018241Y015196D02*
X018285Y015196D01*
X018485Y015626D02*
X018485Y015926D01*
X018935Y015926D01*
X018935Y015626D01*
X018485Y015626D01*
X018485Y015725D02*
X018935Y015725D01*
X018935Y015824D02*
X018485Y015824D01*
X018485Y015923D02*
X018935Y015923D01*
X018863Y016999D02*
X018465Y017397D01*
X018465Y017689D01*
X018409Y017746D01*
X018690Y017746D01*
X018674Y017729D01*
X018654Y017695D01*
X018644Y017657D01*
X018644Y017498D01*
X019011Y017498D01*
X019011Y017421D01*
X018644Y017421D01*
X018644Y017262D01*
X018654Y017224D01*
X018674Y017190D01*
X018702Y017162D01*
X018736Y017142D01*
X018774Y017132D01*
X019011Y017132D01*
X019011Y017421D01*
X019088Y017421D01*
X019088Y017498D01*
X019455Y017498D01*
X019455Y017657D01*
X019445Y017695D01*
X019425Y017729D01*
X019409Y017746D01*
X019730Y017746D01*
X019696Y017737D01*
X019662Y017717D01*
X019634Y017689D01*
X019614Y017655D01*
X019604Y017617D01*
X019604Y017458D01*
X019971Y017458D01*
X019971Y017381D01*
X019604Y017381D01*
X019604Y017222D01*
X019614Y017184D01*
X019634Y017150D01*
X019662Y017122D01*
X019696Y017102D01*
X019734Y017092D01*
X019971Y017092D01*
X019971Y017381D01*
X020048Y017381D01*
X020048Y017458D01*
X020415Y017458D01*
X020415Y017617D01*
X020405Y017655D01*
X020385Y017689D01*
X020358Y017717D01*
X020323Y017737D01*
X020289Y017746D01*
X020752Y017746D01*
X020752Y017157D01*
X020683Y017157D01*
X020483Y017074D01*
X020348Y016939D01*
X020328Y016959D01*
X019691Y016959D01*
X019654Y016922D01*
X019445Y016922D01*
X019368Y016999D01*
X018863Y016999D01*
X018795Y017068D02*
X020477Y017068D01*
X020385Y017150D02*
X020405Y017184D01*
X020415Y017222D01*
X020415Y017381D01*
X020048Y017381D01*
X020048Y017092D01*
X020285Y017092D01*
X020323Y017102D01*
X020358Y017122D01*
X020385Y017150D01*
X020395Y017166D02*
X020752Y017166D01*
X020660Y017166D02*
X021702Y017166D01*
X021702Y017068D02*
X021010Y017068D01*
X021147Y016969D02*
X021702Y016969D01*
X021702Y016871D02*
X021229Y016871D01*
X021270Y016772D02*
X021702Y016772D01*
X021702Y016674D02*
X021295Y016674D01*
X021295Y016575D02*
X021702Y016575D01*
X021702Y016477D02*
X021280Y016477D01*
X021239Y016378D02*
X021702Y016378D01*
X021702Y016280D02*
X021170Y016280D01*
X021065Y016181D02*
X021702Y016181D01*
X021702Y017265D02*
X020660Y017265D01*
X020752Y017265D02*
X020415Y017265D01*
X020415Y017363D02*
X020752Y017363D01*
X020660Y017363D02*
X021702Y017363D01*
X021691Y017462D02*
X020660Y017462D01*
X020752Y017462D02*
X020415Y017462D01*
X020415Y017560D02*
X020752Y017560D01*
X020660Y017560D02*
X021639Y017560D01*
X021551Y017659D02*
X020660Y017659D01*
X020752Y017659D02*
X020403Y017659D01*
X020048Y017363D02*
X019971Y017363D01*
X019971Y017265D02*
X020048Y017265D01*
X020048Y017166D02*
X019971Y017166D01*
X020378Y016969D02*
X019398Y016969D01*
X019363Y017142D02*
X019398Y017162D01*
X019425Y017190D01*
X019445Y017224D01*
X019455Y017262D01*
X019455Y017421D01*
X019088Y017421D01*
X019088Y017132D01*
X019325Y017132D01*
X019363Y017142D01*
X019402Y017166D02*
X019624Y017166D01*
X019604Y017265D02*
X019455Y017265D01*
X019455Y017363D02*
X019604Y017363D01*
X019604Y017462D02*
X019088Y017462D01*
X019011Y017462D02*
X018465Y017462D01*
X018465Y017560D02*
X018644Y017560D01*
X018644Y017659D02*
X018465Y017659D01*
X018499Y017363D02*
X018644Y017363D01*
X018644Y017265D02*
X018598Y017265D01*
X018696Y017166D02*
X018697Y017166D01*
X019011Y017166D02*
X019088Y017166D01*
X019088Y017265D02*
X019011Y017265D01*
X019011Y017363D02*
X019088Y017363D01*
X019455Y017560D02*
X019604Y017560D01*
X019616Y017659D02*
X019455Y017659D01*
X016936Y015590D02*
X016897Y015590D01*
X015830Y016089D02*
X015746Y016006D01*
X015440Y016006D01*
X014020Y016006D01*
X013800Y016226D01*
X013640Y016226D01*
X013828Y016426D02*
X013795Y016459D01*
X013694Y016501D01*
X013688Y016501D01*
X014223Y017036D01*
X014385Y017036D01*
X014374Y017028D01*
X014313Y016967D01*
X014263Y016898D01*
X014224Y016822D01*
X014198Y016740D01*
X014185Y016663D01*
X014678Y016663D01*
X014678Y016563D01*
X014185Y016563D01*
X014198Y016486D01*
X014224Y016404D01*
X014263Y016328D01*
X014313Y016259D01*
X014367Y016206D01*
X014102Y016206D01*
X013882Y016426D01*
X013828Y016426D01*
X013752Y016477D02*
X014201Y016477D01*
X014237Y016378D02*
X013930Y016378D01*
X014028Y016280D02*
X014298Y016280D01*
X014678Y016575D02*
X013763Y016575D01*
X013861Y016674D02*
X014187Y016674D01*
X014208Y016772D02*
X013960Y016772D01*
X014058Y016871D02*
X014249Y016871D01*
X014315Y016969D02*
X014157Y016969D01*
X015090Y016206D02*
X015143Y016259D01*
X015193Y016328D01*
X015230Y016400D01*
X015377Y016400D01*
X015377Y016767D01*
X015455Y016767D01*
X015455Y016844D01*
X015743Y016844D01*
X015743Y016929D01*
X015876Y016777D01*
X015876Y016488D01*
X015947Y016417D01*
X015663Y016417D01*
X015685Y016430D01*
X015713Y016458D01*
X015733Y016492D01*
X015743Y016530D01*
X015743Y016767D01*
X015455Y016767D01*
X015455Y016400D01*
X015494Y016400D01*
X015424Y016329D01*
X015424Y016206D01*
X015090Y016206D01*
X015158Y016280D02*
X015424Y016280D01*
X015473Y016378D02*
X015219Y016378D01*
X015377Y016477D02*
X015455Y016477D01*
X015455Y016575D02*
X015377Y016575D01*
X015377Y016674D02*
X015455Y016674D01*
X015455Y016772D02*
X015876Y016772D01*
X015876Y016674D02*
X015743Y016674D01*
X015743Y016575D02*
X015876Y016575D01*
X015887Y016477D02*
X015724Y016477D01*
X015743Y016871D02*
X015794Y016871D01*
X010708Y009089D02*
X010631Y009089D01*
X010631Y008991D02*
X010708Y008991D01*
X010708Y008892D02*
X010631Y008892D01*
D30*
X013260Y012676D03*
X013260Y013676D03*
X013260Y014676D03*
D31*
X012510Y001876D03*
X007860Y001876D03*
X018610Y001926D03*
D32*
X020610Y001926D03*
X010510Y001876D03*
X005860Y001876D03*
D33*
X013910Y012502D03*
X014410Y012502D03*
X014910Y012502D03*
X015410Y012502D03*
X015410Y014549D03*
X014910Y014549D03*
X014410Y014549D03*
X013910Y014549D03*
D34*
X013418Y004976D03*
X015701Y004976D03*
D35*
X014760Y003276D02*
X013760Y003276D01*
X013610Y002776D01*
X013160Y002326D01*
X012210Y002326D01*
X012210Y001376D01*
X013560Y001376D01*
X014260Y000676D01*
X014760Y000676D01*
X014760Y003276D01*
X014760Y003137D02*
X013718Y003137D01*
X013670Y002979D02*
X014760Y002979D01*
X014760Y002820D02*
X013623Y002820D01*
X013496Y002662D02*
X014760Y002662D01*
X014760Y002503D02*
X013337Y002503D01*
X013179Y002345D02*
X014760Y002345D01*
X014760Y002186D02*
X012210Y002186D01*
X012210Y002028D02*
X014760Y002028D01*
X014760Y001869D02*
X012210Y001869D01*
X012210Y001711D02*
X014760Y001711D01*
X014760Y001552D02*
X012210Y001552D01*
X012210Y001394D02*
X014760Y001394D01*
X014760Y001235D02*
X013700Y001235D01*
X013859Y001077D02*
X014760Y001077D01*
X014760Y000918D02*
X014017Y000918D01*
X014176Y000760D02*
X014760Y000760D01*
X016210Y000760D02*
X018960Y000760D01*
X018960Y000726D02*
X016210Y000726D01*
X016210Y001526D01*
X017860Y001526D01*
X018260Y002276D01*
X018960Y002276D01*
X018960Y000726D01*
X018960Y000918D02*
X016210Y000918D01*
X016210Y001077D02*
X018960Y001077D01*
X018960Y001235D02*
X016210Y001235D01*
X016210Y001394D02*
X018960Y001394D01*
X018960Y001552D02*
X017874Y001552D01*
X017958Y001711D02*
X018960Y001711D01*
X018960Y001869D02*
X018043Y001869D01*
X018127Y002028D02*
X018960Y002028D01*
X018960Y002186D02*
X018212Y002186D01*
X020060Y002186D02*
X020960Y002186D01*
X020960Y002028D02*
X020060Y002028D01*
X020060Y001869D02*
X020960Y001869D01*
X020960Y001711D02*
X020060Y001711D01*
X020060Y001552D02*
X020960Y001552D01*
X020960Y001526D02*
X020060Y001526D01*
X020060Y004126D01*
X018460Y004126D01*
X018460Y005326D01*
X020960Y005326D01*
X020960Y001526D01*
X020960Y002345D02*
X020060Y002345D01*
X020060Y002503D02*
X020960Y002503D01*
X020960Y002662D02*
X020060Y002662D01*
X020060Y002820D02*
X020960Y002820D01*
X020960Y002979D02*
X020060Y002979D01*
X020060Y003137D02*
X020960Y003137D01*
X020960Y003296D02*
X020060Y003296D01*
X020060Y003454D02*
X020960Y003454D01*
X020960Y003613D02*
X020060Y003613D01*
X020060Y003771D02*
X020960Y003771D01*
X020960Y003930D02*
X020060Y003930D01*
X020060Y004088D02*
X020960Y004088D01*
X020960Y004247D02*
X018460Y004247D01*
X018460Y004405D02*
X020960Y004405D01*
X020960Y004564D02*
X018460Y004564D01*
X018460Y004722D02*
X020960Y004722D01*
X020960Y004881D02*
X018460Y004881D01*
X018460Y005039D02*
X020960Y005039D01*
X020960Y005198D02*
X018460Y005198D01*
X019060Y006926D02*
X013060Y006926D01*
X012060Y007926D01*
X012060Y008344D01*
X011886Y008517D01*
X011518Y008517D01*
X011460Y008576D01*
X012190Y009096D02*
X012642Y009096D01*
X012860Y008978D01*
X012860Y009382D01*
X012746Y010056D02*
X012190Y010056D01*
X012746Y010056D02*
X012860Y010169D01*
X012953Y010076D01*
X013766Y010076D01*
X014553Y010076D02*
X014553Y009316D01*
X014533Y009246D01*
X013746Y009246D02*
X013680Y009246D01*
X013630Y009296D01*
X013043Y008023D02*
X012860Y008073D01*
X013043Y008023D02*
X013690Y007732D01*
X014500Y007732D01*
X014520Y007712D01*
X016260Y007712D01*
X017004Y007712D01*
X017075Y007741D02*
X017260Y007926D01*
X017260Y008660D01*
X017260Y008702D02*
X017310Y008752D01*
X017289Y008731D01*
X017277Y008716D01*
X017268Y008698D01*
X017262Y008680D01*
X017260Y008660D01*
X017310Y009539D02*
X017552Y009781D01*
X017552Y010471D01*
X018182Y010471D02*
X018182Y009630D01*
X018060Y009508D01*
X018686Y008882D01*
X018903Y008832D01*
X019603Y008832D02*
X019610Y008888D01*
X019610Y009626D01*
X019660Y009776D01*
X020466Y010026D02*
X020530Y009962D01*
X020530Y009336D01*
X020820Y008926D02*
X021230Y009336D01*
X020820Y008926D02*
X019810Y008926D01*
X019772Y008888D01*
X019610Y008888D01*
X019610Y008026D02*
X019610Y007476D01*
X019060Y006926D01*
X018116Y007532D02*
X018560Y008026D01*
X018910Y008026D01*
X018116Y007532D02*
X018060Y007532D01*
X017075Y007741D02*
X017060Y007729D01*
X017042Y007720D01*
X017024Y007714D01*
X017004Y007712D01*
X018910Y009626D02*
X018812Y009824D01*
X018812Y010471D01*
X020466Y010926D02*
X020310Y011332D01*
X020310Y012176D01*
X020660Y012526D01*
X020860Y012676D01*
X020860Y013276D01*
X020660Y013476D01*
X020410Y013476D01*
X020160Y013726D01*
X019610Y013726D01*
X019260Y013376D01*
X018510Y013376D01*
X018510Y013764D02*
X018497Y013851D01*
X018497Y014163D01*
X018960Y014526D01*
X019303Y014526D01*
X019860Y014832D01*
X018710Y014826D02*
X018710Y015076D01*
X018710Y014826D02*
X018660Y014826D01*
X018160Y014326D01*
X018160Y013873D01*
X018182Y013851D01*
X017867Y013851D02*
X017867Y014539D01*
X017860Y014932D01*
X015830Y015302D02*
X015403Y015302D01*
X015330Y015376D01*
X015150Y015556D01*
X015093Y015556D01*
X014890Y014912D02*
X014306Y015556D01*
X014226Y015576D01*
X013753Y015576D01*
X013753Y015612D01*
X013040Y016326D01*
X013040Y016602D01*
X012966Y015576D02*
X012916Y015282D01*
X012810Y015176D01*
X013310Y015132D02*
X013753Y015576D01*
X013310Y015132D02*
X013260Y014676D01*
X012460Y013676D02*
X012209Y013675D01*
X011799Y013675D01*
X013260Y012676D02*
X013386Y012502D01*
X013910Y012502D01*
X014910Y014549D02*
X015410Y014549D01*
X014910Y014549D02*
X014890Y014912D01*
X011799Y016676D02*
X011799Y016675D01*
X011799Y016676D02*
X011260Y017126D01*
X017969Y017359D02*
X018060Y017449D01*
X019714Y012948D02*
X020403Y012948D01*
X020456Y012946D01*
X021243Y012946D02*
X021243Y012333D01*
X021180Y012269D01*
X020460Y010982D02*
X020466Y010926D01*
X020466Y010813D01*
X021253Y010026D01*
X011430Y010056D02*
X011333Y009959D01*
X010670Y009959D01*
X010660Y009969D01*
X009820Y009969D01*
X008908Y009969D01*
X008838Y009940D02*
X008803Y009906D01*
X008837Y009940D02*
X008852Y009952D01*
X008870Y009961D01*
X008888Y009967D01*
X008908Y009969D01*
X009310Y009476D02*
X009560Y009226D01*
X009734Y009226D01*
X009805Y009196D02*
X009820Y009182D01*
X009820Y008765D01*
X009819Y008754D01*
X009816Y008744D01*
X009811Y008734D01*
X009804Y008725D01*
X009805Y009197D02*
X009790Y009209D01*
X009772Y009218D01*
X009754Y009224D01*
X009734Y009226D01*
X009016Y008928D02*
X009016Y008726D01*
X009016Y008928D02*
X009014Y008948D01*
X009008Y008966D01*
X008999Y008984D01*
X008987Y008999D01*
X008860Y009126D01*
X009160Y010426D02*
X007560Y010426D01*
X007366Y010669D01*
X007260Y010669D01*
X007153Y010669D01*
X006810Y010326D01*
X006810Y009526D01*
X006860Y009376D01*
X006890Y009296D01*
X006890Y009146D01*
X005660Y009279D02*
X005604Y009223D01*
X005660Y009279D02*
X005660Y009526D01*
X005460Y009726D01*
X005210Y009726D01*
X005060Y009726D01*
X004855Y009930D01*
X004855Y010168D01*
D36*
X006890Y009146D02*
X006910Y009146D01*
X007410Y009146D02*
X007410Y009526D01*
X007260Y009926D01*
X007160Y009969D01*
X007260Y009882D01*
X007910Y009712D02*
X007910Y009146D01*
X008410Y009146D02*
X008440Y009146D01*
X008460Y009126D01*
X008430Y009126D01*
X008460Y009126D02*
X008860Y009126D01*
X007910Y009712D02*
X008016Y009906D01*
X010670Y009172D02*
X011073Y009576D01*
X011660Y009576D01*
X011810Y009726D01*
X011430Y009096D02*
X011460Y009066D01*
X011460Y008576D01*
X013460Y009126D02*
X013630Y009296D01*
X014553Y009316D02*
X015106Y009316D01*
X015210Y009319D01*
X017860Y013376D02*
X018510Y013376D01*
X018510Y013814D01*
X018497Y013851D01*
X017867Y013851D02*
X017867Y013383D01*
X017860Y013376D01*
X017966Y014926D02*
X017293Y014896D01*
X017153Y014928D01*
X016476Y015686D01*
X016510Y015799D01*
X016510Y016226D01*
X016565Y016281D01*
X016203Y016642D01*
X016203Y016806D01*
X016183Y016806D01*
X015763Y017286D01*
X014120Y017286D01*
X013460Y016626D01*
X013063Y016626D01*
X013040Y016602D01*
X012966Y016675D01*
X011799Y016675D01*
X016565Y016281D02*
X016660Y016376D01*
X016660Y016526D01*
X016635Y016502D01*
X016635Y016493D01*
X016635Y016650D01*
X017060Y016526D02*
X017860Y016526D01*
X017860Y016326D01*
X017060Y016326D01*
X017060Y016126D01*
X017860Y016126D01*
X017860Y015926D01*
X017060Y015926D01*
X017860Y014932D02*
X017966Y014926D01*
X019860Y015619D02*
X020903Y015619D01*
X020966Y015619D01*
X021650Y015236D01*
X021650Y014376D01*
X021650Y011716D01*
X021416Y011482D01*
X021180Y011482D01*
X021253Y011119D02*
X021650Y011516D01*
X021650Y008866D01*
X021360Y008576D01*
X020890Y008576D01*
X020880Y008536D01*
X021230Y009336D02*
X021253Y009609D01*
X021253Y010026D01*
X021253Y010138D01*
X021253Y010926D02*
X021253Y011119D01*
X021650Y011516D02*
X021650Y011716D01*
X021650Y014376D02*
X020912Y014376D01*
X020851Y014387D01*
X020903Y015619D02*
X021510Y016226D01*
X021510Y017076D01*
X021260Y017326D01*
X020060Y017326D01*
X020010Y017376D01*
X019950Y016672D02*
X020010Y016632D01*
X019950Y016672D01*
X018837Y016672D01*
X018060Y017449D01*
X017969Y017359D02*
X017010Y017359D01*
X018837Y016672D02*
X019050Y016672D01*
X019950Y016672D02*
X020732Y016672D01*
X020791Y016613D01*
D37*
X011260Y017126D03*
D38*
X011260Y017666D03*
X010660Y017666D03*
X010060Y017666D03*
X009460Y017666D03*
X008860Y017666D03*
X009710Y015666D03*
X010310Y015376D03*
X009710Y015066D03*
X009710Y014066D03*
X009710Y013666D03*
X009110Y013066D03*
X009110Y012666D03*
X012360Y012426D03*
X012610Y012776D03*
X012460Y013676D03*
X012460Y014176D03*
X012610Y014676D03*
X012810Y015176D03*
X012260Y015576D03*
X010910Y015426D03*
X013640Y016226D03*
X013860Y017666D03*
X014460Y017666D03*
X015060Y017666D03*
X015660Y017666D03*
X016260Y017666D03*
X017260Y016066D03*
X017660Y016066D03*
X017560Y014376D03*
X016460Y014276D03*
X017560Y013326D03*
X017960Y012926D03*
X018360Y012926D03*
X018760Y012926D03*
X019160Y012926D03*
X018960Y012476D03*
X018510Y012376D03*
X018160Y012076D03*
X018060Y011376D03*
X018410Y011076D03*
X019110Y010926D03*
X019510Y010626D03*
X017060Y009976D03*
X016660Y009976D03*
X016260Y010676D03*
X015710Y011076D03*
X015410Y011376D03*
X015810Y011826D03*
X015720Y012176D03*
X014960Y012876D03*
X014660Y013326D03*
X014610Y013676D03*
X014060Y013676D03*
X014060Y013326D03*
X013960Y014176D03*
X014433Y014549D03*
X015330Y015376D03*
X016860Y011376D03*
X014860Y011026D03*
X021560Y016566D03*
X021560Y017166D03*
X021260Y017666D03*
X020660Y017666D03*
X005760Y010276D03*
X005210Y009726D03*
X004860Y008926D03*
D39*
X018060Y008720D02*
X018060Y008319D01*
X019610Y008026D02*
X020266Y007926D01*
X020880Y008099D02*
X020880Y008536D01*
X020880Y008099D02*
X021053Y007926D01*
D40*
X019160Y015076D02*
X018710Y015076D01*
X015416Y016806D02*
X014921Y016806D01*
X014728Y016613D01*
D41*
X019507Y011424D02*
X019714Y011374D01*
D42*
X016775Y005038D02*
X016775Y004976D01*
X015701Y004976D01*
X013460Y004976D02*
X013460Y002326D01*
X013418Y004976D02*
X013460Y004976D01*
D43*
X016444Y003026D02*
X016554Y003026D01*
X017250Y003308D02*
X018660Y004676D01*
X017250Y003308D02*
X017207Y003268D01*
X017161Y003231D01*
X017113Y003197D01*
X017062Y003165D01*
X017011Y003136D01*
X016957Y003111D01*
X016902Y003089D01*
X016846Y003070D01*
X016789Y003054D01*
X016731Y003042D01*
X016672Y003033D01*
X016613Y003028D01*
X016554Y003026D01*
D44*
X011460Y008576D03*
X013460Y009126D03*
X008860Y009126D03*
X019160Y015076D03*
D45*
X015810Y008326D03*
X018560Y008026D03*
X009310Y009476D03*
X009160Y010426D03*
M02*
