G75*
%MOIN*%
%OFA0B0*%
%FSLAX24Y24*%
%IPPOS*%
%LPD*%
%AMOC8*
5,1,8,0,0,1.08239X$1,22.5*
%
%ADD10C,0.0000*%
%ADD11C,0.0020*%
%ADD12C,0.0030*%
%ADD13C,0.0050*%
%ADD14C,0.0080*%
%ADD15C,0.0060*%
%ADD16C,0.0100*%
%ADD17R,0.0146X0.0002*%
%ADD18R,0.0139X0.0002*%
%ADD19R,0.0146X0.0002*%
%ADD20R,0.0139X0.0002*%
%ADD21R,0.0154X0.0002*%
%ADD22R,0.0154X0.0002*%
%ADD23R,0.0158X0.0002*%
%ADD24R,0.0168X0.0002*%
%ADD25R,0.0158X0.0002*%
%ADD26R,0.0168X0.0002*%
%ADD27R,0.0166X0.0002*%
%ADD28R,0.0166X0.0002*%
%ADD29R,0.0173X0.0002*%
%ADD30R,0.0173X0.0002*%
%ADD31R,0.0180X0.0002*%
%ADD32R,0.0180X0.0002*%
%ADD33R,0.0026X0.0002*%
%ADD34R,0.0026X0.0002*%
%ADD35R,0.0187X0.0002*%
%ADD36R,0.0046X0.0002*%
%ADD37R,0.0048X0.0002*%
%ADD38R,0.0187X0.0002*%
%ADD39R,0.0046X0.0002*%
%ADD40R,0.0048X0.0002*%
%ADD41R,0.0060X0.0002*%
%ADD42R,0.0192X0.0002*%
%ADD43R,0.0192X0.0002*%
%ADD44R,0.0079X0.0002*%
%ADD45R,0.0079X0.0002*%
%ADD46R,0.0228X0.0002*%
%ADD47R,0.0094X0.0002*%
%ADD48R,0.0221X0.0002*%
%ADD49R,0.0228X0.0002*%
%ADD50R,0.0094X0.0002*%
%ADD51R,0.0221X0.0002*%
%ADD52R,0.0259X0.0002*%
%ADD53R,0.0115X0.0002*%
%ADD54R,0.0113X0.0002*%
%ADD55R,0.0266X0.0002*%
%ADD56R,0.0259X0.0002*%
%ADD57R,0.0115X0.0002*%
%ADD58R,0.0113X0.0002*%
%ADD59R,0.0266X0.0002*%
%ADD60R,0.0288X0.0002*%
%ADD61R,0.0125X0.0002*%
%ADD62R,0.0307X0.0002*%
%ADD63R,0.0300X0.0002*%
%ADD64R,0.0307X0.0002*%
%ADD65R,0.0300X0.0002*%
%ADD66R,0.0322X0.0002*%
%ADD67R,0.0161X0.0002*%
%ADD68R,0.0322X0.0002*%
%ADD69R,0.0161X0.0002*%
%ADD70R,0.0334X0.0002*%
%ADD71R,0.0326X0.0002*%
%ADD72R,0.0334X0.0002*%
%ADD73R,0.0326X0.0002*%
%ADD74R,0.0526X0.0002*%
%ADD75R,0.0528X0.0002*%
%ADD76R,0.0526X0.0002*%
%ADD77R,0.0528X0.0002*%
%ADD78R,0.0526X0.0002*%
%ADD79R,0.0533X0.0002*%
%ADD80R,0.0533X0.0002*%
%ADD81R,0.0533X0.0002*%
%ADD82R,0.0533X0.0002*%
%ADD83R,0.0526X0.0002*%
%ADD84R,0.0521X0.0002*%
%ADD85R,0.0518X0.0002*%
%ADD86R,0.0521X0.0002*%
%ADD87R,0.0518X0.0002*%
%ADD88R,0.0514X0.0002*%
%ADD89R,0.0511X0.0002*%
%ADD90R,0.0514X0.0002*%
%ADD91R,0.0511X0.0002*%
%ADD92R,0.0499X0.0002*%
%ADD93R,0.0506X0.0002*%
%ADD94R,0.0499X0.0002*%
%ADD95R,0.0506X0.0002*%
%ADD96R,0.0502X0.0002*%
%ADD97R,0.0502X0.0002*%
%ADD98R,0.0494X0.0002*%
%ADD99R,0.0480X0.0002*%
%ADD100R,0.0480X0.0002*%
%ADD101R,0.0466X0.0002*%
%ADD102R,0.0473X0.0002*%
%ADD103R,0.0466X0.0002*%
%ADD104R,0.0473X0.0002*%
%ADD105R,0.0458X0.0002*%
%ADD106R,0.0451X0.0002*%
%ADD107R,0.0454X0.0002*%
%ADD108R,0.0451X0.0002*%
%ADD109R,0.0454X0.0002*%
%ADD110R,0.0446X0.0002*%
%ADD111R,0.0446X0.0002*%
%ADD112R,0.0439X0.0002*%
%ADD113R,0.0439X0.0002*%
%ADD114R,0.0434X0.0002*%
%ADD115R,0.0427X0.0002*%
%ADD116R,0.0434X0.0002*%
%ADD117R,0.0427X0.0002*%
%ADD118R,0.0413X0.0002*%
%ADD119R,0.0420X0.0002*%
%ADD120R,0.0413X0.0002*%
%ADD121R,0.0420X0.0002*%
%ADD122R,0.0413X0.0002*%
%ADD123R,0.0413X0.0002*%
%ADD124R,0.0022X0.0002*%
%ADD125R,0.0415X0.0002*%
%ADD126R,0.0022X0.0002*%
%ADD127R,0.0415X0.0002*%
%ADD128R,0.0034X0.0002*%
%ADD129R,0.0038X0.0002*%
%ADD130R,0.0060X0.0002*%
%ADD131R,0.0334X0.0002*%
%ADD132R,0.0038X0.0002*%
%ADD133R,0.0334X0.0002*%
%ADD134R,0.0074X0.0002*%
%ADD135R,0.0305X0.0002*%
%ADD136R,0.0072X0.0002*%
%ADD137R,0.0074X0.0002*%
%ADD138R,0.0305X0.0002*%
%ADD139R,0.0072X0.0002*%
%ADD140R,0.0089X0.0002*%
%ADD141R,0.0293X0.0002*%
%ADD142R,0.0298X0.0002*%
%ADD143R,0.0089X0.0002*%
%ADD144R,0.0293X0.0002*%
%ADD145R,0.0298X0.0002*%
%ADD146R,0.0108X0.0002*%
%ADD147R,0.0293X0.0002*%
%ADD148R,0.0286X0.0002*%
%ADD149R,0.0125X0.0002*%
%ADD150R,0.0281X0.0002*%
%ADD151R,0.0286X0.0002*%
%ADD152R,0.0127X0.0002*%
%ADD153R,0.0281X0.0002*%
%ADD154R,0.0127X0.0002*%
%ADD155R,0.0281X0.0002*%
%ADD156R,0.0274X0.0002*%
%ADD157R,0.0281X0.0002*%
%ADD158R,0.0274X0.0002*%
%ADD159R,0.0166X0.0002*%
%ADD160R,0.0166X0.0002*%
%ADD161R,0.0221X0.0002*%
%ADD162R,0.0319X0.0002*%
%ADD163R,0.0226X0.0002*%
%ADD164R,0.0221X0.0002*%
%ADD165R,0.0319X0.0002*%
%ADD166R,0.0226X0.0002*%
%ADD167R,0.0346X0.0002*%
%ADD168R,0.0341X0.0002*%
%ADD169R,0.0278X0.0002*%
%ADD170R,0.0314X0.0002*%
%ADD171R,0.0382X0.0002*%
%ADD172R,0.0372X0.0002*%
%ADD173R,0.0314X0.0002*%
%ADD174R,0.0382X0.0002*%
%ADD175R,0.0372X0.0002*%
%ADD176R,0.0353X0.0002*%
%ADD177R,0.0386X0.0002*%
%ADD178R,0.0379X0.0002*%
%ADD179R,0.0353X0.0002*%
%ADD180R,0.0386X0.0002*%
%ADD181R,0.0379X0.0002*%
%ADD182R,0.0367X0.0002*%
%ADD183R,0.0367X0.0002*%
%ADD184R,0.0374X0.0002*%
%ADD185R,0.0374X0.0002*%
%ADD186R,0.0365X0.0002*%
%ADD187R,0.0360X0.0002*%
%ADD188R,0.0365X0.0002*%
%ADD189R,0.0360X0.0002*%
%ADD190R,0.0374X0.0002*%
%ADD191R,0.0374X0.0002*%
%ADD192R,0.0379X0.0002*%
%ADD193R,0.0379X0.0002*%
%ADD194R,0.0346X0.0002*%
%ADD195R,0.0338X0.0002*%
%ADD196R,0.0338X0.0002*%
%ADD197R,0.0312X0.0002*%
%ADD198R,0.0312X0.0002*%
%ADD199R,0.0295X0.0002*%
%ADD200R,0.0286X0.0002*%
%ADD201R,0.0295X0.0002*%
%ADD202R,0.0286X0.0002*%
%ADD203R,0.0288X0.0002*%
%ADD204R,0.0278X0.0002*%
%ADD205R,0.0307X0.0002*%
%ADD206R,0.0341X0.0002*%
%ADD207R,0.0341X0.0002*%
%ADD208R,0.0701X0.0002*%
%ADD209R,0.0701X0.0002*%
%ADD210R,0.0701X0.0002*%
%ADD211R,0.0701X0.0002*%
%ADD212R,0.0694X0.0002*%
%ADD213R,0.0694X0.0002*%
%ADD214R,0.0686X0.0002*%
%ADD215R,0.0686X0.0002*%
%ADD216R,0.0686X0.0002*%
%ADD217R,0.0686X0.0002*%
%ADD218R,0.0679X0.0002*%
%ADD219R,0.0672X0.0002*%
%ADD220R,0.0679X0.0002*%
%ADD221R,0.0672X0.0002*%
%ADD222R,0.0665X0.0002*%
%ADD223R,0.0665X0.0002*%
%ADD224R,0.0660X0.0002*%
%ADD225R,0.0660X0.0002*%
%ADD226R,0.0667X0.0002*%
%ADD227R,0.0667X0.0002*%
%ADD228R,0.0679X0.0002*%
%ADD229R,0.0679X0.0002*%
%ADD230R,0.0706X0.0002*%
%ADD231R,0.0708X0.0002*%
%ADD232R,0.0706X0.0002*%
%ADD233R,0.0708X0.0002*%
%ADD234R,0.0720X0.0002*%
%ADD235R,0.0713X0.0002*%
%ADD236R,0.0720X0.0002*%
%ADD237R,0.0713X0.0002*%
%ADD238R,0.0718X0.0002*%
%ADD239R,0.0718X0.0002*%
%ADD240R,0.0734X0.0002*%
%ADD241R,0.0732X0.0002*%
%ADD242R,0.0746X0.0002*%
%ADD243R,0.0739X0.0002*%
%ADD244R,0.0746X0.0002*%
%ADD245R,0.0739X0.0002*%
%ADD246R,0.0758X0.0002*%
%ADD247R,0.0761X0.0002*%
%ADD248R,0.0758X0.0002*%
%ADD249R,0.0761X0.0002*%
%ADD250R,0.0773X0.0002*%
%ADD251R,0.0773X0.0002*%
%ADD252R,0.0787X0.0002*%
%ADD253R,0.0785X0.0002*%
%ADD254R,0.0787X0.0002*%
%ADD255R,0.0785X0.0002*%
%ADD256R,0.0799X0.0002*%
%ADD257R,0.0799X0.0002*%
%ADD258R,0.0799X0.0002*%
%ADD259R,0.0799X0.0002*%
%ADD260R,0.0792X0.0002*%
%ADD261R,0.0792X0.0002*%
%ADD262R,0.0780X0.0002*%
%ADD263R,0.0778X0.0002*%
%ADD264R,0.0780X0.0002*%
%ADD265R,0.0778X0.0002*%
%ADD266R,0.0766X0.0002*%
%ADD267R,0.0768X0.0002*%
%ADD268R,0.0766X0.0002*%
%ADD269R,0.0768X0.0002*%
%ADD270R,0.0348X0.0002*%
%ADD271R,0.0175X0.0002*%
%ADD272R,0.0353X0.0002*%
%ADD273R,0.0173X0.0002*%
%ADD274R,0.0348X0.0002*%
%ADD275R,0.0175X0.0002*%
%ADD276R,0.0353X0.0002*%
%ADD277R,0.0173X0.0002*%
%ADD278R,0.0149X0.0002*%
%ADD279R,0.0139X0.0002*%
%ADD280R,0.0149X0.0002*%
%ADD281R,0.0139X0.0002*%
%ADD282R,0.0134X0.0002*%
%ADD283R,0.0252X0.0002*%
%ADD284R,0.0132X0.0002*%
%ADD285R,0.0127X0.0002*%
%ADD286R,0.0134X0.0002*%
%ADD287R,0.0252X0.0002*%
%ADD288R,0.0132X0.0002*%
%ADD289R,0.0127X0.0002*%
%ADD290R,0.0120X0.0002*%
%ADD291R,0.0113X0.0002*%
%ADD292R,0.0120X0.0002*%
%ADD293R,0.0108X0.0002*%
%ADD294R,0.0113X0.0002*%
%ADD295R,0.0098X0.0002*%
%ADD296R,0.0199X0.0002*%
%ADD297R,0.0101X0.0002*%
%ADD298R,0.0199X0.0002*%
%ADD299R,0.0086X0.0002*%
%ADD300R,0.0086X0.0002*%
%ADD301R,0.0185X0.0002*%
%ADD302R,0.0079X0.0002*%
%ADD303R,0.0086X0.0002*%
%ADD304R,0.0086X0.0002*%
%ADD305R,0.0185X0.0002*%
%ADD306R,0.0079X0.0002*%
%ADD307R,0.0067X0.0002*%
%ADD308R,0.0065X0.0002*%
%ADD309R,0.0067X0.0002*%
%ADD310R,0.0065X0.0002*%
%ADD311R,0.0053X0.0002*%
%ADD312R,0.0055X0.0002*%
%ADD313R,0.0053X0.0002*%
%ADD314R,0.0055X0.0002*%
%ADD315R,0.0034X0.0002*%
%ADD316R,0.0019X0.0002*%
%ADD317R,0.0019X0.0002*%
%ADD318R,0.0041X0.0002*%
%ADD319R,0.0041X0.0002*%
%ADD320R,0.0074X0.0002*%
%ADD321R,0.0074X0.0002*%
%ADD322R,0.0098X0.0002*%
%ADD323R,0.0206X0.0002*%
%ADD324R,0.0101X0.0002*%
%ADD325R,0.0108X0.0002*%
%ADD326R,0.0206X0.0002*%
%ADD327R,0.0108X0.0002*%
%ADD328R,0.0240X0.0002*%
%ADD329R,0.0240X0.0002*%
%ADD330R,0.0274X0.0002*%
%ADD331R,0.0274X0.0002*%
%ADD332R,0.0562X0.0002*%
%ADD333R,0.0562X0.0002*%
%ADD334R,0.0754X0.0002*%
%ADD335R,0.0754X0.0002*%
%ADD336R,0.0727X0.0002*%
%ADD337R,0.0725X0.0002*%
%ADD338R,0.0727X0.0002*%
%ADD339R,0.0725X0.0002*%
%ADD340R,0.0307X0.0002*%
%ADD341R,0.0338X0.0002*%
%ADD342R,0.0338X0.0002*%
%ADD343R,0.0372X0.0002*%
%ADD344R,0.0372X0.0002*%
%ADD345R,0.0341X0.0002*%
%ADD346R,0.0199X0.0002*%
%ADD347R,0.0161X0.0002*%
%ADD348R,0.0161X0.0002*%
%ADD349R,0.0101X0.0002*%
%ADD350R,0.0101X0.0002*%
%ADD351R,0.0319X0.0002*%
%ADD352R,0.0319X0.0002*%
%ADD353R,0.0408X0.0002*%
%ADD354R,0.0408X0.0002*%
%ADD355R,0.0432X0.0002*%
%ADD356R,0.0432X0.0002*%
%ADD357R,0.0473X0.0002*%
%ADD358R,0.0473X0.0002*%
%ADD359R,0.0487X0.0002*%
%ADD360R,0.0487X0.0002*%
%ADD361R,0.0492X0.0002*%
%ADD362R,0.0494X0.0002*%
%ADD363R,0.0492X0.0002*%
%ADD364R,0.0521X0.0002*%
%ADD365R,0.0521X0.0002*%
%ADD366R,0.0329X0.0002*%
%ADD367R,0.0329X0.0002*%
%ADD368R,0.0154X0.0002*%
%ADD369R,0.0154X0.0002*%
%ADD370R,0.0199X0.0002*%
%ADD371R,0.0031X0.0002*%
%ADD372R,0.0041X0.0002*%
%ADD373R,0.0031X0.0002*%
%ADD374R,0.0041X0.0002*%
D10*
X003485Y000850D02*
X003485Y017220D01*
X003487Y017274D01*
X003493Y017327D01*
X003502Y017379D01*
X003515Y017431D01*
X003532Y017482D01*
X003553Y017532D01*
X003577Y017579D01*
X003604Y017625D01*
X003635Y017669D01*
X003668Y017711D01*
X003705Y017750D01*
X003744Y017787D01*
X003786Y017820D01*
X003830Y017851D01*
X003876Y017878D01*
X003923Y017902D01*
X003973Y017923D01*
X004024Y017940D01*
X004076Y017953D01*
X004128Y017962D01*
X004181Y017968D01*
X004235Y017970D01*
X020227Y017970D01*
X020276Y017976D01*
X020325Y017978D01*
X020374Y017976D01*
X020423Y017971D01*
X020471Y017962D01*
X020519Y017949D01*
X020566Y017933D01*
X020611Y017914D01*
X020654Y017891D01*
X020696Y017865D01*
X020736Y017836D01*
X020773Y017804D01*
X020808Y017769D01*
X020840Y017732D01*
X020870Y017692D01*
X020896Y017651D01*
X020919Y017607D01*
X020939Y017562D01*
X020955Y017516D01*
X020968Y017468D01*
X020977Y017420D01*
X020977Y000850D01*
X020975Y000796D01*
X020969Y000743D01*
X020960Y000691D01*
X020947Y000639D01*
X020930Y000588D01*
X020909Y000538D01*
X020885Y000491D01*
X020858Y000445D01*
X020827Y000401D01*
X020794Y000359D01*
X020757Y000320D01*
X020718Y000283D01*
X020676Y000250D01*
X020632Y000219D01*
X020586Y000192D01*
X020539Y000168D01*
X020489Y000147D01*
X020438Y000130D01*
X020386Y000117D01*
X020334Y000108D01*
X020281Y000102D01*
X020227Y000100D01*
X004235Y000100D01*
X004181Y000102D01*
X004128Y000108D01*
X004076Y000117D01*
X004024Y000130D01*
X003973Y000147D01*
X003923Y000168D01*
X003876Y000192D01*
X003830Y000219D01*
X003786Y000250D01*
X003744Y000283D01*
X003705Y000320D01*
X003668Y000359D01*
X003635Y000401D01*
X003604Y000445D01*
X003577Y000491D01*
X003553Y000538D01*
X003532Y000588D01*
X003515Y000639D01*
X003502Y000691D01*
X003493Y000743D01*
X003487Y000796D01*
X003485Y000850D01*
D11*
X004016Y013177D02*
X004016Y013397D01*
X004126Y013397D01*
X004163Y013360D01*
X004163Y013287D01*
X004126Y013250D01*
X004016Y013250D01*
X003942Y013287D02*
X003942Y013433D01*
X003905Y013470D01*
X003832Y013470D01*
X003795Y013433D01*
X003795Y013287D01*
X003832Y013250D01*
X003905Y013250D01*
X003942Y013287D01*
X004237Y013287D02*
X004237Y013360D01*
X004274Y013397D01*
X004347Y013397D01*
X004384Y013360D01*
X004384Y013323D01*
X004237Y013323D01*
X004237Y013287D02*
X004274Y013250D01*
X004347Y013250D01*
X004458Y013250D02*
X004458Y013397D01*
X004568Y013397D01*
X004605Y013360D01*
X004605Y013250D01*
X004679Y013250D02*
X004679Y013470D01*
X004679Y013360D02*
X004826Y013360D01*
X004900Y013287D02*
X004936Y013323D01*
X005047Y013323D01*
X005047Y013360D02*
X005047Y013250D01*
X004936Y013250D01*
X004900Y013287D01*
X004826Y013250D02*
X004826Y013470D01*
X004936Y013397D02*
X005010Y013397D01*
X005047Y013360D01*
X005121Y013323D02*
X005194Y013397D01*
X005231Y013397D01*
X005305Y013360D02*
X005342Y013397D01*
X005452Y013397D01*
X005452Y013470D02*
X005452Y013250D01*
X005342Y013250D01*
X005305Y013287D01*
X005305Y013360D01*
X005121Y013397D02*
X005121Y013250D01*
X005526Y013287D02*
X005563Y013250D01*
X005599Y013287D01*
X005636Y013250D01*
X005673Y013287D01*
X005673Y013397D01*
X005784Y013397D02*
X005857Y013397D01*
X005894Y013360D01*
X005894Y013250D01*
X005784Y013250D01*
X005747Y013287D01*
X005784Y013323D01*
X005894Y013323D01*
X005968Y013323D02*
X006041Y013397D01*
X006078Y013397D01*
X006152Y013360D02*
X006189Y013397D01*
X006262Y013397D01*
X006299Y013360D01*
X006299Y013323D01*
X006152Y013323D01*
X006152Y013287D02*
X006152Y013360D01*
X006152Y013287D02*
X006189Y013250D01*
X006262Y013250D01*
X006373Y013250D02*
X006410Y013250D01*
X006410Y013287D01*
X006373Y013287D01*
X006373Y013250D01*
X006484Y013250D02*
X006557Y013250D01*
X006520Y013250D02*
X006520Y013397D01*
X006484Y013397D01*
X006520Y013470D02*
X006520Y013507D01*
X006631Y013360D02*
X006631Y013287D01*
X006668Y013250D01*
X006741Y013250D01*
X006778Y013287D01*
X006778Y013360D01*
X006741Y013397D01*
X006668Y013397D01*
X006631Y013360D01*
X005968Y013397D02*
X005968Y013250D01*
X005526Y013287D02*
X005526Y013397D01*
X005489Y016850D02*
X005342Y016850D01*
X005489Y016997D01*
X005342Y016997D01*
X005231Y017070D02*
X005231Y016850D01*
X005194Y016850D02*
X005268Y016850D01*
X005120Y016850D02*
X005010Y016850D01*
X004973Y016887D01*
X005010Y016923D01*
X005120Y016923D01*
X005120Y016960D02*
X005120Y016850D01*
X005120Y016960D02*
X005084Y016997D01*
X005010Y016997D01*
X004899Y016997D02*
X004789Y016997D01*
X004752Y016960D01*
X004752Y016887D01*
X004789Y016850D01*
X004899Y016850D01*
X004678Y016887D02*
X004642Y016850D01*
X004568Y016850D01*
X004531Y016887D01*
X004568Y016960D02*
X004642Y016960D01*
X004678Y016923D01*
X004678Y016887D01*
X004568Y016960D02*
X004531Y016997D01*
X004531Y017033D01*
X004568Y017070D01*
X004642Y017070D01*
X004678Y017033D01*
X004642Y017210D02*
X004568Y017210D01*
X004531Y017247D01*
X004531Y017320D01*
X004568Y017357D01*
X004642Y017357D01*
X004678Y017320D01*
X004678Y017283D01*
X004531Y017283D01*
X004458Y017210D02*
X004384Y017210D01*
X004421Y017210D02*
X004421Y017430D01*
X004384Y017430D01*
X004274Y017430D02*
X004274Y017210D01*
X004310Y017210D02*
X004237Y017210D01*
X004163Y017247D02*
X004126Y017210D01*
X004053Y017210D01*
X004016Y017247D01*
X004016Y017320D01*
X004053Y017357D01*
X004126Y017357D01*
X004163Y017320D01*
X004163Y017247D01*
X004163Y017070D02*
X004237Y016997D01*
X004237Y016923D01*
X004163Y016850D01*
X004089Y016850D02*
X003979Y016850D01*
X003942Y016887D01*
X003942Y016960D01*
X003979Y016997D01*
X004089Y016997D01*
X003868Y017070D02*
X003795Y016997D01*
X003795Y016923D01*
X003868Y016850D01*
X003795Y017210D02*
X003795Y017430D01*
X003905Y017430D01*
X003942Y017393D01*
X003942Y017320D01*
X003905Y017283D01*
X003795Y017283D01*
X003868Y017283D02*
X003942Y017210D01*
X004237Y017430D02*
X004274Y017430D01*
X004752Y017357D02*
X004752Y017210D01*
X004752Y017283D02*
X004826Y017357D01*
X004863Y017357D01*
X004937Y017320D02*
X004973Y017357D01*
X005083Y017357D01*
X005158Y017357D02*
X005194Y017320D01*
X005268Y017320D01*
X005304Y017283D01*
X005304Y017247D01*
X005268Y017210D01*
X005194Y017210D01*
X005158Y017247D01*
X005083Y017247D02*
X005047Y017283D01*
X004973Y017283D01*
X004937Y017320D01*
X004937Y017210D02*
X005047Y017210D01*
X005083Y017247D01*
X005158Y017357D02*
X005158Y017393D01*
X005194Y017430D01*
X005268Y017430D01*
X005304Y017393D01*
X005379Y017430D02*
X005379Y017210D01*
X005379Y017320D02*
X005415Y017357D01*
X005489Y017357D01*
X005525Y017320D01*
X005525Y017210D01*
X005600Y017247D02*
X005636Y017210D01*
X005746Y017210D01*
X005746Y017357D01*
X005821Y017357D02*
X005894Y017357D01*
X005857Y017393D02*
X005857Y017247D01*
X005894Y017210D01*
X006005Y017247D02*
X006041Y017210D01*
X006005Y017247D02*
X006005Y017393D01*
X006041Y017357D02*
X005968Y017357D01*
X006115Y017320D02*
X006152Y017357D01*
X006225Y017357D01*
X006262Y017320D01*
X006262Y017283D01*
X006115Y017283D01*
X006115Y017247D02*
X006115Y017320D01*
X006115Y017247D02*
X006152Y017210D01*
X006225Y017210D01*
X006336Y017210D02*
X006336Y017357D01*
X006336Y017283D02*
X006410Y017357D01*
X006446Y017357D01*
X006520Y017430D02*
X006667Y017210D01*
X006667Y017430D01*
X006741Y017320D02*
X006741Y017247D01*
X006778Y017210D01*
X006851Y017210D01*
X006888Y017247D01*
X006888Y017320D01*
X006851Y017357D01*
X006778Y017357D01*
X006741Y017320D01*
X006962Y017320D02*
X006999Y017357D01*
X007109Y017357D01*
X007109Y017430D02*
X007109Y017210D01*
X006999Y017210D01*
X006962Y017247D01*
X006962Y017320D01*
X007183Y017320D02*
X007220Y017357D01*
X007293Y017357D01*
X007330Y017320D01*
X007330Y017283D01*
X007183Y017283D01*
X007183Y017247D02*
X007183Y017320D01*
X007183Y017247D02*
X007220Y017210D01*
X007293Y017210D01*
X007625Y017210D02*
X007625Y017357D01*
X007625Y017283D02*
X007699Y017357D01*
X007735Y017357D01*
X007809Y017357D02*
X007883Y017430D01*
X007883Y017210D01*
X007956Y017210D02*
X007809Y017210D01*
X008030Y017210D02*
X008030Y017247D01*
X008067Y017247D01*
X008067Y017210D01*
X008030Y017210D01*
X008141Y017247D02*
X008178Y017210D01*
X008251Y017210D01*
X008288Y017247D01*
X008288Y017283D01*
X008251Y017320D01*
X008214Y017320D01*
X008251Y017320D02*
X008288Y017357D01*
X008288Y017393D01*
X008251Y017430D01*
X008178Y017430D01*
X008141Y017393D01*
X008399Y017357D02*
X008472Y017357D01*
X008509Y017320D01*
X008509Y017210D01*
X008399Y017210D01*
X008362Y017247D01*
X008399Y017283D01*
X008509Y017283D01*
X006593Y017070D02*
X006520Y017033D01*
X006447Y016960D01*
X006557Y016960D01*
X006593Y016923D01*
X006593Y016887D01*
X006557Y016850D01*
X006483Y016850D01*
X006447Y016887D01*
X006447Y016960D01*
X006372Y016850D02*
X006226Y016850D01*
X006299Y016850D02*
X006299Y017070D01*
X006226Y016997D01*
X006152Y017033D02*
X006005Y016887D01*
X006041Y016850D01*
X006115Y016850D01*
X006152Y016887D01*
X006152Y017033D01*
X006115Y017070D01*
X006041Y017070D01*
X006005Y017033D01*
X006005Y016887D01*
X005931Y016850D02*
X005784Y016850D01*
X005931Y016997D01*
X005931Y017033D01*
X005894Y017070D01*
X005820Y017070D01*
X005784Y017033D01*
X005600Y017247D02*
X005600Y017357D01*
X005231Y017070D02*
X005194Y017070D01*
X006520Y017210D02*
X006520Y017430D01*
D12*
X007170Y016396D02*
X007170Y016299D01*
X007170Y016347D02*
X007460Y016347D01*
X007460Y016299D02*
X007460Y016396D01*
X007411Y016198D02*
X007218Y016198D01*
X007170Y016149D01*
X007170Y016004D01*
X007460Y016004D01*
X007460Y016149D01*
X007411Y016198D01*
X007170Y015903D02*
X007170Y015710D01*
X007170Y015806D02*
X007460Y015806D01*
X007315Y015512D02*
X007315Y015415D01*
X007460Y015415D02*
X007170Y015415D01*
X007170Y015608D01*
X007170Y014785D02*
X007170Y014688D01*
X007170Y014737D02*
X007460Y014737D01*
X007460Y014785D02*
X007460Y014688D01*
X007315Y014587D02*
X007218Y014587D01*
X007170Y014539D01*
X007170Y014394D01*
X007460Y014394D01*
X007363Y014394D02*
X007363Y014539D01*
X007315Y014587D01*
X007363Y014292D02*
X007411Y014292D01*
X007460Y014244D01*
X007460Y014147D01*
X007411Y014099D01*
X007315Y014147D02*
X007315Y014244D01*
X007363Y014292D01*
X007218Y014292D02*
X007170Y014244D01*
X007170Y014147D01*
X007218Y014099D01*
X007266Y014099D01*
X007315Y014147D01*
X007315Y013998D02*
X007363Y013949D01*
X007363Y013804D01*
X007460Y013804D02*
X007170Y013804D01*
X007170Y013949D01*
X007218Y013998D01*
X007315Y013998D01*
X007363Y013901D02*
X007460Y013998D01*
X007363Y013703D02*
X007170Y013703D01*
X007363Y013703D02*
X007460Y013606D01*
X007363Y013510D01*
X007170Y013510D01*
X007266Y013408D02*
X007460Y013408D01*
X007315Y013408D02*
X007315Y013215D01*
X007266Y013215D02*
X007460Y013215D01*
X007266Y013215D02*
X007170Y013312D01*
X007266Y013408D01*
X007266Y012135D02*
X007169Y012135D01*
X007121Y012087D01*
X007021Y012135D02*
X006924Y012135D01*
X006972Y012135D02*
X006972Y011845D01*
X006924Y011845D02*
X007021Y011845D01*
X007121Y011845D02*
X007314Y012038D01*
X007314Y012087D01*
X007266Y012135D01*
X007415Y012087D02*
X007415Y011893D01*
X007464Y011845D01*
X007560Y011845D01*
X007609Y011893D01*
X007609Y012087D02*
X007560Y012135D01*
X007464Y012135D01*
X007415Y012087D01*
X007314Y011845D02*
X007121Y011845D01*
X006823Y012135D02*
X006629Y011845D01*
X006528Y011893D02*
X006480Y011845D01*
X006383Y011845D01*
X006335Y011893D01*
X006383Y011990D02*
X006335Y012038D01*
X006335Y012087D01*
X006383Y012135D01*
X006480Y012135D01*
X006528Y012087D01*
X006480Y011990D02*
X006528Y011942D01*
X006528Y011893D01*
X006480Y011990D02*
X006383Y011990D01*
X006234Y011845D02*
X006234Y012135D01*
X006040Y012135D02*
X006040Y011845D01*
X005939Y011893D02*
X005939Y012087D01*
X005891Y012135D01*
X005794Y012135D01*
X005745Y012087D01*
X005745Y011893D01*
X005794Y011845D01*
X005891Y011845D01*
X005939Y011893D01*
X006040Y012135D02*
X006234Y011845D01*
X005644Y012135D02*
X005451Y012135D01*
X005548Y012135D02*
X005548Y011845D01*
X005253Y011845D02*
X005253Y012135D01*
X005156Y012135D02*
X005350Y012135D01*
X005055Y012135D02*
X005055Y011893D01*
X005007Y011845D01*
X004910Y011845D01*
X004862Y011893D01*
X004862Y012135D01*
X004760Y012087D02*
X004760Y012038D01*
X004712Y011990D01*
X004567Y011990D01*
X004567Y011845D02*
X004567Y012135D01*
X004712Y012135D01*
X004760Y012087D01*
X004712Y011990D02*
X004760Y011942D01*
X004760Y011893D01*
X004712Y011845D01*
X004567Y011845D01*
X005336Y008245D02*
X005481Y008245D01*
X005529Y008197D01*
X005529Y008100D01*
X005481Y008052D01*
X005336Y008052D01*
X005433Y008052D02*
X005529Y007955D01*
X005631Y007955D02*
X005824Y007955D01*
X005925Y007955D02*
X006119Y008148D01*
X006119Y008197D01*
X006070Y008245D01*
X005974Y008245D01*
X005925Y008197D01*
X005925Y007955D02*
X006119Y007955D01*
X005631Y007955D02*
X005631Y008245D01*
X005336Y008245D02*
X005336Y007955D01*
X010096Y007925D02*
X010096Y008215D01*
X010241Y008215D01*
X010289Y008167D01*
X010289Y008070D01*
X010241Y008022D01*
X010096Y008022D01*
X010193Y008022D02*
X010289Y007925D01*
X010391Y007925D02*
X010391Y008215D01*
X010391Y007925D02*
X010584Y007925D01*
X010685Y007925D02*
X010879Y007925D01*
X010782Y007925D02*
X010782Y008215D01*
X010685Y008118D01*
X009814Y012034D02*
X009620Y012034D01*
X009814Y012227D01*
X009814Y012276D01*
X009765Y012324D01*
X009669Y012324D01*
X009620Y012276D01*
X009519Y012276D02*
X009519Y012179D01*
X009471Y012131D01*
X009326Y012131D01*
X009326Y012034D02*
X009326Y012324D01*
X009471Y012324D01*
X009519Y012276D01*
X009224Y012324D02*
X009128Y012324D01*
X009176Y012324D02*
X009176Y012082D01*
X009128Y012034D01*
X009079Y012034D01*
X009031Y012082D01*
X009098Y013715D02*
X009147Y013715D01*
X009195Y013763D01*
X009195Y014005D01*
X009147Y014005D02*
X009243Y014005D01*
X009344Y014005D02*
X009490Y014005D01*
X009538Y013957D01*
X009538Y013860D01*
X009490Y013812D01*
X009344Y013812D01*
X009344Y013715D02*
X009344Y014005D01*
X009639Y014005D02*
X009639Y013860D01*
X009736Y013908D01*
X009784Y013908D01*
X009833Y013860D01*
X009833Y013763D01*
X009784Y013715D01*
X009688Y013715D01*
X009639Y013763D01*
X009639Y014005D02*
X009833Y014005D01*
X009098Y013715D02*
X009050Y013763D01*
X009048Y015565D02*
X009097Y015565D01*
X009145Y015613D01*
X009145Y015855D01*
X009097Y015855D02*
X009193Y015855D01*
X009294Y015855D02*
X009440Y015855D01*
X009488Y015807D01*
X009488Y015710D01*
X009440Y015662D01*
X009294Y015662D01*
X009294Y015565D02*
X009294Y015855D01*
X009589Y015710D02*
X009734Y015710D01*
X009783Y015662D01*
X009783Y015613D01*
X009734Y015565D01*
X009638Y015565D01*
X009589Y015613D01*
X009589Y015710D01*
X009686Y015807D01*
X009783Y015855D01*
X009048Y015565D02*
X009000Y015613D01*
X011764Y012285D02*
X011861Y012285D01*
X011812Y012285D02*
X011812Y011995D01*
X011764Y011995D02*
X011861Y011995D01*
X011961Y012043D02*
X012009Y011995D01*
X012106Y011995D01*
X012154Y012043D01*
X012255Y012043D02*
X012255Y012092D01*
X012304Y012140D01*
X012400Y012140D01*
X012449Y012092D01*
X012449Y012043D01*
X012400Y011995D01*
X012304Y011995D01*
X012255Y012043D01*
X012304Y012140D02*
X012255Y012188D01*
X012255Y012237D01*
X012304Y012285D01*
X012400Y012285D01*
X012449Y012237D01*
X012449Y012188D01*
X012400Y012140D01*
X012154Y012237D02*
X012106Y012285D01*
X012009Y012285D01*
X011961Y012237D01*
X011961Y012043D01*
X015878Y007042D02*
X015878Y006752D01*
X015878Y006897D02*
X016072Y006897D01*
X016072Y007042D02*
X016072Y006752D01*
X016173Y006752D02*
X016270Y006752D01*
X016221Y006752D02*
X016221Y007042D01*
X016173Y007042D02*
X016270Y007042D01*
X016369Y007042D02*
X016369Y006752D01*
X016563Y006752D01*
X016664Y006752D02*
X016761Y006752D01*
X016712Y006752D02*
X016712Y007042D01*
X016664Y007042D02*
X016761Y007042D01*
X016861Y007042D02*
X017054Y006752D01*
X017054Y007042D01*
X017155Y007042D02*
X017155Y006752D01*
X017155Y006849D02*
X017349Y007042D01*
X017204Y006897D02*
X017349Y006752D01*
X016861Y006752D02*
X016861Y007042D01*
X013691Y002515D02*
X013691Y002225D01*
X013594Y002225D02*
X013788Y002225D01*
X013594Y002418D02*
X013691Y002515D01*
X013493Y002515D02*
X013493Y002322D01*
X013397Y002225D01*
X013300Y002322D01*
X013300Y002515D01*
X013280Y000605D02*
X013473Y000605D01*
X013574Y000508D02*
X013671Y000605D01*
X013671Y000315D01*
X013574Y000315D02*
X013768Y000315D01*
X013377Y000460D02*
X013280Y000460D01*
X013280Y000315D02*
X013280Y000605D01*
D13*
X012859Y000263D02*
X016151Y000263D01*
X016155Y000260D02*
X016155Y001840D01*
X016151Y001837D02*
X012859Y001837D01*
X012855Y001830D02*
X012855Y000260D01*
X012585Y000250D02*
X008485Y000250D01*
X008485Y003450D01*
X012585Y003450D01*
X012585Y000250D01*
X012485Y000850D02*
X008585Y000850D01*
X008585Y002850D01*
X012485Y002850D01*
X012485Y000850D01*
X010634Y001850D02*
X010636Y001910D01*
X010642Y001969D01*
X010652Y002028D01*
X010665Y002086D01*
X010683Y002143D01*
X010704Y002198D01*
X010729Y002252D01*
X010757Y002305D01*
X010789Y002355D01*
X010824Y002403D01*
X010862Y002449D01*
X010903Y002492D01*
X010947Y002533D01*
X010993Y002570D01*
X011042Y002604D01*
X011093Y002635D01*
X011146Y002663D01*
X011201Y002687D01*
X011257Y002707D01*
X011314Y002723D01*
X011372Y002736D01*
X011431Y002745D01*
X011490Y002750D01*
X011550Y002751D01*
X011609Y002748D01*
X011669Y002741D01*
X011727Y002730D01*
X011785Y002716D01*
X011842Y002697D01*
X011897Y002675D01*
X011951Y002649D01*
X012003Y002620D01*
X012052Y002588D01*
X012100Y002552D01*
X012145Y002513D01*
X012188Y002471D01*
X012227Y002427D01*
X012264Y002380D01*
X012297Y002330D01*
X012327Y002279D01*
X012354Y002226D01*
X012377Y002171D01*
X012396Y002114D01*
X012412Y002057D01*
X012424Y001998D01*
X012432Y001939D01*
X012436Y001880D01*
X012436Y001820D01*
X012432Y001761D01*
X012424Y001702D01*
X012412Y001643D01*
X012396Y001586D01*
X012377Y001529D01*
X012354Y001474D01*
X012327Y001421D01*
X012297Y001370D01*
X012264Y001320D01*
X012227Y001273D01*
X012188Y001229D01*
X012145Y001187D01*
X012100Y001148D01*
X012052Y001112D01*
X012003Y001080D01*
X011951Y001051D01*
X011897Y001025D01*
X011842Y001003D01*
X011785Y000984D01*
X011727Y000970D01*
X011669Y000959D01*
X011609Y000952D01*
X011550Y000949D01*
X011490Y000950D01*
X011431Y000955D01*
X011372Y000964D01*
X011314Y000977D01*
X011257Y000993D01*
X011201Y001013D01*
X011146Y001037D01*
X011093Y001065D01*
X011042Y001096D01*
X010993Y001130D01*
X010947Y001167D01*
X010903Y001208D01*
X010862Y001251D01*
X010824Y001297D01*
X010789Y001345D01*
X010757Y001395D01*
X010729Y001448D01*
X010704Y001502D01*
X010683Y001557D01*
X010665Y001614D01*
X010652Y001672D01*
X010642Y001731D01*
X010636Y001790D01*
X010634Y001850D01*
X008634Y001850D02*
X008636Y001910D01*
X008642Y001969D01*
X008652Y002028D01*
X008665Y002086D01*
X008683Y002143D01*
X008704Y002198D01*
X008729Y002252D01*
X008757Y002305D01*
X008789Y002355D01*
X008824Y002403D01*
X008862Y002449D01*
X008903Y002492D01*
X008947Y002533D01*
X008993Y002570D01*
X009042Y002604D01*
X009093Y002635D01*
X009146Y002663D01*
X009201Y002687D01*
X009257Y002707D01*
X009314Y002723D01*
X009372Y002736D01*
X009431Y002745D01*
X009490Y002750D01*
X009550Y002751D01*
X009609Y002748D01*
X009669Y002741D01*
X009727Y002730D01*
X009785Y002716D01*
X009842Y002697D01*
X009897Y002675D01*
X009951Y002649D01*
X010003Y002620D01*
X010052Y002588D01*
X010100Y002552D01*
X010145Y002513D01*
X010188Y002471D01*
X010227Y002427D01*
X010264Y002380D01*
X010297Y002330D01*
X010327Y002279D01*
X010354Y002226D01*
X010377Y002171D01*
X010396Y002114D01*
X010412Y002057D01*
X010424Y001998D01*
X010432Y001939D01*
X010436Y001880D01*
X010436Y001820D01*
X010432Y001761D01*
X010424Y001702D01*
X010412Y001643D01*
X010396Y001586D01*
X010377Y001529D01*
X010354Y001474D01*
X010327Y001421D01*
X010297Y001370D01*
X010264Y001320D01*
X010227Y001273D01*
X010188Y001229D01*
X010145Y001187D01*
X010100Y001148D01*
X010052Y001112D01*
X010003Y001080D01*
X009951Y001051D01*
X009897Y001025D01*
X009842Y001003D01*
X009785Y000984D01*
X009727Y000970D01*
X009669Y000959D01*
X009609Y000952D01*
X009550Y000949D01*
X009490Y000950D01*
X009431Y000955D01*
X009372Y000964D01*
X009314Y000977D01*
X009257Y000993D01*
X009201Y001013D01*
X009146Y001037D01*
X009093Y001065D01*
X009042Y001096D01*
X008993Y001130D01*
X008947Y001167D01*
X008903Y001208D01*
X008862Y001251D01*
X008824Y001297D01*
X008789Y001345D01*
X008757Y001395D01*
X008729Y001448D01*
X008704Y001502D01*
X008683Y001557D01*
X008665Y001614D01*
X008652Y001672D01*
X008642Y001731D01*
X008636Y001790D01*
X008634Y001850D01*
X007835Y000850D02*
X003935Y000850D01*
X003935Y002850D01*
X007835Y002850D01*
X007835Y000850D01*
X007935Y000250D02*
X003835Y000250D01*
X003835Y003450D01*
X007935Y003450D01*
X007935Y000250D01*
X005984Y001850D02*
X005986Y001910D01*
X005992Y001969D01*
X006002Y002028D01*
X006015Y002086D01*
X006033Y002143D01*
X006054Y002198D01*
X006079Y002252D01*
X006107Y002305D01*
X006139Y002355D01*
X006174Y002403D01*
X006212Y002449D01*
X006253Y002492D01*
X006297Y002533D01*
X006343Y002570D01*
X006392Y002604D01*
X006443Y002635D01*
X006496Y002663D01*
X006551Y002687D01*
X006607Y002707D01*
X006664Y002723D01*
X006722Y002736D01*
X006781Y002745D01*
X006840Y002750D01*
X006900Y002751D01*
X006959Y002748D01*
X007019Y002741D01*
X007077Y002730D01*
X007135Y002716D01*
X007192Y002697D01*
X007247Y002675D01*
X007301Y002649D01*
X007353Y002620D01*
X007402Y002588D01*
X007450Y002552D01*
X007495Y002513D01*
X007538Y002471D01*
X007577Y002427D01*
X007614Y002380D01*
X007647Y002330D01*
X007677Y002279D01*
X007704Y002226D01*
X007727Y002171D01*
X007746Y002114D01*
X007762Y002057D01*
X007774Y001998D01*
X007782Y001939D01*
X007786Y001880D01*
X007786Y001820D01*
X007782Y001761D01*
X007774Y001702D01*
X007762Y001643D01*
X007746Y001586D01*
X007727Y001529D01*
X007704Y001474D01*
X007677Y001421D01*
X007647Y001370D01*
X007614Y001320D01*
X007577Y001273D01*
X007538Y001229D01*
X007495Y001187D01*
X007450Y001148D01*
X007402Y001112D01*
X007353Y001080D01*
X007301Y001051D01*
X007247Y001025D01*
X007192Y001003D01*
X007135Y000984D01*
X007077Y000970D01*
X007019Y000959D01*
X006959Y000952D01*
X006900Y000949D01*
X006840Y000950D01*
X006781Y000955D01*
X006722Y000964D01*
X006664Y000977D01*
X006607Y000993D01*
X006551Y001013D01*
X006496Y001037D01*
X006443Y001065D01*
X006392Y001096D01*
X006343Y001130D01*
X006297Y001167D01*
X006253Y001208D01*
X006212Y001251D01*
X006174Y001297D01*
X006139Y001345D01*
X006107Y001395D01*
X006079Y001448D01*
X006054Y001502D01*
X006033Y001557D01*
X006015Y001614D01*
X006002Y001672D01*
X005992Y001731D01*
X005986Y001790D01*
X005984Y001850D01*
X003984Y001850D02*
X003986Y001910D01*
X003992Y001969D01*
X004002Y002028D01*
X004015Y002086D01*
X004033Y002143D01*
X004054Y002198D01*
X004079Y002252D01*
X004107Y002305D01*
X004139Y002355D01*
X004174Y002403D01*
X004212Y002449D01*
X004253Y002492D01*
X004297Y002533D01*
X004343Y002570D01*
X004392Y002604D01*
X004443Y002635D01*
X004496Y002663D01*
X004551Y002687D01*
X004607Y002707D01*
X004664Y002723D01*
X004722Y002736D01*
X004781Y002745D01*
X004840Y002750D01*
X004900Y002751D01*
X004959Y002748D01*
X005019Y002741D01*
X005077Y002730D01*
X005135Y002716D01*
X005192Y002697D01*
X005247Y002675D01*
X005301Y002649D01*
X005353Y002620D01*
X005402Y002588D01*
X005450Y002552D01*
X005495Y002513D01*
X005538Y002471D01*
X005577Y002427D01*
X005614Y002380D01*
X005647Y002330D01*
X005677Y002279D01*
X005704Y002226D01*
X005727Y002171D01*
X005746Y002114D01*
X005762Y002057D01*
X005774Y001998D01*
X005782Y001939D01*
X005786Y001880D01*
X005786Y001820D01*
X005782Y001761D01*
X005774Y001702D01*
X005762Y001643D01*
X005746Y001586D01*
X005727Y001529D01*
X005704Y001474D01*
X005677Y001421D01*
X005647Y001370D01*
X005614Y001320D01*
X005577Y001273D01*
X005538Y001229D01*
X005495Y001187D01*
X005450Y001148D01*
X005402Y001112D01*
X005353Y001080D01*
X005301Y001051D01*
X005247Y001025D01*
X005192Y001003D01*
X005135Y000984D01*
X005077Y000970D01*
X005019Y000959D01*
X004959Y000952D01*
X004900Y000949D01*
X004840Y000950D01*
X004781Y000955D01*
X004722Y000964D01*
X004664Y000977D01*
X004607Y000993D01*
X004551Y001013D01*
X004496Y001037D01*
X004443Y001065D01*
X004392Y001096D01*
X004343Y001130D01*
X004297Y001167D01*
X004253Y001208D01*
X004212Y001251D01*
X004174Y001297D01*
X004139Y001345D01*
X004107Y001395D01*
X004079Y001448D01*
X004054Y001502D01*
X004033Y001557D01*
X004015Y001614D01*
X004002Y001672D01*
X003992Y001731D01*
X003986Y001790D01*
X003984Y001850D01*
X012705Y002190D02*
X012705Y003820D01*
X012713Y003827D02*
X016256Y003827D01*
X016265Y003810D02*
X016265Y002180D01*
X016256Y002173D02*
X012713Y002173D01*
X012808Y004107D02*
X012808Y017493D01*
X020761Y017493D01*
X020761Y004107D01*
X012808Y004107D01*
X016285Y005300D02*
X017285Y005300D01*
X016585Y003500D02*
X020685Y003500D01*
X020685Y000300D01*
X016585Y000300D01*
X016585Y003500D01*
X016685Y002900D02*
X020585Y002900D01*
X020585Y000900D01*
X016685Y000900D01*
X016685Y002900D01*
X016734Y001900D02*
X016736Y001960D01*
X016742Y002019D01*
X016752Y002078D01*
X016765Y002136D01*
X016783Y002193D01*
X016804Y002248D01*
X016829Y002302D01*
X016857Y002355D01*
X016889Y002405D01*
X016924Y002453D01*
X016962Y002499D01*
X017003Y002542D01*
X017047Y002583D01*
X017093Y002620D01*
X017142Y002654D01*
X017193Y002685D01*
X017246Y002713D01*
X017301Y002737D01*
X017357Y002757D01*
X017414Y002773D01*
X017472Y002786D01*
X017531Y002795D01*
X017590Y002800D01*
X017650Y002801D01*
X017709Y002798D01*
X017769Y002791D01*
X017827Y002780D01*
X017885Y002766D01*
X017942Y002747D01*
X017997Y002725D01*
X018051Y002699D01*
X018103Y002670D01*
X018152Y002638D01*
X018200Y002602D01*
X018245Y002563D01*
X018288Y002521D01*
X018327Y002477D01*
X018364Y002430D01*
X018397Y002380D01*
X018427Y002329D01*
X018454Y002276D01*
X018477Y002221D01*
X018496Y002164D01*
X018512Y002107D01*
X018524Y002048D01*
X018532Y001989D01*
X018536Y001930D01*
X018536Y001870D01*
X018532Y001811D01*
X018524Y001752D01*
X018512Y001693D01*
X018496Y001636D01*
X018477Y001579D01*
X018454Y001524D01*
X018427Y001471D01*
X018397Y001420D01*
X018364Y001370D01*
X018327Y001323D01*
X018288Y001279D01*
X018245Y001237D01*
X018200Y001198D01*
X018152Y001162D01*
X018103Y001130D01*
X018051Y001101D01*
X017997Y001075D01*
X017942Y001053D01*
X017885Y001034D01*
X017827Y001020D01*
X017769Y001009D01*
X017709Y001002D01*
X017650Y000999D01*
X017590Y001000D01*
X017531Y001005D01*
X017472Y001014D01*
X017414Y001027D01*
X017357Y001043D01*
X017301Y001063D01*
X017246Y001087D01*
X017193Y001115D01*
X017142Y001146D01*
X017093Y001180D01*
X017047Y001217D01*
X017003Y001258D01*
X016962Y001301D01*
X016924Y001347D01*
X016889Y001395D01*
X016857Y001445D01*
X016829Y001498D01*
X016804Y001552D01*
X016783Y001607D01*
X016765Y001664D01*
X016752Y001722D01*
X016742Y001781D01*
X016736Y001840D01*
X016734Y001900D01*
X018734Y001900D02*
X018736Y001960D01*
X018742Y002019D01*
X018752Y002078D01*
X018765Y002136D01*
X018783Y002193D01*
X018804Y002248D01*
X018829Y002302D01*
X018857Y002355D01*
X018889Y002405D01*
X018924Y002453D01*
X018962Y002499D01*
X019003Y002542D01*
X019047Y002583D01*
X019093Y002620D01*
X019142Y002654D01*
X019193Y002685D01*
X019246Y002713D01*
X019301Y002737D01*
X019357Y002757D01*
X019414Y002773D01*
X019472Y002786D01*
X019531Y002795D01*
X019590Y002800D01*
X019650Y002801D01*
X019709Y002798D01*
X019769Y002791D01*
X019827Y002780D01*
X019885Y002766D01*
X019942Y002747D01*
X019997Y002725D01*
X020051Y002699D01*
X020103Y002670D01*
X020152Y002638D01*
X020200Y002602D01*
X020245Y002563D01*
X020288Y002521D01*
X020327Y002477D01*
X020364Y002430D01*
X020397Y002380D01*
X020427Y002329D01*
X020454Y002276D01*
X020477Y002221D01*
X020496Y002164D01*
X020512Y002107D01*
X020524Y002048D01*
X020532Y001989D01*
X020536Y001930D01*
X020536Y001870D01*
X020532Y001811D01*
X020524Y001752D01*
X020512Y001693D01*
X020496Y001636D01*
X020477Y001579D01*
X020454Y001524D01*
X020427Y001471D01*
X020397Y001420D01*
X020364Y001370D01*
X020327Y001323D01*
X020288Y001279D01*
X020245Y001237D01*
X020200Y001198D01*
X020152Y001162D01*
X020103Y001130D01*
X020051Y001101D01*
X019997Y001075D01*
X019942Y001053D01*
X019885Y001034D01*
X019827Y001020D01*
X019769Y001009D01*
X019709Y001002D01*
X019650Y000999D01*
X019590Y001000D01*
X019531Y001005D01*
X019472Y001014D01*
X019414Y001027D01*
X019357Y001043D01*
X019301Y001063D01*
X019246Y001087D01*
X019193Y001115D01*
X019142Y001146D01*
X019093Y001180D01*
X019047Y001217D01*
X019003Y001258D01*
X018962Y001301D01*
X018924Y001347D01*
X018889Y001395D01*
X018857Y001445D01*
X018829Y001498D01*
X018804Y001552D01*
X018783Y001607D01*
X018765Y001664D01*
X018752Y001722D01*
X018742Y001781D01*
X018736Y001840D01*
X018734Y001900D01*
X012562Y016649D02*
X010908Y016649D01*
X011302Y017121D02*
X011302Y017279D01*
X011304Y017307D01*
X011309Y017335D01*
X011317Y017363D01*
X011329Y017389D01*
X011344Y017413D01*
X011361Y017435D01*
X011382Y017456D01*
X011404Y017473D01*
X011428Y017488D01*
X011454Y017500D01*
X011482Y017508D01*
X011510Y017513D01*
X011538Y017515D01*
X011932Y017515D01*
X011960Y017513D01*
X011988Y017508D01*
X012016Y017500D01*
X012042Y017488D01*
X012066Y017473D01*
X012088Y017456D01*
X012109Y017435D01*
X012126Y017413D01*
X012141Y017389D01*
X012153Y017363D01*
X012161Y017335D01*
X012166Y017307D01*
X012168Y017279D01*
X012168Y017121D01*
X012166Y017093D01*
X012161Y017065D01*
X012153Y017037D01*
X012141Y017011D01*
X012126Y016987D01*
X012109Y016965D01*
X012088Y016944D01*
X012066Y016927D01*
X012042Y016912D01*
X012016Y016900D01*
X011988Y016892D01*
X011960Y016887D01*
X011932Y016885D01*
X011538Y016885D01*
X011510Y016887D01*
X011482Y016892D01*
X011454Y016900D01*
X011428Y016912D01*
X011404Y016927D01*
X011382Y016944D01*
X011361Y016965D01*
X011344Y016987D01*
X011329Y017011D01*
X011317Y017037D01*
X011309Y017065D01*
X011304Y017093D01*
X011302Y017121D01*
X010908Y017751D02*
X012562Y017751D01*
D14*
X012575Y011550D02*
X008575Y011550D01*
X008575Y003550D01*
X012575Y003550D01*
X012575Y011550D01*
X007725Y011550D02*
X007725Y003550D01*
X003725Y003550D01*
X003725Y011550D01*
X007725Y011550D01*
D15*
X012335Y013097D02*
X012335Y013203D01*
X012732Y012700D02*
X012786Y012727D01*
X012837Y012757D01*
X012887Y012790D01*
X012935Y012825D01*
X012935Y014475D01*
X012335Y014203D02*
X012335Y014097D01*
X012723Y014604D02*
X012779Y014577D01*
X012833Y014546D01*
X012885Y014512D01*
X012935Y014475D01*
X011838Y014600D02*
X011781Y014571D01*
X011725Y014538D01*
X011672Y014503D01*
X011621Y014463D01*
X011573Y014421D01*
X011527Y014376D01*
X011484Y014329D01*
X011444Y014279D01*
X011407Y014226D01*
X011374Y014171D01*
X011343Y014115D01*
X011317Y014056D01*
X011294Y013996D01*
X011274Y013935D01*
X011259Y013873D01*
X011247Y013810D01*
X011239Y013746D01*
X011235Y013682D01*
X011235Y013618D01*
X011239Y013554D01*
X011247Y013490D01*
X011259Y013427D01*
X011274Y013365D01*
X011294Y013304D01*
X011317Y013244D01*
X011343Y013185D01*
X011374Y013129D01*
X011407Y013074D01*
X011444Y013021D01*
X011484Y012971D01*
X011527Y012924D01*
X011573Y012879D01*
X011621Y012837D01*
X011672Y012797D01*
X011725Y012762D01*
X011781Y012729D01*
X011838Y012700D01*
D16*
X010904Y012550D02*
X010904Y013100D01*
X010504Y013100D01*
X010335Y013400D02*
X008335Y013400D01*
X008297Y013100D02*
X007897Y013100D01*
X007897Y012550D01*
X008597Y011700D02*
X010204Y011700D01*
X011035Y014250D02*
X011035Y014800D01*
X010635Y014800D01*
X010335Y015150D02*
X008335Y015150D01*
X008035Y014800D02*
X007635Y014800D01*
X007635Y014250D01*
X007635Y016000D02*
X007635Y016550D01*
X008035Y016550D01*
X010635Y016550D02*
X011035Y016550D01*
X011035Y016000D01*
D17*
X006075Y014540D03*
X005790Y014677D03*
X005790Y014686D03*
X005497Y014540D03*
X005497Y013846D03*
X005070Y013846D03*
X004784Y013710D03*
X004784Y013700D03*
X004484Y014094D03*
X004784Y014677D03*
X004784Y014686D03*
X004784Y015680D03*
X004784Y015690D03*
X004784Y015697D03*
X005790Y015697D03*
X005790Y015690D03*
D18*
X006079Y014857D03*
X005786Y014710D03*
X004780Y014710D03*
X004480Y015310D03*
X005786Y013700D03*
D19*
X005497Y013849D03*
X005497Y013851D03*
X005070Y013851D03*
X005070Y013849D03*
X004784Y013712D03*
X004784Y013707D03*
X004784Y013705D03*
X004784Y013702D03*
X004484Y014096D03*
X004484Y014098D03*
X004784Y014674D03*
X004784Y014679D03*
X004784Y014682D03*
X004784Y014684D03*
X004784Y014689D03*
X004784Y014691D03*
X004784Y014713D03*
X004784Y014715D03*
X004784Y014718D03*
X005497Y014545D03*
X005497Y014542D03*
X005790Y014674D03*
X005790Y014679D03*
X005790Y014682D03*
X005790Y014684D03*
X005790Y014689D03*
X005790Y014691D03*
X006075Y014545D03*
X006075Y014542D03*
X005790Y015687D03*
X005790Y015692D03*
X005790Y015694D03*
X004784Y015694D03*
X004784Y015692D03*
X004784Y015687D03*
X004784Y015685D03*
X004784Y015682D03*
D20*
X004480Y015308D03*
X004480Y015306D03*
X004780Y014708D03*
X004780Y014706D03*
X005786Y014706D03*
X005786Y014708D03*
X006079Y014854D03*
X005786Y013705D03*
X005786Y013702D03*
D21*
X005786Y013707D03*
X005786Y013712D03*
X005786Y013714D03*
X005786Y013719D03*
X005786Y013722D03*
X005786Y013724D03*
X005786Y013729D03*
X005786Y013731D03*
X005786Y013736D03*
X005786Y013738D03*
X006086Y014096D03*
X006086Y014098D03*
X005786Y014662D03*
X005786Y014665D03*
X005786Y014667D03*
X005786Y014672D03*
X005786Y014713D03*
X005786Y014715D03*
X005786Y014718D03*
X005786Y014722D03*
X005786Y014725D03*
X005786Y014727D03*
X005786Y014732D03*
X005786Y014734D03*
X005786Y014739D03*
X005786Y014742D03*
X005786Y014744D03*
X005786Y014749D03*
X005786Y014751D03*
X005500Y014859D03*
X005500Y014862D03*
X005500Y014864D03*
X006086Y015301D03*
X005786Y015673D03*
X005786Y015675D03*
X005786Y015678D03*
X005786Y015682D03*
X005786Y015685D03*
X005500Y015548D03*
X005500Y015546D03*
X004780Y014744D03*
X004780Y014742D03*
X004780Y014739D03*
X004780Y014734D03*
X004780Y014732D03*
X004780Y014727D03*
X004780Y014725D03*
X004780Y014722D03*
X004780Y014672D03*
X004780Y014667D03*
X004492Y014859D03*
X004492Y014862D03*
X004492Y014864D03*
X004780Y013738D03*
X004780Y013736D03*
X004780Y013731D03*
X004780Y013729D03*
X004780Y013724D03*
X004780Y013722D03*
X004780Y013719D03*
X004780Y013714D03*
D22*
X004780Y013717D03*
X004780Y013726D03*
X004780Y013734D03*
X005786Y013734D03*
X005786Y013726D03*
X005786Y013717D03*
X005786Y013710D03*
X006086Y014094D03*
X005786Y014660D03*
X005786Y014670D03*
X005786Y014720D03*
X005786Y014730D03*
X005786Y014737D03*
X005786Y014746D03*
X006086Y015303D03*
X005786Y015680D03*
X005500Y015550D03*
X004780Y014737D03*
X004780Y014730D03*
X004780Y014720D03*
X004780Y014670D03*
D23*
X004783Y014665D03*
X004783Y014662D03*
X004783Y014658D03*
X004783Y014655D03*
X004783Y014653D03*
X004783Y014648D03*
X004783Y014646D03*
X004783Y014641D03*
X004783Y014638D03*
X004783Y014636D03*
X004783Y014749D03*
X004783Y014751D03*
X004783Y014756D03*
X004783Y014758D03*
X004783Y015639D03*
X004783Y015642D03*
X004783Y015644D03*
X004783Y015649D03*
X004783Y015651D03*
X004783Y015656D03*
X004783Y015658D03*
X004783Y015661D03*
X004783Y015666D03*
X004783Y015668D03*
X004783Y015673D03*
X004783Y015675D03*
X004783Y015678D03*
X006076Y014864D03*
X006076Y014862D03*
X006076Y014859D03*
X006076Y014538D03*
X006076Y014535D03*
X006076Y014533D03*
X004783Y013746D03*
X004783Y013741D03*
D24*
X005786Y013741D03*
X005786Y013746D03*
X005786Y013748D03*
X005786Y013753D03*
X005786Y013755D03*
X005786Y013758D03*
X005786Y013762D03*
X005786Y013765D03*
X005786Y013767D03*
X005786Y013772D03*
X005786Y013774D03*
X005786Y014629D03*
X005786Y014631D03*
X005786Y014636D03*
X005786Y014638D03*
X005786Y014756D03*
X005786Y014758D03*
X005786Y014761D03*
X005786Y014766D03*
X005786Y014768D03*
X005786Y014773D03*
X005786Y014775D03*
X005786Y014778D03*
X005786Y014782D03*
X005786Y014785D03*
X005073Y015541D03*
X005786Y015634D03*
X005786Y015639D03*
X005786Y015642D03*
X005786Y015644D03*
D25*
X004783Y015646D03*
X004783Y015654D03*
X004783Y015663D03*
X004783Y015670D03*
X004783Y014754D03*
X004783Y014746D03*
X004783Y014660D03*
X004783Y014650D03*
X004783Y014643D03*
X004783Y014634D03*
X004783Y013743D03*
D26*
X005786Y013743D03*
X005786Y013750D03*
X005786Y013760D03*
X005786Y013770D03*
X005786Y013777D03*
X005786Y014626D03*
X005786Y014634D03*
X005786Y014754D03*
X005786Y014763D03*
X005786Y014770D03*
X005786Y014780D03*
X005073Y015543D03*
X005786Y015637D03*
D27*
X005499Y015541D03*
X005499Y014871D03*
X005499Y014869D03*
X005499Y014538D03*
X005499Y014535D03*
X005499Y014533D03*
X004779Y014761D03*
X004779Y014766D03*
X004779Y014768D03*
X004779Y014773D03*
X004779Y014775D03*
X004779Y014778D03*
X004779Y013772D03*
X004779Y013767D03*
X004779Y013765D03*
X004779Y013762D03*
X004779Y013758D03*
X004779Y013755D03*
X004779Y013753D03*
X004779Y013748D03*
D28*
X004779Y013750D03*
X004779Y013760D03*
X004779Y013770D03*
X004779Y014763D03*
X004779Y014770D03*
X005499Y014866D03*
X005499Y015543D03*
D29*
X004783Y015606D03*
X004783Y015608D03*
X004783Y015613D03*
X004783Y015615D03*
X004783Y015618D03*
X004783Y015622D03*
X004783Y015625D03*
X004783Y015627D03*
X004783Y015632D03*
X004783Y015634D03*
X004783Y014792D03*
X004783Y014787D03*
X004783Y014785D03*
X004783Y014782D03*
X004783Y014631D03*
X004783Y014629D03*
X004783Y014624D03*
X004783Y014622D03*
X004783Y014619D03*
X004783Y014614D03*
X004783Y014612D03*
X004783Y014607D03*
X004783Y014605D03*
X004783Y014602D03*
X004783Y013784D03*
X004783Y013782D03*
X004783Y013779D03*
X004783Y013774D03*
X006084Y014101D03*
D30*
X006084Y014103D03*
X004783Y013777D03*
X004783Y014600D03*
X004783Y014610D03*
X004783Y014617D03*
X004783Y014626D03*
X004783Y014780D03*
X004783Y014790D03*
X004783Y015610D03*
X004783Y015620D03*
X004783Y015630D03*
X004783Y015637D03*
D31*
X004779Y014811D03*
X004779Y014809D03*
X004779Y014804D03*
X004779Y014802D03*
X004779Y014799D03*
X004779Y014794D03*
X004779Y014598D03*
X004779Y014595D03*
X004779Y014593D03*
X004494Y014528D03*
X004494Y014526D03*
X004779Y013806D03*
X004779Y013801D03*
X004779Y013798D03*
X004779Y013796D03*
X004779Y013791D03*
X004779Y013789D03*
X005067Y013861D03*
X005067Y013866D03*
X005499Y013866D03*
X005499Y013861D03*
X005787Y013808D03*
X005787Y013806D03*
X005787Y013801D03*
X005787Y013798D03*
X005787Y013796D03*
X005787Y013791D03*
X005787Y013789D03*
X005787Y013784D03*
X005787Y013782D03*
X005787Y013779D03*
X005499Y014526D03*
X005499Y014528D03*
X005787Y014593D03*
X005787Y014595D03*
X005787Y014598D03*
X005787Y014602D03*
X005787Y014605D03*
X005787Y014787D03*
X005787Y014792D03*
X005787Y014794D03*
X005787Y014799D03*
X005787Y014802D03*
X005787Y014804D03*
X005787Y014809D03*
X005787Y014811D03*
X005787Y014816D03*
X005787Y014818D03*
X005787Y015601D03*
X005787Y015606D03*
X005787Y015608D03*
D32*
X005787Y015610D03*
X005787Y015603D03*
X005787Y014814D03*
X005787Y014806D03*
X005787Y014797D03*
X005787Y014790D03*
X005787Y014600D03*
X005499Y014530D03*
X005499Y013863D03*
X005787Y013810D03*
X005787Y013803D03*
X005787Y013794D03*
X005787Y013786D03*
X005067Y013863D03*
X004779Y013803D03*
X004779Y013794D03*
X004779Y013786D03*
X004494Y014530D03*
X004779Y014797D03*
X004779Y014806D03*
D33*
X005084Y014809D03*
X005084Y014811D03*
X005084Y014588D03*
X005084Y014586D03*
X005084Y013806D03*
X005084Y013801D03*
X005482Y013801D03*
X005482Y013806D03*
X006090Y014586D03*
X006090Y014588D03*
X006090Y014809D03*
X006090Y014811D03*
X006135Y015349D03*
X006135Y015351D03*
X005835Y015334D03*
X004436Y015349D03*
X004436Y015351D03*
D34*
X004436Y015346D03*
X005084Y014806D03*
X005084Y014590D03*
X005084Y013803D03*
X005482Y013803D03*
X006090Y014590D03*
X006090Y014806D03*
X006135Y015346D03*
X005835Y015337D03*
D35*
X005503Y014878D03*
X005503Y014876D03*
X004783Y014828D03*
X004783Y014826D03*
X004783Y014821D03*
X004783Y014818D03*
X004783Y014816D03*
X004497Y014876D03*
X004497Y014878D03*
X004783Y014588D03*
X004783Y014586D03*
X004783Y014581D03*
X004783Y014578D03*
X004783Y014576D03*
X004783Y014571D03*
X004783Y014569D03*
X004783Y013818D03*
X004783Y013815D03*
X004783Y013813D03*
X004783Y013808D03*
X004783Y015579D03*
X004783Y015582D03*
X004783Y015584D03*
X004783Y015589D03*
X004783Y015591D03*
X004783Y015596D03*
X004783Y015598D03*
X004783Y015601D03*
D36*
X005079Y014818D03*
X005079Y014816D03*
X005079Y014581D03*
X005079Y013808D03*
X006126Y015339D03*
X006126Y015342D03*
X006126Y015344D03*
D37*
X006086Y014818D03*
X006086Y014816D03*
X006086Y014581D03*
X005486Y013808D03*
X004740Y014062D03*
X004740Y014065D03*
X004447Y015339D03*
X004447Y015342D03*
X004447Y015344D03*
D38*
X004783Y015586D03*
X004783Y015594D03*
X004783Y015603D03*
X004783Y014830D03*
X004783Y014823D03*
X004783Y014814D03*
X004497Y014874D03*
X004783Y014590D03*
X004783Y014583D03*
X004783Y014574D03*
X004783Y014566D03*
X004783Y013810D03*
X005503Y014874D03*
D39*
X005079Y014814D03*
X005079Y014583D03*
X005079Y013810D03*
D40*
X004740Y014060D03*
X005486Y013810D03*
X006086Y014583D03*
X006086Y014814D03*
D41*
X006087Y014821D03*
X006087Y014578D03*
X006087Y014576D03*
X006118Y014065D03*
X006118Y014062D03*
X005487Y013818D03*
X005487Y013815D03*
X005487Y013813D03*
X005079Y013813D03*
X005079Y013815D03*
X005079Y013818D03*
X004446Y014062D03*
X004446Y014065D03*
X005079Y014576D03*
X005079Y014578D03*
X005079Y014821D03*
X006118Y015334D03*
D42*
X005786Y014838D03*
X005786Y014835D03*
X005786Y014833D03*
X005786Y014828D03*
X005786Y014826D03*
X005066Y014876D03*
X005066Y014878D03*
X004780Y014838D03*
X004780Y014835D03*
X004780Y014833D03*
X004780Y013825D03*
X004780Y013822D03*
X005786Y013822D03*
X005786Y013825D03*
X005786Y013818D03*
X005786Y013815D03*
X005786Y013813D03*
D43*
X005786Y013820D03*
X004780Y013820D03*
X005066Y014874D03*
X005786Y014830D03*
D44*
X005077Y014566D03*
X005077Y013820D03*
X005490Y013820D03*
D45*
X005490Y013822D03*
X005490Y013825D03*
X005077Y013825D03*
X005077Y013822D03*
X005077Y014569D03*
X005077Y014571D03*
D46*
X004777Y013832D03*
X004777Y013827D03*
D47*
X005077Y013827D03*
X005077Y013832D03*
X005490Y013832D03*
X005490Y013827D03*
X006109Y014074D03*
X006082Y014559D03*
X006082Y014562D03*
X006082Y014564D03*
X006082Y014833D03*
X006082Y014835D03*
X006082Y014838D03*
X005077Y014838D03*
X005077Y014835D03*
X005077Y014833D03*
X005077Y014564D03*
X005077Y014562D03*
X005077Y014559D03*
D48*
X005793Y014554D03*
X005793Y013832D03*
X005793Y013827D03*
D49*
X004777Y013830D03*
D50*
X005077Y013830D03*
X005490Y013830D03*
X006109Y014077D03*
D51*
X005793Y013830D03*
X005793Y014557D03*
D52*
X004773Y013834D03*
D53*
X005073Y013834D03*
D54*
X005492Y013834D03*
X006099Y014079D03*
X006099Y014082D03*
X006099Y014084D03*
X005492Y014554D03*
X006099Y015313D03*
X006099Y015315D03*
X006099Y015318D03*
D55*
X005797Y013834D03*
X004470Y014113D03*
X004470Y014115D03*
X004470Y014118D03*
D56*
X004773Y013837D03*
D57*
X005073Y013837D03*
D58*
X005492Y013837D03*
X005492Y014557D03*
D59*
X005797Y013837D03*
D60*
X005793Y013839D03*
X005793Y013842D03*
X005793Y013844D03*
X006026Y014286D03*
X006026Y014288D03*
X005793Y014542D03*
X005793Y014545D03*
X004773Y013844D03*
X004773Y013842D03*
X004773Y013839D03*
X004560Y014302D03*
X004560Y014305D03*
X004560Y015094D03*
D61*
X005073Y014852D03*
X005073Y014847D03*
X005073Y014552D03*
X005073Y014547D03*
X005073Y013844D03*
X005073Y013842D03*
X005073Y013839D03*
X005493Y013839D03*
X005493Y013842D03*
X005493Y013844D03*
X004473Y014089D03*
X004473Y014091D03*
D62*
X004783Y013846D03*
X005529Y014110D03*
X005589Y014070D03*
X006043Y015114D03*
X005784Y015550D03*
D63*
X005540Y015294D03*
X005586Y015080D03*
X004986Y015080D03*
X004986Y015330D03*
X004566Y015090D03*
X004534Y015114D03*
X004573Y014317D03*
X005787Y013846D03*
X005998Y014317D03*
D64*
X005589Y014319D03*
X005589Y014322D03*
X005589Y014324D03*
X005529Y014108D03*
X005529Y014106D03*
X005589Y014072D03*
X005589Y014067D03*
X004783Y013851D03*
X004783Y013849D03*
X006043Y015116D03*
X006043Y015118D03*
X005784Y015546D03*
X005784Y015548D03*
D65*
X005540Y015298D03*
X005540Y015296D03*
X005586Y015085D03*
X005586Y015082D03*
X004986Y015082D03*
X004986Y015085D03*
X004986Y015327D03*
X004986Y015332D03*
X004566Y015092D03*
X004566Y015087D03*
X004534Y015116D03*
X004534Y015118D03*
X004460Y015279D03*
X004460Y015282D03*
X004460Y015284D03*
X004779Y014864D03*
X004779Y014862D03*
X004779Y014859D03*
X004573Y014314D03*
X005787Y013851D03*
X005787Y013849D03*
X005998Y014314D03*
D66*
X005776Y013854D03*
X004790Y013854D03*
X004516Y014283D03*
X005596Y015337D03*
D67*
X005790Y015646D03*
X005790Y015654D03*
X005790Y015663D03*
X005790Y015670D03*
X005790Y014650D03*
X005790Y014643D03*
X005497Y013854D03*
X005070Y013854D03*
D68*
X004790Y013856D03*
X004790Y013858D03*
X004516Y014281D03*
X004584Y015073D03*
X004584Y015075D03*
X004584Y015078D03*
X005596Y015334D03*
X005983Y015078D03*
X005983Y015075D03*
X005983Y015073D03*
X005776Y013858D03*
X005776Y013856D03*
D69*
X005497Y013856D03*
X005497Y013858D03*
X005070Y013858D03*
X005070Y013856D03*
X005070Y014533D03*
X005070Y014535D03*
X005070Y014538D03*
X005070Y014859D03*
X005070Y014862D03*
X005070Y014864D03*
X005790Y014658D03*
X005790Y014655D03*
X005790Y014653D03*
X005790Y014648D03*
X005790Y014646D03*
X005790Y014641D03*
X005790Y015649D03*
X005790Y015651D03*
X005790Y015656D03*
X005790Y015658D03*
X005790Y015661D03*
X005790Y015666D03*
X005790Y015668D03*
D70*
X004803Y013866D03*
X004803Y013861D03*
D71*
X004968Y014062D03*
X004968Y014065D03*
X004968Y014329D03*
X004968Y014331D03*
X005767Y013866D03*
X005767Y013861D03*
X005047Y015289D03*
X005047Y015291D03*
D72*
X004803Y013863D03*
D73*
X004968Y014060D03*
X004968Y014326D03*
X005767Y013863D03*
X005047Y015286D03*
D74*
X004899Y015536D03*
X004899Y015538D03*
X004899Y013868D03*
D75*
X005666Y013868D03*
X005666Y015529D03*
X005666Y015531D03*
X004920Y015498D03*
X004920Y015495D03*
X004920Y015493D03*
D76*
X004899Y015534D03*
X004899Y013870D03*
D77*
X005666Y013870D03*
X005666Y015526D03*
D78*
X005653Y015505D03*
X005653Y015502D03*
X005653Y015498D03*
X005653Y015495D03*
X005653Y015493D03*
X004914Y015514D03*
X004906Y015519D03*
X004906Y015522D03*
X004906Y015524D03*
X004914Y013904D03*
X004914Y013902D03*
X004914Y013899D03*
X004906Y013878D03*
X004906Y013875D03*
X004906Y013873D03*
X005653Y013894D03*
X005653Y013899D03*
X005653Y013902D03*
X005653Y013904D03*
X005660Y013878D03*
X005660Y013875D03*
X005660Y013873D03*
D79*
X005656Y013880D03*
X005656Y013890D03*
X004910Y013880D03*
X005656Y015510D03*
X005656Y015517D03*
D80*
X005656Y015514D03*
X005656Y015512D03*
X005656Y015507D03*
X005656Y013892D03*
X005656Y013887D03*
X005656Y013885D03*
X005656Y013882D03*
X004910Y013882D03*
X004910Y013885D03*
D81*
X004917Y013887D03*
X004917Y013892D03*
X004917Y013894D03*
X004917Y015502D03*
X004917Y015505D03*
X004917Y015507D03*
X004917Y015512D03*
X005664Y015519D03*
X005664Y015522D03*
X005664Y015524D03*
D82*
X004917Y015510D03*
X004917Y015500D03*
X004917Y013897D03*
X004917Y013890D03*
D83*
X005653Y013897D03*
X005653Y015500D03*
X004914Y015517D03*
D84*
X004916Y015490D03*
X004916Y013906D03*
D85*
X005649Y013906D03*
X004903Y015526D03*
D86*
X004916Y015488D03*
X004916Y015486D03*
X004916Y013911D03*
X004916Y013909D03*
D87*
X005649Y013909D03*
X005649Y013911D03*
X004903Y015529D03*
X004903Y015531D03*
D88*
X004912Y013914D03*
D89*
X005653Y013914D03*
X005653Y015490D03*
D90*
X004912Y013918D03*
X004912Y013916D03*
D91*
X005653Y013916D03*
X005653Y013918D03*
X005653Y015486D03*
X005653Y015488D03*
D92*
X004912Y013928D03*
X004912Y013926D03*
X004912Y013921D03*
D93*
X005655Y013921D03*
X005655Y013926D03*
X005655Y015476D03*
X005655Y015478D03*
X005655Y015481D03*
X004916Y015481D03*
X004916Y015478D03*
X004916Y015476D03*
D94*
X004912Y013930D03*
X004912Y013923D03*
D95*
X005655Y013923D03*
X005655Y015474D03*
X005655Y015483D03*
X004916Y015483D03*
X004916Y015474D03*
D96*
X005653Y013928D03*
D97*
X005653Y013930D03*
D98*
X005656Y013933D03*
X005656Y013935D03*
X005656Y013938D03*
X004910Y013938D03*
X004910Y013935D03*
X004910Y013933D03*
X005656Y015469D03*
X005656Y015471D03*
D99*
X005656Y015457D03*
X004910Y015457D03*
X004910Y013950D03*
X004910Y013940D03*
X005656Y013940D03*
X005656Y013950D03*
D100*
X005656Y013952D03*
X005656Y013947D03*
X005656Y013945D03*
X005656Y013942D03*
X004910Y013942D03*
X004910Y013945D03*
X004910Y013947D03*
X004910Y013952D03*
X004910Y015454D03*
X005656Y015454D03*
D101*
X005664Y015445D03*
X005664Y015442D03*
X004910Y015442D03*
X004910Y015445D03*
X004910Y013954D03*
D102*
X005660Y013954D03*
X005660Y015447D03*
X005660Y015452D03*
D103*
X005664Y015440D03*
X004910Y015440D03*
X004910Y013957D03*
D104*
X005660Y013957D03*
X005660Y015450D03*
D105*
X005660Y015438D03*
X005660Y015435D03*
X005660Y015433D03*
X005660Y013964D03*
X005660Y013962D03*
X005660Y013959D03*
X004906Y013959D03*
X004906Y013962D03*
X004906Y013964D03*
D106*
X004910Y013966D03*
X004910Y015430D03*
D107*
X005662Y015430D03*
X005662Y013966D03*
D108*
X004910Y013969D03*
X004910Y013971D03*
X004910Y015426D03*
X004910Y015428D03*
X004910Y015433D03*
X004910Y015435D03*
X004910Y015438D03*
D109*
X005662Y015428D03*
X005662Y015426D03*
X005662Y013971D03*
X005662Y013969D03*
D110*
X005659Y013974D03*
X004908Y013974D03*
X004908Y015423D03*
D111*
X004908Y015421D03*
X004908Y013978D03*
X004908Y013976D03*
X005659Y013976D03*
X005659Y013978D03*
D112*
X005662Y013981D03*
X005662Y013986D03*
X004904Y013986D03*
X004904Y013981D03*
X005662Y015421D03*
D113*
X005662Y015423D03*
X005662Y013983D03*
X004904Y013983D03*
D114*
X004906Y013988D03*
X004906Y015409D03*
X004906Y015411D03*
X004906Y015416D03*
X004906Y015418D03*
D115*
X005664Y015411D03*
X005664Y015409D03*
X005664Y013998D03*
X005664Y013995D03*
X005664Y013993D03*
X005664Y013988D03*
X004903Y013993D03*
X004903Y013995D03*
X004903Y013998D03*
D116*
X004906Y013990D03*
X004906Y015406D03*
X004906Y015414D03*
D117*
X005664Y015406D03*
X005664Y013990D03*
D118*
X005664Y014010D03*
X005664Y014017D03*
X005649Y014043D03*
X005649Y014050D03*
X004917Y014043D03*
X004917Y014034D03*
X004903Y014010D03*
X004903Y014000D03*
X004917Y015363D03*
X004917Y015370D03*
X004903Y015390D03*
X004903Y015397D03*
X005649Y015354D03*
X005649Y015346D03*
X005664Y015380D03*
X005664Y015390D03*
D119*
X005667Y015397D03*
X005653Y015363D03*
X005667Y014000D03*
X004906Y014017D03*
D120*
X004903Y014012D03*
X004903Y014007D03*
X004903Y014005D03*
X004903Y014002D03*
X004917Y014036D03*
X004917Y014038D03*
X004917Y014041D03*
X004917Y014046D03*
X005642Y014053D03*
X005642Y014055D03*
X005642Y014058D03*
X005649Y014048D03*
X005649Y014046D03*
X005649Y014041D03*
X005664Y014014D03*
X005664Y014012D03*
X005664Y014007D03*
X005642Y015339D03*
X005642Y015342D03*
X005642Y015344D03*
X005649Y015349D03*
X005649Y015351D03*
X005649Y015356D03*
X005649Y015358D03*
X005664Y015382D03*
X005664Y015385D03*
X005664Y015387D03*
X005664Y015392D03*
X004917Y015368D03*
X004917Y015366D03*
X004917Y015361D03*
X004903Y015387D03*
X004903Y015392D03*
X004903Y015394D03*
D121*
X004906Y015399D03*
X004906Y015402D03*
X004906Y015404D03*
X005653Y015361D03*
X005667Y015394D03*
X005667Y015399D03*
X005667Y015402D03*
X005667Y015404D03*
X005667Y014005D03*
X005667Y014002D03*
X004906Y014014D03*
D122*
X004910Y014019D03*
X004910Y014022D03*
X004910Y014024D03*
X004910Y014029D03*
X004910Y014031D03*
X005656Y014031D03*
X005656Y014029D03*
X005656Y014024D03*
X005656Y014022D03*
X005656Y014019D03*
X005656Y014036D03*
X005656Y014038D03*
X005656Y015366D03*
X005656Y015368D03*
X005656Y015373D03*
X005656Y015375D03*
X005656Y015378D03*
X004910Y015378D03*
X004910Y015375D03*
X004910Y015373D03*
X004910Y015382D03*
X004910Y015385D03*
D123*
X004910Y015380D03*
X005656Y015370D03*
X005656Y014034D03*
X005656Y014026D03*
X004910Y014026D03*
D124*
X004434Y014048D03*
X004734Y015334D03*
X005086Y015601D03*
X006133Y014048D03*
D125*
X004923Y014048D03*
X004923Y014053D03*
X004923Y014055D03*
X004923Y014058D03*
X004923Y015339D03*
X004923Y015342D03*
X004923Y015344D03*
X004923Y015349D03*
X004923Y015351D03*
D126*
X004734Y015337D03*
X005086Y015603D03*
X004434Y014050D03*
X006133Y014050D03*
D127*
X004923Y014050D03*
X004923Y015346D03*
D128*
X005486Y014818D03*
X005486Y014816D03*
X005486Y014588D03*
X005486Y014586D03*
X004480Y014586D03*
X004480Y014588D03*
X004440Y014058D03*
X004440Y014055D03*
X004440Y014053D03*
D129*
X005829Y014062D03*
X005829Y014065D03*
X006129Y014058D03*
X006129Y014055D03*
X006129Y014053D03*
D130*
X006118Y014060D03*
X006087Y014574D03*
X006087Y014823D03*
X006118Y015337D03*
X005079Y014823D03*
X005079Y014574D03*
X004446Y014060D03*
D131*
X004777Y014866D03*
X004510Y015123D03*
X005516Y015123D03*
X005516Y015286D03*
X005602Y014326D03*
X005602Y014060D03*
X005977Y014326D03*
X006116Y014120D03*
D132*
X005829Y014060D03*
D133*
X005602Y014062D03*
X005602Y014065D03*
X005602Y014329D03*
X005602Y014331D03*
X005977Y014331D03*
X005977Y014329D03*
X006116Y014125D03*
X006116Y014122D03*
X005516Y015121D03*
X005516Y015289D03*
X005516Y015291D03*
X004777Y014871D03*
X004777Y014869D03*
X004510Y015121D03*
D134*
X004486Y014828D03*
X004486Y014826D03*
X004453Y014072D03*
X004453Y014067D03*
D135*
X004983Y014067D03*
X004983Y014072D03*
X004983Y014319D03*
X004983Y014322D03*
X004983Y014324D03*
X005790Y014859D03*
X005790Y014862D03*
X005790Y014864D03*
X005996Y015082D03*
X005996Y015085D03*
X005583Y015327D03*
X005583Y015332D03*
D136*
X006112Y014072D03*
X006112Y014067D03*
D137*
X004486Y014830D03*
X004453Y014070D03*
D138*
X004983Y014070D03*
X005996Y015080D03*
X005583Y015330D03*
D139*
X006112Y014070D03*
D140*
X004460Y014074D03*
X004460Y015327D03*
X004460Y015332D03*
D141*
X004783Y015553D03*
X004783Y015555D03*
X004783Y015558D03*
X005577Y015325D03*
X005577Y015322D03*
X005577Y015092D03*
X005577Y015087D03*
X006002Y015087D03*
X006002Y015092D03*
X006009Y015094D03*
X006103Y015279D03*
X006103Y015282D03*
X006103Y015284D03*
X005544Y014288D03*
X005544Y014286D03*
X005023Y014101D03*
X004989Y014074D03*
X004989Y014314D03*
D142*
X005580Y014314D03*
X005580Y014074D03*
D143*
X004460Y014077D03*
X004460Y015330D03*
D144*
X005577Y015320D03*
X005577Y015090D03*
X006002Y015090D03*
X006009Y015097D03*
X005544Y014290D03*
X005023Y014103D03*
X004989Y014077D03*
X004989Y014317D03*
D145*
X005580Y014317D03*
X005580Y014077D03*
D146*
X005077Y014554D03*
X005077Y014842D03*
X005077Y014845D03*
X004470Y014084D03*
X004470Y014082D03*
X004470Y014079D03*
D147*
X004996Y014079D03*
X004996Y014082D03*
X004996Y014084D03*
D148*
X005566Y014089D03*
X005566Y014091D03*
X005574Y014084D03*
X005574Y014082D03*
X005574Y014079D03*
X005574Y014307D03*
X005574Y014312D03*
X006013Y014305D03*
X006013Y014302D03*
X005000Y015094D03*
X004993Y015092D03*
X004993Y015087D03*
X005026Y015296D03*
X005026Y015298D03*
X005000Y015313D03*
X005000Y015315D03*
X005000Y015318D03*
X004993Y015322D03*
X004993Y015325D03*
X004554Y015104D03*
X004554Y015102D03*
X004554Y015099D03*
D149*
X005073Y014850D03*
X005073Y014550D03*
X004473Y014086D03*
D150*
X005002Y014086D03*
X005002Y014300D03*
X006022Y015106D03*
X005002Y015310D03*
D151*
X004993Y015320D03*
X005026Y015294D03*
X005000Y015097D03*
X004993Y015090D03*
X005574Y014310D03*
X005566Y014086D03*
X006013Y014300D03*
D152*
X006092Y014086D03*
D153*
X005002Y014089D03*
X005002Y014091D03*
X005002Y014302D03*
X005002Y014305D03*
X006022Y015109D03*
X006022Y015111D03*
X005002Y015306D03*
X005002Y015308D03*
D154*
X006092Y014091D03*
X006092Y014089D03*
D155*
X005550Y014103D03*
X005010Y014094D03*
X005017Y015106D03*
X005557Y015106D03*
X005557Y015303D03*
X005797Y015560D03*
D156*
X004780Y014857D03*
X005560Y014094D03*
D157*
X005550Y014101D03*
X005010Y014098D03*
X005010Y014096D03*
X005017Y015109D03*
X005017Y015111D03*
X005557Y015111D03*
X005557Y015109D03*
X005557Y015301D03*
X005797Y015562D03*
X005797Y015565D03*
D158*
X005006Y015104D03*
X005006Y015102D03*
X005006Y015099D03*
X004780Y014854D03*
X005006Y014298D03*
X005006Y014295D03*
X005006Y014293D03*
X005560Y014293D03*
X005560Y014295D03*
X005560Y014298D03*
X005560Y014098D03*
X005560Y014096D03*
D159*
X004486Y014101D03*
X004494Y014533D03*
X004494Y014535D03*
X004494Y014538D03*
X004494Y014869D03*
X004494Y014871D03*
D160*
X004494Y014866D03*
X004486Y014103D03*
D161*
X004480Y014106D03*
X004480Y014108D03*
X004780Y014554D03*
D162*
X004777Y014538D03*
X004777Y014535D03*
X004777Y014533D03*
X005043Y014108D03*
X005043Y014106D03*
X005523Y014281D03*
X005790Y014533D03*
X005790Y014535D03*
X005790Y014538D03*
D163*
X006096Y014108D03*
X006096Y014106D03*
D164*
X004780Y014557D03*
X004480Y014110D03*
D165*
X005043Y014110D03*
X005523Y014283D03*
D166*
X006096Y014110D03*
D167*
X005064Y014113D03*
X005064Y014115D03*
X005064Y014118D03*
X005064Y014276D03*
X005064Y014278D03*
X004456Y015274D03*
D168*
X005512Y014118D03*
X005512Y014115D03*
X005512Y014113D03*
X006112Y015274D03*
D169*
X006016Y015104D03*
X006016Y015102D03*
X006016Y015099D03*
X005570Y015094D03*
X005563Y015099D03*
X005563Y015102D03*
X005563Y015104D03*
X005563Y015306D03*
X005563Y015308D03*
X005570Y015313D03*
X005570Y015315D03*
X005570Y015318D03*
X004550Y015111D03*
X004550Y015109D03*
X004550Y014298D03*
X004550Y014295D03*
X004550Y014293D03*
X004996Y014307D03*
X004996Y014312D03*
X005570Y014305D03*
X005570Y014302D03*
X006016Y014298D03*
X006016Y014295D03*
X006016Y014293D03*
X006103Y014118D03*
X006103Y014115D03*
X006103Y014113D03*
D170*
X006046Y014283D03*
X004460Y014120D03*
D171*
X005086Y014120D03*
X005086Y015277D03*
D172*
X005096Y015250D03*
X005096Y015243D03*
X005096Y015234D03*
X005096Y015174D03*
X005096Y015166D03*
X005096Y015157D03*
X005077Y015130D03*
X004470Y015150D03*
X004470Y015157D03*
X004470Y014250D03*
X004470Y014240D03*
X005096Y014240D03*
X005096Y014230D03*
X005096Y014163D03*
X005096Y014154D03*
X005096Y014146D03*
X005490Y014120D03*
X006090Y014266D03*
D173*
X006046Y014281D03*
X005593Y015073D03*
X005593Y015075D03*
X005593Y015078D03*
X004974Y015078D03*
X004974Y015075D03*
X004974Y015073D03*
X004580Y014324D03*
X004580Y014322D03*
X004580Y014319D03*
X004460Y014125D03*
X004460Y014122D03*
D174*
X005086Y014122D03*
X005086Y014125D03*
X005086Y015274D03*
D175*
X005096Y015248D03*
X005096Y015246D03*
X005096Y015241D03*
X005096Y015238D03*
X005096Y015236D03*
X005096Y015178D03*
X005096Y015176D03*
X005096Y015171D03*
X005096Y015169D03*
X005096Y015164D03*
X005096Y015162D03*
X005096Y015159D03*
X005096Y015154D03*
X005077Y015128D03*
X005077Y015126D03*
X004470Y015147D03*
X004470Y015152D03*
X004470Y015154D03*
X004470Y015159D03*
X004470Y015162D03*
X004470Y015164D03*
X004470Y015253D03*
X004470Y015255D03*
X004470Y015258D03*
X004470Y014252D03*
X004470Y014247D03*
X004470Y014245D03*
X004470Y014242D03*
X005096Y014242D03*
X005096Y014245D03*
X005096Y014238D03*
X005096Y014235D03*
X005096Y014233D03*
X005096Y014228D03*
X005096Y014226D03*
X005096Y014161D03*
X005096Y014158D03*
X005096Y014156D03*
X005096Y014151D03*
X005096Y014149D03*
X005490Y014125D03*
X005490Y014122D03*
X006090Y014269D03*
X006090Y014271D03*
D176*
X006106Y014132D03*
X006106Y014127D03*
X006106Y015267D03*
X006106Y015272D03*
X004460Y014132D03*
X004460Y014127D03*
D177*
X005089Y014127D03*
X005089Y014132D03*
X005089Y014259D03*
X005089Y014262D03*
X005089Y014264D03*
X005482Y014269D03*
X005482Y014271D03*
X005482Y015133D03*
X005482Y015135D03*
X005482Y015138D03*
X005482Y015274D03*
X005089Y015272D03*
X005089Y015267D03*
X005089Y015138D03*
X005089Y015135D03*
X005089Y015133D03*
X004477Y015133D03*
X004477Y015135D03*
X004477Y015138D03*
D178*
X005092Y015142D03*
X005092Y015145D03*
X005092Y015147D03*
X005092Y015152D03*
X005092Y015253D03*
X005092Y015255D03*
X005092Y015258D03*
X005092Y015262D03*
X005092Y015265D03*
X005479Y015267D03*
X005479Y015272D03*
X005479Y015145D03*
X005479Y015142D03*
X005479Y014264D03*
X005479Y014262D03*
X005479Y014259D03*
X005479Y014254D03*
X005479Y014134D03*
X005479Y014132D03*
X005479Y014127D03*
X005092Y014134D03*
X005092Y014139D03*
X005092Y014142D03*
X005092Y014144D03*
X005092Y014247D03*
X005092Y014252D03*
X005092Y014254D03*
X004480Y014269D03*
X004480Y014271D03*
D179*
X004460Y014130D03*
X006106Y014130D03*
X006106Y015270D03*
D180*
X005482Y015277D03*
X005089Y015270D03*
X005482Y014266D03*
X005089Y014130D03*
D181*
X005092Y014137D03*
X005092Y014250D03*
X005092Y014257D03*
X005479Y014257D03*
X005479Y014137D03*
X005479Y014130D03*
X004480Y014266D03*
X005092Y015140D03*
X005092Y015150D03*
X005092Y015260D03*
X005479Y015270D03*
X005479Y015140D03*
D182*
X005473Y015169D03*
X005473Y015171D03*
X005473Y015176D03*
X005473Y015178D03*
X005473Y015181D03*
X005473Y015186D03*
X005473Y015188D03*
X005473Y015193D03*
X005473Y015195D03*
X005473Y015198D03*
X005473Y015214D03*
X005473Y015219D03*
X005473Y015222D03*
X005473Y015224D03*
X005473Y015229D03*
X005473Y015231D03*
X005473Y015236D03*
X005473Y015238D03*
X005473Y015241D03*
X006099Y015241D03*
X006099Y015238D03*
X006099Y015236D03*
X006099Y015246D03*
X006099Y015248D03*
X006099Y015253D03*
X006099Y015255D03*
X006099Y015258D03*
X006099Y015262D03*
X006099Y015265D03*
X006099Y015178D03*
X006099Y015176D03*
X006099Y015171D03*
X006099Y015169D03*
X006099Y015164D03*
X006099Y015162D03*
X006099Y015159D03*
X006099Y014245D03*
X006099Y014242D03*
X006099Y014238D03*
X006099Y014235D03*
X006099Y014233D03*
X006099Y014228D03*
X006099Y014226D03*
X006099Y014161D03*
X006099Y014158D03*
X006099Y014156D03*
X006099Y014151D03*
X006099Y014149D03*
X006099Y014144D03*
X006099Y014142D03*
X006099Y014139D03*
X006099Y014134D03*
X005473Y014156D03*
X005473Y014158D03*
X005473Y014161D03*
X005473Y014166D03*
X005473Y014168D03*
X005473Y014173D03*
X005473Y014175D03*
X005473Y014178D03*
X005473Y014182D03*
X005473Y014185D03*
X005473Y014209D03*
X005473Y014211D03*
X005473Y014216D03*
X005473Y014218D03*
X005473Y014221D03*
X005473Y014226D03*
X005473Y014228D03*
X005473Y014233D03*
X005473Y014235D03*
X005473Y014238D03*
X004779Y014876D03*
X004779Y014878D03*
X004467Y015169D03*
X004467Y015171D03*
X004467Y015176D03*
X004467Y015178D03*
X004467Y015181D03*
X004467Y015186D03*
X004467Y015188D03*
X004467Y015193D03*
X004467Y015195D03*
X004467Y015198D03*
X004467Y015214D03*
X004467Y015219D03*
X004467Y015222D03*
X004467Y015224D03*
X004467Y015229D03*
X004467Y015231D03*
X004467Y015236D03*
X004467Y015238D03*
X004467Y015241D03*
X004467Y015246D03*
X004467Y015248D03*
X004467Y015262D03*
X004467Y015265D03*
X004467Y014238D03*
X004467Y014235D03*
X004467Y014233D03*
X004467Y014228D03*
X004467Y014226D03*
X004467Y014221D03*
X004467Y014218D03*
X004467Y014216D03*
X004467Y014211D03*
X004467Y014209D03*
X004467Y014185D03*
X004467Y014182D03*
X004467Y014178D03*
X004467Y014175D03*
X004467Y014173D03*
X004467Y014168D03*
X004467Y014166D03*
X004467Y014161D03*
X004467Y014158D03*
X004467Y014156D03*
X004467Y014151D03*
X004467Y014149D03*
X004467Y014144D03*
X004467Y014142D03*
X004467Y014139D03*
X004467Y014134D03*
D183*
X004467Y014137D03*
X004467Y014146D03*
X004467Y014154D03*
X004467Y014163D03*
X004467Y014170D03*
X004467Y014180D03*
X004467Y014206D03*
X004467Y014214D03*
X004467Y014223D03*
X004467Y014230D03*
X004779Y014874D03*
X004467Y015166D03*
X004467Y015174D03*
X004467Y015183D03*
X004467Y015190D03*
X004467Y015217D03*
X004467Y015226D03*
X004467Y015234D03*
X004467Y015243D03*
X004467Y015250D03*
X004467Y015260D03*
X005473Y015243D03*
X005473Y015234D03*
X005473Y015226D03*
X005473Y015217D03*
X005473Y015190D03*
X005473Y015183D03*
X005473Y015174D03*
X005473Y015166D03*
X006099Y015166D03*
X006099Y015174D03*
X006099Y015234D03*
X006099Y015243D03*
X006099Y015250D03*
X006099Y015260D03*
X006099Y014240D03*
X006099Y014230D03*
X006099Y014163D03*
X006099Y014154D03*
X006099Y014146D03*
X006099Y014137D03*
X005473Y014154D03*
X005473Y014163D03*
X005473Y014170D03*
X005473Y014180D03*
X005473Y014206D03*
X005473Y014214D03*
X005473Y014223D03*
X005473Y014230D03*
D184*
X005476Y014242D03*
X005476Y014245D03*
X005476Y014247D03*
X005476Y014252D03*
X005476Y014151D03*
X005476Y014149D03*
X005476Y014144D03*
X005476Y014142D03*
X005476Y014139D03*
X005083Y014269D03*
X005083Y014271D03*
X005476Y015147D03*
X005476Y015152D03*
X005476Y015154D03*
X005476Y015159D03*
X005476Y015162D03*
X005476Y015164D03*
X005476Y015246D03*
X005476Y015248D03*
X005476Y015253D03*
X005476Y015255D03*
X005476Y015258D03*
X005476Y015262D03*
X005476Y015265D03*
D185*
X005476Y015260D03*
X005476Y015250D03*
X005476Y015157D03*
X005476Y015150D03*
X005476Y014250D03*
X005476Y014240D03*
X005476Y014146D03*
X005083Y014266D03*
D186*
X005100Y014221D03*
X005100Y014218D03*
X005100Y014216D03*
X005100Y014211D03*
X005100Y014209D03*
X005100Y014204D03*
X005100Y014202D03*
X005100Y014199D03*
X005100Y014194D03*
X005100Y014192D03*
X005100Y014187D03*
X005100Y014185D03*
X005100Y014182D03*
X005100Y014178D03*
X005100Y014175D03*
X005100Y014173D03*
X005100Y014168D03*
X005100Y014166D03*
X005100Y015181D03*
X005100Y015186D03*
X005100Y015188D03*
X005100Y015193D03*
X005100Y015195D03*
X005100Y015198D03*
X005100Y015202D03*
X005100Y015205D03*
X005100Y015207D03*
X005100Y015212D03*
X005100Y015214D03*
X005100Y015219D03*
X005100Y015222D03*
X005100Y015224D03*
X005100Y015229D03*
X005100Y015231D03*
D187*
X005469Y015212D03*
X005469Y015207D03*
X005469Y015205D03*
X005469Y015202D03*
X005496Y015128D03*
X005496Y015126D03*
X005496Y015279D03*
X005496Y015282D03*
X005496Y015284D03*
X006103Y015231D03*
X006103Y015229D03*
X006103Y015224D03*
X006103Y015222D03*
X006103Y015219D03*
X006103Y015214D03*
X006103Y015212D03*
X006103Y015207D03*
X006103Y015205D03*
X006103Y015202D03*
X006103Y015198D03*
X006103Y015195D03*
X006103Y015193D03*
X006103Y015188D03*
X006103Y015186D03*
X006103Y015181D03*
X006103Y014221D03*
X006103Y014218D03*
X006103Y014216D03*
X006103Y014211D03*
X006103Y014209D03*
X006103Y014204D03*
X006103Y014202D03*
X006103Y014199D03*
X006103Y014194D03*
X006103Y014192D03*
X006103Y014187D03*
X006103Y014185D03*
X006103Y014182D03*
X006103Y014178D03*
X006103Y014175D03*
X006103Y014173D03*
X006103Y014168D03*
X006103Y014166D03*
X005503Y014276D03*
X005503Y014278D03*
X005469Y014204D03*
X005469Y014202D03*
X005469Y014199D03*
X005469Y014194D03*
X005469Y014192D03*
X005469Y014187D03*
X004497Y014276D03*
X004497Y014278D03*
X004464Y014204D03*
X004464Y014202D03*
X004464Y014199D03*
X004464Y014194D03*
X004464Y014192D03*
X004464Y014187D03*
X004490Y015126D03*
X004490Y015128D03*
X004464Y015202D03*
X004464Y015205D03*
X004464Y015207D03*
X004464Y015212D03*
X004464Y015267D03*
X004464Y015272D03*
D188*
X005100Y015226D03*
X005100Y015217D03*
X005100Y015210D03*
X005100Y015200D03*
X005100Y015190D03*
X005100Y015183D03*
X005100Y014223D03*
X005100Y014214D03*
X005100Y014206D03*
X005100Y014197D03*
X005100Y014190D03*
X005100Y014180D03*
X005100Y014170D03*
D189*
X005469Y014190D03*
X005469Y014197D03*
X005503Y014274D03*
X006103Y014223D03*
X006103Y014214D03*
X006103Y014206D03*
X006103Y014197D03*
X006103Y014190D03*
X006103Y014180D03*
X006103Y014170D03*
X006103Y015183D03*
X006103Y015190D03*
X006103Y015200D03*
X006103Y015210D03*
X006103Y015217D03*
X006103Y015226D03*
X005496Y015130D03*
X005469Y015200D03*
X005469Y015210D03*
X004490Y015130D03*
X004464Y015200D03*
X004464Y015210D03*
X004464Y015270D03*
X004497Y014274D03*
X004464Y014197D03*
X004464Y014190D03*
D190*
X006096Y014247D03*
X006096Y014252D03*
X006096Y014254D03*
X006096Y015142D03*
X006096Y015145D03*
X006096Y015147D03*
X006096Y015152D03*
X006096Y015154D03*
D191*
X006096Y015157D03*
X006096Y015150D03*
X006096Y015140D03*
X006096Y014257D03*
X006096Y014250D03*
D192*
X006093Y014259D03*
X006093Y014262D03*
X006093Y014264D03*
X006093Y015133D03*
X006093Y015135D03*
X006093Y015138D03*
X004473Y015142D03*
X004473Y015145D03*
X004473Y014264D03*
X004473Y014262D03*
X004473Y014259D03*
X004473Y014254D03*
D193*
X004473Y014257D03*
X004473Y015140D03*
D194*
X004456Y015277D03*
X005064Y014274D03*
D195*
X006066Y014274D03*
X006066Y015123D03*
D196*
X006066Y015121D03*
X006066Y014278D03*
X006066Y014276D03*
D197*
X005040Y014281D03*
X005040Y015116D03*
X005040Y015118D03*
D198*
X005040Y015114D03*
X005040Y014283D03*
D199*
X004563Y014307D03*
X004563Y014312D03*
X004537Y014288D03*
X004537Y014286D03*
X005790Y015553D03*
X005790Y015555D03*
X005790Y015558D03*
D200*
X004779Y014545D03*
X004779Y014542D03*
X005019Y014288D03*
X005019Y014286D03*
X006006Y014307D03*
X006006Y014312D03*
D201*
X004563Y014310D03*
X004537Y014290D03*
D202*
X004779Y014540D03*
X005019Y014290D03*
X006006Y014310D03*
D203*
X006026Y014290D03*
X005793Y014540D03*
X004560Y014300D03*
X004560Y015097D03*
D204*
X004550Y015106D03*
X004996Y014310D03*
X005570Y014300D03*
X005570Y015097D03*
X005563Y015310D03*
D205*
X005536Y015118D03*
X005536Y015116D03*
X004790Y015546D03*
X004790Y015548D03*
X004576Y015085D03*
X004576Y015082D03*
X005990Y014324D03*
X005990Y014322D03*
X005990Y014319D03*
D206*
X005793Y014866D03*
X004593Y014326D03*
D207*
X004593Y014329D03*
X004593Y014331D03*
X005793Y014869D03*
X005793Y014871D03*
D208*
X004780Y015063D03*
X004780Y015070D03*
X004780Y014334D03*
D209*
X005793Y014334D03*
X005793Y015070D03*
D210*
X005786Y014984D03*
X005786Y014982D03*
X005786Y014979D03*
X004780Y014979D03*
X004780Y014982D03*
X004780Y014984D03*
X004780Y015061D03*
X004780Y015066D03*
X004780Y015068D03*
X004780Y014338D03*
X004780Y014336D03*
D211*
X005793Y014336D03*
X005793Y014338D03*
X005793Y015066D03*
X005793Y015068D03*
D212*
X005790Y015061D03*
X005790Y015058D03*
X005790Y015056D03*
X005790Y014418D03*
X005790Y014415D03*
X005790Y014413D03*
X005790Y014341D03*
X004784Y014413D03*
X004784Y014415D03*
X004784Y014418D03*
X004777Y014341D03*
X004777Y015056D03*
X004777Y015058D03*
D213*
X004777Y015054D03*
X004777Y014343D03*
X005790Y014343D03*
X005790Y015054D03*
X005790Y015063D03*
D214*
X005786Y014998D03*
X005786Y014996D03*
X005786Y014991D03*
X005786Y014989D03*
X005786Y014408D03*
X005786Y014406D03*
X004780Y014406D03*
X004780Y014408D03*
X004780Y014348D03*
X004780Y014346D03*
X004780Y014989D03*
X004780Y014991D03*
X004780Y015049D03*
X004780Y015051D03*
D215*
X005793Y015051D03*
X005793Y015049D03*
X005793Y014348D03*
X005793Y014346D03*
D216*
X005786Y014410D03*
X005786Y014986D03*
X005786Y014994D03*
X004780Y014986D03*
X004780Y015046D03*
X004780Y014410D03*
X004780Y014350D03*
D217*
X005793Y014350D03*
X005793Y015046D03*
D218*
X005790Y015044D03*
X005790Y015042D03*
X005790Y015039D03*
X005790Y014401D03*
X005790Y014365D03*
X005790Y014362D03*
X005790Y014358D03*
X005790Y014355D03*
X005790Y014353D03*
X004777Y014353D03*
X004777Y014355D03*
X004777Y014358D03*
X004777Y015039D03*
X004777Y015042D03*
X004777Y015044D03*
D219*
X004780Y015037D03*
X004780Y015003D03*
X004780Y014370D03*
X004780Y014360D03*
X005793Y014370D03*
X005786Y015003D03*
X005793Y015037D03*
D220*
X005790Y014403D03*
X005790Y014360D03*
D221*
X005793Y014367D03*
X005793Y014372D03*
X005786Y015001D03*
X005793Y015034D03*
X004780Y015034D03*
X004780Y015001D03*
X004780Y014372D03*
X004780Y014367D03*
X004780Y014365D03*
X004780Y014362D03*
D222*
X004777Y014374D03*
X004777Y015027D03*
X004777Y015032D03*
X005790Y015032D03*
X005790Y015027D03*
X005790Y015025D03*
X005790Y015022D03*
X005790Y014398D03*
X005790Y014396D03*
X005790Y014374D03*
D223*
X005790Y014377D03*
X005790Y014394D03*
X005790Y015020D03*
X005790Y015030D03*
X004777Y015030D03*
X004777Y014377D03*
D224*
X004779Y014379D03*
X004779Y014382D03*
X004779Y014384D03*
X004779Y014389D03*
X004779Y014391D03*
X004779Y015006D03*
X004779Y015008D03*
X004779Y015013D03*
X004779Y015015D03*
X004779Y015018D03*
X004779Y015022D03*
X004779Y015025D03*
X005787Y015018D03*
X005787Y015015D03*
X005787Y015013D03*
X005787Y015008D03*
X005787Y015006D03*
X005787Y014391D03*
X005787Y014389D03*
X005792Y014384D03*
X005792Y014382D03*
X005792Y014379D03*
D225*
X005787Y014386D03*
X005787Y015010D03*
X004779Y015010D03*
X004779Y015020D03*
X004779Y014386D03*
D226*
X004783Y014394D03*
D227*
X004783Y014396D03*
X004783Y014398D03*
D228*
X004784Y014401D03*
X004784Y014996D03*
X004784Y014998D03*
D229*
X004784Y014994D03*
X004784Y014403D03*
D230*
X004783Y014420D03*
X004783Y014977D03*
D231*
X005790Y014420D03*
D232*
X004783Y014422D03*
X004783Y014425D03*
X004783Y014974D03*
D233*
X005790Y014425D03*
X005790Y014422D03*
D234*
X004783Y014427D03*
X004783Y014432D03*
X004783Y014434D03*
D235*
X004779Y014967D03*
X004779Y014972D03*
X005787Y014972D03*
X005787Y014974D03*
X005787Y014967D03*
X005787Y014432D03*
X005787Y014427D03*
D236*
X004783Y014430D03*
X004783Y014437D03*
D237*
X004779Y014970D03*
X005787Y014970D03*
X005787Y014977D03*
X005787Y014430D03*
D238*
X005790Y014434D03*
D239*
X005790Y014437D03*
D240*
X004783Y014439D03*
X004783Y014442D03*
X004783Y014444D03*
D241*
X005790Y014444D03*
X005790Y014442D03*
X005790Y014439D03*
D242*
X005790Y014454D03*
X004784Y014454D03*
X004784Y014446D03*
X004784Y014950D03*
D243*
X005786Y014950D03*
X005786Y014446D03*
D244*
X005790Y014456D03*
X005790Y014458D03*
X004784Y014458D03*
X004784Y014456D03*
X004784Y014451D03*
X004784Y014449D03*
X004784Y014946D03*
X004784Y014948D03*
D245*
X004780Y014953D03*
X004780Y014955D03*
X004780Y014958D03*
X005786Y014958D03*
X005786Y014955D03*
X005786Y014953D03*
X005786Y014948D03*
X005786Y014946D03*
X005786Y014451D03*
X005786Y014449D03*
D246*
X004783Y014461D03*
D247*
X005790Y014461D03*
D248*
X004783Y014463D03*
D249*
X005790Y014463D03*
D250*
X005788Y014466D03*
X005788Y014468D03*
X005788Y014473D03*
X005788Y014475D03*
X005788Y014478D03*
X005788Y014881D03*
X004783Y014881D03*
X004783Y014929D03*
X004783Y014931D03*
X004783Y014478D03*
X004783Y014475D03*
X004783Y014473D03*
X004783Y014468D03*
X004783Y014466D03*
D251*
X004783Y014470D03*
X004783Y014883D03*
X004783Y014926D03*
X005788Y014883D03*
X005788Y014470D03*
D252*
X004783Y014480D03*
X004783Y014890D03*
D253*
X005790Y014890D03*
X005790Y014480D03*
D254*
X004783Y014482D03*
X004783Y014485D03*
X004783Y014886D03*
X004783Y014888D03*
D255*
X005790Y014888D03*
X005790Y014886D03*
X005790Y014485D03*
X005790Y014482D03*
D256*
X004784Y014487D03*
X004784Y014492D03*
X004784Y014494D03*
X004784Y014499D03*
X004784Y014502D03*
X004784Y014504D03*
X004784Y014893D03*
X004784Y014895D03*
X004784Y014898D03*
X004784Y014902D03*
X004784Y014905D03*
X004784Y014907D03*
X004784Y014912D03*
D257*
X005790Y014504D03*
X005790Y014502D03*
X005790Y014499D03*
X005790Y014494D03*
X005790Y014492D03*
X005790Y014487D03*
D258*
X004784Y014490D03*
X004784Y014497D03*
X004784Y014900D03*
X004784Y014910D03*
D259*
X005790Y014497D03*
X005790Y014490D03*
D260*
X005786Y014506D03*
X005786Y014900D03*
X005786Y014910D03*
X005786Y014917D03*
X004780Y014917D03*
X004780Y014506D03*
D261*
X004780Y014509D03*
X004780Y014511D03*
X004780Y014914D03*
X005786Y014914D03*
X005786Y014912D03*
X005786Y014907D03*
X005786Y014905D03*
X005786Y014902D03*
X005786Y014898D03*
X005786Y014895D03*
X005786Y014893D03*
X005786Y014511D03*
X005786Y014509D03*
D262*
X004779Y014514D03*
D263*
X005786Y014514D03*
D264*
X004779Y014516D03*
X004779Y014518D03*
X004779Y014919D03*
X004779Y014922D03*
X004779Y014924D03*
D265*
X005786Y014924D03*
X005786Y014922D03*
X005786Y014919D03*
X005786Y014518D03*
X005786Y014516D03*
D266*
X004779Y014521D03*
X004779Y014936D03*
X004779Y014938D03*
D267*
X005786Y014938D03*
X005786Y014936D03*
X005786Y014931D03*
X005786Y014929D03*
X005786Y014521D03*
D268*
X004779Y014523D03*
X004779Y014934D03*
D269*
X005786Y014934D03*
X005786Y014926D03*
X005786Y014523D03*
D270*
X004777Y014526D03*
X004777Y014528D03*
D271*
X005070Y014528D03*
X005070Y014526D03*
X005070Y014869D03*
X005070Y014871D03*
X005790Y014624D03*
X005790Y014622D03*
X005790Y014619D03*
X005790Y014614D03*
X005790Y014612D03*
X005790Y014607D03*
X005790Y015613D03*
X005790Y015615D03*
X005790Y015618D03*
X005790Y015622D03*
X005790Y015625D03*
X005790Y015627D03*
X005790Y015632D03*
D272*
X005067Y015284D03*
X005067Y015282D03*
X005067Y015279D03*
X005792Y014528D03*
X005792Y014526D03*
D273*
X006076Y014526D03*
X006076Y014528D03*
X006076Y014869D03*
X006076Y014871D03*
D274*
X004777Y014530D03*
D275*
X005070Y014530D03*
X005070Y014866D03*
X005790Y014617D03*
X005790Y014610D03*
X005790Y015620D03*
X005790Y015630D03*
D276*
X005792Y014530D03*
D277*
X006076Y014530D03*
X006076Y014866D03*
D278*
X004490Y014540D03*
D279*
X005073Y014540D03*
X005073Y014857D03*
D280*
X004490Y014545D03*
X004490Y014542D03*
D281*
X005073Y014542D03*
X005073Y014545D03*
X005073Y014854D03*
D282*
X004783Y014698D03*
X004783Y014696D03*
X004490Y014552D03*
X004490Y014547D03*
X004490Y014854D03*
X004783Y015699D03*
X004783Y015702D03*
X004783Y015704D03*
D283*
X004470Y015291D03*
X004470Y015289D03*
X004777Y014552D03*
X004777Y014547D03*
X005790Y014547D03*
X005790Y014552D03*
D284*
X005790Y014696D03*
X005790Y014698D03*
X005497Y014552D03*
X005497Y014547D03*
X005497Y014854D03*
X006090Y015306D03*
X006090Y015308D03*
X005790Y015699D03*
X005790Y015702D03*
X005790Y015704D03*
X005497Y015558D03*
X005497Y015555D03*
X005497Y015553D03*
X005077Y015553D03*
X005077Y015555D03*
X005077Y015558D03*
D285*
X006080Y014852D03*
X006080Y014847D03*
X006080Y014552D03*
X006080Y014547D03*
D286*
X004783Y014694D03*
X004490Y014550D03*
X004490Y014857D03*
D287*
X004777Y014550D03*
X004470Y015286D03*
X005790Y014550D03*
D288*
X005790Y014694D03*
X005497Y014550D03*
X005497Y014857D03*
X006090Y015310D03*
D289*
X006080Y014850D03*
X006080Y014550D03*
D290*
X005496Y014847D03*
X005496Y014852D03*
X005496Y015562D03*
X005496Y015565D03*
X005076Y015565D03*
X005076Y015562D03*
X004471Y015318D03*
X004471Y015315D03*
X004471Y015313D03*
X004490Y014852D03*
X004490Y014847D03*
X004490Y014554D03*
D291*
X006080Y014554D03*
D292*
X005496Y014850D03*
X005496Y015560D03*
X005076Y015560D03*
X004490Y014850D03*
X004490Y014557D03*
D293*
X005077Y014557D03*
X005077Y014840D03*
D294*
X006080Y014557D03*
D295*
X006106Y015322D03*
X006106Y015325D03*
X004486Y014845D03*
X004486Y014842D03*
X004486Y014564D03*
X004486Y014562D03*
X004486Y014559D03*
D296*
X004784Y014559D03*
X004784Y014562D03*
X004784Y014564D03*
X004484Y015296D03*
X004484Y015298D03*
D297*
X005493Y015567D03*
X005493Y015572D03*
X005493Y014845D03*
X005493Y014842D03*
X005493Y014564D03*
X005493Y014562D03*
X005493Y014559D03*
D298*
X005790Y014559D03*
X005790Y014562D03*
X005790Y014564D03*
X005790Y015574D03*
D299*
X005080Y015577D03*
X004488Y014566D03*
D300*
X005493Y014566D03*
X005493Y015577D03*
D301*
X005790Y015586D03*
X005790Y015594D03*
X006082Y015294D03*
X005790Y014823D03*
X005790Y014590D03*
X005790Y014583D03*
X005790Y014574D03*
X005790Y014566D03*
D302*
X006082Y014566D03*
X006082Y014830D03*
X006109Y015330D03*
D303*
X005080Y015574D03*
X004488Y014838D03*
X004488Y014835D03*
X004488Y014833D03*
X004488Y014571D03*
X004488Y014569D03*
D304*
X005493Y014569D03*
X005493Y014571D03*
X005493Y014833D03*
X005493Y014835D03*
X005493Y014838D03*
X005493Y015574D03*
D305*
X005790Y015579D03*
X005790Y015582D03*
X005790Y015584D03*
X005790Y015589D03*
X005790Y015591D03*
X005790Y015596D03*
X005790Y015598D03*
X006082Y015298D03*
X006082Y015296D03*
X005790Y014821D03*
X005790Y014588D03*
X005790Y014586D03*
X005790Y014581D03*
X005790Y014578D03*
X005790Y014576D03*
X005790Y014571D03*
X005790Y014569D03*
D306*
X006082Y014569D03*
X006082Y014571D03*
X006082Y014826D03*
X006082Y014828D03*
X006109Y015327D03*
X006109Y015332D03*
D307*
X004483Y014574D03*
X004449Y015337D03*
D308*
X005490Y014830D03*
X005490Y014574D03*
D309*
X004483Y014576D03*
X004483Y014578D03*
X004449Y015334D03*
X005083Y015579D03*
X005083Y015582D03*
X005083Y015584D03*
D310*
X005490Y015584D03*
X005490Y015582D03*
X005490Y015579D03*
X005490Y014828D03*
X005490Y014826D03*
X005490Y014578D03*
X005490Y014576D03*
D311*
X004483Y014581D03*
X004483Y014821D03*
X005083Y015589D03*
X005083Y015591D03*
D312*
X005490Y015591D03*
X005490Y015589D03*
X005490Y014821D03*
X005490Y014581D03*
D313*
X004483Y014583D03*
X004483Y014823D03*
X005083Y015586D03*
D314*
X005490Y015586D03*
X005490Y014823D03*
X005490Y014583D03*
D315*
X005486Y014590D03*
X005486Y014814D03*
X004480Y014590D03*
D316*
X004480Y014593D03*
X004480Y014595D03*
X004480Y014598D03*
X004480Y014809D03*
X004480Y014811D03*
X005486Y014811D03*
X005486Y014809D03*
X005486Y014598D03*
X005486Y014595D03*
X005486Y014593D03*
X005486Y015601D03*
D317*
X005486Y015603D03*
X005486Y014806D03*
X004480Y014806D03*
D318*
X004484Y014814D03*
D319*
X004484Y014816D03*
X004484Y014818D03*
D320*
X005079Y014826D03*
X005079Y014828D03*
D321*
X005079Y014830D03*
D322*
X004486Y014840D03*
X006106Y015320D03*
D323*
X005786Y014840D03*
X004780Y014840D03*
X004780Y015577D03*
D324*
X005493Y015570D03*
X005493Y014840D03*
D325*
X006082Y014840D03*
D326*
X005786Y014842D03*
X005786Y014845D03*
X004780Y014845D03*
X004780Y014842D03*
X004780Y015574D03*
D327*
X006082Y014845D03*
X006082Y014842D03*
D328*
X005788Y014847D03*
X005788Y014852D03*
X006096Y015289D03*
X006096Y015291D03*
X005796Y015567D03*
X005796Y015572D03*
X004776Y015572D03*
X004776Y015567D03*
X004776Y014852D03*
X004776Y014847D03*
D329*
X004776Y014850D03*
X004776Y015570D03*
X005796Y015570D03*
X006096Y015286D03*
X005788Y014850D03*
D330*
X005793Y014854D03*
X005013Y015301D03*
X004773Y015562D03*
X004773Y015565D03*
D331*
X004773Y015560D03*
X005013Y015303D03*
X005793Y014857D03*
D332*
X005889Y014874D03*
D333*
X005889Y014876D03*
X005889Y014878D03*
D334*
X005786Y014941D03*
X004780Y014941D03*
D335*
X004780Y014943D03*
X005786Y014943D03*
D336*
X004779Y014960D03*
D337*
X005786Y014960D03*
D338*
X004779Y014962D03*
X004779Y014965D03*
D339*
X005786Y014965D03*
X005786Y014962D03*
D340*
X005536Y015114D03*
X004790Y015550D03*
X004576Y015080D03*
D341*
X005060Y015121D03*
D342*
X005060Y015123D03*
D343*
X006082Y015126D03*
X006082Y015128D03*
D344*
X006082Y015130D03*
D345*
X006112Y015277D03*
D346*
X004484Y015294D03*
D347*
X004484Y015301D03*
D348*
X004484Y015303D03*
D349*
X004466Y015320D03*
X005080Y015570D03*
D350*
X005080Y015572D03*
X005080Y015567D03*
X004466Y015325D03*
X004466Y015322D03*
D351*
X004796Y015541D03*
X004976Y015334D03*
D352*
X004976Y015337D03*
X004796Y015543D03*
D353*
X004920Y015354D03*
D354*
X004920Y015356D03*
X004920Y015358D03*
D355*
X005666Y015414D03*
D356*
X005666Y015416D03*
X005666Y015418D03*
D357*
X004914Y015447D03*
X004914Y015452D03*
D358*
X004914Y015450D03*
D359*
X004914Y015459D03*
X004914Y015462D03*
X004914Y015464D03*
D360*
X005660Y015464D03*
X005660Y015462D03*
X005660Y015459D03*
D361*
X004916Y015466D03*
D362*
X005656Y015466D03*
D363*
X004916Y015469D03*
X004916Y015471D03*
D364*
X005670Y015534D03*
D365*
X005670Y015536D03*
X005670Y015538D03*
D366*
X005773Y015541D03*
D367*
X005773Y015543D03*
D368*
X005073Y015546D03*
X005073Y015548D03*
D369*
X005073Y015550D03*
D370*
X005790Y015577D03*
D371*
X005086Y015594D03*
D372*
X005490Y015594D03*
D373*
X005086Y015596D03*
X005086Y015598D03*
D374*
X005490Y015598D03*
X005490Y015596D03*
M02*
