%
M48
M72
T01C0.0130
T02C0.0190
T03C0.0197
T04C0.0236
T05C0.0315
T06C0.0320
T07C0.0433
T08C0.0460
T09C0.0512
%
T01
X21260Y17666
X4860Y8926
X5210Y9726
X5760Y10276
X9110Y12666
X9110Y13066
X9710Y13666
X9710Y14066
X9710Y15066
X10310Y15376
X9710Y15666
X10910Y15426
X12260Y15576
X12810Y15176
X12610Y14676
X12460Y14176
X12460Y13676
X12610Y12776
X12360Y12426
X14060Y13326
X14060Y13676
X14610Y13676
X14660Y13326
X14960Y12876
X15720Y12176
X15810Y11826
X15410Y11376
X15710Y11076
X16260Y10676
X16860Y11376
X18060Y11376
X18410Y11076
X19110Y10926
X19510Y10626
X18160Y12076
X18510Y12376
X18960Y12476
X19160Y12926
X18760Y12926
X18360Y12926
X17960Y12926
X17560Y13326
X16460Y14276
X17560Y14376
X17660Y16066
X17260Y16066
X16260Y17666
X15660Y17666
X15060Y17666
X14460Y17666
X13860Y17666
X13640Y16226
X15330Y15376
X14433Y14549
X13960Y14176
X14860Y11026
X16660Y9976
X17060Y9976
X21560Y16566
X21560Y17166
X20660Y17666
X11260Y17666
X10660Y17666
X10060Y17666
X9460Y17666
X8860Y17666
T02
X11260Y17126
T03
X9160Y10426
X9310Y9476
X15810Y8326
X18560Y8026
T04
X11460Y8576
X13460Y9126
X8860Y9126
X19160Y15076
T05
X14475Y3026
X16444Y3026
X16480Y1076
X14480Y1076
T06
X13260Y12676
X13260Y13676
X13260Y14676
T07
X14728Y16613
X20791Y16613
X18744Y5038
X16775Y5038
T08
X5860Y1876
X7860Y1876
X10510Y1876
X12510Y1876
X18610Y1926
X20610Y1926
T09
X5200Y4076
X8200Y5076
X10050Y4076
X10050Y7076
X10050Y11076
X8200Y11076
X5200Y11076
X5200Y7076
X13050Y11076
M30
