G75*
%MOIN*%
%OFA0B0*%
%FSLAX24Y24*%
%IPPOS*%
%LPD*%
%AMOC8*
5,1,8,0,0,1.08239X$1,22.5*
%
%ADD10C,0.0000*%
%ADD11C,0.0500*%
D10*
X003485Y000850D02*
X003485Y017220D01*
X003487Y017274D01*
X003493Y017327D01*
X003502Y017379D01*
X003515Y017431D01*
X003532Y017482D01*
X003553Y017532D01*
X003577Y017579D01*
X003604Y017625D01*
X003635Y017669D01*
X003668Y017711D01*
X003705Y017750D01*
X003744Y017787D01*
X003786Y017820D01*
X003830Y017851D01*
X003876Y017878D01*
X003923Y017902D01*
X003973Y017923D01*
X004024Y017940D01*
X004076Y017953D01*
X004128Y017962D01*
X004181Y017968D01*
X004235Y017970D01*
X020227Y017970D01*
X020276Y017976D01*
X020325Y017978D01*
X020374Y017976D01*
X020423Y017971D01*
X020471Y017962D01*
X020519Y017949D01*
X020566Y017933D01*
X020611Y017914D01*
X020654Y017891D01*
X020696Y017865D01*
X020736Y017836D01*
X020773Y017804D01*
X020808Y017769D01*
X020840Y017732D01*
X020870Y017692D01*
X020896Y017651D01*
X020919Y017607D01*
X020939Y017562D01*
X020955Y017516D01*
X020968Y017468D01*
X020977Y017420D01*
X020977Y000850D01*
X020975Y000796D01*
X020969Y000743D01*
X020960Y000691D01*
X020947Y000639D01*
X020930Y000588D01*
X020909Y000538D01*
X020885Y000491D01*
X020858Y000445D01*
X020827Y000401D01*
X020794Y000359D01*
X020757Y000320D01*
X020718Y000283D01*
X020676Y000250D01*
X020632Y000219D01*
X020586Y000192D01*
X020539Y000168D01*
X020489Y000147D01*
X020438Y000130D01*
X020386Y000117D01*
X020334Y000108D01*
X020281Y000102D01*
X020227Y000100D01*
X004235Y000100D01*
X004181Y000102D01*
X004128Y000108D01*
X004076Y000117D01*
X004024Y000130D01*
X003973Y000147D01*
X003923Y000168D01*
X003876Y000192D01*
X003830Y000219D01*
X003786Y000250D01*
X003744Y000283D01*
X003705Y000320D01*
X003668Y000359D01*
X003635Y000401D01*
X003604Y000445D01*
X003577Y000491D01*
X003553Y000538D01*
X003532Y000588D01*
X003515Y000639D01*
X003502Y000691D01*
X003493Y000743D01*
X003487Y000796D01*
X003485Y000850D01*
D11*
X005885Y000900D02*
X005885Y004900D01*
X005685Y005900D02*
X009685Y005900D01*
X008085Y005700D02*
X008085Y000900D01*
X010535Y000900D02*
X010535Y004500D01*
X011685Y005900D02*
X016885Y005900D01*
X020085Y005900D01*
X016885Y005900D02*
X016885Y004900D01*
X015885Y003900D01*
X014485Y003900D01*
X014485Y002100D01*
X016085Y002100D01*
X016111Y002093D02*
X017342Y003074D01*
X017485Y003100D02*
X018385Y003100D01*
X018535Y002950D01*
X018535Y001350D01*
X018985Y000900D01*
X014485Y000600D02*
X014485Y002100D01*
X010035Y008000D02*
X007835Y008000D01*
X005485Y008000D02*
X004085Y008000D01*
M02*
