G75*
%MOIN*%
%OFA0B0*%
%FSLAX24Y24*%
%IPPOS*%
%LPD*%
%AMOC8*
5,1,8,0,0,1.08239X$1,22.5*
%
%ADD10C,0.0000*%
%ADD11R,0.0400X0.0450*%
%ADD12R,0.0220X0.0780*%
%ADD13C,0.0079*%
%ADD14R,0.0512X0.0355*%
%ADD15R,0.0355X0.0512*%
%ADD16C,0.0787*%
%ADD17C,0.0860*%
%ADD18R,0.0220X0.0500*%
%ADD19R,0.0669X0.0276*%
%ADD20R,0.0394X0.0551*%
%ADD21R,0.0210X0.0500*%
%ADD22R,0.0500X0.0210*%
%ADD23R,0.0551X0.0354*%
%ADD24C,0.0660*%
%ADD25C,0.0700*%
%ADD26R,0.0327X0.0248*%
%ADD27R,0.0276X0.0394*%
%ADD28C,0.0768*%
%ADD29C,0.0100*%
%ADD30OC8,0.0480*%
%ADD31R,0.0800X0.0800*%
%ADD32C,0.0800*%
%ADD33R,0.0236X0.0866*%
%ADD34R,0.1102X0.1102*%
D10*
X003485Y000850D02*
X003485Y017220D01*
X003487Y017274D01*
X003493Y017327D01*
X003502Y017379D01*
X003515Y017431D01*
X003532Y017482D01*
X003553Y017532D01*
X003577Y017579D01*
X003604Y017625D01*
X003635Y017669D01*
X003668Y017711D01*
X003705Y017750D01*
X003744Y017787D01*
X003786Y017820D01*
X003830Y017851D01*
X003876Y017878D01*
X003923Y017902D01*
X003973Y017923D01*
X004024Y017940D01*
X004076Y017953D01*
X004128Y017962D01*
X004181Y017968D01*
X004235Y017970D01*
X020227Y017970D01*
X020276Y017976D01*
X020325Y017978D01*
X020374Y017976D01*
X020423Y017971D01*
X020471Y017962D01*
X020519Y017949D01*
X020566Y017933D01*
X020611Y017914D01*
X020654Y017891D01*
X020696Y017865D01*
X020736Y017836D01*
X020773Y017804D01*
X020808Y017769D01*
X020840Y017732D01*
X020870Y017692D01*
X020896Y017651D01*
X020919Y017607D01*
X020939Y017562D01*
X020955Y017516D01*
X020968Y017468D01*
X020977Y017420D01*
X020977Y000850D01*
X020975Y000796D01*
X020969Y000743D01*
X020960Y000691D01*
X020947Y000639D01*
X020930Y000588D01*
X020909Y000538D01*
X020885Y000491D01*
X020858Y000445D01*
X020827Y000401D01*
X020794Y000359D01*
X020757Y000320D01*
X020718Y000283D01*
X020676Y000250D01*
X020632Y000219D01*
X020586Y000192D01*
X020539Y000168D01*
X020489Y000147D01*
X020438Y000130D01*
X020386Y000117D01*
X020334Y000108D01*
X020281Y000102D01*
X020227Y000100D01*
X004235Y000100D01*
X004181Y000102D01*
X004128Y000108D01*
X004076Y000117D01*
X004024Y000130D01*
X003973Y000147D01*
X003923Y000168D01*
X003876Y000192D01*
X003830Y000219D01*
X003786Y000250D01*
X003744Y000283D01*
X003705Y000320D01*
X003668Y000359D01*
X003635Y000401D01*
X003604Y000445D01*
X003577Y000491D01*
X003553Y000538D01*
X003532Y000588D01*
X003515Y000639D01*
X003502Y000691D01*
X003493Y000743D01*
X003487Y000796D01*
X003485Y000850D01*
D11*
X019555Y009310D03*
X020255Y009310D03*
X019905Y008510D03*
D12*
X007435Y009120D03*
X006935Y009120D03*
X006435Y009120D03*
X005935Y009120D03*
X005935Y007180D03*
X006435Y007180D03*
X006935Y007180D03*
X007435Y007180D03*
D13*
X009062Y009038D02*
X009062Y009274D01*
X009062Y009038D02*
X008628Y009038D01*
X008628Y009274D01*
X009062Y009274D01*
X009062Y009116D02*
X008628Y009116D01*
X008628Y009194D02*
X009062Y009194D01*
X009062Y009272D02*
X008628Y009272D01*
X007947Y009663D02*
X007711Y009663D01*
X007711Y010097D01*
X007947Y010097D01*
X007947Y009663D01*
X007947Y009741D02*
X007711Y009741D01*
X007711Y009819D02*
X007947Y009819D01*
X007947Y009897D02*
X007711Y009897D01*
X007711Y009975D02*
X007947Y009975D01*
X007947Y010053D02*
X007711Y010053D01*
X007159Y009663D02*
X006923Y009663D01*
X006923Y010097D01*
X007159Y010097D01*
X007159Y009663D01*
X007159Y009741D02*
X006923Y009741D01*
X006923Y009819D02*
X007159Y009819D01*
X007159Y009897D02*
X006923Y009897D01*
X006923Y009975D02*
X007159Y009975D01*
X007159Y010053D02*
X006923Y010053D01*
X009062Y010062D02*
X009062Y009826D01*
X008628Y009826D01*
X008628Y010062D01*
X009062Y010062D01*
X009062Y009904D02*
X008628Y009904D01*
X008628Y009982D02*
X009062Y009982D01*
X009062Y010060D02*
X008628Y010060D01*
X011668Y010026D02*
X011668Y010262D01*
X012102Y010262D01*
X012102Y010026D01*
X011668Y010026D01*
X011668Y010104D02*
X012102Y010104D01*
X012102Y010182D02*
X011668Y010182D01*
X011668Y010260D02*
X012102Y010260D01*
X012673Y009833D02*
X012909Y009833D01*
X012673Y009833D02*
X012673Y010267D01*
X012909Y010267D01*
X012909Y009833D01*
X012909Y009911D02*
X012673Y009911D01*
X012673Y009989D02*
X012909Y009989D01*
X012909Y010067D02*
X012673Y010067D01*
X012673Y010145D02*
X012909Y010145D01*
X012909Y010223D02*
X012673Y010223D01*
X013461Y009833D02*
X013697Y009833D01*
X013461Y009833D02*
X013461Y010267D01*
X013697Y010267D01*
X013697Y009833D01*
X013697Y009911D02*
X013461Y009911D01*
X013461Y009989D02*
X013697Y009989D01*
X013697Y010067D02*
X013461Y010067D01*
X013461Y010145D02*
X013697Y010145D01*
X013697Y010223D02*
X013461Y010223D01*
X013441Y009437D02*
X013677Y009437D01*
X013677Y009003D01*
X013441Y009003D01*
X013441Y009437D01*
X013441Y009081D02*
X013677Y009081D01*
X013677Y009159D02*
X013441Y009159D01*
X013441Y009237D02*
X013677Y009237D01*
X013677Y009315D02*
X013441Y009315D01*
X013441Y009393D02*
X013677Y009393D01*
X014452Y009412D02*
X014452Y009176D01*
X014018Y009176D01*
X014018Y009412D01*
X014452Y009412D01*
X014452Y009254D02*
X014018Y009254D01*
X014018Y009332D02*
X014452Y009332D01*
X014452Y009410D02*
X014018Y009410D01*
X014452Y008624D02*
X014452Y008388D01*
X014018Y008388D01*
X014018Y008624D01*
X014452Y008624D01*
X014452Y008466D02*
X014018Y008466D01*
X014018Y008544D02*
X014452Y008544D01*
X014452Y008622D02*
X014018Y008622D01*
X012889Y009437D02*
X012653Y009437D01*
X012889Y009437D02*
X012889Y009003D01*
X012653Y009003D01*
X012653Y009437D01*
X012653Y009081D02*
X012889Y009081D01*
X012889Y009159D02*
X012653Y009159D01*
X012653Y009237D02*
X012889Y009237D01*
X012889Y009315D02*
X012653Y009315D01*
X012653Y009393D02*
X012889Y009393D01*
X011668Y009474D02*
X011668Y009238D01*
X011668Y009474D02*
X012102Y009474D01*
X012102Y009238D01*
X011668Y009238D01*
X011668Y009316D02*
X012102Y009316D01*
X012102Y009394D02*
X011668Y009394D01*
X011668Y009472D02*
X012102Y009472D01*
X012498Y008612D02*
X012498Y008376D01*
X012498Y008612D02*
X012932Y008612D01*
X012932Y008376D01*
X012498Y008376D01*
X012498Y008454D02*
X012932Y008454D01*
X012932Y008532D02*
X012498Y008532D01*
X012498Y008610D02*
X012932Y008610D01*
X012498Y007824D02*
X012498Y007588D01*
X012498Y007824D02*
X012932Y007824D01*
X012932Y007588D01*
X012498Y007588D01*
X012498Y007666D02*
X012932Y007666D01*
X012932Y007744D02*
X012498Y007744D01*
X012498Y007822D02*
X012932Y007822D01*
X016118Y008608D02*
X016118Y008844D01*
X016552Y008844D01*
X016552Y008608D01*
X016118Y008608D01*
X016118Y008686D02*
X016552Y008686D01*
X016552Y008764D02*
X016118Y008764D01*
X016118Y008842D02*
X016552Y008842D01*
X016118Y009396D02*
X016118Y009632D01*
X016552Y009632D01*
X016552Y009396D01*
X016118Y009396D01*
X016118Y009474D02*
X016552Y009474D01*
X016552Y009552D02*
X016118Y009552D01*
X016118Y009630D02*
X016552Y009630D01*
X019373Y009783D02*
X019609Y009783D01*
X019373Y009783D02*
X019373Y010217D01*
X019609Y010217D01*
X019609Y009783D01*
X019609Y009861D02*
X019373Y009861D01*
X019373Y009939D02*
X019609Y009939D01*
X019609Y010017D02*
X019373Y010017D01*
X019373Y010095D02*
X019609Y010095D01*
X019609Y010173D02*
X019373Y010173D01*
X020161Y009783D02*
X020397Y009783D01*
X020161Y009783D02*
X020161Y010217D01*
X020397Y010217D01*
X020397Y009783D01*
X020397Y009861D02*
X020161Y009861D01*
X020161Y009939D02*
X020397Y009939D01*
X020397Y010017D02*
X020161Y010017D01*
X020161Y010095D02*
X020397Y010095D01*
X020397Y010173D02*
X020161Y010173D01*
X020422Y011338D02*
X020422Y011574D01*
X020422Y011338D02*
X019988Y011338D01*
X019988Y011574D01*
X020422Y011574D01*
X020422Y011416D02*
X019988Y011416D01*
X019988Y011494D02*
X020422Y011494D01*
X020422Y011572D02*
X019988Y011572D01*
X020422Y012126D02*
X020422Y012362D01*
X020422Y012126D02*
X019988Y012126D01*
X019988Y012362D01*
X020422Y012362D01*
X020422Y012204D02*
X019988Y012204D01*
X019988Y012282D02*
X020422Y012282D01*
X020422Y012360D02*
X019988Y012360D01*
X020151Y012703D02*
X020387Y012703D01*
X020151Y012703D02*
X020151Y013137D01*
X020387Y013137D01*
X020387Y012703D01*
X020387Y012781D02*
X020151Y012781D01*
X020151Y012859D02*
X020387Y012859D01*
X020387Y012937D02*
X020151Y012937D01*
X020151Y013015D02*
X020387Y013015D01*
X020387Y013093D02*
X020151Y013093D01*
X019599Y012703D02*
X019363Y012703D01*
X019363Y013137D01*
X019599Y013137D01*
X019599Y012703D01*
X019599Y012781D02*
X019363Y012781D01*
X019363Y012859D02*
X019599Y012859D01*
X019599Y012937D02*
X019363Y012937D01*
X019363Y013015D02*
X019599Y013015D01*
X019599Y013093D02*
X019363Y013093D01*
X016437Y015087D02*
X016201Y015087D01*
X016437Y015087D02*
X016437Y014653D01*
X016201Y014653D01*
X016201Y015087D01*
X016201Y014731D02*
X016437Y014731D01*
X016437Y014809D02*
X016201Y014809D01*
X016201Y014887D02*
X016437Y014887D01*
X016437Y014965D02*
X016201Y014965D01*
X016201Y015043D02*
X016437Y015043D01*
X015649Y015087D02*
X015413Y015087D01*
X015649Y015087D02*
X015649Y014653D01*
X015413Y014653D01*
X015413Y015087D01*
X015413Y014731D02*
X015649Y014731D01*
X015649Y014809D02*
X015413Y014809D01*
X015413Y014887D02*
X015649Y014887D01*
X015649Y014965D02*
X015413Y014965D01*
X015413Y015043D02*
X015649Y015043D01*
X014237Y015313D02*
X014001Y015313D01*
X014001Y015747D01*
X014237Y015747D01*
X014237Y015313D01*
X014237Y015391D02*
X014001Y015391D01*
X014001Y015469D02*
X014237Y015469D01*
X014237Y015547D02*
X014001Y015547D01*
X014001Y015625D02*
X014237Y015625D01*
X014237Y015703D02*
X014001Y015703D01*
X013449Y015313D02*
X013213Y015313D01*
X013213Y015747D01*
X013449Y015747D01*
X013449Y015313D01*
X013449Y015391D02*
X013213Y015391D01*
X013213Y015469D02*
X013449Y015469D01*
X013449Y015547D02*
X013213Y015547D01*
X013213Y015625D02*
X013449Y015625D01*
X013449Y015703D02*
X013213Y015703D01*
X012897Y015333D02*
X012661Y015333D01*
X012661Y015767D01*
X012897Y015767D01*
X012897Y015333D01*
X012897Y015411D02*
X012661Y015411D01*
X012661Y015489D02*
X012897Y015489D01*
X012897Y015567D02*
X012661Y015567D01*
X012661Y015645D02*
X012897Y015645D01*
X012897Y015723D02*
X012661Y015723D01*
X012109Y015333D02*
X011873Y015333D01*
X011873Y015767D01*
X012109Y015767D01*
X012109Y015333D01*
X012109Y015411D02*
X011873Y015411D01*
X011873Y015489D02*
X012109Y015489D01*
X012109Y015567D02*
X011873Y015567D01*
X011873Y015645D02*
X012109Y015645D01*
X012109Y015723D02*
X011873Y015723D01*
X012973Y011617D02*
X013209Y011617D01*
X013209Y011183D01*
X012973Y011183D01*
X012973Y011617D01*
X012973Y011261D02*
X013209Y011261D01*
X013209Y011339D02*
X012973Y011339D01*
X012973Y011417D02*
X013209Y011417D01*
X013209Y011495D02*
X012973Y011495D01*
X012973Y011573D02*
X013209Y011573D01*
X013761Y011617D02*
X013997Y011617D01*
X013997Y011183D01*
X013761Y011183D01*
X013761Y011617D01*
X013761Y011261D02*
X013997Y011261D01*
X013997Y011339D02*
X013761Y011339D01*
X013761Y011417D02*
X013997Y011417D01*
X013997Y011495D02*
X013761Y011495D01*
X013761Y011573D02*
X013997Y011573D01*
D14*
X017085Y009482D03*
X017085Y008695D03*
X017085Y008294D03*
X017085Y007506D03*
X015285Y007686D03*
X015285Y008474D03*
X013545Y008474D03*
X013545Y007686D03*
X009695Y009146D03*
X009695Y009934D03*
X006285Y009856D03*
X006285Y010644D03*
X012065Y016576D03*
X012065Y017364D03*
X014855Y016064D03*
X014855Y015276D03*
X016885Y014906D03*
X016885Y015694D03*
X017085Y016636D03*
X017085Y017424D03*
X018075Y017434D03*
X018075Y016646D03*
X019035Y016606D03*
X019035Y017394D03*
X018885Y015594D03*
X018885Y014806D03*
D15*
X016289Y015660D03*
X015501Y015660D03*
X015229Y016780D03*
X014441Y016780D03*
X019491Y010900D03*
X020279Y010900D03*
X020079Y007900D03*
X019291Y007900D03*
X008829Y008700D03*
X008041Y008700D03*
D16*
X013753Y016587D03*
X019816Y016587D03*
D17*
X017769Y005013D03*
X015801Y005013D03*
D18*
X011215Y009070D03*
X010455Y009070D03*
X010455Y010030D03*
X010835Y010030D03*
X011215Y010030D03*
D19*
X019876Y013889D03*
X019876Y014361D03*
X019876Y014834D03*
D20*
X016409Y016467D03*
X015661Y016467D03*
X016035Y017333D03*
D21*
X015947Y013825D03*
X016262Y013825D03*
X016577Y013825D03*
X016892Y013825D03*
X017207Y013825D03*
X017522Y013825D03*
X017837Y013825D03*
X018152Y013825D03*
X018152Y010445D03*
X017837Y010445D03*
X017522Y010445D03*
X017207Y010445D03*
X016892Y010445D03*
X016577Y010445D03*
X016262Y010445D03*
X015947Y010445D03*
D22*
X015359Y011033D03*
X015359Y011348D03*
X015359Y011663D03*
X015359Y011978D03*
X015359Y012293D03*
X015359Y012608D03*
X015359Y012923D03*
X015359Y013238D03*
X018739Y013238D03*
X018739Y012923D03*
X018739Y012608D03*
X018739Y012293D03*
X018739Y011978D03*
X018739Y011663D03*
X018739Y011348D03*
X018739Y011033D03*
D23*
X010824Y013150D03*
X010824Y013650D03*
X010824Y014150D03*
X010824Y014650D03*
X010824Y015150D03*
X010824Y015650D03*
X010824Y016150D03*
X010824Y016650D03*
D24*
X013501Y003000D03*
X015469Y003000D03*
D25*
X015505Y001050D03*
X013505Y001050D03*
D26*
X011885Y008047D03*
X011885Y008953D03*
D27*
X004629Y009198D03*
X004255Y009198D03*
X003881Y009198D03*
X003881Y010142D03*
X004255Y010142D03*
X004629Y010142D03*
D28*
X004225Y011050D03*
X007225Y011050D03*
X009075Y011050D03*
X012075Y011050D03*
X009075Y007050D03*
X007225Y005050D03*
X009075Y004050D03*
X004225Y004050D03*
X004225Y007050D03*
D29*
X017510Y014900D02*
X017510Y015200D01*
X017960Y015200D01*
X017960Y014900D01*
X017510Y014900D01*
X017510Y014999D02*
X017960Y014999D01*
X017960Y015098D02*
X017510Y015098D01*
X017510Y015197D02*
X017960Y015197D01*
X017510Y015600D02*
X017510Y015900D01*
X017960Y015900D01*
X017960Y015600D01*
X017510Y015600D01*
X017510Y015699D02*
X017960Y015699D01*
X017960Y015798D02*
X017510Y015798D01*
X017510Y015897D02*
X017960Y015897D01*
X018085Y009825D02*
X017785Y009825D01*
X018085Y009825D02*
X018085Y009375D01*
X017785Y009375D01*
X017785Y009825D01*
X017785Y009474D02*
X018085Y009474D01*
X018085Y009573D02*
X017785Y009573D01*
X017785Y009672D02*
X018085Y009672D01*
X018085Y009771D02*
X017785Y009771D01*
X018485Y009825D02*
X018785Y009825D01*
X018785Y009375D01*
X018485Y009375D01*
X018485Y009825D01*
X018485Y009474D02*
X018785Y009474D01*
X018785Y009573D02*
X018485Y009573D01*
X018485Y009672D02*
X018785Y009672D01*
X018785Y009771D02*
X018485Y009771D01*
X018479Y008581D02*
X018779Y008581D01*
X018479Y008581D02*
X018479Y009031D01*
X018779Y009031D01*
X018779Y008581D01*
X018779Y008680D02*
X018479Y008680D01*
X018479Y008779D02*
X018779Y008779D01*
X018779Y008878D02*
X018479Y008878D01*
X018479Y008977D02*
X018779Y008977D01*
X018079Y008581D02*
X017779Y008581D01*
X017779Y009031D01*
X018079Y009031D01*
X018079Y008581D01*
X018079Y008680D02*
X017779Y008680D01*
X017779Y008779D02*
X018079Y008779D01*
X018079Y008878D02*
X017779Y008878D01*
X017779Y008977D02*
X018079Y008977D01*
X018085Y008225D02*
X017785Y008225D01*
X018085Y008225D02*
X018085Y007775D01*
X017785Y007775D01*
X017785Y008225D01*
X017785Y007874D02*
X018085Y007874D01*
X018085Y007973D02*
X017785Y007973D01*
X017785Y008072D02*
X018085Y008072D01*
X018085Y008171D02*
X017785Y008171D01*
X018485Y008225D02*
X018785Y008225D01*
X018785Y007775D01*
X018485Y007775D01*
X018485Y008225D01*
X018485Y007874D02*
X018785Y007874D01*
X018785Y007973D02*
X018485Y007973D01*
X018485Y008072D02*
X018785Y008072D01*
X018785Y008171D02*
X018485Y008171D01*
D30*
X012285Y012650D03*
X012285Y013650D03*
X012285Y014650D03*
D31*
X011535Y001850D03*
X006885Y001850D03*
X017635Y001900D03*
D32*
X019635Y001900D03*
X009535Y001850D03*
X004885Y001850D03*
D33*
X012935Y012476D03*
X013435Y012476D03*
X013935Y012476D03*
X014435Y012476D03*
X014435Y014524D03*
X013935Y014524D03*
X013435Y014524D03*
X012935Y014524D03*
D34*
X012443Y004950D03*
X014727Y004950D03*
M02*
