G75*
%MOIN*%
%OFA0B0*%
%FSLAX24Y24*%
%IPPOS*%
%LPD*%
%AMOC8*
5,1,8,0,0,1.08239X$1,22.5*
%
%ADD10C,0.0000*%
%ADD11C,0.0787*%
%ADD12C,0.0860*%
%ADD13C,0.0660*%
%ADD14C,0.0700*%
%ADD15C,0.0768*%
%ADD16OC8,0.0480*%
%ADD17R,0.0800X0.0800*%
%ADD18C,0.0800*%
%ADD19R,0.0236X0.0610*%
%ADD20R,0.0472X0.0709*%
%ADD21R,0.0394X0.0394*%
%ADD22C,0.0310*%
%ADD23C,0.0160*%
%ADD24C,0.0250*%
%ADD25C,0.0450*%
%ADD26C,0.0100*%
%ADD27C,0.0356*%
%ADD28C,0.0317*%
%ADD29C,0.0180*%
%ADD30C,0.0200*%
D10*
X004460Y000876D02*
X004460Y017246D01*
X004462Y017300D01*
X004468Y017353D01*
X004477Y017405D01*
X004490Y017457D01*
X004507Y017508D01*
X004528Y017558D01*
X004552Y017605D01*
X004579Y017651D01*
X004610Y017695D01*
X004643Y017737D01*
X004680Y017776D01*
X004719Y017813D01*
X004761Y017846D01*
X004805Y017877D01*
X004851Y017904D01*
X004898Y017928D01*
X004948Y017949D01*
X004999Y017966D01*
X005051Y017979D01*
X005103Y017988D01*
X005156Y017994D01*
X005210Y017996D01*
X021202Y017996D01*
X021251Y018002D01*
X021300Y018004D01*
X021349Y018002D01*
X021398Y017997D01*
X021446Y017988D01*
X021494Y017975D01*
X021541Y017959D01*
X021586Y017940D01*
X021629Y017917D01*
X021671Y017891D01*
X021711Y017862D01*
X021748Y017830D01*
X021783Y017795D01*
X021815Y017758D01*
X021845Y017718D01*
X021871Y017677D01*
X021894Y017633D01*
X021914Y017588D01*
X021930Y017542D01*
X021943Y017494D01*
X021952Y017446D01*
X021952Y000876D01*
X021950Y000822D01*
X021944Y000769D01*
X021935Y000717D01*
X021922Y000665D01*
X021905Y000614D01*
X021884Y000564D01*
X021860Y000517D01*
X021833Y000471D01*
X021802Y000427D01*
X021769Y000385D01*
X021732Y000346D01*
X021693Y000309D01*
X021651Y000276D01*
X021607Y000245D01*
X021561Y000218D01*
X021514Y000194D01*
X021464Y000173D01*
X021413Y000156D01*
X021361Y000143D01*
X021309Y000134D01*
X021256Y000128D01*
X021202Y000126D01*
X005210Y000126D01*
X005156Y000128D01*
X005103Y000134D01*
X005051Y000143D01*
X004999Y000156D01*
X004948Y000173D01*
X004898Y000194D01*
X004851Y000218D01*
X004805Y000245D01*
X004761Y000276D01*
X004719Y000309D01*
X004680Y000346D01*
X004643Y000385D01*
X004610Y000427D01*
X004579Y000471D01*
X004552Y000517D01*
X004528Y000564D01*
X004507Y000614D01*
X004490Y000665D01*
X004477Y000717D01*
X004468Y000769D01*
X004462Y000822D01*
X004460Y000876D01*
D11*
X014728Y016613D03*
X020791Y016613D03*
D12*
X018744Y005038D03*
X016775Y005038D03*
D13*
X016444Y003026D03*
X014475Y003026D03*
D14*
X014480Y001076D03*
X016480Y001076D03*
D15*
X010050Y004076D03*
X008200Y005076D03*
X010050Y007076D03*
X010050Y011076D03*
X008200Y011076D03*
X005200Y011076D03*
X005200Y007076D03*
X005200Y004076D03*
X013050Y011076D03*
D16*
X013260Y012676D03*
X013260Y013676D03*
X013260Y014676D03*
D17*
X012510Y001876D03*
X007860Y001876D03*
X018610Y001926D03*
D18*
X020610Y001926D03*
X010510Y001876D03*
X005860Y001876D03*
D19*
X009572Y012876D03*
X009966Y012876D03*
X010360Y012876D03*
X010753Y012876D03*
X011147Y012876D03*
X011278Y014576D03*
X010884Y014576D03*
X010491Y014576D03*
X010097Y014576D03*
X009703Y014576D03*
X009310Y014576D03*
X009310Y016326D03*
X009703Y016326D03*
X010097Y016326D03*
X010491Y016326D03*
X010884Y016326D03*
X011278Y016326D03*
D20*
X011790Y015450D03*
X011790Y013700D03*
X011659Y012000D03*
X009060Y012000D03*
X008798Y013700D03*
X008798Y015450D03*
D21*
X011922Y016911D03*
X011922Y017541D03*
X013497Y017541D03*
X013497Y016911D03*
D22*
X011260Y017126D03*
D23*
X009510Y017126D01*
X009310Y016926D01*
X009310Y016326D01*
X009310Y014576D01*
X009310Y013576D01*
X009610Y013276D01*
X009610Y012913D01*
X009572Y012876D01*
X009572Y012963D01*
X009274Y012964D02*
X008540Y012964D01*
X008540Y012806D02*
X009274Y012806D01*
X009274Y012647D02*
X008540Y012647D01*
X008540Y012526D02*
X008540Y013165D01*
X009108Y013165D01*
X009214Y013271D01*
X009214Y013303D01*
X009274Y013243D01*
X009274Y012534D01*
X008750Y012534D01*
X008741Y012526D01*
X008540Y012526D01*
X008540Y013123D02*
X009274Y013123D01*
X009236Y013281D02*
X009214Y013281D01*
X009570Y013683D02*
X009570Y014090D01*
X009703Y014090D01*
X009703Y014576D01*
X009703Y015061D01*
X009570Y015061D01*
X009570Y015840D01*
X009703Y015840D01*
X009703Y016326D01*
X009703Y016811D01*
X009570Y016811D01*
X009570Y016818D01*
X009617Y016866D01*
X010324Y016866D01*
X010263Y016804D01*
X010239Y016811D01*
X010097Y016811D01*
X010097Y016326D01*
X010097Y016326D01*
X010097Y016811D01*
X009955Y016811D01*
X009909Y016798D01*
X009900Y016793D01*
X009891Y016798D01*
X009845Y016811D01*
X009703Y016811D01*
X009703Y016326D01*
X009703Y016326D01*
X010097Y016326D01*
X010097Y016326D01*
X009799Y016326D01*
X009703Y016326D01*
X009703Y016326D01*
X009703Y016326D01*
X009703Y015840D01*
X009845Y015840D01*
X009891Y015853D01*
X009900Y015858D01*
X009909Y015853D01*
X009955Y015840D01*
X010097Y015840D01*
X010239Y015840D01*
X010285Y015853D01*
X010298Y015840D01*
X010449Y015840D01*
X010289Y015681D01*
X010249Y015681D01*
X010137Y015634D01*
X010051Y015548D01*
X010005Y015436D01*
X010005Y015315D01*
X010051Y015203D01*
X010137Y015117D01*
X010230Y015079D01*
X010230Y015061D01*
X009904Y015061D01*
X009892Y015048D01*
X009891Y015048D01*
X009845Y015061D01*
X009703Y015061D01*
X009703Y014576D01*
X009703Y014576D01*
X009703Y014576D01*
X009703Y014090D01*
X009845Y014090D01*
X009867Y014096D01*
X009867Y014043D01*
X010180Y013730D01*
X010314Y013596D01*
X010764Y013596D01*
X010999Y013361D01*
X010954Y013361D01*
X010950Y013357D01*
X010946Y013361D01*
X010561Y013361D01*
X010556Y013357D01*
X010552Y013361D01*
X010167Y013361D01*
X010154Y013348D01*
X010153Y013348D01*
X010108Y013361D01*
X009966Y013361D01*
X009966Y012876D01*
X009966Y012876D01*
X009966Y013361D01*
X009856Y013361D01*
X009830Y013423D01*
X009757Y013496D01*
X009570Y013683D01*
X009570Y013757D02*
X010153Y013757D01*
X009995Y013915D02*
X009570Y013915D01*
X009570Y014074D02*
X009867Y014074D01*
X009703Y014232D02*
X009703Y014232D01*
X009703Y014391D02*
X009703Y014391D01*
X009703Y014549D02*
X009703Y014549D01*
X009703Y014708D02*
X009703Y014708D01*
X009703Y014866D02*
X009703Y014866D01*
X009703Y015025D02*
X009703Y015025D01*
X009570Y015183D02*
X010071Y015183D01*
X010005Y015342D02*
X009570Y015342D01*
X009570Y015500D02*
X010031Y015500D01*
X010196Y015659D02*
X009570Y015659D01*
X009570Y015817D02*
X010426Y015817D01*
X010285Y015853D02*
X010285Y015853D01*
X010097Y015840D02*
X010097Y016326D01*
X010097Y016326D01*
X010097Y015840D01*
X010097Y015976D02*
X010097Y015976D01*
X010097Y016134D02*
X010097Y016134D01*
X010097Y016293D02*
X010097Y016293D01*
X010097Y016451D02*
X010097Y016451D01*
X010097Y016610D02*
X010097Y016610D01*
X010097Y016768D02*
X010097Y016768D01*
X009703Y016768D02*
X009703Y016768D01*
X009703Y016610D02*
X009703Y016610D01*
X009703Y016451D02*
X009703Y016451D01*
X009703Y016293D02*
X009703Y016293D01*
X009703Y016134D02*
X009703Y016134D01*
X009703Y015976D02*
X009703Y015976D01*
X009011Y015984D02*
X008540Y015984D01*
X008540Y017716D01*
X011545Y017716D01*
X011545Y017559D01*
X011904Y017559D01*
X011904Y017522D01*
X011545Y017522D01*
X011545Y017320D01*
X011552Y017295D01*
X011544Y017315D01*
X011449Y017410D01*
X011326Y017461D01*
X011193Y017461D01*
X011070Y017410D01*
X011046Y017386D01*
X009458Y017386D01*
X009362Y017346D01*
X009089Y017073D01*
X009050Y016977D01*
X009050Y016743D01*
X009011Y016705D01*
X009011Y015984D01*
X009011Y016134D02*
X008540Y016134D01*
X008540Y016293D02*
X009011Y016293D01*
X009011Y016451D02*
X008540Y016451D01*
X008540Y016610D02*
X009011Y016610D01*
X009050Y016768D02*
X008540Y016768D01*
X008540Y016927D02*
X009050Y016927D01*
X009101Y017085D02*
X008540Y017085D01*
X008540Y017244D02*
X009260Y017244D01*
X008540Y017402D02*
X011062Y017402D01*
X011457Y017402D02*
X011545Y017402D01*
X011545Y017561D02*
X008540Y017561D01*
X011941Y017559D02*
X012299Y017559D01*
X012299Y017716D01*
X013120Y017716D01*
X013120Y017559D01*
X013478Y017559D01*
X013478Y017522D01*
X013120Y017522D01*
X013120Y017320D01*
X013132Y017274D01*
X013156Y017233D01*
X013164Y017226D01*
X013120Y017182D01*
X013120Y017171D01*
X012299Y017171D01*
X012299Y017182D01*
X012255Y017226D01*
X012263Y017233D01*
X012287Y017274D01*
X012299Y017320D01*
X012299Y017522D01*
X011941Y017522D01*
X011941Y017559D01*
X012299Y017561D02*
X013120Y017561D01*
X013120Y017402D02*
X012299Y017402D01*
X012269Y017244D02*
X013150Y017244D01*
X013497Y016911D02*
X011922Y016911D01*
X013515Y017522D02*
X013515Y017559D01*
X013874Y017559D01*
X013874Y017716D01*
X021168Y017716D01*
X021189Y017710D01*
X021223Y017716D01*
X021257Y017716D01*
X021268Y017720D01*
X021318Y017723D01*
X021461Y017688D01*
X021580Y017601D01*
X021657Y017475D01*
X021672Y017416D01*
X021672Y016126D01*
X021113Y016126D01*
X021116Y016127D01*
X021277Y016288D01*
X021365Y016499D01*
X021365Y016727D01*
X021277Y016938D01*
X021116Y017099D01*
X020905Y017187D01*
X020677Y017187D01*
X020466Y017099D01*
X020305Y016938D01*
X020217Y016727D01*
X020217Y016586D01*
X018608Y016586D01*
X018512Y016546D01*
X018012Y016046D01*
X017939Y015973D01*
X017900Y015877D01*
X017900Y014624D01*
X017939Y014528D01*
X018012Y014455D01*
X018260Y014208D01*
X018260Y014126D01*
X018660Y013726D01*
X019460Y013726D01*
X020000Y013006D01*
X020000Y010033D01*
X019852Y009886D01*
X016108Y009886D01*
X015839Y010196D01*
X018264Y010196D01*
X018464Y009996D01*
X019705Y009996D01*
X019840Y010130D01*
X019990Y010280D01*
X019990Y010971D01*
X019855Y011106D01*
X019190Y011771D01*
X019190Y012274D01*
X019218Y012303D01*
X019265Y012415D01*
X019265Y012536D01*
X019218Y012648D01*
X019132Y012734D01*
X019020Y012781D01*
X018899Y012781D01*
X018787Y012734D01*
X018701Y012648D01*
X018691Y012625D01*
X018682Y012634D01*
X018570Y012681D01*
X018449Y012681D01*
X018337Y012634D01*
X018308Y012606D01*
X018055Y012606D01*
X017740Y012921D01*
X017605Y013056D01*
X017406Y013056D01*
X016508Y013971D01*
X016520Y013971D01*
X016632Y014017D01*
X016718Y014103D01*
X016765Y014215D01*
X016765Y014336D01*
X016718Y014448D01*
X016632Y014534D01*
X016520Y014581D01*
X016480Y014581D01*
X015731Y015329D01*
X015730Y015341D01*
X015665Y015396D01*
X015635Y015426D01*
X015635Y015436D01*
X015588Y015548D01*
X015502Y015634D01*
X015390Y015681D01*
X015350Y015681D01*
X014975Y016056D01*
X014869Y016056D01*
X014948Y016081D01*
X015029Y016122D01*
X015102Y016175D01*
X015166Y016239D01*
X015219Y016312D01*
X015260Y016393D01*
X015288Y016479D01*
X015302Y016568D01*
X015302Y016585D01*
X014756Y016585D01*
X014756Y016641D01*
X014700Y016641D01*
X014700Y017187D01*
X014683Y017187D01*
X014594Y017173D01*
X014508Y017145D01*
X014427Y017104D01*
X014354Y017051D01*
X014290Y016987D01*
X014237Y016914D01*
X014196Y016833D01*
X014170Y016751D01*
X014170Y016761D01*
X014035Y016896D01*
X013874Y017057D01*
X013874Y017182D01*
X013830Y017226D01*
X013838Y017233D01*
X013861Y017274D01*
X013874Y017320D01*
X013874Y017522D01*
X013515Y017522D01*
X013874Y017561D02*
X021604Y017561D01*
X021672Y017402D02*
X013874Y017402D01*
X013844Y017244D02*
X021672Y017244D01*
X021672Y017085D02*
X021130Y017085D01*
X021282Y016927D02*
X021672Y016927D01*
X021672Y016768D02*
X021348Y016768D01*
X021365Y016610D02*
X021672Y016610D01*
X021672Y016451D02*
X021345Y016451D01*
X021279Y016293D02*
X021672Y016293D01*
X021672Y016134D02*
X021123Y016134D01*
X020791Y016613D02*
X020504Y016326D01*
X020360Y016326D01*
X018660Y016326D01*
X018160Y015826D01*
X018160Y014676D01*
X018560Y014276D01*
X019610Y014276D01*
X020260Y013626D01*
X020260Y009926D01*
X019960Y009626D01*
X018860Y009626D01*
X018560Y009326D01*
X018560Y008026D01*
X018689Y007305D02*
X018685Y007293D01*
X018678Y007283D01*
X018668Y007275D01*
X018860Y009626D02*
X015860Y009626D01*
X014960Y010526D01*
X012660Y010526D01*
X012560Y010626D01*
X010860Y010626D01*
X010410Y011076D01*
X010050Y011076D01*
X008200Y011076D01*
X008710Y011476D02*
X008560Y011626D01*
X007110Y011626D01*
X005760Y010276D01*
X005200Y011076D02*
X004860Y010736D01*
X004860Y008926D01*
X008710Y011476D02*
X009510Y011476D01*
X009760Y011726D01*
X010260Y011726D01*
X011060Y010926D01*
X012900Y010926D01*
X013050Y011076D01*
X013460Y009126D02*
X013460Y008926D01*
X013260Y008726D01*
X012560Y008426D01*
X011460Y008576D02*
X009260Y008576D01*
X008860Y009126D01*
X009310Y009476D02*
X009189Y009596D01*
X009160Y009667D02*
X009160Y010426D01*
X009160Y009667D02*
X009162Y009647D01*
X009168Y009629D01*
X009177Y009611D01*
X009189Y009596D01*
X009966Y012964D02*
X009966Y012964D01*
X009966Y013123D02*
X009966Y013123D01*
X009966Y013281D02*
X009966Y013281D01*
X009813Y013440D02*
X010920Y013440D01*
X010312Y013598D02*
X009655Y013598D01*
X013874Y017085D02*
X014402Y017085D01*
X014247Y016927D02*
X014004Y016927D01*
X014162Y016768D02*
X014175Y016768D01*
X014700Y016768D02*
X014756Y016768D01*
X014756Y016641D02*
X014756Y017187D01*
X014773Y017187D01*
X014862Y017173D01*
X014948Y017145D01*
X015029Y017104D01*
X015102Y017051D01*
X015166Y016987D01*
X015219Y016914D01*
X015260Y016833D01*
X015288Y016747D01*
X015302Y016658D01*
X015302Y016641D01*
X014756Y016641D01*
X014756Y016610D02*
X020217Y016610D01*
X020234Y016768D02*
X015281Y016768D01*
X015209Y016927D02*
X020300Y016927D01*
X020452Y017085D02*
X015054Y017085D01*
X014756Y017085D02*
X014700Y017085D01*
X014700Y016927D02*
X014756Y016927D01*
X015279Y016451D02*
X018417Y016451D01*
X018259Y016293D02*
X015204Y016293D01*
X015045Y016134D02*
X018100Y016134D01*
X018012Y016046D02*
X018012Y016046D01*
X017942Y015976D02*
X015055Y015976D01*
X015213Y015817D02*
X017900Y015817D01*
X017900Y015659D02*
X015443Y015659D01*
X015608Y015500D02*
X017900Y015500D01*
X017900Y015342D02*
X015730Y015342D01*
X015877Y015183D02*
X017900Y015183D01*
X017900Y015025D02*
X016036Y015025D01*
X016194Y014866D02*
X017900Y014866D01*
X017900Y014708D02*
X016353Y014708D01*
X016596Y014549D02*
X017930Y014549D01*
X018077Y014391D02*
X016742Y014391D01*
X016765Y014232D02*
X018235Y014232D01*
X018311Y014074D02*
X016689Y014074D01*
X016562Y013915D02*
X018470Y013915D01*
X018628Y013757D02*
X016718Y013757D01*
X016873Y013598D02*
X019555Y013598D01*
X019674Y013440D02*
X017029Y013440D01*
X017185Y013281D02*
X019793Y013281D01*
X019912Y013123D02*
X017340Y013123D01*
X017696Y012964D02*
X020000Y012964D01*
X020000Y012806D02*
X017855Y012806D01*
X018013Y012647D02*
X018368Y012647D01*
X018651Y012647D02*
X018700Y012647D01*
X019219Y012647D02*
X020000Y012647D01*
X020000Y012489D02*
X019265Y012489D01*
X019229Y012330D02*
X020000Y012330D01*
X020000Y012172D02*
X019190Y012172D01*
X019190Y012013D02*
X020000Y012013D01*
X020000Y011855D02*
X019190Y011855D01*
X019264Y011696D02*
X020000Y011696D01*
X020000Y011538D02*
X019423Y011538D01*
X019581Y011379D02*
X020000Y011379D01*
X020000Y011221D02*
X019740Y011221D01*
X019898Y011062D02*
X020000Y011062D01*
X019990Y010904D02*
X020000Y010904D01*
X019990Y010745D02*
X020000Y010745D01*
X019990Y010587D02*
X020000Y010587D01*
X019990Y010428D02*
X020000Y010428D01*
X020000Y010270D02*
X019979Y010270D01*
X020000Y010111D02*
X019820Y010111D01*
X019919Y009953D02*
X016049Y009953D01*
X015912Y010111D02*
X018349Y010111D01*
X019160Y015076D02*
X019210Y015076D01*
X021266Y017719D02*
X021334Y017719D01*
D24*
X021260Y017666D03*
X021560Y017166D03*
X021560Y016566D03*
X020660Y017666D03*
X017660Y016066D03*
X017260Y016066D03*
X016260Y017666D03*
X015660Y017666D03*
X015060Y017666D03*
X014460Y017666D03*
X013860Y017666D03*
X013640Y016226D03*
X012810Y015176D03*
X012610Y014676D03*
X012460Y014176D03*
X012460Y013676D03*
X012610Y012776D03*
X012360Y012426D03*
X014060Y013326D03*
X014060Y013676D03*
X014610Y013676D03*
X014660Y013326D03*
X014960Y012876D03*
X015720Y012176D03*
X015810Y011826D03*
X015410Y011376D03*
X015710Y011076D03*
X016260Y010676D03*
X016860Y011376D03*
X018060Y011376D03*
X018410Y011076D03*
X019110Y010926D03*
X019510Y010626D03*
X018160Y012076D03*
X018510Y012376D03*
X018960Y012476D03*
X019160Y012926D03*
X018760Y012926D03*
X018360Y012926D03*
X017960Y012926D03*
X017560Y013326D03*
X016460Y014276D03*
X017560Y014376D03*
X015330Y015376D03*
X014433Y014549D03*
X013960Y014176D03*
X012260Y015576D03*
X010910Y015426D03*
X010310Y015376D03*
X009710Y015666D03*
X009710Y015066D03*
X009710Y014066D03*
X009710Y013666D03*
X009110Y013066D03*
X009110Y012666D03*
X005760Y010276D03*
X005210Y009726D03*
X004860Y008926D03*
X014860Y011026D03*
X016660Y009976D03*
X017060Y009976D03*
X011260Y017666D03*
X010660Y017666D03*
X010060Y017666D03*
X009460Y017666D03*
X008860Y017666D03*
D25*
X011460Y017566D02*
X013860Y017566D01*
D26*
X013694Y016911D02*
X013497Y016911D01*
X013503Y016904D01*
X013694Y016911D02*
X013940Y016666D01*
X013940Y015966D01*
X014080Y015826D01*
X014880Y015826D01*
X015330Y015376D01*
X015510Y015226D01*
X016460Y014276D01*
X016410Y014326D01*
X014910Y014026D02*
X016960Y011976D01*
X017460Y011976D01*
X018060Y011376D01*
X017860Y011076D02*
X018410Y011076D01*
X018360Y010776D02*
X018660Y010476D01*
X019360Y010476D01*
X019510Y010626D01*
X019760Y010876D02*
X019760Y010376D01*
X019610Y010226D01*
X018560Y010226D01*
X018360Y010426D01*
X015460Y010426D01*
X014860Y011026D01*
X014960Y011326D02*
X015610Y010676D01*
X016260Y010676D01*
X016810Y011076D02*
X017110Y010776D01*
X018360Y010776D01*
X017860Y011076D02*
X017260Y011676D01*
X016860Y011676D01*
X015660Y012876D01*
X014960Y012876D01*
X014060Y012876D01*
X013660Y013276D01*
X012860Y013276D01*
X012460Y013676D01*
X012460Y013476D01*
X012110Y013126D01*
X011560Y013126D01*
X010860Y013826D01*
X010410Y013826D01*
X010097Y014138D01*
X010097Y014576D01*
X010460Y014607D02*
X010491Y014576D01*
X010460Y014607D02*
X010460Y015026D01*
X010610Y015176D01*
X011210Y015176D01*
X011360Y015326D01*
X011360Y015776D01*
X011560Y015976D01*
X012310Y015976D01*
X012460Y015826D01*
X013053Y015826D01*
X013960Y015826D01*
X014080Y015826D01*
X014610Y015576D02*
X012260Y015576D01*
X012580Y016066D02*
X013480Y016066D01*
X013640Y016226D01*
X012580Y016066D02*
X012370Y016276D01*
X011960Y016276D01*
X011410Y016826D01*
X010610Y016826D01*
X010460Y016676D01*
X010460Y016357D01*
X010491Y016326D01*
X010460Y016294D01*
X010884Y016326D02*
X010884Y015950D01*
X010310Y015376D01*
X010910Y015426D02*
X010910Y015576D01*
X011260Y015926D01*
X011260Y016307D01*
X011278Y016326D01*
X011560Y014776D02*
X012510Y014776D01*
X012610Y014676D01*
X012660Y014676D01*
X012660Y014526D01*
X012910Y014276D01*
X013510Y014276D01*
X013810Y014576D01*
X014207Y014576D01*
X014433Y014549D01*
X014786Y014549D01*
X017010Y012326D01*
X017410Y012326D01*
X018060Y011676D01*
X018510Y011676D01*
X019110Y011076D01*
X019110Y010926D01*
X019760Y010876D02*
X018960Y011676D01*
X018960Y012476D01*
X018510Y012376D02*
X017960Y012376D01*
X017510Y012826D01*
X017310Y012826D01*
X014610Y015576D01*
X014460Y015326D02*
X012960Y015326D01*
X012810Y015176D01*
X012610Y014176D02*
X012460Y014176D01*
X012410Y014226D01*
X011560Y014226D01*
X011410Y014076D01*
X011060Y014076D01*
X010884Y014251D01*
X010884Y014576D01*
X011278Y014576D02*
X011360Y014576D01*
X011560Y014776D01*
X012610Y014176D02*
X012760Y014026D01*
X013860Y014026D01*
X013960Y014126D01*
X013960Y014176D01*
X013860Y014026D02*
X014910Y014026D01*
X014610Y013676D02*
X014060Y013676D01*
X014060Y013326D02*
X014660Y013326D01*
X015320Y012576D02*
X013960Y012576D01*
X013510Y013036D01*
X012860Y013036D01*
X012610Y012776D01*
X012360Y012426D02*
X012510Y012276D01*
X013910Y012276D01*
X015210Y012276D01*
X015710Y011826D01*
X015810Y011826D01*
X015720Y012176D02*
X015320Y012576D01*
X015160Y012026D02*
X015810Y011376D01*
X016860Y011376D01*
X016810Y011076D02*
X015710Y011076D01*
X015410Y011376D02*
X015260Y011526D01*
X014960Y011806D01*
X012360Y011806D01*
X012030Y011476D01*
X011360Y011476D01*
X010760Y012076D01*
X010760Y012869D01*
X010753Y012876D01*
X010360Y012876D02*
X010310Y012826D01*
X010310Y012126D01*
X011235Y011201D01*
X011260Y011176D01*
X012110Y011176D01*
X012510Y011576D01*
X014710Y011576D01*
X014960Y011326D01*
X015160Y012026D02*
X013810Y012026D01*
X012310Y012026D01*
X012060Y012276D01*
X012060Y012626D01*
X011872Y012813D01*
X011210Y012813D01*
X011147Y012876D01*
X012459Y013576D02*
X012459Y013675D01*
X012460Y013676D01*
X013810Y012026D02*
X013860Y012026D01*
X013810Y012026D01*
X014460Y015326D02*
X017160Y012576D01*
X017460Y012576D01*
X017960Y012076D01*
X018160Y012076D01*
X009110Y012666D02*
X008800Y012666D01*
X008060Y011926D01*
X007060Y011926D01*
X005260Y010126D01*
X005260Y009776D01*
X005210Y009726D01*
X005760Y010276D02*
X005810Y010276D01*
D27*
X008860Y009126D03*
X011460Y008576D03*
X013460Y009126D03*
X019160Y015076D03*
D28*
X015810Y008326D03*
X018560Y008026D03*
X009310Y009476D03*
X009160Y010426D03*
D29*
X015810Y008326D02*
X016360Y008326D01*
X017410Y007276D01*
X018668Y007276D01*
X018689Y007305D02*
X019660Y008276D01*
X020660Y009276D01*
X020660Y011926D01*
X021460Y012726D01*
X021460Y015126D01*
X021260Y015326D01*
X019460Y015326D01*
X019210Y015076D01*
D30*
X012560Y008426D02*
X012488Y008435D01*
X011460Y008576D01*
M02*
